<svg xmlns="http://www.w3.org/2000/svg" width="400" height="400" viewBox="0 0 400 400"><g fill-rule="evenodd"><path fill="#060606" d="M196.565 64.446c-.398.16-1.022.797-1.387 1.415l-.664 1.125-5.311.001c-14.634.004-44.557 1.537-59.378 3.042-18.282 1.858-22.275 2.462-24.658 3.732-7.099 3.784-25.566 33.858-38.128 62.091l-1.05 2.36-3.378-.191c-4.33-.246-4.138.048-3.455-5.297.935-7.32.561-9.332-2.068-11.122-4.636-3.154-15.619-1.942-25.399 2.804-4.985 2.42-5.458 3.617-3.636 9.195 2.942 9.003 4.234 9.632 21.389 10.418 6.865.315 11.164 1.158 11.164 2.19 0 .523-2.607 3.449-10.694 12.005-19.368 20.49-21.437 23.952-22.776 38.118-1.038 10.972-1.279 61.888-.358 75.598.165 2.456.449 10.351.632 17.544.825 32.492 1.639 37.143 6.961 39.764l1.514.746 16.428.096c20.052.116 20.392.056 22.191-3.89 1.161-2.547 2.051-10.848 2.051-19.132v-3.161l6.459.22c8.223.279 8.62.197 15.87-3.288 3.245-1.561 6.618-3.01 7.496-3.221 2.72-.655 183.168-.524 185.709.134 2.265.587 3.262.99 7.091 2.868 1.582.776 4.065 1.889 5.517 2.474l2.64 1.063 7.684-.085 7.685-.085.211 6.316c.496 14.842 1.48 18.133 5.8 19.388 2.974.865 33.906.551 35.876-.364 5.327-2.473 6.352-8.034 7.022-38.089.162-7.281.47-15.75.683-18.82.562-8.1.573-64.306.014-71.611-1.465-19.123-2.505-20.988-25.076-44.95-5.886-6.25-8.48-9.231-8.48-9.749 0-.987 4.334-1.712 13.397-2.241 11.635-.68 13.909-1.148 15.811-3.252 1.907-2.111 4.604-9.076 4.604-11.89 0-4.681-19.601-10.648-27.452-8.357-5.173 1.51-6.065 3.785-4.923 12.553.306 2.352.473 4.36.37 4.463-.345.345-2.904.716-5.033.73l-2.11.014-1.848-4.067c-11.509-25.333-29.39-55.055-35.755-59.435-2.291-1.576-4.032-2.097-8.895-2.663-15.035-1.749-18.821-2.141-26.229-2.716-16.87-1.308-27.154-1.802-44.487-2.134l-11.386-.219-.366-.884c-.68-1.641-5.371-2.566-7.889-1.554m57.183 17.233c27.334.494 39.95 1.154 41.308 2.16 2.371 1.758 16.126 25.755 22.217 38.762 5.951 12.71 6.892 15.67 5.307 16.706-1.005.657-21.706.685-65.323.09-29.875-.408-82.682-.408-113.078-.001-44.533.597-66.39.568-67.396-.089-1.528-.998-.993-2.849 3.989-13.789 6.876-15.101 21.351-40.492 23.807-41.762 4.152-2.147 83.92-3.258 149.169-2.077M67.08 144.258c.421.571 1.423 2.257 2.226 3.748 4.287 7.963 10.035 14.573 20.947 24.09 11.388 9.933 12.154 10.84 4.005 4.742-11.924-8.922-18.547-15.362-23.436-22.79-2.296-3.488-5.589-9.994-5.298-10.465.364-.588.746-.423 1.556.675m266.762-.593c.249.648-2.987 6.91-5.557 10.753-4.845 7.246-12.173 14.303-23.819 22.94-6.814 5.054-6.538 4.702 2.878-3.664 13.562-12.05 17.938-17.009 22.942-26.007 2.44-4.385 3.121-5.156 3.556-4.022M98.345 159.011c5.082 10.961 15.009 38.249 14.485 39.82-.225.673-5.113-11.956-12.759-32.962-1.82-5-3.632-9.88-4.026-10.845-1.383-3.389-.042-1.064 2.3 3.987m204.57-2.849c-.584 1.392-2.179 5.616-3.545 9.388-6.466 17.859-12.303 32.951-13.016 33.653q-.325.322-.157-.163c.092-.265.987-3.135 1.989-6.379 3.784-12.253 8.236-23.713 14.176-36.487 1.618-3.48 2.012-3.488.553-.012M47.278 185.628c3.91.868 10.122 2.241 13.807 3.052 3.684.811 7.846 1.751 9.25 2.088s6.069 1.413 10.367 2.388c15.415 3.5 29.926 7.191 30.105 7.657.184.478.143.518-6.82 6.826-5.634 5.104-3.906 4.739-15.983 3.38-13.706-1.541-11.759-.175-15.929-11.178-1.462-3.86-2.676-7.05-2.696-7.09-.053-.1-9.942-2.291-19.769-4.381-6.798-1.445-8.36-1.687-8.7-1.346-.899.898-1.419 17.685-.57 18.39.258.214 4.512.882 9.49 1.489 46.6 5.689 45.918 5.586 45.179 6.769-.639 1.024-.751 1.027-7.998.187-8.68-1.006-34.18-3.757-42.641-4.6-3.78-.376-6.707-.814-6.984-1.044-1.106-.918.576-23.122 1.805-23.84.716-.418.191-.499 8.087 1.253m312.966-.859c1.06 1.693 2.304 22.707 1.389 23.467-.225.186-4.639.782-9.809 1.324-15.572 1.631-44.426 4.776-45.383 4.946-.988.175-2.784-1.226-2.252-1.757.154-.154 2.648-.566 5.541-.916s13.229-1.636 22.965-2.858c9.737-1.221 19.354-2.393 21.372-2.603 5.355-.559 5.105-.25 5.096-6.3-.008-5.825-.493-12.821-.918-13.246-.277-.278-2.33.136-21.946 4.428-3.544.775-6.523 1.409-6.619 1.409s-.174.208-.174.461c0 .613-5.35 14.488-5.946 15.423-.724 1.133-1.393 1.268-12.323 2.482-11.914 1.323-10.337 1.629-15.455-2.992a483 483 0 0 0-5.662-5.042c-1.924-1.661-2.14-2.213-1.045-2.67 1.68-.701 29.108-7.155 59.569-14.018 11.18-2.519 11-2.495 11.6-1.538m-156.323 2.793c6.219 2.327 8.035 9.732 3.499 14.268-4.882 4.882-14.27 3.461-17.011-2.576-3.334-7.344 5.259-14.779 13.512-11.692m-8.305 1.602c-7.87 3.933-4.817 14.181 4.225 14.181 3.287 0 4.588-.512 6.603-2.6 6.291-6.519-2.386-15.799-10.828-11.581m6.194.58c2.064 1.886 2.914 5.387 1.897 7.82l-.514 1.23 1.035-.187c.732-.132 1.256-.017 1.789.392l.753.579-.876.69c-1.034.813-1.383.858-1.632.21-.276-.72-7.4-.686-8.81.043-1.002.518-1.011.516-1.898-.546-1.379-1.652-.436-2.003 2.857-1.062 2.141.611.088-2.771-2.209-3.639-1.505-.569-1.691-.738-1.634-1.495.117-1.558.561-1.758 2.378-1.067 2.054.78 2.297.566.618-.545-1.525-1.009-1.57-1.171-.519-1.859 1.104-.724 1.611-.652 3.223.457 1.656 1.139 2.015.548.461-.76-1.047-.88-.86-1.103.961-1.144.814-.018 1.4.226 2.12.883m-156.322.876c.629.168.686.468.893 4.7.138 2.821.366 4.667.607 4.91.224.227 4.637.926 10.59 1.676 10.969 1.384 11.003 1.394 11.003 3.24 0 1.278.269 1.275-9.579.113-4.995-.589-9.943-1.172-10.996-1.294-4.418-.512-4.625-.859-4.625-7.75 0-5.775.132-6.126 2.107-5.595m310.101 5.606c.119 7.681.843 7.01-8.859 8.214-17.522 2.176-16.267 2.103-16.267.943 0-.515.433-1.672.793-2.119.038-.048 4.636-.651 10.217-1.341 12.215-1.51 11.123-.867 11.271-6.639.121-4.696.203-4.916 1.801-4.777l.957.083zm-283.108-2.563c1.609 4.134 5.26 12.097 5.8 12.653.609.626 17.278 3.235 20.776 3.252.262.001 6.643-5.482 8.722-7.496.375-.362.231-.486-.928-.798-1.874-.505-19.131-4.506-26.947-6.248-3.508-.782-6.652-1.507-6.986-1.61-.428-.133-.556-.06-.437.247m250.645.488c-30.957 6.95-32.215 7.289-31.088 8.37 1.851 1.775 7.895 7.048 8.073 7.043 1.738-.044 19.852-2.536 20.342-2.799.372-.2.898-.835 1.17-1.411 1.503-3.184 5.023-11.534 4.944-11.728-.05-.125-1.599.111-3.441.525m-122.581 2.22c-.407.408-.237 1.643.252 1.83.853.328 1.477-.142 1.373-1.033-.095-.821-1.105-1.316-1.625-.797m-55.014 6.029c24.556 1.166 27.576 1.567 35.326 4.694l2.397.967 16.427.016 16.427.015 3.387-1.317c3.165-1.231 6.939-2.319 9.532-2.749 4.486-.742 39.095-2.417 50.146-2.427l5.01-.004 3.921 3.623c10.736 9.919 10.649 9.754 8.365 15.899-8.099 21.797-10.045 24.132-21.19 25.429-20.409 2.377-117.734 2.597-147.049.334-15.266-1.179-16.708-2.65-25.235-25.746-2.335-6.325-2.777-5.32 6.018-13.679l6.27-5.96 10.139.216c5.576.119 14.625.429 20.109.689m-28.306 3.448c-.526.241-3.147 2.576-5.824 5.19-5.832 5.695-5.629 4.88-3.063 12.305 5.644 16.328 7.77 18.952 16.36 20.195 19.117 2.765 116.015 3.075 146.115.467 11.843-1.025 13.395-2.36 18.715-16.094 4.449-11.484 4.505-10.958-1.829-17.136-6.163-6.012-4.365-5.499-17.711-5.051-32.477 1.089-40.849 1.872-48.908 4.572l-4.972 1.666h-33.173l-3.528-1.315c-6.568-2.448-8.875-2.807-24.224-3.766-17.504-1.095-36.682-1.616-37.958-1.033m10.819 4.12c.062.219.574 3.27 1.138 6.778a1195 1195 0 0 0 2.428 14.354c.772 4.386 1.403 8.154 1.404 8.374.001.518-1.1.516-1.53-.003-.401-.482-5.168-27.487-5.168-29.273 0-.719 1.531-.922 1.728-.23m145.002.331c0 .784-3.092 19.474-4.18 25.267-.698 3.717-.961 4.306-1.919 4.306-.741 0-.863 1.184.963-9.339.859-4.951 1.945-11.37 2.411-14.265 1.161-7.194 1.018-6.699 1.934-6.699.612 0 .791.166.791.73m-133.651-.171c.003.597 2.034 14.131 3.28 21.85l1.378 8.532h-.696c-.382 0-.834-.179-1.004-.398-.387-.5-4.943-29.534-4.697-29.932.216-.349 1.737-.395 1.739-.052m122.487.241c0 1.837-4.485 29.27-4.863 29.743-.396.495-1.517.526-1.517.041 0-.197.564-3.821 1.253-8.054s1.706-10.783 2.261-14.555 1.063-7.038 1.13-7.257c.177-.582 1.736-.508 1.736.082m-110.466 3.188a7342 7342 0 0 1 1.854 14.035c.807 6.14 1.547 11.63 1.646 12.201.163.945.107 1.036-.633 1.036-1.072 0-.89.892-3.083-15.096-2.255-16.44-2.175-15.279-1.044-15.148.846.098.886.19 1.26 2.972m98.871-1.994c-.1.57-.484 3.333-.853 6.14-.912 6.937-3.158 22.235-3.336 22.728-.327.901-1.824.463-1.633-.479.255-1.26 2.975-20.751 3.372-24.163.628-5.407.582-5.263 1.668-5.263.913 0 .955.056.782 1.037m-131.699 3.615c.398 2.266 1.511 8.312 2.472 13.434 2.123 11.318 2.11 11.079.51 9.745-1.049-.874-5.632-26.127-4.893-26.961.882-.996 1.171-.425 1.911 3.782m164.318-3.418c.164.314.042 1.784-.308 3.71-4.08 22.416-4.055 22.295-4.775 22.878-1.039.841-1.375.708-1.176-.469.293-1.735 4.695-25.548 4.862-26.305.175-.789.94-.688 1.397.186m-120.309-.197c.173.219.487 2.193.698 4.386s.876 8.437 1.478 13.876c1.302 11.765 1.285 11.323.451 11.323-.37 0-.767-.305-.933-.717-.253-.63-3.235-27.259-3.214-28.709.009-.65 1.047-.758 1.52-.159m75.999.014c0 .406-1.442 13.149-2.371 20.959-.261 2.193-.572 4.848-.69 5.901-.241 2.146-.551 2.711-1.487 2.711-.588 0-.626-.143-.445-1.674l1.161-9.726c.529-4.429 1.183-10.242 1.454-12.919s.553-5.047.628-5.266c.18-.529 1.75-.516 1.75.014m-64.456 1.489c.479.256.609.918.796 4.067.123 2.068.574 7.918 1.001 13 .969 11.513.966 11.087.079 10.958-.939-.137-1.063-.768-1.679-8.555-.285-3.597-.728-9.049-.984-12.117-.677-8.094-.672-8.134.787-7.353m52.497 1.208c-.211 1.773-1.701 19.407-1.975 23.366-.199 2.877-.454 3.508-1.416 3.508-.711 0-.73-.343-.285-5.103.424-4.539 1.179-13.264 1.6-18.491.348-4.32.51-4.78 1.686-4.79.492-.004.545.201.39 1.51m-128.193 7.813c11.74 23.459 13.097 24.892 24.682 26.056 26.969 2.711 140.838 2.378 156.938-.458 8.05-1.418 9.842-3.59 20.441-24.772 3.349-6.694 3.852-7.529 4.436-7.376.902.236.943.134-4.291 10.619-9.762 19.553-11.618 21.675-20.239 23.127-16.054 2.704-118.926 3.229-153.776.784-11.595-.813-15.337-2.325-19.042-7.696-3.439-4.986-14.15-25.938-13.662-26.727.597-.966 1.327.077 4.513 6.443m86.918-.715c.553 14.906.498 19.609-.23 19.713-.795.114-.92-1.49-1.281-16.472l-.211-8.72.764.108c.761.107.764.125.958 5.371m9.777 7.279.084 12.543-.722-.103-.721-.102-.084-12.543-.083-12.542.721.102.722.102zm10.646-.262c-.117 12.304-.183 13.019-1.17 12.64-.484-.186-.524-1.254-.458-12.084.08-13.189.071-13.075 1.054-12.935l.69.098zm9.604-3.023c-.114 13.031-.296 15.782-1.047 15.782-.974 0-.984-.197-.621-12.511.38-12.895.37-12.787 1.19-12.625.52.103.554.762.478 9.354M44.375 242.92c4.962 1.114 26.046 6.379 28.817 7.197 4.19 1.236 5.652 2.261 11.816 8.285l5.742 5.61 3.987.523c18.229 2.393 49.002 3.407 103.349 3.404 57.322-.002 88.03-.981 106.38-3.391 4.703-.618 3.677.023 9.991-6.236 7.44-7.374 6.624-6.966 21.506-10.771 23.892-6.11 23.543-6.069 24.567-2.88 1.33 4.142 4.476 21.452 5.398 29.699.695 6.218 1.354 5.761-12.312 8.553-21.648 4.423-42.711 7.563-55.699 8.303-15.243.868-156.364 1.244-180.692.481-2.105-.066-6.842-.197-10.526-.29-15.436-.394-36.467-3.376-64.275-9.113-8.75-1.805-8.5-1.726-9.102-2.891-1.591-3.076 4.317-36.156 6.623-37.084.632-.254.594-.26 4.43.601m-3.8 1.5c-1.051 1.266-4.745 20.37-5.984 30.942-.253 2.153.214 3.605 1.242 3.863 11.102 2.785 49.856 9.378 53.224 9.054 1.997-.192 1.47.339 10.691-10.758 6.553-7.886 7.971-9.758 7.514-9.922-.31-.111-1.784-.297-3.275-.413-3.821-.299-12.379-1.414-13.743-1.792-.841-.233-1.891-1.129-3.978-3.399-6.137-6.673-9.402-9.107-13.88-10.348-7.115-1.972-30.217-7.628-31.155-7.628-.178 0-.473.181-.656.401m306.953 1.982c-26.358 6.414-24.538 5.661-32.058 13.264-4.037 4.081-5.847 5.697-6.539 5.838-1.252.255-10.538 1.391-13.397 1.639-2.824.246-3.668.422-3.668.768 0 .254 8.082 10.159 13.62 16.691 2.904 3.426 3.364 3.755 5.241 3.755 5.9 0 52.498-8.434 53.29-9.645.619-.947.61-2.128-.055-7.026-1.461-10.762-4.558-26.139-5.492-27.264-.475-.572-.39-.588-10.942 1.98m-294.759 9.754c28.895 6.458 27.224 5.69 35.193 16.175 4.522 5.951 4.664 6.201 3.379 5.975-.5-.088-3.135-.524-5.855-.969-10.122-1.657-34.504-6.301-41.094-7.828-3.23-.749-2.972-.908-4.054 2.495-.871 2.737-1.741 4.433-1.284 2.501.121-.513.505-2.522.853-4.465.705-3.942 3.139-15.202 3.366-15.574.228-.375.368-.35 9.496 1.69m304.44 4.211c1.477 6.714 2.965 14.653 2.782 14.836-.064.064-.573-1.255-1.132-2.931-1.255-3.767-.133-3.554-9.098-1.725-19.504 3.978-42.354 8.032-42.537 7.546-.186-.496 7.265-10.133 9.837-12.723 2.198-2.214 2.608-2.482 4.949-3.238 3.959-1.278 31.47-7.809 33.192-7.879.596-.024.78.534 2.007 6.114m-312.675-3.668c-.092.307-.603 2.496-1.138 4.864s-1.043 4.622-1.133 5.008c-.136.591.028.756 1.036 1.038 5.021 1.406 44.898 8.894 45.288 8.504.213-.213-4.935-7.277-6.96-9.549-2.521-2.828-3.945-3.264-28.877-8.844-7.967-1.783-7.988-1.786-8.216-1.021m304.27.436c-26.873 6.082-27.898 6.367-30.053 8.353-1.145 1.056-7.27 8.805-8.208 10.384-.294.497-.082.473 6.841-.774 18.309-3.296 38.899-7.37 39.336-7.782.226-.213-1.821-10.284-2.222-10.934-.238-.385-1.275-.248-5.694.753m-286.491 9.983c7.219 1.302 13.802 2.465 14.628 2.587 1.345.197 1.64.401 2.802 1.94l1.298 1.72h-.875c-1.616 0-30.883-5.475-31.254-5.846-.398-.398-.498-2.766-.118-2.766.217 0 6.3 1.064 13.519 2.365m288.245-1.469c0 2.154.282 2.08-26.954 7.029-5.979 1.087-5.694 1.157-4.061-1.005l1.29-1.71 4.257-.714c2.341-.392 8.706-1.547 14.144-2.566 11.966-2.241 11.324-2.183 11.324-1.034m-244.867 7.248a2908 2908 0 0 1-8.966 10.805l-4.55 5.453 1.839.208c19.423 2.2 212.844 1.887 212.844-.344 0-.506-17.535-21.396-17.957-21.393-.211.001-5.552.213-11.868.47-44.897 1.831-123.589 1.664-162.889-.345l-4.037-.206zm176.019-2.801c-.347.482-1.11 1.308-1.696 1.834l-1.064.957.79-.957c1.248-1.51 2.346-2.711 2.479-2.711.066 0-.163.394-.509.877m-147.739.174c0 .052-.61.662-1.355 1.356l-1.356 1.261 1.261-1.356c1.173-1.261 1.45-1.502 1.45-1.261m-14.614 4.291c-.524.658-1.361 1.555-1.861 1.994l-.909.797.791-.956c2.148-2.598 3.82-4.148 1.979-1.835m14.708 1.516c.972 1.255.973 1.263.096.478-.49-.439-1.335-1.372-1.879-2.073-.971-1.256-.973-1.264-.096-.479.491.439 1.336 1.372 1.879 2.074m14.26-.798c-.912 1.053-1.733 1.914-1.825 1.914-.24 0 .482-.914 1.954-2.472 1.864-1.974 1.792-1.658-.129.558m14.683.08c1.267 1.486 1.394 1.709.499.877-1.148-1.066-2.614-2.871-2.333-2.871.074 0 .899.897 1.834 1.994m14.956-.08c-1.666 1.916-2.32 2.48-1.472 1.269.622-.888 2.762-3.183 2.969-3.183.092 0-.581.861-1.497 1.914m15.077.718c1.545 1.941.787 1.366-1.051-.798-.931-1.096-1.29-1.634-.797-1.196.493.439 1.324 1.336 1.848 1.994m14.296-.718c-.912 1.053-1.741 1.914-1.842 1.914-.181 0 .453-.77 2.297-2.791 1.62-1.776 1.288-1.135-.455.877m30.352-1.037c-.348.483-1.175 1.38-1.839 1.994-.938.868-.831.673.483-.877 1.747-2.063 2.461-2.651 1.356-1.117m14.363 1.755c1.545 1.941.787 1.366-1.051-.798-.931-1.096-1.29-1.634-.797-1.196.493.439 1.325 1.336 1.848 1.994m16.937-2.399c-1.173.106-1.538.346-2.83 1.858-.816.956-1.618 1.737-1.781 1.737-.164 0 .32-.658 1.075-1.463.755-.804 1.488-1.666 1.628-1.914.171-.303.748-.432 1.755-.395l1.499.056zm12.021 1.728c.949 1.078 1.573 1.903 1.388 1.834-.495-.186-3.723-3.795-3.394-3.795.154 0 1.056.882 2.006 1.961m-59.549-.477c.565.641 1.215 1.431 1.444 1.755.793 1.121.177.582-1.331-1.165-.833-.965-1.431-1.755-1.327-1.755.103 0 .649.525 1.214 1.165m-102.753 4.976c.938 1.096 1.45 1.793 1.138 1.547-.677-.532-3.227-3.541-3.001-3.541.086 0 .925.897 1.863 1.994m15.632-1.117c-.348.483-1.173 1.38-1.835 1.994-.814.756-.643.475.531-.87 1.866-2.138 2.312-2.523 1.304-1.124m13.993 1.196 1.724 1.914-1.823-1.743c-1.002-.959-1.823-1.88-1.823-2.047s.045-.244.099-.17.874.994 1.823 2.046m44.278-.159c-1.606 1.824-2.417 2.548-1.519 1.355.555-.738 2.949-3.269 3.092-3.269.062 0-.646.861-1.573 1.914m75.158 1.874c-.134.134-3.097-3.039-3.282-3.514-.058-.15.685.55 1.652 1.557s1.701 1.887 1.63 1.957m13.226-1.874c-1.558 1.791-2.487 2.605-1.546 1.355.562-.746 2.95-3.269 3.095-3.269.064 0-.634.861-1.549 1.914m-117.308-.718c-.347.483-1.101 1.308-1.677 1.834-.721.66-.569.387.488-.877 1.611-1.926 2.262-2.449 1.189-.957m14.185.944c.855 1.002 1.387 1.719 1.184 1.594-.446-.274-3.102-3.415-2.888-3.415.082 0 .849.819 1.704 1.821m30.49 1.209c.185.351.272.566.192.479-2.82-3.108-3.253-3.653-1.899-2.393.753.702 1.522 1.563 1.707 1.914m14.028-1.834c-.521.658-1.281 1.483-1.688 1.834s-.047-.187.801-1.196c1.711-2.037 2.375-2.514.887-.638m14.474.638c1.057 1.264 1.209 1.537.488.877-1.031-.942-2.443-2.711-2.165-2.711.078 0 .833.825 1.677 1.834m14.591-.084c-.844.963-1.664 1.752-1.822 1.755-.339.004 2.718-3.42 3.098-3.471.143-.019-.431.754-1.276 1.716m-145.794 6.199c-.13.215-1.653-1.299-2.703-2.686-.703-.929-.456-.756.909.638 1.031 1.053 1.838 1.974 1.794 2.048m27.832-1.888c1.041 1.052 1.736 1.913 1.544 1.913-.193 0-1.025-.789-1.849-1.754l-1.499-1.754h-11.347l-1.467 1.569c-2.164 2.313-2.553 2.373-.582.089l1.706-1.977h11.6zm29.563 0c.964 1.052 1.647 1.913 1.518 1.913-.13 0-.957-.789-1.839-1.754l-1.603-1.754h-11.239l-1.661 1.696c-1.645 1.681-1.274 1.018.548-.979l.946-1.036h11.577zm28.676-.718c.612.658 1.377 1.555 1.7 1.993.324.439-.198-.027-1.159-1.036l-1.749-1.834-5.549-.009-5.549-.009-1.651 1.84c-.908 1.012-1.725 1.767-1.815 1.676s.632-.986 1.605-1.991l1.769-1.826h11.286zm30.22.725c.934 1.048 1.571 1.906 1.417 1.906-.155 0-.962-.789-1.795-1.754l-1.515-1.754h-11.221l-1.628 1.699c-1.632 1.703-1.194.964.582-.982l.946-1.036 5.758.007 5.759.007zm29.486-.007c.973 1.052 1.654 1.913 1.513 1.913-.14 0-.977-.789-1.859-1.754l-1.603-1.754h-11.175l-1.514 1.754c-.833.965-1.64 1.754-1.792 1.754s.481-.861 1.408-1.913l1.684-1.914h11.57zm21.561-1.676-5.311.096-1.492 1.747c-.821.96-1.656 1.746-1.857 1.746-.2 0 .489-.861 1.53-1.913l1.894-1.914 5.273.071 5.273.072zm8.012 1.755c.918 1.009 1.543 1.834 1.389 1.834s-1.057-.882-2.006-1.96-1.574-1.904-1.389-1.834 1.088.951 2.006 1.96m15.578-1.41c-.837 1.171-2.717 3.244-2.942 3.244-.127 0 .533-.858 1.466-1.906 1.72-1.933 2.233-2.398 1.476-1.338m-178.137 5.345c1.231 1.475.934 1.374-.604-.205-.694-.712-1.046-1.202-.783-1.089.264.113.888.696 1.387 1.294m16.764-1.383c-.076.044-.782.654-1.569 1.356l-1.43 1.276 1.261-1.356c.693-.746 1.399-1.356 1.568-1.356s.246.036.17.08m12.79 1.356c.775.789 1.258 1.435 1.073 1.435s-.924-.646-1.643-1.435c-.718-.79-1.201-1.436-1.072-1.436.128 0 .868.646 1.642 1.436m15.529 0c-.709.789-1.437 1.435-1.617 1.435-.181 0 .306-.646 1.08-1.435.775-.79 1.503-1.436 1.618-1.436s-.371.646-1.081 1.436m15.093 1.342c0 .24-.286-.014-1.608-1.422l-1.422-1.515 1.515 1.422c.834.782 1.515 1.464 1.515 1.515m14.73-1.9c-.344.482-.957 1.164-1.362 1.515s-.188-.044.483-.877c1.322-1.644 1.889-2.056.879-.638m14.035 1.116c1.01 1.417.443 1.006-.879-.638-.671-.833-.888-1.228-.483-.877s1.018 1.033 1.362 1.515m14.925-.386c-.74.884-1.427 1.527-1.525 1.429-.16-.16 2.444-3.037 2.748-3.037.068 0-.483.724-1.223 1.608m15.322 1.17c0 .422-.705-.154-1.738-1.422l-1.236-1.515 1.487 1.422c.818.782 1.487 1.464 1.487 1.515m15.597-2.698c-.076.044-.854.726-1.728 1.515l-1.589 1.436 1.422-1.515c.782-.834 1.56-1.516 1.728-1.516s.243.036.167.08m12.473 1.196c.556.702.956 1.276.889 1.276s-.682-.574-1.368-1.276c-.685-.701-1.085-1.276-.889-1.276.197 0 .812.575 1.368 1.276m15.992-.352c-.463.509-.901.867-.975.797-.166-.159 1.276-1.721 1.589-1.721.124 0-.152.416-.614.924m-174.796 11.12c-1.799.399-8.678 3.636-9.287 4.37-.251.303 5.775.433 27.665.599 58.402.442 176.151.157 176.151-.427 0-.353-7.343-3.736-9.409-4.335-2.505-.726-181.88-.927-185.12-.207"/><path fill="#fbfbfb" d="M0 200v200h400V0H0zM203.032 64.616c.581.275 1.221.898 1.422 1.384l.366.884 11.386.219c17.333.332 27.617.826 44.487 2.134 7.408.575 11.194.967 26.229 2.716 4.863.566 6.604 1.087 8.895 2.663 6.365 4.38 24.246 34.102 35.755 59.435l1.848 4.067 2.11-.014c2.129-.014 4.688-.385 5.033-.73.103-.103-.064-2.111-.37-4.463-1.142-8.768-.25-11.043 4.923-12.553 7.851-2.291 27.452 3.676 27.452 8.357 0 2.814-2.697 9.779-4.604 11.89-1.902 2.104-4.176 2.572-15.811 3.252-9.063.529-13.397 1.254-13.397 2.241 0 .518 2.594 3.499 8.48 9.749 22.571 23.962 23.611 25.827 25.076 44.95.559 7.305.548 63.511-.014 71.611-.213 3.07-.521 11.539-.683 18.82-.67 30.055-1.695 35.616-7.022 38.089-1.97.915-32.902 1.229-35.876.364-4.32-1.255-5.304-4.546-5.8-19.388l-.211-6.316-7.685.085-7.684.085-2.64-1.063a101 101 0 0 1-5.517-2.474c-3.829-1.878-4.826-2.281-7.091-2.868-2.541-.658-182.989-.789-185.709-.134-.878.211-4.251 1.66-7.496 3.221-7.25 3.485-7.647 3.567-15.87 3.288l-6.459-.22v3.161c0 8.284-.89 16.585-2.051 19.132-1.799 3.946-2.139 4.006-22.191 3.89l-16.428-.096-1.514-.746c-5.322-2.621-6.136-7.272-6.961-39.764-.183-7.193-.467-15.088-.632-17.544-.921-13.71-.68-64.626.358-75.598 1.339-14.166 3.408-17.628 22.776-38.118 8.087-8.556 10.694-11.482 10.694-12.005 0-1.032-4.299-1.875-11.164-2.19-17.155-.786-18.447-1.415-21.389-10.418-1.822-5.578-1.349-6.775 3.636-9.195 9.78-4.746 20.763-5.958 25.399-2.804 2.629 1.79 3.003 3.802 2.068 11.122-.683 5.345-.875 5.051 3.455 5.297l3.378.191 1.05-2.36c12.562-28.233 31.029-58.307 38.128-62.091 2.383-1.27 6.376-1.874 24.658-3.732 14.821-1.505 44.744-3.038 59.378-3.042l5.311-.001.664-1.125c1.047-1.774 5.314-2.451 7.854-1.245m-37.163 16.737c-36.828.375-59.053 1.246-61.29 2.403-2.456 1.27-16.931 26.661-23.807 41.762-4.982 10.94-5.517 12.791-3.989 13.789 1.006.657 22.863.686 67.396.089 30.396-.407 83.203-.407 113.078.001 43.617.595 64.318.567 65.323-.09 1.585-1.036.644-3.996-5.307-16.706-6.091-13.007-19.846-37.004-22.217-38.762-2.533-1.877-67.043-3.118-129.187-2.486m-100.345 62.23c-.291.471 3.002 6.977 5.298 10.465 4.889 7.428 11.512 13.868 23.436 22.79 8.149 6.098 7.383 5.191-4.005-4.742-10.912-9.517-16.66-16.127-20.947-24.09-2.283-4.239-3.219-5.334-3.782-4.423m267.107.197c-.265.307-1.32 2.065-2.345 3.907-5.004 8.998-9.38 13.957-22.942 26.007-9.416 8.366-9.692 8.718-2.878 3.664 11.646-8.637 18.974-15.694 23.819-22.94 2.57-3.843 5.806-10.105 5.557-10.753q-.34-.894-1.211.115M96.045 155.024c.394.965 2.206 5.845 4.026 10.845 7.646 21.006 12.534 33.635 12.759 32.962.524-1.571-9.403-28.859-14.485-39.82-2.342-5.051-3.683-7.376-2.3-3.987m206.317 1.15c-5.94 12.774-10.392 24.234-14.176 36.487a725 725 0 0 1-1.989 6.379q-.168.485.157.163c.713-.702 6.55-15.794 13.016-33.653 1.366-3.772 2.961-7.996 3.545-9.388 1.459-3.476 1.065-3.468-.553.012M39.191 184.375c-1.229.718-2.911 22.922-1.805 23.84.277.23 3.204.668 6.984 1.044 8.461.843 33.961 3.594 42.641 4.6 7.247.84 7.359.837 7.998-.187.739-1.183 1.421-1.08-45.179-6.769-4.978-.607-9.232-1.275-9.49-1.489-.849-.705-.329-17.492.57-18.39.34-.341 1.902-.099 8.7 1.346 9.827 2.09 19.716 4.281 19.769 4.381.02.04 1.234 3.23 2.696 7.09 4.17 11.003 2.223 9.637 15.929 11.178 12.077 1.359 10.349 1.724 15.983-3.38 6.963-6.308 7.004-6.348 6.82-6.826-.179-.466-14.69-4.157-30.105-7.657-4.298-.975-8.964-2.05-10.367-2.388-1.404-.337-5.566-1.277-9.25-2.088s-9.897-2.184-13.807-3.052c-7.896-1.752-7.371-1.671-8.087-1.253m309.453 1.932c-30.461 6.863-57.889 13.317-59.569 14.018-1.095.457-.879 1.009 1.045 2.67.969.837 3.517 3.106 5.662 5.042 5.118 4.621 3.541 4.315 15.455 2.992 10.93-1.214 11.599-1.349 12.323-2.482.596-.935 5.946-14.81 5.946-15.423 0-.253.078-.461.174-.461s3.075-.634 6.619-1.409c19.616-4.292 21.669-4.706 21.946-4.428.425.425.91 7.421.918 13.246.009 6.05.259 5.741-5.096 6.3-2.018.21-11.635 1.382-21.372 2.603a8332 8332 0 0 1-22.965 2.858c-2.893.35-5.387.762-5.541.916-.532.531 1.264 1.932 2.252 1.757.957-.17 29.811-3.315 45.383-4.946 5.17-.542 9.584-1.138 9.809-1.324.915-.76-.329-21.774-1.389-23.467-.6-.957-.42-.981-11.6 1.538m-152.202 1.059c-10.744 3.838-8.11 17.206 3.399 17.248 7.576.027 12.209-6.179 9.29-12.447-1.917-4.118-8.077-6.448-12.689-4.801m6.919 1.364c3.984 1.357 6.27 5.974 4.757 9.606-2.871 6.893-14.103 6.751-16.557-.21-2.203-6.248 4.763-11.794 11.8-9.396m-5.19.315c-.253.102-.053.446.558.96 1.554 1.308 1.195 1.899-.461.76-1.612-1.109-2.119-1.181-3.223-.457-1.051.688-1.006.85.519 1.859 1.679 1.111 1.436 1.325-.618.545-1.817-.691-2.261-.491-2.378 1.067-.057.757.129.926 1.634 1.495 2.297.868 4.35 4.25 2.209 3.639-3.293-.941-4.236-.59-2.857 1.062.887 1.062.896 1.064 1.898.546 1.41-.729 8.534-.763 8.81-.043.249.648.598.603 1.632-.21l.876-.69-.753-.579c-.533-.409-1.057-.524-1.789-.392l-1.035.187.514-1.23c1.781-4.263-1.932-9.976-5.536-8.519m-154.407 1.768c-.478.479-.534 10.023-.066 11.255.384 1.009 1.72 1.597 4.308 1.897 1.053.122 6.001.705 10.996 1.294 9.848 1.162 9.579 1.165 9.579-.113 0-1.846-.034-1.856-11.003-3.24-5.953-.75-10.366-1.449-10.59-1.676-.241-.243-.469-2.089-.607-4.91-.207-4.232-.264-4.532-.893-4.7-.99-.266-1.299-.231-1.724.193m309.458-.146c-.236.156-.406 1.795-.478 4.617-.148 5.772.944 5.129-11.271 6.639-5.581.69-10.179 1.293-10.217 1.341-.36.447-.793 1.604-.793 2.119 0 1.16-1.255 1.233 16.267-.943 9.702-1.204 8.978-.533 8.859-8.214l-.087-5.636-.957-.083c-.526-.046-1.121.026-1.323.16m-273.318 4.359c7.816 1.742 25.073 5.743 26.947 6.248 1.159.312 1.303.436.928.798-2.079 2.014-8.46 7.497-8.722 7.496-3.498-.017-20.167-2.626-20.776-3.252-.54-.556-4.191-8.519-5.8-12.653-.119-.307.009-.38.437-.247.334.103 3.478.828 6.986 1.61m244.485 4.054c-3.106 7.149-3.17 7.273-3.936 7.685-.49.263-18.604 2.755-20.342 2.799-.178.005-6.222-5.268-8.073-7.043-1.079-1.034-.192-1.289 21.997-6.317 11.56-2.62 12.442-2.801 12.532-2.578.051.125-.93 2.579-2.178 5.454m-122.219-1.912c.104.891-.52 1.361-1.373 1.033-.489-.187-.659-1.422-.252-1.83.52-.519 1.53-.024 1.625.797m-93.157 10.287c-8.795 8.359-8.353 7.354-6.018 13.679 8.527 23.096 9.969 24.567 25.235 25.746 29.315 2.263 126.64 2.043 147.049-.334 11.145-1.297 13.091-3.632 21.19-25.429 2.284-6.145 2.371-5.98-8.365-15.899l-3.921-3.623-5.01.004c-11.051.01-45.66 1.685-50.146 2.427-2.593.43-6.367 1.518-9.532 2.749l-3.387 1.317-16.427-.015-16.427-.016-2.397-.967c-2.883-1.163-7.205-2.502-9.443-2.925-3.931-.743-29.404-2.105-45.992-2.458l-10.139-.216zm30.221-1.371c8.677.333 21.03 1.054 27.267 1.591 4.527.389 8.322 1.263 12.906 2.972l3.528 1.315h33.173l4.972-1.666c8.059-2.7 16.431-3.483 48.908-4.572 13.346-.448 11.548-.961 17.711 5.051 6.334 6.178 6.278 5.652 1.829 17.136-5.32 13.734-6.872 15.069-18.715 16.094-30.1 2.608-126.998 2.298-146.115-.467-8.59-1.243-10.716-3.867-16.36-20.195-2.566-7.425-2.769-6.61 3.063-12.305 6.593-6.438 3.504-5.888 27.833-4.954m-12.918 4.114c0 1.786 4.767 28.791 5.168 29.273.43.519 1.531.521 1.53.003-.001-.22-.632-3.988-1.404-8.374a1195 1195 0 0 1-2.428-14.354c-1.245-7.749-1.081-7.177-2.059-7.177-.591 0-.807.169-.807.629m145.001.089c-.081.395-.529 3.086-.996 5.981s-1.552 9.314-2.411 14.265c-1.826 10.523-1.704 9.339-.963 9.339.958 0 1.221-.589 1.919-4.306 1.088-5.793 4.18-24.483 4.18-25.267 0-1.036-1.518-1.046-1.729-.012m-133.661-.107c-.246.398 4.31 29.432 4.697 29.932.17.219.622.398 1.004.398h.696l-1.378-8.532c-1.246-7.719-3.277-21.253-3.28-21.85-.002-.343-1.523-.297-1.739.052m122.49.107c-.067.219-.575 3.485-1.13 7.257a1175 1175 0 0 1-2.261 14.555c-.689 4.233-1.253 7.857-1.253 8.054 0 .485 1.121.454 1.517-.041.378-.473 4.863-27.906 4.863-29.743 0-.59-1.559-.664-1.736-.082m-110.864.832c0 .89 3.797 28.47 4.013 29.152.362 1.141 1.826.709 1.621-.478-.099-.571-.839-6.061-1.646-12.201-2.496-18.995-2.11-16.891-3.114-17.007-.694-.08-.874.03-.874.534m99.074.603c-.102.658-.336 2.489-.519 4.067-.397 3.412-3.117 22.903-3.372 24.163-.191.942 1.306 1.38 1.633.479.178-.493 2.424-15.791 3.336-22.728.369-2.807.753-5.57.853-6.14.173-.981.131-1.037-.782-1.037-.869 0-.982.119-1.149 1.196m-131.679-.326c-.739.834 3.844 26.087 4.893 26.961 1.6 1.334 1.613 1.573-.51-9.745a1645 1645 0 0 1-2.472-13.434c-.74-4.207-1.029-4.778-1.911-3.782m164.832.178c-.167.757-4.569 24.57-4.862 26.305-.199 1.177.137 1.31 1.176.469.72-.583.695-.462 4.775-22.878.586-3.223.502-4.051-.449-4.416q-.484-.187-.64.52m-120.432.148c-.021 1.45 2.961 28.079 3.214 28.709.166.412.563.717.933.717.834 0 .851.442-.451-11.323-.602-5.439-1.267-11.683-1.478-13.876s-.525-4.167-.698-4.386c-.473-.599-1.511-.491-1.52.159m75.769-.159c-.075.219-.358 2.589-.628 5.266-.271 2.677-.925 8.49-1.454 12.919l-1.161 9.726c-.181 1.531-.143 1.674.445 1.674.936 0 1.246-.565 1.487-2.711.118-1.053.429-3.708.69-5.901.929-7.81 2.371-20.553 2.371-20.959 0-.53-1.57-.543-1.75-.014m-63.959 2.238c0 .572.21 3.551.466 6.618s.699 8.52.984 12.117c.616 7.787.74 8.418 1.679 8.555.887.129.89.555-.079-10.958-.427-5.082-.878-10.932-1.001-13-.187-3.149-.317-3.811-.796-4.067-.967-.518-1.253-.35-1.253.735m52.406-.787c-.239.151-.517 1.88-.732 4.54a1842 1842 0 0 1-1.6 18.491c-.445 4.76-.426 5.103.285 5.103.962 0 1.217-.631 1.416-3.508.274-3.959 1.764-21.593 1.975-23.366.184-1.558-.244-1.96-1.344-1.26m-131.362 2.63c-.488.789 10.223 21.741 13.662 26.727 3.705 5.371 7.447 6.883 19.042 7.696 34.85 2.445 137.722 1.92 153.776-.784 8.621-1.452 10.477-3.574 20.239-23.127 5.234-10.485 5.193-10.383 4.291-10.619-.584-.153-1.087.682-4.436 7.376-10.599 21.182-12.391 23.354-20.441 24.772-16.1 2.836-129.969 3.169-156.938.458-11.585-1.164-12.942-2.597-24.682-26.056-3.186-6.366-3.916-7.409-4.513-6.443m89.92 8.969c.361 14.982.486 16.586 1.281 16.472.667-.095.672-.167.549-7.273-.271-15.722-.412-17.689-1.277-17.811l-.764-.108zm9.845 3.833.084 12.543.721.102.722.103-.084-12.543-.083-12.543-.722-.102-.721-.102zm10.679-11.957c-.49 1.939-.27 24.344.24 24.54.987.379 1.053-.336 1.17-12.64l.116-12.281-.69-.098c-.453-.064-.741.1-.836.479m9.837-.165c-.234.703-.856 24.18-.65 24.514.105.171.457.31.78.31 1.098 0 1.663-24.92.569-25.136-.307-.061-.622.08-.699.312M39.945 242.319c-2.306.928-8.214 34.008-6.623 37.084.602 1.165.352 1.086 9.102 2.891 27.808 5.737 48.839 8.719 64.275 9.113 3.684.093 8.421.224 10.526.29 24.328.763 165.449.387 180.692-.481 12.988-.74 34.051-3.88 55.699-8.303 13.666-2.792 13.007-2.335 12.312-8.553-.922-8.247-4.068-25.557-5.398-29.699-1.024-3.189-.675-3.23-24.567 2.88-14.882 3.805-14.066 3.397-21.506 10.771-6.314 6.259-5.288 5.618-9.991 6.236-18.35 2.41-49.058 3.389-106.38 3.391-54.347.003-85.12-1.011-103.349-3.404l-3.987-.523-5.742-5.61c-6.164-6.024-7.626-7.049-11.816-8.285-4.744-1.4-32.003-8.069-32.645-7.987a3.4 3.4 0 0 0-.602.189m7.866 3.158c6.28 1.463 20.214 4.962 24.575 6.17 4.478 1.241 7.743 3.675 13.88 10.348 2.087 2.27 3.137 3.166 3.978 3.399 1.364.378 9.922 1.493 13.743 1.792 1.491.116 2.965.302 3.275.413.457.164-.961 2.036-7.514 9.922-9.221 11.097-8.694 10.566-10.691 10.758-3.368.324-42.122-6.269-53.224-9.054-1.028-.258-1.495-1.71-1.242-3.863 1.239-10.572 4.933-29.676 5.984-30.942.452-.545.202-.582 7.236 1.057m310.659-1.055c.934 1.125 4.031 16.502 5.492 27.264.665 4.898.674 6.079.055 7.026-.792 1.211-47.39 9.645-53.29 9.645-1.877 0-2.337-.329-5.241-3.755-5.538-6.532-13.62-16.437-13.62-16.691 0-.346.844-.522 3.668-.768 2.859-.248 12.145-1.384 13.397-1.639.692-.141 2.502-1.757 6.539-5.838 7.52-7.603 5.7-6.85 32.058-13.264 10.552-2.568 10.467-2.552 10.942-1.98M43.273 254.466c-.227.372-2.661 11.632-3.366 15.574-.348 1.943-.732 3.952-.853 4.465-.457 1.932.413.236 1.284-2.501 1.082-3.403.824-3.244 4.054-2.495 6.59 1.527 30.972 6.171 41.094 7.828 2.72.445 5.355.881 5.855.969 1.285.226 1.143-.024-3.379-5.975-5.263-6.925-6.585-8.322-8.96-9.475-3.395-1.648-35.275-9.134-35.729-8.39m302.341 1.854c-24.64 5.628-25.391 5.866-28.553 9.05-2.572 2.59-10.023 12.227-9.837 12.723.183.486 23.033-3.568 42.537-7.546 8.965-1.829 7.843-2.042 9.098 1.725 1.326 3.978 1.41 3.715.474-1.475-1.854-10.28-3.425-16.573-4.131-16.544-.361.015-4.676.945-9.588 2.067m-292.864 1.4c24.932 5.58 26.356 6.016 28.877 8.844 2.025 2.272 7.173 9.336 6.96 9.549-.39.39-40.267-7.098-45.288-8.504-1.008-.282-1.172-.447-1.036-1.038.09-.386.599-2.64 1.133-5.008 1.242-5.505 1.214-5.423 1.8-5.423.273 0 3.672.711 7.554 1.58m301.748-1.338c.401.65 2.448 10.721 2.222 10.934-.437.412-21.027 4.486-39.336 7.782-6.923 1.247-7.135 1.271-6.841.774.938-1.579 7.063-9.328 8.208-10.384 1.913-1.763 3.3-2.213 15.38-4.993 20.353-4.683 20.052-4.622 20.367-4.113m-305.922 9.673c.096.716.247 1.375.336 1.464.371.371 29.638 5.846 31.254 5.846h.875l-1.298-1.72c-1.162-1.539-1.457-1.743-2.802-1.94-.826-.122-7.409-1.285-14.628-2.587-15.555-2.803-13.954-2.679-13.737-1.063m290.658.628c-5.438 1.019-11.803 2.174-14.144 2.566l-4.257.714-1.29 1.71c-1.633 2.162-1.918 2.092 4.061 1.005 27.236-4.949 26.954-4.875 26.954-7.029 0-1.149.642-1.207-11.324 1.034m-213.237 1.582c38.973 1.53 111.363 1.449 151.036-.169 6.316-.257 11.657-.469 11.868-.47.422-.003 17.957 20.887 17.957 21.393 0 2.231-193.421 2.544-212.844.344l-1.839-.208 4.55-5.453a2908 2908 0 0 0 8.966-10.805l4.416-5.352 4.037.206c2.221.114 7.555.345 11.853.514m155.317 1.831a76 76 0 0 0-1.574 1.834l-.79.957 1.064-.957c.999-.897 2.473-2.711 2.205-2.711-.067 0-.474.394-.905.877m-148.793 1.435-1.261 1.356 1.356-1.261c1.26-1.173 1.502-1.451 1.261-1.451-.053 0-.663.61-1.356 1.356m-13.406 2.871c-.52.57-1.302 1.467-1.737 1.994l-.791.956.909-.797c.905-.794 2.925-3.19 2.689-3.19-.068 0-.549.467-1.07 1.037m13.167.08c.544.701 1.389 1.634 1.879 2.073.877.785.876.777-.096-.478-.543-.702-1.388-1.635-1.879-2.074-.877-.785-.875-.777.096.479m16.172.239c-1.472 1.558-2.194 2.472-1.954 2.472.092 0 .913-.861 1.825-1.914 1.921-2.216 1.993-2.532.129-.558m13.219-.479c.348.483 1.173 1.38 1.834 1.994.895.832.768.609-.499-.877-1.776-2.082-2.417-2.619-1.335-1.117m16.445.392c-1.235 1.335-2.167 2.559-1.948 2.559.071 0 .879-.861 1.794-1.914 1.862-2.14 1.975-2.612.154-.645m13.872.565c.932 1.097 1.763 1.994 1.848 1.994.254 0-1.678-2.329-2.645-3.19-.493-.438-.134.1.797 1.196m15.802-.797c-1.844 2.021-2.478 2.791-2.297 2.791.101 0 .93-.861 1.842-1.914 1.743-2.012 2.075-2.653.455-.877m28.541.957c-1.314 1.55-1.421 1.745-.483.877 1.18-1.092 2.619-2.871 2.321-2.871-.082 0-.909.897-1.838 1.994m14.668-.16c.932 1.097 1.763 1.994 1.848 1.994.254 0-1.678-2.329-2.645-3.19-.493-.438-.134.1.797 1.196m16.08-1.383c-.14.248-.873 1.11-1.628 1.914-.755.805-1.239 1.463-1.075 1.463.163 0 .965-.781 1.781-1.737 1.292-1.512 1.657-1.752 2.83-1.858l1.346-.121-1.499-.056c-1.007-.037-1.584.092-1.755.395m13.311 1.383c.918 1.009 1.821 1.891 2.006 1.961.185.069-.439-.756-1.388-1.834-.95-1.079-1.852-1.961-2.006-1.961s.471.826 1.388 1.834m-58.818.24c1.508 1.747 2.124 2.286 1.331 1.165-.696-.984-2.459-2.92-2.658-2.92-.104 0 .494.79 1.327 1.755m-103.591 3.94c.712.851 1.551 1.748 1.863 1.993s-.2-.451-1.138-1.547c-.938-1.097-1.777-1.994-1.863-1.994s.425.696 1.138 1.548m15.053.453c-1.174 1.345-1.345 1.626-.531.87 1.071-.994 2.631-2.883 2.365-2.864-.056.004-.881.902-1.834 1.994m13.375-1.804c0 .167.821 1.088 1.823 2.047l1.823 1.743-1.724-1.914a128 128 0 0 1-1.823-2.046c-.054-.074-.099.003-.099.17m46.381 1.159c-1.386 1.467-2.196 2.472-1.993 2.472.07 0 .886-.862 1.812-1.914 1.948-2.213 2.054-2.542.181-.558m71.695-1.082c.185.475 3.148 3.648 3.282 3.514.071-.07-.663-.951-1.63-1.957s-1.71-1.707-1.652-1.557m16.662 1.082c-1.438 1.523-2.194 2.472-1.97 2.472.083 0 .9-.862 1.816-1.914 1.929-2.218 2.015-2.529.154-.558m-118.651.797c-1.057 1.264-1.209 1.537-.488.877 1.031-.942 2.443-2.711 2.165-2.711-.078 0-.833.825-1.677 1.834m14.854-.24c.734.877 1.501 1.696 1.704 1.821s-.329-.592-1.184-1.594-1.622-1.821-1.704-1.821c-.083 0 .45.717 1.184 1.594m29.495.001c.859.965 1.628 1.826 1.707 1.914s-.007-.128-.192-.479-.954-1.212-1.707-1.914c-1.351-1.257-1.348-1.251.192.479m14.656.239c-.848 1.009-1.208 1.547-.801 1.196.811-.699 2.726-3.03 2.49-3.03-.082 0-.841.825-1.689 1.834m14.172-.957c.347.483 1.101 1.308 1.677 1.834.721.66.569.387-.488-.877-1.611-1.926-2.262-2.449-1.189-.957m15.234.912c-.86.946-1.434 1.718-1.276 1.716s.978-.792 1.822-1.755c1.98-2.257 1.51-2.224-.546.039m-147.951 3.474c1.05 1.387 2.573 2.901 2.703 2.686.044-.074-.763-.995-1.794-2.048-1.365-1.394-1.612-1.567-.909-.638m15.335.861c-1.971 2.284-1.582 2.224.582-.089l1.467-1.569h11.347l1.499 1.754c.824.965 1.656 1.754 1.849 1.754.192 0-.503-.861-1.544-1.913l-1.894-1.914h-11.6zm30.487-.941c-1.822 1.997-2.193 2.66-.548.979l1.661-1.696h11.239l1.603 1.754c.882.965 1.709 1.754 1.839 1.754s-.554-.861-1.518-1.913l-1.753-1.914h-11.577zm28.785.79c-.973 1.005-1.695 1.901-1.605 1.991s.907-.664 1.815-1.676l1.651-1.84 5.549.009 5.549.009 1.749 1.834c.961 1.009 1.483 1.475 1.159 1.036-.323-.438-1.088-1.335-1.7-1.993l-1.112-1.196h-11.286zm30.227-.79c-1.776 1.946-2.214 2.685-.582.982l1.628-1.699h11.221l1.515 1.754c.833.965 1.64 1.754 1.795 1.754.154 0-.483-.858-1.417-1.906l-1.697-1.907-5.759-.007-5.758-.007zm28.624.878c-.927 1.052-1.56 1.913-1.408 1.913s.959-.789 1.792-1.754l1.514-1.754h11.175l1.603 1.754c.882.965 1.719 1.754 1.859 1.754.141 0-.54-.861-1.513-1.913l-1.768-1.914H238.1zm29.453 0c-1.041 1.052-1.73 1.913-1.53 1.913.201 0 1.036-.786 1.857-1.746l1.492-1.747 5.311-.096 5.31-.095-5.273-.072-5.273-.071zm14.525-.047c.949 1.078 1.852 1.96 2.006 1.96.329 0-2.899-3.609-3.395-3.794-.185-.07.44.756 1.389 1.834m14.719.054c-.933 1.048-1.593 1.906-1.466 1.906.225 0 2.105-2.073 2.942-3.244.757-1.06.244-.595-1.476 1.338m-177.265 3.802c.693.712 1.318 1.294 1.387 1.294.273 0-1.721-2.19-2.17-2.383-.263-.113.089.377.783 1.089m15.63.098-1.261 1.356 1.43-1.276c.787-.702 1.493-1.312 1.569-1.356s-.001-.08-.17-.08-.875.61-1.568 1.356m13.958.08c.719.789 1.458 1.435 1.643 1.435s-.298-.646-1.073-1.435c-.774-.79-1.514-1.436-1.642-1.436-.129 0 .354.646 1.072 1.436m15.562 0c-.774.789-1.261 1.435-1.08 1.435s.908-.646 1.617-1.435c.71-.79 1.196-1.436 1.081-1.436s-.843.646-1.618 1.436m14.022-.08c.782.833 1.464 1.515 1.515 1.515.24 0-.013-.286-1.422-1.608l-1.515-1.422zm15.459.16c-.671.833-.888 1.228-.483.877.761-.659 2.097-2.393 1.844-2.393-.078 0-.691.682-1.361 1.516m14.035-.16c.67.833 1.283 1.515 1.361 1.515.253 0-1.083-1.733-1.844-2.392-.405-.351-.188.044.483.877m15.502.073c-.771.786-1.322 1.509-1.223 1.608.098.098.785-.545 1.525-1.429 1.666-1.99 1.545-2.061-.302-.179m13.886-.073c.679.833 1.348 1.515 1.486 1.515.412 0 .318-.123-1.235-1.608l-1.487-1.422zm15.44.16-1.422 1.515 1.589-1.436c.874-.789 1.652-1.471 1.728-1.515s.001-.08-.167-.08-.946.682-1.728 1.516m13.889-.24c.686.702 1.301 1.276 1.368 1.276s-.333-.574-.889-1.276c-.556-.701-1.171-1.276-1.368-1.276-.196 0 .204.575.889 1.276m16.11-.479c-.411.437-.688.853-.614.924.074.07.512-.288.975-.797.462-.508.738-.924.614-.924-.125 0-.564.359-.975.797m10.685 11.454c2.066.599 9.409 3.982 9.409 4.335 0 .584-117.749.869-176.151.427-21.89-.166-27.916-.296-27.665-.599.609-.734 7.488-3.971 9.287-4.37 3.24-.72 182.615-.519 185.12.207"/></g></svg>