<svg xmlns="http://www.w3.org/2000/svg" width="400" height="400" viewBox="0 0 400 400"><g fill-rule="evenodd"><path fill="#060606" d="M171.132 82.171c-20.962.585-37.494 1.673-48.441 3.189-1.905.264-3.843.398-4.306.298-9.008-1.955-24.732 20.519-40.724 58.202-1.855 4.372-2.578 5.473-4.235 6.452l-.926.547-1.052-1.31c-1.028-1.279-1.041-1.332-.55-2.303.276-.547.568-1.353.649-1.791.08-.439.379-1.653.663-2.699 1.414-5.2-.146-12.414-2.952-13.655-4.136-1.83-18.345 1.89-25.627 6.708-1.789 1.184-2.24 2.229-1.975 4.575.338 2.988-.556 2.7 11.72 3.772 7.255.633 9.985 1.226 3.881.842-5.163-.325-12.925-1.118-14.115-1.442-1.206-.329-1.312-.016-.583 1.73 1.104 2.64 6.21 4.197 15.814 4.82l3.349.217 1.831 2.341 1.831 2.341-1.99 1.345c-4.424 2.989-6.804 6.082-8.155 10.597-.642 2.147-.771 2.311-5.895 7.496-6.773 6.856-6.973 7.271-8.075 16.766-.654 5.636-.921 30.772-.465 43.719.192 5.439.491 21.085.664 34.769.367 28.938.439 29.889 2.516 33.113 2.033 3.155 4.389 3.509 22.189 3.334 15.741-.154 16.961-.436 19.15-4.424l.944-1.72.327-8.433.328-8.433 1.435-.658 1.436-.658h219.776l1.595.798 1.595.797.16 8.134c.182 9.291.549 10.772 3.113 12.546 2.832 1.959 2.66 1.942 19.056 1.955 23.841.02 22.269 2.076 22.805-29.812.176-10.439.484-22.209.686-26.156.635-12.407.545-53.071-.129-59.011-1.077-9.477-1.44-10.213-8.417-17.032l-4.607-4.502-1.051-3.056c-1.565-4.555-3.63-7.225-7.692-9.951a104 104 0 0 1-2.042-1.389c-.07-.058.675-1.153 1.655-2.433l1.784-2.328 4.883-.395c9.96-.806 14.019-2.377 14.751-5.709l.223-1.012-1.058.291c-1.32.364-9.781 1.182-14.455 1.397-5.567.257-1.985-.347 5.552-.936 5.923-.463 9.509-.915 9.834-1.239.384-.384.683-4.395.378-5.065-1.996-4.379-23.12-10.939-27.703-8.603-3.704 1.889-4.674 13.632-1.518 18.369.42.63.376.807-.507 2.038l-.966 1.349-1.235-.694c-1.757-.988-1.903-1.211-3.926-5.99-15.64-36.971-30.364-58.495-39.988-58.455-.991.004-3.956-.256-6.587-.578-8.71-1.064-19.576-1.902-33.174-2.559-6.444-.312-63.33-.643-71.452-.416m13.824 15.28c5.524.658 5.252.552 6.105 2.373.411.878 1.083 1.911 1.494 2.297 1.162 1.092.997 1.155-3.161 1.206-6.487.079-7.324.604-6.594 4.141 1.018 4.933 1.724 5.23 13.372 5.629 13.475.461 18.68-.366 20.08-3.191 2.464-4.974 1.376-6.357-5.121-6.506-2.613-.06-4.751-.161-4.751-.225s.347-.463.771-.887c.425-.425 1.139-1.497 1.589-2.384s1.07-1.687 1.381-1.779c8.462-2.518 77.08.365 80.727 3.392 1.077.894 9.952 19.468 14.914 31.212 3.374 7.986 3.505 7.89-10.042 7.329-9.594-.398-10.045-.466-15.656-2.388-1.842-.631-3.924-1.288-4.625-1.46l-1.276-.311-.044-3.117c-.073-5.233-2.347-14.479-4.278-17.394-2.102-3.174-8.217-4.274-19.369-3.484-7.873.557-9.344 1.827-11.358 9.806-1.189 4.71-2.186 10.939-2.026 12.666.131 1.428.09 1.531-.691 1.695-.457.096-2.123.629-3.702 1.183l-2.87 1.008-29.491.091-29.49.091-2.727-.951c-1.499-.522-3.3-1.094-4.002-1.27l-1.276-.32-.043-2.641c-.084-5.139-2.626-15.518-4.443-18.14-2.002-2.889-8.343-3.966-19.006-3.229-8.652.597-10.178 2.231-12.521 13.399-1.114 5.315-1.496 8.422-1.173 9.549l.275.96-2.509.671c-1.38.37-4.056 1.239-5.946 1.933l-3.438 1.262-6.539.262c-13.974.561-15.311.4-15.311-1.84 0-2.337 15.028-34.795 16.891-36.48 1.97-1.783 23.59-3.492 55.996-4.425 9.315-.269 16.161-.177 19.884.267m111.458 3.904c6.509 10.841 22.042 42.795 21.497 44.222-.075.196-.455-.362-.846-1.239-8.647-19.424-17.481-37.303-22.092-44.712-1.272-2.044-1.316-2.132-.955-1.909.186.115 1.264 1.752 2.396 3.638M105.32 98.963c-5.191 8.504-14.539 27.129-20.692 41.228-2.03 4.652-2.601 5.738-2.872 5.467-.477-.477 13.653-30.132 18.411-38.64 2.211-3.955 5.392-9.091 5.629-9.091.087 0-.128.466-.476 1.036m-44.843 79.993c6.504 1.32 22.55 4.235 40.32 7.325 8.158 1.418 15.602 2.731 16.543 2.916l1.71.337-.952.578c-2.007 1.221-18.085 9.982-19.084 10.399-.921.385-2.388.32-11.835-.521-16.963-1.511-15.633-1.45-16.407-.755-.612.55-.657.833-.486 3.078.187 2.452.182 2.472-.581 2.472-1.586 0-14.693-1.968-14.979-2.248-.527-.519-.322-16.924.26-20.854.284-1.917.516-3.531.516-3.589 0-.153-.154-.18 4.975.862m283.506-.407c.838 2.815 1.412 23.243.673 23.965-.175.171-3.476.753-7.335 1.293-3.86.541-7.34 1.034-7.734 1.095-.707.111-.714.078-.514-2.518.331-4.305 2.312-4.185-25.886-1.57-2.21.204-.936.782-14.275-6.475-4.695-2.555-8.482-4.699-8.416-4.766.066-.066 7.066-1.329 15.554-2.805 22.009-3.828 42.661-7.599 46.055-8.409a41 41 0 0 1 1.494-.337c.12-.017.292.22.384.527m-286.108 8.134c.235 3.793.771 9.549.902 9.68.119.119 17.476 1.725 18.631 1.724.994-.001 1.005-.016.588-.878-.234-.483-.671-3.03-.972-5.662s-.582-4.825-.624-4.874c-.087-.1-18.024-3.575-18.467-3.577-.157-.001-.183 1.569-.058 3.587m281.678-3.253c-.701.146-4.711.922-8.91 1.725-4.2.803-7.659 1.493-7.687 1.534s-.303 2.226-.61 4.858c-.357 3.055-.758 5.132-1.11 5.745l-.551.961 2.895-.221c4.201-.319 16.903-1.566 17.005-1.669.117-.116 1.033-10.913 1.038-12.232.004-1.114-.03-1.126-2.07-.701m-262.679 3.458c0 .73 1.599 8.956 1.885 9.698.516 1.34 1.831 1.713 8.615 2.438 8.991.961 7.801 1.183 14.889-2.772 3.381-1.886 6.049-3.517 5.929-3.625s-2.371-.583-5.002-1.057c-6.187-1.113-25.032-4.609-25.758-4.777-.307-.072-.558-.029-.558.095m235.088 1.766c-4.825.922-11.464 2.165-14.753 2.762-3.29.598-5.981 1.168-5.981 1.268 0 .099 2.743 1.735 6.095 3.634l6.095 3.454 2.885-.205c10.186-.723 13.71-1.44 14.266-2.901.267-.703 1.919-8.876 1.919-9.495 0-.447-1.628-.218-10.526 1.483m-46.779 3.397c2.239.622 21.123 12.308 23.573 14.589 1.193 1.11 1.15 2.418-.247 7.515-4.585 16.728-16.836 46.024-20.179 48.255-2.696 1.8-18.3 2.165-81.408 1.906-53.348-.22-54.679-.278-56.645-2.486-3.771-4.235-15.448-32.902-19.636-48.21-1.403-5.126-1.408-5.855-.042-7.121 2.045-1.895 21.825-14.09 23.505-14.492 1.643-.393 129.66-.35 131.079.044m-130.059 2.117c-2.057.527-21.882 12.948-22.644 14.186-1.342 2.182 8.328 29.233 16.227 45.394 2.922 5.98 3.642 6.963 5.464 7.468 5.622 1.556 128.969 1.211 132.023-.37 3.826-1.981 21.908-47.486 20.732-52.173-.274-1.088-16.515-11.574-21.579-13.931l-1.711-.796-63.955.034c-35.175.018-64.226.103-64.557.188m49.97 4.358c.804.243 1.894.748 2.42 1.123l.958.681 1.135-.77c2.618-1.777 6.363-1.778 8.979-.004 1.026.697 1.233.739 1.691.339 2.239-1.96 6.157-2.24 8.984-.644l1.75.987 1.088-.746c6.421-4.4 15.169 2.617 12.613 10.118-1.745 5.123-8.359 7.385-12.694 4.343l-.9-.632-1.651.915c-2.385 1.322-6.046 1.332-8.271.025l-1.515-.891-1.515.891c-2.179 1.281-5.901 1.295-8.141.032l-1.522-.858-1.553.805c-6.942 3.602-14.848-2.896-12.303-10.111 1.564-4.431 6.156-6.894 10.447-5.603m-4.552 1.574c-.614.195-1.766 1.005-2.56 1.802-5.571 5.584.418 14.263 7.685 11.137 1.83-.788 1.775-.627.856-2.492-1.027-2.084-1.013-5.679.031-7.665l.748-1.423-.694-.562c-1.409-1.141-3.934-1.473-6.066-.797m11.522-.051c-.593.17-1.416.531-1.829.801l-.75.492.872 1.482c1.254 2.133 1.258 5.582.009 7.796l-.863 1.529 1.022.623c2.004 1.222 5.1 1.213 7.097-.021l1.047-.648-.837-1.498c-1.19-2.128-1.204-5.289-.036-7.651l.827-1.671-.688-.451c-1.587-1.04-3.904-1.349-5.871-.783m11.764-.162c-3.092 1.008-3.128 1.069-2.038 3.45 1.04 2.273.978 4.933-.171 7.302-.625 1.288-.677 1.601-.308 1.856 1.839 1.274 4.554 1.578 6.57.736 1.958-.819 2-.927 1.082-2.783-1.173-2.37-1.16-5.211.034-7.513l.863-1.663-.744-.488c-1.414-.926-3.903-1.348-5.288-.897m10.399.246c-2.134.793-2.247 1.076-1.277 3.194 1.045 2.285.983 5.441-.147 7.356-.918 1.556-.908 1.581.892 2.356 6.298 2.709 12.175-3.526 9.018-9.569-1.579-3.023-5.345-4.504-8.486-3.337m-42.776 1.143c-.128.208-8.037.319-22.685.319-14.911 0-22.421-.108-22.291-.319.129-.208 8.038-.319 22.685-.319 14.911 0 22.422.107 22.291.319m101.436 0c.13.211-7.387.319-22.31.319-14.792 0-22.507-.109-22.507-.319s7.649-.319 22.31-.319c14.529 0 22.378.111 22.507.319m-85.184 2.701c-.637 1.524-.568 4.21.146 5.752l.591 1.276.669-1.436a6.8 6.8 0 0 0 .171-5.416c-.629-1.571-.978-1.61-1.577-.176m11.163.332c-.659 1.724-.478 4.54.374 5.841l.557.849.571-1.273c.695-1.546.754-4.247.127-5.749-.613-1.468-.97-1.395-1.629.332m11.362-.561c-.782 1.711-.796 3.985-.036 5.687l.701 1.57.601-1.117c.736-1.368.819-4.345.165-5.911-.558-1.335-.901-1.39-1.431-.229m-62.939 6.139c15.363.001 23.365.111 23.365.32s-7.682.319-22.408.318c-23.853-.001-33.413-.212-33.413-.736 0-.207 1.594-.246 4.545-.111 2.5.114 15.06.209 27.911.209m137.241-.049c0 .472-10.404.686-33.414.687-14.635.001-22.408-.109-22.408-.316 0-.206 8.744-.346 25.12-.4 13.816-.046 26.375-.119 27.91-.162s2.792.043 2.792.191m-2.233 8.982c0 .212-27.745.319-82.597.319-54.721 0-82.663-.108-82.794-.319-.131-.213 27.482-.319 82.597-.319 54.983 0 82.794.107 82.794.319m-3.031 9.25c-.13.211-27.063.319-79.763.319-52.832 0-79.567-.107-79.567-.319s26.801-.319 79.764-.319c53.094 0 79.698.107 79.566.319m-216.365 4.473c29.752 3.118 30.586 3.392 34.927 11.476 6.34 11.807 8.195 16.298 7.222 17.481-.952 1.157-20.23 9.317-24.759 10.479-2.885.741-24.655-.585-26.663-1.624-2.112-1.092-5.771-8.722-5.777-12.046-.01-5.28 1.887-22.744 2.676-24.63.854-2.044 2.374-2.184 12.374-1.136m284.863-.204c1.243.945 1.69 3.362 2.776 15.029 1.239 13.3 1.283 12.808-1.635 18.342-2.782 5.276-2.164 4.99-12.473 5.772-17.349 1.317-15.959 1.518-30.098-4.36-14.961-6.22-14.135-4.801-8.906-15.311 7.328-14.725 7.748-15.134 17.009-16.559 16.417-2.527 32.037-3.892 33.327-2.913m-292.9 1.886c-1.569.793-2.379 6.375-2.764 19.045l-.19 6.22 1.717 2.529c3.979 5.864 3.448 5.65 15.52 6.25 9.138.454 10.275.171 27.005-6.719 6.529-2.69 6.448-2.019 1.447-12.02-6.094-12.189-5.026-11.598-25.191-13.947-15.768-1.838-16.486-1.893-17.544-1.358m284.211-.065c-1.316.164-5.55.662-9.41 1.106-23.212 2.673-21.763 1.937-27.873 14.153-5.149 10.295-5.308 9.445 2.355 12.548 17.077 6.915 16.677 6.826 27.789 6.167 10.58-.628 9.879-.315 13.75-6.132l1.782-2.678-.203-5.021c-.196-4.849-.969-14.744-1.371-17.552-.392-2.733-1.699-3.229-6.819-2.591m-63.317 3.161c-.131.211-25.894.319-76.255.319-50.493 0-76.058-.108-76.058-.319s25.631-.319 76.255-.319c50.755 0 76.189.106 76.058.319m-4.145 9.246c-.272.44-143.589.446-143.861.006-.132-.215 23.62-.321 71.929-.321 47.373 0 72.06.108 71.932.315m-3.83 8.616c-.13.211-23.176.319-68.102.319s-67.972-.108-68.102-.319 22.65-.319 68.102-.319 68.233.107 68.102.319M141.148 271.45c49.325.49 114.143.304 153.908-.441 6.572-.124 7.307-.1 3.828.125-20.81 1.34-175.518 1.34-198.087-.001-3.974-.236-3.548-.254 3.031-.126 4.21.082 21.005.281 37.32.443"/><path fill="#fbfbfb" d="M0 200v200h400V0H0zM242.584 82.587c13.598.657 24.464 1.495 33.174 2.559 2.631.322 5.596.582 6.587.578 9.624-.04 24.348 21.484 39.988 58.455 2.023 4.779 2.169 5.002 3.926 5.99l1.235.694.966-1.349c.883-1.231.927-1.408.507-2.038-3.156-4.737-2.186-16.48 1.518-18.369 4.583-2.336 25.707 4.224 27.703 8.603.305.67.006 4.681-.378 5.065-.325.324-3.911.776-9.834 1.239-7.537.589-11.119 1.193-5.552.936 4.674-.215 13.135-1.033 14.455-1.397l1.058-.291-.223 1.012c-.732 3.332-4.791 4.903-14.751 5.709l-4.883.395-1.784 2.328c-.98 1.28-1.725 2.375-1.655 2.433s.989.683 2.042 1.389c4.062 2.726 6.127 5.396 7.692 9.951l1.051 3.056 4.607 4.502c6.977 6.819 7.34 7.555 8.417 17.032.674 5.94.764 46.604.129 59.011-.202 3.947-.51 15.717-.686 26.156-.536 31.888 1.036 29.832-22.805 29.812-16.396-.013-16.224.004-19.056-1.955-2.564-1.774-2.931-3.255-3.113-12.546l-.16-8.134-1.595-.797-1.595-.798H89.793l-1.436.658-1.435.658-.328 8.433-.327 8.433-.944 1.72c-2.189 3.988-3.409 4.27-19.15 4.424-17.8.175-20.156-.179-22.189-3.334-2.077-3.224-2.149-4.175-2.516-33.113-.173-13.684-.472-29.33-.664-34.769-.456-12.947-.189-38.083.465-43.719 1.102-9.495 1.302-9.91 8.075-16.766 5.124-5.185 5.253-5.349 5.895-7.496 1.351-4.515 3.731-7.608 8.155-10.597l1.99-1.345-1.831-2.341-1.831-2.341-3.349-.217c-9.604-.623-14.71-2.18-15.814-4.82-.729-1.746-.623-2.059.583-1.73 1.19.324 8.952 1.117 14.115 1.442 6.104.384 3.374-.209-3.881-.842-12.276-1.072-11.382-.784-11.72-3.772-.265-2.346.186-3.391 1.975-4.575 7.282-4.818 21.491-8.538 25.627-6.708 2.806 1.241 4.366 8.455 2.952 13.655-.284 1.046-.583 2.26-.663 2.699-.081.438-.373 1.244-.649 1.791-.491.971-.478 1.024.55 2.303l1.052 1.31.926-.547c1.657-.979 2.38-2.08 4.235-6.452 15.992-37.683 31.716-60.157 40.724-58.202.463.1 2.401-.034 4.306-.298 10.947-1.516 27.479-2.604 48.441-3.189 8.122-.227 65.008.104 71.452.416m-77.512 14.597c-32.406.933-54.026 2.642-55.996 4.425-1.863 1.685-16.891 34.143-16.891 36.48 0 2.24 1.337 2.401 15.311 1.84l6.539-.262 3.438-1.262c1.89-.694 4.566-1.563 5.946-1.933l2.509-.671-.275-.96c-.796-2.774 2.425-16.606 4.559-19.577 3.571-4.974 24.718-5.081 28.141-.142 1.817 2.622 4.359 13.001 4.443 18.14l.043 2.641 1.276.32c.702.176 2.503.748 4.002 1.27l2.727.951 29.49-.091 29.491-.091 2.87-1.008c1.579-.554 3.245-1.087 3.702-1.183.781-.164.822-.267.691-1.695-.16-1.727.837-7.956 2.026-12.666 2.014-7.979 3.485-9.249 11.358-9.806 11.152-.79 17.267.31 19.369 3.484 1.931 2.915 4.205 12.161 4.278 17.394l.044 3.117 1.276.311c.701.172 2.783.829 4.625 1.46 5.611 1.922 6.062 1.99 15.656 2.388 13.547.561 13.416.657 10.042-7.329-4.962-11.744-13.837-30.318-14.914-31.212-3.647-3.027-72.265-5.91-80.727-3.392-.311.092-.932.893-1.381 1.779-.45.887-1.164 1.959-1.589 2.384-.424.424-.771.823-.771.887s2.138.165 4.751.225c6.497.149 7.585 1.532 5.121 6.506-1.4 2.825-6.605 3.652-20.08 3.191-11.648-.399-12.354-.696-13.372-5.629-.73-3.537.107-4.062 6.594-4.141 4.158-.051 4.323-.114 3.161-1.206-.411-.386-1.083-1.419-1.494-2.297-.853-1.821-.581-1.715-6.105-2.373-3.723-.444-10.569-.536-19.884-.267m128.875.773c.147.246.608.998 1.026 1.669 4.611 7.409 13.445 25.288 22.092 44.712.391.877.771 1.435.846 1.239.25-.654-6.361-15.31-11.887-26.352-5.1-10.191-11.106-20.952-12.006-21.508-.216-.133-.241-.048-.071.24m-190.063 2.761c-6.171 9.813-25.232 49.099-21.671 44.665.18-.224 1.266-2.56 2.415-5.192 6.153-14.099 15.501-32.724 20.692-41.228.348-.57.563-1.036.476-1.036s-.947 1.256-1.912 2.791m-48.382 77.376c0 .058-.232 1.672-.516 3.589-.582 3.93-.787 20.335-.26 20.854.286.28 13.393 2.248 14.979 2.248.763 0 .768-.02.581-2.472-.171-2.245-.126-2.528.486-3.078.774-.695-.556-.756 16.407.755 9.447.841 10.914.906 11.835.521.999-.417 17.077-9.178 19.084-10.399l.952-.578-1.71-.337c-.941-.185-8.385-1.498-16.543-2.916-17.77-3.09-33.816-6.005-40.32-7.325-5.129-1.042-4.975-1.015-4.975-.862m286.603.265c-3.394.81-24.046 4.581-46.055 8.409-8.488 1.476-15.488 2.739-15.554 2.805s3.721 2.211 8.416 4.766c13.339 7.257 12.065 6.679 14.275 6.475 28.198-2.615 26.217-2.735 25.886 1.57-.2 2.596-.193 2.629.514 2.518.394-.061 3.874-.554 7.734-1.095s7.16-1.122 7.335-1.293c.986-.963-.036-24.642-1.057-24.492-.12.018-.792.17-1.494.337M67.268 184.84c4.98.959 9.089 1.783 9.132 1.833.042.049.323 2.242.624 4.874s.738 5.179.972 5.662c.417.862.406.877-.588.878-1.155.001-18.512-1.605-18.631-1.724-.38-.38-1.199-13.269-.844-13.267.155 0 4.355.785 9.335 1.744m274.355-.709c-.005 1.319-.921 12.116-1.038 12.232-.102.103-12.804 1.35-17.005 1.669l-2.895.221.551-.961c.352-.613.753-2.69 1.11-5.745.307-2.632.582-4.818.61-4.858s3.487-.731 7.687-1.534c4.199-.803 8.209-1.579 8.91-1.725 2.04-.425 2.074-.413 2.07.701m-253.425 4.685a3809 3809 0 0 0 14.992 2.754c2.631.474 4.882.949 5.002 1.057.498.448-12.025 7.054-13.373 7.054-2.576 0-13.616-1.325-14.654-1.758-1.329-.556-1.554-1.136-2.521-6.519-.918-5.115-.902-4.772-.212-4.611.307.071 5.152.982 10.766 2.023m234.29-1.645c0 .619-1.652 8.792-1.919 9.495-.556 1.461-4.08 2.178-14.266 2.901l-2.885.205-6.095-3.454c-3.352-1.899-6.095-3.535-6.095-3.634 0-.1 2.691-.67 5.981-1.268 3.289-.597 9.928-1.84 14.753-2.762 8.898-1.701 10.526-1.93 10.526-1.483m-188.384 4.836c-1.68.402-21.46 12.597-23.505 14.492-1.366 1.266-1.361 1.995.042 7.121 4.188 15.308 15.865 43.975 19.636 48.21 1.966 2.208 3.297 2.266 56.645 2.486 63.108.259 78.712-.106 81.408-1.906 3.343-2.231 15.594-31.527 20.179-48.255 1.397-5.097 1.44-6.405.247-7.515-2.45-2.281-21.334-13.967-23.573-14.589-1.419-.394-129.436-.437-131.079-.044m131.243 2.735c5.064 2.357 21.305 12.843 21.579 13.931 1.176 4.687-16.906 50.192-20.732 52.173-3.054 1.581-126.401 1.926-132.023.37-1.822-.505-2.542-1.488-5.464-7.468-7.899-16.161-17.569-43.212-16.227-45.394.762-1.238 20.587-13.659 22.644-14.186.331-.085 29.382-.17 64.557-.188l63.955-.034zm-84.862 3.789c-3.463.933-6.322 4.618-6.322 8.15 0 6.516 6.917 10.605 12.787 7.559l1.553-.805 1.522.858c2.24 1.263 5.962 1.249 8.141-.032l1.515-.891 1.515.891c2.225 1.307 5.886 1.297 8.271-.025l1.651-.915.9.632c4.335 3.042 10.949.78 12.694-4.343 2.556-7.501-6.192-14.518-12.613-10.118l-1.088.746-1.75-.987c-2.827-1.596-6.745-1.316-8.984.644-.458.4-.665.358-1.691-.339-2.616-1.774-6.361-1.773-8.979.004l-1.135.77-.958-.681c-2.012-1.433-4.43-1.818-7.029-1.118m4.258 1.479c.644.179 1.483.578 1.865.887l.694.562-.748 1.423c-1.044 1.986-1.058 5.581-.031 7.665.919 1.865.974 1.704-.856 2.492-7.267 3.126-13.256-5.553-7.685-11.137 2.007-2.013 4.159-2.615 6.761-1.892m11.249.023c.69.192 1.565.551 1.943.799l.688.451-.827 1.671c-1.168 2.362-1.154 5.523.036 7.651l.837 1.498-1.047.648c-1.997 1.234-5.093 1.243-7.097.021l-1.022-.623.863-1.529c1.249-2.214 1.245-5.663-.009-7.796l-.872-1.482.75-.492c1.637-1.072 3.755-1.373 5.757-.817m11.306-.044c.591.169 1.409.527 1.818.795l.744.488-.863 1.663c-1.194 2.302-1.207 5.143-.034 7.513.918 1.856.876 1.964-1.082 2.783-2.016.842-4.731.538-6.57-.736-.369-.255-.317-.568.308-1.856 1.149-2.369 1.211-5.029.171-7.302-1.047-2.287-1.06-2.187.363-2.788 2.276-.962 3.341-1.077 5.145-.56m13.067.875c7.322 4.526 1.263 15.587-6.67 12.175-1.8-.775-1.81-.8-.892-2.356 1.13-1.915 1.192-5.071.147-7.356-.97-2.118-.857-2.401 1.277-3.194 1.816-.675 4.353-.373 6.138.731m-93.89.412c-.13.211 7.38.319 22.291.319 14.648 0 22.557-.111 22.685-.319.131-.212-7.38-.319-22.291-.319-14.647 0-22.556.111-22.685.319m101.595 0c0 .21 7.715.319 22.507.319 14.923 0 22.44-.108 22.31-.319-.129-.208-7.978-.319-22.507-.319-14.661 0-22.31.109-22.31.319m-38.79 2.877a6.8 6.8 0 0 1-.171 5.416l-.669 1.436-.591-1.276c-.714-1.542-.783-4.228-.146-5.752.599-1.434.948-1.395 1.577.176m11.215-.176c.627 1.502.568 4.203-.127 5.749l-.571 1.273-.557-.849c-.852-1.301-1.033-4.117-.374-5.841.659-1.727 1.016-1.8 1.629-.332m11.164 0c.654 1.566.571 4.543-.165 5.911l-.601 1.117-.701-1.57c-.76-1.702-.746-3.976.036-5.687.53-1.161.873-1.106 1.431.229m-96.826 5.812c0 .524 9.56.735 33.413.736 14.726.001 22.408-.108 22.408-.318 0-.209-8.002-.319-23.365-.32-12.851 0-25.411-.095-27.911-.209-2.951-.135-4.545-.096-4.545.111m138.995.02c-16.376.054-25.12.194-25.12.4s7.773.317 22.408.316c23.01-.001 33.414-.215 33.414-.687 0-.148-1.256-.234-2.792-.191s-14.094.116-27.91.162m-136.922 9.011c.131.211 28.073.319 82.794.319 54.852 0 82.597-.107 82.597-.319s-27.811-.319-82.794-.319c-55.115 0-82.728.106-82.597.319m3.03 9.25c0 .212 26.735.319 79.567.319 52.7 0 79.633-.108 79.763-.319.132-.212-26.472-.319-79.566-.319-52.963 0-79.764.107-79.764.319m-68.371 4.189c-1.471.855-3.731 16.71-3.714 26.05.006 3.324 3.665 10.954 5.777 12.046 2.008 1.039 23.778 2.365 26.663 1.624 4.529-1.162 23.807-9.322 24.759-10.479.852-1.035.584-1.909-2.515-8.23-7.857-16.025-8.425-16.613-17.368-17.983-15.297-2.343-32.164-3.863-33.602-3.028m284.32.301c-23.236 2.471-28.268 3.471-30.879 6.135-2.053 2.094-10.583 18.103-11.092 20.818-.417 2.22-.153 2.382 12.42 7.609 14.139 5.878 12.749 5.677 30.098 4.36 10.309-.782 9.691-.496 12.473-5.772 3.03-5.748 3.042-6.133.817-26.309-.907-8.219-.903-8.217-13.837-6.841m-274.96 1.738c24.968 2.62 29.214 3.442 31.56 6.107 1.452 1.65 8.95 16.346 8.95 17.542 0 1.519-1.972 2.487-15.548 7.626-8.275 3.133-8.201 3.12-16.74 2.696-12.072-.6-11.541-.386-15.52-6.25l-1.717-2.529.19-6.22c.221-7.284 1.066-16.727 1.596-17.854.787-1.671 1.258-1.744 7.229-1.118m284.232.418c.297.367.629 1.283.737 2.035.402 2.808 1.175 12.703 1.371 17.552l.203 5.021-1.782 2.678c-3.871 5.817-3.17 5.504-13.75 6.132-11.112.659-10.712.748-27.789-6.167-7.663-3.103-7.504-2.253-2.355-12.548 6.11-12.216 4.661-11.48 27.873-14.153 3.86-.444 8.094-.942 9.41-1.106 3.481-.434 5.424-.257 6.082.556m-221.712 2.605c0 .211 25.565.319 76.058.319 50.361 0 76.124-.108 76.255-.319.131-.213-25.303-.319-76.058-.319-50.624 0-76.255.107-76.255.319m4.307 9.252c.272.44 143.589.434 143.861-.006.128-.207-24.559-.315-71.932-.315-48.309 0-72.061.106-71.929.321m3.827 8.61c.13.211 23.176.319 68.102.319s67.972-.108 68.102-.319-22.65-.319-68.102-.319-68.233.107-68.102.319m-30.782 15.95c22.569 1.341 177.277 1.341 198.087.001 3.479-.225 2.744-.249-3.828-.125-49.415.926-143.479.925-191.228-.002-6.579-.128-7.005-.11-3.031.126"/></g></svg>