<svg xmlns="http://www.w3.org/2000/svg" width="400" height="400" viewBox="0 0 400 400"><g fill-rule="evenodd"><path fill="#050505" d="M197.154 76.743c-.54.454-.982 1.012-.982 1.24 0 .322-1.556.459-6.938.609-31.882.892-56.218 2.517-74.203 4.955-9.866 1.337-22.946 20.295-39.523 57.282l-3.288 7.337h-3.239c-4.025 0-4.03-.005-3.425-3.169 1.112-5.812.691-10.756-1.074-12.603-4.001-4.19-26.162-.824-28.302 4.298-1.425 3.409.552 11.931 3.124 13.472 2.341 1.402 14.501 3.295 26.173 4.074l3.117.208-2.186 2.442c-2.943 3.288-4.899 5.855-7.949 10.429-2.707 4.061-3.471 4.83-10.931 11.007-14.503 12.01-14.328 11.02-13.935 78.614.318 54.593.671 60.097 4.097 63.813 2.339 2.538 3.301 2.755 13.666 3.079 26.658.834 27.756.389 28.418-11.511.163-2.916.352-5.458.422-5.649.082-.224 2.265-.421 6.138-.552 6.99-.237 11.765-.762 20.902-2.298 7.919-1.331 8.059-1.334 13.055-.258l3.951.851 72.927.126c75.802.132 77.771.103 83.064-1.196 3.465-.851 4.315-.81 12.909.622 8.744 1.456 12.762 1.888 20.415 2.192l5.582.223.221 4.465c.417 8.415 1.804 11.469 5.755 12.666 2.296.696 29.889.469 32.529-.267 7.354-2.05 7.876-5.632 8.1-55.62.261-58.191.255-58.56-1.161-69.697-1.091-8.586-2.809-11.365-11.792-19.065-8.958-7.68-9.126-7.846-11.664-11.495-3.288-4.729-5.229-7.19-8.097-10.27l-2.376-2.552 3.333-.236c10.762-.765 22.59-2.551 25.082-3.786 3.275-1.624 5.577-10.276 3.7-13.906-2.459-4.756-23.94-7.931-27.966-4.134-1.805 1.702-2.337 6.71-1.351 12.726.511 3.114.506 3.118-3.452 3.108l-3.206-.009-.869-1.985c-4.665-10.657-6.582-14.854-9.793-21.443-9.524-19.547-18.961-34.318-24.664-38.605-2.481-1.865-4.818-2.68-8.672-3.025-1.766-.158-6.44-.645-10.388-1.082-18.427-2.041-33.133-2.914-60.058-3.565l-8.544-.207-.471-.911c-.952-1.841-4.385-2.253-6.181-.742m30.597 16.084c24.2.618 56.645 2.706 60.287 3.881 3.55 1.144 6.55 5.099 12.54 16.53 5.517 10.529 13.298 29.741 13.298 32.836 0 2.646 3.436 2.556-60.766 1.593-28.507-.427-77.266-.413-111.324.031-57.27.748-56.3.775-56.3-1.612 0-3.774 10.025-27.261 16.292-38.169 6.111-10.637 6.919-11.195 17.68-12.208 27.84-2.623 72.219-3.804 108.293-2.882m-24.11 92.836c7.331 2.743 9.149 12.117 3.359 17.323-3.946 3.547-10.054 3.548-13.999.001-8.526-7.666-.121-21.35 10.64-17.324m-7.048.555c-8.061 2.88-8.666 14.023-.964 17.741 6.203 2.994 13.453-1.028 14.158-7.853.7-6.787-6.587-12.248-13.194-9.888m2.893.624.463.877.346-.903c.191-.497.525-.844.744-.772.491.161.731 2.792.255 2.792-.185 0-.342-.323-.347-.718-.01-.665-.042-.676-.434-.159-.497.654-1.032.722-1.259.159-.096-.238-.171-.174-.186.16-.014.307-.168.558-.344.558-.352 0-.445-2.32-.106-2.658.32-.32.367-.284.868.664m-3.633 2.875c0 .11-.38.597-.845 1.083l-.845.882-.909-.647c-1.12-.798-1.134-1.121-.09-2.089l.82-.76.935.666c.514.366.934.755.934.865m9.995-1.017c-.138.359-.03.473.375.399.313-.057.632.076.708.295.077.219-.024.399-.225.399-.2 0-.284.13-.185.289s.465.214.816.122c.942-.246.774.14-.304.697-1.362.705-1.715.626-1.475-.328.182-.724.137-.778-.402-.489-.915.489-1.069.05-.34-.973.697-.979 1.349-1.239 1.032-.411m-12.547.933c-.221.267-.256.479-.078.479.176 0 .498-.216.716-.479.222-.267.256-.478.079-.478-.176 0-.498.215-.717.478m9.498.202c.773.374 1.816 1.247 2.318 1.94 4.435 6.123-4.609 13.227-9.686 7.608-4.681-5.182 1.048-12.607 7.368-9.548m-8.518.09c-.238.287-.338.616-.222.731.298.298.935-.411.782-.87-.088-.264-.261-.221-.56.139m3.695.014c-1.521.542-2.708 1.611-3.28 2.953-.879 2.062-.754 2.176 2.273 2.061l2.712-.104v-2.687c0-1.479-.108-2.682-.239-2.674-.132.007-.791.21-1.466.451m-138.107 5.892c12.073 2.408 50.585 12.619 51.989 13.785.672.557.405 1.723-.376 1.641-.35-.036-9.177-1.8-19.616-3.92-35.131-7.133-45.022-8.917-45.808-8.265-1.357 1.126.188 10.767 2.366 14.769 3.159 5.804 4.999 6.327 34.351 9.754 4.562.532 9.514 1.139 11.005 1.347 3.108.435 10.884.539 12.228.165 1.517-.423.657.379-1.501 1.4-2.21 1.045-3.941 1.158-9.359.609-1.717-.174-7.572-.755-13.011-1.292-26.546-2.619-30.534-3.471-34.07-7.279-3.352-3.611-5.718-11.531-5.236-17.531.445-5.553 6.281-7.328 17.038-5.183m292.845.012c3.971 1.725 4.836 6.312 2.756 14.606-2.662 10.614-5.114 11.799-30.112 14.555-25.363 2.796-27.578 2.893-30.757 1.337-1.972-.964-2.342-1.57-.741-1.213 2.375.53 9.776.132 18.899-1.016 5.088-.64 12.193-1.526 15.79-1.969 18.501-2.277 20.451-3.104 23.271-9.877 1.886-4.531 2.688-12.475 1.333-13.2-.879-.471-8.031.808-38.216 6.834-28.702 5.729-27.537 5.531-27.537 4.665 0-1.049.704-1.307 12.826-4.701 36.011-10.085 47.354-12.25 52.488-10.021M200 198.086c0 3.204.049 3.259 2.152 2.38 1.515-.633 2.24-1.304 2.986-2.766 1.17-2.294.996-2.485-2.267-2.485H200zm-30.941 5.741c27.208 1.347 28.897 2.675 28.246 22.206-.516 15.506-3.001 17.925-18.996 18.495-10.373.37-33.671-.654-37.958-1.667-11.679-2.761-21.299-15.453-21.485-28.347-.093-6.429 4.209-10.073 12.999-11.012 3.094-.33 28.421-.109 37.194.325m101.806.11c8.088 1.842 11.153 6.467 9.546 14.404-2.517 12.427-11.025 22.243-21.24 24.506-7.084 1.569-36.979 2.339-45.614 1.175-8.761-1.182-11.337-5.854-11.318-20.531.021-17.109 2.027-18.468 29.021-19.66 16.727-.738 36.127-.687 39.605.106m-215.33.071c.209.128.258.778.131 1.706-.417 3.029 1.44 8.262 3.328 9.377 1.024.604 8.775 1.813 11.638 1.814 1.678.001 2.119-.148 3.915-1.317 1.991-1.298 3.887-1.566 5.224-.739.681.42.285 1.726-.674 2.221-.531.275-1.845 1.068-2.92 1.763-2.484 1.605-9.614 1.46-17.777-.363-4.366-.975-7.963-8.71-6.592-14.173.217-.867 2.506-1.044 3.727-.289m292.269 1.194c.63 3.469-1.37 9.859-3.713 11.865-1.516 1.297-2.387 1.503-10.744 2.541-7.055.876-7.216.86-10.293-.979l-2.719-1.627c-.725-.434-.995-1.801-.425-2.153 1.337-.827 3.233-.559 5.224.739 2.367 1.542 3.155 1.613 9.329.841 7.459-.933 9.097-2.628 9.242-9.571l.061-2.871.924-.208c2.238-.506 2.811-.244 3.114 1.423m-216.066 1.153c-9.204 1.358-11.601 4.83-9.409 13.629 2.546 10.225 9.3 17.6 18.191 19.867 3.885.99 15.681 1.605 31.569 1.645 21.363.053 22.61-.959 22.63-18.37.017-14.638-.616-15.044-25.66-16.438-7.631-.425-35.039-.669-37.321-.333m110.527-.101c-1.228.056-5.822.258-10.208.449-26.3 1.145-27.13 1.648-27.091 16.423.041 15.732 1.59 17.731 14.189 18.308 10.3.471 34.176-.378 38.943-1.385 11.125-2.35 20.061-14.069 20.051-26.295-.003-3.171-3.253-5.997-8.14-7.08-1.506-.334-22.627-.653-27.744-.42m-157.257 2.639c.941.201.957.238.975 2.275.03 3.492 1.712 7.421 3.531 8.25 2.514 1.146 12.216 1.581 14.367.645 2.94-1.28 9.038-.502 9.038 1.154 0 .955-.51 1.112-3.615 1.112-1.833 0-3.103.189-4.283.638-2.43.923-12.681.522-17.195-.673-2.91-.771-5.553-5.769-5.632-10.651-.05-3.109.164-3.317 2.814-2.75m232.726.414c1.393 2.603-1.498 10.791-4.402 12.472-2.411 1.395-15.854 2.281-18.595 1.226-1.299-.501-2.469-.676-4.507-.676-3.114 0-3.832-.382-3.224-1.716.576-1.264 6.281-1.592 9.007-.517 2.242.884 12.312.464 14.265-.595 2.091-1.134 3.631-4.523 3.709-8.163.045-2.077.099-2.233.846-2.44 1.589-.442 2.515-.311 2.901.409M57.38 252.82c23.352 4.793 24.418 5.458 34.502 21.502 8.315 13.23 8.22 13.975-2.089 16.28-13.193 2.949-18.787 3.148-30.144 1.069-12.388-2.268-13.259-3.591-13.215-20.06.035-13.498 1.284-18.122 5.213-19.313 1.253-.379 1.416-.365 5.733.522m290.348-.502c4.003 1.112 5.731 8.437 5.266 22.323-.452 13.507-1.425 14.808-12.643 16.894-12.111 2.253-17.979 2.07-30.534-.953-10.446-2.515-10.5-2.833-2.642-15.462 10.048-16.149 10.029-16.134 25.52-20.06 11.516-2.919 13.253-3.236 15.033-2.742m-296.299 3.398c-3.452 1.389-3.771 26.534-.381 30.001 1.984 2.03 15.966 4.534 22.955 4.111 6.296-.381 19.981-2.771 21.113-3.688.987-.8.776-1.291-3.921-9.122-8.59-14.322-9.883-15.757-15.339-17.025-11.243-2.613-23.311-4.726-24.427-4.277m282.338 2.148c-15.831 3.177-15.121 2.735-22.095 13.747-7.234 11.422-8.343 13.754-6.967 14.643 1.368.883 14.869 3.249 20.494 3.591 7.74.47 22.168-2.281 23.625-4.505 2.712-4.138 2.436-26.294-.362-29.092-1.065-1.065-1.659-1-14.695 1.616m-276.909 3.595c.132.078.239 1.415.239 2.971 0 3.882-.685 3.57 10.095 4.593 10.624 1.009 10.108.911 10.607 2.008.872 1.913-1.461 1.959-19.581.386-4.898-.425-4.629-.12-4.629-5.242 0-5.357.635-6.274 3.269-4.716m288.526-.266c.307.196.386 1.423.319 5.011l-.089 4.752-1.276.212c-1.499.249-16.781 1.263-20.255 1.344-4.368.102-3.334-2.4 1.155-2.793 18.227-1.599 17.027-1.251 17.027-4.938 0-2.991.162-3.359 1.595-3.622.438-.081.869-.164.957-.186s.342.078.567.22m-177.46 3.598c23.825.379 54.878.238 87.738-.397 25.278-.489 26.61-.292 32.026 4.74 3.026 2.812 3.028 2.789-1.002 10.647-6.541 12.755-8.621 15.152-14.512 16.73-5.327 1.426-139.679 1.404-145.061-.024-5.319-1.411-8.125-4.582-13.974-15.794-3.436-6.587-3.859-7.723-3.393-9.134.713-2.159 6.589-6.065 10.19-6.774.965-.19 2.042-.413 2.393-.496.69-.164 10.437-.056 45.595.502m-47.576 3.003c-3.147.848-7.748 3.908-7.748 5.154 0 .267 1.367 3.067 3.037 6.222 7.706 14.553 7.704 14.551 22.8 15.002 13.014.389 107.204.384 121.531-.007 16.388-.446 15.989-.193 24.043-15.261 3.288-6.151 3.318-6.371 1.077-8.044-5.268-3.933-1.863-3.708-48.565-3.22-32.255.337-46.553.344-72.408.035-39.09-.468-41.613-.461-43.767.119"/><path fill="#fbfbfb" d="M0 200v200h400V0H0zM202.251 76.246c.337.18.825.738 1.084 1.239l.471.911 8.544.207c26.925.651 41.631 1.524 60.058 3.565 3.948.437 8.622.924 10.388 1.082 3.854.345 6.191 1.16 8.672 3.025 5.703 4.287 15.14 19.058 24.664 38.605 3.211 6.589 5.128 10.786 9.793 21.443l.869 1.985 3.206.009c3.958.01 3.963.006 3.452-3.108-.986-6.016-.454-11.024 1.351-12.726 4.026-3.797 25.507-.622 27.966 4.134 1.877 3.63-.425 12.282-3.7 13.906-2.492 1.235-14.32 3.021-25.082 3.786l-3.333.236 2.376 2.552c2.868 3.08 4.809 5.541 8.097 10.27 2.538 3.649 2.706 3.815 11.664 11.495 10.489 8.992 11.478 11.223 12.762 28.794.916 12.542.176 93.491-.959 104.784-.645 6.42-2.703 9.62-6.95 10.804-2.64.736-30.233.963-32.529.267-3.951-1.197-5.338-4.251-5.755-12.666l-.221-4.465-5.582-.223c-7.653-.304-11.671-.736-20.415-2.192-8.594-1.432-9.444-1.473-12.909-.622-5.293 1.299-7.262 1.328-83.064 1.196l-72.927-.126-3.951-.851c-4.996-1.076-5.136-1.073-13.055.258-9.137 1.536-13.912 2.061-20.902 2.298-3.873.131-6.056.328-6.138.552-.07.191-.259 2.733-.422 5.649-.662 11.9-1.76 12.345-28.418 11.511-10.365-.324-11.327-.541-13.666-3.079-3.426-3.716-3.779-9.22-4.097-63.813-.393-67.594-.568-66.604 13.935-78.614 7.46-6.177 8.224-6.946 10.931-11.007 3.05-4.574 5.006-7.141 7.949-10.429l2.186-2.442-3.117-.208c-11.672-.779-23.832-2.672-26.173-4.074-2.572-1.541-4.549-10.063-3.124-13.472 2.14-5.122 24.301-8.488 28.302-4.298 1.765 1.847 2.186 6.791 1.074 12.603-.605 3.164-.6 3.169 3.425 3.169h3.239l3.288-7.337c16.577-36.987 29.657-55.945 39.523-57.282 17.985-2.438 42.321-4.063 74.203-4.955 5.382-.15 6.938-.287 6.938-.609 0-1.539 4.203-2.741 6.079-1.737M171.132 92.85c-23.894.609-56.141 2.753-59.863 3.981-3.777 1.247-7.627 6.746-14.573 20.815-4.931 9.987-11.21 25.917-11.21 28.44 0 2.387-.97 2.36 56.3 1.612 34.058-.444 82.817-.458 111.324-.031 57.423.861 59.246.856 60.277-.174 2.402-2.403-11.965-35.583-20.195-46.642-2.795-3.755-3.951-4.273-11.104-4.982-27.84-2.758-72.963-3.986-110.956-3.019m25.997 92.456c-10.009 3.056-10.184 16.823-.252 19.84 10.745 3.264 18.373-9.964 10.057-17.441-2.546-2.289-6.775-3.324-9.805-2.399m7.184 1.375c7.986 4.067 7.035 15.232-1.518 17.83-8.228 2.499-15.377-5.843-11.608-13.546 2.279-4.659 8.44-6.67 13.126-4.284m-5.695-.503c-.339.338-.246 2.658.106 2.658.176 0 .33-.251.344-.558.015-.334.09-.398.186-.16.227.563.762.495 1.259-.159.392-.517.424-.506.434.159.005.395.162.718.347.718.476 0 .236-2.631-.255-2.792-.219-.072-.553.275-.744.772l-.346.903-.463-.877c-.501-.948-.548-.984-.868-.664m-5.454 2.768c-1.044.968-1.03 1.291.09 2.089l.909.647.845-.882c1.052-1.099 1.051-1.137-.089-1.948l-.935-.666zm11.652.165c-.729 1.023-.575 1.462.34.973.539-.289.584-.235.402.489-.24.954.113 1.033 1.475.328 1.078-.557 1.246-.943.304-.697-.351.092-.718.037-.816-.122-.099-.159-.015-.289.185-.289.201 0 .302-.18.225-.399s-.395-.352-.708-.295c-.405.074-.513-.04-.375-.399.317-.828-.335-.568-1.032.411m-10.877.522c-.218.263-.54.479-.716.479-.178 0-.143-.212.078-.479.219-.263.541-.478.717-.478.177 0 .143.211-.079.478m3.327.004c-3.781 1.66-4.705 6.569-1.835 9.746 5.077 5.619 14.121-1.485 9.686-7.608-1.667-2.301-5.254-3.278-7.851-2.138m-2.647.88c-.532.531-.832.003-.338-.592.299-.36.472-.403.56-.139.07.21-.03.539-.222.731m5.062 1.645v2.687l-2.712.104c-3.027.115-3.152.001-2.273-2.061.696-1.633 3.025-3.304 4.746-3.404.131-.008.239 1.195.239 2.674m-152.106 3.322c-4.39 1.575-5.402 3.87-4.545 10.309 1.319 9.916 5.237 15.133 12.632 16.82 2.375.542 15.268 2.105 26.475 3.211 5.439.537 11.294 1.118 13.011 1.292 5.418.549 7.149.436 9.359-.609 2.158-1.021 3.018-1.823 1.501-1.4-1.344.374-9.12.27-12.228-.165-1.491-.208-6.443-.815-11.005-1.347-29.352-3.427-31.192-3.95-34.351-9.754-2.178-4.002-3.723-13.643-2.366-14.769.786-.652 10.677 1.132 45.808 8.265 10.439 2.12 19.266 3.884 19.616 3.92.781.082 1.048-1.084.376-1.641-.551-.458-16.011-4.901-27.807-7.993-23.626-6.193-32.269-7.648-36.476-6.139m295.246-.26c-7.909 1.241-53.505 13.152-54.956 14.357-.666.553-.59 1.583.117 1.583.319 0 12.449-2.369 26.955-5.264 30.185-6.026 37.337-7.305 38.216-6.834 1.355.725.553 8.669-1.333 13.2-2.82 6.773-4.77 7.6-23.271 9.877-3.597.443-10.702 1.329-15.79 1.969-9.123 1.148-16.524 1.546-18.899 1.016-1.601-.357-1.231.249.741 1.213 3.179 1.556 5.394 1.459 30.757-1.337 20.593-2.27 23.561-3.057 26.759-7.095 3.843-4.852 5.8-17.32 3.187-20.297-1.967-2.241-7.13-3.228-12.483-2.388m-137.079.642c0 1.683-1.641 3.786-3.59 4.6-2.103.879-2.152.824-2.152-2.38v-2.871h2.871c2.677 0 2.871.044 2.871.651m-73.877 7.636c-8.79.939-13.092 4.583-12.999 11.012.186 12.894 9.806 25.586 21.485 28.347 4.287 1.013 27.585 2.037 37.958 1.667 15.995-.57 18.48-2.989 18.996-18.495.58-17.395-1.845-20.398-17.401-21.554-12.702-.944-42.648-1.553-48.039-.977m110.719-.116c-38.5 1.095-40.323 2.004-40.345 20.105-.026 20.418 2.979 22.107 37.155 20.88 16.158-.581 19.917-1.06 24.382-3.106 13.106-6.006 21.901-27.095 14.148-33.921-4.221-3.715-12.252-4.614-35.34-3.958m-190.776.911c-1.371 5.463 2.226 13.198 6.592 14.173 8.163 1.823 15.293 1.968 17.777.363 1.075-.695 2.389-1.488 2.92-1.763.959-.495 1.355-1.801.674-2.221-1.337-.827-3.233-.559-5.224.739-1.796 1.169-2.237 1.318-3.915 1.317-2.863-.001-10.614-1.21-11.638-1.814-1.888-1.115-3.745-6.348-3.328-9.377.239-1.738.136-1.843-2.053-2.102-1.525-.181-1.594-.155-1.805.685m292.882-.518-.924.208-.061 2.871c-.145 6.943-1.783 8.638-9.242 9.571-6.174.772-6.962.701-9.329-.841-1.991-1.298-3.887-1.566-5.224-.739-.57.352-.3 1.719.425 2.153 6.241 3.74 5.335 3.559 13.012 2.606 11.544-1.433 12.799-2.332 14.243-10.195.912-4.965.206-6.336-2.9-5.634m-175.631 2.909c25.044 1.394 25.677 1.8 25.66 16.438-.02 17.411-1.267 18.423-22.63 18.37-15.888-.04-27.684-.655-31.569-1.645-8.891-2.267-15.645-9.642-18.191-19.867-2.192-8.799.205-12.271 9.409-13.629 2.282-.336 29.69-.092 37.321.333m100.95-.014c4.887 1.083 8.137 3.909 8.14 7.08.01 12.226-8.926 23.945-20.051 26.295-4.767 1.007-28.643 1.856-38.943 1.385-12.599-.577-14.148-2.576-14.189-18.308-.039-14.775.791-15.278 27.091-16.423 4.386-.191 8.98-.393 10.208-.449 5.117-.233 26.238.086 27.744.42m-187.603 2.337c-1.231 1.983.786 9.328 3.318 12.088 1.805 1.966 15.539 3.296 19.297 1.868 1.18-.449 2.45-.638 4.283-.638 3.105 0 3.615-.157 3.615-1.112 0-1.656-6.098-2.434-9.038-1.154-2.151.936-11.853.501-14.367-.645-1.819-.829-3.501-4.758-3.531-8.25-.018-2.037-.034-2.074-.975-2.275-1.577-.338-2.341-.303-2.602.118m232.427-.113c-.747.207-.801.363-.846 2.44-.078 3.64-1.618 7.029-3.709 8.163-1.953 1.059-12.023 1.479-14.265.595-2.726-1.075-8.431-.747-9.007.517-.608 1.334.11 1.716 3.224 1.716 2.038 0 3.208.175 4.507.676 2.741 1.055 16.184.169 18.595-1.226 2.181-1.262 4.304-5.655 4.601-9.521.261-3.407-.39-4.113-3.1-3.36m-263.186 43.4c-3.929 1.191-5.178 5.815-5.213 19.313-.044 16.469.827 17.792 13.215 20.06 11.357 2.079 16.951 1.88 30.144-1.069 10.309-2.305 10.404-3.05 2.089-16.28-10.084-16.044-11.15-16.709-34.502-21.502-4.317-.887-4.48-.901-5.733-.522m290.937.384c-4.114.868-16.263 3.959-18.82 4.788-6.212 2.015-8.132 4.059-16.589 17.65-7.858 12.629-7.804 12.947 2.642 15.462 12.555 3.023 18.423 3.206 30.534.953 11.218-2.086 12.191-3.387 12.643-16.894.369-11.023-.808-18.722-3.231-21.128-1.611-1.601-2.849-1.744-7.179-.831M63.577 257.44c19.343 3.891 17.37 2.493 27.618 19.578 4.697 7.831 4.908 8.322 3.921 9.122-1.132.917-14.817 3.307-21.113 3.688-6.989.423-20.971-2.081-22.955-4.111-3.39-3.467-3.071-28.612.381-30.001.985-.397 3.103-.096 12.148 1.724m284.885-1.192c2.798 2.798 3.074 24.954.362 29.092-1.089 1.664-6.949 3.143-17.086 4.312-8.288.957-27.751-2.21-27.751-4.515 0-1.375 9.671-17.201 12.876-21.068 2.677-3.232 3.384-3.491 16.904-6.205 13.036-2.616 13.63-2.681 14.695-1.616M53.79 261.409c-.398 1.036-.226 8.987.202 9.342.446.37 4.256.739 15.663 1.518 8.499.58 8.942.513 8.144-1.238-.499-1.097.017-.999-10.607-2.008-10.78-1.023-10.095-.711-10.095-4.593 0-3.125.054-3.024-1.792-3.33-1.057-.174-1.353-.114-1.515.309m290.07-.25c-1.433.263-1.595.631-1.595 3.622 0 3.687 1.2 3.339-17.027 4.938-4.489.393-5.523 2.895-1.155 2.793 3.474-.081 18.756-1.095 20.255-1.344l1.276-.212.089-4.752c.084-4.536-.067-5.429-.886-5.231-.088.022-.519.105-.957.186m-221.531 3.13c-.351.083-1.428.306-2.393.496-3.601.709-9.477 4.615-10.19 6.774-.466 1.411-.043 2.547 3.393 9.134 5.849 11.212 8.655 14.383 13.974 15.794 5.382 1.428 139.734 1.45 145.061.024 5.891-1.578 7.971-3.975 14.512-16.73 4.03-7.858 4.028-7.835 1.002-10.647-5.416-5.032-6.748-5.229-32.026-4.74-32.86.635-63.913.776-87.738.397-35.158-.558-44.905-.666-45.595-.502m41.786 3.386c25.855.309 40.153.302 72.408-.035 46.702-.488 43.297-.713 48.565 3.22 2.241 1.673 2.211 1.893-1.077 8.044-8.054 15.068-7.655 14.815-24.043 15.261-14.327.391-108.517.396-121.531.007-15.096-.451-15.094-.449-22.8-15.002-1.67-3.155-3.037-5.955-3.037-6.222 0-.66 2.548-2.856 4.495-3.874 3.853-2.015 1.471-1.944 47.02-1.399"/></g></svg>