<svg xmlns="http://www.w3.org/2000/svg" width="400" height="400" viewBox="0 0 400 400"><g fill-rule="evenodd"><path fill="#050505" d="M199.256 34.343c-.117.117-.213 2.247-.213 4.733v4.52l-23.046.216c-48.191.452-63.294 1.442-67.743 4.439l-1.555 1.048-1.523-.938-1.522-.937-3.262.36c-11.719 1.294-13.56 5.126-21.632 45.039-3.033 14.995-8.671 48.167-8.442 49.675.046.31.023.385-.052.165-.178-.517-2.151-.517-2.561 0-.174.22-.513 1.404-.754 2.632-.344 1.753-.461 2.012-.54 1.206l-.102-1.027-3.729-.089-3.728-.09-.17-3.828c-.249-5.608-.667-6.099-5.113-5.999-8.844.199-15.413 2.588-17.159 6.239-1.02 2.132-2.115 8.418-1.646 9.447.778 1.707-.275 16.534-1.257 17.701-1.703 2.023-1.196 8.497.841 10.752 2.465 2.729 9.083 4.519 16.905 4.572l4.522.032.985-.942c.542-.518 1.132-1.487 1.312-2.153.371-1.381.253-1.357 4.173-.835 2.567.341 2.827.439 2.827 1.064 0 .973-1.094 10.809-2.427 21.822-1.023 8.451-1.212 9.486-1.9 10.389-2.369 3.105-5.222 13.016-6.565 22.808-1.333 9.713.478 31.326 5 59.662 1.802 11.292 5.473 22.29 8.748 26.202 1.764 2.108 8.093 3.7 20.908 5.257 3.859.47 7.137.956 7.284 1.082 1.051.9-19.147-2.094-24.348-3.608-6.777-1.974-10.839-12.616-14.332-37.559a8690 8690 0 0 0-1.232-8.772c-.823-5.79-.897 37.678-.092 53.589 1.331 26.294 1.031 25.782 15.335 26.134 14.648.361 20.102-.163 21.915-2.105 2.132-2.284 2.695-5.247 2.924-15.396l.201-8.911 2.074.068c1.14.038 2.647.135 3.349.216 8.752 1.011 17.456.796 17.848-.439.267-.839 158.944-.805 159.211.035.408 1.285 6.624 1.37 19.649.269 1.635-.138 3.072-.198 3.194-.133.121.064.226 3.815.234 8.335.02 11.411.945 15.17 4.207 17.097 2.288 1.352 28.232 1.426 30.799.088 3.364-1.754 4.242-6.263 5.205-26.735.686-14.596.78-54.43.127-53.776-.069.068-.485 2.911-.926 6.317-3.207 24.758-7.693 38.707-13.21 41.081-2.961 1.274-14.979 3.452-22.191 4.023-1.404.111-2.983.28-3.509.376-.608.11-.841.064-.638-.128.175-.166 2.616-.553 5.423-.861 9.928-1.087 19.177-2.892 21.394-4.174 3.954-2.287 8.291-14.125 10.631-29.021 6.541-41.636 6.693-58.33.692-75.914-.538-1.577-1.504-3.63-2.146-4.563l-1.168-1.695-1.666-14.097a4948 4948 0 0 1-1.858-15.863l-.191-1.766 3.383-.401c1.86-.221 3.417-.36 3.458-.308s.275.735.52 1.52c.936 3.008 4.279 3.607 12.571 2.254 6.718-1.096 10.147-2.547 11.61-4.913 1.442-2.333 1.515-8.658.117-10.162-.616-.662-.707-1.318-1.033-7.425-.423-7.946-.436-8.763-.167-10.845.251-1.945-.774-6.965-1.855-9.091-1.697-3.334-8.455-5.684-16.824-5.848-4.53-.089-5.411.992-5.411 6.635v3.36h-7.3l-.1 1.355c-.094 1.261-.131 1.189-.535-1.036-.586-3.236-.762-3.509-2.252-3.509h-1.234l-.212-1.994c-1.221-11.496-9.113-53.772-12.965-69.455-4.73-19.259-6.527-21.783-16.359-22.974-3.292-.399-4.314-.243-5.622.858l-.949.798-.935-.786c-4.234-3.563-21.12-4.609-82.319-5.103l-8.453-.068.117-4.018c.136-4.665-.139-6.061-1.02-5.18m-.53 25.619c-.245.909-.673 1.506-1.437 2.006-.599.391-1.229.999-1.4 1.349-.178.365-.321.452-.333.203-.012-.24.545-.957 1.237-1.595 1.529-1.409 1.913-2.359 1.991-4.928l.061-1.973.114 1.822c.064 1.002-.042 2.404-.233 3.116m3.655 1.798c.796.731 1.435 1.595 1.422 1.922-.019.436-.106.373-.33-.237-.167-.455-.657-1.018-1.089-1.249-1.235-.66-1.805-1.828-1.925-3.943l-.11-1.953.292 2.066c.268 1.887.418 2.181 1.74 3.394m37.172 23.726c29.863.466 45.736 1.009 61.085 2.088 13.067.918 12.106-.382 15.322 20.719 4.947 32.468 6.053 46.486 4.021 50.98-2.785 6.161-12.05 7.555-61.289 9.222-16.375.554-103.206.548-119.298-.008-22.42-.775-38.235-1.719-46.89-2.801-17.218-2.151-17.652-3.968-11.456-47.983 3.709-26.348 4.181-27.984 8.408-29.184 8.224-2.333 89.632-3.978 150.097-3.033M70.076 145.694c-.08.307-.146.056-.146-.558s.066-.866.146-.559c.081.307.081.81 0 1.117m259.589 8.692c.626 4.649 1.564 11.493 2.084 15.21.521 3.716.929 7.161.907 7.655-.047 1.08-.725-3.499-2.839-19.167-1.464-10.855-1.743-13.321-1.413-12.47.068.175.635 4.123 1.261 8.772m-261.262 3.869c-1.851 13.662-2.281 16.555-2.34 15.748-.069-.943 3.611-27.826 3.727-27.225.054.283-.57 5.447-1.387 11.477m-5.245-6.145c1.321.16 1.727.33 1.644.686-.248 1.064-1.644 13.314-1.644 14.426v1.199h-4.466v-16.587l1.356.032c.745.017 2.145.127 3.11.244m276.386 5.546c.121 3.201.173 6.897.115 8.213l-.106 2.393-2.352.094-2.353.095.173-.892c.131-.674-.891-11.044-1.456-14.768-.071-.474 1.389-.761 4.598-.905l1.162-.052zm-20.73 10.047c-2.704 4.257-7.533 6.676-28.862 14.459-12.309 4.492-10.921 4.125-16.831 4.448-24.19 1.322-141.086 1.059-151.59-.341-1.329-.177-3.809-.871-5.582-1.561-1.754-.683-6.276-2.317-10.048-3.632-9.55-3.33-11.826-4.191-15.405-5.828-5.376-2.459-9.408-5.176-10.516-7.086-.439-.757-.182-.598 1.172.723 3.082 3.009 8.794 5.629 22.995 10.545 4.21 1.458 9.365 3.323 11.454 4.144 6.185 2.43 14.811 2.705 85.037 2.705 69.568 0 76.499-.235 82.957-2.811 2.181-.869 7.544-2.828 11.919-4.352 13.247-4.614 19.658-7.71 22.312-10.775 1.486-1.715 1.803-1.919.988-.638m-252.879 8.769c-.076.396-.141.147-.145-.555-.003-.702.059-1.026.139-.721s.083.879.006 1.276m-.324 2.396c-.081.307-.146.055-.146-.559s.065-.865.146-.558.08.81 0 1.117m18.437 14.305c27.627 6.901 26.711 6.349 35.849 21.639 3.763 6.297 3.643 5.904 1.714 5.58-18.505-3.115-37.712-6.899-39.003-7.684-1.408-.857-2.087-2.622-4.007-10.422-.921-3.743-1.758-6.889-1.86-6.991-.535-.535-.43.567.445 4.673 1.722 8.074 2.502 10.806 3.755 13.152.059.11-.238.288-.661.394s-1.503.698-2.399 1.314l-1.631 1.122-2.072-.851c-5.232-2.149-6.279-5.362-5.813-17.836.315-8.437-.679-8.178 15.683-4.09m244.978-2.087c1.015 1.016.981 17.904-.041 20.113-1.418 3.067-6.538 5.606-8.054 3.993-.391-.416-1.313-1.019-2.049-1.339a63 63 0 0 1-1.422-.629c-.047-.027.281-.848.728-1.824.82-1.791 4.143-15.81 3.824-16.129-.405-.405-.795.793-2.371 7.281-1.834 7.553-2.452 9.264-3.616 10.027-1.327.87-10.924 2.847-31.017 6.39-4.561.805-8.616 1.534-9.011 1.62-.968.212-.98.246 1.197-3.525 4.454-7.717 8.24-13.246 10.315-15.064 3.098-2.715 7.177-3.958 38.328-11.679 1.059-.262 2.511.086 3.189.765m-238.64 24.842c8.48 1.809 20.256 4.034 28.115 5.311 5.37.873 5.436.893 6.858 2.144 2.802 2.465 2.744 2.459 36.682 3.794 13.614.535 61.231.532 74.482-.005 31.655-1.283 34.061-1.533 36.584-3.795 1.354-1.214 1.457-1.247 6.797-2.133 8.287-1.376 23.312-4.231 29.187-5.548 6.592-1.476 8.617-1.528 10.522-.267 1.68 1.113 2.552.605-8.289 4.831-23.305 9.085-24.455 10.212-37.024 36.28-8.337 17.292-7.458 16.687-25.421 17.487-26.42 1.175-70.805 1.162-99.597-.03-17.933-.743-16.023.878-27.813-23.601-9.192-19.085-11.781-21.361-34.128-29.997-11.193-4.326-10.671-3.97-7.938-5.415 1.681-.888 2.869-.786 10.983.944m34.273 14.927c-3.836.981-6.458 3.088-6.24 5.014.152 1.34 7.077 17.241 11.406 26.189 3.716 7.681 5.286 8.852 12.599 9.393 21.182 1.569 92.371 1.569 114.011.002 8.745-.634 9.636-1.832 21.247-28.588 3.797-8.748 3.747-9.007-2.243-11.622l-1.595-.696-73.826-.042c-57.47-.033-74.166.044-75.359.35m78.965 7.946c7.371 2.572 9.269 12.793 3.362 18.105-7.016 6.308-17.671 1.519-17.671-7.943 0-7.841 6.904-12.744 14.309-10.162m-7.24 1.214c-3.967 1.631-6.123 4.799-6.09 8.948.081 10.199 13.781 13.237 18.212 4.039 3.736-7.755-4.191-16.248-12.122-12.987m-48.697 2.081c6.228.17 17.032.402 24.009.517 11.961.197 13.563.334 12.79 1.094-.659.648-52.699-.696-53.128-1.372-.518-.815-.181-.919 2.374-.736 1.447.105 7.727.328 13.955.497m119.877-.07c-.147.769-2.172.893-21.471 1.318-32.617.719-31.739.714-31.739.181 0-.736-.475-.71 20.574-1.113 16.615-.319 24.467-.54 31.682-.893.852-.042 1.039.058.954.507m-71.073 2.631c0 .468-.212.638-.797.638-.745 0-.798.106-.798 1.595 0 1.382.085 1.595.638 1.595.351 0 .638.198.638.441s-.287.516-.638.608c-.556.146-.638.435-.638 2.27 0 1.891-.064 2.103-.638 2.103-.592 0-.638-.212-.638-2.983 0-1.641-.092-3.866-.205-4.944l-.204-1.961h1.64c1.428 0 1.64.083 1.64.638m1.914 4.306c0 4.689-.032 4.944-.622 4.944-.579 0-1.222-9.219-.68-9.756 1.049-1.042 1.302-.107 1.302 4.812m3.772-4.532c1.128 1.359 1.762 9.476.741 9.476-.617 0-.685-.173-.685-1.728 0-2.139-.217-2.737-.991-2.737-.564 0-.886 2.082-.628 4.067.03.228-.295.398-.76.398h-.811v-4.731c0-2.602.096-4.827.213-4.944.376-.376 2.568-.227 2.921.199m4.522.189c0 .332-.285.675-.638.767-.597.157-.638.436-.638 4.344 0 3.964-.033 4.176-.638 4.176-.607 0-.638-.212-.638-4.306 0-3.615-.077-4.306-.479-4.306-.266 0-.478-.283-.478-.638 0-.561.212-.638 1.754-.638 1.506 0 1.755.085 1.755.601m-6.253 1.123c-.417 1.087.018 2.58.783 2.689.717.101.74.045.521-1.276-.317-1.917-.878-2.524-1.304-1.413m-47.017 7.835c5.877.164 15.378.393 21.112.51 10.184.206 11.67.382 10.714 1.268-.464.429-49.366-1.058-49.928-1.519-1-.819-.317-.968 3.509-.765 2.149.114 8.716.342 14.593.506m110.367-.348c0 .987-8.27 1.423-36.523 1.928-14.631.262-14.041.279-13.783-.394.139-.363 1.987-.486 9.848-.658 17.342-.377 35.188-.876 35.514-.992.693-.246 4.944-.146 4.944.116M76.731 256.3c15.549 3.466 15.93 3.73 22.632 15.703 2.632 4.701 2.592 4.731-4.525 3.424-22.131-4.064-23.855-5.161-25.746-16.366-.819-4.854-1.174-4.726 7.639-2.761m252.716-.04c.221 2.686-1.706 9.715-3.289 11.999-1.614 2.329-6.003 3.859-18.269 6.366-12.407 2.536-12.129 2.763-7.056-5.742 5.208-8.731 5.725-9.054 19.576-12.252 3.337-.77 6.353-1.469 6.704-1.553 1.666-.399 2.228-.114 2.334 1.182m-179.367 7.851c33.445 1.168 69.916 1.043 107.89-.369 1.874-.07 2.239.095 1.526.687-2.46 2.041-117.803 2.045-120.262.004-.766-.635-.557-.926.559-.78.57.074 5.199.281 10.287.458m-15.607 24.028c-.276 3.574-.597 9.99-.714 14.258-.131 4.803-.314 7.483-.48 7.034-.332-.896.222-15.245.86-22.275.258-2.854.482-5.438.495-5.742.015-.318.093-.387.184-.163.086.215-.068 3.314-.345 6.888m130.125.218c.277 3.421.553 9.737.612 14.035.118 8.463.098 8.281-.62-5.741a4472 4472 0 0 0-.641-12.281c-.273-4.943.122-2.514.649 3.987M84.09 303.015c11.276 2.242 11.816 2.65 12.169 9.186.353 6.52-.978 7.105-11.749 5.166-7.282-1.311-9.018-3.33-9.054-10.523-.029-5.705-.268-5.599 8.634-3.829m238.078-.784c2.326 2.804.108 12.22-3.25 13.797-3.227 1.515-13.899 2.888-15.556 2.001-2.012-1.077-1.666-9.217.501-11.793.995-1.182 2.354-1.606 10.332-3.22 6.776-1.371 7.432-1.436 7.973-.785m-56.397 8.798c4.205 1.658 10.146 7.44 8.912 8.674-.562.562-150.385.576-150.946.015-.714-.714 2.936-4.92 6.133-7.065 3.694-2.479-3.337-2.249 69.4-2.269l64.821-.017z"/><path fill="#fbfbfb" d="M0 200v200h400V0H0zM200.175 34.818c.12.378.166 2.495.101 4.705l-.117 4.018 8.453.068c61.199.494 78.085 1.54 82.319 5.103l.935.786.949-.798c1.308-1.101 2.33-1.257 5.622-.858 9.832 1.191 11.629 3.715 16.359 22.974 3.852 15.683 11.744 57.959 12.965 69.455l.212 1.994h1.234c1.49 0 1.666.273 2.252 3.509.404 2.225.441 2.297.535 1.036l.1-1.355h7.3v-3.36c0-5.643.881-6.724 5.411-6.635 8.369.164 15.127 2.514 16.824 5.848 1.081 2.126 2.106 7.146 1.855 9.091-.269 2.082-.256 2.899.167 10.845.326 6.107.417 6.763 1.033 7.425 1.398 1.504 1.325 7.829-.117 10.162-1.463 2.366-4.892 3.817-11.61 4.913-8.292 1.353-11.635.754-12.571-2.254-.245-.785-.478-1.469-.52-1.52-.041-.052-1.598.087-3.458.308l-3.383.401.191 1.766c.106.971.942 8.109 1.858 15.863l1.666 14.097 1.168 1.695c.642.933 1.608 2.986 2.146 4.563 6.001 17.584 5.849 34.278-.692 75.914-2.34 14.896-6.677 26.734-10.631 29.021-2.217 1.282-11.466 3.087-21.394 4.174-2.807.308-5.248.695-5.423.861-.203.192.03.238.638.128.526-.096 2.105-.265 3.509-.376 7.212-.571 19.23-2.749 22.191-4.023 5.517-2.374 10.003-16.323 13.21-41.081.441-3.406.857-6.249.926-6.317.653-.654.559 39.18-.127 53.776-.963 20.472-1.841 24.981-5.205 26.735-2.567 1.338-28.511 1.264-30.799-.088-3.262-1.927-4.187-5.686-4.207-17.097-.008-4.52-.113-8.271-.234-8.335s-1.559-.005-3.194.133c-13.025 1.101-19.241 1.016-19.649-.269-.267-.84-158.944-.874-159.211-.035-.392 1.235-9.096 1.45-17.848.439-.702-.081-2.209-.178-3.349-.216l-2.074-.068-.201 8.911c-.229 10.149-.792 13.112-2.924 15.396-1.813 1.942-7.267 2.466-21.915 2.105-14.304-.352-14.004.16-15.335-26.134-.805-15.911-.731-59.379.092-53.589.149 1.053.704 5 1.232 8.772 3.493 24.943 7.555 35.585 14.332 37.559 5.201 1.514 25.399 4.508 24.348 3.608-.147-.126-3.425-.612-7.284-1.082-12.815-1.557-19.144-3.149-20.908-5.257-3.275-3.912-6.946-14.91-8.748-26.202-4.522-28.336-6.333-49.949-5-59.662 1.343-9.792 4.196-19.703 6.565-22.808.688-.903.877-1.938 1.9-10.389 1.333-11.013 2.427-20.849 2.427-21.822 0-.625-.26-.723-2.827-1.064-3.92-.522-3.802-.546-4.173.835-.18.666-.77 1.635-1.312 2.153l-.985.942-4.522-.032c-7.822-.053-14.44-1.843-16.905-4.572-2.037-2.255-2.544-8.729-.841-10.752.982-1.167 2.035-15.994 1.257-17.701-.469-1.029.626-7.315 1.646-9.447 1.746-3.651 8.315-6.04 17.159-6.239 4.446-.1 4.864.391 5.113 5.999l.17 3.828 3.728.09 3.729.089.102 1.027c.079.806.196.547.54-1.206.241-1.228.58-2.412.754-2.632.41-.517 2.383-.517 2.561 0 .075.22.098.145.052-.165-.229-1.508 5.409-34.68 8.442-49.675 8.072-39.913 9.913-43.745 21.632-45.039l3.262-.36 1.522.937 1.523.938 1.555-1.048c4.449-2.997 19.552-3.987 67.743-4.439l23.046-.216v-4.52c0-2.486.096-4.616.213-4.733.384-.384.698-.223.919.475m-1.391 22.179c-.078 2.569-.462 3.519-1.991 4.928-.692.638-1.249 1.355-1.237 1.595.012.249.155.162.333-.203.171-.35.801-.958 1.4-1.349 1.313-.859 1.838-2.467 1.67-5.122l-.114-1.822zm1.675 1.256c.12 2.115.69 3.283 1.925 3.943.432.231.922.794 1.089 1.249.224.61.311.673.33.237.013-.327-.626-1.191-1.422-1.922-1.322-1.213-1.472-1.507-1.74-3.394l-.292-2.066zm-43.84 27.257c-33.533.525-63.07 1.848-67.163 3.009-4.227 1.2-4.699 2.836-8.408 29.184-6.196 44.015-5.762 45.832 11.456 47.983 34.406 4.298 167.229 4.597 208.931.47 20.25-2.003 21.174-3.43 18.478-28.516-.838-7.795-2.124-17.345-3.953-29.347-3.216-21.101-2.255-19.801-15.322-20.719-28.665-2.015-90.506-2.901-144.019-2.064M69.93 145.136c0 .614.066.865.146.558.081-.307.081-.81 0-1.117-.08-.307-.146-.055-.146.559m258.325.668c-.026.522 2.673 20.787 3.756 28.199.333 2.281.623 3.742.645 3.248s-.386-3.939-.907-7.655c-.52-3.717-1.458-10.561-2.084-15.21-1.089-8.089-1.355-9.706-1.41-8.582M67.853 159.815c-1.01 7.453-1.816 13.837-1.79 14.188.059.807.489-2.086 2.34-15.748.817-6.03 1.441-11.194 1.387-11.477s-.926 5.585-1.937 13.037m-9.161.313v8.293h4.466v-1.199c0-1.112 1.396-13.362 1.644-14.426.115-.492-1.772-.861-4.754-.93l-1.356-.032zm276.555-8.003c-1.312.14-1.736.308-1.682.666.565 3.724 1.587 14.094 1.456 14.768l-.173.892 2.353-.095 2.352-.094.106-2.393c.058-1.316.006-5.012-.115-8.213l-.219-5.822-1.162.052c-.639.029-1.951.136-2.916.239m-17.421 16.216c-2.654 3.065-9.065 6.161-22.312 10.775-4.375 1.524-9.738 3.483-11.919 4.352-6.458 2.576-13.389 2.811-82.957 2.811-70.226 0-78.852-.275-85.037-2.705-2.089-.821-7.244-2.686-11.454-4.144-14.201-4.916-19.913-7.536-22.995-10.545-1.354-1.321-1.611-1.48-1.172-.723 1.108 1.91 5.14 4.627 10.516 7.086 3.579 1.637 5.855 2.498 15.405 5.828 3.772 1.315 8.294 2.949 10.048 3.632 1.773.69 4.253 1.384 5.582 1.561 10.504 1.4 127.4 1.663 151.59.341 5.91-.323 4.522.044 16.831-4.448 21.329-7.783 26.158-10.202 28.862-14.459.815-1.281.498-1.077-.988.638M65.79 175.917c.004.702.069.951.145.555.077-.397.074-.971-.006-1.276s-.142.019-.139.721m-.325 2.392c0 .614.065.866.146.559s.08-.81 0-1.117c-.081-.307-.146-.056-.146.558m4.508 12.161c-1.516.767-2.139 7.592-1.431 15.679.521 5.965 1.272 7.158 5.636 8.95l2.072.851 1.631-1.122c.896-.616 1.976-1.208 2.399-1.314s.72-.284.661-.394c-1.253-2.346-2.033-5.078-3.755-13.152-.875-4.106-.98-5.208-.445-4.673.102.102.939 3.248 1.86 6.991 1.92 7.8 2.599 9.565 4.007 10.422 1.291.785 20.498 4.569 39.003 7.684 1.929.324 2.049.717-1.714-5.58-9.138-15.29-8.222-14.738-35.849-21.639-11.973-2.991-13.084-3.205-14.075-2.703m255.864-.149c-31.151 7.721-35.23 8.964-38.328 11.679-2.075 1.818-5.861 7.347-10.315 15.064-2.177 3.771-2.165 3.737-1.197 3.525.395-.086 4.45-.815 9.011-1.62 20.093-3.543 29.69-5.52 31.017-6.39 1.164-.763 1.782-2.474 3.616-10.027 1.576-6.488 1.966-7.686 2.371-7.281.319.319-3.004 14.338-3.824 16.129-.447.976-.775 1.797-.728 1.824.046.026.686.31 1.422.629.736.32 1.658.923 2.049 1.339 1.516 1.613 6.636-.926 8.054-3.993 1.022-2.209 1.056-19.097.041-20.113-.678-.679-2.13-1.027-3.189-.765M79.403 214.984c-2.733 1.445-3.255 1.089 7.938 5.415 22.347 8.636 24.936 10.912 34.128 29.997 11.79 24.479 9.88 22.858 27.813 23.601 28.792 1.192 73.177 1.205 99.597.03 17.963-.8 17.084-.195 25.421-17.487 12.569-26.068 13.719-27.195 37.024-36.28 10.841-4.226 9.969-3.718 8.289-4.831-1.905-1.261-3.93-1.209-10.522.267-5.875 1.317-20.9 4.172-29.187 5.548-5.34.886-5.443.919-6.797 2.133-2.523 2.262-4.929 2.512-36.584 3.795-13.251.537-60.868.54-74.482.005-33.938-1.335-33.88-1.329-36.682-3.794-1.422-1.251-1.488-1.271-6.858-2.144-7.859-1.277-19.635-3.502-28.115-5.311-8.114-1.73-9.302-1.832-10.983-.944m196.036 16.259c5.99 2.615 6.04 2.874 2.243 11.622-11.611 26.756-12.502 27.954-21.247 28.588-21.64 1.567-92.829 1.567-114.011-.002-8.874-.657-8.984-.795-19.467-24.402-5.633-12.685-5.644-12.836-1.098-15.156 2.903-1.481.201-1.433 78.159-1.388l73.826.042zm-77.63 7.059c-12.267 2.41-11.075 20.612 1.394 21.274 13.899.737 15.438-19.886 1.594-21.376-.877-.094-2.221-.048-2.988.102m5.055 1.469c5.351 1.728 8.089 8.151 5.642 13.231-4.431 9.198-18.131 6.16-18.212-4.039-.053-6.584 6.289-11.221 12.57-9.192m-71.759 1.907c.018.96.69 1.053 9.897 1.38 14.751.524 43.18.948 43.484.649.773-.76-.829-.897-12.79-1.094-15.624-.257-34.438-.76-37.964-1.014-1.447-.104-2.629-.068-2.627.079m129.023.124c-2.983.127-14.323.401-25.2.61-21.049.403-20.574.377-20.574 1.113 0 .533-.878.538 31.739-.181 19.299-.425 21.324-.549 21.471-1.318.085-.449-.102-.549-.954-.507-.583.029-3.5.156-6.482.283m-66.713 4.178c.113 1.078.205 3.303.205 4.944 0 2.771.046 2.983.638 2.983.574 0 .638-.212.638-2.103 0-1.835.082-2.124.638-2.27.351-.092.638-.365.638-.608s-.287-.441-.638-.441c-.553 0-.638-.213-.638-1.595 0-1.489.053-1.595.798-1.595.585 0 .797-.17.797-.638 0-.555-.212-.638-1.64-.638h-1.64zm3.688-1.829c-.542.537.101 9.756.68 9.756.59 0 .622-.255.622-4.944 0-4.919-.253-5.854-1.302-4.812m2.153.081c-.117.117-.213 2.342-.213 4.944v4.731h.811c.465 0 .79-.17.76-.398-.258-1.985.064-4.067.628-4.067.774 0 .991.598.991 2.737 0 1.555.068 1.728.685 1.728 1.021 0 .387-8.117-.741-9.476-.353-.426-2.545-.575-2.921-.199m3.934.425c0 .355.212.638.478.638.402 0 .479.691.479 4.306 0 4.094.031 4.306.638 4.306.605 0 .638-.212.638-4.176 0-3.908.041-4.187.638-4.344 1.516-.396.723-1.368-1.117-1.368-1.542 0-1.754.077-1.754.638m-1.81.877c.661 1.118.563 2.999-.151 2.898-.591-.084-.772-.333-.853-1.174-.148-1.552.473-2.62 1.004-1.724m-66.452 7.653c0 1.053 6.639 1.419 35.885 1.976 15.585.297 14.61.322 14.342-.376-.161-.418-1.683-.518-10.614-.699-14.29-.291-30.998-.766-35.705-1.016-2.563-.136-3.908-.097-3.908.115m123.924-.073c-.326.116-18.172.615-35.514.992-7.861.172-9.709.295-9.848.658-.258.673-.848.656 13.783.394 28.253-.505 36.523-.941 36.523-1.928 0-.262-4.251-.362-4.944-.116m-189.937 2.359c-.721 1.347 1.32 9.785 3.017 12.472 1.779 2.82 7.251 4.607 22.906 7.482 7.117 1.307 7.157 1.277 4.525-3.424-6.702-11.973-7.083-12.237-22.632-15.703-7.364-1.642-7.379-1.643-7.816-.827m258.198-.395c-.351.084-3.367.783-6.704 1.553-13.851 3.198-14.368 3.521-19.576 12.252-5.073 8.505-5.351 8.278 7.056 5.742 17.653-3.609 18.95-4.468 20.969-13.899 1.106-5.168.771-6.251-1.745-5.648m-188.357 8.699c0 1.104 2.115 1.263 25.678 1.92 29.96.836 93.549-.013 95.062-1.268.713-.592.348-.757-1.526-.687-40.15 1.493-106.482 1.443-118.177-.089-.571-.075-1.037-.019-1.037.124m-4.122 17.637c-.013.304-.237 2.888-.495 5.742-.638 7.03-1.192 21.379-.86 22.275.166.449.349-2.231.48-7.034.117-4.268.438-10.684.714-14.258.277-3.574.431-6.673.345-6.888-.091-.224-.169-.155-.184.163m129.315 2.956c.088 1.579.376 7.105.641 12.281.718 14.022.738 14.204.62 5.741-.059-4.298-.335-10.614-.612-14.035-.527-6.501-.922-8.93-.649-3.987M76.004 302.618c-.89 1.358-.774 6.974.194 9.428 1.408 3.57 2.511 4.276 8.312 5.321 10.771 1.939 12.102 1.354 11.749-5.166-.353-6.536-.893-6.944-12.169-9.186-7.536-1.498-7.37-1.49-8.086-.397m238.191.398c-11.246 2.276-12.122 3.004-12.122 10.072 0 5.844 1.542 6.332 12.919 4.088 6.125-1.207 8.869-5.428 7.904-12.154-.547-3.808-.196-3.727-8.701-2.006m-181.294 8.014c-4 1.623-10.277 7.575-9.164 8.688.561.561 150.384.547 150.946-.015 1.234-1.234-4.707-7.016-8.912-8.674l-1.68-.662-64.821.017c-63.739.017-64.846.028-66.369.646"/></g></svg>