<svg xmlns="http://www.w3.org/2000/svg" xml:space="preserve" viewBox="0 0 1254 1254"><path fill="#FEFEFE" d="M667 1255H1V1h1254v1254zm485.266-823.022c-10.294 6.87-22.02 7.292-33.755 7.732 2.665-1.419 5.543-1.956 8.352-2.737 7.83-2.178 15.711-4.23 23.394-6.852 1.988-.678 4.391-3.065 4.767-5.02 1.438-7.488.335-14.536-5.5-20.293-7.88-7.772-16.961-14.012-27.695-16.126-14.482-2.853-29.233-4.735-43.958-5.841-12.056-.906-18.31 4.437-19.67 16.434-1.267 11.17-1.018 22.516-1.327 33.788-.07 2.565.31 5.143.494 7.876-4.523.42-8.319.906-12.128 1.056-1.339.052-3.225-.29-3.973-1.191-2.607-3.137-5.491-6.308-7.09-9.98-17.8-40.887-36.445-81.398-59.554-119.572-13.341-22.038-27.964-43.384-43.25-64.128-8.793-11.934-19.93-21.08-36.78-21.88-31.263-1.488-62.407-5.64-93.672-6.904-54.603-2.208-109.262-3.07-163.897-4.5-1.458-.04-2.915-.141-4.238-.207-2.095-4.103 1.857-11.543-5.68-11.632-8.02-.095-3.517 7.805-6.034 11.897-2.304 0-4.78-.055-7.254.009-49.47 1.27-98.967 1.93-148.401 4.037-37.097 1.581-74.128 4.844-111.15 7.848-5.188.42-10.774 2.752-15.067 5.775-6.193 4.36-12.033 9.615-16.872 15.445-24.486 29.496-43.93 62.348-61.244 96.355-14.844 29.158-28.11 59.12-42.095 88.716-2.11 4.466-4.283 9.35-9.88 9.837-4.207.367-8.535-.648-12.856-1.051 0-1.436-.137-2.427.02-3.368 2.168-12.987 1.468-25.913-1.067-38.741-2.36-11.95-7.922-16.502-20.177-16.024-8.804.343-17.6 1.33-26.355 2.391-15.822 1.917-30.453 6.78-42.617 17.701-6.03 5.414-8.754 11.841-8.172 19.967.259 3.608 1.374 6.176 4.81 7.283 6.473 2.086 12.973 4.103 19.518 5.945 4.195 1.18 8.493 1.997 12.744 2.976l-.3 1.228c-12.11-.297-23.87-2.201-35.365-8.977 4.633 13.617 11.656 23.776 25.467 26.814 11.355 2.497 22.892 4.242 34.407 5.916 12.137 1.765 24.344 3.05 36.45 4.537 0 .762.134 1.183-.02 1.373-14.79 18.413-29.368 37.004-44.49 55.14-11.4 13.671-23.633 26.643-35.24 40.144-8.264 9.612-12.283 21.065-14.198 33.578-5.553 36.278-4.93 72.752-4.241 109.25.795 42.147 1.518 84.295 2.266 126.443.826 46.475 1.42 92.957 2.634 139.422.28 10.753 2.038 21.582 4.247 32.14 2.818 13.462 9.554 18.847 23.221 19.96 7.797.635 15.641 1.03 23.46.975 23.321-.161 46.653-.248 69.955-1.062 13.345-.467 19.278-5.96 21.957-18.945 1.475-7.146 2.254-14.474 2.819-21.761.936-12.069 1.446-24.17 2.136-36.272 2.466-.191 4.454-.36 6.444-.498 25.41-1.755 50.592-5.72 76.23-5.396 183.805 2.329 367.613 2.827 551.425.5 25.96-.33 51.956.481 77.906 1.517 13.883.555 27.703 2.716 41.646 4.162.406 8.86.522 17.522 1.268 26.13.962 11.094 1.82 22.256 3.846 33.181 2.06 11.115 8.353 16.961 19.651 17.156 32.297.559 64.613.517 96.915.144 10.613-.122 17.807-6.5 20.534-16.74 2.005-7.529 3.578-15.31 4.117-23.065 1.533-22.103 3.095-44.238 3.469-66.38 1.08-63.976 1.256-127.967 2.433-191.94.708-38.505 1.826-76.986-1.943-115.386-1.67-17.016-4.417-33.759-16.163-47.453-6.83-7.963-12.725-16.825-20.146-24.164-20.198-19.974-38.584-41.41-55.053-64.522-1.673-2.347-3.32-4.713-5.32-7.555 1.78-.243 2.574-.35 3.368-.46 21.76-3.027 43.593-5.617 65.254-9.234 14.73-2.46 23.46-12.249 27.727-26.797l-.096-.746c-.216.21-.433.418-1.368.622"/><path fill="#020202" d="M1153.304 432.391c-3.84 14.259-12.57 24.049-27.3 26.508-21.662 3.617-43.495 6.207-65.255 9.234-.794.11-1.588.217-3.368.46 2 2.842 3.647 5.208 5.32 7.555 16.47 23.112 34.855 44.548 55.053 64.522 7.42 7.34 13.316 16.201 20.146 24.164 11.746 13.694 14.493 30.437 16.163 47.453 3.769 38.4 2.65 76.88 1.943 115.386-1.177 63.973-1.353 127.964-2.433 191.94-.374 22.142-1.936 44.277-3.47 66.38-.538 7.754-2.111 15.536-4.116 23.065-2.727 10.24-9.92 16.618-20.534 16.74-32.302.373-64.618.415-96.915-.144-11.298-.195-17.59-6.04-19.651-17.156-2.026-10.925-2.884-22.087-3.846-33.181-.746-8.608-.862-17.27-1.268-26.13-13.943-1.446-27.763-3.607-41.646-4.162-25.95-1.036-51.945-1.846-77.906-1.517-183.812 2.327-367.62 1.829-551.424-.5-25.639-.325-50.822 3.64-76.23 5.396-1.991.137-3.98.307-6.445.498-.69 12.102-1.2 24.203-2.136 36.272-.565 7.287-1.344 14.615-2.819 21.761-2.68 12.985-8.612 18.478-21.957 18.945-23.302.814-46.634.9-69.954 1.062-7.82.054-15.664-.34-23.461-.975-13.667-1.113-20.403-6.498-23.22-19.96-2.21-10.558-3.968-21.387-4.248-32.14-1.214-46.465-1.808-92.947-2.634-139.422-.748-42.148-1.471-84.296-2.266-126.442-.689-36.5-1.312-72.973 4.24-109.25 1.916-12.514 5.935-23.967 14.198-33.579 11.608-13.5 23.841-26.473 35.24-40.143 15.123-18.137 29.7-36.728 44.492-55.14.153-.191.019-.612.019-1.374-12.106-1.486-24.313-2.772-36.45-4.537-11.515-1.674-23.052-3.42-34.407-5.916-13.811-3.038-20.834-13.197-25.467-26.814 11.495 6.776 23.255 8.68 35.364 8.977l.301-1.228c-4.251-.98-8.549-1.796-12.744-2.976-6.545-1.842-13.045-3.859-19.517-5.945-3.437-1.107-4.552-3.675-4.81-7.283-.583-8.126 2.14-14.553 8.17-19.967 12.165-10.921 26.796-15.784 42.618-17.701 8.755-1.06 17.551-2.048 26.355-2.391 12.255-.478 17.817 4.075 20.177 16.024 2.535 12.828 3.235 25.754 1.068 38.74-.158.942-.02 1.933-.02 3.369 4.32.403 8.648 1.418 12.855 1.051 5.597-.488 7.77-5.371 9.88-9.837 13.985-29.596 27.25-59.558 42.095-88.716 17.314-34.007 36.758-66.86 61.244-96.355 4.84-5.83 10.679-11.084 16.872-15.445 4.293-3.023 9.88-5.354 15.068-5.775 37.02-3.004 74.052-6.267 111.149-7.848 49.434-2.107 98.93-2.768 148.4-4.037 2.474-.064 4.95-.009 7.255-.009 2.517-4.092-1.986-11.992 6.035-11.897 7.536.089 3.584 7.529 5.679 11.632 1.323.066 2.78.168 4.238.206 54.635 1.432 109.294 2.293 163.897 4.501 31.265 1.265 62.409 5.416 93.672 6.903 16.85.801 27.987 9.947 36.78 21.88 15.286 20.745 29.909 42.091 43.25 64.129 23.11 38.174 41.755 78.685 59.554 119.572 1.599 3.672 4.483 6.843 7.09 9.98.748.9 2.634 1.243 3.973 1.19 3.81-.149 7.605-.634 12.128-1.055-.184-2.733-.564-5.31-.494-7.876.31-11.272.06-22.618 1.327-33.788 1.36-11.997 7.614-17.34 19.67-16.434 14.725 1.106 29.476 2.988 43.958 5.84 10.734 2.115 19.816 8.355 27.694 16.127 5.836 5.757 6.939 12.805 5.5 20.292-.375 1.956-2.778 4.343-4.766 5.021-7.683 2.623-15.563 4.674-23.394 6.852-2.81.781-5.687 1.318-8.352 2.737 11.734-.44 23.46-.862 34.196-7.629.44.103.597.31.597.31m-887.774 4.13c73.472-1.386 146.938-3.22 220.416-4.061 144.972-1.66 289.939-.864 434.886 2.589 23.986.571 47.976 1.209 71.966 1.28 11.983.035 13.953-3.338 9.501-14.43-21.86-54.46-47.415-107.093-77.92-157.278-2.821-4.64-6.488-7.422-11.937-7.86-14.609-1.173-29.193-2.937-43.824-3.499-56.438-2.17-112.877-4.56-169.34-5.76-92.653-1.966-185.286-.064-277.869 3.812-24.958 1.045-49.866 3.252-74.801 4.855-7.018.451-12.325 3.212-15.722 9.687-2.624 5.002-5.909 9.654-8.815 14.512-19.937 33.327-37.438 67.936-53.779 103.13-6.435 13.86-12.342 27.98-18.05 42.158-2.608 6.478-.172 9.7 6.82 10.468 2.478.273 4.987.274 8.468.396M697.5 807.687c-111.465-.584-222.93-1.139-334.396-1.784-17.16-.099-34.317-.665-51.476-.92-8.856-.132-16.936 2.631-23.317 8.66-16.532 15.618-30.344 33.58-43.309 52.182-3.6 5.168-3.251 10.769.537 15.837 9.623 12.875 21.628 21.374 38.516 21.626 39.645.591 79.286 1.986 118.931 2.09 137.961.365 275.924.55 413.886.305 50.64-.09 101.277-1.574 151.916-2.416 13.732-.228 24.999-5.423 34.342-15.67 9.496-10.415 10.437-15.276 1.817-26.499-10.34-13.462-21.212-26.516-31.873-39.732-9.562-11.853-21.73-16.75-37.164-16.505-79.132 1.257-158.272 1.94-238.41 2.826m386.058-229.591c-44.03 10.946-88.065 21.868-132.074 32.893-3.003.753-6.41 1.601-8.615 3.551-14.697 12.998-27.092 27.958-36.612 45.171-2.314 4.185-1.167 7.366 3.238 9.337 6.672 2.985 13.363 6.014 20.274 8.345 3.97 1.34 8.45 2.112 12.6 1.8 12.444-.935 24.967-1.814 37.219-4.04 16.526-3.004 32.217-2.408 47.441 5.37 3.25 1.661 7.527 2.696 11.066 2.185 22.381-3.232 44.713-6.83 67.008-10.625 10.325-1.757 15.955-8.492 17.015-18.793 1.174-11.417 2.711-22.86 2.864-34.307.32-24.092 2.178-19.702-17.617-36.727-6.95-5.98-14.354-8.082-23.807-4.16m-749.421 95.512c2.584-1.143 5.178-2.264 7.752-3.432 7.774-3.526 8.45-5.943 4-13.437-8.56-14.41-18.827-27.502-31.077-38.901-3.244-3.02-7.594-5.515-11.862-6.65-16.22-4.309-32.65-7.817-48.935-11.89-29.031-7.262-58.045-14.602-86.995-22.176-6.65-1.74-12.475-1.34-17.778 3.152-5.33 4.515-10.964 8.746-15.775 13.764-2.313 2.413-4.346 6.382-4.264 9.59a1004 1004 0 0 0 2.564 50.29c.77 10.193 6.891 16.387 16.93 18.239 15.208 2.806 30.391 5.92 45.714 7.889 31.1 3.997 19.328 5.228 48.787-5.594 3.152-1.157 6.856-1.6 10.204-1.293 13.925 1.277 27.841 2.742 41.703 4.571 13.136 1.734 26.139 3.377 39.032-4.122M167.955 872.384c8.482.349 16.99 1.217 25.435.811 3.81-.183 8.67-1.889 11.05-4.638 16.016-18.504 31.58-37.401 47.085-56.34 4.02-4.91 3.86-10.367-1.093-14.21-4.852-3.764-10.554-7.496-16.409-8.717-24.1-5.024-48.363-9.304-72.638-13.436-19.027-3.238-24.156.302-29.61 18.967a87 87 0 0 0-.933 3.37c-6.105 24.503-9.528 49.373-9.93 74.626-.28 17.626 13.242 34.158 30.715 36.213 26.947 3.169 53.973 5.755 81.014 8.001 12.756 1.06 25.625.878 38.446.976 2.847.022 5.703-1.146 8.556-1.766l-.173-1.884c-1.999-.465-3.975-1.168-6-1.36-24.706-2.34-49.437-4.436-74.126-6.95-15.73-1.602-31.492-3.259-47.072-5.883-13.709-2.31-23.74-15.482-23.445-29.176.137-6.322.542-12.65 1.113-18.95 1.777-19.609 4.623-39.044 11.023-57.756 2.958-8.65 7.504-11.247 16.469-9.825 15.45 2.451 30.908 4.884 46.294 7.698 10.952 2.003 21.956 4.05 32.627 7.149 8.256 2.397 9 6.676 3.456 13.15-12.347 14.424-24.933 28.647-37.066 43.246-4.296 5.169-9.187 7.172-15.68 6.646-10.29-.834-20.605-1.362-30.906-2.066-6.074-.416-12.14-.922-18.244-1.39-.358 1.56-.671 2.513-.786 3.488-.798 6.788-.37 7.309 6.505 7.917 7.797.69 15.596 1.35 24.323 2.09m872.733 34.966c-20.407 1.862-40.817 3.693-61.217 5.633-1.977.188-3.891 1.044-5.834 1.59l.042 1.87c3.437.564 6.869 1.587 10.31 1.62 39.762.378 79.161-4.158 118.555-8.859 12.6-1.504 29.766-19.823 29.456-32.695-.708-29.305-4.021-58.162-12.602-86.24-4.1-13.414-10.717-17.352-24.527-14.949-24.76 4.308-49.503 8.753-74.155 13.636-5.21 1.032-10.483 3.495-14.875 6.532-7.95 5.496-8.42 11.446-2.226 18.981 13.963 16.986 28.207 33.742 42.034 50.837 4.843 5.989 10.614 8.924 18.157 8.406 14.958-1.028 29.92-2.01 44.856-3.303 7.984-.691 8.244-1.34 6.933-9.282-.106-.642-.377-1.258-.68-2.238-2.305.2-4.608.437-6.916.595-14.294.982-28.588 1.97-42.885 2.904-4.47.292-8.795-.374-11.886-3.961-13.92-16.152-27.762-32.372-41.596-48.599-2.615-3.068-2.001-6.216 1.222-8.056 3.547-2.025 7.456-3.874 11.429-4.617 23.555-4.41 47.158-8.57 70.779-12.61 8.98-1.536 13.328 1.218 16.616 9.711.78 2.016 1.558 4.054 2.08 6.145 6.074 24.321 10.135 48.935 10.369 74.067.024 2.602-.092 5.654-1.372 7.744-5.913 9.65-13.395 17.5-25.522 18.858a40267 40267 0 0 1-56.545 6.28M756.529 632.427c50.983-.56 101.965-1.161 152.949-1.607 4.38-.038 7.463-1.38 10.027-5.667-195.244 3.682-389.832 3.45-584.82.064 2.105 4.136 4.85 5.597 8.988 5.611 137.29.481 274.579 1.05 412.856 1.6m-117.226 9.617c-7.28-2.369-14.63-2.814-22.126-1.044-15.64 3.692-27.447 16.61-30.047 32.991-2.44 15.376 5.758 32.225 19.571 40.226 13.69 7.93 31.035 6.73 43.657-3.017 24.773-19.132 19.193-56.426-11.055-69.156m164.053 33.365 97.364-2.253c-1.468-5.383-4.247-8.024-9.68-6.646-.789.2-1.66.08-2.492.094-68.596 1.234-137.193 2.462-205.79 3.708-2.755.05-5.507.26-8.463.405l1.103 6.941c42.452-.743 84.72-1.482 127.958-2.25m-369.882-.327 144.071 2.573.956-6.954-222.056-4.13-3.674 6.574c26.92.65 53.315 1.287 80.703 1.937M176.96 812.775c-9.082-1.002-18.159-2.06-27.253-2.947-1.397-.136-2.873.525-5.626 1.084 8.097 4.078 73.553 9.885 78.159 6.718a30347 30347 0 0 0-45.28-4.855m922.221.87 9.752-1.736c-4.348-2.78-72.047 3.976-76.77 7.385 22.175-.118 44.117-3.4 67.018-5.649m-905.64 26.325c-15.886-1.564-31.77-3.165-47.665-4.647-1.906-.177-3.873.29-5.811.457 7.583 4.746 58.272 8.365 61.846 5.382-2.709-.407-5.106-.768-8.37-1.192m891.49-2.218-34.55 3.217c5.69 3.588 58.936-1.254 62.155-5.933z"/><path fill="#020202" d="M1153.066 432.083c.135-.309.352-.518.569-.727.031.249.063.497-.118.89-.213.145-.37-.062-.45-.163"/><path fill="#FDFDFD" d="M265.037 436.522c-2.988-.124-5.497-.125-7.976-.398-6.99-.769-9.427-3.99-6.82-10.468 5.709-14.178 11.616-28.297 18.051-42.158 16.34-35.194 33.842-69.803 53.78-103.13 2.905-4.858 6.19-9.51 8.814-14.512 3.397-6.475 8.704-9.236 15.722-9.687 24.935-1.603 49.843-3.81 74.801-4.855 92.583-3.876 185.216-5.778 277.869-3.811 56.463 1.198 112.902 3.59 169.34 5.759 14.631.562 29.215 2.326 43.824 3.5 5.449.437 9.116 3.218 11.937 7.859 30.505 50.185 56.06 102.818 77.92 157.278 4.452 11.092 2.482 14.465-9.501 14.43-23.99-.071-47.98-.709-71.966-1.28-144.947-3.453-289.914-4.25-434.886-2.59-73.478.842-146.944 2.676-220.91 4.063"/><path fill="#ECECEC" d="M698 807.686c79.638-.885 158.778-1.568 237.91-2.825 15.434-.245 27.602 4.652 37.164 16.505 10.66 13.216 21.532 26.27 31.873 39.732 8.62 11.223 7.679 16.084-1.817 26.499-9.343 10.247-20.61 15.442-34.342 15.67-50.639.842-101.276 2.326-151.916 2.416-137.962.246-275.925.06-413.886-.304-39.645-.105-79.286-1.5-118.931-2.09-16.888-.253-28.893-8.752-38.516-21.627-3.788-5.068-4.138-10.67-.537-15.837 12.965-18.603 26.777-36.564 43.309-52.182 6.381-6.029 14.46-8.792 23.317-8.66 17.16.255 34.316.821 51.476.92 111.465.645 222.931 1.2 334.897 1.783M490.5 899.95c121.648-.196 243.297-.23 364.944-.687 36.482-.138 72.96-1.49 109.44-2.222 13.512-.272 24.99-4.727 33.912-15.276 5.28-6.243 6.007-8.915 1.055-15.337-10.366-13.444-21.221-26.508-31.719-39.853-8.82-11.212-20.264-14.976-34.302-14.365-23.634 1.028-47.309 1.435-70.968 1.47-146.142.208-292.284.354-438.427.248-35.154-.025-70.31-1.05-105.463-1.68-9.296-.167-18.556.028-25.853 6.81-15.948 14.82-29.101 32.023-41.179 50.025-1.389 2.07-1.49 6.648-.12 8.647 6.687 9.762 15.402 17.204 27.812 18.306 11.276 1.002 22.597 1.894 33.909 2.041 58.651.764 117.306 1.273 176.959 1.873"/><path fill="#F2F2F2" d="M1083.959 577.995c9.052-3.82 16.455-1.718 23.406 4.26 19.795 17.026 17.938 12.636 17.617 36.728-.153 11.448-1.69 22.89-2.864 34.307-1.06 10.301-6.69 17.036-17.015 18.793-22.295 3.794-44.627 7.393-67.008 10.625-3.54.51-7.815-.524-11.066-2.184-15.224-7.78-30.915-8.375-47.441-5.371-12.252 2.226-24.775 3.105-37.219 4.04-4.15.312-8.63-.46-12.6-1.8-6.911-2.331-13.602-5.36-20.274-8.345-4.405-1.97-5.552-5.152-3.238-9.337 9.52-17.213 21.915-32.173 36.612-45.17 2.205-1.951 5.612-2.8 8.615-3.552 44.01-11.025 88.045-21.947 132.475-32.994m33.161 28.174c.018-.955.037-1.91.41-3.612-2.034-5.742-16.957-16.803-22.815-16.786-1.465.004-2.949.407-4.39.764-39.68 9.836-79.283 19.997-119.069 29.385-15.22 3.592-30.21 6.444-39.782 20.721-5.314 7.927-11.344 15.374-17.56 23.72 11.745 4.181 21.585 9.784 33.38 7.34 4.22-.875 8.603-.93 12.884-1.55 41.322-5.99 82.634-12.053 123.962-18.005 7.774-1.12 12.216-5.558 13.892-12.967 1.504-6.644 3.096-13.292 4.078-20.021.698-4.78 2.773-7.02 8.366-6.728-1.317 10.36-2.254 20.462-3.951 30.434-2.447 14.378-6.065 17.755-20.58 20.18a3389 3389 0 0 1-59.794 9.454l-5.461.876c2.699.778 4.013 1.156 5.996 1.918 5.614 2.412 11.297 3.452 17.463 2.09 5.17-1.14 10.528-1.39 15.748-2.335 13.872-2.512 27.751-5.007 41.551-7.876 6.16-1.281 10.334-5.086 11.052-11.909.183-.753.365-1.506.932-2.96 1.282-10.511 2.584-21.02 3.799-31.54.074-.646-.53-1.37-.841-2.192 0 0-.086-.105.768-.746-.011-2.406-.022-4.813-.038-7.655"/><path fill="#F2F2F2" d="M333.79 673.773c-12.546 7.334-25.549 5.691-38.685 3.957-13.862-1.83-27.778-3.294-41.703-4.57-3.348-.308-7.052.135-10.204 1.292-29.46 10.822-17.687 9.591-48.787 5.594-15.323-1.97-30.506-5.083-45.713-7.89-10.04-1.851-16.16-8.045-16.931-18.239-1.266-16.735-2.14-33.513-2.564-50.289-.082-3.208 1.95-7.177 4.264-9.59 4.811-5.018 10.445-9.25 15.775-13.764 5.303-4.493 11.128-4.892 17.778-3.152 28.95 7.574 57.964 14.914 86.995 22.175 16.285 4.074 32.715 7.582 48.935 11.892 4.268 1.134 8.618 3.63 11.862 6.649 12.25 11.4 22.517 24.49 31.076 38.9 4.452 7.495 3.775 9.912-4 13.438-2.573 1.168-5.167 2.29-8.097 3.597m-193.928-26.007c1.076 9.496 6.298 14.99 15.763 16.543 3.594.59 7.112 1.65 10.708 2.212 16.213 2.536 32.441 4.97 49.322 7.644.448-.066.897-.132 2.128-.063l14.013-4.121c-2.498-1.296-4.798-1.596-7.09-1.953-18.256-2.84-36.58-5.307-54.745-8.648-18.84-3.467-20.384-5.269-23.564-24.053-1.511-8.924-2.168-17.993-3.248-27.316 7.258 1.282 7.18 1.298 8.308 7.081 1.368 7.015 2.849 14.009 4.347 20.997 1.463 6.821 5.886 10.575 12.598 11.805 9.487 1.738 18.936 3.771 28.482 5.082 36.942 5.073 73.937 9.767 110.867 14.92 11.477 1.601 20.872-3.62 31.282-7.221-.924-1.924-1.336-3.42-2.226-4.534-7.687-9.608-15.413-19.186-23.229-28.689-3.658-4.447-8.692-6.263-14.22-7.574-41.752-9.907-83.5-19.834-125.158-30.127-19.293-4.767-19.201-5.146-34.392 7.588-.764.641-1.652 1.241-2.158 2.06-.743 1.205-1.734 2.612-1.68 3.894.37 8.94.984 17.87 1.352 27.586.199 1.039.399 2.078.458 3.945.53 3.14 1.059 6.281 1.505 10.137.222.679.443 1.358.577 2.805"/><path fill="#F0F0F0" d="M167.49 872.351c-8.262-.706-16.061-1.366-23.858-2.056-6.876-.608-7.303-1.13-6.505-7.917.115-.975.428-1.928.786-3.487 6.104.467 12.17.973 18.244 1.389 10.301.704 20.616 1.232 30.907 2.066 6.492.526 11.383-1.477 15.679-6.646 12.133-14.6 24.72-28.822 37.066-43.245 5.543-6.475 4.8-10.754-3.456-13.151-10.67-3.098-21.675-5.146-32.627-7.149-15.386-2.814-30.844-5.247-46.294-7.698-8.965-1.422-13.511 1.176-16.47 9.825-6.399 18.712-9.245 38.147-11.022 57.756-.57 6.3-.976 12.628-1.113 18.95-.296 13.694 9.736 26.866 23.445 29.176 15.58 2.624 31.341 4.28 47.072 5.882 24.689 2.515 49.42 4.611 74.126 6.951 2.025.192 4.001.895 6 1.36l.173 1.884c-2.853.62-5.709 1.788-8.556 1.766-12.82-.098-25.69.084-38.446-.976-27.041-2.246-54.067-4.832-81.014-8.001-17.473-2.055-30.995-18.587-30.714-36.213.401-25.253 3.824-50.123 9.93-74.626a86 86 0 0 1 .932-3.37c5.454-18.665 10.583-22.205 29.61-18.967 24.275 4.132 48.539 8.412 72.638 13.436 5.855 1.221 11.557 4.953 16.409 8.717 4.953 3.843 5.113 9.3 1.093 14.21-15.504 18.939-31.069 37.836-47.084 56.34-2.38 2.75-7.241 4.455-11.05 4.638-8.447.406-16.954-.462-25.9-.844"/><path fill="#F0F0F0" d="M1041.146 907.306c19.001-2.107 37.546-4.158 56.087-6.235 12.127-1.358 19.609-9.209 25.522-18.858 1.28-2.09 1.396-5.142 1.372-7.744-.234-25.132-4.295-49.746-10.37-74.067-.521-2.091-1.298-4.129-2.079-6.145-3.288-8.493-7.636-11.247-16.616-9.71-23.621 4.04-47.224 8.2-70.779 12.609-3.973.743-7.882 2.592-11.43 4.617-3.222 1.84-3.836 4.988-1.22 8.056 13.833 16.227 27.675 32.447 41.595 48.599 3.091 3.587 7.416 4.253 11.886 3.96 14.297-.932 28.59-1.92 42.885-2.903 2.308-.158 4.61-.395 6.916-.595.303.98.574 1.596.68 2.238 1.311 7.941 1.051 8.59-6.933 9.282-14.935 1.294-29.898 2.275-44.856 3.303-7.543.518-13.314-2.417-18.157-8.406-13.827-17.095-28.07-33.851-42.034-50.837-6.195-7.535-5.724-13.485 2.226-18.981 4.392-3.037 9.665-5.5 14.875-6.532 24.652-4.883 49.394-9.328 74.155-13.636 13.81-2.403 20.427 1.535 24.527 14.95 8.58 28.077 11.894 56.934 12.602 86.24.31 12.87-16.857 31.19-29.456 32.694-39.394 4.701-78.793 9.237-118.555 8.859-3.441-.033-6.873-1.056-10.31-1.62l-.042-1.87c1.943-.546 3.857-1.402 5.834-1.59 20.4-1.94 40.81-3.771 61.675-5.678"/><path fill="#EFEFEF" d="M756.035 632.431c-137.783-.552-275.073-1.122-412.362-1.603-4.139-.014-6.883-1.475-8.989-5.611 194.989 3.385 389.577 3.618 584.821-.064-2.564 4.287-5.648 5.63-10.027 5.667-50.984.446-101.966 1.047-153.443 1.611"/><path fill="#EDEDED" d="M639.676 642.172c29.875 12.603 35.455 49.897 10.682 69.029-12.622 9.747-29.967 10.946-43.657 3.017-13.813-8.001-22.01-24.85-19.57-40.226 2.6-16.381 14.406-29.299 30.046-32.991 7.495-1.77 14.846-1.325 22.499 1.17m.53 69.418c16.637-6.835 24.942-27.581 18.934-42.11-6.933 14.064-13.642 27.675-20.805 41.353 0 0-.335.313-1.005.07l-11.051-22.679-11.546 24.321-21.123-42.609c-1.517 2.309-1.923 4.507-2.11 6.723-2.13 25.233 24.265 45.33 47.072 35.547.31-.166.62-.331 1.634-.616m-7.778-37.58c-.882 4.48-4.405 3.46-7.468 3.767-3.072.309-3.923-1.56-4.917-3.803-3.673-8.29-7.467-16.525-11.558-25.532-3.517 3.377-6.611 6.127-9.398 9.16-.82.891-1.451 2.896-1.01 3.863 5.234 11.48 10.689 22.86 16.487 35.116 2.26-5.132 4.295-9.145 5.785-13.351.994-2.805 2.649-3.436 5.28-3.225 2.575.206 5.145-.487 6.39 3.124 1.458 4.227 3.724 8.176 6.06 13.138 4.948-10.188 9.463-19.24 13.758-28.396 4.184-8.917 3.632-10.691-4.4-16.541-1.018-.741-2.138-1.344-3.564-2.23-3.777 8.295-7.411 16.277-11.445 24.91m-10.548-13.37 4.454 9.91c3.86-8.771 7.228-16.429 10.754-24.445-7.227-2.347-14.077-2.758-21.393-.008 2.027 4.799 3.94 9.328 6.185 14.543"/><path fill="#EDEDED" d="M802.87 675.424c-42.752.753-85.02 1.492-127.472 2.235l-1.103-6.941c2.956-.145 5.708-.355 8.463-.405 68.597-1.246 137.194-2.474 205.79-3.708.833-.014 1.703.106 2.491-.094 5.434-1.378 8.213 1.263 9.681 6.646-32.54.753-64.953 1.503-97.85 2.267"/><path fill="#ECECEC" d="M432.978 675.076c-26.892-.644-53.288-1.281-80.207-1.93l3.674-6.576 222.056 4.13-.956 6.955c-47.99-.857-96.03-1.715-144.567-2.58"/><path fill="#E3E3E3" d="M177.415 812.813c14.91 1.594 29.367 3.152 44.826 4.817-4.606 3.167-70.062-2.64-78.16-6.718 2.754-.559 4.23-1.22 5.627-1.084 9.094.886 18.17 1.945 27.707 2.985"/><path fill="#E3E3E3" d="M1098.745 813.71c-22.464 2.183-44.406 5.466-66.58 5.584 4.722-3.41 72.42-10.166 76.769-7.385-3.92.698-6.836 1.217-10.189 1.8"/><path fill="#E3E3E3" d="M193.976 840.002c2.83.392 5.227.753 7.936 1.16-3.574 2.983-54.263-.636-61.846-5.382 1.938-.168 3.905-.634 5.811-.457 15.895 1.482 31.779 3.083 48.099 4.679"/><path fill="#E6E7E6" d="m1085.49 837.706 27.147-2.67c-3.219 4.68-56.465 9.52-62.156 5.933 12.437-1.158 23.494-2.187 35.008-3.263"/><path fill="#050504" d="M490 899.95c-59.153-.599-117.808-1.108-176.46-1.872-11.31-.147-22.632-1.039-33.908-2.04-12.41-1.103-21.125-8.545-27.813-18.307-1.37-1.999-1.268-6.577.121-8.647 12.078-18.002 25.23-35.205 41.179-50.026 7.297-6.781 16.557-6.976 25.853-6.81 35.154.63 70.309 1.656 105.463 1.681 146.143.106 292.285-.04 438.427-.249 23.659-.034 47.334-.44 70.968-1.47 14.038-.61 25.481 3.154 34.302 14.366 10.498 13.345 21.353 26.41 31.72 39.853 4.95 6.422 4.224 9.094-1.056 15.337-8.922 10.55-20.4 15.004-33.912 15.276-36.48.732-72.958 2.084-109.44 2.222-121.647.458-243.296.49-365.444.686m464.815-49.946 2.317-.653-.12-.801c-.972.055-1.943.11-3.85-.016-1.833.053-3.665.147-5.497.152-157.595.484-315.19 1.172-472.786 1.328-58.298.058-116.598-1.137-175.669-1.994h-13.156l-.044.906c4.684.292 9.368.584 14.966 1.013 38.96.954 77.92 2.627 116.882 2.732 135.916.365 271.835.429 407.75.076 42.791-.111 85.577-1.89 129.207-2.743M266.375 874.9c.218.308.437.616 1.477 1.177 25.614 1.28 51.221 3.475 76.844 3.682 104.993.848 209.991 1.52 314.987 1.427 91.66-.081 183.32-1.132 274.975-2.11 16.785-.178 33.552-2.061 51.023-3.044q.573-.27 1.147-.537c-.613-.145-1.226-.29-2.762-.596-34.804.873-69.605 2.385-104.412 2.507-137.276.48-274.553.757-411.83.62-56.136-.056-112.272-1.328-168.407-2.113-10.809-.152-21.614-.612-33.043-1.013M966.7 848.314h-9.198l.096 1.558c2.896-.356 5.792-.712 9.102-1.558"/><path fill="#060605" d="M1112.342 651.312c-.56 6.773-4.734 10.578-10.894 11.859-13.8 2.87-27.679 5.364-41.55 7.876-5.22.945-10.58 1.195-15.749 2.336-6.166 1.361-11.849.32-17.672-2.56-.009-1.037.192-1.603.393-2.169 19.693-3.195 39.397-6.32 59.074-9.61 14.516-2.425 18.134-5.802 20.581-20.18 1.697-9.972 2.634-20.074 3.95-30.434-5.592-.291-7.667 1.947-8.365 6.728-.982 6.73-2.574 13.377-4.078 20.02-1.676 7.41-6.118 11.848-13.892 12.968-41.328 5.952-82.64 12.016-123.962 18.004-4.28.62-8.664.676-12.884 1.55-11.795 2.445-21.635-3.158-33.38-7.339 6.216-8.346 12.246-15.793 17.56-23.72 9.572-14.277 24.561-17.13 39.782-20.721 39.786-9.388 79.39-19.549 119.07-29.385 1.44-.357 2.924-.76 4.39-.764 5.857-.017 20.78 11.044 22.276 16.86-.927 1.384-1.316 2.696-1.705 4.007l1.838-.034c.011 2.407.022 4.814-.486 7.835-.588.745-.658.874-.728 1.003l.501-.738c.289.688.893 1.412.819 2.058-1.215 10.52-2.517 21.029-4.384 31.902-1.275 1.196-1.965 2.03-2.655 2.863zm-41.542-11.878c8.48-1.351 16.742-3.08 18.103-13.71.4-3.117.495-6.325.265-9.457-.372-5.054-2.665-6.563-7.652-5.532-13.502 2.79-27.011 5.549-40.501 8.397-1.403.296-3.785.979-3.866 1.692-.528 4.66-1.095 9.442-.559 14.057.432 3.71 3.915 5.332 7.506 5.315 8.622-.038 17.243-.349 26.704-.762m-105.364-5.453c-3.273.605-6.546 1.204-9.818 1.816-5.387 1.007-6.418 2.508-6.015 8.742.35 5.396 2.075 7.571 7.264 7.425a168 168 0 0 0 19.844-1.77c8.893-1.32 11.952-5.622 11.125-14.442-.341-3.644-1.913-5.544-5.843-4.78-5.225 1.015-10.467 1.944-16.557 3.009"/><path fill="#0F0F0F" d="M1026.51 668.576c.159.644-.042 1.21-.368 2.055-1.439-.1-2.753-.48-5.452-1.257 2.78-.446 4.12-.66 5.82-.798"/><path fill="#0F0F0F" d="M1112.421 651.287c-.796.096-1.512.168-2.229.24.69-.834 1.38-1.667 2.463-2.512.21.741.028 1.494-.234 2.272"/><path fill="#0F0F0F" d="M1117.123 606.387c-.61.229-1.223.24-1.836.251.389-1.311.778-2.623 1.527-3.634.343 1.256.324 2.21.309 3.383"/><path fill="#0F0F0F" d="M1116.401 614.637c-.156.313-.323.56-.49.805.07-.129.14-.258.301-.682.092-.295.178-.19.19-.123"/><path fill="#050505" d="M214.998 673.963c-16.223-2.471-32.451-4.906-48.664-7.442-3.596-.563-7.114-1.622-10.708-2.212-9.465-1.554-14.687-7.047-15.36-16.99a26 26 0 0 0 1.461-2.19q-1.179-.443-2.358-.883c-.53-3.14-1.059-6.282-1.152-9.902 2.74-2.565 2.267-3.795-.726-4.248-.536-8.933-1.15-17.863-1.52-26.803-.054-1.282.937-2.69 1.68-3.893.506-.82 1.394-1.42 2.158-2.06 15.19-12.735 15.099-12.356 34.392-7.589 41.657 10.293 83.406 20.22 125.158 30.127 5.528 1.311 10.562 3.127 14.22 7.574 7.816 9.503 15.542 19.081 23.229 28.689.89 1.113 1.302 2.61 2.226 4.534-10.41 3.6-19.805 8.822-31.282 7.22-36.93-5.152-73.925-9.846-110.867-14.919-9.546-1.31-18.995-3.344-28.482-5.082-6.712-1.23-11.135-4.984-12.598-11.805-1.498-6.988-2.979-13.982-4.347-20.997-1.128-5.783-1.05-5.799-8.308-7.081 1.08 9.323 1.737 18.392 3.248 27.316 3.18 18.784 4.725 20.586 23.564 24.053 18.164 3.341 36.49 5.807 54.745 8.648 2.292.357 4.592.657 7.09 1.953-4.67 1.374-9.342 2.747-14.413 3.711a22 22 0 0 1-1.483-2.204zm-48.4-62.958c-6.718 10.912-1.504 24.752 10.842 27.06a153 153 0 0 0 27.67 2.613c10.802.023 13.94-4.346 13.05-15.234-.302-3.678-1.849-5.67-5.616-6.365-8.977-1.658-17.887-3.677-26.852-5.404-6.125-1.179-12.298-2.11-19.095-2.67m119.351 40.712c3.99.067 8.002.421 11.966.128 4.864-.36 6.116-4.028 6.205-8.185.067-3.178.209-6.777-3.941-7.581a763 763 0 0 0-28.98-5.067c-1.46-.225-3.878.563-4.606 1.688-3.456 5.339.484 15.059 6.7 16.698 3.844 1.014 7.836 1.462 12.656 2.32"/><path fill="#0F0F0F" d="M137.407 630.488c3.077.061 3.55 1.29.88 3.442-.565-.973-.765-2.012-.88-3.442"/><path fill="#0F0F0F" d="M215.327 674.064c-.028-.926.273-1.751.574-2.576.36.598.721 1.196 1.091 2.136-.439.409-.888.475-1.665.44"/><path fill="#0F0F0F" d="M139.328 644.604c.827-.064 1.613.23 2.4.524-.354.582-.706 1.164-1.419 1.808-.58-.617-.801-1.296-.981-2.332"/><path fill="#090909" d="M632.628 673.683a5191 5191 0 0 0 11.245-24.585c1.426.887 2.546 1.49 3.563 2.23 8.033 5.85 8.585 7.625 4.401 16.542-4.295 9.155-8.81 18.208-13.758 28.396-2.336-4.962-4.602-8.91-6.06-13.138-1.245-3.611-3.815-2.918-6.39-3.124-2.631-.211-4.286.42-5.28 3.225-1.49 4.206-3.525 8.219-5.785 13.35-5.798-12.254-11.253-23.635-16.487-35.115-.441-.967.19-2.972 1.01-3.864 2.787-3.032 5.88-5.782 9.398-9.16 4.09 9.008 7.885 17.244 11.558 25.533.994 2.244 1.845 4.112 4.917 3.803 3.063-.307 6.586.713 7.668-4.093"/><path fill="#0D0D0D" d="M638.044 712.117c-22.279 9.87-48.674-10.226-46.544-35.459.187-2.216.593-4.414 2.11-6.723l21.123 42.609 11.546-24.32c3.888 7.979 7.47 15.328 11.392 23.042.341.366.373.851.373.851"/><path fill="#0F0F0F" d="m638.789 710.766 20.35-41.288c6.009 14.53-2.296 35.276-19.452 41.926-.645-.336-.772-.487-.898-.638"/><path fill="#0D0D0D" d="M621.715 660.296c-2.08-4.872-3.993-9.401-6.02-14.2 7.316-2.75 14.166-2.34 21.393.008l-10.754 24.446a3661 3661 0 0 0-4.62-10.254"/><path fill="#0F0F0F" d="M638.308 712.161c-.264-.044-.296-.53-.302-.773s.33-.556.556-.589c.353.118.48.27.773.665-.143.41-.453.575-1.027.697"/><path fill="#E1E1E1" d="M984.986 875.919c-16.776 1.096-33.543 2.979-50.328 3.158-91.656.977-183.316 2.028-274.975 2.109-104.996.093-209.994-.579-314.987-1.427-25.623-.207-51.23-2.402-77.24-4.02a1.36 1.36 0 0 1-.46-.756c10.807.318 21.612.778 32.421.93 56.135.785 112.27 2.057 168.407 2.113 137.277.137 274.554-.14 411.83-.62 34.807-.122 69.608-1.634 104.874-2.212.463.295.458.725.458.725"/><path fill="#E3E3E3" d="M299.982 848.254c58.3.623 116.599 1.818 174.897 1.76 157.596-.156 315.19-.844 472.786-1.328 1.832-.005 3.664-.1 5.908.217.407.559.404.748.4.937-42.788 1.016-85.574 2.796-128.364 2.907-135.916.353-271.835.29-407.75-.076-38.964-.105-77.922-1.778-117.33-3.19-.48-.713-.513-.97-.547-1.227"/><path fill="#AFB0AF" d="M299.596 848.137c.42.374.453.631.477 1.277-4.695.096-9.379-.196-14.063-.488l.044-.906c4.385 0 8.77 0 13.542.117"/><path fill="#AFB0AF" d="M966.493 848.559c-3.103.6-6 .957-8.895 1.313l-.096-1.558c3.066 0 6.132 0 8.99.245"/><path fill="#C4C5C4" d="M954.394 849.922c-.417-.27-.414-.46-.353-.928 1.028-.334 1.999-.389 2.97-.444l.121.801c-.772.218-1.545.436-2.738.571"/><path fill="#C4C5C4" d="M985.333 875.975c-.347-.056-.342-.486-.343-.7.612-.07 1.225.075 1.838.22a5 5 0 0 1-1.495.48"/><path fill="#C4C5C4" d="M266.685 874.942c.31.041.374.46.36.67-.233-.096-.452-.404-.36-.67"/><path fill="#F8F8F8" d="M1070.38 639.54c-9.041.307-17.662.618-26.284.656-3.59.017-7.074-1.606-7.506-5.315-.536-4.615.031-9.397.56-14.057.08-.713 2.462-1.396 3.865-1.692 13.49-2.848 26.999-5.607 40.501-8.397 4.987-1.03 7.28.478 7.652 5.532.23 3.132.134 6.34-.265 9.456-1.361 10.63-9.624 12.36-18.523 13.817"/><path fill="#F5F5F5" d="M965.863 633.931c5.663-1.015 10.905-1.944 16.13-2.96 3.93-.763 5.502 1.137 5.843 4.781.827 8.82-2.232 13.122-11.125 14.442a168 168 0 0 1-19.844 1.77c-5.189.146-6.915-2.03-7.264-7.425-.403-6.234.628-7.735 6.015-8.742a1050 1050 0 0 1 10.245-1.866"/><path fill="#F8F8F8" d="M166.92 610.764c6.474.8 12.647 1.732 18.772 2.911 8.965 1.727 17.875 3.746 26.852 5.404 3.767.696 5.314 2.687 5.615 6.365.89 10.888-2.247 15.257-13.049 15.234-9.235-.02-18.59-.917-27.67-2.614-12.346-2.307-17.56-16.147-10.52-27.3"/><path fill="#F5F5F5" d="M285.501 651.64c-4.373-.78-8.365-1.228-12.209-2.242-6.216-1.64-10.156-11.36-6.7-16.698.728-1.125 3.146-1.913 4.606-1.688a763 763 0 0 1 28.98 5.067c4.15.804 4.008 4.403 3.94 7.581-.088 4.157-1.34 7.826-6.204 8.185-3.964.293-7.975-.06-12.413-.205"/></svg>