<svg xmlns="http://www.w3.org/2000/svg" width="1254" height="1254"><path fill="#FDFDFD" d="M0 0h1254v1254H0z"/><path fill="#010100" d="M588.105 133.866q8.165.002 16.33-.002 13.644-.003 27.288.006 15.648.006 31.298-.002 13.631-.007 27.262-.003 8.06.003 16.117-.001c43.272-.024 43.272-.024 64.6 1.136l2.566.136c5.467.293 10.931.63 16.395.985l4.981.318q5.13.328 10.258.663 6.52.423 13.043.83 5.106.323 10.213.656 2.404.156 4.81.305c8.056.503 15.983 1.165 23.937 2.61 4.813.855 9.662 1.435 14.512 2.04l3.208.402q3.32.414 6.643.824c3.388.42 6.775.852 10.163 1.284q3.243.403 6.486.802l3.055.395 2.855.344 2.494.312c2.633.104 4.836-.243 7.381-.906l1-1c13.781-1.247 27.892 1.372 39 10 5.782 4.992 7.715 10.887 10 18q.736 2.04 1.484 4.078c8.312 23.124 13.867 47.74 18.006 71.944.5 2.918 1.013 5.833 1.528 8.749a1938 1938 0 0 1 8.627 53.198l.315 2.116c1.51 10.104 3.092 20.196 4.665 30.29l.877 5.632q2.008 12.901 4.049 25.798a3727 3727 0 0 1 3.702 23.903q.468 3.086.94 6.17l.623 4.106.307 2.008c.514 3.41.985 6.82 1.388 10.245l.251 2.072c.224 1.885.437 3.771.648 5.658.845 4.344 2.574 5.87 5.59 9.033 2.873 6.987 3.919 14.58 5.062 22q.484 3.063.973 6.125l.473 2.984c.602 3.538 1.338 7.038 2.123 10.54C1026 483 1026 483 1026 489l31-1 .375-11.438q.252-6.72.536-13.442l.178-4.31q.272-6.718.615-13.432a488 488 0 0 0 .196-4.36c.085-2.055.193-4.108.307-6.163l.171-3.573c.882-4.655 2.94-7.74 6.418-10.928 2.739-1.683 4.47-1.746 7.672-1.774l3.318-.048h3.573l3.692-.024q3.87-.015 7.737-.009c3.933.001 7.865-.04 11.798-.085a3565 3565 0 0 1 7.523-.008l3.55-.05c6.961.06 12.075.823 17.341 5.644 2.04 3.059 2.35 4.275 2.746 7.805l.343 2.928.348 3.142.786 6.512c.383 3.238.762 6.476 1.124 9.717.324 2.864.673 5.723 1.028 8.583l.271 2.623.315 2.452.244 2.123c.688 2.384.688 2.384 3.32 4.11 3.87 4.698 3.171 9.408 3.104 15.314l.007 3.634a805 805 0 0 1-.04 7.603 838 838 0 0 0 0 11.62q-.01 3.696-.03 7.393l.015 3.504c-.09 6.184-.242 10.323-4.581 14.937h-2l.25 2.625c-.39 5.268-2.94 8.133-6.688 11.687-5.179 3.411-11.587 3.052-17.62 3.442l-2.973.197q-3.114.206-6.23.406-4.701.307-9.401.625c-29.842 1.978-29.842 1.978-33.584-.423-1.692-1.622-1.692-1.622-3.031-3.344-1.818-1.537-1.818-1.537-4.996-1.14-4.093 1.016-6.88 2.517-10.415 4.8l-3.324 2.117L1038 561l-2.195 1.223c-2.113 1.694-2.113 1.694-2.045 4.652l.369 3.57.186 1.985q.207 2.15.44 4.298c.25 2.311.471 4.624.686 6.939.475 5.072.985 10.14 1.496 15.208 1.076 10.696 2.129 21.38 2.853 32.106.922 13.525 2.904 25.37 8.772 37.706 4.082 8.632 5.171 17.347 6.166 26.77.255 2.383.546 4.757.854 7.133 1.038 8.102 1.74 16.18 2.172 24.336.133 2.893.133 2.893.753 4.897.62 2.735.623 5.275.626 8.08l.004 3.447-.012 3.587.012 3.577-.004 3.45-.004 3.145c-.122 2.737-.512 5.226-1.129 7.891l2.187.625c5.138 2.512 7.704 6.393 9.625 11.625 1.139 4.546 1.41 8.93 1.399 13.594l-.005 2.35c-.128 10.734-1.284 21.388-2.394 32.056l-.336 3.314c-1.963 19.263-4.023 38.707-8.746 57.526-1.208 3.95-1.208 3.95 1.27 6.91.995 9.643.658 23.375-3.522 32.222-2.287 6.009-1.885 12.369-1.859 18.704.01 2.412.002 4.823-.01 7.235q-.026 5.192-.033 10.385a2780 2780 0 0 1-.209 27.184l-.032 2.747a885 885 0 0 1-2.148 51.273l-.233 3.549c-2.127 31.636-2.127 31.636-13.267 43.076-8.16 4.934-17.917 3.952-27.12 3.96l-4.812.021q-5.026.017-10.053.015c-4.275 0-8.549.027-12.823.061-3.31.022-6.618.026-9.927.025q-2.362.004-4.726.027c-18.279.164-18.279.164-25.089-6.234-4.72-5.058-6.303-9.963-6.953-16.824l-.376-3.923q-.187-2.096-.37-4.19l-.196-2.15c-1.81-20.03-2.46-40.056-2.242-60.163l-2.762-.262c-8.047-.873-15.86-2.18-23.738-4.05l-2.737-.648c-3.955-.972-7.81-1.987-11.603-3.478-13.669-5.224-27.733-4.002-42.16-3.562q-3.408.07-6.816.137c-13.912.343-26.05 1.351-38.649 7.777-4.719 2.021-9.522 2.211-14.602 2.217l-3.638.012-3.97-.003-4.24.01q-5.816.01-11.633.01-6.276.005-12.553.016-13.72.02-27.44.024l-17.137.012q-23.73.019-47.462.026h-6.141l-6.168.002h-3.09q-24.786.009-49.574.046-25.455.035-50.912.037-14.29-.001-28.579.025-12.167.023-24.334.012c-4.137-.004-8.274-.003-12.41.011q-5.688.019-11.374 0a792 792 0 0 0-6.038.02c-7.268-.039-13.433-.81-20.24-3.391l-3.645-1.352-3.168-1.273c-5.914-2.377-10.988-3.473-17.359-3.691l-3.663-.13c-4.727-.14-9.455-.271-14.183-.385a432 432 0 0 1-12.572-.513c-14.065-.6-25.635 1.916-38.973 6.297-5.856 1.92-11.702 3.372-17.75 4.547l-2.423.483c-4.161.782-8.013 1.074-12.264 1.017l.015 3.044c.036 10.24-.11 20.468-.387 30.705q-.097 3.67-.185 7.343c-.928 36.441-.928 36.441-11.443 47.908-5.64 3.864-12.521 4.125-19.142 4.177l-2.12.02c-2.305.02-4.61.031-6.914.041l-2.396.013q-6.278.03-12.555.044c-4.307.011-8.614.046-12.921.085-3.326.027-6.652.035-9.978.038q-2.382.008-4.762.035c-17.026.188-17.026.188-23.945-6.004-8.536-8.507-9.214-21.103-10.267-32.449l-.257-2.645q-.415-4.301-.806-8.605l-.24-2.626c-1.318-15.348-1.832-30.72-1.896-46.119q-.02-3.951-.053-7.902c-.061-7.47-.116-14.942-.15-22.413-.02-4.614-.056-9.227-.1-13.841a836 836 0 0 1-.026-5.217c.052-12.013.052-12.013-2.74-23.632-1.315-3.593-1.818-7.359-2.42-11.125l-.392-2.262c-2.125-12.929-2.125-12.929.65-16.808L195 890c-.193-2.344-.193-2.344-1.125-4.875-4.626-16.564-5.51-34.273-7.5-51.313l-.334-2.859c-5.742-49.29-5.742-49.29.959-59.953 2.108-2.39 4.241-4.39 7-6h2l-.492-2.123c-.535-3.03-.637-5.835-.64-8.912l-.005-3.451.012-3.577-.012-3.587.004-3.448.004-3.14c.115-2.467.522-4.39 1.129-6.762.249-2.384.46-4.771.648-7.16l.353-4.318.184-2.27c3.024-36.869 3.024-36.869 8.436-48.318 3.697-7.865 6.063-15.031 7.066-23.684l.367-2.894a278 278 0 0 0 1.735-19.676c.211-2.68.211-2.68.693-4.435.68-2.948.832-5.826 1.018-8.847l.25-3.925.25-4.098c.925-14.97.925-14.97 1.559-20.922.394-3.707.547-7.346.503-11.078l-.027-3.102L219 563l-3.395-1.898-4.418-2.477-2.236-1.25c-1.068-.6-1.068-.6-2.158-1.21l-1.984-1.112c-1.64-.955-3.229-2-4.809-3.053a75 75 0 0 0-5-1l-.688 1.812c-1.776 2.961-3.149 3.741-6.312 5.188-3.236.42-6.429.377-9.688.312l-2.834-.03c-6.507-.117-12.905-.6-19.356-1.431a229 229 0 0 0-13.626-1.324l-3.413-.236q-3.334-.226-6.67-.417l-3.089-.214-2.747-.168c-3.676-.702-6.515-2.235-8.94-5.105-2.21-3.956-3.091-6.732-2.637-11.387h-2c-5.121-5.446-4.597-11.277-4.566-18.441l-.02-3.638q-.01-3.799.01-7.598c.013-3.876-.02-7.75-.059-11.626q0-3.695.006-7.388l-.04-3.51c.103-8.935.103-8.935 3.083-12.068C114 472 114 472 116 472l.113-3.75c.36-10.118 1.028-20.185 2.137-30.25l.294-3.09c.54-4.54.93-7.223 3.753-10.91 4.51-3.336 7.52-5.374 13.24-5.388l3.287-.029 3.52.019 3.642-.01q3.808-.002 7.615.017c3.885.016 7.768 0 11.653-.02q3.701.004 7.402.013l3.52-.019 3.287.029 2.881.007c4.398.63 6.975 2.626 9.903 5.872 2.433 4.87 2.564 9.264 2.8 14.646l.185 3.258c.19 3.43.354 6.861.518 10.292q.187 3.433.379 6.866c.229 4.234.455 8.468.66 12.704l.124 2.562c.13 4.726.087 9.454.087 14.181h31l1-12c.39-2.637.82-5.27 1.305-7.89l.377-2.044q.392-2.103.792-4.204a850 850 0 0 0 1.178-6.37c3.257-17.54 3.257-17.54 7.38-21.388 2.303-2.462 2.607-3.726 3.023-7.03l.414-3.04.406-3.347q.495-3.681.996-7.363l.265-1.993c1.018-7.632 2.22-15.235 3.412-22.843 1.802-11.52 3.55-23.045 5.146-34.595 3.403-24.621 7.544-49.126 11.62-73.642 1.002-6.044 1.978-12.09 2.903-18.147 1.487-9.718 3.366-19.315 5.47-28.917l.519-2.382C287.773 169.628 287.773 169.628 298 158l1.477-1.688c6.607-6.51 16.19-9.632 25.308-9.66q3.64.116 7.277.285c11.641.313 22.943-.295 34.5-1.687l2.271-.27q5.77-.693 11.536-1.411c7.66-.948 15.331-1.807 23.006-2.632l2.33-.25c13.722-1.46 27.463-2.486 41.232-3.375l2.843-.184c22.033-1.409 44.068-2.27 66.142-2.682l3.304-.064c22.96-.435 45.915-.53 68.879-.516"/><path fill="#FDFCFC" d="M601.64 269.797q21.498.019 42.997.018h5.738q26.687 0 53.375.014 7.92.004 15.838.004c45.813.004 91.606.346 137.412 1.167l3.43.06c11.58.207 23.16.429 34.738.705q4.917.115 9.834.21 6.246.12 12.49.275 2.29.054 4.581.093c13.196.232 25.576.819 35.614 10.157 5.564 6.015 6.448 10.23 6.934 18.297.288 3.231.288 3.231 1.328 6.344 1.427 5.24 1.887 10.463 2.426 15.859 1.072 10.233 2.318 20.428 3.687 30.625 1.42 10.654 2.557 21.282 3.255 32.008.322 4.752.81 9.379 1.64 14.07 1.3 7.413 1.954 14.868 2.605 22.36l.196 2.207c.922 10.444 1.842 20.88 2.135 31.365.124 2.73.375 5.44.619 8.162 1.175 16.565 1.175 16.565-4.454 23.228-6.66 6.58-13.863 9.354-23.058 10.975q-2.157.59-4.313 1.187c-5.09 1.093-10.296 1.242-15.485 1.472l-2.116.095-1.874.072c-2.353.153-2.353.153-5.217.677-4.708.677-9.387.636-14.135.626l-3.065.005c-3.398.005-6.796.002-10.194 0l-7.371.007q-8.021.006-16.042.005-11.928 0-23.857.008-22.546.013-45.093.013a148513 148513 0 0 0-44.859.008l-2.517.001q-35.063.01-70.125.01h-24.144q-41.853-.001-83.705.02a180921 180921 0 0 1-104.09.023h-2.496q-19.86 0-39.72.015-19.972.013-39.946.003-11.856-.006-23.712.007-8.868.009-17.736-.004-3.576-.003-7.153.005c-14.692.033-29.4.041-43.719-3.735-2.438-.598-2.438-.598-5.476-.82-9.44-1.203-16.17-4.98-22.203-12.259-5.117-7.505-3.765-16.001-2.97-24.638.355-4.053.573-8.1.774-12.162 2.398-45 8.235-90.078 14.371-134.704l.427-3.158c.394-2.898.803-5.794 1.218-8.69l.34-2.51c1.055-7.112 3.067-13.305 8.203-18.579 10.473-7.737 21.222-8.13 33.803-8.497l3.977-.122q5.464-.165 10.93-.317l6.852-.195c83.013-2.36 166.04-2.149 249.078-2.072"/><path fill="#FBFBFB" d="M1020 584c1.995 2.993 2.295 3.915 2.578 7.322l.233 2.645.224 2.869.253 2.997q.265 3.16.517 6.32c.252 3.148.516 6.294.783 9.44 1.406 16.865 2.657 33.786 2.475 50.72l-.014 2.603q-.02 3.042-.049 6.084c-15.516 4.894-31.108 9.135-46.937 12.875l-2.454.583c-8.363 1.982-16.687 3.821-25.183 5.144-2.943.483-5.796 1.192-8.676 1.96A110 110 0 0 1 928.5 698l-3.969.375c-3.593-.382-4.872-.855-7.182-3.585L916 693l-1.794-2.3c-4.962-6.583-9.27-13.517-13.426-20.626a1064 1064 0 0 0-3.132-5.31c-10.64-18.018-10.64-18.018-8.648-25.764l.727-3.184c1.905-7.297 3.67-11.865 10.273-15.816 4.225-1.691 8.538-2.855 12.938-4l3.741-1.02c9.931-2.686 19.913-5.178 29.903-7.632 6.858-1.693 13.654-3.57 20.446-5.511 3.024-.852 6.052-1.681 9.083-2.508 3.083-.844 6.163-1.7 9.243-2.558q2.29-.634 4.586-1.255c10.586-2.867 20.27-6.567 30.06-11.516"/><path fill="#FCFBFC" d="M233 585c5.002 1.61 9.89 3.346 14.766 5.309 7.954 3.07 16.076 5.332 24.297 7.566l4.773 1.313c10.802 2.96 21.643 5.734 32.521 8.4 8.816 2.17 17.542 4.584 26.252 7.142 3.547 1.041 7.112 1.954 10.704 2.832 6.442 1.742 12.074 4.68 15.687 10.438 1.203 3.207 1.203 3.207 2.25 6.813l1.078 3.582c3.123 16.756-15.98 38.712-24.816 51.81-2.515 3.594-4.36 6.153-8.512 7.795-6.648.369-12.73-.706-19.234-2.012l-3.253-.636q-3.405-.67-6.807-1.35c-3.402-.679-6.806-1.344-10.21-2.008-18.179-3.574-36.077-7.71-53.746-13.307l-3.484-1.087q-4.135-1.292-8.266-2.6c-.48-24.736 1.283-49.383 3.563-74l.193-2.117c1.067-11.529 1.067-11.529 2.244-13.883"/><path fill="#F5F5F5" d="m725.505 520.88 2.047-.003q3.411 0 6.822.01l4.877-.001q6.636.001 13.27.013 6.929.007 13.858.008 13.126.005 26.253.021 14.941.015 29.884.022 30.742.016 61.484.05c-2.627 6.08-7.381 11.483-13 15-5.374 1.5-10.512 1.401-16.028 1.249a811 811 0 0 0-4.764.005c-4.28.003-8.555-.062-12.834-.139-4.483-.069-8.966-.075-13.449-.088-8.475-.034-16.95-.124-25.424-.235-9.654-.123-19.308-.183-28.963-.238A9037 9037 0 0 1 710 536q.678-2.159 1.371-4.312l.771-2.426c2.723-7.181 6.238-8.388 13.363-8.382"/><path fill="#F5F5F5" d="M370 521q32.14-.141 64.28-.207 14.924-.028 29.847-.095 13.005-.06 26.012-.074c4.592-.006 9.183-.018 13.775-.047q6.483-.039 12.964-.03a531 531 0 0 0 4.759-.024c2.166-.02 4.331-.015 6.498-.004l3.673-.011c3.82.589 5.45 1.824 8.192 4.492 1.363 2.035 1.363 2.035 2.313 4.063l.988 2.035C544 533 544 533 544 536a7891 7891 0 0 1-62.302.674c-9.644.066-19.287.158-28.93.307q-12.615.197-25.23.242c-4.45.017-8.898.056-13.347.151-30.729.633-30.729.633-38.308-6.016C370 524.95 370 524.95 370 521"/><path fill="#EEEEEE" d="m1041.742 510.902 2.54.01 2.593.026 2.664.013q3.23.02 6.461.049v14c-8.035.63-15.942 1.122-24 1l-1-14c3.902-.65 6.921-1.124 10.742-1.098"/><path fill="#EEEEEE" d="M198 511q4.28-.04 8.563-.062l2.423-.026c4.786-.02 9.295.284 14.014 1.088l-1 14-24-1z"/><path fill="#1C1C1C" d="M757 268h64v1l5 1v1h-37v-1l-32-1z"/><path fill="#D0D0D0" d="M897 273q8.166-.037 16.333-.055 2.775-.008 5.552-.02c2.666-.013 5.332-.018 7.998-.023l2.491-.015c4.325 0 8.366.247 12.626 1.113v1h-13v2q-4.156.08-8.312.125l-2.381.05-2.295.02-2.11.032C912 277 912 277 909 275c-2.968-.46-2.968-.46-6.187-.625l-3.293-.227L897 274z"/><path fill="#080808" d="m897 502 25 1-1 2h-24z"/><path fill="#E3E3E3" d="M370 521h16l1 3-2.047-.07-2.703-.055-2.672-.07c-2.692.204-4.277.83-6.578 2.195-1.5-1.375-1.5-1.375-3-3z"/><path fill="#E7E7E7" d="m336 691 2 2c-4.78 4.939-4.78 4.939-7.945 5.098L324 698l-1-2 2.336-.586 3.039-.789 3.023-.773c2.727-.676 2.727-.676 4.602-2.852"/><path fill="#BFC0BF" d="M1026 655h1v20l-4-2h2z"/><path fill="#4B4B4A" d="M266 277h1c1.023 5.117.855 8.157-1 13-.37 1.994-.713 3.993-1 6h-1c-.248-6.57.676-12.57 2-19"/><path fill="#4A4B4B" d="M269 257h1c.081 2.438.14 4.874.188 7.313l.076 2.091c.029 2.022.029 2.022-.264 5.596l-3 3z"/><path fill="#E2E1E2" d="m1034 563 2 1v7l-2 1c-.879-6.152-.879-6.152-1-8z"/><path fill="#ECECED" d="m884 523-5 4-2-4c3.01-.934 3.867-1.044 7 0"/></svg>