<svg xmlns="http://www.w3.org/2000/svg" width="400" height="400" viewBox="0 0 400 400"><g fill-rule="evenodd"><path fill="#050505" d="M196.718 67.946c-.449.353-.91 1.072-1.026 1.598-.323 1.472-.476 1.491-13.714 1.697-21.575.335-42.71 1.721-56.861 3.728-4.303.611-4.646.617-6.356.12-12.098-3.517-27.813 18.054-44.43 60.987l-1.987 5.136-1.802.601c-.991.331-1.97.648-2.176.705-.863.238-1.952-2.537-1.789-4.559.548-6.845-3.126-14.911-7.329-16.087-3.514-.984-11.115.169-15.758 2.391-6.338 3.031-8.165 10.551-3.751 15.437 2.056 2.275 3.854 2.909 11.723 4.129 2.252.349 4.309.814 4.572 1.032.571.474 2.658 4.533 2.658 5.169 0 .766-5.448 7.672-9.28 11.765-11.011 11.759-12.979 15.419-13.99 26.012-.205 2.154-.505 4.307-.666 4.785-1.804 5.349-2.309 20.85-1.186 36.435.476 6.608.469 13.739-.022 21.531-1.321 20.953-.4 59.977 1.574 66.667.809 2.743 3.307 5.459 5.707 6.204 1.947.604 31.901.593 33.741-.012 5.656-1.861 6.754-5.26 6.764-20.945l.006-8.373 16.507-.008c18.74-.009 17.909.085 23.318-2.635l3.941-1.982h148.419l1.754.786a55 55 0 0 1 3.659 1.856c3.481 1.957 3.758 1.983 21.448 1.983h16.041l.007 9.33c.008 12.754.546 15.604 3.419 18.126 2.753 2.418 2.191 2.352 20.019 2.337 23.947-.021 23.079.845 24.418-24.37.328-6.173.442-41.147.147-44.817-.773-9.604-.856-15.87-.323-24.295.414-6.549.509-11.324.389-19.613-.157-10.875-.31-12.768-1.481-18.293-.334-1.579-.763-4.45-.952-6.38-.876-8.924-2.841-12.456-13.258-23.825-4.125-4.502-8.756-10.13-9.848-11.966-.125-.212.418-1.672 1.208-3.245l1.437-2.86 1.683-.331c.926-.182 3.323-.564 5.326-.849 8.553-1.216 12.353-4.225 12.27-9.715-.109-7.155-5.947-11.349-16.735-12.02-8.212-.512-12.723 5.086-12.731 15.797-.002 2.735-.074 3.081-.88 4.22-1.011 1.43-.886 1.412-3.547.508l-2.032-.69-2.147-5.582c-16.355-42.52-32.016-63.998-44.105-60.484-1.629.474-2.092.479-4.928.053-13.791-2.069-35.976-3.541-58.631-3.891-13.356-.206-13.369-.207-13.665-1.689-.419-2.095-3.031-2.976-4.769-1.609m46.504 16.405c22.794 1.078 41.943 2.717 46.697 3.997 4.155 1.119 13.602 19.381 20.135 38.925 3.46 10.35 3.54 11.065 1.338 12.061-1.266.572-209.623.969-220.401.42-7-.357-7.226-.678-5.18-7.387 6.097-19.988 16.631-41.7 21.218-43.729 4.083-1.806 33.682-3.954 67.134-4.871 10.557-.29 59.308.122 69.059.584m-168.39 66.853c5.296 1.355 11.611 4.433 15.518 7.564 7.917 6.347 12.258 25.656 6.959 30.955-4.359 4.359-26.378 2.367-38.138-3.45-8.082-3.997-9.438-8.069-6.161-18.49 4.647-14.777 10.747-19.411 21.822-16.579m258.682.022c7.588 2.82 15.677 23.175 11.823 29.751-4.828 8.24-36.275 14.779-44.326 9.218-4.231-2.922-3.995-12.351.577-23.034 3.385-7.908 11.447-13.78 22.126-16.116 4.373-.957 6.861-.91 9.8.181m-267.168 4.415c-5.664 1.723-11.985 15.833-9.91 22.12 1.8 5.455 16.326 10.52 30.326 10.574 6.849.026 7.594-.187 8.631-2.471 2.063-4.544-1.863-18.196-6.608-22.979-4.542-4.578-17.477-8.754-22.439-7.244m257.577.178c-7.858 1.745-14.547 5.635-17.188 9.995-3.623 5.982-5.992 17.052-4.343 20.294 2.634 5.18 27.794 1.662 36.431-5.094 3.866-3.024 3.658-9.563-.58-18.226-3.291-6.728-7.087-8.575-14.32-6.969m-248.225 2.718c8.542 1.489 11.036 2.965 12.356 7.313 1.47 4.838 1.881 4.778-18.511 2.703-9.479-.964-9.407-.934-9.173-3.842.553-6.896 3.767-8.19 15.328-6.174m258.209-.513c2.009 1.045 3.573 4.127 3.573 7.04 0 2.636.172 2.576-10.581 3.663-11.513 1.163-16.434 1.448-16.992.985-1.368-1.135.265-6.471 2.481-8.105 3.483-2.571 18.622-5.091 21.519-3.583M85.75 176.565c6.939.629 6.913.61 6.913 5.14 0 3.905-1.127 4.237-10.729 3.166-5.574-.623-5.845-.851-6.211-5.242-.279-3.348.241-3.993 2.999-3.719 1.001.1 4.164.395 7.028.655m235.781-.169c1.08 1.08.589 5.936-.735 7.259-1.669 1.669-14.024 2.314-15.22.795-.962-1.223-.84-5.755.182-6.777.591-.591 7.819-1.532 14.417-1.878.395-.021 1.005.25 1.356.601m-255.662.491c5.079.583 5.347.738 5.198 3.017l-.094 1.436-1.333.097c-1.487.108-6.284-.938-7.969-1.738-1.916-.909-2.876-3.843-1.145-3.499.483.096 2.887.405 5.343.687m272.248.086c-.004 1.921-2.095 3.19-6.857 4.161-4.165.849-4.625.716-4.625-1.339 0-2.242.192-2.34 5.901-3.003 5.485-.636 5.583-.633 5.581.181m-73.205 17.271c9.094 1.43 28.089 7.923 31.353 10.717 3.838 3.285 1.865 14.925-3.619 21.355-11.232 13.168-22.607 22.214-29.648 23.577-20.922 4.051-117.244 3.601-130.557-.61-5.951-1.883-18.218-12.195-27.318-22.967-5.178-6.13-7.496-17.551-4.238-20.884 2.398-2.452 15.067-7.201 27.026-10.129l4.625-1.133 11.324-.232c17.836-.367 118.393-.112 121.052.306m-118.819 2.902c-14.803.27-18.812 1.001-32.143 5.861-11.212 4.088-11.627 4.431-10.962 9.056 1.255 8.715 2.382 10.464 14.107 21.882 11.031 10.742 14.33 12.568 24.233 13.411 35.22 2.997 85.568 2.927 117.524-.163 8.555-.827 18.448-8.117 31.119-22.928 2.991-3.496 5.085-9.463 5.085-14.491 0-2.943-10.972-7.622-27.432-11.697-4.583-1.135-79.072-1.705-121.531-.931m60.782 8.708c17.998 3.925 10.695 14.515-9.539 13.829-19.584-.663-22.335-11.674-3.556-14.236 3.055-.417 10.359-.19 13.095.407m-12.138.393c-14.101 2.008-17.418 8.108-6.22 11.439 15.311 4.554 35.728-2.806 24.593-8.866-3.567-1.941-13.268-3.3-18.373-2.573m2.954 1.597c1.727.283 3.998.44 5.115.355 2.127-.162 2.5.2.997.967-1.026.523-2.665.5-4.525-.065-1.603-.486-4.34.956-3.469 1.828.386.386 1.001.029 1.001-.581 0-.253.287-.46.638-.46.355 0 .638.213.638.479 0 .579-.517.634-.758.08-.095-.22-.099-.032-.008.416.157.768.101.808-.944.686-1.064-.124-1.165-.043-2.421 1.945-1.663 2.634-2.577 3.261-4.554 3.13-1.712-.114-1.773-3.358-.078-4.13.879-.4 1.058-.036.294.598-.657.545-.472 2.022.271 2.163.786.149 1.848-.603 3.118-2.207l1.069-1.349-.945.237c-1.119.281-.797-.156.452-.612.481-.176 1.407-.915 2.06-1.644l1.186-1.324-1.583-.218c-1.71-.235-3.049.198-3.661 1.183-.582.937.226 1.42 1.25.749 1.099-.72 1.28-.49.449.567-1.522 1.934-3.676.429-2.508-1.753.809-1.513 2.483-1.764 6.916-1.04m12.516 2.488c0 .069-.66 1.299-1.466 2.734-1.588 2.823-1.63 3.524-.125 2.082.943-.904 1.295-.783.545.187-.801 1.035-2.113 1.674-2.603 1.268-.332-.276-.631-.286-1.092-.039-.834.446-1.6.127-1.823-.761-.139-.554-.353-.681-.954-.566-.447.086-.775-.003-.775-.208 0-.685-.626-.348-1.117.601-.297.575-.747.957-1.127.957-.587 0-.562-.125.358-1.754 1.468-2.602.637-2.282-1.763.679-.989 1.22-1.785 1.462-2.903.882-.468-.243-.98-.362-1.137-.265-.888.549 1.233-2.986 2.153-3.589 1.119-.733 1.281-.283.312.868-.955 1.135-1.103 2.222-.304 2.222.91 0 1.7-.986 1.7-2.123 0-1.125.42-1.4.881-.576.238.425.352.404.863-.16.64-.708 1.64-.865 1.833-.287.086.258.32.238.816-.072.526-.329.784-.345 1.064-.065.561.561.077 1.473-.676 1.276-.411-.108-.634-.008-.634.282 0 .71 1.095.523 1.89-.323 1.037-1.104 2.449-1.644 3.033-1.16.373.31.591.144 1.196-.915.586-1.027 1.855-1.83 1.855-1.175m-4.593 3.164c-.881.881-1.116 2.134-.4 2.134.885 0 1.942-1.811 1.487-2.548-.196-.317-.454-.219-1.087.414M56.725 228.698c8.384 2.154 16.881 5.837 19.961 8.652 2.625 2.399 11.164 15.257 10.544 15.877-.276.276-.9-.552-4.647-6.159-6.228-9.319-5.645-8.951-20.743-13.094l-9.888-2.715c-1.555-.43-2.034-1.025-1.507-1.868.901-1.444 2.618-1.633 6.28-.693m290.122.033c1.803 1.419.846 2.199-4.263 3.48-5.605 1.406-15.797 4.304-17.903 5.092-3.386 1.267-4.946 2.937-10.299 11.028-3.716 5.616-3.33 5.092-3.574 4.848-.914-.914 8.343-14.402 11.485-16.734 6.091-4.522 22.184-9.578 24.554-7.714m-297.092 4.204c.529 1.202.596 2.237.597 9.17.003 14.427 1.294 21.418 4.289 23.235 3.43 2.081 18.983 3.563 21.763 2.074 3.677-1.969 8.837-6.554 8.7-7.73-.132-1.137-.409-1.246-12.347-4.861-12.022-3.639-11.832-3.569-11.832-4.417 0-.874.243-.851 6.879.644 20.147 4.538 27.222 6.677 27.766 8.394.264.829-1.506 2.455-7.213 6.628-7.864 5.751-10.478 6.382-21.69 5.231-15.589-1.6-17.387-2.759-19.055-12.282-1.145-6.54-.648-24.612.736-26.724.633-.967.718-.928 1.407.638m300.132.644c1.393 5.149 1.312 20.021-.15 27.478-.75 3.822-2.378 6.512-4.669 7.712-3.314 1.736-22.059 3.689-25.97 2.706-3.415-.859-10.807-5.684-15.849-10.346-2.977-2.753 1.028-4.334 23.898-9.438 9.739-2.174 9.695-2.168 9.695-1.303 0 .845-.284.967-6.698 2.861-18.721 5.528-19.188 5.79-15.812 8.876 6.563 5.998 8.358 6.605 16.801 5.676 11.858-1.304 13.711-2.257 14.905-7.673 1.054-4.781 1.738-14.801 1.438-21.063-.309-6.439 1.215-9.908 2.411-5.486M63.19 236.698c1.81.965 2.328 5.758.812 7.521-1.011 1.175-6.3 1.333-7.774.233-1.426-1.065-1.905-6.508-.7-7.959.534-.644 6.362-.488 7.662.205m278.926-.206c1.582 1.157.9 7.452-.889 8.207-1.561.658-6.804.547-7.511-.16-.785-.784-.976-5.954-.261-7.046.856-1.307 7.235-2.044 8.661-1.001m-73.376 29.646c5.335 1.592 11.801 6.359 17.753 13.086 2.86 3.234 2.923 3.392 1.339 3.392-1.061 0-1.514-.348-5.183-3.985-6.832-6.77-10.947-9.509-15.823-10.529-3.267-.684-132.53-.705-135.75-.023-5.216 1.106-11.635 5.545-17.798 12.306-1.937 2.124-2.102 2.231-3.456 2.231h-1.423l1.061-1.356c6.142-7.849 14.942-14.156 21.481-15.395 3.952-.748 135.248-.489 137.799.273"/><path fill="#fbfbfb" d="M0 200v200h400V0H0zM200.591 67.967c.391.364.794 1.079.896 1.588.296 1.482.309 1.483 13.665 1.689 22.655.35 44.84 1.822 58.631 3.891 2.836.426 3.299.421 4.928-.053 12.089-3.514 27.75 17.964 44.105 60.484l2.147 5.582 2.032.69c2.661.904 2.536.922 3.547-.508.806-1.139.878-1.485.88-4.22.008-10.711 4.519-16.309 12.731-15.797 10.788.671 16.626 4.865 16.735 12.02.083 5.49-3.717 8.499-12.27 9.715-2.003.285-4.4.667-5.326.849l-1.683.331-1.437 2.86c-.79 1.573-1.333 3.033-1.208 3.245 1.092 1.836 5.723 7.464 9.848 11.966 10.417 11.369 12.382 14.901 13.258 23.825.189 1.93.618 4.801.952 6.38 1.171 5.525 1.324 7.418 1.481 18.293.12 8.289.025 13.064-.389 19.613-.533 8.425-.45 14.691.323 24.295.295 3.67.181 38.644-.147 44.817-.999 18.827-1.734 21.352-6.874 23.645-2.418 1.078-32.605 1.144-34.944.076-5.182-2.366-6.028-5.144-6.038-19.814l-.007-9.33h-16.041c-17.69 0-17.967-.026-21.448-1.983a55 55 0 0 0-3.659-1.856l-1.754-.786H125.106l-3.941 1.982c-5.409 2.72-4.578 2.626-23.318 2.635l-16.507.008-.006 8.373c-.01 15.685-1.108 19.084-6.764 20.945-1.84.605-31.794.616-33.741.012-2.4-.745-4.898-3.461-5.707-6.204-1.974-6.69-2.895-45.714-1.574-66.667.491-7.792.498-14.923.022-21.531-1.123-15.585-.618-31.086 1.186-36.435.161-.478.461-2.631.666-4.785 1.011-10.593 2.979-14.253 13.99-26.012 3.832-4.093 9.28-10.999 9.28-11.765 0-.636-2.087-4.695-2.658-5.169-.263-.218-2.32-.683-4.572-1.032-12.288-1.906-15.945-5.546-13.505-13.446 2.326-7.531 18.846-12.048 24.261-6.633 2.608 2.608 4.733 9.537 4.359 14.209-.163 2.022.926 4.797 1.789 4.559a86 86 0 0 0 2.176-.705l1.802-.601 1.987-5.136c16.617-42.933 32.332-64.504 44.43-60.987 1.71.497 2.053.491 6.356-.12 14.151-2.007 35.286-3.393 56.861-3.728 13.238-.206 13.391-.225 13.714-1.697.45-2.046 3.382-2.99 4.899-1.577m-26.428 15.8c-33.452.917-63.051 3.065-67.134 4.871-4.587 2.029-15.121 23.741-21.218 43.729-2.046 6.709-1.82 7.03 5.18 7.387 10.778.549 219.135.152 220.401-.42 2.202-.996 2.122-1.711-1.338-12.061-6.533-19.544-15.98-37.806-20.135-38.925-4.754-1.28-23.903-2.919-46.697-3.997-9.751-.462-58.502-.874-69.059-.584M66.477 150.55c-5.886 1.25-10.161 6.72-13.467 17.233-3.277 10.421-1.921 14.493 6.161 18.49 11.76 5.817 33.779 7.809 38.138 3.45 5.299-5.299.958-24.608-6.959-30.955-6.742-5.404-18.334-9.395-23.873-8.218m260.317-.112c-7.261 1.077-15.623 4.878-20.205 9.185-7.901 7.424-11.392 26.557-5.578 30.572 5.51 3.806 25.627 1.777 37.267-3.758 8.577-4.079 9.876-8.352 6.041-19.874-3.952-11.876-9.812-17.268-17.525-16.125M73.565 155.84c13.219 2.73 19.048 8.47 21.65 21.321 1.991 9.831.948 11.21-8.453 11.174-14-.054-28.526-5.119-30.326-10.574-1.706-5.169 3.547-19 8.112-21.361 2.282-1.18 5.154-1.358 9.017-.56m258.983.257c5.435 2.531 10.978 17.131 8.471 22.31-3.732 7.71-35.41 14.026-38.627 7.701-1.649-3.242.72-14.312 4.343-20.294 4.158-6.865 19.519-12.647 25.813-9.717m-269.071 2.161c-2.492 1.681-4.219 7.879-2.508 9 1.135.744 24.743 3.091 26.543 2.639 1.897-.476.955-5.211-1.531-7.697-3.105-3.105-19.49-5.975-22.504-3.942m262.124-.325c-11.532 1.485-16.191 4.323-16.191 9.862 0 2.641.375 2.661 17.489.932 10.753-1.087 10.581-1.027 10.581-3.663 0-6.262-3.29-8.237-11.879-7.131M76.208 176.424c-1.227 1.226-.482 6.637 1.044 7.59.813.507 7.791 1.306 11.455 1.31 3.574.004 3.956-.346 3.956-3.619 0-4.53.026-4.511-6.913-5.14-2.864-.26-6.027-.555-7.028-.655-1.583-.157-1.91-.091-2.514.514m236.727.002c-7.953.722-7.778.623-7.94 4.524-.193 4.641 1.147 5.106 11.25 3.905 4.599-.547 5.128-.91 5.609-3.847.607-3.706.092-5.306-1.679-5.213-.394.021-3.652.304-7.24.631m-253.286.279c0 1.152.877 2.451 2.022 2.994 1.685.8 6.482 1.846 7.969 1.738l1.333-.097.094-1.436c.149-2.279-.119-2.434-5.198-3.017-2.456-.282-4.86-.591-5.343-.687-.737-.146-.877-.066-.877.505m272.887.087c-5.709.663-5.901.761-5.901 3.003 0 2.055.46 2.188 4.625 1.339 4.762-.971 6.853-2.24 6.857-4.161.002-.814-.096-.817-5.581-.181M143.86 193.938l-11.324.232-4.625 1.133c-11.959 2.928-24.628 7.677-27.026 10.129-2.233 2.284-1.522 11.252 1.336 16.865 3.728 7.323 23.295 24.795 30.22 26.986 13.313 4.211 109.635 4.661 130.557.61 7.041-1.363 18.416-10.409 29.648-23.577 4.043-4.74 6.789-14.593 5.31-19.054-1.205-3.637-19.683-10.917-33.044-13.018-2.659-.418-103.216-.673-121.052-.306m106.539 3.188c16.193.312 14.969.16 24.88 3.077 9.217 2.713 18.251 6.373 19.25 7.799.857 1.224-.193 8.908-1.677 12.262-2.668 6.031-22.381 23.964-28.531 25.955-6.443 2.086-51.266 3.912-79.42 3.236-34.274-.823-49.097-1.992-53.695-4.234-5.623-2.741-22.307-18.287-25.833-24.07-1.409-2.312-3.094-11.176-2.41-12.678.993-2.18 13.972-7.104 27.021-10.251 5.247-1.265 77.453-1.923 120.415-1.096m-56.619 8.321c-18.779 2.562-16.028 13.573 3.556 14.236 20.234.686 27.537-9.904 9.539-13.829-2.736-.597-10.04-.824-13.095-.407m14.598 1.693c16.667 4.283 3.802 14.225-14.917 11.527-16.125-2.323-15.331-10.055 1.276-12.42 2.803-.399 10.601.111 13.641.893m-16.248.662c-1.128.49-1.699 1.334-1.699 2.51 0 1.4 1.841 1.61 2.852.325.831-1.057.65-1.287-.449-.567-1.024.671-1.832.188-1.25-.749.612-.985 1.951-1.418 3.661-1.183l1.583.218-1.186 1.324c-.653.729-1.579 1.468-2.06 1.644-1.249.456-1.571.893-.452.612l.945-.237-1.069 1.349c-1.27 1.604-2.332 2.356-3.118 2.207-.743-.141-.928-1.618-.271-2.163.764-.634.585-.998-.294-.598-1.695.772-1.634 4.016.078 4.13 1.977.131 2.891-.496 4.554-3.13 1.256-1.988 1.357-2.069 2.421-1.945 1.045.122 1.101.082.944-.686-.091-.448-.087-.636.008-.416.241.554.758.499.758-.08 0-.266-.283-.479-.638-.479-.351 0-.638.207-.638.46 0 .61-.615.967-1.001.581-.871-.872 1.866-2.314 3.469-1.828 1.86.565 3.499.588 4.525.065 1.503-.767 1.13-1.129-.997-.967-1.117.085-3.388-.072-5.115-.355-3.724-.608-4.25-.612-5.561-.042m16.222 3.705c-.605 1.059-.823 1.225-1.196.915-.584-.484-1.996.056-3.033 1.16-.795.846-1.89 1.033-1.89.323 0-.29.223-.39.634-.282.753.197 1.237-.715.676-1.276-.28-.28-.538-.264-1.064.065-.496.31-.73.33-.816.072-.193-.578-1.193-.421-1.833.287-.511.564-.625.585-.863.16-.461-.824-.881-.549-.881.576 0 1.137-.79 2.123-1.7 2.123-.799 0-.651-1.087.304-2.222.969-1.151.807-1.601-.312-.868-.92.603-3.041 4.138-2.153 3.589.157-.097.669.022 1.137.265 1.118.58 1.914.338 2.903-.882 2.4-2.961 3.231-3.281 1.763-.679-.92 1.629-.945 1.754-.358 1.754.38 0 .83-.382 1.127-.957.491-.949 1.117-1.286 1.117-.601 0 .205.328.294.775.208.601-.115.815.012.954.566.223.888.989 1.207 1.823.761.461-.247.76-.237 1.092.039.49.406 1.802-.233 2.603-1.268.75-.97.398-1.091-.545-.187-1.505 1.442-1.463.741.125-2.082 1.683-2.994 1.64-2.859.908-2.856-.317.001-.878.562-1.297 1.297m-1.572 2.499c-.511 1.452-1.995 2.175-1.995.972 0-.907 1.568-2.458 1.916-1.896.142.229.177.645.079.924M51.5 228.431c-1.83.889-1.612 2.257.452 2.828.637.176 5.087 1.398 9.888 2.715 15.098 4.143 14.515 3.775 20.743 13.094 3.747 5.607 4.371 6.435 4.647 6.159.62-.62-7.919-13.478-10.544-15.877-4.68-4.278-22.067-10.435-25.186-8.919m288.053.709c-11.232 3.325-17.524 6.561-20.649 10.623s-8.517 12.995-8.096 13.416c.244.244-.142.768 3.574-4.848 5.353-8.091 6.913-9.761 10.299-11.028 2.106-.788 12.298-3.686 17.903-5.092 5.109-1.281 6.066-2.061 4.263-3.48-1.193-.938-3.106-.83-7.294.409m-291.205 3.157c-1.384 2.112-1.881 20.184-.736 26.724 1.668 9.523 3.466 10.682 19.055 12.282 11.212 1.151 13.826.52 21.69-5.231 5.707-4.173 7.477-5.799 7.213-6.628-.544-1.717-7.619-3.856-27.766-8.394-6.636-1.495-6.879-1.518-6.879-.644 0 .848-.19.778 11.832 4.417 11.938 3.615 12.215 3.724 12.347 4.861.137 1.176-5.023 5.761-8.7 7.73-2.78 1.489-18.333.007-21.763-2.074-2.995-1.817-4.286-8.808-4.289-23.235-.001-9.099-.588-11.969-2.004-9.808m300.061-.323c-.882 1.11-1.13 2.995-.933 7.091.3 6.262-.384 16.282-1.438 21.063-1.194 5.416-3.047 6.369-14.905 7.673-8.443.929-10.238.322-16.801-5.676-3.376-3.086-2.909-3.348 15.812-8.876 6.414-1.894 6.698-2.016 6.698-2.861 0-.865.044-.871-9.695 1.303-22.87 5.104-26.875 6.685-23.898 9.438 5.042 4.662 12.434 9.487 15.849 10.346 3.911.983 22.656-.97 25.97-2.706 2.291-1.2 3.919-3.89 4.669-7.712 2.088-10.654 1.107-32.15-1.328-29.083m-292.881 4.519c-1.205 1.451-.726 6.894.7 7.959 1.474 1.1 6.763.942 7.774-.233.861-1.002 1.1-5.619.342-6.607-1.074-1.398-7.869-2.261-8.816-1.119m279.793-.075c-2.025.453-2.395 1.224-2.259 4.712.149 3.811.286 3.943 4.163 3.978 5.052.047 5.875-.787 5.627-5.701-.171-3.401-2.162-4.191-7.531-2.989m-204.38 29.447c-6.539 1.239-15.339 7.546-21.481 15.395l-1.061 1.356h1.423c1.354 0 1.519-.107 3.456-2.231 6.163-6.761 12.582-11.2 17.798-12.306 3.22-.682 132.483-.661 135.75.023 4.876 1.02 8.991 3.759 15.823 10.529 3.669 3.637 4.122 3.985 5.183 3.985 1.584 0 1.521-.158-1.339-3.392-5.952-6.727-12.418-11.494-17.753-13.086-2.551-.762-133.847-1.021-137.799-.273"/></g></svg>