<svg xmlns="http://www.w3.org/2000/svg" width="400" height="400" viewBox="0 0 400 400"><g fill-rule="evenodd"><path fill="#081625" d="M116.965 59.792c-2.145.765-3.189 2.15-5.18 6.87l-1.078 2.557h3.158c2.851 0 3.177-.061 3.355-.623.351-1.105 3.221-5.234 4.75-6.834 1.174-1.227 1.41-1.647 1.123-1.993-.48-.579-4.483-.563-6.128.023m158.864-.113c-.506.295-.377.539 1.227 2.303.986 1.085 2.519 3.158 3.407 4.605l1.613 2.632h5.953l-.651-1.675c-2.044-5.262-3.493-7.282-5.653-7.882-1.518-.421-5.161-.411-5.896.017m-117.775 3.505c-19.995.506-35.135 1.348-35.789 1.991-.21.206-1.16 1.667-2.11 3.246l-1.727 2.871-4.35.231c-5.342.285-6.105.087-5.845-1.515.21-1.296.23-1.289-1.329-.494-3.544 1.808-7.542 7.735-15.294 22.671-7.926 15.273-19.843 42.707-19.944 45.914l-.055 1.736-6.061 3.049c-7.017 3.53-7.195 3.646-15.618 10.209-9.381 7.309-8.823 6.629-14.007 17.078-4.578 9.225-4.927 10.099-5.742 14.359-2.905 15.172-2.06 63.774 1.56 89.697 1.042 7.467 4.728 13.342 9.884 15.752 2.928 1.369 6.86 1.689 30.638 2.49 8.811.296 9.428.446 9.739 2.361.248 1.526 1.495 2.839 3.6 3.791l1.637.741h111.802c88.429 0 112.076-.083 113.11-.398 2.583-.787 3.985-2.15 4.425-4.303.374-1.831.736-1.894 13.502-2.351 25.387-.908 26.643-1.126 30.864-5.35 3.537-3.538 5.168-7.433 6.053-14.449 3.845-30.493 4.09-81.918.44-92.526-.322-.935-2.493-5.518-4.824-10.184-4.72-9.445-4.923-9.72-10.3-13.974a3355 3355 0 0 1-6.061-4.807c-4.5-3.58-6.566-4.868-13.069-8.15l-6.07-3.063-.04-1.881c-.031-1.48-.381-2.698-1.641-5.709-.881-2.105-2.168-5.191-2.862-6.858-7.701-18.518-19.152-41.604-24.758-49.917-3.243-4.808-7.589-8.049-7.283-5.431.182 1.561-.525 1.748-5.771 1.528l-4.326-.181-1.669-2.819c-2.287-3.863-1.977-3.687-7.152-4.073-19.159-1.429-80.457-2.121-113.557-1.282m120.486 13.33c11.149.191 11.745.231 12.346.838 1.949 1.968 13.491 26.6 19.208 40.989 4.954 12.471 4.922 14.055-.309 15.377-1.433.363-10.188.393-202.129.707-23.548.038-24.312-.262-21.653-8.514 4.799-14.893 20.516-48.328 23.054-49.045 2.826-.797 128.226-1.058 169.483-.352M48.868 111.643c-9.495.825-13.251 3.971-13.999 11.722l-.193 1.994h.853c.469 0 3.756.215 7.303.478 8.627.64 24.252 1.444 24.438 1.258.316-.316-.515-11.503-.912-12.269-1.698-3.282-6.438-4.145-17.49-3.183m286.182.477c-2.63 1.311-3.025 2.346-3.421 8.977-.182 3.038-.228 5.626-.103 5.751.361.361 30.719-1.225 32.075-1.675.345-.114.399-.579.242-2.076-.966-9.248-5.639-11.739-22.074-11.765-4.829-.008-5.211.037-6.719.788M34.599 129.079c.762 5.103 2.523 6.212 11.062 6.965 3.044.268 6.434.569 7.532.669 2.339.212 2.407.269 4.372 3.62.829 1.413 1.613 2.635 1.742 2.715s2.376-.936 4.994-2.257c6.151-3.106 6.191-3.18 4.252-8.005l-1.319-3.28-1.48-.003c-3.594-.005-25.492-1.317-29.67-1.778l-1.715-.189zm324.572-1.138c-3.707.359-20.302 1.246-23.313 1.246-4.514 0-4.323-.142-6.038 4.489-1.475 3.983-1.425 4.062 4.451 7.035 2.7 1.366 5.021 2.414 5.157 2.33s.835-1.216 1.552-2.514c2.245-4.067 1.404-3.689 9.762-4.386 11.079-.924 13.213-2.056 13.213-7.005 0-1.776.342-1.691-4.784-1.195m-307.81 38.375c7.032.898 18.527 1.916 31.733 2.811 8.844.599 222.666.599 231.739 0 23.682-1.565 35.497-2.879 39.116-4.352 2.795-1.136 4.368.262 1.952 1.736-3.924 2.394-27.83 4.76-54.713 5.416-16.859.411-195.43.411-207.887 0-25.28-.835-47.525-3.249-51.017-5.538-2.386-1.563-.476-2.614 2.666-1.467 1.483.541 3.981 1.084 6.411 1.394m-6.786 2.741c1.802.685 9.678 2.235 11.356 2.235 1.975 0 2.442.669 2.442 3.501 0 3.99-.067 4.02-6.928 3.011-4.658-.685-4.994-.868-5.193-2.821-.158-1.55-.176-1.572-1.71-2.083-1.6-.533-2.437-1.319-2.437-2.286 0-.542.535-2.193.71-2.193.048 0 .84.286 1.76.636m311.341 1.172c.107 1.809-.077 2.04-2.085 2.614-1.397.399-1.557.652-1.75 2.753-.12 1.308-.825 1.572-6.285 2.355-5.707.819-5.497.941-5.376-3.119l.09-3.062 1.117-.226c.614-.125 3.217-.588 5.785-1.028s5.366-1.084 6.22-1.43c2.026-.821 2.172-.748 2.284 1.143m-315.2.758c.209.209.277 1.507.183 3.459-.141 2.934-.106 3.167.57 3.797 1.728 1.609 13.537 3.354 31.737 4.689 3.859.283 8.022.615 9.25.737l2.233.223-.091 10.526c-.118 13.659.309 24.306 1.063 26.475 1.442 4.154 13.412 13.759 18.647 14.963 6.728 1.547 150.785 1.96 184.049.527 7.873-.339 9.307-.918 16.404-6.619 9.23-7.415 8.837-6.183 9.083-28.488l.191-17.384 2.073-.226c1.141-.123 5.16-.452 8.932-.73 17.336-1.279 29.488-2.997 31.818-4.498.668-.43.718-.69.718-3.765 0-3.416.328-4.329 1.409-3.914 1.063.408 1.315 7.365.316 8.719-1.767 2.395-11.623 4.191-31.231 5.69-3.684.282-7.797.612-9.14.734l-2.441.222-.162 16.268c-.204 20.42-.177 20.295-5.431 25.256-7.444 7.03-12.879 10.328-18.047 10.953-10.428 1.262-145.443 1.508-179.771.329-12.107-.416-15.437-1.904-25.266-11.294-5.381-5.141-5.52-5.826-5.597-27.679l-.049-13.919-3.204-.212c-24.831-1.644-36.909-3.472-39.399-5.961-1.139-1.139-1.266-1.901-.908-5.462.347-3.463.974-4.503 2.061-3.416m25.472 2.062c3.363.295 3.349.286 3.349 2.053 0 2.196-.291 2.342-3.954 1.967-3.771-.386-3.701-.34-3.701-2.42 0-1.774.252-2.109 1.435-1.905.351.061 1.643.198 2.871.305m269.952-.098c.515.514.502 3.419-.016 3.616-.219.083-1.618.277-3.11.429-3.392.348-4.146.012-4.146-1.845 0-1.644.391-1.889 3.537-2.218 1.475-.154 2.833-.3 3.018-.323s.507.13.717.341m-254.322 1.502 1.276.206v3.491l-3.807-.071c-4.237-.078-4.551-.214-4.857-2.102-.349-2.15 1.348-2.501 7.388-1.524m9.897-.276c.356.575.242 50.421-.116 50.779-.216.216-.573.07-1.091-.448-1.499-1.498-1.707-49.421-.219-50.363.614-.388 1.174-.376 1.426.032m216.419-.021c.417.263.491 3.446.575 24.839l.096 24.536-.792.914c-1.509 1.742-1.501 1.877-1.521-24.85-.021-27.357-.075-26.524 1.642-25.439m15.619.305c1.292 2.414.079 3.396-4.57 3.702-3.927.258-4.019.213-4.027-1.988-.006-1.68.193-1.795 3.504-2.034 4.752-.344 4.737-.345 5.093.32m-221.301 29.048.02 29.186-.657.1c-1.582.238-1.606-.026-1.818-19.398-.197-18.034.113-38.069.601-38.854.143-.229.614-.373 1.047-.319l.787.098zm10.314-29.017c.431.698.155 59.452-.281 59.89-.467.467-1.348.234-1.6-.423-.831-2.165-.412-58.947.439-59.484.629-.398 1.189-.391 1.442.017m10.242.056c.502.812.219 59.71-.289 60.03-.952.6-1.445-.022-1.665-2.101-.441-4.166-.04-57.213.436-57.787.516-.621 1.183-.683 1.518-.142m10.293.054c.574.692.425 59.709-.152 60.187-1.212 1.007-1.658.122-1.902-3.78-.411-6.547.011-55.79.483-56.358.503-.606 1.093-.624 1.571-.049m10.202-.006c.263.316.338 8.519.279 30.383l-.082 29.949h-1.914l-.256-5.263c-.542-11.136-.08-54.584.586-55.071.738-.54.938-.54 1.387.002m10.167-.169c.719.456.409 60.324-.315 60.78-.428.27-.678.222-1.116-.216-.873-.873-.765-59.776.111-60.417.653-.477.779-.491 1.32-.147m10.253.176c.253.305.339 2.289.279 6.459l-.087 6.019h-1.914l-.087-6.059c-.078-5.417-.029-6.102.46-6.46.695-.508.899-.502 1.349.041m10.297-.02c.331.331.387 1.712.262 6.46l-.16 6.038h-1.914l-.036-6.001c-.041-6.661.34-8.001 1.848-6.497m10.256-.02c.83.606.661 11.949-.186 12.482-.407.257-.708.256-1.116-.005-.722-.461-.734-12.149-.012-12.607.55-.349.676-.337 1.314.13m10.207-.001c.983.719.645 12.481-.362 12.624-1.635.231-1.736-.209-1.49-6.468.252-6.401.48-7.159 1.852-6.156m10.389.041c.253.305.338 2.289.278 6.459l-.087 6.019h-1.914l-.087-6.019c-.087-6.022.046-6.899 1.044-6.899.22 0 .565.198.766.44m10.026-.041c.489.358.537 1.043.46 6.46l-.088 6.059h-1.913l-.087-6.019c-.098-6.75.116-7.605 1.628-6.5m10.388.041c.253.305.339 2.289.279 6.459l-.087 6.019h-1.914l-.087-6.019c-.087-6.022.046-6.899 1.044-6.899.22 0 .565.198.765.44m10.208 0c.253.305.338 2.289.278 6.459l-.087 6.019h-1.914l-.087-6.019c-.087-6.022.046-6.899 1.044-6.899.22 0 .565.198.766.44m10.175-.058c.293.293.383 7.488.383 30.441v30.059l-.693.22c-1.575.499-1.54 1.191-1.54-30.637 0-30.192.01-30.465 1.117-30.465.193 0 .523.172.733.382m10.262-.076c.648.41.968 59.369.327 60.141-.552.666-1.508.596-1.901-.139-.506-.946-.455-59.418.052-59.926.457-.456.887-.477 1.522-.076m10.217.006c.632.4.952 58.792.327 59.959-.791 1.478-1.738.725-1.986-1.579-.515-4.78-.194-58.056.352-58.375.64-.374.722-.375 1.307-.005m10.207 0c.755.477.899 59.35.147 60.101-.386.387-.66.43-1.126.181-.576-.308-1.118-46.413-.678-57.714.104-2.665.509-3.293 1.657-2.568m10.463.07c.794.795.524 59.487-.276 59.916-1.629.872-1.575 1.918-1.575-30.167 0-23.509.084-29.793.399-29.92.674-.272 1.053-.227 1.452.171m10.63.145c.364.439.437 5.317.434 28.899l-.004 28.372-.729.59c-1.727 1.399-1.655 2.658-1.655-28.864 0-16.004.095-29.195.212-29.312.386-.386 1.297-.221 1.742.315m-224.385 2.539c2.019.541.973 2.49-1.224 2.279-1.877-.18-2.335-.548-2.057-1.654.214-.854 1.509-1.101 3.281-.625m255.428.86c.406 1.162-.082 1.485-2.258 1.491-1.359.004-1.665-.101-1.801-.618-.496-1.897 3.407-2.737 4.059-.873m-157.399 16.306c0 5.186.063 5.126-5.459 5.211-3.766.058-3.996.024-4.901-.72-1.456-1.196-.8-1.499 2.982-1.38l3.233.102-.001-3.376c-.001-3.956-.094-3.801 2.285-3.801h1.861zm9.066-3.152c.297 1.183.008 1.42-1.726 1.42h-1.553l-.369 1.835c-.978 4.868-1.048 5.024-2.25 5.017-.781-.004-1.076-.141-1.03-.478.482-3.495 1.516-7.88 1.937-8.208 1.056-.821 4.758-.515 4.991.414m2.951 3.628c.392 2.355.639 4.4.549 4.545-.366.592-1.708.267-1.871-.453-.17-.749-1.445-8.193-1.445-8.434 0-.077.463-.094 1.028-.039l1.027.1zm5.456.105-.089 4.546h-2.233l-.089-4.13c-.107-4.908-.092-4.961 1.364-4.961h1.135zm8.364-3.429v1.116h-7.974v-2.232h7.974zm4.785 3.331c0 4.924-.165 5.325-1.599 3.892-1.898-1.899-1.139-8.339.984-8.339.578 0 .615.268.615 4.447m8.553-3.251.1 1.036h-8.334v-2.251l4.067.089 4.067.089zm7.396-.098c0 1.064-.042 1.101-1.356 1.196l-1.355.098v4.466l1.355.098c1.324.096 1.356.124 1.356 1.24v1.143l-1.944-.177c-3.023-.274-3.479-.869-3.479-4.55 0-3.992.454-4.612 3.373-4.612h2.05zm5.003-.405c1.153 1.083 1.112 6.466-.059 7.729-1.285 1.387-4.421 1.134-4.566-.368-.097-1.008-.065-1.037 1.133-1.037 2.904 0 2.985-4.562.085-4.838-1.131-.108-1.54-.717-1.155-1.72.303-.788 3.657-.616 4.562.234m8.394.405c0 1.064-.042 1.101-1.356 1.196l-1.355.098v4.466l1.355.098c1.314.095 1.356.132 1.356 1.196v1.098h-1.73c-2.96 0-3.693-.903-3.693-4.556 0-3.821.664-4.694 3.569-4.694h1.854zm5.003-.405c1.195 1.122 1.12 6.935-.102 7.896-1.187.933-3.776.932-4.276-.002-.534-.998-.15-1.57 1.056-1.57 1.454 0 1.828-.49 1.828-2.392 0-1.9-.375-2.393-1.818-2.393-.991 0-1.053-.066-1.053-1.116v-1.116h1.813c1.424 0 1.973.149 2.552.693m-39.772 3.932v1.116h-7.336v-2.233h7.336zm.638 3.509v1.116l-3.269-.004c-4.234-.006-4.705-.137-4.705-1.309v-.92h7.974zm13.338-.08-.1 1.037-4.067.089-4.067.089v-2.252h8.334zm-46.352 20.46c0 14.504-.047 15.943-.532 16.249-1.511.954-1.542.637-1.542-16.201 0-16.46-.019-16.207 1.264-16.057l.81.094zm10.367.044c0 14.629-.049 16.137-.522 16.319-1.552.595-1.546.654-1.635-16.044-.092-17.25-.154-16.393 1.19-16.393h.967zm10.252-1.716c.137 17.302.1 17.974-1.002 17.974-1.15 0-1.216-.928-1.248-17.57-.03-15.247-.067-14.806 1.267-14.806h.869zm10.405 1.51c.087 16.578.072 16.76-1.331 16.559-.936-.133-1.053-2.077-1.103-18.463-.044-14.483-.084-14.087 1.382-13.944l.969.095zm10.207 0c.087 16.578.072 16.76-1.331 16.559-.853-.122-1.052-3.736-1.107-20.085-.041-12.638-.061-12.462 1.359-12.324l.996.097zm10.207 0c.087 16.578.073 16.76-1.331 16.559-.936-.133-1.563-19.865-.934-29.378l.208-3.126.987.096.987.096zm10.213-.282c.099 17.201.113 16.99-1.136 16.846l-.866-.1-.083-15.789c-.091-17.312-.134-16.673 1.118-16.529l.879.101zm10.119.633c0 15.248-.03 16.11-.573 16.215-1.507.29-1.5.365-1.5-16.356 0-16.46-.02-16.207 1.264-16.057l.809.094zm120.835-13.068c2.83.874 4.666 2.857 5.523 5.968 1.003 3.639.898 41.894-.122 44.425-1.858 4.611-7.578 12.915-9.761 14.169-1.902 1.093-10.52 2.092-22.701 2.632-5.64.25-5.21.467-11.761-5.959-7.197-7.061-8.57-8.057-12.537-9.09-2.813-.733-209.553-.72-212.367.013-3.399.886-4.818 1.932-11.509 8.485-8.056 7.891-5.941 7.278-21.517 6.239-14.833-.99-14.289-.768-18.872-7.695-5.729-8.657-5.67-8.336-5.67-30.963 0-30.693-1.244-29.441 27.891-28.069 5.439.257 10.207.469 10.595.472 1.005.008 1.592 1.193.923 1.862-.462.463-1.785.457-15.262-.063-19.923-.769-20.482-.598-21.303 6.545-.371 3.229-.39 35.244-.022 38.411.615 5.3 7.666 15.78 10.922 16.234 2.055.287 19.884 1.45 22.226 1.45h2.017l6.102-5.946c7.881-7.681 9.835-8.936 15.037-9.66 3.238-.45 204.745-.473 209.01-.023 5.685.599 7.755 1.882 15.736 9.756 2.895 2.856 5.659 5.343 6.142 5.526 1.469.556 23.901-1.251 25.446-2.05 1.513-.782 7.201-9.1 8.647-12.645 1.188-2.914 1.658-37.787.574-42.624-.635-2.835-2.481-4.955-4.673-5.366-1.398-.262-16.818.057-25.106.52-6.352.355-6.883.293-6.883-.808 0-1.139.132-1.165 8.411-1.626 16.641-.925 22.17-.952 24.864-.12m-6.019 5.404c.885.734.229.901-4.432 1.134-5.878.294-5.462-.204-5.713 6.824-.211 5.896-.251 6.099-1.098 5.566-.552-.348-1.005-10.614-.549-12.466.398-1.621 10.069-2.489 11.792-1.058m-305.406-.183c0 .068-.214.534-.476 1.037-.379.727-.477 2.305-.479 7.716l-.002 6.803.882.882c.989.989.396.919 20.137 2.384 7.782.578 9.105.75 9.404 1.225 1.125 1.787-2.407 1.756-24.573-.218-7.545-.672-7.763-.956-7.763-10.153-.001-6.776.242-8.105 1.686-9.233.667-.522 1.184-.715 1.184-.443m13.652.524c.998.929 1.077 1.535.963 7.39-.076 3.938-.215 5.401-.55 5.804-.853 1.026-1.103-.052-1.285-5.532-.226-6.788.181-6.314-5.781-6.737-7.44-.528-6.703-1.518 1.155-1.552 4.401-.018 4.862.035 5.498.627m295.771.004c1.127 1.127 1.263 2.093 1.263 8.955 0 10.401 1.543 9.459-17.942 10.961-12.376.954-13.73.983-14.288.31-1.039-1.251-.027-1.447 12.343-2.398 17.172-1.319 16.376-1.223 17.233-2.08.939-.939 1.173-14.109.272-15.301-.933-1.233-.028-1.594 1.119-.447M70.75 234.195c1.437 1.437.739 1.535-12.355 1.723-6.416.092-11.985.232-12.376.311-1.509.305-1.724 1.496-1.619 8.951l.098 6.867.983.878.983.878 6.832.213c3.757.117 11.043.307 16.191.423 10.33.232 11.131.388 10.27 1.998l-.392.733-7.067-.211c-26.652-.796-26.721-.801-28.24-2.196-1.489-1.366-1.634-2.249-1.634-9.946 0-10.773-.277-10.446 9.076-10.702 12.769-.35 18.845-.325 19.25.08m282.649.034c2.299.805 2.412 1.247 2.512 9.892.143 12.318 2.198 11.335-25.846 12.366-10.984.404-11.493.363-11.345-.916.142-1.232.289-1.248 17.484-1.841 10.805-.373 15.443-.644 16.168-.946 1.55-.643 1.757-1.828 1.638-9.352-.136-8.637 1.509-7.706-13.633-7.706-12.627 0-13.504-.094-13.007-1.39.259-.673 24.134-.772 26.029-.107M58.926 237.73l.883.883v5.03c0 4.351-.08 5.152-.588 5.927-.92 1.403-1.1.711-1.217-4.662-.135-6.174.003-5.97-4.311-6.371-6.239-.579-7.489-1.221-3.059-1.572 5.211-.412 7.311-.218 8.292.765m290.955-.759c.908.575-.038.899-3.225 1.105-6.212.401-5.949.115-6.003 6.524-.04 4.675-.221 5.764-.893 5.35-1.304-.807-1.489-11.217-.221-12.484.824-.825 9.19-1.225 10.342-.495m-45.415 30.112c2.723 1.272 4.955 3.634 12.388 13.106 2.869 3.656 3.172 5.052 1.384 6.382l-.9.67H199.245c-112.255 0-118.135-.028-118.951-.562-2.16-1.416-1.733-2.533 3.405-8.922 7.52-9.35 8.079-9.895 11.379-11.083 1.707-.615 3.214-.623 104.603-.555l102.871.069zm-205.263 1.476c-5.114.367-5.423.598-12.458 9.313-3.96 4.906-5.069 6.473-4.731 6.687.596.377 43.026.376 43.026-.001 0-.16-.693-1.846-1.54-3.748a972 972 0 0 1-3.406-7.764c-1.026-2.368-1.913-4.367-1.971-4.441-.184-.236-15.756-.274-18.92-.046m25.455.022-3.732.159 3.039 7.018c1.672 3.859 3.245 7.484 3.497 8.054l.457 1.036h51.904l.191-1.196c.426-2.676 1.526-14.818 1.357-14.987-.226-.226-51.602-.303-56.713-.084m60.623-.07c-1.1.098-1.173.176-1.355 1.442-.255 1.771-1.47 13.619-1.47 14.336 0 .526 1.001.559 16.947.559h16.946l-.182-1.196c-.1-.658-.506-4.318-.9-8.134l-.718-6.937-1.134-.003c-.624-.002-6.948-.041-14.053-.088s-13.442-.037-14.081.021m36.076-.002-4.32.089.816 8.045.817 8.046h52.168l2.251-5.104a560 560 0 0 0 3.481-8.054l1.23-2.95-12.026-.033c-6.614-.018-18.342-.054-26.061-.08s-15.979-.007-18.356.041m65.229-.002-6.078.087-3.241 7.569c-1.783 4.163-3.333 7.82-3.446 8.127-.223.608 42.677.9 43.052.293.2-.323-7.785-10.344-10.259-12.876-3.117-3.188-4.563-3.419-20.028-3.2M30.628 281.898c.14 19.393 1.466 42.848 2.561 45.325 1.823 4.121 1.351 4.037 22.792 4.037 25.729 0 23.757 1.717 23.991-20.893.12-11.548.068-14.292-.279-14.715-.37-.452-1.98-.57-12.069-.891-14.581-.463-21.28-.878-23.891-1.48-4.809-1.109-9.018-4.587-11.517-9.514-1.549-3.055-1.597-3.111-1.588-1.869m336.535.184c-.58 1.759-3.413 5.795-5.186 7.389-4.532 4.074-7.399 4.56-31.196 5.282-6.228.189-11.49.397-11.694.462-.675.215-.788 3.997-.515 17.245l.269 13.097.946 1.895c1.976 3.955 2.459 4.033 24.09 3.905 18.661-.111 18.377-.078 20.38-2.358 2.086-2.376 2.744-9.816 3.405-38.489.218-9.473.162-10.428-.499-8.428"/><path fill="#fbfbfb" d="M0 200v200h400V0H0zM123.093 59.769c.287.346.051.766-1.123 1.993-1.529 1.6-4.399 5.729-4.75 6.834-.178.562-.504.623-3.355.623h-3.158l1.078-2.557c1.991-4.72 3.035-6.105 5.18-6.87 1.645-.586 5.648-.602 6.128-.023m158.632-.107c2.16.6 3.609 2.62 5.653 7.882l.651 1.675h-5.953l-1.613-2.632c-.888-1.447-2.421-3.52-3.407-4.605-1.604-1.764-1.733-2.008-1.227-2.303.735-.428 4.378-.438 5.896-.017m-42.491 3.494c23.573.592 36.485 1.32 37.351 2.103.28.253 1.26 1.729 2.178 3.28l1.669 2.819 4.326.181c5.246.22 5.953.033 5.771-1.528-.306-2.618 4.04.623 7.283 5.431 5.606 8.313 17.057 31.399 24.758 49.917.694 1.667 1.981 4.753 2.862 6.858 1.26 3.011 1.61 4.229 1.641 5.709l.04 1.881 6.07 3.063c6.503 3.282 8.569 4.57 13.069 8.15 1.579 1.256 4.306 3.419 6.061 4.807 5.377 4.254 5.58 4.529 10.3 13.974 2.331 4.666 4.502 9.249 4.824 10.184 3.65 10.608 3.405 62.033-.44 92.526-.885 7.016-2.516 10.911-6.053 14.449-4.221 4.224-5.477 4.442-30.864 5.35-12.766.457-13.128.52-13.502 2.351-.44 2.153-1.842 3.516-4.425 4.303-1.034.315-24.681.398-113.11.398H87.241l-1.637-.741c-2.105-.952-3.352-2.265-3.6-3.791-.311-1.915-.928-2.065-9.739-2.361-23.778-.801-27.71-1.121-30.638-2.49-5.156-2.41-8.842-8.285-9.884-15.752-3.62-25.923-4.465-74.525-1.56-89.697.815-4.26 1.164-5.134 5.742-14.359 5.184-10.449 4.626-9.769 14.007-17.078 8.423-6.563 8.601-6.679 15.618-10.209l6.061-3.049.055-1.736c.101-3.207 12.018-30.641 19.944-45.914 7.752-14.936 11.75-20.863 15.294-22.671 1.559-.795 1.539-.802 1.329.494-.26 1.602.503 1.8 5.845 1.515l4.35-.231 1.727-2.871c.95-1.579 1.9-3.04 2.11-3.246 1.738-1.708 77.411-3.014 116.969-2.019M138.118 76.255c-17.041.175-28.359.413-29.061.611-2.538.717-18.255 34.152-23.054 49.045-2.659 8.252-1.895 8.552 21.653 8.514 191.941-.314 200.696-.344 202.129-.707 5.231-1.322 5.263-2.906.309-15.377-5.717-14.389-17.259-39.021-19.208-40.989-1.044-1.054-92.734-1.712-152.768-1.097M63.636 112.02c1.096.594 2.129 1.66 2.722 2.806.397.766 1.228 11.953.912 12.269-.186.186-15.811-.618-24.438-1.258-3.547-.263-6.834-.478-7.303-.478h-.853l.193-1.994c.748-7.751 4.504-10.897 13.999-11.722 5.118-.446 13.655-.228 14.768.377m286.331-.38c9.68.942 13.07 3.74 13.876 11.457.157 1.497.103 1.962-.242 2.076-1.356.45-31.714 2.036-32.075 1.675-.583-.583.415-11.242 1.18-12.603 1.602-2.851 6.75-3.628 17.261-2.605M42.265 128.236c5.661.408 21.534 1.265 23.489 1.267l1.48.003 1.319 3.28c1.939 4.825 1.899 4.899-4.252 8.005-2.618 1.321-4.865 2.337-4.994 2.257s-.913-1.302-1.742-2.715c-1.965-3.351-2.033-3.408-4.372-3.62-1.098-.1-4.488-.401-7.532-.669-8.539-.753-10.3-1.862-11.062-6.965l-.23-1.543 1.715.189c.943.104 3.725.334 6.181.511m321.69.9c0 4.949-2.134 6.081-13.213 7.005-8.358.697-7.517.319-9.762 4.386-.717 1.298-1.415 2.43-1.552 2.514-.136.084-2.457-.964-5.157-2.33-5.876-2.973-5.926-3.052-4.451-7.035 1.715-4.631 1.524-4.489 6.038-4.489 3.011 0 19.606-.887 23.313-1.246 5.126-.496 4.784-.581 4.784 1.195M41.994 164.33c-5.472 3.063 17.646 6.486 51.307 7.597 12.457.411 191.028.411 207.887 0 26.883-.656 50.789-3.022 54.713-5.416 2.416-1.474.843-2.872-1.952-1.736-3.619 1.473-15.434 2.787-39.116 4.352-9.073.599-222.895.599-231.739 0-22.687-1.538-34.361-2.825-38.144-4.205-1.69-.617-2.589-.797-2.956-.592m.422 4.909c-.716 1.885-.119 2.912 2.126 3.661 1.534.511 1.552.533 1.71 2.083.199 1.953.535 2.136 5.193 2.821 6.861 1.009 6.928.979 6.928-3.011 0-2.832-.467-3.501-2.442-3.501-1.678 0-9.554-1.55-11.356-2.235-.92-.35-1.712-.636-1.76-.636s-.228.368-.399.818m311.216-.153c-.854.346-3.653.989-6.22 1.43-2.568.44-5.171.903-5.785 1.028l-1.117.226-.09 3.062c-.121 4.06-.331 3.938 5.376 3.119 5.46-.783 6.165-1.047 6.285-2.355.193-2.101.353-2.354 1.75-2.753 2.008-.574 2.192-.805 2.085-2.614-.112-1.891-.258-1.964-2.284-1.143m-314.342 1.98c-.407.49-.996 5.908-.771 7.087.725 3.792 10.851 5.713 40.443 7.673l3.204.212.049 13.919c.077 21.853.216 22.538 5.597 27.679 9.829 9.39 13.159 10.878 25.266 11.294 34.328 1.179 169.343.933 179.771-.329 5.168-.625 10.603-3.923 18.047-10.953 5.254-4.961 5.227-4.836 5.431-25.256l.162-16.268 2.441-.222c1.343-.122 5.456-.452 9.14-.734 19.608-1.499 29.464-3.295 31.231-5.69.999-1.354.747-8.311-.316-8.719-1.081-.415-1.409.498-1.409 3.914 0 3.075-.05 3.335-.718 3.765-2.33 1.501-14.482 3.219-31.818 4.498-3.772.278-7.791.607-8.932.73l-2.073.226-.191 17.384c-.246 22.305.147 21.073-9.083 28.488-7.097 5.701-8.531 6.28-16.404 6.619-33.264 1.433-177.321 1.02-184.049-.527-5.235-1.204-17.205-10.809-18.647-14.963-.754-2.169-1.181-12.816-1.063-26.475l.091-10.526-2.233-.223c-1.228-.122-5.391-.454-9.25-.737-18.2-1.335-30.009-3.08-31.737-4.689-.676-.63-.711-.863-.57-3.797.17-3.527-.434-4.796-1.609-3.38m22.991 1.721c-.485.186-.552 3.476-.077 3.77.177.109 1.698.34 3.379.512 3.663.375 3.954.229 3.954-1.967 0-1.767.014-1.758-3.349-2.053-1.228-.107-2.52-.244-2.871-.305-.35-.06-.817-.041-1.036.043m270.124.146c-3.146.329-3.537.574-3.537 2.218 0 1.857.754 2.193 4.146 1.845 3.585-.367 3.509-.321 3.509-2.122 0-1.496-.415-2.351-1.1-2.264-.185.023-1.543.169-3.018.323m-257.767 1.393c-.478.576-.219 2.622.412 3.253.303.303 1.548.45 4.237.5l3.807.071v-3.491l-1.276-.206c-3.417-.553-6.778-.612-7.18-.127m15.651-.181c-1.488.942-1.28 48.865.219 50.363.518.518.875.664 1.091.448.358-.358.472-50.204.116-50.779-.252-.408-.812-.42-1.426-.032m216.395.041c-.388.628-.21 50.439.182 50.824.259.254.571.1 1.147-.565l.792-.914-.096-24.536c-.084-21.393-.158-24.576-.575-24.839-.635-.402-1.19-.39-1.45.03m11.976-.045c-3.311.239-3.51.354-3.504 2.034.008 2.201.1 2.246 4.027 1.988 4.649-.306 5.862-1.288 4.57-3.702-.356-.665-.341-.664-5.093-.32m-218.062.402c-.488.785-.798 20.82-.601 38.854.212 19.372.236 19.636 1.818 19.398l.657-.1-.02-29.186-.02-29.187-.787-.098c-.433-.054-.904.09-1.047.319m10.726-.068c-.851.537-1.27 57.319-.439 59.484.252.657 1.133.89 1.6.423.436-.438.712-59.192.281-59.89-.253-.408-.813-.415-1.442-.017m10.166.215c-.476.574-.877 53.621-.436 57.787.22 2.079.713 2.701 1.665 2.101.508-.32.791-59.218.289-60.03-.335-.541-1.002-.479-1.518.142m10.24-.039c-.472.568-.894 49.811-.483 56.358.244 3.902.69 4.787 1.902 3.78.577-.478.726-59.495.152-60.187-.478-.575-1.068-.557-1.571.049m10.386-.057c-.666.487-1.128 43.935-.586 55.071l.256 5.263h1.914l.082-29.949c.088-32.415.127-31.696-1.666-30.385m10.234-.02c-.876.641-.984 59.544-.111 60.417 1.71 1.711 1.661 2.561 1.75-30.221.088-32.53.144-31.499-1.639-30.196m10.224-.012c-.489.358-.538 1.043-.46 6.46l.087 6.059h1.914l.087-6.019c.097-6.75-.117-7.605-1.628-6.5m10.219.059c-.368.368-.451 1.632-.421 6.459l.036 6.001h1.914l.16-6.038c.177-6.724-.148-7.963-1.689-6.422m10.369-.188c-.722.458-.71 12.146.012 12.607.408.261.709.262 1.116.005.847-.533 1.016-11.876.186-12.482-.638-.467-.764-.479-1.314-.13m10.216.128c-.176.22-.422 2.99-.547 6.157-.246 6.259-.145 6.699 1.49 6.468 1.007-.143 1.345-11.905.362-12.624-.685-.5-.903-.501-1.305-.001m10.163.042c-.253.305-.339 2.289-.279 6.459l.087 6.019h1.914l.087-6.019c.087-6.022-.046-6.899-1.044-6.899-.22 0-.564.198-.765.44m10.207 0c-.253.305-.339 2.289-.278 6.459l.087 6.019h1.913l.088-6.059c.077-5.417.029-6.102-.46-6.46-.695-.508-.9-.502-1.35.041m10.207 0c-.253.305-.338 2.289-.278 6.459l.087 6.019h1.914l.087-6.019c.087-6.022-.046-6.899-1.044-6.899-.22 0-.565.198-.766.44m10.208 0c-.253.305-.339 2.289-.279 6.459l.087 6.019h1.914l.087-6.019c.087-6.022-.046-6.899-1.044-6.899-.22 0-.564.198-.765.44m10.239-.058c-.292.293-.383 7.408-.383 30.083 0 31.828-.035 31.136 1.54 30.637l.693-.22v-30.059c0-30.559-.01-30.823-1.116-30.823-.193 0-.524.172-.734.382m10.207 0c-.507.508-.558 58.98-.052 59.926.393.735 1.349.805 1.901.139.641-.772.321-59.731-.327-60.141-.635-.401-1.065-.38-1.522.076m10.432-.065c-.546.319-.867 53.595-.352 58.375.248 2.304 1.195 3.057 1.986 1.579.625-1.167.305-59.559-.327-59.959-.585-.37-.667-.369-1.307.005m10.333-.064c-.934.594-.736 59.839.202 60.341.466.249.74.206 1.126-.181.752-.751.608-59.624-.147-60.101-.579-.366-.689-.371-1.181-.059m10.192-.042c-.315.127-.399 6.411-.399 29.92 0 32.085-.054 31.039 1.575 30.167.658-.352.658-.374.658-29.943 0-32.135.075-30.914-1.834-30.144m10.34.001c-.117.117-.212 13.308-.212 29.312 0 31.522-.072 30.263 1.655 28.864l.729-.59.004-28.372c.003-23.582-.07-28.46-.434-28.899-.445-.536-1.356-.701-1.742-.315m-225.924 3.479c-.278 1.106.18 1.474 2.057 1.654 1.673.161 2.531-.501 2.1-1.623-.451-1.175-3.864-1.201-4.157-.031m255.696-.607c-1.926.719-1.401 2.34.755 2.333 2.176-.006 2.664-.329 2.258-1.491-.318-.909-1.757-1.311-3.013-.842m-158.32 13.396c-.117.117-.213 1.732-.212 3.589l.001 3.376-3.233-.102c-3.782-.119-4.438.184-2.982 1.38.905.744 1.135.778 4.901.72 5.522-.085 5.459-.025 5.459-5.211v-3.964h-1.861c-1.023 0-1.956.095-2.073.212m8.009.186c-.421.328-1.455 4.713-1.937 8.208-.046.337.249.474 1.03.478 1.202.007 1.272-.149 2.25-5.017l.369-1.835h1.553c1.734 0 2.023-.237 1.726-1.42-.233-.929-3.935-1.235-4.991-.414m5.175-.3c0 .241 1.275 7.685 1.445 8.434.163.72 1.505 1.045 1.871.453.09-.145-.157-2.19-.549-4.545l-.712-4.281-1.027-.1c-.565-.055-1.028-.038-1.028.039m5.881.317c-.087.229-.119 2.274-.069 4.546l.089 4.13h2.233l.089-4.546.088-4.545h-1.135c-.638 0-1.205.181-1.295.415m2.732.701v1.116h7.974v-2.232h-7.974zm10.868-.276c-1.156 1.47-.97 6.236.292 7.499 1.434 1.433 1.599 1.032 1.599-3.892 0-4.894-.351-5.564-1.891-3.607m2.21.267v1.125h8.334l-.1-1.036-.1-1.037-4.067-.089-4.067-.089zm10.868-.267c-.56.712-.661 1.289-.661 3.772 0 3.681.456 4.276 3.479 4.55l1.944.177v-1.143c0-1.116-.032-1.144-1.356-1.24l-1.355-.098v-4.466l1.355-.098c1.314-.095 1.356-.132 1.356-1.196v-1.098h-2.05c-1.835 0-2.12.088-2.712.84m5.203-.381c-.385 1.003.024 1.612 1.155 1.72 1.598.152 1.913.551 1.913 2.421 0 1.975-.366 2.417-1.998 2.417-1.198 0-1.23.029-1.133 1.037.145 1.502 3.281 1.755 4.566.368 1.171-1.263 1.212-6.646.059-7.729-.905-.85-4.259-1.022-4.562-.234m8.39.435c-.801.837-.857 1.082-.857 3.8 0 3.653.733 4.556 3.693 4.556h1.73v-1.098c0-1.064-.042-1.101-1.356-1.196l-1.355-.098v-4.466l1.355-.098c1.314-.095 1.356-.132 1.356-1.196v-1.098h-1.854c-1.615 0-1.965.115-2.712.894m5.204.222c0 1.05.062 1.116 1.053 1.116 1.443 0 1.818.493 1.818 2.393 0 1.902-.374 2.392-1.828 2.392-1.206 0-1.59.572-1.056 1.57.5.934 3.089.935 4.276.002.81-.637.841-.778.841-3.932 0-4.092-.4-4.657-3.291-4.657h-1.813zm-42.743 3.509v1.116h7.336v-2.233h-7.336zm0 3.312c0 1.172.471 1.303 4.705 1.309l3.269.004v-2.233h-7.974zm13.078.206v1.126l4.067-.089 4.067-.089.1-1.037.1-1.037h-8.334zm-39.964 4.495c-.528.528-.259 31.596.278 32.041 1.536 1.275 1.568.945 1.568-16.165V203.03l-.81-.094c-.445-.052-.911.008-1.036.133m10.126.201c-.474 1.237.028 31.598.528 31.914 1.571.99 1.559 1.117 1.559-16.195v-16.118h-.967c-.532 0-1.036.179-1.12.399m10.274-.187c-.275.275-.224 28.465.054 30.569.19 1.433.293 1.595 1.009 1.595 1.102 0 1.139-.672 1.002-17.974l-.114-14.402h-.869c-.478 0-.965.096-1.082.212m10.222-.015c-.274.274-.227 26.387.053 29.787.174 2.107.277 2.404.864 2.487 1.403.201 1.418.019 1.331-16.559l-.083-15.753-.969-.095c-.532-.052-1.07.008-1.196.133m10.18.29c-.252.657-.193 21.814.077 27.583.189 4.048.241 4.312.867 4.401 1.403.201 1.418.019 1.331-16.559l-.083-15.753-.996-.097c-.691-.067-1.057.063-1.196.425m10.217 2.606c-.629 9.513-.002 29.245.934 29.378 1.404.201 1.418.019 1.331-16.559l-.083-15.753-.987-.096-.987-.096zm10.471-2.716c-.089.231-.124 7.526-.078 16.21l.083 15.789.866.1c1.249.144 1.235.355 1.136-16.846l-.088-15.471-.879-.101c-.513-.059-.946.074-1.04.319m10.28-.179c-.492.492-.263 31.592.236 32.006 1.619 1.344 1.61 1.433 1.61-15.941V203.03l-.809-.094c-.445-.052-.912.008-1.037.133m108.385 2.587c-6.607.235-18.293.975-18.623 1.179-.58.359-.42 1.714.227 1.92.321.101 3.156.041 6.3-.135 8.288-.463 23.708-.782 25.106-.52 2.192.411 4.038 2.531 4.673 5.366 1.084 4.837.614 39.71-.574 42.624-1.446 3.545-7.134 11.863-8.647 12.645-1.545.799-23.977 2.606-25.446 2.05-.483-.183-3.247-2.67-6.142-5.526-7.981-7.874-10.051-9.157-15.736-9.756-4.265-.45-205.772-.427-209.01.023-5.202.724-7.156 1.979-15.037 9.66l-6.102 5.946h-2.017c-2.342 0-20.171-1.163-22.226-1.45-3.256-.454-10.307-10.934-10.922-16.234-.368-3.167-.349-35.182.022-38.411.821-7.143 1.38-7.314 21.303-6.545 13.477.52 14.8.526 15.262.063.669-.669.082-1.854-.923-1.862-.388-.003-5.156-.215-10.595-.472-29.135-1.372-27.891-2.624-27.891 28.069 0 22.627-.059 22.306 5.67 30.963 4.583 6.927 4.039 6.705 18.872 7.695 15.576 1.039 13.461 1.652 21.517-6.239 6.691-6.553 8.11-7.599 11.509-8.485 2.814-.733 209.554-.746 212.367-.013 3.967 1.033 5.34 2.029 12.537 9.09 7.17 7.035 5.526 6.68 23.729 5.118 11.817-1.015 11.977-1.112 17.788-10.854 3.717-6.232 3.412-3.814 3.419-27.115.008-30.487.676-29.544-20.41-28.794m-2.468 5.666c-1.179.67-1.236 1.056-1.131 7.623.079 4.965.161 5.752.633 6.049.847.533.887.33 1.098-5.566.251-7.028-.165-6.53 5.713-6.824 4.661-.233 5.317-.4 4.432-1.134-.796-.661-9.629-.783-10.745-.148m-295.845.408c-1.444 1.128-1.687 2.457-1.686 9.233 0 9.197.218 9.481 7.763 10.153 22.166 1.974 25.698 2.005 24.573.218-.299-.475-1.622-.647-9.404-1.225-19.741-1.465-19.148-1.395-20.137-2.384l-.882-.882.002-6.803c.002-5.411.1-6.989.479-7.716.718-1.377.513-1.548-.708-.594m3.762-.217c-1.42.568-.251.891 4.421 1.223 5.962.423 5.555-.051 5.781 6.737.182 5.48.432 6.558 1.285 5.532.335-.403.474-1.866.55-5.804.16-8.238.315-8.045-6.461-8.017-2.643.012-5.152.16-5.576.329m305.247-.109c.006.131.221.517.479.858.901 1.192.667 14.362-.272 15.301-.857.857-.061.761-17.233 2.08-12.37.951-13.382 1.147-12.343 2.398.558.673 1.912.644 14.288-.31 16.277-1.255 16.396-1.278 17.48-3.373.545-1.055.676-13.718.156-15.087-.53-1.392-2.599-2.905-2.555-1.867M51.5 234.115c-9.353.256-9.076-.071-9.076 10.702 0 7.697.145 8.58 1.634 9.946 1.519 1.395 1.588 1.4 28.24 2.196l7.067.211.392-.733c.861-1.61.06-1.766-10.27-1.998-5.148-.116-12.434-.306-16.191-.423l-6.832-.213-.983-.878-.983-.878-.098-6.867c-.105-7.455.11-8.646 1.619-8.951.391-.079 5.96-.219 12.376-.311 11.667-.168 12.737-.248 12.737-.96 0-1.225-2.219-1.32-19.632-.843m275.87.221c-.497 1.296.38 1.39 13.007 1.39 15.142 0 13.497-.931 13.633 7.706.119 7.524-.088 8.709-1.638 9.352-.725.302-5.363.573-16.168.946-17.195.593-17.342.609-17.484 1.841-.148 1.279.361 1.32 11.345.916 28.044-1.031 25.989-.048 25.846-12.366-.1-8.645-.213-9.087-2.512-9.892-1.895-.665-25.77-.566-26.029.107m-276.736 2.629c-4.43.351-3.18.993 3.059 1.572 4.314.401 4.176.197 4.311 6.371.117 5.373.297 6.065 1.217 4.662.508-.775.588-1.576.588-5.927v-5.03l-.883-.883c-.981-.983-3.081-1.177-8.292-.765m288.905.501c-1.268 1.267-1.083 11.677.221 12.484.672.414.853-.675.893-5.35.054-6.409-.209-6.123 6.003-6.524 1.807-.117 3.371-.351 3.475-.52.761-1.231-9.365-1.318-10.592-.09M95.078 266.674c-3.3 1.188-3.859 1.733-11.379 11.083-5.138 6.389-5.565 7.506-3.405 8.922.816.534 6.696.562 118.951.562h118.093l.9-.67c1.788-1.33 1.485-2.726-1.384-6.382-7.433-9.472-9.665-11.834-12.388-13.106l-1.914-.895-102.871-.069c-101.389-.068-102.896-.06-104.603.555m23.045 1.931c.058.074.945 2.073 1.971 4.441a972 972 0 0 0 3.406 7.764c.847 1.902 1.54 3.588 1.54 3.748 0 .377-42.43.378-43.026.001-.968-.613 10.653-14.239 13.042-15.291 1.749-.77 22.518-1.367 23.067-.663m63.248.06c.169.169-.931 12.311-1.357 14.987l-.191 1.196h-51.904l-.457-1.036c-.252-.57-1.825-4.195-3.497-8.054l-3.039-7.018 3.732-.159c5.111-.219 56.487-.142 56.713.084m32.044-.087 1.134.003.718 6.937c.394 3.816.8 7.476.9 8.134l.182 1.196h-16.946c-15.946 0-16.947-.033-16.947-.559 0-.717 1.215-12.565 1.47-14.336.241-1.68-.924-1.569 15.436-1.463 7.105.047 13.429.086 14.053.088m52.359-.03 12.026.033-1.23 2.95a560 560 0 0 1-3.481 8.054l-2.251 5.104H218.67l-.817-8.046-.816-8.045 4.32-.089c2.377-.048 10.637-.067 18.356-.041s19.447.062 26.061.08m37.601.724c2.171.916 14.06 14.402 13.498 15.311-.375.607-43.275.315-43.052-.293.113-.307 1.663-3.964 3.446-8.127l3.241-7.569 6.078-.087c10.502-.149 15.124.062 16.789.765M32.216 283.767c2.499 4.927 6.708 8.405 11.517 9.514 2.611.602 9.31 1.017 23.891 1.48 10.089.321 11.699.439 12.069.891.347.423.399 3.167.279 14.715-.234 22.61 1.738 20.893-23.991 20.893-21.441 0-20.969.084-22.792-4.037-1.095-2.477-2.421-25.932-2.561-45.325-.009-1.242.039-1.186 1.588 1.869m335.446 6.743c-.661 28.673-1.319 36.113-3.405 38.489-2.003 2.28-1.719 2.247-20.38 2.358-21.631.128-22.114.05-24.09-3.905l-.946-1.895-.269-13.097c-.273-13.248-.16-17.03.515-17.245.204-.065 5.466-.273 11.694-.462 23.797-.722 26.664-1.208 31.196-5.282 1.773-1.594 4.606-5.63 5.186-7.389.661-2 .717-1.045.499 8.428"/></g></svg>