<svg xmlns="http://www.w3.org/2000/svg" width="400" height="400" viewBox="0 0 400 400"><g fill-rule="evenodd"><path fill="#050505" d="M114.29 74.929c-1.683.434-4.121 2.198-6.32 4.572-1.14 1.232-2.682 2.629-3.426 3.105-6.234 3.988-18.436 26.698-29.612 55.113-1.121 2.851-2.184 5.188-2.361 5.194-.177.005-1.034.358-1.904.784s-1.595.745-1.611.708-.28-.465-.585-.952c-.453-.725-.516-1.302-.345-3.191.758-8.359-2.47-14.445-7.867-14.831-12.859-.92-24.078 5.459-24.77 14.083-.546 6.796 5.806 9.381 23.203 9.445 3.252.012 6.061.318 6.061.661 0 .137-4.344 4.674-9.652 10.083-12.749 12.989-14.516 15.405-17.115 23.391-4.881 14.998-6.103 42.394-4.502 100.957.987 36.123 1.255 37.775 6.53 40.232l1.613.751 15.72.003c22.248.004 21.618.482 21.993-16.679l.18-8.229 4.337.225c2.385.124 7.423.238 11.197.255 7.572.032 6.884.174 11.442-2.366l1.711-.954h91.602c88.723 0 91.638.018 92.707.593.608.327 1.966 1.081 3.018 1.675l1.914 1.081 8.932-.057c4.912-.031 9.881-.146 11.043-.255l2.112-.197.226 8.069c.326 11.632 1.137 14.388 4.724 16.057l1.671.779 15.79-.004c22.552-.006 21.78.616 22.786-18.377 1.237-23.354 1.831-89.906.888-99.476-2.593-26.322-4.212-29.952-21.043-47.196l-10.287-10.539 2.951-.216c1.623-.118 6.021-.372 9.774-.565 13.57-.694 16.781-2.366 16.781-8.737 0-8.682-8.968-14.335-22.829-14.39-6.979-.027-9.145 2.926-9.428 12.855-.114 4.023-.595 6.109-1.408 6.109-.567 0-3.784-2.009-3.971-2.479-.12-.304-.7-1.873-1.288-3.488-8.649-23.738-24.068-53.114-29.299-55.819-.524-.27-2.195-1.752-3.714-3.293-5.563-5.643-11.192-6.319-16.828-2.021-.895.683-1.291.786-2.405.627-3.459-.495-22.034-1.724-37.06-2.452-11.291-.546-44.476-.734-58.062-.327-17.481.522-45.031 2.05-50.127 2.779-1.14.163-1.537.048-2.775-.804-3.08-2.119-7.324-3.062-10.312-2.292M228.07 87.4c36.196.614 61.488 2.136 65.072 3.913 2.64 1.31 7.438 10.452 14.269 27.188 5.461 13.38 7.91 21.162 7.223 22.952-.588 1.532 5.959 1.45-115.054 1.45H86.529l-.84-.661c-1.65-1.298-.456-6.023 4.991-19.754 7.462-18.812 13.37-30.159 16.372-31.444 2.674-1.145 23.717-2.561 49.407-3.325 20.208-.601 47.804-.724 71.611-.319M62.505 159.569c1.225 4.094 3.191 6.57 13.741 17.303 10.092 10.266 9.559 9.391 9.559 15.694 0 5.088-.161 5.391-5.693 10.658-7.036 6.7-8.199 6.991-19.665 4.928-9.783-1.76-9.714-1.663-9.966-13.894-.36-17.47.515-21.944 5.869-30.012 4.034-6.079 5.421-7.133 6.155-4.677m278.2 1.436c7.528 10.182 8.504 14.138 8.193 33.207-.205 12.549-.158 12.492-11.741 14.237-10.335 1.556-11.07 1.332-18.092-5.513-5.484-5.345-5.511-5.398-5.501-10.82.01-5.764-.343-5.212 10.122-15.824 10.46-10.606 11.705-12.212 13.577-17.52.417-1.182 1.378-.559 3.442 2.233m-1.083 3.158c-.095.155-.429 1.846-.74 3.758-.688 4.22-.967 4.595-4.503 6.053-2.507 1.034-12.702 9.213-16.516 13.251-1.111 1.176-1.611 6.982-.776 8.999.474 1.145 7.92 8.049 9.613 8.913 2.866 1.462 16.008-.512 17.576-2.64 1.194-1.62 1.573-22.058.517-27.871-.514-2.829-4.68-11.258-5.171-10.463m-281.131 1.453c-3.991 6.323-4.426 8.577-4.413 22.901.014 15.841-.461 15.043 9.877 16.608 8.091 1.225 8.585 1.055 14.862-5.125 4.207-4.142 4.284-4.309 3.947-8.529-.299-3.737-.378-3.85-6.311-8.965-9.356-8.067-9.366-8.073-12.589-9.127-1.997-.653-2.506-1.32-2.952-3.866-1.038-5.928-1.088-6.008-2.421-3.897m5.463 16.694c5.317 1.007 5.456 1.071 6.231 2.88.333.777.729 1.413.88 1.413.642 0 7.649 1.324 8.565 1.618.901.29 1.68 1.7 1.206 2.18-.369.374-8.169-1.248-8.947-1.86-1.015-.798-1.789-.836-2.852-.14-.978.641-9.565-.525-10.713-1.455-1.543-1.249-.879-6.16.76-5.617.223.074 2.415.516 4.87.981m277.726.625c.323 1.874-.024 3.637-.815 4.138-1.484.942-9.331 1.968-10.367 1.356-1.221-.721-1.999-.695-3.013.103-.567.446-2.002.85-4.529 1.276-4.56.767-4.296.776-4.296-.136 0-1.133.461-1.35 4.466-2.106 2.018-.381 4.157-.791 4.754-.912.899-.182 1.16-.433 1.515-1.458.609-1.76.932-2.043 2.609-2.288.819-.119 2.781-.476 4.36-.793 4.325-.869 5.044-.758 5.316.82m-159.543 13.556c0 1.93.086 3.509.191 3.509s2.806-1.579 6.001-3.509l5.81-3.509h8.413v4.307c0 4.65.01 4.672 1.654 3.556.608-.413 3.604-2.356 6.657-4.319l5.551-3.569 2.239.093 2.24.092v6.964l-2.012 1.23c-2.523 1.543-2.52 1.546-2.59-2.198-.031-1.708-.086-3.127-.12-3.152s-2.287 1.431-5.007 3.237l-4.944 3.283-3.684.023c-4.657.029-4.45.253-4.45-4.826 0-2.245-.067-4.083-.15-4.083-.195 0-5.262 3.013-6.008 3.573-.532.399-.391.611 1.834 2.769 2.919 2.83 2.923 2.59-.052 2.59h-2.462l-1.61-1.59-1.61-1.591-2.667 1.603c-2.651 1.594-2.681 1.603-5.098 1.511l-2.432-.093-.091-3.302c-.063-2.275.031-3.451.303-3.779.411-.494 3.437-2.32 3.855-2.326.132-.001.239 1.576.239 3.506m-115.336-.788c5.833.97 6.564 1.302 6.564 2.978 0 2.883-1.93 3.423-8.765 2.454-6.356-.901-6.546-1.016-6.546-3.977 0-3-.272-2.955 8.747-1.455m274.112-.727c1.294 1.606.602 4.859-1.13 5.32-6.429 1.709-11.859 1.749-13.159.096-1.835-2.332-.496-3.661 4.424-4.393 2.046-.304 4.654-.735 5.794-.957 2.733-.533 3.682-.549 4.071-.066M169.697 206.22l4.625 1.595h51.356l4.019-1.365c5.965-2.025 5.154-1.981 36.491-1.977 34.998.003 32.399-.373 38.298 5.545 5.176 5.192 5.253 7.437.519 15.022-7.452 11.941-14.45 19.32-19.678 20.752-5.09 1.395-166.146 1.45-170.973.059-5.019-1.447-9.605-5.788-16.538-15.654-8.383-11.928-8.742-14.844-2.536-20.597 5.867-5.439 3.212-5.101 39.489-5.032l30.303.057zm-66.507 1.563c-3.967 1.254-9.41 6.514-9.41 9.092 0 4.275 13.933 22.77 19.051 25.289 2.867 1.412 4.192 1.447 65.319 1.715 82.05.361 105.79-.114 109.331-2.189 4.868-2.853 18.101-20.986 18.101-24.803 0-1.988-4.584-7.015-7.876-8.636l-1.534-.755h-60.925l-4.466 1.595-4.465 1.595h-52.951l-3.509-1.214c-6.521-2.255-4.334-2.128-36.363-2.109-22.483.012-29.315.107-30.303.42M57.151 243.86c13.801 2.819 21.299 5.07 24.11 7.239 4.358 3.362 4.448 3.045-4.206 14.766-11.129 15.073-10.545 14.711-20.577 12.755-10.467-2.041-11.281-3.59-11.728-22.328-.364-15.257-.544-15.076 12.401-12.432m295.733-.793c1.805 1.42 2.298 12.129 1.059 23.022-1.142 10.045-2.138 11.065-12.566 12.876-8.221 1.427-8.477 1.287-15.859-8.63-12.25-16.458-11.995-15.858-8.014-18.867 2.997-2.264 5.602-3.164 16.797-5.805 13.408-3.162 17.192-3.691 18.583-2.596m-305.239 3.046c-1.363 2.08.404 22.583 2.227 25.833 1.181 2.106 5.283 3.579 11.606 4.166 2.821.262 3.182-.035 8.086-6.661 1.977-2.672 4.34-5.862 5.252-7.091 6.345-8.544 6.085-9.481-3.388-12.241-13.175-3.838-22.828-5.464-23.783-4.006m297.331.011c-15.605 2.923-25.359 6.327-25.359 8.849 0 .776 6.369 9.787 12.72 17.997 2.891 3.737 3.666 3.881 11.294 2.098 4.855-1.135 5.876-2.11 6.787-6.478 1.201-5.758 1.934-22.012 1.033-22.912-.53-.531-1.688-.451-6.475.446M63.147 256.19c10.695 2.59 10.379 2.461 9.67 3.949-.744 1.56-1.551 1.54-13.008-.329-6.376-1.04-6.694-1.186-6.969-3.194-.442-3.223-1.123-3.195 10.307-.426m282.76-2.089c.735.282.696 3.343-.054 4.208-.562.649-4.207 1.346-14.565 2.784-3.77.524-4.614.281-5.069-1.46-.242-.924.14-1.073 6.955-2.702 5.459-1.305 11.997-2.915 12.175-2.998.029-.014.28.062.558.168m-62.369 10.007c4.669.537 6.019 1.387 12.32 7.757 8.739 8.835 16.708 18.717 15.395 19.092-1.874.535-2.356.336-3.779-1.563-9.367-12.498-18.847-21.518-23.546-22.404-2.375-.447-166.116-.447-168.494 0-4.789.902-15.192 10.81-23.688 22.563-1.253 1.734-1.773 1.935-3.64 1.404-1.489-.423 9.728-14.008 17.929-21.715 3.46-3.251 6.069-4.699 9.205-5.107 2.904-.378 165.019-.403 168.298-.027"/><path fill="#fbfbfb" d="M0 200v200h400V0H0zM121.626 75.564c.842.364 2.181 1.11 2.976 1.657 1.238.852 1.635.967 2.775.804 5.096-.729 32.646-2.257 50.127-2.779 13.586-.407 46.771-.219 58.062.327 15.026.728 33.601 1.957 37.06 2.452 1.114.159 1.51.056 2.405-.627 5.636-4.298 11.265-3.622 16.828 2.021 1.519 1.541 3.19 3.023 3.714 3.293 5.231 2.705 20.65 32.081 29.299 55.819a281 281 0 0 0 1.288 3.488c.187.47 3.404 2.479 3.971 2.479.813 0 1.294-2.086 1.408-6.109.283-9.929 2.449-12.882 9.428-12.855 13.861.055 22.829 5.708 22.829 14.39 0 6.371-3.211 8.043-16.781 8.737-3.753.193-8.151.447-9.774.565l-2.951.216 10.287 10.539c16.831 17.244 18.45 20.874 21.043 47.196.943 9.57.349 76.122-.888 99.476-.642 12.124-.87 13.245-3.218 15.85-2.347 2.603-1.722 2.522-19.568 2.527l-15.79.004-1.671-.779c-3.587-1.669-4.398-4.425-4.724-16.057l-.226-8.069-2.112.197c-1.162.109-6.131.224-11.043.255l-8.932.057-1.914-1.081a218 218 0 0 0-3.018-1.675c-1.069-.575-3.984-.593-92.707-.593h-91.602l-1.711.954c-4.558 2.54-3.87 2.398-11.442 2.366-3.774-.017-8.812-.131-11.197-.255l-4.337-.225-.18 8.229c-.226 10.328-.694 12.647-2.995 14.831-1.962 1.862-1.854 1.851-18.998 1.848l-15.72-.003-1.613-.751c-5.275-2.457-5.543-4.109-6.53-40.232-1.601-58.563-.379-85.959 4.502-100.957 2.599-7.986 4.366-10.402 17.115-23.391 5.308-5.409 9.652-9.946 9.652-10.083 0-.343-2.809-.649-6.061-.661-17.397-.064-23.749-2.649-23.203-9.445.692-8.624 11.911-15.003 24.77-14.083 5.397.386 8.625 6.472 7.867 14.831-.171 1.889-.108 2.466.345 3.191.305.487.568.915.585.952.016.037.742-.282 1.611-.708.87-.426 1.727-.779 1.904-.784s1.24-2.343 2.361-5.194c11.176-28.415 23.378-51.125 29.612-55.113.744-.476 2.286-1.873 3.426-3.105 4.365-4.713 8.867-6.012 13.656-3.937m54.61 11.735c-28.523.249-65.722 2.262-69.184 3.745-3.002 1.285-8.91 12.632-16.372 31.444-5.447 13.731-6.641 18.456-4.991 19.754l.84.661H199.58c121.013 0 114.466.082 115.054-1.45.687-1.79-1.762-9.572-7.223-22.952-6.831-16.736-11.629-25.878-14.269-27.188-5.601-2.778-56.85-4.538-116.906-4.014m-116.529 72.36c-7.861 8.93-9.619 15.524-9.226 34.599.252 12.231.183 12.134 9.966 13.894 11.466 2.063 12.629 1.772 19.665-4.928 5.532-5.267 5.693-5.57 5.693-10.658 0-6.303.533-5.428-9.559-15.694-10.55-10.733-12.516-13.209-13.741-17.303-.53-1.774-1.176-1.753-2.798.09m277.556-.887c-1.872 5.308-3.117 6.914-13.577 17.52-10.465 10.612-10.112 10.06-10.122 15.824-.01 5.422.017 5.475 5.501 10.82 7.022 6.845 7.757 7.069 18.092 5.513 11.583-1.745 11.536-1.688 11.741-14.237.311-19.069-.665-23.025-8.193-33.207-2.064-2.792-3.025-3.415-3.442-2.233m5.829 11.084c1.787 3.784 2.011 5.235 2.235 14.498.241 9.97-.163 16.937-1.051 18.143-1.568 2.128-14.71 4.102-17.576 2.64-1.693-.864-9.139-7.768-9.613-8.913-.835-2.017-.335-7.823.776-8.999 3.814-4.038 14.009-12.217 16.516-13.251 3.536-1.458 3.815-1.833 4.503-6.053.311-1.912.645-3.603.74-3.758.238-.385 1.838 2.24 3.47 5.693m-282.84-3.907c.181.921.478 2.525.66 3.564.446 2.546.955 3.213 2.952 3.866 3.223 1.054 3.233 1.06 12.589 9.127 5.933 5.115 6.012 5.228 6.311 8.965.337 4.22.26 4.387-3.947 8.529-6.277 6.18-6.771 6.35-14.862 5.125-10.338-1.565-9.863-.767-9.877-16.608-.013-14.324.422-16.578 4.413-22.901 1.1-1.742 1.363-1.692 1.761.333m-2.246 15.917c-.898.898-.687 4.266.318 5.08 1.148.93 9.735 2.096 10.713 1.455 1.063-.696 1.837-.658 2.852.14.778.612 8.578 2.234 8.947 1.86.474-.48-.305-1.89-1.206-2.18-.916-.294-7.923-1.618-8.565-1.618-.151 0-.547-.636-.88-1.413-.775-1.809-.914-1.873-6.231-2.88-2.455-.465-4.647-.907-4.87-.981-.224-.074-.708.168-1.078.537m278.358.249c-1.579.317-3.541.674-4.36.793-1.677.245-2 .528-2.609 2.288-.355 1.025-.616 1.276-1.515 1.458-.597.121-2.736.531-4.754.912-4.005.756-4.466.973-4.466 2.106 0 .912-.264.903 4.296.136 2.527-.426 3.962-.83 4.529-1.276 1.014-.798 1.792-.824 3.013-.103 1.036.612 8.883-.414 10.367-1.356.791-.501 1.138-2.264.815-4.138-.272-1.578-.991-1.689-5.316-.82m-156.316 11.797c-2.384 1.368-2.412 1.43-2.308 5.178l.091 3.302 2.432.093c2.417.092 2.447.083 5.098-1.511l2.667-1.603 1.61 1.591 1.61 1.59h2.462c2.975 0 2.971.24.052-2.59-2.225-2.158-2.366-2.37-1.834-2.769.746-.56 5.813-3.573 6.008-3.573.083 0 .15 1.838.15 4.083 0 5.079-.207 4.855 4.45 4.826l3.684-.023 4.944-3.283c2.72-1.806 4.973-3.263 5.007-3.237s.089 1.444.12 3.152c.07 3.744.067 3.741 2.59 2.198l2.012-1.23v-6.964l-2.24-.092-2.239-.093-5.551 3.569c-3.053 1.963-6.049 3.906-6.657 4.319-1.644 1.116-1.654 1.094-1.654-3.556v-4.307h-8.413l-5.81 3.509c-3.195 1.93-5.896 3.509-6.001 3.509s-.191-1.579-.191-3.509-.107-3.507-.239-3.506-.964.419-1.85.927m-121.595 1.026c-.623.633-.509 3.898.166 4.732.752.928 10.729 2.45 12.429 1.896 1.296-.423 2.317-1.694 2.317-2.885 0-1.676-.731-2.008-6.564-2.978-7.122-1.185-7.868-1.253-8.348-.765m278.389.104c-1.14.222-3.748.653-5.794.957-4.92.732-6.259 2.061-4.424 4.393 1.218 1.549 2.041 1.651 7.247.901 7.517-1.084 8.289-1.584 7.579-4.908-.418-1.956-.839-2.078-4.608-1.343m-233.971 9.861c-5.164 1.271-11.962 7.94-11.962 11.735 0 3.358 5.043 11.852 12.066 20.325 4.618 5.572 7.392 7.738 11.379 8.888 4.827 1.391 165.883 1.336 170.973-.059 5.228-1.432 12.226-8.811 19.678-20.752 4.734-7.585 4.657-9.83-.519-15.022-5.899-5.918-3.3-5.542-38.298-5.545-31.337-.004-30.526-.048-36.491 1.977l-4.019 1.365h-51.356l-4.625-1.595-4.625-1.595-30.303-.057c-23.076-.044-30.684.036-31.898.335m61.563 2.9c1.052.251 3.493 1.002 5.422 1.669l3.509 1.214h52.951l4.465-1.595 4.466-1.595h60.925l1.534.755c3.292 1.621 7.876 6.648 7.876 8.636 0 3.817-13.233 21.95-18.101 24.803-3.541 2.075-27.281 2.55-109.331 2.189-61.127-.268-62.452-.303-65.319-1.715-5.118-2.519-19.051-21.014-19.051-25.289 0-2.578 5.443-7.838 9.41-9.092 1.997-.632 58.59-.614 61.244.02M45.985 243.28c-1.277 1.277-1.467 3.28-1.235 13.012.306 12.824 1.264 17.8 3.798 19.733 2.842 2.167 14.376 4.199 17.38 3.061 1.74-.66 8.546-9.178 16.588-20.762 4.425-6.375-1.051-9.497-25.365-14.464-8.245-1.684-9.972-1.774-11.166-.58m299.321-.02c-21.466 4.066-31.61 8.159-30.317 12.233.401 1.262 13.308 18.852 15.768 21.489 2.678 2.87 4.042 3.125 10.62 1.983 11.936-2.073 13.038-4.188 13.134-25.217.054-11.975-.147-12.204-9.205-10.488m-290.679 2.859c11.869 2.152 21.605 5.108 23.922 7.261 1.541 1.434 1.122 2.442-3.733 8.98-.912 1.229-3.275 4.419-5.252 7.091-5.624 7.6-5.404 7.505-13.372 5.795-7.207-1.546-8.277-4.238-8.883-22.35-.284-8.486-.583-8.21 7.318-6.777m296.824-.441c1.33 1.329-.298 22.783-1.975 26.025-1.134 2.195-4.96 3.685-11.273 4.392-3.414.382-3.262.522-11.409-10.509-8.423-11.403-8.412-11.362-3.687-13.736 4.908-2.465 27.198-7.319 28.344-6.172M52.964 254.52c-.517.967-.04 3.507.751 3.993 1.055.649 16.73 3.082 18.082 2.807.736-.149 1.648-2.171 1.152-2.554-.318-.246-18.774-4.859-19.44-4.859-.119 0-.364.276-.545.613m289.46.162a1037 1037 0 0 1-9.25 2.249c-6.815 1.629-7.197 1.778-6.955 2.702.455 1.741 1.299 1.984 5.069 1.46 10.358-1.438 14.003-2.135 14.565-2.784 1.021-1.179.593-4.892-.504-4.376-.03.014-1.346.351-2.925.749m-227.184 9.453c-3.136.408-5.745 1.856-9.205 5.107-8.201 7.707-19.418 21.292-17.929 21.715 1.867.531 2.387.33 3.64-1.404 8.496-11.753 18.899-21.661 23.688-22.563 2.378-.447 166.119-.447 168.494 0 4.699.886 14.179 9.906 23.546 22.404 1.423 1.899 1.905 2.098 3.779 1.563 1.313-.375-6.656-10.257-15.395-19.092-6.301-6.37-7.651-7.22-12.32-7.757-3.279-.376-165.394-.351-168.298.027"/></g></svg>