<svg xmlns="http://www.w3.org/2000/svg" width="400" height="400" viewBox="0 0 400 400"><g fill-rule="evenodd"><path fill="#050505" d="M114.871 67.634c-2.489.515-3.71 1.858-6.108 6.721-.824 1.669-1.299 2.215-2.614 2.997-8.467 5.043-22.396 30.053-31.532 56.619-.754 2.193-1.729 4.465-2.166 5.05-.438.584-1.379 2.184-2.094 3.555l-1.298 2.493-1.679-2.947-1.678-2.948.697-1.564c1.287-2.889 1.111-12.238-.284-15.079-1.691-3.445-8.28-3.455-23.152-.037-7.774 1.786-8.707 2.754-9.226 9.563l-.085 1.117 1.914.204c1.053.113 2.952.221 4.22.24 2.242.033 4.871.76 4.871 1.346 0 .165-2.356.196-5.582.075l-5.582-.211.007 1.246c.03 5.452 4.881 7.49 19.047 8.002 6.885.249 6.654.124 9.218 4.996l1.957 3.718-1.868 1.73c-1.028.952-4.285 3.448-7.238 5.548-13.371 9.508-17.207 14.042-18.402 21.75-2.318 14.948-2.587 44.696-.618 68.204.405 4.835.417 5.931.07 6.349-1.262 1.521-.385 58.15 1.008 65.072 1.915 9.514 2.529 9.787 22.337 9.915 23.769.155 23.577.314 24.117-19.954l.223-8.374 8.324-.001c10.333-.003 12.107-.441 13.484-3.33l.494-1.036 49.898-.231c27.443-.128 69.56-.127 93.592 0l43.695.232.707 1.257c.415.739 1.3 1.607 2.145 2.104l1.439.846 9.091.159 9.091.16.217 9.091c.333 13.955 1.752 17.604 7.311 18.797 2.743.588 30.407.456 32.465-.155 4.263-1.266 6.458-5.58 7.377-14.496 1.021-9.903 1.273-58.002.315-60.034-.326-.693-.332-1.734-.028-5.263 1.949-22.639 1.558-59.539-.749-70.602-1.462-7.013-5.016-10.995-18.588-20.823-2.845-2.06-5.931-4.443-6.858-5.296l-1.685-1.55 1.914-3.741c2.519-4.925 2.14-4.726 9.551-4.996 14.316-.522 19.278-2.589 19.309-8.045l.007-1.244-5.957.227c-5.295.202-5.912.174-5.556-.255.656-.791 2.189-1.085 6.717-1.288 5.075-.228 4.853-.084 4.454-2.898-.879-6.218-1.283-6.501-12.576-8.812-16.755-3.429-20.285-2.626-21.2 4.819-.58 4.724-.42 7.688.621 11.492.389 1.423.379 1.459-1.208 4.278l-1.6 2.842-1.283-2.553c-.706-1.404-1.627-2.97-2.045-3.48-.419-.51-1.449-2.937-2.289-5.393-9.041-26.446-22.795-51.148-31.458-56.495-1.456-.898-1.951-1.435-2.56-2.772-2.577-5.659-4.034-6.833-8.867-7.146-4.064-.263-6.89 1.134-8.742 4.321l-.567.975 1.118.21c.615.115 1.731.123 2.481.018 5.184-.73 5.016-.794 6.449 2.447.931 2.105.9 2.157-.52.86-1.994-1.822-5.12-2.517-17.804-3.959-39.875-4.533-86.298-4.532-127.751.003-13.596 1.487-15.655 1.923-18.164 3.838l-1.461 1.116.814-1.841c1.246-2.818 1.564-3.065 3.652-2.838 6.762.734 6.89.695 5.177-1.571-2.514-3.326-5.91-4.37-10.873-3.344M237.64 80.368c30.165 1.15 51.275 2.498 52.991 3.385 5.196 2.687 26.682 50.172 24.028 53.104-.767.848-11.364.845-40.382-.01-60.223-1.776-88.809-1.775-148.44.002-23.844.711-40.649.835-41.635.307-3.524-1.885 18.84-51.534 24.142-53.597 2.19-.852 37.432-2.784 63.72-3.493 12.19-.329 54.069-.136 65.576.302M66.106 163.507c1.624 1.333 4.388 3.583 6.143 5.001 6.407 5.179 19.77 20.04 20.448 22.74.588 2.342-4.319 7.887-25.348 28.649l-4.484 4.427-1.786-.149c-3.651-.302-3.597-.724.723-5.682 18.806-21.583 21.452-24.899 21.452-26.886 0-2.673-6.92-11.881-16.706-22.229-5.015-5.303-5.311-5.781-4.524-7.302.692-1.339.715-1.33 4.082 1.431m270.163-1.864c1.427 1.649 1.22 2.016-4.563 8.099-8.774 9.228-15.995 18.642-16.45 21.443-.327 2.015.941 3.662 16.801 21.837 8.961 10.268 8.83 10.072 7.212 10.748-3.007 1.256-2.001 2.037-17.775-13.802-16.661-16.731-16.507-16.542-15.487-18.976 1.555-3.712 14.11-17.407 21.367-23.308a687 687 0 0 0 6.388-5.244c1.831-1.545 1.854-1.552 2.507-.797m-129.185 4.878c11.911 2.427 13.843 9.368 3.579 12.858-14.608 4.968-34.36-2.098-26.111-9.34 4.112-3.61 14.286-5.199 22.532-3.518m-13.457 1.107c-9.459 2.124-11.907 6.808-5.144 9.843 11.296 5.069 30.547.723 26.099-5.893-2.28-3.392-13.785-5.561-20.955-3.95m-2.319 2.045c.25.015.404.529.412 1.38l.014 1.355 1.191-1.355c1.051-1.196 1.351-1.356 2.549-1.356h1.357l-1.316 1.743-1.316 1.743.636.889c.35.488 1.01 1.236 1.466 1.661 1.142 1.066 1.045 1.303-.527 1.285-1.231-.015-1.474-.161-2.632-1.583l-1.276-1.567-.096 1.583c-.096 1.567-.107 1.582-1.177 1.582h-1.081l-.099-3.668c-.098-3.654-.007-3.996 1.018-3.806.263.049.658.1.877.114m17.313.224c.161.161.85 1.796 1.532 3.635l1.239 3.342-.779.104c-1.307.173-1.605-.139-2.358-2.477-.885-2.748-.975-2.76-1.884-.259-.904 2.485-1.248 2.865-2.477 2.735l-.98-.103 1.402-3.273c.776-1.81 1.315-3.502 1.207-3.785-.22-.572 2.516-.501 3.098.081m-7.345 3.468v3.668h-2.233v-3.285c0-2.13-.135-3.42-.383-3.668-.297-.298-.049-.383 1.117-.383h1.499zM68.175 177.37c1.288.449 3.795 3.58 8.118 10.139 2.946 4.471 2.787 5.887-.628 5.573-9.421-.865-21.93-2.841-24.733-3.906-.491-.187-.978-.34-1.081-.34-.323 0 .19 9.266.69 12.458 1.072 6.84 3.795 16.828 5.274 19.34.647 1.098.177 2.206-.551 1.3-4.341-5.404-8.982-31.224-6.273-34.905 1.76-2.394 15.008-9.854 17.708-9.973.281-.012.945.129 1.476.314m269.943 2.29c7.354 3.61 11.541 6.71 12.164 9.005 1.715 6.326-4.914 35.523-7.566 33.322-.372-.309-.366-.47.04-1.048 1.917-2.735 5.295-17.599 5.957-26.216.485-6.316.67-6.007-3.03-5.067-3.494.887-11.048 2.15-16.975 2.839-9.892 1.149-10.266.786-5.917-5.753 7.161-10.767 7.502-10.924 15.327-7.082m-214.035.704 31.419 1.475c8.44.395 8.379.381 12.09 2.807l2.521 1.648 29.377-.085 29.378-.085 2.512-1.711c3.405-2.32 1.91-2.135 26.036-3.224 11.842-.535 24.115-1.111 27.273-1.279 14.113-.752 22.393-1.067 22.898-.874 1.113.427.542 1.793-2.948 7.053-3.69 5.562-4.199 6.047-6.717 6.387-4.325.586-49.035 2.666-59.804 2.783l-4.466.049-3.189-1.402-3.19-1.402h-56.141l-3.093 1.356-3.094 1.355-4.243-.001c-9.235-.003-55.408-2.092-60.461-2.736-1.973-.251-3.018-1.311-6.396-6.49-3.68-5.642-3.805-5.899-3.224-6.599.515-.621-2.282-.702 33.462.975m-29.346.929c0 .827 4.403 5.559 5.496 5.907 1.561.497 23.255 1.769 47.554 2.787 14.229.597 13.732.643 17.228-1.588l2.177-1.389-1.539-1.117c-2.908-2.112.434-1.761-29.768-3.126-7.982-.361-20.111-.936-26.954-1.278-14.906-.747-14.194-.737-14.194-.196m203.19-.219c-1.547.147-47.053 2.263-53.908 2.507-7.307.259-8.556.49-10.698 1.977-.954.663-1.736 1.309-1.738 1.436-.007.408 4.883 3.108 6.013 3.32 2.292.43 58.178-2.307 60.49-2.963 1.238-.351 6.094-5.601 5.728-6.193-.172-.278-3.366-.323-5.887-.084M59.392 196.783c2.335.335 5.131.707 6.214.826 3.122.341 3.299.734 1.972 4.36-1.336 3.651-1.409 3.677-7.521 2.782-5.467-.8-5.689-.89-5.941-2.413-.337-2.043-.237-5.372.174-5.783.477-.477.081-.495 5.102.228m284.758-.085c.725.509.744.625.535 3.429-.278 3.728-.362 3.806-4.813 4.472-7.407 1.107-7.503 1.076-9.116-2.93-1.446-3.591-1.362-3.671 4.651-4.381 2.456-.29 5.111-.642 5.901-.782.789-.14 1.583-.272 1.763-.294s.666.197 1.079.486m-237.282 1.393c.888.476 12.168 1.054 13.481.692 2.574-.711 2.843.397.371 1.53l-2.219 1.016-5.452-.303-5.452-.303-1.674-1.127c-1.967-1.325-1.15-2.626.945-1.505m186.74.106c.546.399.478.505-.959 1.494l-1.547 1.064-5.488.301-5.488.301-2.264-.889c-3.149-1.235-2.92-1.895.538-1.55 2.384.238 12.317-.37 13.054-.799.783-.456 1.457-.431 2.154.078m-163.105.964c1.386.562 13.847 1.001 15.084.53.779-.296 2.108.1 2.097.625-.002.089-.954.568-2.115 1.065l-2.112.902-5.779-.227c-6.747-.264-11.755-1.919-9.07-2.995.406-.163.756-.306.779-.317.022-.011.525.177 1.116.417m139.295-.004c.589.327.654.479.319.749-3.519 2.836-16.608 3.182-19.399.513-.448-.428 1.069-.998 1.858-.699 1.187.452 14.166-.006 15.12-.533.942-.52 1.212-.524 2.102-.03M162.36 200.38c5.129.246 7.116.235 7.883-.042.827-.299 1.197-.279 1.914.102l.889.472-2.233 1.021-2.232 1.021-5.955-.222c-5.948-.221-5.957-.223-7.934-1.279-2.057-1.099-2.048-2.074.013-1.589.439.104 3.883.336 7.655.516m82.447-.327c.814.371.81.377-1.022 1.407l-1.839 1.034-6.113.231-6.113.232-2.181-1.023c-2.274-1.067-2.359-2.425-.107-1.709 1.063.338 15.002.124 15.623-.24.641-.376.789-.37 1.752.068m-64.154.425c1.456.609 11.868.687 13.487.102.82-.297 1.235-.29 1.937.032l.893.41-2.196 1.109-2.195 1.11-5.46-.113c-6.503-.134-10.865-1.555-8.411-2.739l.759-.367c.022-.012.556.193 1.186.456m39.071-.042.744.413-.744.472c-2.118 1.342-2.987 1.52-8.418 1.721l-5.405.201-2.232-1.09c-2.654-1.295-2.224-2.316.637-1.515 1.807.506 12.808.32 13.716-.231.787-.478.789-.478 1.702.029m-126.69 6.283c.468.467 8.553 1.037 12.149.855 4.231-.213 4.727.268 1.683 1.629l-2.295 1.026-5.475-.353c-5.415-.349-8.506-1.266-8.506-2.524 0-.638 1.937-1.14 2.444-.633m213.969.031c1.078.491 1.043.579-.711 1.765-1.475.997-1.625 1.027-6.938 1.383l-5.43.364-2.148-.86c-2.991-1.197-2.993-2.446-.002-1.822 1.734.362 12.722-.306 13.22-.804.494-.493.97-.5 2.009-.026m-247.035 1.02c2.607.458 2.74 1 1.034 4.192-1.193 2.231-1.194 2.233-2.67 2.328-1.977.128-2.343-.314-2.825-3.416-.597-3.835-.416-3.961 4.461-3.104m64.538.832c4.468.214 6.867.21 7.449-.011.921-.35 2.926.208 2.433.677-1.534 1.462-4.344 1.93-10.305 1.718l-5.901-.21-1.994-1.098c-2.318-1.275-2.307-1.255-.965-1.802.845-.345 1.175-.346 1.86-.004.527.263 3.252.531 7.423.73m218.693-.967c.394.249.384.692-.074 3.243-.6 3.34-.747 3.514-2.872 3.399l-1.533-.082-1.328-2.485c-1.658-3.102-1.527-3.433 1.558-3.932 2.875-.465 3.697-.493 4.249-.143m-59.679.456.744.413-.744.487c-2.665 1.741-3.022 1.812-9.707 1.915l-6.349.099-1.914-.901-1.914-.9.895-.474c.693-.368 1.123-.4 1.913-.141 1.237.406 13.99-.107 14.828-.596.731-.426 1.352-.399 2.248.098m-133.592 1.323c4.732.153 7.128.113 7.748-.13.695-.273 1.089-.25 1.754.101l.857.452-2.233 1.019-2.233 1.019-6.129-.186-6.128-.185-2.165-1.093-2.165-1.092 1.117-.468c.919-.385 1.258-.396 1.922-.063.526.265 3.177.481 7.655.626m108.906-.192c.672 1.088-4.035 2.247-9.992 2.461l-6.047.217-2.258-.926c-1.241-.509-2.258-1.011-2.258-1.114-.003-.522 1.631-.898 2.469-.568 1.245.49 14.278.061 15.359-.505.775-.406 2.364-.152 2.727.435m-83.39.666c3.98 0 6.984-.133 7.345-.326.572-.306 1.9.152 1.9.656 0 1.175-3.662 1.903-9.497 1.888l-5.973-.016-2.057-1.057-2.057-1.058.936-.491c.814-.426 1.051-.432 1.802-.043.662.342 2.445.447 7.601.447m56.725-.606c1.39.484 1.295.645-1.075 1.814l-2.079 1.025h-5.874c-5.786 0-9.744-.773-9.744-1.904 0-.438 1.443-.873 2.073-.625 1.259.496 14.327.346 15.011-.172.341-.258.634-.473.652-.478.017-.006.484.147 1.036.34m-39.935.447c1.387.579 11.655.679 13.625.132 3.013-.836 3.336.201.506 1.629-4.421 2.232-19.145.581-16.014-1.796.695-.527.531-.53 1.883.035m-106.115 6.572c2.366.199 5.121.287 6.123.196 2.995-.272 3.475.434 1.055 1.551-2.116.977-2.853 1.032-8.555.644-3.574-.244-3.833-.309-4.871-1.22-1.383-1.214-1.001-2.017.816-1.718.622.102 3.067.349 5.432.547m233.309-.253c.775.566-1.261 2.453-2.646 2.453-.495 0-2.706.146-4.913.326-3.967.322-4.038.316-6.187-.53-3.69-1.453-3.191-1.717 3.607-1.906 2.961-.082 6.102-.268 6.979-.412 2.362-.39 2.538-.387 3.16.069m-21.39 1.74c-2.484 1.86-2.886 1.96-9.394 2.333l-6.216.355-2.466-1.035-2.466-1.035.885-.536c.674-.408 1.115-.465 1.848-.241 1.602.491 14.217-.164 15.102-.784 1.035-.725 3.696.203 2.707.943m-193.891-.621c1.845.452 13.229.803 14.194.437.579-.219 1.059-.168 1.751.185l.953.488-2.388 1.091-2.389 1.092-6.342-.344-6.341-.344-1.912-1.161c-2.829-1.719-1.591-2.441 2.474-1.444m24.657.818c.976.5 14.164.834 15.853.402 2.404-.615 2.396.598-.011 1.708l-2.222 1.024-6.439-.169-6.438-.169-1.931-1.06c-2.19-1.203-2.282-1.36-1.061-1.806 1.192-.436 1.266-.433 2.249.07m142.919-.091c1.365.476 1.294.619-.913 1.832l-1.917 1.054-6.456.172-6.456.172-2.233-1.016c-2.421-1.103-2.421-2.335 0-1.725 1.68.424 14.886.102 15.789-.384.988-.532.964-.531 2.186-.105m-116.908.766c1.346.563 13.94.7 15.341.167.807-.307 2.412.118 2.412.638 0 1.208-3.801 1.907-10.376 1.907h-6.628l-2.074-1.16-2.074-1.16.927-.409c1.212-.536 1.148-.536 2.472.017m90.944-.108c2.832 1.291-1.689 2.717-9.236 2.912l-6.379.166-2.154-.974c-1.184-.535-2.153-1.073-2.153-1.194 0-.493 1.633-.964 2.23-.644.997.534 14.666.395 15.633-.158.984-.562 1.054-.566 2.059-.108m-65.501.445c1.007.521 12.804.529 14.638.011 2.106-.595 2.159.636.074 1.689l-1.969.994h-11.52l-1.905-.962c-2.194-1.108-2.307-1.77-.374-2.207.053-.011.528.202 1.056.475m30.747.461c4.978 0 6.443-.099 7.192-.487.854-.441 1.016-.436 1.772.059l.831.545-2.027 1.042-2.027 1.043-5.671.015-5.671.016-1.963-.992-1.963-.991.764-.576c.682-.515.86-.528 1.638-.126.666.345 2.358.452 7.125.452M71.451 247.061c21.745 1.625 26.709 2.471 29.825 5.084l.957.802-1.276-.002c-.702-.001-6.802-.362-13.557-.802-30.266-1.97-29.457-2.164-34.68 8.304-3.904 7.823-4.024 8.767-1.444 11.342 2.459 2.455 2.379 2.44 19.059 3.651 20.695 1.503 19.808 1.785 31.994-10.158 9.035-8.854 10.301-9.822 14.284-10.917 2.106-.579 156.862-.953 162.44-.393 5.751.578 7.198 1.519 16.428 10.682 12.566 12.476 11.485 12.076 29.628 10.963 18.329-1.125 19.83-1.376 22.163-3.709 2.677-2.677 2.572-3.535-1.4-11.381-2.763-5.458-4.419-7.621-6.678-8.726l-1.764-.864-6.754.21c-3.714.116-11.274.496-16.8.844s-11.699.716-13.717.817l-3.668.183 1.096-.969c2.783-2.465 3.211-2.54 27.612-4.848 16.236-1.536 18.773-.3 24.58 11.982 4.46 9.435 4.441 11.553-.149 16.524-3.128 3.386-3.684 3.509-22.038 4.857-25.699 1.887-23.933 2.475-37.327-12.435-7.786-8.667-9.513-9.889-15.138-10.721-3.249-.48-148.134-.451-151.651.031-6.014.824-7.328 1.82-18.089 13.72-9.963 11.019-9.985 11.026-30.037 9.728-20.89-1.353-23.117-1.762-26.099-4.789-4.942-5.016-4.934-7.813.051-17.857 5.76-11.608 7.091-12.279 22.149-11.153m1.381 8.739c.146.145-.198 1.376-.764 2.735l-1.029 2.471-4.997-.144c-6.135-.176-6.001-.106-4.785-2.515 1.681-3.33 1.59-3.29 6.811-3.032 2.475.122 4.619.34 4.764.485m262.553-.421c.571.219 2.733 3.904 2.733 4.658 0 .581-1.984.845-7.018.935l-3.349.06-.906-1.877c-1.454-3.01-1.363-3.455.747-3.68 2.511-.268 7.194-.326 7.793-.096m-295.38 20.538c1.866 5.766 4.894 10.939 7.949 13.582 1.255 1.085 1.269 1.116.259.562-5.166-2.836-10.221-14.699-11.328-26.584-.114-1.22.308.355 1.024 3.828.67 3.245 1.613 7.121 2.096 8.612m321.409-9.716c-2.015 12.398-5.985 21.094-10.902 23.879-1.07.606-1.07.606.222-.638 5.57-5.364 8.421-12.318 10.82-26.396.115-.676.28-1.159.366-1.073s-.142 1.988-.506 4.228m-296.402-2.723c4.892.38 4.673.186 3.469 3.072-1.258 3.013-1.299 3.03-6.648 2.632-5.365-.399-5.356-.391-4.063-3.568 1.161-2.85.515-2.659 7.242-2.136m275.718 2.049c.979 2.395.933 3.37-.161 3.378-.383.002-2.409.146-4.501.32-2.964.245-3.939.226-4.413-.089-.789-.524-2.588-4.71-2.194-5.104.305-.305 6.473-.825 8.953-.755l1.412.04zm-53.642 15.396c2.735 1.349 6.538 5.545 8.674 9.57 1.329 2.506 1.437 2.477-9.333 2.574l-9.354.085-2.314-2.477-2.314-2.477-14.531-.089c-16.456-.101-15.532-.232-17.599 2.494-1.972 2.601-1.661 2.539-12.638 2.539-10.881 0-10.188.145-12.244-2.568-2.016-2.659-1.207-2.536-16.6-2.536h-13.638l-2.441 2.552-2.441 2.552-9.854-.011c-11.075-.013-10.474.108-12.619-2.541-2.174-2.685-1.214-2.542-17.108-2.547-16.055-.005-15.078-.159-17.299 2.719-1.865 2.418-1.68 2.38-11.593 2.38-11.339 0-11.247.065-7.462-5.274 3.662-5.168 6.015-7.08 9.582-7.789.742-.147 39.534-.247 86.204-.221l84.855.046z"/><path fill="#fbfbfb" d="M0 200v200h400V0H0zM123.175 68.433c.758.533 1.914 1.678 2.569 2.545 1.713 2.266 1.585 2.305-5.177 1.571-2.088-.227-2.406.02-3.652 2.838l-.814 1.841 1.461-1.116c2.509-1.915 4.568-2.351 18.164-3.838 41.453-4.535 87.876-4.536 127.751-.003 12.684 1.442 15.81 2.137 17.804 3.959 1.42 1.297 1.451 1.245.52-.86-1.433-3.241-1.265-3.177-6.449-2.447-.75.105-1.866.097-2.481-.018l-1.118-.21.567-.975c1.852-3.187 4.678-4.584 8.742-4.321 4.833.313 6.29 1.487 8.867 7.146.609 1.337 1.104 1.874 2.56 2.772 8.663 5.347 22.417 30.049 31.458 56.495.84 2.456 1.87 4.883 2.289 5.393.418.51 1.339 2.076 2.045 3.48l1.283 2.553 1.6-2.842c1.587-2.819 1.597-2.855 1.208-4.278-1.957-7.153-.822-16.095 2.237-17.623 2.106-1.052 9.309-.537 18.342 1.312 11.293 2.311 11.697 2.594 12.576 8.812.399 2.814.621 2.67-4.454 2.898-4.528.203-6.061.497-6.717 1.288-.356.429.261.457 5.556.255l5.957-.227-.007 1.244c-.031 5.456-4.993 7.523-19.309 8.045-7.411.27-7.032.071-9.551 4.996l-1.914 3.741 1.685 1.55c.927.853 4.013 3.236 6.858 5.296 13.572 9.828 17.126 13.81 18.588 20.823 2.307 11.063 2.698 47.963.749 70.602-.304 3.529-.298 4.57.028 5.263.958 2.032.706 50.131-.315 60.034-.919 8.916-3.114 13.23-7.377 14.496-2.058.611-29.722.743-32.465.155-5.559-1.193-6.978-4.842-7.311-18.797l-.217-9.091-9.091-.16-9.091-.159-1.439-.846c-.845-.497-1.73-1.365-2.145-2.104l-.707-1.257-43.695-.232c-24.032-.127-66.149-.128-93.592 0l-49.898.231-.494 1.036c-1.377 2.889-3.151 3.327-13.484 3.33l-8.324.001-.223 8.374c-.54 20.268-.348 20.109-24.117 19.954-19.808-.128-20.422-.401-22.337-9.915-1.393-6.922-2.27-63.551-1.008-65.072.347-.418.335-1.514-.07-6.349-1.969-23.508-1.7-53.256.618-68.204 1.195-7.708 5.031-12.242 18.402-21.75 2.953-2.1 6.21-4.596 7.238-5.548l1.868-1.73-1.957-3.718c-2.564-4.872-2.333-4.747-9.218-4.996-14.166-.512-19.017-2.55-19.047-8.002l-.007-1.246 5.582.211c3.226.121 5.582.09 5.582-.075 0-.586-2.629-1.313-4.871-1.346-1.268-.019-3.167-.127-4.22-.24l-1.914-.204.085-1.117c.519-6.809 1.452-7.777 9.226-9.563 14.872-3.418 21.461-3.408 23.152.037 1.395 2.841 1.571 12.19.284 15.079l-.697 1.564 1.678 2.948 1.679 2.947 1.298-2.493c.715-1.371 1.656-2.971 2.094-3.555s1.412-2.857 2.166-5.05c9.136-26.566 23.065-51.576 31.532-56.619 1.315-.782 1.79-1.328 2.614-2.997 3.093-6.27 4.287-7.079 10.269-6.95 2.515.054 2.888.146 4.143 1.028m48.889 11.633c-26.288.709-61.53 2.641-63.72 3.493-5.302 2.063-27.666 51.712-24.142 53.597.986.528 17.791.404 41.635-.307 59.631-1.777 88.217-1.778 148.44-.002 29.018.855 39.615.858 40.382.01 2.654-2.932-18.832-50.417-24.028-53.104-1.716-.887-22.826-2.235-52.991-3.385-11.507-.438-53.386-.631-65.576-.302m-110.04 82.01c-.787 1.521-.491 1.999 4.524 7.302 9.786 10.348 16.706 19.556 16.706 22.229 0 1.987-2.646 5.303-21.452 26.886-4.32 4.958-4.374 5.38-.723 5.682l1.786.149 4.484-4.427c21.029-20.762 25.936-26.307 25.348-28.649-.678-2.7-14.041-17.561-20.448-22.74a1246 1246 0 0 1-6.143-5.001c-3.367-2.761-3.39-2.77-4.082-1.431m271.738.364c-.883.746-3.758 3.105-6.388 5.244-7.257 5.901-19.812 19.596-21.367 23.308-1.02 2.434-1.174 2.245 15.487 18.976 15.774 15.839 14.768 15.058 17.775 13.802 1.618-.676 1.749-.48-7.212-10.748-15.86-18.175-17.128-19.822-16.801-21.837.455-2.801 7.676-12.215 16.45-21.443 5.783-6.083 5.99-6.45 4.563-8.099-.653-.755-.676-.748-2.507.797m-141.049 4.1c-12.255 2.573-13.534 9.983-2.285 13.241 14.538 4.211 32.739-2.758 25.138-9.626-4.101-3.705-14.55-5.358-22.853-3.615m14.996 1.38c13.259 3.523 7.701 11.818-7.868 11.744-14.101-.067-20.509-7.405-9.687-11.093 4.535-1.545 13.006-1.859 17.555-.651m-18.076 1.663c-.195.069-.28 1.532-.22 3.782l.099 3.668h1.081c1.07 0 1.081-.015 1.177-1.582l.096-1.583 1.276 1.567c1.158 1.422 1.401 1.568 2.632 1.583 1.572.018 1.669-.219.527-1.285a13.5 13.5 0 0 1-1.466-1.661l-.636-.889 1.316-1.743 1.316-1.743h-1.357c-1.198 0-1.498.16-2.549 1.356l-1.191 1.355-.014-1.355c-.008-.851-.162-1.365-.412-1.38a9 9 0 0 1-.877-.114c-.264-.049-.622-.038-.798.024m15.89.233c.108.283-.431 1.975-1.207 3.785l-1.402 3.273.98.103c1.229.13 1.573-.25 2.477-2.735.909-2.501.999-2.489 1.884.259.753 2.338 1.051 2.65 2.358 2.477l.779-.104-1.239-3.342c-1.466-3.954-1.411-3.886-3.326-4.077-1.281-.128-1.472-.075-1.304.361m-6.863.264c.248.248.383 1.538.383 3.668v3.285h2.233v-7.336h-1.499c-1.166 0-1.414.085-1.117.383m-133.71 7.452c-4.754 1.743-14.538 7.565-15.959 9.497-2.709 3.681 1.932 29.501 6.273 34.905.728.906 1.198-.202.551-1.3-1.479-2.512-4.202-12.5-5.274-19.34-.5-3.192-1.013-12.458-.69-12.458.103 0 .59.153 1.081.34 2.803 1.065 15.312 3.041 24.733 3.906 3.415.314 3.574-1.102.628-5.573-6.63-10.06-7.95-11.22-11.343-9.977m264.502.43c-2.864 2.26-9.687 12.907-9.166 14.303.53 1.419 15.65-.134 25.397-2.609 3.7-.94 3.515-1.249 3.03 5.067-.662 8.617-4.04 23.481-5.957 26.216-.406.578-.412.739-.04 1.048 2.652 2.201 9.281-26.996 7.566-33.322-1.225-4.517-17.846-13.058-20.83-10.703m-238.831 1.427c-.581.7-.456.957 3.224 6.599 3.378 5.179 4.423 6.239 6.396 6.49 5.053.644 51.226 2.733 60.461 2.736l4.243.001 3.094-1.355 3.093-1.356h56.141l3.19 1.402 3.189 1.402 4.466-.049c10.769-.117 55.479-2.197 59.804-2.783 2.518-.34 3.027-.825 6.717-6.387 3.49-5.26 4.061-6.626 2.948-7.053-.505-.193-8.785.122-22.898.874-3.158.168-15.431.744-27.273 1.279-24.126 1.089-22.631.904-26.036 3.224l-2.512 1.711-29.378.085-29.377.085-2.521-1.648c-3.711-2.426-3.65-2.412-12.09-2.807l-31.419-1.475c-35.744-1.677-32.947-1.596-33.462-.975m18.31 2.1c6.843.342 18.972.917 26.954 1.278 30.202 1.365 26.86 1.014 29.768 3.126l1.539 1.117-2.177 1.389c-3.496 2.231-2.999 2.185-17.228 1.588-24.299-1.018-45.993-2.29-47.554-2.787-1.093-.348-5.496-5.08-5.496-5.907 0-.541-.712-.551 14.194.196m194.883-.331c.366.592-4.49 5.842-5.728 6.193-2.312.656-58.198 3.393-60.49 2.963-1.13-.212-6.02-2.912-6.013-3.32.002-.127.784-.773 1.738-1.436 2.142-1.487 3.391-1.718 10.698-1.977 6.855-.244 52.361-2.36 53.908-2.507 2.521-.239 5.715-.194 5.887.084M54.29 196.555c-.411.411-.511 3.74-.174 5.783.252 1.523.474 1.613 5.941 2.413 6.112.895 6.185.869 7.521-2.782 1.327-3.626 1.15-4.019-1.972-4.36-1.083-.119-3.879-.491-6.214-.826-5.021-.723-4.625-.705-5.102-.228m287.018-.049c-.79.14-3.445.492-5.901.782-6.013.71-6.097.79-4.651 4.381 1.613 4.006 1.709 4.037 9.116 2.93 4.451-.666 4.535-.744 4.813-4.472.221-2.967-.239-4.082-1.614-3.915-.18.022-.974.154-1.763.294m-236.472 1.622c-.523.304-.406.462 1.087 1.468l1.674 1.127 5.452.303 5.452.303 2.219-1.016c2.472-1.133 2.203-2.241-.371-1.53-1.313.362-12.593-.216-13.481-.692-.761-.407-1.286-.397-2.032.037m186.618-.009c-.737.429-10.67 1.037-13.054.799-3.458-.345-3.687.315-.538 1.55l2.264.889 5.488-.301 5.488-.301 1.547-1.064c1.935-1.331.848-2.761-1.195-1.572m-162.846.942c-2.685 1.076 2.323 2.731 9.07 2.995l5.779.227 2.112-.902c1.161-.497 2.113-.976 2.115-1.065.011-.525-1.318-.921-2.097-.625-1.237.471-13.698.032-15.084-.53-.591-.24-1.094-.428-1.116-.417s-.373.154-.779.317m139.088.126c-.954.527-13.933.985-15.12.533-.789-.299-2.306.271-1.858.699 2.791 2.669 15.88 2.323 19.399-.513.935-.753-1.208-1.389-2.421-.719m-114.386.849c-1.818 1.092 2.898 2.457 9.316 2.696l5.955.222 2.232-1.021 2.233-1.021-.889-.472c-.717-.381-1.087-.401-1.914-.102-1.017.368-13.595-.016-15.538-.474-.439-.103-1.067-.026-1.395.172m89.745-.051c-.621.364-14.56.578-15.623.24-2.252-.716-2.167.642.107 1.709l2.181 1.023 6.113-.232 6.113-.231 1.839-1.034c1.832-1.03 1.836-1.036 1.022-1.407-.963-.438-1.111-.444-1.752-.068m-64.347.404c-2.454 1.184 1.908 2.605 8.411 2.739l5.46.113 2.195-1.11 2.196-1.109-.893-.41c-.702-.322-1.117-.329-1.937-.032-1.619.585-12.031.507-13.487-.102-.63-.263-1.164-.468-1.186-.456zm39.314.018c-.908.551-11.909.737-13.716.231-2.861-.801-3.291.22-.637 1.515l2.232 1.09 5.405-.201c5.431-.201 6.3-.379 8.418-1.721l.744-.472-.744-.413c-.913-.507-.915-.507-1.702-.029m-126.714 6.362c-2.463 1.188 1.299 2.688 7.788 3.107l5.475.353 2.295-1.026c3.044-1.361 2.548-1.842-1.683-1.629-3.596.182-11.681-.388-12.149-.855-.412-.413-.789-.402-1.726.05m213.686.007c-.498.498-11.486 1.166-13.22.804-2.991-.624-2.989.625.002 1.822l2.148.86 5.43-.364c5.316-.356 8.396-1.301 8.453-2.59.029-.673-2.242-1.103-2.813-.532m-249.699 1.048c-.295.77.559 5.56 1.086 6.087 1.317 1.317 3.329.469 4.621-1.949 1.706-3.192 1.573-3.734-1.034-4.192-3.06-.538-4.452-.522-4.673.054m59.928.052c-1.342.547-1.353.527.965 1.802l1.994 1.098 5.901.21c5.961.212 8.771-.256 10.305-1.718.493-.469-1.512-1.027-2.433-.677-1.19.452-13.74-.155-14.872-.719-.685-.342-1.015-.341-1.86.004m223.727-.098c-3.085.499-3.216.83-1.558 3.932l1.328 2.485 1.533.082c2.125.115 2.272-.059 2.872-3.399.694-3.864.668-3.883-4.175-3.1m-57.678.215c-.838.489-13.591 1.002-14.828.596-.79-.259-1.22-.227-1.913.141l-.895.474 1.914.9 1.914.901 6.349-.099c6.685-.103 7.042-.174 9.707-1.915l.744-.487-.744-.413c-.896-.497-1.517-.524-2.248-.098m-140.921.858-1.117.468 2.165 1.092 2.165 1.093 6.128.185 6.129.186 2.233-1.019 2.233-1.019-.857-.452c-.665-.351-1.059-.374-1.754-.101-1.239.485-14.286.065-15.403-.496-.664-.333-1.003-.322-1.922.063m115.756-.064c-1.081.566-14.114.995-15.359.505-.838-.33-2.472.046-2.469.568 0 .103 1.017.605 2.258 1.114l2.258.926 6.047-.217c7.42-.267 12.203-1.869 8.956-3.001-.644-.224-1.119-.195-1.691.105m-90.066.697-.936.491 2.057 1.058 2.057 1.057 5.973.016c5.835.015 9.497-.713 9.497-1.888 0-.504-1.328-.962-1.9-.656-.992.531-13.887.426-14.946-.121-.751-.389-.988-.383-1.802.043m64.44-.064c-.684.518-13.752.668-15.011.172-.63-.248-2.073.187-2.073.625 0 1.131 3.958 1.904 9.744 1.904h5.874l2.079-1.025c1.144-.564 2.08-1.124 2.08-1.245 0-.162-1.829-.977-2.041-.909-.018.005-.311.22-.652.478m-40.13.274c-3.131 2.377 11.593 4.028 16.014 1.796 2.83-1.428 2.507-2.465-.506-1.629-1.97.547-12.238.447-13.625-.132-1.352-.565-1.188-.562-1.883-.035m-111.186 6.344c-1.361 1.64 3.513 2.951 10.787 2.901 2.079-.014 5.482-1.606 4.683-2.19-.386-.282-1.162-.364-2.393-.252-1.688.153-8.95-.314-11.555-.743-.79-.13-1.249-.045-1.522.284m237.103-.059c-.877.144-4.018.33-6.979.412-6.798.189-7.297.453-3.607 1.906 2.149.846 2.22.852 6.187.53 2.207-.18 4.418-.326 4.913-.326 1.385 0 3.421-1.887 2.646-2.453-.622-.456-.798-.459-3.16-.069m-20.937.866c-.885.62-13.5 1.275-15.102.784-.733-.224-1.174-.167-1.848.241l-.885.536 2.466 1.035 2.466 1.035 6.216-.355c6.508-.373 6.91-.473 9.394-2.333.989-.74-1.672-1.668-2.707-.943m-194.813.171c-.75.43-.74.444 1.155 1.595l1.912 1.161 6.341.344 6.342.344 2.389-1.092 2.388-1.091-.953-.488c-.692-.353-1.172-.404-1.751-.185-.965.366-12.349.015-14.194-.437-2.308-.566-2.862-.59-3.629-.151m26.037.899c-1.221.446-1.129.603 1.061 1.806l1.931 1.06 6.438.169 6.439.169 2.222-1.024c2.407-1.11 2.415-2.323.011-1.708-1.689.432-14.877.098-15.853-.402-.983-.503-1.057-.506-2.249-.07m142.982.084c-.903.486-14.109.808-15.789.384-2.421-.61-2.421.622 0 1.725l2.233 1.016 6.456-.172 6.456-.172 1.917-1.054c2.207-1.213 2.278-1.356.913-1.832-1.222-.426-1.198-.427-2.186.105m-117.194.644-.927.409 2.074 1.16 2.074 1.16h6.628c6.575 0 10.376-.699 10.376-1.907 0-.52-1.605-.945-2.412-.638-1.401.533-13.995.396-15.341-.167-1.324-.553-1.26-.553-2.472-.017m91.357.017c-.967.553-14.636.692-15.633.158-.597-.32-2.23.151-2.23.644 0 .121.969.659 2.153 1.194l2.154.974 6.379-.166c7.547-.195 12.068-1.621 9.236-2.912-1.005-.458-1.075-.454-2.059.108m-65.311.23c-1.073.518-.901.785 1.187 1.839l1.905.962h11.52l1.969-.994c2.085-1.053 2.032-2.284-.074-1.689-1.834.518-13.631.51-14.638-.011-.528-.273-1.003-.486-1.056-.475a12 12 0 0 0-.813.368m23.853.242-.764.576 1.963.991 1.963.992 5.671-.016 5.671-.015 2.027-1.043 2.027-1.042-.831-.545c-.756-.495-.918-.5-1.772-.059-1.319.683-13.01.711-14.317.035-.778-.402-.956-.389-1.638.126M58.439 247.175c-3.346 1.156-5.561 3.832-9.137 11.039-4.985 10.044-4.993 12.841-.051 17.857 2.982 3.027 5.209 3.436 26.099 4.789 20.052 1.298 20.074 1.291 30.037-9.728 10.761-11.9 12.075-12.896 18.089-13.72 3.517-.482 148.402-.511 151.651-.031 5.625.832 7.352 2.054 15.138 10.721 13.394 14.91 11.628 14.322 37.327 12.435 18.354-1.348 18.91-1.471 22.038-4.857 4.59-4.971 4.609-7.089.149-16.524-5.807-12.282-8.344-13.518-24.58-11.982-24.401 2.308-24.829 2.383-27.612 4.848l-1.096.969 3.668-.183c2.018-.101 8.19-.469 13.717-.817 5.526-.348 13.086-.728 16.8-.844l6.754-.21 1.764.864c2.259 1.105 3.915 3.268 6.678 8.726 3.972 7.846 4.077 8.704 1.4 11.381-2.333 2.333-3.834 2.584-22.163 3.709-18.143 1.113-17.062 1.513-29.628-10.963-9.23-9.163-10.677-10.104-16.428-10.682-5.578-.56-160.334-.186-162.44.393-3.983 1.095-5.249 2.063-14.284 10.917-12.186 11.943-11.299 11.661-31.994 10.158-16.68-1.211-16.6-1.196-19.059-3.651-2.58-2.575-2.46-3.519 1.444-11.342 5.223-10.468 4.414-10.274 34.68-8.304 6.755.44 12.855.801 13.557.802l1.276.002-.957-.802c-2.76-2.315-4.127-2.651-15.471-3.802-17.767-1.804-24.672-2.098-27.366-1.168m4.454 8.592c-1.083 1.083-2.666 4.445-2.223 4.719.207.128 2.624.297 5.372.376l4.997.144 1.029-2.471c.566-1.359.91-2.59.764-2.735-.709-.705-9.238-.734-9.939-.033m264.699-.292c-2.11.225-2.201.67-.747 3.68l.906 1.877 3.349-.06c7.598-.136 7.703-.196 5.906-3.41-1.416-2.532-2.662-2.808-9.414-2.087m-290.707 8.002c1.107 11.885 6.162 23.748 11.328 26.584 1.01.554.996.523-.259-.562-4.618-3.995-7.689-10.78-10.045-22.194-.716-3.473-1.138-5.048-1.024-3.828m324.669-.431c-2.399 14.078-5.25 21.032-10.82 26.396-1.292 1.244-1.292 1.244-.222.638 2.619-1.483 6.026-6.33 7.727-10.991 1.609-4.409 4.225-16.572 3.681-17.116-.086-.086-.251.397-.366 1.073M57.77 265.614c-1.293 3.177-1.302 3.169 4.063 3.568 5.349.398 5.39.381 6.648-2.632 1.204-2.886 1.423-2.692-3.469-3.072-6.727-.523-6.081-.714-7.242 2.136m275.608-2.126c-4.453.307-4.442.296-3.271 3.041 1.297 3.039 1.378 3.075 5.961 2.696 2.092-.174 4.118-.318 4.501-.32 1.094-.008 1.14-.983.161-3.378l-.904-2.21-1.412-.04c-.777-.021-3.043.073-5.036.211m-219.416 16.591c-3.567.709-5.92 2.621-9.582 7.789-3.785 5.339-3.877 5.274 7.462 5.274 9.913 0 9.728.038 11.593-2.38 2.221-2.878 1.244-2.724 17.299-2.719 15.894.005 14.934-.138 17.108 2.547 2.145 2.649 1.544 2.528 12.619 2.541l9.854.011 2.441-2.552 2.441-2.552h13.638c15.393 0 14.584-.123 16.6 2.536 2.056 2.713 1.363 2.568 12.244 2.568 10.977 0 10.666.062 12.638-2.539 2.067-2.726 1.143-2.595 17.599-2.494l14.531.089 2.314 2.477 2.314 2.477 9.354-.085c10.77-.097 10.662-.068 9.333-2.574-2.136-4.025-5.939-8.221-8.674-9.57l-2.067-1.019-84.855-.046c-46.67-.026-85.462.074-86.204.221"/></g></svg>