<svg xmlns="http://www.w3.org/2000/svg" width="400" height="400" viewBox="0 0 400 400"><g fill-rule="evenodd"><path fill="#050505" d="M198.943 23.81c-.12.121-.219 3.928-.219 8.46v8.24l-9.968.006c-5.482.003-12.839.079-16.348.168-29.52.751-45.088 1.276-47.62 1.605-1.204.157-1.504.06-2.484-.8-2.2-1.932-8.545-1.078-11.942 1.607-9.574 7.568-18.799 42.08-28.672 107.258-.685 4.523-1.295 8.27-1.356 8.327-.061.056-1.618.154-3.46.216l-3.349.114-.16-11.164c-.222-15.529-.019-15.311-12.433-13.368-7.245 1.135-7.985 2.874-9.407 22.115-.529 7.162-.634 6.723 1.604 6.723 1.71 0 1.735.014 1.735.943v.943l-2.312.094-2.313.094-.091 3.828c-.153 6.368.473 7.233 5.754 7.963 4.238.585 13.248 1.446 14.273 1.363.439-.036 2.355.055 4.258.202l3.461.266-.192 1.323c-.105.727-.33 2.686-.499 4.353-.171 1.687-1.007 5.647-1.884 8.931-2.628 9.841-2.944 11.578-5.298 29.187-.798 5.965-1.878 13.501-2.4 16.746-1.732 10.762-1.995 13.671-1.988 22.01.006 7.332.654 20.057 1.36 26.706.212 2 .198 5.014-.046 9.41-.419 7.54-.187 36.333.346 42.991 1.002 12.524 1.923 15.54 5.088 16.657 2.084.735 27.614.569 29.14-.189 3.062-1.522 3.938-5.528 4.276-19.542l.201-8.338 4.178-.19c2.298-.105 6.618-.274 9.601-.375 6.067-.207 6.948-.418 7.522-1.803l.4-.966 5.13.199c33.649 1.304 100.041 1.304 133.395.001l5.14-.201.208.83c.401 1.596.936 1.695 11.361 2.103 5.35.209 9.745.405 9.769.435.023.03.139 3.213.258 7.073.439 14.259 1.089 18.126 3.369 20.044 1.491 1.254 2.386 1.327 16.271 1.327h12.918l1.579-.797c2.965-1.499 3.685-4.514 4.683-19.617.435-6.581.47-37.526.049-42.406-.151-1.745-.163-4.185-.028-5.423 1.989-18.123 1.917-35.007-.202-47.865-.746-4.527-1.749-11.486-4.022-27.911-1.154-8.337-1.974-12.445-3.982-19.936-1.209-4.514-1.949-8.681-2.463-13.876-.095-.954 1.003-1.148 7.985-1.411 7.068-.266 16.635-1.487 17.846-2.277 1.486-.97 2.425-5.766 1.863-9.514l-.217-1.443-2.295-.094c-2.24-.091-2.297-.114-2.396-.97-.1-.873-.091-.878 1.864-.878h1.965l-.209-3.11c-1.559-23.187-2.065-24.499-9.958-25.779-11.806-1.915-11.94-1.767-12.197 13.578l-.184 11.005-3.349-.11c-4.024-.133-3.313.97-4.471-6.925-2.846-19.391-8.644-51.455-12.104-66.935-4.654-20.824-10.824-36.534-16.287-41.469-3.451-3.117-10.038-4.157-12.648-1.996-.883.731-.989.741-5.208.503-8.941-.506-37.476-1.307-53.907-1.514l-17.066-.214-.159-8.267c-.151-7.817-.305-9.025-1.057-8.274m35.507 62.952c59.722.739 63.186 1.103 65.464 6.878 1.542 3.91 6.877 38.282 9.625 62.022 1.558 13.449 2.569 12.606-14.654 12.198-18.518-.44-169.697-.479-188.123-.049-17.972.419-17.368.518-18.208-2.983-.537-2.24 3.646-33.563 7.793-58.358 2.818-16.85 3.115-17.268 12.837-18.1 17.136-1.467 75.794-2.22 125.266-1.608M79.292 165.31c.187.187-.379 5.557-.706 6.7-.135.471-.554.558-2.69.558h-2.531v-3.615c0-1.989.108-3.726.239-3.861.271-.277 5.389-.081 5.688.218m246.137 3.191c.172 4.404.389 4.067-2.626 4.067h-2.519l-.16-1.037a95 95 0 0 1-.349-2.631 66 66 0 0 0-.365-2.613c-.193-1.121-.123-1.142 4.398-1.317l1.48-.058zm-181.241 4.45c2.183.935 3.196 5.937 1.354 6.684-1.652.67-43.481.792-45.21.132-2.721-1.039-5.968-5.87-4.558-6.782 1.283-.83 46.48-.862 48.414-.034m152.218-.429c8.266.284 8.426.446 5.037 5.097-2.055 2.819-.877 2.703-25.659 2.531-25.849-.18-24.353.078-23.115-3.993.998-3.28 1.184-3.397 5.792-3.612 5.611-.263 30.543-.278 37.945-.023m24.114 2.696c.155 1.019.171 1.736.036 1.595-.136-.142-.33-1.119-.432-2.172-.225-2.316.006-1.979.396.577m-241.879.073c-.124.988-.302 1.719-.396 1.624s-.071-.979.052-1.967c.124-.988.302-1.719.396-1.624s.071.98-.052 1.967m30.45-1.784c-12.573.268-12.343.205-10.544 2.921 1.376 2.078 2.368 2.885 3.908 3.183 2.183.421 41.956-.052 42.578-.506.762-.558-.543-4.84-1.597-5.241-1.038-.394-22.25-.615-34.345-.357m152.243-.011c-6.522.211-6.404.168-7.237 2.671-1.232 3.7-3.335 3.367 21.98 3.483 23.651.108 21.857.316 23.906-2.771 1.661-2.502 1.508-2.832-1.422-3.069-3.667-.298-30.684-.525-37.227-.314m61.94 36.764c2.102.958 3.423 14.155 1.974 19.724-1.398 5.374-2.647 6.094-17.433 10.052-4.298 1.151-9.609 2.653-11.802 3.338-4.699 1.469-8.321 2.428-10.263 2.72l-1.399.209-1.238 3.563c-7.737 22.26-11.169 24.4-43.081 26.85-35.696 2.742-95.346.818-107.116-3.454-7.269-2.638-12.172-9.192-16.789-22.439l-1.538-4.412-1.234-.282c-4.014-.919-7.662-1.893-13.036-3.479a589 589 0 0 0-12.759-3.568c-13.452-3.573-15.493-6.229-14.515-18.879.871-11.252.953-11.303 11.465-7.156a706 706 0 0 0 14.834 5.613c12.549 4.558 12.299 4.382 12.299 8.645 0 15.535 9.592 38.487 18.221 43.597 9.172 5.431 59.189 8.083 103.31 5.478 28.19-1.665 35.172-3.236 40.138-9.034 7.212-8.422 14.068-28.363 14.086-40.971.004-3.218.386-3.482 10.019-6.917 8.481-3.023 13.863-5.057 19.808-7.484 2.807-1.146 5.133-2.084 5.168-2.085s.432.167.881.371m-119.648 16.377c13.44 3.501 17.957 20.963 7.999 30.921-9.755 9.755-26.1 4.859-29.315-8.782-3.125-13.256 8.614-25.447 21.316-22.139m-62.478 1.131c6.316.183 18.634.526 27.372.762 8.739.237 15.946.487 16.016.556s-.406.729-1.057 1.466l-1.182 1.339-11.324-.319c-6.228-.176-20.198-.52-31.045-.765-21.182-.479-20.417-.412-19.469-1.705 1.205-1.645 2.454-2.025 6.016-1.835 1.755.093 8.358.319 14.673.501m136.042.141c.949.491 1.893 1.887 1.524 2.255-.171.172-21.43.772-48.889 1.382l-13.398.297-1.163-1.328c-.641-.731-1.116-1.38-1.056-1.442s10.201-.389 22.536-.723c12.334-.335 25.585-.736 29.444-.891 8.05-.324 9.63-.259 11.002.45m-81.622.985c-9.076 2.441-13.797 12.373-10.336 21.744.641 1.737.176 1.952 5.524-2.556 2.548-2.147 5.011-4.191 5.473-4.541.743-.565 2.814-11.434 2.814-14.771 0-.499-1.336-.451-3.475.124m4.428.336c-.002.503.393 3.775.877 7.272l.881 6.358 5.466 4.567c6.347 5.302 5.613 4.955 6.435 3.043 4.016-9.335-2.136-20.449-12.14-21.929-1.506-.223-1.515-.219-1.519.689m-68.997 14.136c7.223.365 25.143.948 38.059 1.239l9.409.212.287 1.362c.158.749.219 1.429.137 1.512-.176.176-48.181-1.013-52.475-1.3l-2.93-.195-.499-1.464c-.693-2.035-.668-2.097.756-1.87.69.111 3.955.337 7.256.504m145.141.254c-.636 3.166 3.151 2.746-32.28 3.581-7.193.17-15.483.396-18.421.503l-5.343.194v-2.883l1.355-.162c.746-.089 7.959-.317 16.029-.508 17.663-.417 31.673-.925 34.928-1.266 4.1-.43 3.932-.454 3.732.541m-82.041 5.691c-2.632 1.124-5.467 2.356-6.301 2.737l-1.516.693.521.823c5.431 8.581 18.571 9.087 24.548.945 1.431-1.95 1.882-1.566-5.536-4.702-7.252-3.065-5.843-3.005-11.716-.496m-62.201 10.008c3.836.495 41.36 1.925 50.509 1.925 3.061 0 3.424.066 4.374.79.569.434 1.716 1.152 2.549 1.595l1.515.805-3.636-.004c-3.309-.004-14.984-.34-44.147-1.271-12.448-.398-11.649-.268-13.066-2.123-1.693-2.217-1.728-2.185 1.902-1.717m137.637.741a10.4 10.4 0 0 1-1.504 1.885l-.886.836-10.526.357c-25.665.87-39.883 1.286-44.147 1.291l-4.593.005 1.515-.805c.833-.443 1.967-1.143 2.519-1.554.989-.736 1.174-.753 10.894-.959 19.388-.411 45.611-1.536 46.066-1.976.743-.719 1.23-.043.662.92m-165.707 15.9c3.509.188 7.599.461 9.091.607l2.711.265-3.349-.134c-31.016-1.236-35.563-.541-37.951 5.796-3.857 10.238-3.021 20.039 2.349 27.554 1.651 2.311 1.623 2.51-.095.666-5.474-5.878-6.893-15.568-3.811-26.025 2.751-9.332 5.479-10.098 31.055-8.729m210.22-.371c7.587.524 9.755 2.054 11.78 8.316 3.47 10.735 2.257 19.886-3.583 27.02-1.686 2.059-1.834 1.619-.228-.678 5.452-7.799 6.343-16.161 2.841-26.674-2.496-7.493-6.15-8.156-37.936-6.879-3.298.132-3.356.124-.957-.129 1.403-.149 5.853-.431 9.888-.627 4.035-.197 7.983-.401 8.772-.453 3.028-.2 5.407-.173 9.423.104m-155.994 24.612c17.072.481 65.578.44 83.732-.07 22.502-.632 29.713-.598 31.898.152 5.431 1.863 17.28 13.75 17.205 17.261-.007.351-.316-.152-.686-1.117-1.171-3.055-11.554-13.112-15.316-14.834-2.817-1.289-5.783-1.491-16.752-1.136-34.842 1.126-81.156 1.127-117.864.001-14.992-.46-16.072-.164-22.925 6.278-6.117 5.751-8.046 7.938-8.757 9.93-.317.89-.431 1.01-.441.469-.04-2.083 3.214-6.098 9.617-11.867 7.017-6.323 4.935-6.061 40.289-5.067"/><path fill="#fbfbfb" d="M0 200v200h400V0H0zM200 32.084l.159 8.267 17.066.214c16.431.207 44.966 1.008 53.907 1.514 4.219.238 4.325.228 5.208-.503 2.61-2.161 9.197-1.121 12.648 1.996 5.463 4.935 11.633 20.645 16.287 41.469 3.46 15.48 9.258 47.544 12.104 66.935 1.158 7.895.447 6.792 4.471 6.925l3.349.11.184-11.005c.257-15.345.391-15.493 12.197-13.578 7.893 1.28 8.399 2.592 9.958 25.779l.209 3.11h-1.965c-1.955 0-1.964.005-1.864.878.099.856.156.879 2.396.97l2.295.094.217 1.443c.562 3.748-.377 8.544-1.863 9.514-1.211.79-10.778 2.011-17.846 2.277-6.982.263-8.08.457-7.985 1.411.514 5.195 1.254 9.362 2.463 13.876 2.008 7.491 2.828 11.599 3.982 19.936 2.273 16.425 3.276 23.384 4.022 27.911 2.119 12.858 2.191 29.742.202 47.865-.135 1.238-.123 3.678.028 5.423.421 4.88.386 35.825-.049 42.406-.998 15.103-1.718 18.118-4.683 19.617l-1.579.797H312.6c-13.885 0-14.78-.073-16.271-1.327-2.28-1.918-2.93-5.785-3.369-20.044-.119-3.86-.235-7.043-.258-7.073s-4.419-.226-9.769-.435c-10.425-.408-10.96-.507-11.361-2.103l-.208-.83-5.14.201c-33.354 1.303-99.746 1.303-133.395-.001l-5.13-.199-.4.966c-.574 1.385-1.455 1.596-7.522 1.803-2.983.101-7.303.27-9.601.375l-4.178.19-.201 8.338c-.338 14.014-1.214 18.02-4.276 19.542-1.526.758-27.056.924-29.14.189-3.165-1.117-4.086-4.133-5.088-16.657-.533-6.658-.765-35.451-.346-42.991.244-4.396.258-7.41.046-9.41-.706-6.649-1.354-19.374-1.36-26.706-.007-8.339.256-11.248 1.988-22.01.522-3.245 1.602-10.781 2.4-16.746 2.354-17.609 2.67-19.346 5.298-29.187.877-3.284 1.713-7.244 1.884-8.931.169-1.667.394-3.626.499-4.353l.192-1.323-3.461-.266c-1.903-.147-3.819-.238-4.258-.202-1.025.083-10.035-.778-14.273-1.363-5.281-.73-5.907-1.595-5.754-7.963l.091-3.828 2.313-.094 2.312-.094v-.943c0-.929-.025-.943-1.735-.943-2.238 0-2.133.439-1.604-6.723 1.422-19.241 2.162-20.98 9.407-22.115 12.414-1.943 12.211-2.161 12.433 13.368l.16 11.164 3.349-.114c1.842-.062 3.399-.16 3.46-.216.061-.057.671-3.804 1.356-8.327 9.873-65.178 19.098-99.69 28.672-107.258 3.397-2.685 9.742-3.539 11.942-1.607.98.86 1.28.957 2.484.8 2.532-.329 18.1-.854 47.62-1.605 3.509-.089 10.866-.165 16.348-.168l9.968-.006v-8.24c0-4.532.099-8.339.219-8.46.752-.751.906.457 1.057 8.274m-29.825 54.58c-23.933.171-52.341.965-60.991 1.706-9.722.832-10.019 1.25-12.837 18.1-4.147 24.795-8.33 56.118-7.793 58.358.84 3.501.236 3.402 18.208 2.983 18.426-.43 169.605-.391 188.123.049 17.223.408 16.212 1.251 14.654-12.198-2.748-23.74-8.083-58.112-9.625-62.022-2.278-5.775-5.742-6.139-65.464-6.878-22.808-.282-35.755-.302-64.275-.098m-96.571 78.428c-.131.135-.239 1.872-.239 3.861v3.615h2.531c2.136 0 2.555-.087 2.69-.558.327-1.143.893-6.513.706-6.7-.299-.299-5.417-.495-5.688-.218m247.177.056c-1.545.121-1.547.122-1.371 1.139.096.56.26 1.735.365 2.613s.261 2.061.349 2.631l.16 1.037h2.519c3.015 0 2.798.337 2.626-4.067l-.141-3.589-1.48.058c-.814.031-2.176.112-3.027.178m-219.505 7.38c-6.407.25-6.573.343-5.249 2.938 2.564 5.027 1.638 4.868 27.171 4.683 25.811-.187 24.255.107 22.87-4.309-1.13-3.605.403-3.358-21.347-3.441-10.088-.038-20.638.02-23.445.129m157.185.017c-4.608.215-4.794.332-5.792 3.612-1.238 4.071-2.734 3.813 23.115 3.993 24.782.172 23.604.288 25.659-2.531 3.389-4.651 3.229-4.813-5.037-5.097-7.402-.255-32.334-.24-37.945.023m61.663 2.096c.102 1.053.296 2.03.432 2.172.135.141.119-.576-.036-1.595-.39-2.556-.621-2.893-.396-.577m-241.827.307c-.123.988-.147 1.873-.052 1.967.094.095.272-.636.396-1.624.123-.987.147-1.873.052-1.967-.094-.095-.272.636-.396 1.624m65.139-1.084c1.054.401 2.359 4.683 1.597 5.241-.622.454-40.395.927-42.578.506-2.56-.494-5.915-4.899-4.289-5.631 1.501-.676 43.514-.783 45.27-.116m155.125-.054c2.93.237 3.083.567 1.422 3.069-2.049 3.087-.255 2.879-23.906 2.771-22.829-.105-22.488-.087-22.488-1.195 0-1.045.915-3.709 1.475-4.292.784-.817 34.413-1.09 43.497-.353m18.664 38.164c-5.945 2.427-11.327 4.461-19.808 7.484-9.633 3.435-10.015 3.699-10.019 6.917-.022 15.518-9.291 38.64-17.681 44.106-9.36 6.098-60.597 8.728-108.632 5.574-24.612-1.615-30.072-2.946-35.368-8.622-6.845-7.335-14.074-27.947-14.074-40.128 0-4.263.25-4.087-12.299-8.645a706 706 0 0 1-14.834-5.613c-10.512-4.147-10.594-4.096-11.465 7.156-.978 12.65 1.063 15.306 14.515 18.879 3.684.979 9.426 2.584 12.759 3.568 5.374 1.586 9.022 2.56 13.036 3.479l1.234.282 1.538 4.412c4.617 13.247 9.52 19.801 16.789 22.439 11.77 4.272 71.42 6.196 107.116 3.454 31.912-2.45 35.344-4.59 43.081-26.85l1.238-3.563 1.399-.209c1.942-.292 5.564-1.251 10.263-2.72 2.193-.685 7.504-2.187 11.802-3.338 12.805-3.428 14.136-3.985 16.012-6.703 3.409-4.937 2.274-23.5-1.434-23.444-.035.001-2.361.939-5.168 2.085m-122.488 14.778c-12.968 3.726-17.257 20.521-7.787 30.491 11.077 11.661 29.945 3.544 29.995-12.905.036-12.035-11.03-20.798-22.208-17.586m-72.545.911c-1.141.591-2.514 2.169-2.179 2.504.106.107 9.068.394 19.915.64 10.847.245 24.817.589 31.045.765l11.324.319 1.182-1.339c.651-.737 1.126-1.396 1.057-1.466-.07-.069-7.277-.319-16.016-.556-26.212-.709-38.678-1.084-42.045-1.263-2.66-.142-3.371-.076-4.283.396m143.996-.204c-3.859.155-17.11.556-29.444.891-12.335.334-22.476.66-22.536.723s.415.711 1.056 1.442l1.163 1.328 13.398-.297c27.459-.61 48.718-1.21 48.889-1.382.369-.368-.575-1.764-1.524-2.255-1.372-.709-2.952-.774-11.002-.45m-67.145 1.311c0 3.337-2.071 14.206-2.814 14.771-.462.35-2.925 2.394-5.473 4.541-5.348 4.508-4.883 4.293-5.524 2.556-3.461-9.371 1.26-19.303 10.336-21.744 2.139-.575 3.475-.623 3.475-.124m5.651.577c8.06 2.816 12.417 13.089 8.961 21.123-.822 1.912-.088 2.259-6.435-3.043l-5.466-4.567-.881-6.358c-1.277-9.216-1.402-8.981 3.821-7.155m-82.206 13.618c0 .166.225.961.499 1.767l.499 1.464 2.93.195c4.294.287 52.299 1.476 52.475 1.3.082-.083.021-.763-.137-1.512l-.287-1.362-9.409-.212c-20.95-.472-42.564-1.303-45.315-1.743-.721-.115-1.255-.071-1.255.103m149.92.114c-3.255.341-17.265.849-34.928 1.266-8.07.191-15.283.419-16.029.508l-1.355.162v2.883l5.343-.194c2.938-.107 11.228-.333 18.421-.503 35.431-.835 31.644-.415 32.28-3.581.2-.995.368-.971-3.732-.541m-66.593 6.728c7.418 3.136 6.967 2.752 5.536 4.702-5.977 8.142-19.117 7.636-24.548-.945l-.521-.823 1.516-.693c3.348-1.53 11.11-4.783 11.478-4.81.216-.016 3.158 1.14 6.539 2.569m-76.947 9.477c0 .608 2.305 3.24 2.963 3.384.387.085 5.442.306 11.231.491 29.163.931 40.838 1.267 44.147 1.271l3.636.004-1.515-.805c-.833-.443-1.98-1.161-2.549-1.595-.95-.724-1.313-.79-4.374-.79-9.149 0-46.673-1.43-50.509-1.925-2.825-.365-3.03-.367-3.03-.035m140.005-.144c-.455.44-26.678 1.565-46.066 1.976-9.72.206-9.905.223-10.894.959-.552.411-1.686 1.111-2.519 1.554l-1.515.805 4.593-.005c4.264-.005 18.482-.421 44.147-1.291l10.526-.357.886-.836c1.442-1.362 2.272-2.934 1.549-2.934-.316 0-.634.058-.707.129M84.19 275.591c-7.249.585-9.417 2.313-11.417 9.098-3.082 10.457-1.663 20.147 3.811 26.025 1.718 1.844 1.746 1.645.095-.666-5.37-7.515-6.206-17.316-2.349-27.554 2.388-6.337 6.935-7.032 37.951-5.796l3.349.134-2.711-.265c-7.956-.777-24.309-1.333-28.729-.976m220.435-.106c-.789.052-4.737.256-8.772.453-4.035.196-8.485.478-9.888.627-2.399.253-2.341.261.957.129 31.786-1.277 35.44-.614 37.936 6.879 3.502 10.513 2.611 18.875-2.841 26.674-1.606 2.297-1.458 2.737.228.678 5.84-7.134 7.053-16.285 3.583-27.02-2.42-7.483-7.119-9.35-21.203-8.42m-178.229 24.496c-5.66 1.298-18.324 13.202-18.248 17.154.01.541.124.421.441-.469.711-1.992 2.64-4.179 8.757-9.93 6.853-6.442 7.933-6.738 22.925-6.278 36.708 1.126 83.022 1.125 117.864-.001 10.969-.355 13.935-.153 16.752 1.136 3.762 1.722 14.145 11.779 15.316 14.834.37.965.679 1.468.686 1.117.041-1.926-1.601-4.144-7.092-9.578-9.348-9.251-7.026-8.818-42.011-7.835-18.154.51-66.66.551-83.732.07-24.102-.678-29.497-.715-31.658-.22"/></g></svg>