<svg xmlns="http://www.w3.org/2000/svg" width="400" height="400" viewBox="0 0 400 400"><g fill-rule="evenodd"><path fill="#050505" d="M177.193 47.106c-20.356.421-48.087 1.97-67.766 3.785l-8.435.777-.897-.917c-1.459-1.492-3.539-1.505-7.245-.044-5.491 2.164-8.135 5.787-10.834 14.843-4.757 15.96-18.043 67.711-19.679 76.654-.687 3.759-.971 4.086-3.762 4.347l-2.191.205.181-1.049c.1-.578.432-4.425.738-8.55.829-11.162.687-11.343-8.818-11.282-9.48.061-15.637 1.109-18.011 3.066-4.21 3.471-5.877 18.062-2.622 22.951 1.46 2.192 1.099 2.146 24.364 3.078 3.192.127 5.891.32 5.999.427.263.263-1.566 4.917-3.959 10.075-2.79 6.012-3.688 8.866-8.807 27.989-.469 1.754-1.641 5.543-2.603 8.419-3.834 11.455-4.665 29.719-2.679 58.886.566 8.323.653 12.829.664 34.609.018 33.218.308 38.008 2.573 42.478 2.834 5.593 5.166 6.176 23.741 5.937 15.894-.204 16.962-1.324 17.687-18.54.16-3.793.381-7.043.491-7.222.239-.386 229.829-.467 229.829-.081 0 16.692 2.045 23.797 7.29 25.322 1.999.582 26.339.602 28.295.024 4.489-1.326 7.236-5.636 8.149-12.786.218-1.709.449-14.872.609-34.654.141-17.544.407-33.764.591-36.044 2.122-26.312 1.226-45.998-2.628-57.758-.973-2.97-3.075-10.209-4.671-16.086-3.547-13.064-4.149-14.884-6.858-20.734-2.426-5.237-4.1-9.559-3.814-9.845.106-.106 1.224-.232 2.484-.28 26.241-1.004 26.409-1.023 27.886-3.24 3.084-4.632 1.912-18.193-1.929-22.311-2.105-2.256-7.038-3.318-17.446-3.755-10.661-.448-10.979-.041-9.955 12.726.355 4.425.617 8.075.581 8.112-.128.134-4.648-.426-4.819-.597-.096-.097-.601-2.242-1.121-4.767-2.941-14.284-17.259-69.325-20.686-79.524-2.911-8.663-12.836-15.141-16.873-11.012l-.955.976-4.745-.486c-32.427-3.323-78.196-4.931-117.344-4.122m62.041 13.184c33.898.74 57.745 2.072 63.108 3.524 5.799 1.57 7.088 3.056 9.273 10.693 8.627 30.149 13.902 60.909 11.094 64.689-1.183 1.592-12.622 1.951-46.792 1.466-62.309-.883-81.98-.883-149.442.002-35.259.463-47.389.121-48.887-1.376-2.91-2.911 1.857-31.075 10.753-63.53 3.449-12.582 3.979-12.779 38.613-14.339 29.952-1.35 79.404-1.847 112.28-1.129M58.44 184.971a3061 3061 0 0 0 17.464 7.845c19.936 8.892 17.643 6.946 19.177 16.275 1.06 6.449 2.784 11.75 7.161 22.018 2.631 6.174 2.631 6.039-.001 5.769-11.368-1.165-46.053-20.228-51.683-28.405-1.275-1.852-1.276-1.856-1.224-4.764.071-3.969 2.9-21.253 3.479-21.253.061 0 2.593 1.132 5.627 2.515m290.203 2.795c1.902 9.672 2.658 16.1 2.171 18.454-1.477 7.137-39.428 29.21-52.659 30.626-2.668.286-2.678.246-.987-3.688 5.553-12.92 7.24-18.16 8.416-26.14 1.007-6.837-1.162-5.299 22.167-15.727 6.491-2.901 13.525-6.064 15.63-7.03 4.558-2.089 4.102-2.393 5.262 3.505m-142.104 16.503c12.575 4.041 18.081 19.626 10.837 30.673-9.437 14.393-31.22 11.631-36.646-4.647-5.331-15.992 9.74-31.189 25.809-26.026m-8.293 1.353c-3.454.68-4.431.977-6.297 1.915-8.476 4.259-12.86 16.963-8.273 23.975.197.302 1.832-.831 6.097-4.224 3.206-2.55 6.155-4.888 6.554-5.197.651-.502.832-1.291 1.737-7.577.556-3.86 1.092-7.484 1.19-8.055.099-.57.055-1.02-.096-.999-.151.02-.562.093-.912.162m2.714.093c.002.102.504 3.703 1.117 8.001.612 4.298 1.113 7.846 1.113 7.884s.986.828 2.191 1.755 4.146 3.228 6.536 5.114c5.113 4.035 4.474 3.83 5.274 1.692 3.483-9.308-1.39-19.97-10.723-23.462-1.77-.662-5.514-1.331-5.508-.984m-76.877 3.223c13.417.496 34.234.941 44.258.946 9.478.005 9.582.022 8.54 1.397-.431.57-.983.586-12.828.381-22.95-.397-42.647-.811-48.264-1.014-6.254-.226-7.33.075-7.341 2.055-.004.668-.072.75-.314.375-1.643-2.543 1.149-4.908 5.423-4.594.965.072 5.701.276 10.526.454m166.986.285c1.048.588 1.719 2.382 1.279 3.421-.227.538-.27.522-.454-.175-.534-2.025-.621-2.036-13.619-1.655-30.184.885-54.439 1.099-54.889.483-.955-1.306-1.048-1.297 16.247-1.509 16.525-.202 34.228-.679 42.823-1.154 5.237-.289 7.299-.148 8.613.589m-178.998 11.202c5.681 2.514 16.081 3.507 49.97 4.775 4.65.174 9.484.317 10.745.317 2.482.001 2.361-.092 2.818 2.175l.213 1.058-3.777-.184c-2.078-.101-8.156-.329-13.507-.507-21.282-.708-40.597-1.749-44.588-2.402-.957-.157-1.155-.406-2.312-2.911-1.614-3.493-1.66-3.249.438-2.321m177.046 1.186a279 279 0 0 0-1.265 2.844c-.513 1.184-.717 1.241-6.034 1.686-9.252.775-56.815 2.796-57.182 2.429-.068-.068-.001-.746.15-1.508l.273-1.384 6.21-.217c37.894-1.322 50.546-2.403 56.291-4.81 1.052-.441 2.02-.818 2.149-.838s-.137.789-.592 1.798m-96.524 8.363c-8.976 3.646-8.292 3.116-6.694 5.185 6.634 8.59 19.83 9.074 27.492 1.008 2.605-2.742 2.613-2.771 1.043-3.412l-7.736-3.171-6.54-2.682zm-65.231 7.796c7.95 1.768 18.173 2.726 49.804 4.67l5.714.351 2.18 1.794c1.2.987 2.181 1.806 2.181 1.821 0 .832-53.225-3.375-58.621-4.634-3.808-.888-7.371-2.945-9.283-5.36l-.994-1.254 2.72.908c1.496.499 4.33 1.266 6.299 1.704m152.757-.665c-4.287 4.341-6.915 5.048-24.457 6.579-13.6 1.187-42.584 3.018-42.584 2.69 0-.027.979-.85 2.175-1.829l2.176-1.78 5.719-.332c35.213-2.044 50.148-3.821 57.31-6.819 1.558-.652 1.492-.363-.339 1.491M69.378 279.127c8.756 1.411 9.17 1.499 9.029 1.914-.341 1-7.494 8.694-8.79 9.456-2.344 1.378-11.606.923-14.797-.727-2.628-1.359-1.87-10.231 1.001-11.721 1.435-.744 3.05-.615 13.557 1.078m275.655-.783c2.676 1.998 2.563 10.592-.153 11.654-3.497 1.367-11.896 1.763-14.001.66-1.216-.637-5.637-5.204-8.334-8.608l-1.029-1.3 1.682-.339c.925-.187 4.84-.835 8.7-1.441s7.376-1.169 7.815-1.253c1.741-.33 4.469-.008 5.32.627m-67.043 15.443c9.383.554 15.991 1.989 21.167 4.595 4.376 2.204 5.693 4.187 3.412 5.14-7.633 3.19-197.183 3.191-204.816.002-6.159-2.574 9.064-8.827 23.619-9.702 6.554-.394 149.996-.426 156.618-.035"/><path fill="#fbfbfb" d="M0 200v200h400V0H0zM227.751 47.215c22.507.6 49.047 2.195 66.786 4.013l4.745.486.955-.976c4.037-4.129 13.962 2.349 16.873 11.012 3.427 10.199 17.745 65.24 20.686 79.524.52 2.525 1.025 4.67 1.121 4.767.171.171 4.691.731 4.819.597.036-.037-.226-3.687-.581-8.112-1.024-12.767-.706-13.174 9.955-12.726 10.408.437 15.341 1.499 17.446 3.755 3.841 4.118 5.013 17.679 1.929 22.311-1.477 2.217-1.645 2.236-27.886 3.24-1.26.048-2.378.174-2.484.28-.286.286 1.388 4.608 3.814 9.845 2.709 5.85 3.311 7.67 6.858 20.734 1.596 5.877 3.698 13.116 4.671 16.086 3.854 11.76 4.75 31.446 2.628 57.758-.184 2.28-.45 18.5-.591 36.044-.16 19.782-.391 32.945-.609 34.654-.913 7.15-3.66 11.46-8.149 12.786-1.956.578-26.296.558-28.295-.024-5.245-1.525-7.29-8.63-7.29-25.322 0-.386-229.59-.305-229.829.081-.11.179-.331 3.429-.491 7.222-.725 17.216-1.793 18.336-17.687 18.54-18.575.239-20.907-.344-23.741-5.937-2.265-4.47-2.555-9.26-2.573-42.478-.011-21.78-.098-26.286-.664-34.609-1.986-29.167-1.155-47.431 2.679-58.886.962-2.876 2.134-6.665 2.603-8.419 5.119-19.123 6.017-21.977 8.807-27.989 2.393-5.158 4.222-9.812 3.959-10.075-.108-.107-2.807-.3-5.999-.427-23.265-.932-22.904-.886-24.364-3.078-3.255-4.889-1.588-19.48 2.622-22.951 2.374-1.957 8.531-3.005 18.011-3.066 9.505-.061 9.647.12 8.818 11.282-.306 4.125-.638 7.972-.738 8.55l-.181 1.049 2.191-.205c2.791-.261 3.075-.588 3.762-4.347 1.636-8.943 14.922-60.694 19.679-76.654 2.699-9.056 5.343-12.679 10.834-14.843 3.706-1.461 5.786-1.448 7.245.044l.897.917 8.435-.777c35.753-3.298 80.444-4.686 118.324-3.676m-62.52 12.967c-8.263.132-27.663.759-38.277 1.237-34.634 1.56-35.164 1.757-38.613 14.339-8.896 32.455-13.663 60.619-10.753 63.53 1.498 1.497 13.628 1.839 48.887 1.376 67.462-.885 87.133-.885 149.442-.002 34.17.485 45.609.126 46.792-1.466 2.808-3.78-2.467-34.54-11.094-64.689-2.973-10.391-4.409-11.089-25.65-12.458-25.881-1.669-80.334-2.51-120.734-1.867M52.527 183.174c-1.335 5.523-3.131 17.074-3.193 20.535-.052 2.908-.051 2.912 1.224 4.764 5.63 8.177 40.315 27.24 51.683 28.405 2.632.27 2.632.405.001-5.769-4.377-10.268-6.101-15.569-7.161-22.018-1.534-9.329.759-7.383-19.177-16.275a3061 3061 0 0 1-17.464-7.845c-6.382-2.91-5.694-2.701-5.913-1.797m290.854 1.087c-2.105.966-9.139 4.129-15.63 7.03-23.329 10.428-21.16 8.89-22.167 15.727-1.176 7.98-2.863 13.22-8.416 26.14-1.691 3.934-1.681 3.974.987 3.688 13.231-1.416 51.182-23.489 52.659-30.626.562-2.718-2.256-22.415-3.359-23.476-.135-.13-1.969.552-4.074 1.517M195.33 203.775c-11.741 2.997-18.405 15.104-14.6 26.52 6.206 18.619 32.321 18.633 38.848.022 5.225-14.899-8.973-30.44-24.248-26.542m3.924 2.684c-.098.571-.634 4.195-1.19 8.055-.905 6.286-1.086 7.075-1.737 7.577-.399.309-3.348 2.647-6.554 5.197-4.265 3.393-5.9 4.526-6.097 4.224-5.496-8.401 1.634-23.279 12.177-25.41 2.469-.498 2.992-.6 3.305-.642.151-.021.195.429.096.999m7.214.24c9.333 3.492 14.206 14.154 10.723 23.462-.8 2.138-.161 2.343-5.274-1.692a899 899 0 0 0-6.536-5.114c-1.205-.927-2.191-1.717-2.191-1.755s-.501-3.586-1.113-7.884c-.613-4.298-1.115-7.899-1.117-8.001-.006-.347 3.738.322 5.508.984m-96.011 1.961c-2.14.485-3.362 2.81-2.323 4.418.242.375.31.293.314-.375.011-1.98 1.087-2.281 7.341-2.055 5.617.203 25.314.617 48.264 1.014 11.845.205 12.397.189 12.828-.381 1.042-1.375.938-1.392-8.54-1.397-13.447-.007-47.779-.884-54.784-1.4-.965-.071-2.36.009-3.1.176m171.999-.026c-8.595.475-26.298.952-42.823 1.154-17.295.212-17.202.203-16.247 1.509.45.616 24.705.402 54.889-.483 12.998-.381 13.085-.37 13.619 1.655.184.697.227.713.454.175 1.366-3.228-1.682-4.463-9.892-4.01m-172.089 11.258c0 1.303 2.678 5.618 3.578 5.765 3.991.653 23.306 1.694 44.588 2.402 5.351.178 11.429.406 13.507.507l3.777.184-.213-1.058c-.457-2.267-.336-2.174-2.818-2.175-1.261 0-6.095-.143-10.745-.317-33.889-1.268-44.289-2.261-49.97-4.775-1.513-.669-1.704-.729-1.704-.533m177.193.759c-5.745 2.407-18.397 3.488-56.291 4.81l-6.21.217-.273 1.384c-.151.762-.218 1.44-.15 1.508.367.367 47.93-1.654 57.182-2.429 5.317-.445 5.521-.502 6.034-1.686.241-.556.81-1.835 1.265-2.844s.721-1.818.592-1.798-1.097.397-2.149.838m-73.126 12.104c1.57.641 1.562.67-1.043 3.412-7.662 8.066-20.858 7.582-27.492-1.008-1.598-2.069-2.282-1.539 6.694-5.185l7.565-3.072 6.54 2.682zm-95.097 3.657c1.912 2.415 5.475 4.472 9.283 5.36 5.396 1.259 58.621 5.466 58.621 4.634 0-.015-.981-.834-2.181-1.821l-2.18-1.794-5.714-.351c-37.765-2.321-47.158-3.388-56.103-6.374l-2.72-.908zm161.121-.798c-7.162 2.998-22.097 4.775-57.31 6.819l-5.719.332-2.176 1.78c-1.196.979-2.175 1.802-2.175 1.829 0 .328 28.984-1.503 42.584-2.69 17.542-1.531 20.17-2.238 24.457-6.579 1.831-1.854 1.897-2.143.339-1.491M55.821 278.049c-2.871 1.49-3.629 10.362-1.001 11.721 3.191 1.65 12.453 2.105 14.797.727 1.296-.762 8.449-8.456 8.79-9.456.141-.415-.273-.503-9.029-1.914-10.507-1.693-12.122-1.822-13.557-1.078m283.892-.332c-.439.084-3.955.647-7.815 1.253s-7.775 1.254-8.7 1.441l-1.682.339 1.029 1.3c7.352 9.282 9.768 10.398 18.922 8.745 5.024-.907 5.443-1.382 5.381-6.093-.081-6.06-2.016-7.955-7.135-6.985m-218.341 16.105c-14.555.875-29.778 7.128-23.619 9.702 7.633 3.189 197.183 3.188 204.816-.002 2.281-.953.964-2.936-3.412-5.14-5.176-2.606-11.784-4.041-21.167-4.595-6.622-.391-150.064-.359-156.618.035"/></g></svg>