<svg xmlns="http://www.w3.org/2000/svg" width="400" height="400" viewBox="0 0 400 400"><g fill-rule="evenodd"><path fill="#050505" d="M116.268 64.88a11 11 0 0 0-6.492 5.522c-.52 1.02-1.084 1.468-3.09 2.46-7.188 3.553-19.576 24.642-31.733 54.025l-1.358 3.282-2.428-.093c-2.81-.107-2.569.556-1.937-5.329 1.094-10.181-.119-12.008-7.933-11.953-15.856.112-26.168 4.332-27.31 11.178l-.221 1.324 3.133.217c13.506.936 14.736 1.131 15.442 2.45l.361.675-6.814-.212c-3.747-.117-7.946-.301-9.331-.409l-2.518-.197.223.923c.827 3.427 3.276 6.699 5.901 7.885 2.096.946 9.483 1.186 11.36.368.982-.428 2.457-.582 6.531-.682 7.209-.178 7.716-.263 9.266-1.558 1.152-.963 3.804-2.061 4.977-2.061.743 0 .092.877-1.308 1.762-.898.568-1.861 1.637-2.77 3.077-2.344 3.714-2.899 4.23-5.938 5.526-8.278 3.531-12.836 6.86-15.031 10.979-.563 1.056-1.175 2.013-1.359 2.127-1.999 1.235-7.44 10.57-9.325 15.995-4.346 12.516-5.2 35.335-2.388 63.884.382 3.889.757 11.063.923 17.703.153 6.14.497 14.107.764 17.703s.639 9.338.827 12.76c1.292 23.565 3.001 31.284 7.425 33.543 2.866 1.463 30.951 1.751 34.055.349 4.195-1.894 5.383-5.742 6.281-20.336l.236-3.828 4.204-.159c4.744-.18 5.695-.566 6.364-2.582l.361-1.086 104.178-.081 104.178-.08.725 1.516c.935 1.958 1.842 2.271 6.649 2.295l3.692.018.552 6.938c1.018 12.789 2.38 16.414 6.64 17.678 2.423.718 30.248.588 32.369-.152 5.63-1.964 7.145-8.643 8.874-39.137.274-4.825.574-9.203.667-9.729s.296-6.483.45-13.238c.184-8.072.499-14.412.919-18.5 4.397-42.794 1.25-66.57-10.634-80.352-.818-.948-1.824-2.383-2.236-3.19-2.08-4.067-6.703-7.526-14.363-10.746-3.962-1.665-4.104-1.78-5.906-4.763-1.447-2.396-2.074-3.105-4.485-5.073-.466-.38-.608-.663-.371-.742.798-.266 3.898.924 5.166 1.984 1.585 1.324 1.872 1.375 8.785 1.567 3.952.11 5.839.297 6.957.689 2.514.883 9.414.547 11.544-.561 2.716-1.413 5.018-4.549 5.494-7.484l.187-1.155-2.362.198c-5.241.438-15.919.631-15.919.287 0-.596 1.569-1.604 2.801-1.8.874-.139 14.606-1.14 15.637-1.14 1.012 0-.903-4.795-2.589-6.48-4.255-4.255-26.508-8.246-30.692-5.504-2.192 1.436-2.751 6.93-1.554 15.268l.22 1.529-2.459-.094-2.46-.094-2.477-5.742c-13.182-30.545-23.67-48.106-30.751-51.485-1.732-.827-2.205-1.246-3.175-2.813-3.702-5.979-11.774-7.543-16.288-3.156l-1.386 1.347-5.653-.552c-31.987-3.122-77.59-3.675-114.708-1.39-8.744.538-22.895 1.694-23.557 1.924-.237.082-1.186-.541-2.109-1.384-2.451-2.24-6.362-2.972-9.9-1.853m8.428 3.122 1.091.345-2.252.572c-2.742.696-4.781 1.703-7.283 3.595-2.317 1.752-2.355 1.725-1.147-.805 1.898-3.979 4.97-5.166 9.591-3.707m157.422.371c1.167.637 4.068 5.037 3.618 5.487-.077.077-.991-.524-2.029-1.336-2.339-1.83-4.92-3.083-7.458-3.622-2.205-.468-2.214-.572-.098-1.155 1.911-.526 4.319-.273 5.967.626m-47.828 8.192c32.439.818 53.062 2.483 57.982 4.683 4.942 2.21 13.176 16.904 22.596 40.324 3.527 8.771 3.532 10.262.034 11.501-2.166.767-228.138.605-230.134-.165-3.703-1.429-3.5-2.729 2.7-17.278 9.668-22.689 15.881-32.954 21.061-34.801 9.821-3.5 72.2-5.615 125.761-4.264M79.697 138.756c11.32 5.785 19.535 11.853 29.111 21.502 4.397 4.431 6.501 7.104 2.747 3.491-1.65-1.588-7.37-6.585-10.758-9.398-5.718-4.747-15.4-11.478-22.647-15.744-2.018-1.187-3.728-2.214-3.801-2.281-.529-.485 1.032.224 5.348 2.43m245.024-2.203c-.263.171-2.201 1.328-4.306 2.57-10.727 6.333-19.508 12.831-28.736 21.262-4.798 4.385-6.188 5.485-4.283 3.39 8.254-9.076 15.254-14.999 24.885-21.054 1.934-1.217 12.199-6.504 12.599-6.49.176.006.104.151-.159.322M60.057 163.917c8.497 2.777 22.93 7.112 30.533 9.172 11.413 3.091 14.687 6.477 4.311 4.457-22.024-4.286-41.341-9.665-46.535-12.959-1.661-1.054-1.728-1.457-.668-4.038l.416-1.014 3.544 1.397c1.949.769 5.728 2.112 8.399 2.985m292.221-3.145c1.265 3.161-.08 4.21-9.375 7.308-12.804 4.268-42.552 10.996-43.851 9.918-1.323-1.098 2.712-3.086 10.419-5.135 12.507-3.324 34.863-10.338 39.492-12.39 2.705-1.199 2.716-1.198 3.315.299m1.363 12.115c-.439 11.23-1.365 12-17.277 14.367-8.165 1.215-11.347 1.341-12.919.512-2.165-1.142-5.093-2.92-5.098-3.096-.023-.724 5.844-1.325 7.636-.783 2.11.639 4.868.356 12.931-1.327 7.401-1.545 8.324-2.492 9.761-10.021.767-4.013.858-4.173 3.062-5.372l1.533-.834.276.964c.151.531.194 3.046.095 5.59m-305.085-5.416 1.779.963.527 2.944c1.467 8.202 2.683 9.599 9.745 11.195 7.028 1.588 10.96 1.991 13.369 1.37 2.091-.539 4.297-.346 7.029.613.741.26-4.976 3.586-6.577 3.826-1.593.239-12.17-1.091-18.274-2.298-8.513-1.683-9.547-3.114-9.822-13.596-.096-3.643-.039-5.981.144-5.981.165 0 1.101.434 2.08.964m-4.045 4.22c.026 9.335 1.472 13.05 5.83 14.987 2.343 1.041 19.76 4.048 23.637 4.081.979.009 1.056.059.543.358-.725.421-4.962.171-12.001-.71-14.442-1.806-17.263-3.421-18.512-10.595-.576-3.306-.256-12.989.429-12.986.033.001.067 2.19.074 4.865m311.566 1.674c.075 14.104-2.875 16.019-27.528 17.87-4.419.332-4.886-.276-.577-.75 24.821-2.725 26.835-4.048 27.277-17.907.234-7.329.788-6.803.828.787m-297.465-.928c.395.256.721.712.725 1.015.036 2.853 1.724 4.039 7.868 5.53 2.723.661 5.043 1.302 5.157 1.425.37.401-5.155-.126-8.536-.815-5.785-1.18-6.263-1.634-7.51-7.142-.231-1.022.728-1.028 2.296-.013m284.795.265c-1.005 5.355-2.063 6.094-10.532 7.352-6.919 1.027-7.19.488-.538-1.07 6.532-1.53 8.333-2.853 8.333-6.125 0-.341 1.773-1.215 2.507-1.236.323-.009.382.268.23 1.079m-114.22 1.143c32.662.7 48.122 1.637 53.377 3.235 7.419 2.255 23.994 14.154 25.122 18.033 3.01 10.354-18.41 35.387-34.46 40.274-10.215 3.11-46.279 6.082-73.704 6.073-24.941-.008-58.264-2.568-70.142-5.389-17.499-4.156-40.903-30.098-37.22-41.257 1.358-4.116 19.582-16.488 26.819-18.207 9.051-2.15 68.853-3.649 110.208-2.762m-59.331 2.257c-26.31.606-45.789 1.656-50.079 2.699-6.323 1.538-23.653 13.197-25.021 16.834-3.192 8.479 17.476 31.968 32.594 37.043 11.614 3.899 57.338 7.038 86.685 5.951 25.804-.955 48.498-3.143 57.097-5.504 15.805-4.339 38.391-30.041 33.618-38.256-2.06-3.546-19.475-14.87-24.686-16.053-9.89-2.243-68.23-3.68-110.208-2.714m-81.766 2.069c8.855 1.681 9.809 1.899 9.491 2.162-2.653 2.198-6.432 4.025-7.919 3.829-11.121-1.467-11.807-1.769-12.75-5.63-.656-2.684-.994-2.673 11.178-.361m234.938-.198c-.433 3.657-1.35 4.323-7.322 5.318-6.922 1.154-7.186 1.125-10.731-1.168-1.639-1.06-2.882-2.029-2.762-2.153.316-.326 17.938-3.515 19.602-3.547l1.4-.027zm-141.803 4.685c3.304.605 3.305.612.223 1.412-2.885.749-4.054.764-7.117.091-3.009-.661-3-.837.071-1.451 3.275-.656 3.513-.657 6.823-.052m44.23.004c3.135.623 3.048.841-.635 1.595-2.865.587-3.906.513-7.705-.548-1.551-.433-1.423-.542 1.266-1.076 2.965-.589 3.979-.585 7.074.029m-62.676.246c3.184.561 3.205.607.623 1.333-2.495.701-5.21.762-7.82.176-2.431-.545-2.315-.797.638-1.388 3.188-.638 3.583-.646 6.559-.121m80.841.07c1.448.287 2.632.622 2.632.743 0 .411-5.682 1.326-6.924 1.116-3.992-.677-6.116-1.704-3.682-1.781.658-.02 1.627-.147 2.153-.281 1.571-.4 3.044-.348 5.821.203m-98.883.483c3.19.446 3.25.609.478 1.32-3.003.769-9.33.502-9.33-.394 0-.808 5.544-1.388 8.852-.926m117.304.242 2.233.558-1.435.438c-2.166.661-6.489.584-8.772-.157l-1.914-.621 1.914-.379c2.717-.537 5.391-.483 7.974.161m-50.837 4.096c5.883 5.948 5.383 4.822 5.383 12.128 0 7.469.363 6.635-5.343 12.274l-4.437 4.386h-13.323l-4.876-4.876-4.876-4.876v-13.647l4.851-4.887 4.851-4.888h13.433zm-82.017-3.628 2.392.399-1.754.564c-2.42.777-5.252.978-7.423.527-2.337-.485-2.303-.742.166-1.255 1.096-.228 2.137-.461 2.312-.519.609-.2 1.927-.113 4.307.284m147.856.077c1.13.284 1.985.63 1.899.769-.27.436-4.631 1.027-6.012.814-1.572-.242-4.448-1.15-4.255-1.343.75-.75 5.767-.893 8.368-.24m-82.538.656c-.608.101-2.125 1.46-5.024 4.5l-4.154 4.354v12.541l4.178 4.347 4.177 4.346 6.429.006 6.428.007 4.227-4.338 4.226-4.337v-12.557l-4.258-4.462-4.257-4.463-5.551-.044c-3.053-.025-5.943.021-6.421.1m4.595 6.244c.031 2.325.03 8.174-.002 12.999l-.059 8.772h-3.026v-8.358c0-4.597-.094-8.257-.208-8.134-.115.123-.845 1.864-1.622 3.868l-1.414 3.644-1.237-2.288c-1.611-2.984-1.594-3.008-1.49 2.097l.089 4.386-1.402-1.451-1.401-1.45-.035-5.138-.034-5.137 1.241-1.386 1.242-1.387 1.28 2.708c1.188 2.512 1.302 2.65 1.582 1.914.165-.437.91-2.517 1.654-4.622a444 444 0 0 1 1.626-4.545c.227-.599.512-.718 1.716-.718h1.443zm10.283-.331c3.534 3.726 3.695 3.955 3.695 5.263v1.368h-1.276c-1.177 0-1.276-.067-1.276-.87 0-.818-4.764-6.147-5.495-6.147-.135 0-.246 4.306-.246 9.569s.111 9.569.246 9.569 1.44-1.2 2.899-2.666c3.022-3.038 3.362-4.103 1.369-4.294-.923-.088-1.043-.196-.882-.797.103-.383.189-.875.191-1.094.003-.281.666-.399 2.237-.399h2.233v5.005l-3.869 3.877-3.87 3.877h-3.744v-26.156h4.094zm-38.503-2.578c3.496.506 3.741.735 1.501 1.402-2.34.696-5.412.768-8.027.188-2.565-.569-2.511-.808.319-1.397 2.957-.616 3.229-.625 6.207-.193m63.959.165c3.296.603 3.201.794-.787 1.578-2.689.528-2.803.525-5.822-.173-3.48-.804-3.545-.986-.535-1.488 3.071-.513 3.938-.503 7.144.083m-51.289.437c-.493.493-.882.595-1.666.438-1.831-.366-1.081-.876 1.52-1.033l.789-.048zm34.273-.444c1.231.246 1.284.626.12.858-.611.121-1.069-.013-1.507-.441-.71-.696-.429-.78 1.387-.417m34.861.341c3.47.665 3.491.817.22 1.524-2.78.601-4.2.532-7.371-.358-2.264-.635-2.162-.768.965-1.25 3.352-.517 3.029-.521 6.186.084m-97.345.351c.954.355-1.77 1.275-4.658 1.573-1.595.164-6.754-.724-6.38-1.098.897-.897 8.97-1.244 11.038-.475m115.212.305c3.269.649 3.414.811 1.14 1.282-3.544.734-4.035.738-6.926.059-3.448-.809-3.582-1.085-.73-1.5 3.156-.458 3.438-.452 6.516.159m-133.166.352c1.211.677-4.636 1.755-7.484 1.379-3.798-.501-4.169-.828-1.649-1.451 2.156-.533 8.135-.486 9.133.072m-18.645.255c2.38.262 2.313.523-.319 1.243-2.853.78-9.748.456-8.875-.417.413-.414 5.201-1.316 6.243-1.177.615.082 1.942.24 2.951.351m168.757-.028c3.319.723 3.455.827 1.658 1.275-2.253.561-5.319.543-7.61-.045-2.721-.698-2.821-.978-.476-1.338 2.991-.458 3.895-.443 6.428.108m-107.991 3.529c2.085.559.622 2.338-1.931 2.347-1.455.005-5.571-.894-5.802-1.267-.354-.574 6.204-1.489 7.733-1.08m46.138.319c3.247.596 3.157.779-.777 1.585-3.557.729-5.09.483-5.09-.817 0-1.443 1.278-1.61 5.867-.768m-63.922.163c3.455.464 3.674.692 1.302 1.358-3.119.875-4.833.96-7.485.37-3.029-.674-3.053-.977-.116-1.447 1.272-.203 2.456-.42 2.631-.482.546-.192.879-.174 3.668.201m82.086.115c1.375.263 2.568.478 2.65.478 1.064 0-.845.689-3.01 1.087-2.88.53-4.339.432-7.445-.499-1.718-.515-1.549-.767.759-1.137 2.953-.472 4.277-.459 7.046.071m-98.036.745c1.336.285 1.091.473-1.483 1.14-2.87.744-7.059.591-9.361-.342-2.104-.852 7.327-1.547 10.844-.798m117.108-.048 2.351.537-1.435.451c-2.69.844-6.053.87-8.665.065-2.473-.761-2.481-.805-.248-1.243 2.329-.457 5.497-.381 7.997.19m-136.889.528c2.982.441 2.987.525.071 1.338-1.981.552-6.634.532-8.598-.037-3.004-.871 4.105-1.956 8.527-1.301m155.31.21c2.051.466 1.762.762-1.272 1.304-2.466.441-4.466.293-7.142-.527l-1.914-.588 1.914-.397c2.19-.454 5.907-.363 8.414.208m-172.37.452c2.672.423 2.666.485-.137 1.286-2.509.717-8.635.402-8.635-.445 0-.838 5.473-1.363 8.772-.841m188.417.078c2.941.632 2.921.882-.115 1.394-2.592.437-4.362.293-7.121-.578l-1.914-.604 2.073-.33c3.072-.489 4.348-.468 7.077.118m-126.125 3.421c3.367.548 3.417.632.801 1.353-2.515.693-5.542.756-8.148.168-2.467-.556-2.315-.823.797-1.403 3.365-.627 3.412-.628 6.55-.118m63.651.074c3.298.605 3.236.843-.412 1.578-2.775.558-4.292.457-7.777-.521-1.585-.444-1.294-.693 1.326-1.136 3.016-.511 3.693-.503 6.863.079m18.541.401c3.231.633 3.217.712-.262 1.48-2.723.602-4.413.525-7.368-.334-2.206-.641-2.069-.843.888-1.304 3.131-.488 3.482-.48 6.742.158m-98.551.299c1.22.352-1.706 1.34-4.683 1.581-1.751.142-6.894-.736-6.518-1.112.898-.898 8.6-1.22 11.201-.469m-19.856.25c2.78.28 2.714.546-.341 1.37-3.152.851-10.108.429-9.15-.554.4-.411 5.127-1.296 6.221-1.166.614.074 2.086.231 3.27.35m136.683.033c3.191.662 3.259.86.478 1.393-2.766.531-5.024.478-7.329-.171-2.898-.815-2.933-.895-.566-1.304 3.184-.548 4.44-.534 7.417.082m17.279.606c4.386.818 4.229 1.126-.96 1.885-1.47.215-7.308-.939-7.308-1.444 0-.124 1.184-.367 2.631-.54 1.448-.174 2.692-.337 2.767-.363.074-.027 1.365.182 2.87.462m-170.483.38c1.593.447-2.527 1.483-5.887 1.48-2.414-.002-5.714-.591-5.35-.954.902-.902 8.612-1.263 11.237-.526m60.739 3.137c1.274.255 1.478 1.83.28 2.151-1.779.477-8.214-.367-8.214-1.078 0-.539 6.326-1.395 7.934-1.073m46.609.387c3.057.628 3.034.726-.341 1.471-3.614.798-5.528.6-5.663-.587-.186-1.631 1.305-1.85 6.004-.884m18.563.256c3.256.596 3.185.778-.609 1.574-2.806.589-5.012.405-8.063-.673-1.085-.383-1.094-.4-.319-.593 3.477-.866 5.55-.937 8.991-.308m-80.602.364c1.478.442-2.138 1.461-5.263 1.484-2.44.017-6.279-.661-5.905-1.044.865-.883 8.659-1.191 11.168-.44m98.709.05c3.704.775 3.701.769.807 1.405-3.158.694-4.542.667-7.563-.148-2.964-.8-2.955-.846.284-1.39 3.353-.563 3.124-.568 6.472.133m-117.05.289c2.142.507-2.984 1.756-6.374 1.552-2.528-.151-5.344-.736-5.035-1.046.911-.911 8.312-1.239 11.409-.506m135.566.401c3.006.545 3.23.773 1.24 1.263-2.474.609-6.146.542-8.506-.155-2.45-.724-2.332-.883.988-1.339 2.743-.377 2.966-.369 6.278.231m-153.908.242.957.273-1.276.347c-3.536.963-4.482 1.096-6.484.915-2.151-.194-4.694-.786-4.446-1.034.909-.908 8.614-1.251 11.249-.501m-19.936.483 2.392.398-2.186.698c-2.889.922-4.035.895-4.768-.112-1.091-1.498.027-1.739 4.562-.984m190.243-.246c.438.168.414.317-.182 1.155-.795 1.117-2.396 1.111-5.696-.022l-1.749-.6 2.073-.322c2.482-.386 4.863-.476 5.554-.211m-126.014 3.856 2.916.54-1.754.55c-2.966.93-4.811 1.039-7.711.455-3.543-.713-3.658-.969-.692-1.54 3.315-.637 3.825-.637 7.241-.005m65.117.209 1.595.434-1.338.373c-4.102 1.144-5.684 1.166-9.392.136-2.235-.622-2.188-.719.602-1.251 2.449-.467 6.182-.332 8.533.308m-84.256.031c3.544.576 3.567.609.937 1.334-2.571.709-5.561.765-8.308.155-2.634-.584-2.522-.777.798-1.373 3.628-.651 3.31-.645 6.573-.116m31.692 1.014c-.049.049-.802-.101-1.673-.333-1.48-.395-1.499-.51-.149-.916.415-.125 2.065 1.006 1.822 1.249m70.267-.863 2.712.565-1.276.35c-4.168 1.141-5.829 1.171-9.49.168-2.37-.65-2.311-.885.319-1.277 3.174-.474 4.72-.435 7.735.194m-35.406.026c0 .176-.126.319-.279.319s-.764.096-1.356.214c-.978.193-1.037.164-.639-.319.471-.572 2.274-.742 2.274-.214m54.019.497c2.516.564 2.512.639-.072 1.227-2.813.64-3.963.639-6.835-.006-3.358-.755-3.506-.956-.992-1.354 4.195-.665 4.35-.663 7.899.133m-138.23-.058 2.393.4-1.755.568c-3.119 1.011-8.861.962-10.686-.091-1.416-.817 6.346-1.494 10.048-.877m-17.177.792c1.512.56-4.761 1.715-7.196 1.326-3.294-.526-3.822-.811-2.262-1.218.702-.183 1.563-.409 1.914-.502.899-.237 6.65.064 7.544.394m172.903-.253c2.65.533 2.79.682 1.053 1.115-2.963.739-9.729.156-9.729-.838 0-.544 6.342-.746 8.676-.277m-109.114 3.975c1.274.268 2.369.541 2.435.606.373.373-5.977 1.498-7.42 1.315-1.811-.23-5.346-1.156-5.153-1.349.868-.867 7.07-1.217 10.138-.572m44.556-.041c1.283.244 2.405.517 2.494.606.177.177-5.205 1.5-6.102 1.5-1.029 0-6.266-1.337-6.06-1.547.819-.837 6.493-1.165 9.668-.559m-63.257.327 2.233.404-1.755.554c-3.191 1.006-12.055.669-10.993-.418.811-.83 7.12-1.154 10.515-.54m82.536-.082c2.912.443 3.057.658.797 1.184-3.818.889-9.257.575-10.56-.61-.822-.748 5.99-1.148 9.763-.574m18.66.29c3.156.522 3.249.709.638 1.288-2.706.6-6.379.538-8.647-.147-2.293-.693-2.211-.791 1.125-1.327 2.878-.462 2.981-.459 6.884.186m-118.899.246 1.116.268-1.914.608c-2.413.767-7.947.802-9.888.064l-1.276-.486 1.914-.382c1.052-.21 2.057-.444 2.233-.519.481-.207 6.539.139 7.815.447m-21.292.109c3.857.477 3.875.674.135 1.538-3.191.738-10.142.158-9.12-.761.109-.098 4.416-.965 5.556-1.119.175-.024 1.718.13 3.429.342m158.816.142c3.207.587 3.231.62.866 1.25-2.258.601-5.619.582-8.038-.045-2.842-.737-2.865-.883-.209-1.283 3.413-.514 4.19-.506 7.381.078m-225.15.935c10.141 1.118 10.75 1.379 15.82 6.788 3.934 4.198 9.933 10.992 9.812 11.112-.038.039-1.036-.15-2.217-.42l-2.148-.49-5.643-6.361c-7.086-7.988-9.883-9.24-20.58-9.207-7.132.021-9.173 5.749-9.711 27.265-.308 12.299.847 14.218 9.819 16.318q6.24 1.46.408.751c-6.841-.83-9.323-2.271-11.27-6.542-.958-2.102-.687-16.04.496-25.519 1.614-12.93 3.854-14.947 15.214-13.695m293.418-.14c5.715 1.226 8.095 10.053 8.29 30.741.11 11.688-1.666 13.938-11.969 15.162-3.573.425-3.84.22-.616-.473 10.808-2.323 11.864-4.312 10.934-20.59-1.309-22.899-2.855-24.83-18.014-22.495-5.633.868-5.543.805-12.214 8.455-2.374 2.722-4.562 5.215-4.864 5.54-.515.555-4.731 1.949-5.021 1.659-.128-.129 4.772-5.739 10.393-11.898 4.02-4.404 5.688-5.051 15.694-6.093 3.938-.41 5.502-.412 7.387-.008m-178.712 3.833c2.338.407 2.175.623-1.034 1.367-2.698.626-3.458.626-6.522-.002-3.302-.676-3.433-.955-.655-1.394 1.289-.203 2.558-.424 2.821-.491.594-.151 2.711.054 5.39.52m18.991-.199c1.393.266 2.588.541 2.657.609.725.726-6.313 1.514-8.998 1.008-3.828-.721-4.224-.993-2.058-1.415.947-.184 2.009-.397 2.359-.473 1.355-.295 3.611-.194 6.04.271m24.604-.157c4.193.726 4.192.719.121 1.607-3.142.686-5.617.543-8.584-.496l-1.128-.395 1.914-.382c1.053-.211 2.057-.434 2.233-.497.67-.239 3.629-.151 5.444.163m21.191.426 1.754.413-1.276.377c-3.328.984-5.49 1.127-8.252.548-3.285-.689-3.896-1.014-2.412-1.28.602-.108 1.741-.328 2.53-.488 1.698-.344 5.2-.147 7.656.43m-85.088-.056c3.494.433 3.783.651 1.595 1.206-3.539.897-4.949.979-7.817.454-3.048-.557-3.702-.946-2.08-1.237.575-.103 1.691-.309 2.481-.459 2.063-.392 2.378-.39 5.821.036m103.034.063c2.834.548 2.869.656.421 1.271-3.214.807-8.425.451-10.23-.699-1.148-.731 6.642-1.186 9.809-.572m-121.296.326c2.859.445 2.855.488-.128 1.328-2.582.727-10.523.156-9.671-.696.844-.844 6.209-1.19 9.799-.632m140.291-.003c2.906.554 3.005.656 1.109 1.134-3.543.892-10.937.455-10.937-.647 0-.77 6.621-1.099 9.828-.487m-221.56 1.867c.077.219-.061 2.545-.306 5.169-.481 5.153-.359 5.998.949 6.548.68.286 15.892 2.395 35.65 4.943 8.996 1.16 10.208 1.421 10.208 2.194 0 1.641-1.528 1.516-36.667-3.001-10.56-1.358-10.928-1.344-11.335.419-.437 1.898-1.75 12.841-1.597 13.321.492 1.551 4.967 2.509 12.165 2.606 4.603.061 5.235-.248 12.511-6.118 5.396-4.354 5.577-4.469 7.017-4.438 2.932.063 3.184.289 1.755 1.568-2.877 2.576-11.15 9.171-12.797 10.202l-1.784 1.117-5.128-.029c-8.856-.049-14.738-1.224-16.027-3.202-1.715-2.631.585-28.058 2.792-30.863.7-.891 2.34-1.166 2.594-.436m297.684-.2c.766.294 1.631 2.234 2.045 4.586 1.155 6.551 2.088 17.946 1.906 23.277l-.11 3.249-1.159 1.06c-1.329 1.218-2.467 1.509-8.73 2.232-9.657 1.116-11.849.716-16.587-3.026-7.952-6.281-11.058-9.083-10.304-9.296 2.074-.585 3.935-.3 5.223.8 4.328 3.7 10.123 8.072 11.62 8.768 3.2 1.487 15.945.57 16.901-1.216.527-.986-.541-11.562-1.461-14.46-.369-1.164-1.374-1.142-12.582.275-31.251 3.951-34.12 4.238-34.869 3.489-.87-.87.05-1.636 2.285-1.902 3.611-.431 37.299-4.938 40.355-5.4 4.579-.691 4.419-.223 3.52-10.322l-.206-2.313h.817c.45 0 1.051.09 1.336.199m-188.254 3.338c3.195.453 3.198.616.023 1.355-2.868.668-4.406.668-7.522-.002-3.172-.681-3.12-.91.311-1.371 1.535-.206 2.935-.424 3.11-.483.176-.059.535-.06.798-.002s1.739.285 3.28.503m20.102-.019c2.599.457 2.56.535-.639 1.293-3.087.732-4.301.749-7.21.1-3.136-.701-3.225-.952-.491-1.39 1.288-.206 2.486-.434 2.661-.506.448-.184 3.117.052 5.679.503m22.788.016c2.592.471 2.336.74-1.369 1.438-3.178.599-5.178.469-8.597-.559l-1.276-.383 2.711-.569c2.824-.592 4.971-.573 8.531.073m21.523-.137c3.278.6 3.196.775-.746 1.587-2.591.533-2.86.533-5.545.006-4.041-.794-4.206-1.001-1.246-1.57 3.339-.641 4.145-.644 7.537-.023m19.096.004c3.643.605 3.667.802.178 1.512-3.125.636-4.083.637-6.794.009-3.098-.719-3.426-.99-1.532-1.263.87-.126 2.156-.338 2.858-.473 1.868-.359 1.829-.36 5.29.215m-103.217.156c3.184.463 3.471.699 1.533 1.262-2.674.776-11.407.324-10.537-.546.782-.781 5.806-1.181 9.004-.716m123.605.292 1.754.407-1.435.455c-3.095.982-7.674.832-10.527-.344-2.219-.915 6.574-1.361 10.208-.518m-100.223 4.97c3.034.602 3.022.839-.07 1.33-1.811.288-2.625.258-4.545-.164-2.858-.628-2.924-.871-.346-1.283 1.097-.176 2.066-.339 2.153-.364s1.352.192 2.808.481m74.66-.022c.901.119 1.639.323 1.639.451 0 .85-7.778 1.203-9.039.411-.49-.308 3.853-1.373 4.928-1.208.457.07 1.57.226 2.472.346m-14.688.261c3.042.581 3.05.632.2 1.303-2.091.493-2.733.519-4.71.193-2.998-.496-3.257-.842-.967-1.294 1.027-.203 2.012-.42 2.187-.483.564-.201.915-.171 3.29.281m-44.613.307c2.073.484 1.895.65-1.263 1.178-2.311.387-7.802-.292-7.204-.891.698-.698 5.945-.876 8.467-.287m14.446-.044c3.046.479 3.088.696.259 1.34-3.171.721-9.982.171-9.097-.734.815-.834 5.392-1.148 8.838-.606m16.473-.019c2.926.514 3 .761.404 1.352-3.144.715-10.356.186-9.474-.695.831-.831 5.961-1.203 9.07-.657m71.329 24.579c4.015 1.364 12.524 6.779 21.828 13.891 7.938 6.069 9.563 5.624-21.278 5.817l-25.537.159-.97.718c-.957.708-1.106.718-10.829.718-9.74 0-9.869-.009-10.771-.718l-.912-.718h-68.702l-.971.718c-.957.708-1.106.718-10.829.718-9.74 0-9.869-.009-10.771-.718l-.912-.718-25.586-.085-25.586-.085-.213-.671c-.117-.369-.019-1.032.218-1.476.938-1.753 18.1-13.819 23.081-16.228 5.123-2.477-2.007-2.293 86.603-2.238l79.585.05zm-161.414 1.65c-3.95.964-15.46 9.021-15.46 10.822 0 .296.287.824.638 1.175.885.885 185.271 1.025 186.532.142q1.068-.748.508-2.209c-.454-1.181-10.971-8.548-13.732-9.618-1.95-.755-155.43-1.058-158.486-.312"/><path fill="#fbfbfb" d="M0 200v200h400V0H0zM123.213 64.816c.702.211 2.032 1.073 2.955 1.917.923.843 1.872 1.466 2.109 1.384 1.3-.452 24.705-2.105 38.709-2.735 12.528-.563 41.43-.742 55.183-.342 16.894.492 32.541 1.388 44.373 2.543l5.653.552 1.386-1.347c4.514-4.387 12.586-2.823 16.288 3.156.97 1.567 1.443 1.986 3.175 2.813 7.081 3.379 17.569 20.94 30.751 51.485l2.477 5.742 2.46.094 2.459.094-.22-1.529c-1.197-8.338-.638-13.832 1.554-15.268 4.184-2.742 26.437 1.249 30.692 5.504 1.686 1.685 3.601 6.48 2.589 6.48-1.031 0-14.763 1.001-15.637 1.14-1.232.196-2.801 1.204-2.801 1.8 0 .344 10.678.151 15.919-.287l2.362-.198-.187 1.155c-.476 2.935-2.778 6.071-5.494 7.484-2.13 1.108-9.03 1.444-11.544.561-1.118-.392-3.005-.579-6.957-.689-6.913-.192-7.2-.243-8.785-1.567-1.268-1.06-4.368-2.25-5.166-1.984-.237.079-.095.362.371.742 2.411 1.968 3.038 2.677 4.485 5.073 1.802 2.983 1.944 3.098 5.906 4.763 7.66 3.22 12.283 6.679 14.363 10.746.412.807 1.418 2.242 2.236 3.19 11.884 13.782 15.031 37.558 10.634 80.352-.42 4.088-.735 10.428-.919 18.5-.154 6.755-.356 12.712-.45 13.238-.093.526-.393 4.904-.667 9.729-1.729 30.494-3.244 37.173-8.874 39.137-2.121.74-29.946.87-32.369.152-4.26-1.264-5.622-4.889-6.64-17.678l-.552-6.938-3.692-.018c-4.807-.024-5.714-.337-6.649-2.295l-.725-1.516-104.178.08-104.178.081-.361 1.086c-.669 2.016-1.62 2.402-6.364 2.582l-4.204.159-.236 3.828c-.898 14.594-2.086 18.442-6.281 20.336-3.104 1.402-31.189 1.114-34.055-.349-4.424-2.259-6.133-9.978-7.425-33.543-.188-3.422-.56-9.163-.827-12.76s-.611-11.563-.764-17.703c-.166-6.64-.541-13.814-.923-17.703-2.812-28.549-1.958-51.368 2.388-63.884 1.885-5.425 7.326-14.76 9.325-15.995.184-.114.796-1.071 1.359-2.127 2.195-4.119 6.753-7.448 15.031-10.979 3.039-1.296 3.594-1.812 5.938-5.526.909-1.44 1.872-2.509 2.77-3.077 1.4-.885 2.051-1.762 1.308-1.762-1.173 0-3.825 1.098-4.977 2.061-1.55 1.295-2.057 1.38-9.266 1.558-4.074.1-5.549.254-6.531.682-1.877.818-9.264.578-11.36-.368-2.625-1.186-5.074-4.458-5.901-7.885l-.223-.923 2.518.197c1.385.108 5.584.292 9.331.409l6.814.212-.361-.675c-.706-1.319-1.936-1.514-15.442-2.45l-3.133-.217.221-1.324c1.142-6.846 11.454-11.066 27.31-11.178 7.814-.055 9.027 1.772 7.933 11.953-.632 5.885-.873 5.222 1.937 5.329l2.428.093 1.358-3.282c12.157-29.383 24.545-50.472 31.733-54.025 2.006-.992 2.57-1.44 3.09-2.46 2.408-4.72 8.238-7.143 13.437-5.586m-4.004 2.93c-1.96.542-2.909 1.458-4.104 3.963-1.208 2.53-1.17 2.557 1.147.805 2.502-1.892 4.541-2.899 7.283-3.595l2.252-.572-1.091-.345c-1.897-.598-3.911-.693-5.487-.256m156.942.001c-2.116.583-2.107.687.098 1.155 2.538.539 5.119 1.792 7.458 3.622 2.371 1.855 2.463 1.741.919-1.135-1.839-3.426-4.736-4.671-8.475-3.642m-95.609 8.535c-36.141.46-65.801 2.333-72.013 4.547-5.18 1.847-11.393 12.112-21.061 34.801-6.2 14.549-6.403 15.849-2.7 17.278 1.996.77 227.968.932 230.134.165 3.498-1.239 3.493-2.73-.034-11.501-9.42-23.42-17.654-38.114-22.596-40.324-7.729-3.455-57.319-5.66-111.73-4.966M74.349 136.326c.073.067 1.783 1.094 3.801 2.281 7.247 4.266 16.929 10.997 22.647 15.744 3.388 2.813 9.108 7.81 10.758 9.398 3.754 3.613 1.65.94-2.747-3.491-7.133-7.187-13.218-12.125-20.77-16.854-4.122-2.581-14.813-8.109-13.689-7.078m244.79 2.693c-5.746 2.966-6.624 3.48-11.165 6.537-7.178 4.834-13.477 10.411-20.578 18.219-1.905 2.095-.515.995 4.283-3.39 9.228-8.431 18.009-14.929 28.736-21.262 6.733-3.975 6.293-4.011-1.276-.104m-271.441 21.53c-1.06 2.581-.993 2.984.668 4.038 5.194 3.294 24.511 8.673 46.535 12.959 10.376 2.02 7.102-1.366-4.311-4.457-12.94-3.505-32.413-9.586-38.932-12.157l-3.544-1.397zm301.265-.076c-4.629 2.052-26.985 9.066-39.492 12.39-7.707 2.049-11.742 4.037-10.419 5.135 1.299 1.078 31.047-5.65 43.851-9.918 9.295-3.098 10.64-4.147 9.375-7.308-.599-1.497-.61-1.498-3.315-.299m2.774 6.694c-2.204 1.199-2.295 1.359-3.062 5.372-1.437 7.529-2.36 8.476-9.761 10.021-8.063 1.683-10.821 1.966-12.931 1.327-1.792-.542-7.659.059-7.636.783.005.176 2.933 1.954 5.098 3.096 1.572.829 4.754.703 12.919-.512 13.606-2.024 15.22-2.787 16.58-7.828.597-2.215 1.017-10.678.602-12.129l-.276-.964zm-305.405 5.321c.275 10.482 1.309 11.913 9.822 13.596 6.104 1.207 16.681 2.537 18.274 2.298 1.601-.24 7.318-3.566 6.577-3.826-2.732-.959-4.938-1.152-7.029-.613-2.409.621-6.341.218-13.369-1.37-7.062-1.596-8.278-2.993-9.745-11.195l-.527-2.944-1.779-.963c-.979-.53-1.915-.964-2.08-.964-.183 0-.24 2.338-.144 5.981m-2.211-5.263c-.432.674-.518 10.262-.113 12.587 1.249 7.174 4.07 8.789 18.512 10.595 7.039.881 11.276 1.131 12.001.71.513-.299.436-.349-.543-.358-3.877-.033-21.294-3.04-23.637-4.081-4.358-1.937-5.804-5.652-5.83-14.987-.007-2.675-.041-4.864-.074-4.865-.034 0-.176.18-.316.399m311.128 5.353c-.353 11.077-1.91 13.548-9.556 15.159-3.384.713-13.557 2.291-17.721 2.748-4.309.474-3.842 1.082.577.75 24.653-1.851 27.603-3.766 27.528-17.87-.04-7.59-.594-8.116-.828-.787m-298.933-.128c1.247 5.508 1.725 5.962 7.51 7.142 3.381.689 8.906 1.216 8.536.815-.114-.123-2.434-.764-5.157-1.425-6.144-1.491-7.832-2.677-7.868-5.53-.008-.632-1.035-1.379-2.335-1.699-.851-.209-.883-.176-.686.697m285.391-.364c-.571.248-1.037.596-1.037.773 0 3.272-1.801 4.595-8.333 6.125-6.652 1.558-6.381 2.097.538 1.07 7.286-1.082 9.037-1.917 9.864-4.701 1.143-3.849 1.042-4.168-1.032-3.267m-165.471 1.653c-27.242.456-52.41 1.717-57.257 2.868-7.237 1.719-25.461 14.091-26.819 18.207-2.814 8.524 11.745 28.15 27.936 37.659 6.664 3.914 18.759 5.959 46.571 7.875 43.17 2.973 99.161-.563 111.431-7.038 16.456-8.684 32.243-29.064 29.588-38.197-1.128-3.879-17.703-15.778-25.122-18.033-8.128-2.471-60.307-4.111-106.328-3.341m53.27 2.336c49.557 1.124 51.293 1.38 63.147 9.293 12.711 8.485 13.868 10.013 11.965 15.794-4.8 14.572-23.462 30.517-38.749 33.106-42.22 7.151-125.692 5.27-142.522-3.213-14.823-7.471-31.387-27.991-28.591-35.42 1.368-3.637 18.698-15.296 25.021-16.834 8.734-2.124 69.595-3.636 109.729-2.726m-152.781.623c-.232.376.404 3.053 1.014 4.268.69 1.374 3.193 2.045 11.923 3.196 1.487.196 5.266-1.631 7.919-3.829.318-.263-.636-.481-9.491-2.162-9.535-1.811-11.036-2.006-11.365-1.473m234.698 1.399c-4.945.906-9.09 1.749-9.21 1.873s1.123 1.093 2.762 2.153c3.545 2.293 3.809 2.322 10.731 1.168 5.972-.995 6.889-1.661 7.322-5.318l.187-1.577-1.4.027c-.77.015-5.447.768-10.392 1.674m-137.021 4.613c-3.071.614-3.08.79-.071 1.451 3.063.673 4.232.658 7.117-.091 3.082-.8 3.081-.807-.223-1.412-3.31-.605-3.548-.604-6.823.052m43.979-.077c-3.182.632-3.015.798 1.814 1.805 1.844.385 6.916-.278 7.653-.999.873-.855-6.192-1.457-9.467-.806m-62.161.396c-2.953.591-3.069.843-.638 1.388 3.038.682 10.718-.041 9.834-.926-.836-.835-6.028-1.096-9.196-.462m81.579-.254c-.526.134-1.495.261-2.153.281-2.434.077-.31 1.104 3.682 1.781 1.242.21 6.924-.705 6.924-1.116 0-.7-6.54-1.433-8.453-.946m-99.601.894c-2.786.608-2.869.82-.505 1.295 3.097.622 9.675-.014 9.675-.935 0-.777-6.152-1.019-9.17-.36m115.869-.127-1.914.379 1.914.621c2.283.741 6.606.818 8.772.157l1.435-.438-2.233-.558c-2.583-.644-5.257-.698-7.974-.161m-65.484 4.759-4.851 4.887v13.647l4.876 4.876 4.876 4.876h13.323l4.437-4.386c5.706-5.639 5.343-4.805 5.343-12.274 0-7.306.5-6.18-5.383-12.128l-4.337-4.386h-13.433zm-63.703-4.414c-.175.058-1.216.291-2.312.519-2.469.513-2.503.77-.166 1.255 2.171.451 5.003.25 7.423-.527l1.754-.564-2.392-.399c-2.38-.397-3.698-.484-4.307-.284m145.331.19c-1.899.373-1.911.469-.136 1.049 2.908.95 8.253.885 8.867-.109.516-.835-5.801-1.516-8.731-.94m-59.477 5.234 4.258 4.462v12.557l-4.226 4.337-4.227 4.338-6.428-.007-6.429-.006-4.177-4.346-4.178-4.347v-12.541l4.154-4.354c4.792-5.025 3.887-4.661 11.445-4.6l5.551.044zm-14.85-1.671c-.15.394-.881 2.44-1.626 4.545a442 442 0 0 1-1.654 4.622c-.28.736-.394.598-1.582-1.914l-1.28-2.708-1.242 1.387-1.241 1.386.034 5.137.035 5.138 1.401 1.45 1.402 1.451-.089-4.386c-.104-5.105-.121-5.081 1.49-2.097l1.237 2.288 1.414-3.644c.777-2.004 1.507-3.745 1.622-3.868.114-.123.208 3.537.208 8.134v8.358h3.026l.059-8.772c.032-4.825.033-10.674.002-12.999l-.057-4.226H197.6c-1.204 0-1.489.119-1.716.718m5.711 12.36v13.078h3.744l3.87-3.877 3.869-3.877v-5.005h-2.233c-1.571 0-2.234.118-2.237.399-.002.219-.088.711-.191 1.094-.161.601-.041.709.882.797 1.993.191 1.653 1.256-1.369 4.294-1.459 1.466-2.764 2.666-2.899 2.666s-.246-4.306-.246-9.569.111-9.569.246-9.569c.731 0 5.495 5.329 5.495 6.147 0 .803.099.87 1.276.87h1.276v-1.368c0-1.308-.161-1.537-3.695-5.263l-3.694-3.895h-4.094zm-36.922-11.568c-2.83.589-2.884.828-.319 1.397 3.342.741 11.175-.078 9.462-.99-1.61-.858-6.035-1.055-9.143-.407m63.022-.111c-3.01.502-2.945.684.535 1.488 3.019.698 3.133.701 5.822.173 3.988-.784 4.083-.975.787-1.578-3.206-.586-4.073-.596-7.144-.083m-45.957.105c-1.181.179-1.108.603.146.853.784.157 1.173.055 1.666-.438l.643-.643-.789.048c-.434.026-1.183.107-1.666.18m34.698.388c.438.428.896.562 1.507.441 1.164-.232 1.111-.612-.12-.858-1.816-.363-2.097-.279-1.387.417m30.062-.16c-3.127.482-3.229.615-.965 1.25 3.171.89 4.591.959 7.371.358 3.271-.707 3.25-.859-.22-1.524-3.157-.605-2.834-.601-6.186-.084m-100.177.31c-2.555.589-2.533.698.263 1.32 2.727.607 4.668.519 7.643-.346 3.489-1.014-3.826-1.916-7.906-.974m117.714.271c-2.852.415-2.718.691.73 1.5 2.891.679 3.382.675 6.926-.059 2.274-.471 2.129-.633-1.14-1.282-3.078-.611-3.36-.617-6.516-.159m-135.783.439c-2.52.623-2.149.95 1.649 1.451 2.848.376 8.695-.702 7.484-1.379-.998-.558-6.977-.605-9.133-.072m-16.049.397c-3.15.726-3.245.855-.984 1.343 2.609.562 4.703.513 7.202-.17 2.632-.72 2.699-.981.319-1.243a164 164 0 0 1-2.951-.351c-.614-.082-2.228.107-3.586.421m168.866-.206c-2.345.36-2.245.64.476 1.338 2.848.732 10.715.243 8.726-.541-2.557-1.009-5.918-1.3-9.202-.797m-106.987 3.976c-2.919.562-2.907.832.067 1.509 3.95.898 6.074.628 6.074-.773s-1.654-1.599-6.141-.736m46.093-.328c-1.008.407-.441 1.984.798 2.219 1.162.221 6.028-.563 7.05-1.135.935-.523-6.643-1.57-7.848-1.084m-62.121.27c-.175.062-1.359.279-2.631.482-2.937.47-2.913.773.116 1.447 2.652.59 4.366.505 7.485-.37 2.372-.666 2.153-.894-1.302-1.358-2.789-.375-3.122-.393-3.668-.201m78.708.245c-2.308.37-2.477.622-.759 1.137 3.106.931 4.565 1.029 7.445.499 2.165-.398 4.074-1.087 3.01-1.087-.082 0-1.275-.215-2.65-.478-2.769-.53-4.093-.543-7.046-.071m-99.92.836c-2.471.604-2.471.742 0 1.292 2.774.618 8.08.139 9.724-.877 1.276-.789-6.785-1.133-9.724-.415m118.041-.258c-2.233.438-2.225.482.248 1.243 2.612.805 5.975.779 8.665-.065l1.435-.451-2.351-.537c-2.5-.571-5.668-.647-7.997-.19m-135.664.863c-3.75.75-3.174 1.222 1.899 1.558 2.733.181 5.931-.31 7.265-1.114 1.203-.725-6.013-1.075-9.164-.444m153.668-.143-1.914.397 1.914.588c3.27 1.003 7.975.945 9.697-.119 1.288-.796-6.628-1.503-9.697-.866m-170.415.783c-2.786.608-2.869.82-.505 1.295 3.109.625 6.14.349 9.038-.821 1.732-.699-5.627-1.108-8.533-.474m187.799-.163-2.073.33 1.914.604c3.213 1.015 8.916.986 9.555-.047.517-.837-5.905-1.443-9.396-.887m-125.598 3.657c-3.112.58-3.264.847-.797 1.403 3.123.704 11.059-.022 10.152-.928-.818-.818-6.08-1.085-9.355-.475m63.338-.123c-2.62.443-2.911.692-1.326 1.136 3.485.978 5.002 1.079 7.777.521 3.648-.735 3.71-.973.412-1.578-3.17-.582-3.847-.59-6.863-.079m18.662.322c-2.957.461-3.094.663-.888 1.304 2.955.859 4.645.936 7.368.334 3.479-.768 3.493-.847.262-1.48-3.26-.638-3.611-.646-6.742-.158m-100.99.326c-2.553.589-2.532.699.246 1.317 3.543.788 11.923-.324 8.935-1.186-1.743-.503-7.229-.582-9.181-.131m-17.512.443c-3.215.715-3.278.867-.619 1.472 2.946.67 4.126.643 7.115-.164 3.055-.824 3.121-1.09.341-1.37a223 223 0 0 1-3.27-.35c-.614-.073-2.219.112-3.567.412m136.103-.111c-2.367.409-2.332.489.566 1.304 2.752.775 9.482.449 9.482-.459 0-.898-6.546-1.448-10.048-.845m19.059.589c-1.447.173-2.631.416-2.631.54 0 .505 5.838 1.659 7.308 1.444 3.035-.444 4.608-.871 4.148-1.125-.435-.24-5.784-1.32-6.058-1.222-.075.026-1.319.189-2.767.363m-173.898.398c-2.576.591-2.627.654-.935 1.151 2.094.615 6.454.518 8.87-.196 1.968-.582 2.018-.621 1.117-.874-1.861-.523-6.93-.568-9.052-.081m64.488 3.589c-3.2.589-3.253.77-.432 1.451 4.016.969 6.732.67 6.732-.743 0-1.396-1.594-1.575-6.3-.708m46.227-.292c-.241.153-.379.668-.319 1.192.135 1.187 2.049 1.385 5.663.587 3.375-.745 3.398-.843.341-1.471-2.975-.612-5.03-.723-5.685-.308m17.809.394c-3.346.532-3.521.616-2.233 1.071 3.051 1.078 5.257 1.262 8.063.673 3.794-.796 3.865-.978.609-1.574-3.119-.57-3.807-.588-6.439-.17m-83.471.379c-2.306.536-2.341.744-.207 1.231 3.665.837 12.549-.168 9.515-1.076-1.584-.474-7.51-.573-9.308-.155m101.545.072c-3.239.544-3.248.59-.284 1.39 3.021.815 4.405.842 7.563.148 2.894-.636 2.897-.63-.807-1.405-3.348-.701-3.119-.696-6.472-.133m-119.804.324c-2.542.583-2.608.65-1.091 1.113 2.536.774 6.454.763 9.047-.025 2.385-.726 2.386-.726 1.27-.99-2.246-.532-7.111-.583-9.226-.098m138.514.268c-3.32.456-3.438.615-.988 1.339 2.36.697 6.032.764 8.506.155 1.99-.49 1.766-.718-1.24-1.263-3.312-.6-3.535-.608-6.278-.231m-156.696.37c-1.126.258-2.108.53-2.183.604-.248.248 2.295.84 4.446 1.034 2.002.181 2.948.048 6.484-.915l1.276-.347-.957-.273c-1.878-.534-6.932-.592-9.066-.103m-15.812.464c-.984 1.591 1.866 2.266 5.148 1.218l2.186-.698-2.392-.398c-2.962-.493-4.687-.536-4.942-.122m189.631.087-2.073.322 1.749.6c3.3 1.133 4.901 1.139 5.696.022 1.022-1.435-.494-1.702-5.372-.944m-127.701 3.65c-2.966.571-2.851.827.692 1.54 2.9.584 4.745.475 7.711-.455l1.754-.55-2.916-.54c-3.416-.632-3.926-.632-7.241.005m63.825-.104c-2.79.532-2.837.629-.602 1.251 3.708 1.03 5.29 1.008 9.392-.136l1.338-.373-1.595-.434c-2.351-.64-6.084-.775-8.533-.308m-82.296.455c-3.32.596-3.432.789-.798 1.373 2.747.61 5.737.554 8.308-.155 2.63-.725 2.607-.758-.937-1.334-3.263-.529-2.945-.535-6.573.116m36.443-.351c-1.35.406-1.331.521.149.916.871.232 1.624.382 1.673.333.243-.243-1.407-1.374-1.822-1.249m64.354.192c-2.63.392-2.689.627-.319 1.277 3.661 1.003 5.322.973 9.49-.168l1.276-.35-2.712-.565c-3.015-.629-4.561-.668-7.735-.194m-29.945.434c-.398.483-.339.512.639.319.592-.118 1.202-.214 1.356-.214.153 0 .279-.143.279-.319 0-.528-1.803-.358-2.274.214m51.556-.306c-5.59.619-5.989.952-2.17 1.81 2.979.668 9.75.173 8.924-.653-.449-.448-5.436-1.303-6.754-1.157m-141.627.684c-2.493.603-2.454.731.393 1.317 2.407.495 5.959.282 8.379-.502l1.755-.568-2.393-.4c-3.214-.536-5.458-.494-8.134.153m-16.587.245c-.351.093-1.212.319-1.914.502-1.56.407-1.032.692 2.262 1.218 2.435.389 8.708-.766 7.196-1.326-.894-.33-6.645-.631-7.544-.394m173.286.036c-2.079.164-1.899.548.544 1.162 2.392.601 5.401.624 7.67.058 3.395-.846-2.276-1.689-8.214-1.22m-109.77 4.089c-1.206.24-2.251.493-2.321.563-.193.193 3.342 1.119 5.153 1.349 1.443.183 7.793-.942 7.42-1.315-.901-.9-6.952-1.253-10.252-.597m44.88-.058c-1.085.198-2.063.453-2.175.567-.206.21 5.031 1.547 6.06 1.547.897 0 6.279-1.323 6.102-1.5-.836-.836-6.773-1.201-9.987-.614m-64.115.319c-2.768.505-2.723.675.345 1.319 3.056.641 5.697.534 8.484-.345l1.755-.554-2.233-.404c-2.717-.491-5.717-.497-8.351-.016m82.559-.051c-2.084.379-1.857.641 1.186 1.369 2.834.679 9.614.116 9.614-.799 0-.74-7.644-1.144-10.8-.57m20.104.089c-3.336.536-3.418.634-1.125 1.327 2.268.685 5.941.747 8.647.147 2.611-.579 2.518-.766-.638-1.288-3.903-.645-4.006-.648-6.884-.186m-119.83-.015c-.176.075-1.181.309-2.233.519l-1.914.382 1.276.486c1.941.738 7.475.703 9.888-.064l1.914-.608-1.116-.268c-1.276-.308-7.334-.654-7.815-.447m-19.777.735c-3.751.704-3.719.808.469 1.531 2.945.508 8.941-.224 8.941-1.092 0-.212-5.787-1.062-6.539-.96-.176.023-1.468.258-2.871.521m157.735-.115c-2.656.4-2.633.546.209 1.283 2.419.627 5.78.646 8.038.045 2.365-.63 2.341-.663-.866-1.25-3.191-.584-3.968-.592-7.381-.078m-226.085.983c-3.022.943-4.764 3.16-5.802 7.381-1.884 7.667-2.945 28.894-1.592 31.863 1.947 4.271 4.429 5.712 11.27 6.542q5.833.709-.408-.751c-8.972-2.1-10.127-4.019-9.819-16.318.538-21.516 2.579-27.244 9.711-27.265 10.697-.033 13.494 1.219 20.58 9.207l5.643 6.361 2.148.49c1.181.27 2.179.459 2.217.42.121-.12-5.878-6.914-9.812-11.112-5.07-5.409-5.679-5.67-15.82-6.788-5.37-.591-6.506-.596-8.316-.03m294.347-.102c-10.006 1.042-11.674 1.689-15.694 6.093-5.621 6.159-10.521 11.769-10.393 11.898.29.29 4.506-1.104 5.021-1.659.302-.325 2.49-2.818 4.864-5.54 6.671-7.65 6.581-7.587 12.214-8.455 15.159-2.335 16.705-.404 18.014 22.495.93 16.278-.126 18.267-10.934 20.59-3.224.693-2.957.898.616.473 6.478-.769 8.69-1.826 10.699-5.114 1.468-2.4 1.746-10.786.731-22.009-1.58-17.467-3.601-19.973-15.138-18.772m-176.715 3.305c-.263.067-1.532.288-2.821.491-2.778.439-2.647.718.655 1.394 3.321.68 7.14.365 9.141-.755.682-.382-5.789-1.431-6.975-1.13m18.341.05c-.35.076-1.412.289-2.359.473-2.166.422-1.77.694 2.058 1.415 2.685.506 9.723-.282 8.998-1.008-.603-.602-6.999-1.25-8.697-.88m25.2-.049c-.176.063-1.18.286-2.233.497l-1.914.382 1.128.395c3.35 1.173 10.426.99 11.719-.303.529-.53-7.446-1.419-8.7-.971m18.979.159c-.789.16-1.928.38-2.53.488-1.484.266-.873.591 2.412 1.28 2.762.579 4.924.436 8.252-.548l1.276-.377-1.754-.413c-2.456-.577-5.958-.774-7.656-.43m-83.253.338c-.79.15-1.906.356-2.481.459-1.622.291-.968.68 2.08 1.237 2.868.525 4.278.443 7.817-.454 2.188-.555 1.899-.773-1.595-1.206-3.443-.426-3.758-.428-5.821-.036m100.797.101c-2.327.41-2.265.559.527 1.282 2.949.764 10.764.209 9.855-.7-.842-.842-6.958-1.185-10.382-.582m-120.694.371c-2.695.536-2.81.637-1.266 1.108 3.079.94 7.774.706 10.955-.545 1.755-.69-6.604-1.176-9.689-.563m139.912-.108c-2.619.402-2.515.665.54 1.363 3.025.691 10.628.14 9.78-.708-.807-.807-6.839-1.19-10.32-.655M49.47 224.439c-2.207 2.805-4.507 28.232-2.792 30.863 1.289 1.978 7.171 3.153 16.027 3.202l5.128.029 1.784-1.117c1.647-1.031 9.92-7.626 12.797-10.202 1.429-1.279 1.177-1.505-1.755-1.568-1.44-.031-1.621.084-7.017 4.438-7.276 5.87-7.908 6.179-12.511 6.118-7.198-.097-11.673-1.055-12.165-2.606-.153-.48 1.16-11.423 1.597-13.321.407-1.763.775-1.777 11.335-.419 35.139 4.517 36.667 4.642 36.667 3.001 0-.773-1.212-1.034-10.208-2.194-19.758-2.548-34.97-4.657-35.65-4.943-1.308-.55-1.43-1.395-.949-6.548.245-2.624.383-4.95.306-5.169-.254-.73-1.894-.455-2.594.436m298.331 1.478c.899 10.099 1.059 9.631-3.52 10.322-3.056.462-36.744 4.969-40.355 5.4-2.235.266-3.155 1.032-2.285 1.902.749.749 3.618.462 34.869-3.489 11.208-1.417 12.213-1.439 12.582-.275.92 2.898 1.988 13.474 1.461 14.46-.956 1.786-13.701 2.703-16.901 1.216-1.497-.696-7.292-5.068-11.62-8.768-1.288-1.1-3.149-1.385-5.223-.8-.754.213 2.352 3.015 10.304 9.296 4.738 3.742 6.93 4.142 16.587 3.026 6.263-.723 7.401-1.014 8.73-2.232l1.159-1.06.11-3.249c.127-3.712-.384-12.05-1.072-17.498-1.142-9.044-1.748-10.564-4.215-10.564h-.817zm-190.385.723c-.175.059-1.575.277-3.11.483-3.431.461-3.483.69-.311 1.371 3.116.67 4.654.67 7.522.002 3.175-.739 3.172-.902-.023-1.355-1.541-.218-3.017-.445-3.28-.503s-.622-.057-.798.002m18.501-.021c-.175.072-1.373.3-2.661.506-2.734.438-2.645.689.491 1.39 3.063.683 8.821.187 9.859-.85.351-.351-6.961-1.346-7.689-1.046m19.936.446-2.711.569 1.276.383c3.419 1.028 5.419 1.158 8.597.559 3.705-.698 3.961-.967 1.369-1.438-3.56-.646-5.707-.665-8.531-.073m22.517-.041c-2.96.569-2.795.776 1.246 1.57 2.81.552 6.966.162 8.716-.817 1.52-.851-6.354-1.446-9.962-.753m21.343-.234c-.702.135-1.988.347-2.858.473-1.894.273-1.566.544 1.532 1.263 2.711.628 3.669.627 6.794-.009 3.489-.71 3.465-.907-.178-1.512-3.461-.575-3.422-.574-5.29-.215m-104.586.5c-2.735.543-2.826.639-1.108 1.156 2.689.811 11.633.226 10.576-.691-.931-.808-6.393-1.076-9.468-.465m121.651-.049c-2.121.355-2.302.438-1.595.73 2.853 1.176 7.432 1.326 10.527.344l1.435-.455-1.754-.407c-2.541-.59-5.87-.672-8.613-.212m-96.571 5.065c-2.578.412-2.512.655.346 1.283 2.294.504 6.234.272 7.008-.413.216-.192-4.732-1.365-5.201-1.234-.087.025-1.056.188-2.153.364m74.083.172c-2.62.647-2.399.941.919 1.222 4.029.341 8.179-.827 4.619-1.299-.902-.12-2.015-.276-2.472-.346-.458-.07-1.838.12-3.066.423m-12.44-.097c-.175.063-1.16.28-2.187.483-2.29.452-2.031.798.967 1.294 1.977.326 2.619.3 4.71-.193 2.85-.671 2.842-.722-.2-1.303-2.375-.452-2.726-.482-3.29-.281m-48.409.461c-1.89.367-1.736.557.933 1.151 2.398.533 6.379.307 7.589-.432 1.071-.654-5.846-1.238-8.522-.719m14.54.128c-2.325.511-2.321.688.032 1.279 2.97.746 9.435.259 9.435-.711 0-.758-6.758-1.163-9.467-.568m16.411.012c-2.532.544-2.528.695.034 1.278 3.236.735 10.449.162 9.401-.748-.977-.849-6.505-1.159-9.435-.53m-85.413 23.987c-4.299.933-11.483 5.245-22.808 13.691-4.864 3.628-5.816 4.653-5.435 5.851l.213.671 25.586.085 25.586.085.912.718c.902.709 1.031.718 10.771.718 9.723 0 9.872-.01 10.829-.718l.971-.718h68.702l.912.718c.902.709 1.031.718 10.771.718 9.723 0 9.872-.01 10.829-.718l.97-.718 25.537-.159c30.841-.193 29.216.252 21.278-5.817-9.304-7.112-17.813-12.527-21.828-13.891l-2.552-.866-79.585-.05c-67.419-.042-79.902.019-81.659.4m160.868 2.478c2.761 1.07 13.278 8.437 13.732 9.618q.56 1.46-.508 2.209c-1.261.883-185.647.743-186.532-.142-.351-.351-.638-.879-.638-1.175 0-1.801 11.51-9.858 15.46-10.822 3.056-.746 156.536-.443 158.486.312"/></g></svg>