<svg xmlns="http://www.w3.org/2000/svg" width="400" height="400" viewBox="0 0 400 400"><g fill-rule="evenodd"><path fill="#050505" d="M199.107 50.144c-.273.272-.383 2.253-.383 6.887 0 6.022-.047 6.565-.638 7.316-.351.446-.638 1.007-.638 1.246 0 .359-1.717.436-9.702.436-32.779 0-63.419 2.392-76.263 5.954-8.152 2.26-15.271 6.943-15.112 9.941.048.914-.603 2.495-2.981 7.231-7.836 15.61-15.593 33.761-22.918 53.626-2.318 6.285-2.393 6.432-3.644 7.143-11.831 6.72-23.169 18.516-28.97 30.14-.876 1.754-1.938 3.606-2.36 4.114-6.647 8.004-7.509 28.661-2.79 66.859 3.402 27.544 5.658 38.886 8.626 43.381.637.965.871 1.495.521 1.178-3.26-2.948-6.185-15.997-9.165-40.891-1.064-8.89-1.182-9.342-1.458-5.582-1.311 17.891-1.097 61.416.368 74.774.653 5.954 2.638 9.085 6.521 10.282 2.958.913 33.235.9 35.864-.014 5.211-1.814 6.381-5.52 6.392-20.251l.006-7.457 3.429.204c45.91 2.735 188.343 2.737 232.536.004l3.269-.202.008 7.135c.025 21.224.141 21.325 24.394 21.325 19.567 0 21.258-.442 23.382-6.12 2.231-5.963 3.075-55.063 1.367-79.521-.275-3.933-.451-3.535-1.129 2.552-2.817 25.296-6.209 40.886-9.521 43.762l-.663.576.658-.957c2.948-4.291 4.625-11.185 7.255-29.824 6.767-47.947 6.556-71.35-.73-81.021-.463-.614-1.571-2.552-2.462-4.306-5.87-11.557-16.409-22.648-28.06-29.533-2.183-1.289-2.269-1.389-2.984-3.441-6.022-17.284-14.972-38.658-23.517-56.168-2.18-4.467-3.892-8.308-3.805-8.535.949-2.474-6.861-7.997-14.336-10.14-13.219-3.789-43.185-6.195-77.376-6.213l-9.114-.005-.854-1.305-.854-1.304v-6.447c0-6.604-.108-7.212-1.276-7.212-.281 0-.683.172-.893.383m-5.013 34.371c.109.344.621.98 1.138 1.415.825.695.94 1 .94 2.499v1.709l-6.18.393c-10.384.661-12.312 1.832-12.319 7.486-.007 6.228 4.835 7.57 25.783 7.145 16.095-.327 18.46-1.183 18.818-6.808.37-5.817-1.774-7.182-12.306-7.832l-6.14-.379v-1.572c0-1.348.158-1.748 1.116-2.808.614-.679 1.117-1.387 1.117-1.571 0-.616 79.543-.193 83.174.441 7.926 1.386 10.718 5.247 20.012 27.672 8.125 19.603 9.127 25.111 5.199 28.56-2.268 1.992-4.056 2.199-15.19 1.766-68.013-2.651-128.226-2.702-193.993-.167-15.14.584-16.308.519-18.71-1.038-4.864-3.154-3.768-9.096 5.876-31.857 8.317-19.628 10.945-23.368 17.356-24.699 5.596-1.162 83.949-1.491 84.309-.355M45.665 122.817c-10.43 1.426-16.716 9.519-13.302 17.127 2.459 5.481 10.377 9.085 17.696 8.056 1.327-.186 2.678-.369 3.001-.406.473-.053.903.724 2.201 3.983l1.612 4.049 1.943-1.497c1.068-.824 3.036-2.215 4.374-3.092l2.432-1.595-2.33-3.668-2.33-3.669 1.178-2.372c4.738-9.546-4.088-18.609-16.475-16.916m303.458-.015c-10.106 1.232-15.231 8.935-11.262 16.929l1.179 2.374-2.04 3.202c-2.801 4.398-2.766 4.063-.585 5.451 1.024.652 2.964 2.011 4.311 3.02l2.449 1.835 1.182-3.086c2.015-5.258 2.008-5.245 2.549-5.037 5.089 1.953 13.834.082 18.049-3.861 9.478-8.865-.991-22.636-15.832-20.827M81.906 161.084c17.917 5.739 21.049 31.044 5.818 47.01-16.787 17.597-42.406 8.938-43.298-14.633-.794-20.998 19.168-38.243 37.48-32.377m246.164-.925c15.661 1.902 27.569 15.812 27.588 32.224.027 24.019-25.627 33.515-43.058 15.938-17.272-17.415-11.359-45.938 9.989-48.185 1.26-.132 2.363-.26 2.451-.283.088-.024 1.451.114 3.03.306M68.936 163.47c-19.961 4.538-28.686 30.719-14.797 44.404 12.14 11.962 33.258 3.047 38.274-16.157 4.416-16.907-7.945-31.779-23.477-28.247m253.398.036c-18.807 4.216-21.222 31.167-4.009 44.747 12.612 9.95 29.612 4.406 33.493-10.923 4.642-18.339-12.228-37.693-29.484-33.824m-245.619 2.113c12.363 2.688 17.651 17.587 11.013 31.032-6.749 13.67-22.851 18.062-32.106 8.758-15.072-15.151.377-44.293 21.093-39.79m257.18.636c19.803 7.084 22.432 36.759 3.829 43.223-13.09 4.548-28.265-8.53-28.394-24.47-.114-14.087 11.923-23.275 24.565-18.753M68.9 174.895c-11.626 3.329-14.11 18.802-3.844 23.937 10.82 5.413 22.764-6.62 17.404-17.533-2.458-5.004-8.494-7.854-13.56-6.404m256.199.085c-7.724 2.079-11.31 11.239-7.167 18.309 5.296 9.036 17.906 9.173 22.231.241 4.706-9.718-4.726-21.332-15.064-18.55m-120.665 4.14c.924.503 2.017 1.316 2.43 1.806l.75.892 7.756.01 7.756.009-1.042.947-1.041.948h-6.242c-4.851 0-6.212.089-6.109.399.098.293 1.575.421 5.609.486 5.671.09 6.107.217 4.549 1.326-.827.589-1.39.66-5.263.66-3.642 0-4.337.076-4.337.478 0 .399.645.479 3.888.479h3.887l-.906.946c-.872.91-1.029.95-4.101 1.037-4.17.118-4.882.888-.821.888h2.638l-.916.957c-.846.882-1.089.956-3.121.956-2.11 0-2.265.054-3.626 1.252-1.718 1.512-3.755 2.257-6.172 2.257s-4.454-.745-6.172-2.257c-1.361-1.198-1.516-1.252-3.626-1.252-2.032 0-2.275-.074-3.121-.956l-.916-.957h2.638c4.061 0 3.349-.77-.821-.888-3.072-.087-3.229-.127-4.101-1.037l-.906-.946h3.887c3.243 0 3.888-.08 3.888-.479 0-.402-.695-.478-4.337-.478-3.873 0-4.436-.071-5.263-.66-1.588-1.131-1.148-1.254 4.477-1.254 5.065 0 6.309-.199 5.605-.898-.121-.12-2.933-.184-6.25-.141l-6.031.076-1.038-.944-1.039-.945 7.858-.009 7.858-.01.499-.761c1.922-2.933 7.701-3.92 11.345-1.937m-7.783 1.071c-6.113 2.836-5.631 11.362.778 13.778 6.166 2.325 12.334-4.131 9.632-10.08-1.651-3.633-6.691-5.423-10.41-3.698m25.685 20.447c56.092 1.026 64.787 2.942 78.245 17.238 13.475 14.314 16.02 30.46 6.37 40.408-4.574 4.716-8.692 5.478-35.819 6.63-35.465 1.505-132.348 1.01-159.011-.813-15.827-1.082-21.659-4.794-24.639-15.685-3.524-12.878 9.003-32.892 25.619-40.929 10.182-4.924 26.137-6.564 67.601-6.95 21.039-.195 26.124-.183 41.634.101m-53.892 4.169c-31.512.702-41.661 1.722-50.312 5.058-15.654 6.037-28.304 25.037-24.685 37.076 2.054 6.833 6.458 11.019 12.85 12.213 18.903 3.532 168.386 3.529 187.164-.003 10.361-1.95 16.124-12.765 12.481-23.425-4.544-13.301-15.936-24.08-28.964-27.406-12.008-3.065-59.543-4.604-108.534-3.513m108.669 7.91c2.588.679 4.386 1.619 4.386 2.293 0 .4-10.694.46-81.658.46-72.373 0-81.659-.054-81.659-.478 0-.611 1.971-1.585 4.625-2.286 3.36-.888 150.922-.877 154.306.011m14.43 9.18c1.171.234 3.684 2.448 3.366 2.964-.348.562-189.965.469-189.965-.094 0-.65 1.457-2.09 2.63-2.6 1.096-.476 181.613-.741 183.969-.27m7.786 9.873c.897.344 1.907 2.31 1.463 2.846-.503.606-201.057.727-201.786.122-.534-.443.135-1.9 1.223-2.661.724-.507 197.787-.811 199.1-.307M70.601 248.811c7.811 2.923 11.567 12.35 7.97 20.008-4.713 10.038-18.718 9.761-23.852-.471-5.575-11.111 4.681-23.727 15.882-19.537m265.246-.652c8.968 1.7 13.765 12.678 9.06 20.733-6.351 10.872-21.357 9.247-24.526-2.656-2.601-9.77 6.036-19.866 15.466-18.077m-272.211 2.687c-6.997 2.219-10.061 9.558-6.769 16.219 5.508 11.144 21.161 7.202 20.579-5.183-.354-7.537-7.311-13.097-13.81-11.036m267.442-.03c-8.423 2.381-11.64 13.167-5.792 19.419 7.629 8.157 21.102.355 18.763-10.864-1.299-6.23-7.268-10.167-12.971-8.555m6.083 2.507c6.04 2.59 7.162 11.03 2.063 15.519-3.687 3.246-9.4 2.962-12.411-.617-6.435-7.647 1.297-18.782 10.348-14.902m-266.821.122c4.561 2.158 6.4 7.881 4.06 12.634-4.26 8.653-16.984 5.396-16.984-4.348 0-6.717 6.895-11.138 12.924-8.286m129.979 18.661c24.123-.001 53.979-.097 66.348-.213 23.596-.223 24.827-.171 27.432 1.159 6.621 3.38 4.117 17.632-3.808 21.675-5.384 2.746-20.662 3.305-90.291 3.303-71.123-.002-85.193-.546-90.622-3.501-6.493-3.534-9.764-15.89-5.32-20.098 2.878-2.724 2.401-2.683 29.116-2.491 12.807.092 43.022.166 67.145.166m-90.673 2.115c-6.841 2.021-4.544 14.984 3.34 18.847 4.965 2.434 27.245 3.256 88.29 3.258 55.622.002 80.489-.872 85.295-2.997 7.85-3.472 10.722-16.847 4.087-19.037-1.687-.557-179.13-.626-181.012-.071"/><path fill="#fbfbfb" d="M0 200v200h400V0H0zM200.893 50.144c.273.272.383 2.24.383 6.829v6.447l.854 1.304.854 1.305 9.114.005c34.191.018 64.157 2.424 77.376 6.213 7.475 2.143 15.285 7.666 14.336 10.14-.087.227 1.625 4.068 3.805 8.535 8.545 17.51 17.495 38.884 23.517 56.168.715 2.052.801 2.152 2.984 3.441 11.651 6.885 22.19 17.976 28.06 29.533.891 1.754 1.999 3.692 2.462 4.306 7.286 9.671 7.497 33.074.73 81.021-2.63 18.639-4.307 25.533-7.255 29.824l-.658.957.663-.576c3.312-2.876 6.704-18.466 9.521-43.762.678-6.087.854-6.485 1.129-2.552 1.708 24.458.864 73.558-1.367 79.521-2.124 5.678-3.815 6.12-23.382 6.12-24.253 0-24.369-.101-24.394-21.325l-.008-7.135-3.269.202c-44.193 2.733-186.626 2.731-232.536-.004l-3.429-.204-.006 7.457c-.011 14.731-1.181 18.437-6.392 20.251-2.629.914-32.906.927-35.864.014-3.883-1.197-5.868-4.328-6.521-10.282-1.465-13.358-1.679-56.883-.368-74.774.276-3.76.394-3.308 1.458 5.582 2.98 24.894 5.905 37.943 9.165 40.891.35.317.116-.213-.521-1.178-2.968-4.495-5.224-15.837-8.626-43.381-4.719-38.198-3.857-58.855 2.79-66.859.422-.508 1.484-2.36 2.36-4.114 5.801-11.624 17.139-23.42 28.97-30.14 1.251-.711 1.326-.858 3.644-7.143 7.325-19.865 15.082-38.016 22.918-53.626 2.378-4.736 3.029-6.317 2.981-7.231-.159-2.998 6.96-7.681 15.112-9.941 12.844-3.562 43.484-5.954 76.263-5.954 7.985 0 9.702-.077 9.702-.436 0-.239.287-.8.638-1.246.591-.751.638-1.294.638-7.316 0-6.665.106-7.27 1.276-7.27.281 0 .683.172.893.383m-85.714 34.1c-11.476.825-13.167 2.707-22.75 25.325-9.644 22.761-10.74 28.703-5.876 31.857 2.402 1.557 3.57 1.622 18.71 1.038 65.767-2.535 125.98-2.484 193.993.167 20.771.809 21.712-2.047 9.991-30.326-9.294-22.425-12.086-26.286-20.012-27.672-3.631-.634-83.174-1.057-83.174-.441 0 .184-.503.892-1.117 1.571-.958 1.06-1.116 1.46-1.116 2.808v1.572l6.14.379c10.532.65 12.676 2.015 12.306 7.832-.358 5.625-2.723 6.481-18.818 6.808-20.948.425-25.79-.917-25.783-7.145.007-5.654 1.935-6.825 12.319-7.486l6.18-.393v-1.709c0-1.499-.115-1.804-.94-2.499-.517-.435-1.029-1.071-1.138-1.415-.213-.672-69.991-.912-78.915-.271m-61.45 39.089c8.128 2.058 11.889 9.392 8.411 16.4l-1.178 2.372 2.33 3.669 2.33 3.668-2.432 1.595c-1.338.877-3.306 2.268-4.374 3.092l-1.943 1.497-1.612-4.049c-1.298-3.259-1.728-4.036-2.201-3.983-.323.037-1.674.22-3.001.406-7.319 1.029-15.237-2.575-17.696-8.056-4.557-10.154 8.075-19.976 21.366-16.611m303.049-.018c11.104 2.64 15.472 13.491 8.177 20.314-4.215 3.943-12.96 5.814-18.049 3.861-.541-.208-.534-.221-2.549 5.037l-1.182 3.086-2.449-1.835c-1.347-1.009-3.287-2.368-4.311-3.02-2.181-1.388-2.216-1.053.585-5.451l2.04-3.202-1.179-2.374c-5.182-10.437 5.408-19.627 18.917-16.416M72.309 160.182c-24.473 1.864-37.43 35.254-19.958 51.43 13.97 12.934 37.65 3.115 43.818-18.169 5.443-18.786-5.921-34.627-23.86-33.261m250.28-.046c-30.423 3.202-24.126 53.101 7.209 57.12 25.556 3.277 35.557-32.661 14.003-50.316-4.948-4.054-15.368-7.99-18.761-7.087-.088.023-1.191.151-2.451.283m-242.897 3.928c21.05 7.225 16.569 41.434-6.341 48.403-10.362 3.153-21.096-2.699-24.68-13.456-6.495-19.495 12.779-41.208 31.021-34.947m253.168-.17c17.902 5.554 25.873 29.02 14.416 42.441-13.77 16.133-40.29 2.076-40.54-21.487-.159-14.986 12.537-25.169 26.124-20.954M70.307 165.28c-15.843 1.704-26.053 22.541-17.763 36.251 8.22 13.594 27.374 10.937 35.184-4.88 8.019-16.241-1.343-33.1-17.421-31.371m252.5.39c-14.287 4.122-18.089 22.682-7.374 35.99 12.825 15.925 34.898 8.622 34.904-11.548.004-15.184-14.619-28.167-27.53-24.442M76.704 175.706c8.033 3.759 9.533 13.861 3.041 20.478-7.352 7.494-19.443 3.908-21.01-6.232-1.549-10.024 9.044-18.423 17.969-14.246m254.518-.742c9.699 2.526 13.479 14.733 6.716 21.691-6.771 6.967-18.826 3.093-21.378-6.87-2.295-8.956 5.793-17.132 14.662-14.821m-134.13 3.447c-1.707.639-3.437 1.782-4.003 2.646l-.499.761-7.858.01-7.858.009 1.039.945 1.038.944 6.031-.076c3.317-.043 6.129.021 6.25.141.704.699-.54.898-5.605.898-5.625 0-6.065.123-4.477 1.254.827.589 1.39.66 5.263.66 3.642 0 4.337.076 4.337.478 0 .399-.645.479-3.888.479h-3.887l.906.946c.872.91 1.029.95 4.101 1.037 4.17.118 4.882.888.821.888h-2.638l.916.957c.846.882 1.089.956 3.121.956 2.11 0 2.265.054 3.626 1.252 1.718 1.512 3.755 2.257 6.172 2.257s4.454-.745 6.172-2.257c1.361-1.198 1.516-1.252 3.626-1.252 2.032 0 2.275-.074 3.121-.956l.916-.957h-2.638c-4.061 0-3.349-.77.821-.888 3.072-.087 3.229-.127 4.101-1.037l.906-.946h-3.887c-3.243 0-3.888-.08-3.888-.479 0-.402.695-.478 4.337-.478 3.873 0 4.436-.071 5.263-.66 1.558-1.109 1.122-1.236-4.549-1.326-4.034-.065-5.511-.193-5.609-.486-.103-.31 1.258-.399 6.109-.399h6.242l1.041-.948 1.042-.947-7.756-.009-7.756-.01-.75-.892c-1.972-2.343-6.866-3.602-9.772-2.515m5.892 1.613c6.001 2.507 6.253 10.638.423 13.642-6.075 3.131-13.179-3.286-10.568-9.545 1.525-3.655 6.446-5.643 10.145-4.097m-22.282 20.513c-41.464.386-57.419 2.026-67.601 6.95-16.616 8.037-29.143 28.051-25.619 40.929 2.98 10.891 8.812 14.603 24.639 15.685 26.663 1.823 123.546 2.318 159.011.813 27.127-1.152 31.245-1.914 35.819-6.63 9.65-9.948 7.105-26.094-6.37-40.408-13.458-14.296-22.153-16.212-78.245-17.238-15.51-.284-20.595-.296-41.634-.101m49.282 4.277c45.913 1.038 54.84 3.041 65.973 14.803 13.669 14.44 14.665 31.816 2.175 37.962-6.464 3.181-28.326 4.093-98.291 4.099-81.886.007-96.06-.916-101.766-6.624-13.432-13.439 1.302-40.572 25.48-46.921 11.183-2.936 58.323-4.406 106.429-3.319m-107.177 7.892c-2.654.701-4.625 1.675-4.625 2.286 0 .424 9.286.478 81.659.478 70.964 0 81.658-.06 81.658-.46 0-.674-1.798-1.614-4.386-2.293-3.384-.888-150.946-.899-154.306-.011m-15.233 9.461c-1.173.51-2.63 1.95-2.63 2.6 0 .563 189.617.656 189.965.094.318-.516-2.195-2.73-3.366-2.964-2.356-.471-182.873-.206-183.969.27m-7.345 9.91c-1.088.761-1.757 2.218-1.223 2.661.729.605 201.283.484 201.786-.122.444-.536-.566-2.502-1.463-2.846-1.313-.504-198.376-.2-199.1.307M63.852 248.17c-11.667 2.452-14.498 18.413-4.534 25.563 7.917 5.68 18.42 1.315 20.43-8.491 1.93-9.419-6.947-18.954-15.896-17.072m267.264.025c-7.476 1.466-12.776 10.374-10.735 18.041 3.169 11.903 18.175 13.528 24.526 2.656 5.829-9.979-2.754-22.861-13.791-20.697m-262.292 2.658c11.135 2.964 11.77 19.198.876 22.366-5.03 1.462-10.323-1.076-12.833-6.154-4.319-8.74 2.959-18.607 11.957-16.212m268.797.462c7.679 3.396 9.081 13.407 2.705 19.31-7.179 6.648-17.98 1.671-17.938-8.265.035-8.248 8.189-14.161 15.233-11.045m-5.868 1.351c-4.459.859-7.732 5.487-7.235 10.235.778 7.447 9.152 10.83 14.706 5.941 7.065-6.219 1.654-17.933-7.471-16.176m-268.551.374c-3.068.98-5.786 5.063-5.786 8.691 0 9.744 12.724 13.001 16.984 4.348 3.734-7.585-3.158-15.61-11.198-13.039m45.091 19.151c-6.453 1.691-8.203 8.799-4.14 16.816 4.407 8.698 7.825 9.02 95.847 9.023 69.629.002 84.907-.557 90.291-3.303 7.925-4.043 10.429-18.295 3.808-21.675-2.605-1.33-3.836-1.382-27.432-1.159-26.91.254-101.016.28-133.493.047-18.602-.134-23.606-.083-24.881.251m182.365 2.101c6.635 2.19 3.763 15.565-4.087 19.037-4.806 2.125-29.673 2.999-85.295 2.997-61.045-.002-83.325-.824-88.29-3.258-7.884-3.863-10.181-16.826-3.34-18.847 1.882-.555 179.325-.486 181.012.071"/></g></svg>