<svg xmlns="http://www.w3.org/2000/svg" width="400" height="400" viewBox="0 0 400 400"><g fill-rule="evenodd"><path fill="#050505" d="M115.63 76.201c-1.645.759-3.413 2.537-5.115 5.143-.902 1.381-1.901 2.43-2.977 3.127-3.201 2.074-10.388 11.98-16.474 22.706-3.865 6.812-9.42 18.778-14.512 31.26-2.129 5.219-2.506 5.857-3.888 6.572-1.655.856-2.221.006-1.829-2.744.922-6.457-.316-16.404-2.327-18.695-3.007-3.424-19.641-1.182-25.509 3.439-2.462 1.939-3.751 6.911-2.347 9.054.273.416.496.945.496 1.176 0 .598 2.104 4.908 2.522 5.166.192.119.349.776.349 1.461 0 1.912.878 2.545 3.529 2.545 1.173 0 3.837.279 5.921.618 2.083.34 4.866.708 6.185.818 2.375.198 2.403.211 3.11 1.439l.713 1.239-3.23 3.127c-15.272 14.787-21.298 40.879-17.629 76.332.424 4.092.525 10.028.586 34.45.112 44.754.722 50.577 5.526 52.702 1.75.774 21.81 1.198 30.427.643 8.403-.541 8.759-1.221 9.093-17.348l.202-9.775 5.774-.197c3.176-.108 10.462-.338 16.191-.51 10.847-.326 11.026-.346 12.492-1.362 1.218-.845 152.941-.982 153.909-.14 1.29 1.125 2.046 1.212 13.215 1.536 6.184.179 13.54.425 16.347.546l5.103.221.227 9.51c.383 16.037.848 16.993 8.499 17.477 5.142.325 22.029.322 26.884-.006 9.184-.62 9.598-2.91 9.707-53.616.052-24.294.149-30.016.578-34.131.77-7.391 1.127-18.198.804-24.402-1.325-25.498-6.116-39.409-17.553-50.971l-4.037-4.082.682-1.244c.662-1.21.739-1.249 2.756-1.422 1.142-.098 3.947-.464 6.234-.815s5.031-.637 6.097-.637c2.459 0 3.62-.771 3.62-2.404 0-.652.376-1.676.947-2.575.52-.821 1.183-2.206 1.473-3.077.289-.872.723-1.963.965-2.426 1.255-2.405.022-7.04-2.374-8.927-5.605-4.414-22.325-6.819-25.317-3.642-2.041 2.167-3.473 12.497-2.547 18.37.508 3.223-.023 4.194-1.792 3.279-1.412-.73-1.844-1.429-3.572-5.775-10.389-26.122-24.28-50.427-31.324-54.805-.986-.613-1.962-1.633-2.815-2.943-4.329-6.643-10.132-7.871-13.825-2.924-.873 1.169-.631 1.284 2.634 1.259 2.527-.02 2.915.055 3.474.668.643.707 2.393 3.403 2.208 3.403-.056 0-1.089-.497-2.295-1.104-15.367-7.732-148.275-7.732-163.642 0-1.206.607-2.239 1.104-2.295 1.104-.185 0 1.565-2.696 2.208-3.403.559-.613.947-.688 3.474-.668 3.409.027 3.536-.061 2.302-1.593-2.043-2.537-5.363-3.354-8.238-2.027m114.195 10.242c32.953.724 54.188 2.127 58.181 3.845 8.084 3.477 25.528 38.093 23.023 45.685-1.756 5.319-6.529 5.786-51.539 5.046-28.568-.469-87.045-.47-115.747-.002-51.093.834-55.067.307-55.067-7.314 0-6.574 8.711-25.839 16.747-37.035 4.589-6.394 6.206-7.218 15.63-7.971 27.067-2.161 71.291-3.078 108.772-2.254M57.099 165.568c1.371.413 27.014 6.81 33.81 8.434a906 906 0 0 1 6.186 1.493c.989.248 2.55 1.554 7.656 6.405 13.409 12.738 24.137 23.3 24.016 23.644-.412 1.168-19.653-2.255-38.596-6.865-7.231-1.761-8.167-2.196-3.039-1.414 12.085 1.842 21.64 1.465 21.64-.854 0-.916-14.717-14.883-16.619-15.772-.772-.361-7.806-2.392-15.631-4.513-20.879-5.661-20.371-5.462-20.887-8.214-.17-.904.012-2.681.274-2.681.042 0 .578.152 1.19.337m287.239.62c.393 1.79-.373 3.727-1.771 4.475-.894.478-21.758 6.33-31.243 8.763-3.843.986-5.144 1.947-12.874 9.504-7.536 7.367-8.04 8.055-6.504 8.882 1.735.934 13.197.639 21.098-.544 4.443-.665 4.097-.439-1.421.93-17 4.217-39.393 8.45-40.237 7.606-.572-.572 1.493-2.662 20.871-21.113 10.484-9.982 8.386-8.657 16.97-10.72 12.612-3.031 31.568-7.754 33.038-8.231 1.915-.622 1.834-.64 2.073.448m-285.6 8.598c3.231.995 13.125 3.711 22.283 6.119 10.073 2.649 9.415 2.29 16.305 8.888l5.496 5.263-1.73.235c-6.553.889-21.254-1.707-38.572-6.813-5.746-1.694-5.246-.735-6.255-12.003-.236-2.633-.348-2.557 2.473-1.689m285.004 1.37-.563 5.925c-.467 4.938-.343 4.8-5.699 6.385-15.478 4.581-24.889 6.436-33.652 6.634l-6.699.151 5.319-5.254c6.732-6.649 6.228-6.377 17.169-9.256 9.301-2.448 19.446-5.24 22.01-6.057 2.355-.752 2.331-.769 2.115 1.472m-222.211 2.951c6.053.974 11.381 1.875 11.842 2.002.597.165 2.741 2.655 7.478 8.684 16.063 20.444 29.031 36.057 30.6 36.842 1.638.819 54.432 1.017 56.705.212 1.331-.471 2.147-1.399 14.771-16.799 7.87-9.601 15.124-18.698 19.898-24.955 2.464-3.228 3.149-3.93 3.968-4.065 18.126-2.993 24.245-3.972 24.324-3.893.054.054-3.739 3.7-8.428 8.102-8.978 8.428-30.612 30.079-41.366 41.398-8.041 8.463-7.562 8.117-11.702 8.452-10.787.871-60.239.567-62.476-.385-.617-.262-2.695-2.102-4.644-4.112-1.941-2-7.773-8.014-12.96-13.365-10.781-11.12-25.533-25.739-31.844-31.555-9.08-8.37-9.487-8.8-8.048-8.511.483.097 5.829.973 11.882 1.948m83.145 8.168c3.86 1.251 7.669 4.93 8.881 8.579.443 1.334.657 1.594 1.309 1.594 1.985 0 1.908 6.349-.081 6.636-.487.07-.913.673-1.571 2.221-5.198 12.229-22.707 11.193-27.04-1.6-.104-.307-.463-.558-.798-.558-1.961 0-2.19-6.35-.242-6.698.724-.129.989-.433 1.373-1.57 2.43-7.204 10.581-11.064 18.169-8.604m-7.706 2.946c-3.038 1.008-5.922 3.291-6.917 5.473-.199.439-.519.804-.71.812s-.778.211-1.305.452c-.831.381.745.441 11.962.457 12.739.019 12.901.011 11.641-.561-.842-.383-1.596-1.085-2.214-2.062-2.465-3.9-8.17-5.994-12.457-4.571m-8.827 14.358c1.147.307 1.579.664 2.552 2.111 4.552 6.77 14.363 6.673 18.75-.185.834-1.304 1.311-1.719 2.265-1.972.865-.229-2.515-.321-11.869-.322-10.489-.001-12.805.072-11.698.368m-127.696 23.01c2.551.398 13.09 2.798 13.556 3.086.37.229.334.26-.159.136-2.6-.653-14.108-2.514-15.737-2.544-4.061-.075-4.077 1.108-.188 13.998 1.721 5.703 1.39 5.551 21.188 9.739 4.123.873 7.926 1.709 8.453 1.858l.957.272-1.755.84c-2.416 1.158-5.802.853-24.561-2.213-8.628-1.41-8.862-1.483-9.483-2.955-.93-2.203.178-17.367 1.484-20.319.652-1.473.942-1.726 2.389-2.076.969-.235 1.318-.219 3.856.178m284.253.409c1.4 1.134 1.828 2.967 2.51 10.758 1.12 12.798 1.511 12.201-9.092 13.882-21.143 3.354-22.473 3.481-24.847 2.376-2.187-1.018-2.588-.831 5.412-2.517 21.999-4.634 21.472-4.401 23.394-10.351 4.78-14.792 4.644-15.017-7.761-12.818-4.095.726-7.6 1.268-7.788 1.205-.3-.1 1.584-.536 11.271-2.607 3.011-.644 6.057-.612 6.901.072m-296.871 28.94c2.012 6.159 5.224 10.922 8.243 12.22 3.444 1.482 28.426 5.059 41.862 5.994 5.676.395 6.934-.148 17.999-7.767 8.522-5.869 12.057-7.868 14.812-8.376 2.389-.44 136.17-.434 138.51.007 2.849.537 5.795 2.201 14.318 8.088 12.865 8.886 12.176 8.679 24.748 7.443 16.648-1.637 32.988-4.148 35.735-5.492 3.92-1.918 6.857-7.211 9.7-17.48 1.185-4.281 1.187-3.039.004 2.087-2.448 10.599-5.164 16.034-8.977 17.966-4.27 2.164-34.565 6.161-54.193 7.15-30.761 1.551-150.937 1.547-181.499-.005-15.838-.805-40.189-3.723-50.877-6.098-6.04-1.342-8.777-5.658-11.8-18.608-1.315-5.634-1.447-7.541-.188-2.711.48 1.842 1.202 4.354 1.603 5.582m83.617 4.175c-3.044.818-8.807 4.987-14.48 10.475-1.916 1.854-1.997 3.116-.264 4.124 3.114 1.812 162.981 1.892 166.478.084 2.391-1.237 1.693-2.746-3.218-6.959-6.978-5.987-8.425-6.965-11.541-7.797-2.487-.665-134.495-.594-136.975.073"/><path fill="#fbfbfb" d="M0 200v200h400V0H0zM121.66 76.321c1.339.765 3.305 2.967 2.96 3.312-.116.116-1.49.2-3.054.188-2.527-.02-2.915.055-3.474.668-.643.707-2.393 3.403-2.208 3.403.056 0 1.089-.497 2.295-1.104 15.367-7.732 148.275-7.732 163.642 0 1.206.607 2.239 1.104 2.295 1.104.185 0-1.565-2.696-2.208-3.403-.559-.613-.947-.688-3.474-.668-3.265.025-3.507-.09-2.634-1.259 3.693-4.947 9.496-3.719 13.825 2.924.853 1.31 1.829 2.33 2.815 2.943 7.044 4.378 20.935 28.683 31.324 54.805 1.728 4.346 2.16 5.045 3.572 5.775 1.769.915 2.3-.056 1.792-3.279-.926-5.873.506-16.203 2.547-18.37 2.992-3.177 19.712-.772 25.317 3.642 2.396 1.887 3.629 6.522 2.374 8.927-.242.463-.676 1.554-.965 2.426-.29.871-.953 2.256-1.473 3.077-.571.899-.947 1.923-.947 2.575 0 1.633-1.161 2.404-3.62 2.404-1.066 0-3.81.287-6.097.637s-5.092.717-6.234.815c-2.017.173-2.094.212-2.756 1.422l-.682 1.244 4.037 4.082c11.437 11.562 16.228 25.473 17.553 50.971.323 6.204-.034 17.011-.804 24.402-.429 4.115-.526 9.837-.578 34.131-.109 50.706-.523 52.996-9.707 53.616-4.855.328-21.742.331-26.884.006-7.651-.484-8.116-1.44-8.499-17.477l-.227-9.51-5.103-.221c-2.807-.121-10.163-.367-16.347-.546-11.169-.324-11.925-.411-13.215-1.536-.968-.842-152.691-.705-153.909.14-1.466 1.016-1.645 1.036-12.492 1.362-5.729.172-13.015.402-16.191.51l-5.774.197-.202 9.775c-.334 16.127-.69 16.807-9.093 17.348-8.617.555-28.677.131-30.427-.643-4.804-2.125-5.414-7.948-5.526-52.702-.061-24.422-.162-30.358-.586-34.45-3.669-35.453 2.357-61.545 17.629-76.332l3.23-3.127-.713-1.239c-.707-1.228-.735-1.241-3.11-1.439-1.319-.11-4.102-.478-6.185-.818-2.084-.339-4.748-.618-5.921-.618-2.651 0-3.529-.633-3.529-2.545 0-.685-.157-1.342-.349-1.461-.418-.258-2.522-4.568-2.522-5.166 0-.231-.223-.76-.496-1.176-1.404-2.143-.115-7.115 2.347-9.054 5.868-4.621 22.502-6.863 25.509-3.439 2.011 2.291 3.249 12.238 2.327 18.695-.392 2.75.174 3.6 1.829 2.744 1.382-.715 1.759-1.353 3.888-6.572 5.092-12.482 10.647-24.448 14.512-31.26 6.086-10.726 13.273-20.632 16.474-22.706 1.076-.697 2.075-1.746 2.977-3.127 3.421-5.239 7.531-7.091 11.145-5.023m52.184 10.017c-23.356.445-52.636 1.947-58.832 3.018-4.837.836-7.817 3.845-14.003 14.139-8.446 14.056-13.667 28.58-11.842 32.947 2.039 4.88 7.563 5.343 54.576 4.575 28.702-.468 87.179-.467 115.747.002 45.01.74 49.783.273 51.539-5.046 2.505-7.592-14.939-42.208-23.023-45.685-6.477-2.787-66.388-4.859-114.162-3.95M55.633 166.031c-.285 1.134.095 2.824.851 3.784.82 1.043 2.124 1.453 20.038 6.311 7.825 2.121 14.859 4.152 15.631 4.513 1.902.889 16.619 14.856 16.619 15.772 0 2.319-9.555 2.696-21.64.854-5.128-.782-4.192-.347 3.039 1.414 18.943 4.61 38.184 8.033 38.596 6.865.121-.344-10.607-10.906-24.016-23.644-5.106-4.851-6.667-6.157-7.656-6.405a906 906 0 0 0-6.186-1.493c-6.796-1.624-32.439-8.021-33.81-8.434-.612-.185-1.148-.337-1.19-.337-.041 0-.166.36-.276.8m286.632-.291c-1.47.477-20.426 5.2-33.038 8.231-8.584 2.063-6.486.738-16.97 10.72-19.378 18.451-21.443 20.541-20.871 21.113.844.844 23.237-3.389 40.237-7.606 5.518-1.369 5.864-1.595 1.421-.93-7.901 1.183-19.363 1.478-21.098.544-1.536-.827-1.032-1.515 6.504-8.882 7.73-7.557 9.031-8.518 12.874-9.504 9.485-2.433 30.349-8.285 31.243-8.763 1.398-.748 2.164-2.685 1.771-4.475-.239-1.088-.158-1.07-2.073-.448m-286 10.735c1.009 11.268.509 10.309 6.255 12.003 17.318 5.106 32.019 7.702 38.572 6.813l1.73-.235-5.496-5.263c-6.89-6.598-6.232-6.239-16.305-8.888-9.158-2.408-19.052-5.124-22.283-6.119-2.821-.868-2.709-.944-2.473 1.689m285.362-1.791c-2.564.817-12.709 3.609-22.01 6.057-10.941 2.879-10.437 2.607-17.169 9.256l-5.319 5.254 6.699-.151c8.763-.198 18.174-2.053 33.652-6.634 5.356-1.585 5.232-1.447 5.699-6.385l.563-5.925c.216-2.241.24-2.224-2.115-1.472m-232.855 2.451c0 .191 3.381 3.425 8.925 8.535 6.311 5.816 21.063 20.435 31.844 31.555 5.187 5.351 11.019 11.365 12.96 13.365 1.949 2.01 4.027 3.85 4.644 4.112 2.237.952 51.689 1.256 62.476.385 4.14-.335 3.661.011 11.702-8.452 10.754-11.319 32.388-32.97 41.366-41.398 4.689-4.402 8.482-8.048 8.428-8.102-.079-.079-6.198.9-24.324 3.893-.819.135-1.504.837-3.968 4.065-4.774 6.257-12.028 15.354-19.898 24.955-12.624 15.4-13.44 16.328-14.771 16.799-2.273.805-55.067.607-56.705-.212-1.569-.785-14.537-16.398-30.6-36.842-4.737-6.029-6.881-8.519-7.478-8.684-.461-.127-5.789-1.028-11.842-2.002-6.053-.975-11.399-1.851-11.882-1.948-.482-.097-.877-.108-.877-.024m88.376 9.632c-5.048 1.127-9.125 4.618-10.641 9.112-.384 1.137-.649 1.441-1.373 1.57-1.948.348-1.719 6.698.242 6.698.335 0 .694.251.798.558 4.333 12.793 21.842 13.829 27.04 1.6.658-1.548 1.084-2.151 1.571-2.221 1.989-.287 2.066-6.636.081-6.636-.652 0-.866-.26-1.309-1.594-2.098-6.315-9.778-10.568-16.409-9.087m7.389 3.907c2.071.921 3.779 2.359 4.89 4.118.618.977 1.372 1.679 2.214 2.062 1.26.572 1.098.58-11.641.561-11.217-.016-12.793-.076-11.962-.457.527-.241 1.114-.444 1.305-.452s.511-.373.71-.812c2.136-4.687 9.498-7.239 14.484-5.02m7.173 13.859c-.954.253-1.431.668-2.265 1.972-4.387 6.858-14.198 6.955-18.75.185-.973-1.447-1.405-1.804-2.552-2.111-1.107-.296 1.209-.369 11.698-.368 9.354.001 12.734.093 11.869.322M56.591 227.411c-1.447.35-1.737.603-2.389 2.076-1.306 2.952-2.414 18.116-1.484 20.319.621 1.472.855 1.545 9.483 2.955 18.759 3.066 22.145 3.371 24.561 2.213l1.755-.84-.957-.272c-.527-.149-4.33-.985-8.453-1.858-19.798-4.188-19.467-4.036-21.188-9.739-3.889-12.89-3.873-14.073.188-13.998 1.629.03 13.137 1.891 15.737 2.544.493.124.529.093.159-.136-.466-.288-11.005-2.688-13.556-3.086-2.538-.397-2.887-.413-3.856-.178m281.208.515c-9.687 2.071-11.571 2.507-11.271 2.607.188.063 3.693-.479 7.788-1.205 12.405-2.199 12.541-1.974 7.761 12.818-1.922 5.95-1.395 5.717-23.394 10.351-8 1.686-7.599 1.499-5.412 2.517 2.374 1.105 3.704.978 24.847-2.376 10.603-1.681 10.212-1.084 9.092-13.882-1.012-11.562-1.792-12.459-9.411-10.83M45.325 248.644c-.099 2.293 3.223 13.982 4.967 17.472 2.508 5.021 4.173 5.975 13.185 7.558 30.233 5.31 50.348 6.22 137.161 6.21 86.891-.011 107.173-.975 137.426-6.534 9.931-1.825 12.238-4.719 15.696-19.688 1.183-5.126 1.181-6.368-.004-2.087-2.843 10.269-5.78 15.562-9.7 17.48-2.747 1.344-19.087 3.855-35.735 5.492-12.572 1.236-11.883 1.443-24.748-7.443-8.523-5.887-11.469-7.551-14.318-8.088-2.34-.441-136.121-.447-138.51-.007-2.755.508-6.29 2.507-14.812 8.376-11.065 7.619-12.323 8.162-17.999 7.767-13.436-.935-38.418-4.512-41.862-5.994-3.937-1.693-7.17-7.538-9.846-17.802-.48-1.842-.886-3.063-.901-2.712m223.096 12.396c3.116.832 4.563 1.81 11.541 7.797 4.911 4.213 5.609 5.722 3.218 6.959-1.826.944-19.403 1.195-83.021 1.188-81.869-.01-84.352-.095-84.628-2.904-.218-2.222 11.519-11.785 15.915-12.967 2.48-.667 134.488-.738 136.975-.073"/></g></svg>