<svg xmlns="http://www.w3.org/2000/svg" width="400" height="400" viewBox="0 0 400 400"><g fill-rule="evenodd"><path fill="#050505" d="M199.816 43.944c-.189.129-.489 1.873-.666 3.875-.479 5.4.418 5.012-12.123 5.249-42.168.796-63.618 1.902-84.423 4.353-2.954.348-6.265.633-7.358.633-8.936 0-10.94 2.39-15.947 19.016-3.342 11.098-8.991 36.173-11.166 49.565-.442 2.719-1.682 10.398-2.757 17.065s-2.301 13.827-2.724 15.911c-2.217 10.922-2.684 15.559-2.684 26.654 0 8.852-.643 18.209-1.931 28.089-1.111 8.524-1.083 33.422.053 46.571.208 2.407.325 11.887.296 23.923-.027 10.965.107 24.458.298 29.985.994 28.8-.158 27.113 18.509 27.113 11.828 0 13.025-.145 14.965-1.805 2.464-2.11 2.4-1.742 2.579-14.734l.159-11.594 2.233-.066c1.633-.048 2.775-.303 4.25-.948 3.827-1.673 5.624-1.859 14.373-1.486 30.803 1.313 135.865 1.316 168.145.005 9.254-.376 11.319-.159 15.179 1.594 1.801.818 2.547.985 4.114.922l1.914-.077.159 11.463c.242 17.362-.609 16.566 17.704 16.566h12.44l1.422-.797c1.812-1.016 3.114-3.087 3.516-5.594.882-5.499 1.683-39.791 1.307-55.936-.145-6.21-.151-12.311-.013-13.557 1.306-11.818 1.548-44.279.387-52.032-1.222-8.165-1.733-15.463-1.997-28.543-.273-13.496-.41-14.881-2.506-25.199-.517-2.544-1.678-9.219-2.58-14.833-3.433-21.362-3.856-23.809-5.4-31.26-4.939-23.836-8.524-37.724-12.188-47.21-2.536-6.564-4.815-8.31-11.294-8.653-1.755-.092-6.205-.511-9.889-.929-20.13-2.287-40.716-3.398-73.684-3.976-22.596-.396-20.701.112-21.089-5.66-.237-3.523-.59-4.34-1.583-3.663m56.324 20.783c42.992 1.454 50.762 2.432 53.918 6.789 3.741 5.164 10.853 38.714 10.83 51.086-.016 8.424-3.196 12.731-10.84 14.684-9.321 2.382-210.09 2.403-220.079.024-5.873-1.399-9.554-4.879-10.558-9.982-1.934-9.829 6.689-51.604 11.753-56.942 3.704-3.904 18.075-5.161 69.442-6.074 12.077-.215 86.468.109 95.534.415M40.191 117.355c-2.359.496-4.348 2.095-5.23 4.207-1.113 2.666-2.066 16.318-1.517 21.733.895 8.834 1.879 9.622 12.494 9.998 8.946.317 10.904-.234 12.024-3.389l.561-1.579h2.796c1.538 0 2.797-.107 2.8-.239.002-.131.431-2.751.953-5.821s.951-5.756.953-5.969c.003-.269-.896-.415-2.947-.479l-2.95-.091-.079-1.117c-.926-13.111-2.029-16.488-5.564-17.032-1.878-.289-13.143-.464-14.294-.222m309.889-.008c-5.36.216-5.801.332-7.299 1.905-1.244 1.308-1.679 3.21-2.299 10.051-.288 3.181-.574 5.964-.636 6.183-.08.282-.967.399-3.019.399h-2.906l.169.877c.093.483.557 3.282 1.031 6.22l.863 5.343h5.618l.336 1.247c.968 3.595 4.36 4.351 15.992 3.566 7.517-.507 8.739-2.57 8.707-14.701-.053-20.222-1.222-21.711-16.557-21.09m-17.1 41.94c4.853 14.993 6.812 37.812 3.702 43.132-3.297 5.641-14.702 9.385-40.189 13.195-7.41 1.107-6.662 1.439-7.159-3.174-.217-2.017-1.016-7.438-1.775-12.046-1.901-11.534-2.46-10.408 8.852-17.837 15.145-9.946 22.887-16.459 29.697-24.981 2.161-2.704 3.458-3.6 4.73-3.268.43.113.983 1.399 2.142 4.979m-261.115-4.159c.386.408 1.909 2.207 3.384 3.997 6.246 7.582 12.684 12.937 27.238 22.65 12.727 8.494 11.926 7.1 10.143 17.646-.692 4.092-1.51 9.593-1.818 12.223s-.581 4.818-.606 4.86c-.079.133-12.568-1.753-17.32-2.616-16.462-2.987-24.91-5.953-28.463-9.989-4.328-4.916-2.844-27.89 2.935-45.446l1.339-4.067h1.232c.876 0 1.436.215 1.936.742m53.015 38.647c19.103.883 25.383 1.154 34.929 1.505 14.523.534 65.967.534 81.18 0 13.276-.467 31.002-1.253 37.001-1.641 6.782-.439 6.864-1.166-1.334 11.753-21.085 33.228-20.356 32.297-25.985 33.181-10 1.57-89.909 1.566-100.066-.005-5.289-.818-5.669-1.238-16.854-18.632-11.322-17.606-15.729-24.688-15.729-25.274 0-.944.656-1.362 1.893-1.207.626.079 2.86.222 4.965.32m11.116 4.352c14.452 31.259 18.246 38.028 21.763 38.818 5.635 1.267 80.076 1.283 85.69.018 3.552-.8 3.911-1.381 14.36-23.247 7.387-15.457 8.341-17.529 8.157-17.713-.089-.089-5.171.055-11.294.319-37.092 1.602-84.23 1.463-116.165-.343l-3.598-.203zm66.62 6.059c4.396.933 8.167 4.319 9.605 8.623.097.29.604.622 1.127.737 1.795.394 1.834 5.679.045 6.072-.737.162-1.093.586-1.854 2.213-4.792 10.24-20.242 9.692-23.394-.831-.288-.959-.536-1.203-1.384-1.362-1.929-.362-1.906-5.745.027-6.107.83-.156 1.097-.392 1.254-1.107 1.188-5.408 8.481-9.53 14.574-8.238m-6.07 3.428c-1.761.714-3.348 1.983-4.539 3.627-1.628 2.247-1.974 2.156 8.159 2.156h9.097l-.628-1.232c-2.091-4.099-7.857-6.269-12.089-4.551m-82.407 10.742c.855.342 2.006 1.397 3.746 3.429 15.197 17.758 19.56 20.857 30.407 21.603 25.783 1.772 97.912 1.428 107.97-.515 7.356-1.42 11.499-4.654 23.465-18.312 4.581-5.228 6.65-7.023 7.653-6.639.376.144-9.562 11.455-14.476 16.478-8.663 8.854-12.009 10.285-25.455 10.887-27.195 1.217-67.631 1.215-94.658-.004-16.402-.741-18.192-1.871-36.965-23.353-1.955-2.237-3.412-4.067-3.237-4.067s.872.222 1.55.493m76.93 1.828c0 .547.807 1.725 2.2 3.208 4.32 4.601 12.436 3.359 15.348-2.348l.646-1.267h-9.097c-7.17 0-9.097.086-9.097.407m-107.54 44.479c3.973 2.457 4.626 8.346 1.271 11.474-5.412 5.044-13.992-.294-11.921-7.417 1.318-4.536 6.613-6.553 10.65-4.057m240.133-.278c5.153 2.642 5.17 10.222.03 12.844-7.251 3.7-14.084-5.145-8.647-11.192 2.28-2.536 5.638-3.18 8.617-1.652M59.231 274.88c-.08.307-.146.056-.146-.558s.066-.865.146-.558.08.809 0 1.116m278.71 19.042c-.12.64-.282 1.1-.36 1.022s-.044-.666.076-1.306.282-1.1.36-1.022.044.666-.076 1.306M64.683 300.05c.927 1.285 2.895 3.078 4.296 3.914 1.764 1.052 1.455 1.161-.411.145-2.875-1.565-5.322-4.944-5.862-8.096-.11-.639.133-.207.566 1.007.417 1.168 1.052 2.532 1.411 3.03m272.466-3.181c-1.061 3.276-3.215 5.995-5.773 7.287-1.295.654-.977.33 1.216-1.24 1.922-1.375 3.396-3.45 4.149-5.84.294-.932.595-1.633.668-1.559s-.043.682-.26 1.352"/><path fill="#fbfbfb" d="M0 200v200h400V0H0zM200.875 44.099c.173.219.409 1.798.524 3.508.388 5.772-1.507 5.264 21.089 5.66 32.968.578 53.554 1.689 73.684 3.976 3.684.418 8.134.837 9.889.929 6.479.343 8.758 2.089 11.294 8.653 3.664 9.486 7.249 23.374 12.188 47.21 1.544 7.451 1.967 9.898 5.4 31.26.902 5.614 2.063 12.289 2.58 14.833 2.096 10.318 2.233 11.703 2.506 25.199.264 13.08.775 20.378 1.997 28.543 1.161 7.753.919 40.214-.387 52.032-.138 1.246-.132 7.347.013 13.557.376 16.145-.425 50.437-1.307 55.936-.402 2.507-1.704 4.578-3.516 5.594l-1.422.797h-12.44c-18.313 0-17.462.796-17.704-16.566l-.159-11.463-1.914.077c-1.567.063-2.313-.104-4.114-.922-3.86-1.753-5.925-1.97-15.179-1.594-32.28 1.311-137.342 1.308-168.145-.005-8.749-.373-10.546-.187-14.373 1.486-1.475.645-2.617.9-4.25.948l-2.233.066-.159 11.594c-.235 17.063.321 16.539-17.544 16.539-16.744 0-17.195-.295-17.851-11.67-.699-12.109-1.003-26.545-.956-45.428.029-12.036-.088-21.516-.296-23.923-1.136-13.149-1.164-38.047-.053-46.571 1.288-9.88 1.931-19.237 1.931-28.089 0-11.095.467-15.732 2.684-26.654.423-2.084 1.649-9.244 2.724-15.911s2.315-14.346 2.757-17.065c2.175-13.392 7.824-38.467 11.166-49.565 5.007-16.626 7.011-19.016 15.947-19.016 1.093 0 4.404-.285 7.358-.633 20.805-2.451 42.255-3.557 84.423-4.353 12.541-.237 11.644.151 12.123-5.249.342-3.856.814-4.874 1.725-3.72m-40.269 20.213c-51.367.913-65.738 2.17-69.442 6.074-5.064 5.338-13.687 47.113-11.753 56.942 1.004 5.103 4.685 8.583 10.558 9.982 9.989 2.379 210.758 2.358 220.079-.024 7.644-1.953 10.824-6.26 10.84-14.684.023-12.372-7.089-45.922-10.83-51.086-3.156-4.357-10.926-5.335-53.918-6.789-9.066-.306-83.457-.63-95.534-.415M54.485 117.577c3.535.544 4.638 3.921 5.564 17.032l.079 1.117 2.95.091c2.051.064 2.95.21 2.947.479-.002.213-.431 2.899-.953 5.969s-.951 5.69-.953 5.821c-.003.132-1.262.239-2.8.239h-2.796l-.561 1.579c-1.12 3.155-3.078 3.706-12.024 3.389-10.615-.376-11.599-1.164-12.494-9.998-.549-5.415.404-19.067 1.517-21.733.882-2.112 2.871-3.711 5.23-4.207 1.151-.242 12.416-.067 14.294.222m307.167.41c3.815 1.946 4.948 6.595 4.985 20.45.032 12.131-1.19 14.194-8.707 14.701-11.632.785-15.024.029-15.992-3.566l-.336-1.247h-5.618l-.863-5.343c-.474-2.938-.938-5.737-1.031-6.22l-.169-.877h2.906c2.052 0 2.939-.117 3.019-.399.062-.219.348-3.002.636-6.183.739-8.163 1.34-9.937 3.856-11.383 1.675-.963 15.401-.91 17.314.067m-32.385 36.524c-.64.228-1.761 1.315-3.159 3.065-6.81 8.522-14.552 15.035-29.697 24.981-11.312 7.429-10.753 6.303-8.852 17.837.759 4.608 1.558 10.029 1.775 12.046.497 4.613-.251 4.281 7.159 3.174 25.487-3.81 36.892-7.554 40.189-13.195 3.11-5.32 1.151-28.139-3.702-43.132-1.685-5.204-1.864-5.435-3.713-4.776m-261.909 3.942c-4.396 13.354-6.866 35.283-4.755 42.213 1.565 5.139 7.494 8.28 21.67 11.48 6.503 1.468 25.73 4.699 25.933 4.358.025-.042.298-2.229.606-4.86.308-2.63 1.126-8.131 1.818-12.223 1.783-10.546 2.584-9.152-10.143-17.646-14.554-9.713-20.992-15.068-27.238-22.65-3.9-4.735-3.905-4.739-5.32-4.739h-1.232zM118.4 193.69c-.9.899-.414 1.73 15.351 26.246 11.185 17.394 11.565 17.814 16.854 18.632 10.157 1.571 90.066 1.575 100.066.005 5.629-.884 4.9.047 25.985-33.181 8.198-12.919 8.116-12.192 1.334-11.753-5.999.388-23.725 1.174-37.001 1.641-15.213.534-66.657.534-81.18 0-9.546-.351-15.826-.622-34.929-1.505-2.105-.098-4.339-.241-4.965-.32-.641-.08-1.303.022-1.515.235m31.839 2.811c34.015 1.333 70.874 1.27 104.433-.179 6.123-.264 11.205-.408 11.294-.319.184.184-.77 2.256-8.157 17.713-10.449 21.866-10.808 22.447-14.36 23.247-5.614 1.265-80.055 1.249-85.69-.018-3.517-.79-7.311-7.559-21.763-38.818l-1.087-2.351 3.598.203c1.979.112 7.259.347 11.732.522m46.645 7.821c-4.116 1.108-8.11 4.767-8.842 8.102-.157.715-.424.951-1.254 1.107-1.933.362-1.956 5.745-.027 6.107.848.159 1.096.403 1.384 1.362 3.152 10.523 18.602 11.071 23.394.831.761-1.627 1.117-2.051 1.854-2.213 1.789-.393 1.75-5.678-.045-6.072-.523-.115-1.03-.447-1.127-.737-2.147-6.429-8.966-10.202-15.337-8.487m6.217 3.177c1.915.569 4.597 2.83 5.534 4.666l.628 1.232h-9.097c-10.133 0-9.787.091-8.159-2.156 2.64-3.645 6.751-5.032 11.094-3.742m-87.275 14.431c18.773 21.482 20.563 22.612 36.965 23.353 27.027 1.219 67.463 1.221 94.658.004 13.446-.602 16.792-2.033 25.455-10.887 4.914-5.023 14.852-16.334 14.476-16.478-1.003-.384-3.072 1.411-7.653 6.639-11.966 13.658-16.109 16.892-23.465 18.312-10.058 1.943-82.187 2.287-107.97.515-10.847-.746-15.21-3.845-30.407-21.603-2.306-2.694-3.964-3.922-5.296-3.922-.175 0 1.282 1.83 3.237 4.067m92.791-.886c-3.433 6.729-12.637 6.911-17.022.336-1.084-1.624-1.194-1.603 8.571-1.603h9.097zM77.233 264.001c-5.866 2.153-6.303 10.434-.701 13.272 4.963 2.513 10.346-.851 10.378-6.485.028-5.016-4.963-8.516-9.677-6.787m240.738-.04c-2.064.66-4.24 3.095-4.705 5.264-1.597 7.448 7.823 12.067 12.655 6.205 4.604-5.585-1.013-13.688-7.95-11.469M59.085 274.322c0 .614.066.865.146.558s.08-.809 0-1.116-.146-.056-.146.558m278.572 19.316c-.12.64-.154 1.228-.076 1.306s.24-.382.36-1.022.154-1.228.076-1.306-.24.382-.36 1.022m-274.951 2.375c.54 3.152 2.987 6.531 5.862 8.096 1.866 1.016 2.175.907.411-.145-2.798-1.669-4.613-3.878-5.707-6.944-.433-1.214-.676-1.646-.566-1.007m274.035 1.063c-.753 2.39-2.227 4.465-4.149 5.84-2.193 1.57-2.511 1.894-1.216 1.24 1.652-.834 3.85-3.017 4.654-4.622.837-1.671 1.575-3.821 1.379-4.017-.073-.074-.374.627-.668 1.559"/></g></svg>