<svg xmlns="http://www.w3.org/2000/svg" width="400" height="400" viewBox="0 0 400 400"><g fill-rule="evenodd"><path fill="#050505" d="M120.253 69.198c-2.287.695-4.031 2.233-5.902 5.203-.525.833-1.177 1.515-1.449 1.515-6.454.008-22.274 25.863-36.362 59.428-1.574 3.751-2.678 4.308-6.386 3.225-2.593-.757-2.646-.853-2.191-3.965.74-5.061-.252-11.62-2.045-13.521-1.764-1.87-5.518-2.257-12.712-1.31-12.418 1.635-17.461 6.026-15.256 13.286 2.122 6.986 4.499 8.252 18.509 9.86 3.982.457 4.38.669 5.871 3.123 1.503 2.475 1.643 2.079-2.294 6.528-20.675 23.371-25.129 37.478-23.383 74.065.193 4.035.492 22.552.666 41.148.506 54.231.446 53.635 5.64 56.185l1.858.912 16.87.091c25.244.135 24.622.663 24.381-20.665l-.103-9.091 16.746-.159 16.747-.16 3.509-1.27 3.508-1.271 71.452-.165c77.268-.178 74.572-.23 79.166 1.517l3.13 1.189 16.826.093 16.827.093v10.498c0 12.784.235 14.269 2.667 16.856 2.391 2.543 1.505 2.433 20.411 2.537 25.933.144 24.553 1.421 25.088-23.219.165-7.631.309-21.268.319-30.303s.166-21.882.347-28.548c.722-26.613.791-31.169.565-36.868-.871-21.857-7.036-35.617-24.48-54.631-3.032-3.306-2.906-2.809-1.333-5.241 1.653-2.559 2.156-2.835 5.921-3.247 14.288-1.565 17.084-3.166 18.854-10.797 1.049-4.524-.964-7.793-6.121-9.94-7.403-3.082-20.094-3.917-22.731-1.495-2.142 1.968-3.275 9.445-2.315 15.278.283 1.714.005 2.126-1.849 2.749-3.526 1.184-4.046.63-8.182-8.727-13.415-30.345-26.131-51.309-32.52-53.613-1.368-.493-1.87-.94-3.52-3.133-4.324-5.747-12.16-6.036-13.579-.501-.479 1.87.247 1.766-7.782 1.118-38.043-3.069-94.809-2.924-132.104.337l-2.28.199-.501-1.724c-.917-3.152-4.599-4.656-8.498-3.469m113.08 15.33c31.357.602 52.072 1.76 55.419 3.1 2.604 1.041 8.768 11.99 16.842 29.916 8.427 18.707 8.692 19.954 4.435 20.867-2.285.49-218.119.484-219.917-.006-3.884-1.059-3.717-2.318 2.063-15.598 8.229-18.906 15.749-33.161 18.34-34.761 2.809-1.737 22.264-2.874 61.893-3.619 11.96-.225 46.962-.167 60.925.101M63.291 168.099c4.852 2.201 19.471 8.129 32.689 13.254 5.193 2.014 4.761 1.498 10.076 12.036 4.622 9.164 5.057 10.325 4.147 11.081-1.2.995-14.525-2.179-22.154-5.277l-6.071-2.468c-9.671-3.932-9.709-3.935-10.668-.97-1.19 3.679-1.841 3.869-7.036 2.057-7.205-2.513-10.653-4.729-11.912-7.656-3.065-7.125.197-24.606 4.591-24.606.396 0 3.248 1.147 6.338 2.549m281.285-1.672c2.686 2.819 3.909 7.785 3.909 15.876v6.068l-1.044 2.12c-1.493 3.034-4.313 4.755-12.419 7.582-4.489 1.566-5.189 1.351-6.173-1.891-1.085-3.57-.677-3.601-11.465.885-9.234 3.841-16.972 6.161-24.793 7.433-4.418.72-4.398.562 1.397-10.91 5.135-10.167 5.334-10.433 8.784-11.733 11.592-4.366 31.236-12.441 37.26-15.317 2.566-1.224 3.463-1.247 4.544-.113M56.01 170.096c-1.437 3.283-1.913 6.101-1.929 11.403-.025 8.584.766 9.717 8.926 12.792 5.258 1.981 5.324 1.981 5.98-.082 1.576-4.95 1.559-4.952 17.616 1.425 6.269 2.489 8.393 3.18 14.354 4.665 4.842 1.206 5.529 1.321 5.751.962.532-.861-7.627-15.696-8.941-16.259-.702-.3-4.147-1.664-7.655-3.03-13.814-5.38-24.36-9.719-30.536-12.563-2.759-1.271-2.705-1.281-3.566.687m284.66-.84c-5.883 2.777-22.818 9.719-35.357 14.494-4.396 1.675-4.016 1.221-8.634 10.294-3.499 6.874-3.802 7.787-2.464 7.419.375-.103 2.293-.552 4.263-.999 4.791-1.086 9.8-2.693 15.398-4.939 15.361-6.165 15.265-6.153 16.757-2.062 1.098 3.01.755 2.891 4.486 1.559 9.015-3.22 10.275-4.469 10.835-10.741.415-4.637-.992-12.886-2.582-15.142-.625-.887-.571-.89-2.702.117m-278.352 4.913c1.602.705 3.129 1.402 3.392 1.549.618.345 1.247 14.869.668 15.448-.429.429-1.677.028-5.335-1.714-2.89-1.377-3.518-2.266-3.67-5.201-.104-2.012-.094-2.013 3.358-.4 3.988 1.864 3.956 1.455-.046-.597-4.098-2.102-4.834-4.12-1.114-3.053 1.456.417 1.289-.085-.26-.784-2.022-.912-2.326-2.46-1.078-5.494.536-1.303.572-1.3 4.085.246m279.53-.002c.875 2.556.571 4.073-1.009 5.032-1.686 1.023-1.846 1.414-.41 1.002 3.884-1.114 3.017.831-1.371 3.076-4.353 2.226-4.372 2.516-.04.609 1.787-.786 3.32-1.43 3.407-1.43 1.038 0-.348 5.464-1.557 6.143-6.645 3.728-8.184 3.5-7.562-1.12.191-1.415.346-4.598.346-7.073v-4.5l3.429-1.499c3.953-1.729 4.253-1.744 4.767-.24m-266.409 8.16c2.807.815 5.785 1.501 6.618 1.523 1.706.047 1.928.68 1.07 3.054-.961 2.661-2.704 2.604-10.436-.345-2.886-1.1-3.495-1.691-3.71-3.597-.201-1.787.053-2.52.794-2.29.308.095 2.857.84 5.664 1.655m255.6-.609c.323 3.318-.356 3.867-7.608 6.153-5.635 1.777-6.514 1.474-6.912-2.383l-.186-1.802 1.093.204c.956.18 11.801-2.644 12.38-3.223.445-.445 1.146.153 1.233 1.051m-237.521 4.57 3.319 1.287 2.028 4.093c1.955 3.949 2.15 4.823 1.071 4.823-1.093 0-12.16-3.643-14.213-4.679l-.881-.444 1.247-1.186c.914-.87 1.394-1.698 1.797-3.101.302-1.052.619-2.033.705-2.179.208-.356 1.018-.129 4.927 1.386m218.424.714c.528 1.643 1.062 2.614 1.846 3.355l1.104 1.044-2.023.911c-4.962 2.235-13.08 4.551-13.51 3.855-.15-.243 3.323-7.997 3.827-8.543.165-.179 7.339-2.91 7.676-2.922.185-.007.671 1.028 1.08 2.3m-193.122-.892c41.528 3.099 116.785 3.332 155.502.479 7.744-.57 12.354-.921 14.907-1.134 4.897-.408 4.832.023-1.828 11.993-14.421 25.919-22.295 35.672-30.623 37.931-10.406 2.823-101.662 2.959-112.759.169-8.823-2.22-17.41-12.588-30.903-37.317-6.942-12.722-7.041-13.181-2.749-12.788 1.14.105 4.944.405 8.453.667m-6.945 2.805c-.821 2.334 18.301 32.812 24.479 39.017 6.106 6.134 12.634 6.838 63.327 6.833 50.481-.006 58.104-.782 63.913-6.505 5.071-4.997 17.526-24.225 23.519-36.309 1.86-3.752 2.218-3.595-6.774-2.981-9.626.658-22.703 1.339-35.522 1.85-13.853.553-75.032.554-89.315 0-14.782-.572-28.595-1.276-35.885-1.828-7.561-.572-7.568-.572-7.742-.077m94.026 6.632c4.269.314 12.049 1.401 12.639 1.766.384.237.348 8.265-.053 11.77-1.298 11.325-7.42 20.332-16.774 24.679l-1.609.748-2.205-1.112c-11.104-5.599-16.392-15.614-16.398-31.053l-.002-5.15 1.994-.346c8.404-1.456 15.061-1.843 22.408-1.302m-12.137.945c-3.588.254-10.588 1.187-11.052 1.474-.435.268-.278 9.357.218 12.646 1.354 8.987 6.283 16.621 13.498 20.908 3.961 2.353 4.02 2.348 8.516-.683 9.024-6.083 13.232-15.649 12.86-29.237l-.101-3.664-1.276-.224c-5.994-1.054-16.786-1.635-22.663-1.22m8.309 2.566c.176.047-.398.17-1.276.274-2.087.248-2.38 1.4-.398 1.564 1.138.095 1.646-.342.797-.685-.219-.088-.066-.172.341-.186 1.183-.04.827 1.377-.379 1.515-1.774.203-2.434-.167-2.434-1.363 0-1.266 1.242-1.681 3.349-1.119m-9.091.304c0 .175-.574.319-1.275.319-1.616 0-1.691.626-.08.672l1.196.034-1.435.353-1.436.353 1.595.172c1.611.175.765.649-1.156.649-1.099 0-.838-2.473.279-2.642 1.667-.253 2.312-.228 2.312.09m2.891 1.595c1.183 0 1.256-.056 1.256-.957 0-.526.144-.957.319-.957s.319.413.319.918c0 2.188-3.32 2.383-3.39.198-.033-1.03-.013-1.076.1-.239.132.97.221 1.037 1.396 1.037m9.47-1.679c-1.837.144-2.028.722-.239.722 1.714 0 1.64.627-.08.678l-1.356.04 1.35.22c1.968.32 2.039.657.139.657-.907 0-1.669-.108-1.694-.239a22 22 0 0 1-.131-1.276l-.087-1.037 1.807.058 1.806.057zm5.662 1.36c0 1.206-.841 1.574-2.591 1.135-.753-.189-1.102-1.642-.531-2.213.819-.819 3.122-.024 3.122 1.078m-22.329-.16c0 .479-.319.718-1.276.957-.701.176-1.455.436-1.674.577-.438.284-.598-1.707-.172-2.133.55-.55 3.122-.056 3.122.599m19.617-.019c0 .743.118.817 1.299.817 1.163 0 1.287-.074 1.196-.718-.165-1.158-2.495-1.251-2.495-.099m6.54-.459c.608.262.605.275-.08.297-.58.018-.718.206-.718.979 0 .526-.143.957-.319.957-.175 0-.319-.435-.319-.967 0-.705-.195-1.046-.718-1.256-.63-.254-.582-.288.399-.286.614.001 1.404.125 1.755.276m-28.647.223c-.533.139-.652.811-.133.758a21 21 0 0 1 1.188-.024q.957 0 .957-.479c0-.473-.786-.572-2.012-.255m19.309 4.905c2.16.728 4.724 2.023 3.516 1.777-.913-.187-1.065-.419 1.544 2.345l2.259 2.393-.13 1.63c-.126 1.581-1.616 4.588-2.274 4.589-.152.001-.017-.394.299-.876 1.567-2.391 1.98-5.001.854-5.403-.307-.11-1.516-.751-2.687-1.426-1.288-.741-2.549-1.228-3.19-1.23-.802-.004-.944-.081-.582-.315q1.218-.786 3.426.507c1.909 1.119 1.956.853.155-.875-4.351-4.174-10.506-4.283-15.08-.267-1.871 1.642-1.136 1.64.852-.003 1.555-1.284 3.337-1.895 2.193-.751-.416.416-.439.578-.112.78.634.392.255.585-3.006 1.53-3.592 1.041-6.479 2.997-5.404 3.662.138.085.58-.328.983-.916.697-1.017 2.09-1.772 3.201-1.736.387.013.337.138-.207.517-.394.276-.717.691-.717.923 0 .231-.29.624-.645.872-.596.418-.516.465 1.089.63 2.229.23 3.064.685 3.064 1.667 0 .968-1.655 2.896-2.714 3.162-.946.237-1.049 1.133-.218 1.885.936.848 3.868-2.431 4.958-5.545l.496-1.416.008 1.276c.012 1.806-.989 3.783-2.706 5.345-2.219 2.02-1.743 4.068 1.612 6.936 2.048 1.751 2.253 2.287.384 1.001-1.971-1.356-3.287-3.03-3.713-4.722-.196-.776-.783-2.001-1.305-2.721-1.156-1.597-1.186-2.042-.151-2.302.498-.125.797-.426.797-.802 0-.417.173-.557.56-.456.8.209 1.883-1.642 1.342-2.294-.975-1.175-5.6-.41-4.849.802.22.357.263.648.095.648-.257 0-1.546-1.686-2.363-3.09-.136-.233.365-.78 1.301-1.421.837-.573 2.581-1.942 3.875-3.043s2.906-2.256 3.581-2.567c1.472-.678 1.624-1.199.27-.928-.535.107-.894.068-.799-.087.385-.623 8.063-.384 10.138.315m-5.415 2.42c-.486.196-.534 1.064-.059 1.064.187 0 .626-.152.975-.339s.806-.282 1.015-.211c.452.153-1.435 1.188-2.165 1.188a.8.8 0 0 1-.688-.478c-.275-.717.11-1.439.752-1.41.334.015.404.091.17.186m1.937 2.899c.077.131.234.741.348 1.355l.206 1.117-.634-1.117c-.717-1.262-.792-1.595-.361-1.595.165 0 .364.108.441.24m5.548 2.87c1.49 1.38 2.212 3.861 1.897 6.518-.243 2.054-1.127 3.134-4.407 5.381-1.53 1.047-2.872 2.19-2.983 2.539s-.329.634-.484.634c-.303 0 .177-1.495 1.228-3.828.356-.789.658-1.174.67-.856.013.319-.132.869-.322 1.224-.636 1.187-.016 1 2.254-.683 2.815-2.087 3.012-2.452 2.998-5.555-.01-2.389-.059-2.56-.927-3.252-.838-.668-1.994-3.318-1.448-3.318.128 0 .814.538 1.524 1.196m-7.246 4.901c0 .546-.29 2.192-.644 3.658-.684 2.83-.657 3.057.801 6.593.652 1.581-.331.247-1.286-1.745-1.316-2.747-1.349-3.41-.306-6.181.438-1.165.797-2.388.797-2.718s.144-.6.319-.6.319.447.319.993m-140.988 9.809c7.523 2.161 19.272 7.454 22.089 9.953 3.836 3.402 20.015 31.702 20.015 35.01 0 3.109-13.771 7.901-20.357 7.082-17.78-2.209-26.17-5.412-29.045-11.086-2.426-4.788-2.51-22.348-.171-35.761.995-5.708 2.368-6.663 7.469-5.198m286.912.164c2.023 2.024 3.469 13.737 3.451 27.949-.021 15.884-2.599 18.566-21.464 22.326-13.115 2.615-15.789 2.398-25.312-2.049-5.622-2.625-5.606-2.351-.665-11.747 13.324-25.335 15.216-27.679 25.817-31.971 12.943-5.241 16.546-6.134 18.173-4.508m-290.741 2.83c-1.032 2.419-2.075 16.899-1.797 24.96.43 12.512 2.479 15.798 11.207 17.98 9.518 2.378 17.847 3.672 20.56 3.193 3.437-.607 11.557-3.809 12.168-4.798.75-1.213-7.074-15.943-8.645-16.275-.614-.13-4.561-.953-8.772-1.83-18.676-3.889-21.567-4.691-22.017-6.111-.527-1.658-.541-1.659 10.853.905 10.356 2.33 18.664 4.008 18.862 3.81.185-.185-3.359-6.39-5.34-9.348-2.793-4.171-4.992-5.604-14.16-9.23-10.364-4.099-12.347-4.599-12.919-3.256m282.935.687c-12.892 4.484-17.518 6.939-20.346 10.795-2.439 3.327-6.324 10.04-5.999 10.366.222.221 7.366-1.214 19.74-3.966 10.221-2.272 10.791-2.301 9.783-.487-.724 1.301-6.387 2.776-25.507 6.642-7.158 1.447-5.823.268-10.344 9.132-4.39 8.606-4.354 8.125-.728 9.8 9.129 4.217 10.902 4.241 28.457.38 11.749-2.583 14.055-8.632 12.303-32.265-.972-13.106-.695-12.715-7.359-10.397m2.37 3.243c.302.302.501 1.053.501 1.889 0 1.604.504 1.349-6.22 3.147-6.55 1.752-6.22 1.729-6.22.439 0-1.557.614-1.969 5.625-3.77 2.432-.875 4.71-1.719 5.06-1.877.351-.157.664-.296.695-.308.032-.012.283.204.559.48m-277.948.743c7.496 2.577 8.273 3.022 8.273 4.732 0 1.302.383 1.336-6.855-.607-5.755-1.544-5.961-1.639-5.747-2.671l.328-1.582c.213-1.028.682-1.013 4.001.128m1.785 5.328c6.958 1.796 6.807 1.723 6.807 3.337 0 1.829-.321 1.844-6.657.312-6.148-1.488-6.421-1.647-6.421-3.743 0-1.668-.589-1.676 6.271.094m276.983-.219c0 2.364-.351 2.545-8.414 4.329-4.424.978-4.664.939-4.664-.765 0-1.613-.228-1.499 6.539-3.253 7.115-1.844 6.539-1.817 6.539-.311m-71.041 27.688c3.562 1.015 6.644 2.746 12.987 7.296 7.544 5.412 11.122 7.256 18.534 9.552 4.043 1.252 4.014 2.367-.062 2.375-5.79.012-10.656-2.23-19.771-9.11-7.304-5.514-10.399-7.105-15.129-7.779-3.142-.447-130.517-.446-134.088.002-4.548.57-7.585 2.045-13.918 6.757-10.628 7.909-15.309 10.143-21.233 10.13-4.794-.009-4.21-.925 1.935-3.035 6.297-2.161 9.28-3.754 16.746-8.941 8.709-6.051 11.652-7.401 17.225-7.899.702-.063 31.204-.101 67.783-.085l66.507.029z"/><path fill="#fbfbfb" d="M0 200v200h400V0H0zM125.518 69.251c1.775.484 2.649 1.407 3.233 3.416l.501 1.724 2.28-.199c37.295-3.261 94.061-3.406 132.104-.337 8.029.648 7.303.752 7.782-1.118 1.419-5.535 9.255-5.246 13.579.501 1.65 2.193 2.152 2.64 3.52 3.133 6.389 2.304 19.105 23.268 32.52 53.613 4.136 9.357 4.656 9.911 8.182 8.727 1.854-.623 2.132-1.035 1.849-2.749-.96-5.833.173-13.31 2.315-15.278 2.637-2.422 15.328-1.587 22.731 1.495 5.157 2.147 7.17 5.416 6.121 9.94-1.77 7.631-4.566 9.232-18.854 10.797-3.765.412-4.268.688-5.921 3.247-1.573 2.432-1.699 1.935 1.333 5.241 17.444 19.014 23.609 32.774 24.48 54.631.226 5.699.157 10.255-.565 36.868-.181 6.666-.337 19.513-.347 28.548-.023 20.648-.51 43.587-.978 46.083-.692 3.692-2.706 6.118-5.835 7.028-3.067.891-34.989.569-36.728-.371-4.423-2.391-4.944-4.354-4.944-18.611v-10.498l-16.827-.093-16.826-.093-3.13-1.189c-4.594-1.747-1.898-1.695-79.166-1.517l-71.452.165-3.508 1.271-3.509 1.27-16.747.16-16.746.159.103 9.091c.152 13.493-.267 16.033-3.067 18.562-2.439 2.204-2.44 2.204-21.314 2.103l-16.87-.091-1.858-.912c-5.194-2.55-5.134-1.954-5.64-56.185-.174-18.596-.473-37.113-.666-41.148-1.746-36.587 2.708-50.694 23.383-74.065 3.937-4.449 3.797-4.053 2.294-6.528-1.491-2.454-1.889-2.666-5.871-3.123-14.01-1.608-16.387-2.874-18.509-9.86-2.205-7.26 2.838-11.651 15.256-13.286 7.194-.947 10.948-.56 12.712 1.31 1.793 1.901 2.785 8.46 2.045 13.521-.455 3.112-.402 3.208 2.191 3.965 3.708 1.083 4.812.526 6.386-3.225 14.088-33.565 29.908-59.42 36.362-59.428.272 0 .924-.682 1.449-1.515 2.993-4.752 6.572-6.403 11.167-5.15m46.89 15.176c-39.629.745-59.084 1.882-61.893 3.619-2.591 1.6-10.111 15.855-18.34 34.761-5.78 13.28-5.947 14.539-2.063 15.598 1.798.49 217.632.496 219.917.006 4.257-.913 3.992-2.16-4.435-20.867-8.074-17.926-14.238-28.875-16.842-29.916-5.703-2.283-70.445-4.064-116.344-3.201M55.414 166.31c-3.769 3.493-5.613 17.894-3.052 23.846 1.259 2.927 4.707 5.143 11.912 7.656 5.195 1.812 5.846 1.622 7.036-2.057.959-2.965.997-2.962 10.668.97l6.071 2.468c7.629 3.098 20.954 6.272 22.154 5.277.91-.756.475-1.917-4.147-11.081-5.315-10.538-4.883-10.022-10.076-12.036-13.218-5.125-27.837-11.053-32.689-13.254-6.148-2.789-6.67-2.908-7.877-1.789m284.618.23c-6.024 2.876-25.668 10.951-37.26 15.317-3.45 1.3-3.649 1.566-8.784 11.733-5.795 11.472-5.815 11.63-1.397 10.91 7.821-1.272 15.559-3.592 24.793-7.433 10.788-4.486 10.38-4.455 11.465-.885.984 3.242 1.684 3.457 6.173 1.891 8.106-2.827 10.926-4.548 12.419-7.582l1.044-2.12v-6.068c0-6.81-.414-9.36-2.102-12.939-1.893-4.015-2.909-4.466-6.351-2.824m-280.456 2.869c6.176 2.844 16.722 7.183 30.536 12.563 3.508 1.366 6.953 2.73 7.655 3.03 1.314.563 9.473 15.398 8.941 16.259-.222.359-.909.244-5.751-.962-5.961-1.485-8.085-2.176-14.354-4.665-16.057-6.377-16.04-6.375-17.616-1.425-.656 2.063-.722 2.063-5.98.082-8.16-3.075-8.951-4.208-8.926-12.792.016-5.302.492-8.12 1.929-11.403.861-1.968.807-1.958 3.566-.687m283.796-.27c1.59 2.256 2.997 10.505 2.582 15.142-.56 6.272-1.82 7.521-10.835 10.741-3.731 1.332-3.388 1.451-4.486-1.559-1.492-4.091-1.396-4.103-16.757 2.062-5.598 2.246-10.607 3.853-15.398 4.939-1.97.447-3.888.896-4.263.999-1.338.368-1.035-.545 2.464-7.419 4.618-9.073 4.238-8.619 8.634-10.294 12.539-4.775 29.474-11.717 35.357-14.494 2.131-1.007 2.077-1.004 2.702-.117m-285.139 4.784c-1.248 3.034-.944 4.582 1.078 5.494 1.549.699 1.716 1.201.26.784-3.72-1.067-2.984.951 1.114 3.053 4.002 2.052 4.034 2.461.046.597-3.452-1.613-3.462-1.612-3.358.4.152 2.935.78 3.824 3.67 5.201 3.658 1.742 4.906 2.143 5.335 1.714.579-.579-.05-15.103-.668-15.448-1.096-.61-6.334-2.831-6.677-2.831-.206 0-.565.466-.8 1.036m278.848.484-3.429 1.499v4.5c0 2.475-.155 5.658-.346 7.073-.622 4.62.917 4.848 7.562 1.12 1.209-.679 2.595-6.143 1.557-6.143-.087 0-1.62.644-3.407 1.43-4.332 1.907-4.313 1.617.04-.609 4.388-2.245 5.255-4.19 1.371-3.076-1.436.412-1.276.021.41-1.002 1.58-.959 1.884-2.476 1.009-5.032-.514-1.504-.814-1.489-4.767.24m-268.063 6.607c-.889 2.317.43 4.309 3.673 5.545 7.732 2.949 9.475 3.006 10.436.345.858-2.374.636-3.007-1.07-3.054-1.191-.032-6.878-1.504-12.282-3.178-.341-.106-.637.028-.757.342m260.788-.347c-.579.579-11.424 3.403-12.38 3.223l-1.093-.204.186 1.802c.398 3.857 1.277 4.16 6.912 2.383 6.349-2.001 6.945-2.314 7.36-3.854.583-2.165-.042-4.293-.985-3.35m-241.215 4.235c-.086.146-.403 1.127-.705 2.179-.403 1.403-.883 2.231-1.797 3.101l-1.247 1.186.881.444c2.053 1.036 13.12 4.679 14.213 4.679 1.079 0 .884-.874-1.071-4.823l-2.028-4.093-3.319-1.287c-3.909-1.515-4.719-1.742-4.927-1.386m218.309 1.219c-1.994.774-3.665 1.45-3.714 1.503-.504.546-3.977 8.3-3.827 8.543.43.696 8.548-1.62 13.51-3.855l2.023-.911-1.104-1.044c-.784-.741-1.318-1.712-1.846-3.355-.874-2.717-.484-2.649-5.042-.881m-199.227-.178c-1.564 1.736 15.723 31.215 24.489 41.761 7.595 9.137 11.649 9.726 67.2 9.76 52.231.031 59.069-.655 65.55-6.579 4.83-4.414 13.575-17.417 22.489-33.437 6.66-11.97 6.725-12.401 1.828-11.993-2.553.213-7.163.564-14.907 1.134-41.957 3.091-124.004 2.518-163.955-1.146-1.855-.17-2.139-.117-2.694.5m11.944 3.049c7.29.552 21.103 1.256 35.885 1.828 14.283.554 75.462.553 89.315 0 12.819-.511 25.896-1.192 35.522-1.85 8.992-.614 8.634-.771 6.774 2.981-5.993 12.084-18.448 31.312-23.519 36.309-5.809 5.723-13.432 6.499-63.913 6.505-50.693.005-57.221-.699-63.327-6.833-6.178-6.205-25.3-36.683-24.479-39.017.174-.495.181-.495 7.742.077m74.322 6.559c-3.404.247-6.852.675-10.446 1.298l-1.994.346.002 5.15c.006 15.439 5.294 25.454 16.398 31.053l2.205 1.112 1.609-.748c9.354-4.347 15.476-13.354 16.774-24.679.401-3.505.437-11.533.053-11.77-.59-.365-8.37-1.452-12.639-1.766-4.903-.361-6.941-.361-11.962.004m16.906 1.455c2.369.265 4.881.583 5.582.706l1.276.224.101 3.664c.372 13.588-3.836 23.154-12.86 29.237-4.496 3.031-4.555 3.036-8.516.683-7.215-4.287-12.144-11.921-13.498-20.908-.496-3.289-.653-12.378-.218-12.646.464-.287 7.464-1.22 11.052-1.474 4.482-.316 11.558-.103 17.081.514m-11.563 1.959c-1.985.444-.255 2.819 1.876 2.575 1.206-.138 1.562-1.555.379-1.515-.407.014-.56.098-.341.186.849.343.341.78-.797.685-1.982-.164-1.689-1.316.398-1.564.878-.104 1.452-.227 1.276-.274-.61-.163-2.236-.217-2.791-.093m-8.612.307c-1.117.169-1.378 2.642-.279 2.642 1.921 0 2.767-.474 1.156-.649l-1.595-.172 1.436-.353 1.435-.353-1.196-.034c-1.611-.046-1.536-.672.08-.672.701 0 1.275-.144 1.275-.319 0-.318-.645-.343-2.312-.09m3.707.887c.07 2.185 3.39 1.99 3.39-.198 0-.505-.143-.918-.319-.918-.175 0-.319.431-.319.957 0 1.537-2.442 1.464-2.652-.08-.113-.837-.133-.791-.1.239m8.955-.079c.047.57.106 1.144.131 1.276.025.131.787.239 1.694.239 1.9 0 1.829-.337-.139-.657l-1.35-.22 1.356-.04c1.72-.051 1.794-.678.08-.678-1.789 0-1.598-.578.239-.722l1.515-.12-1.806-.057-1.807-.058zm4.551-.52c-.571.571-.222 2.024.531 2.213 1.75.439 2.591.071 2.591-1.135 0-1.102-2.303-1.897-3.122-1.078m-22.329.319c-.426.426-.266 2.417.172 2.133.219-.141.973-.401 1.674-.577 1.928-.482 1.819-1.559-.171-1.689-.796-.052-1.55.008-1.675.133m25.234.679c.091.644-.033.718-1.196.718-1.181 0-1.299-.074-1.299-.817 0-1.152 2.33-1.059 2.495.099m1.891-.548c.523.21.718.551.718 1.256 0 .532.144.967.319.967s.319-.431.319-.957c0-.773.138-.961.718-.979 1.221-.039-.335-.571-1.675-.573-.981-.002-1.029.032-.399.286m-24.481.468q0 .479-.957.479c-.526 0-1.061.011-1.188.024-.519.053-.4-.619.133-.758 1.226-.317 2.012-.218 2.012.255m7.159 4.335c-.095.155.264.194.799.087 1.354-.271 1.202.25-.27.928-.675.311-2.286 1.466-3.581 2.567s-3.038 2.47-3.875 3.043c-.936.641-1.437 1.188-1.301 1.421.817 1.404 2.106 3.09 2.363 3.09.168 0 .125-.291-.095-.648-.751-1.212 3.874-1.977 4.849-.802.541.652-.542 2.503-1.342 2.294-.387-.101-.56.039-.56.456 0 .376-.299.677-.797.802-1.035.26-1.005.705.151 2.302.522.72 1.109 1.945 1.305 2.721.426 1.692 1.742 3.366 3.713 4.722 1.869 1.286 1.664.75-.384-1.001-3.355-2.868-3.831-4.916-1.612-6.936 1.717-1.562 2.718-3.539 2.706-5.345l-.008-1.276-.496 1.416c-1.09 3.114-4.022 6.393-4.958 5.545-.831-.752-.728-1.648.218-1.885 1.059-.266 2.714-2.194 2.714-3.162 0-.982-.835-1.437-3.064-1.667-1.605-.165-1.685-.212-1.089-.63.355-.248.645-.641.645-.872 0-.232.323-.647.717-.923.544-.379.594-.504.207-.517-1.111-.036-2.504.719-3.201 1.736-.403.588-.845 1.001-.983.916-1.075-.665 1.812-2.621 5.404-3.662 3.261-.945 3.64-1.138 3.006-1.53-.327-.202-.304-.364.112-.78 1.144-1.144-.638-.533-2.193.751-1.988 1.643-2.723 1.645-.852.003 4.574-4.016 10.729-3.907 15.08.267 1.801 1.728 1.754 1.994-.155.875q-2.208-1.293-3.426-.507c-.362.234-.22.311.582.315.641.002 1.902.489 3.19 1.23 1.171.675 2.38 1.316 2.687 1.426 1.126.402.713 3.012-.854 5.403-.316.482-.451.877-.299.876.658-.001 2.148-3.008 2.274-4.589l.13-1.63-2.259-2.393c-2.609-2.764-2.457-2.532-1.544-2.345 1.208.246-1.356-1.049-3.516-1.777-2.075-.699-9.753-.938-10.138-.315m3.801 3.002c-.262.684.098 1.435.688 1.435.73 0 2.617-1.035 2.165-1.188-.209-.071-.666.024-1.015.211s-.788.339-.975.339c-.475 0-.427-.868.059-1.064.234-.095.164-.171-.17-.186-.312-.014-.651.19-.752.453m2.131 2.632c.008.131.299.741.648 1.355l.634 1.117-.206-1.117c-.243-1.312-.383-1.595-.789-1.595-.165 0-.294.108-.287.24m4.902 2.968c.211.716.791 1.619 1.298 2.024.868.692.917.863.927 3.252.014 3.103-.183 3.468-2.998 5.555-2.27 1.683-2.89 1.87-2.254.683.19-.355.335-.905.322-1.224-.012-.318-.314.067-.67.856-1.051 2.333-1.531 3.828-1.228 3.828.155 0 .373-.285.484-.634s1.453-1.492 2.983-2.539c3.28-2.247 4.164-3.327 4.407-5.381.315-2.657-.407-5.138-1.897-6.518-1.637-1.516-1.846-1.501-1.374.098m-6.51 4.41c0 .33-.359 1.553-.797 2.718-1.043 2.771-1.01 3.434.306 6.181.955 1.992 1.938 3.326 1.286 1.745-1.458-3.536-1.485-3.763-.801-6.593.702-2.906.824-4.651.325-4.651-.175 0-.319.27-.319.6M54.02 227.9c-3.824 2.678-5.359 34.43-1.987 41.086 2.875 5.674 11.265 8.877 29.045 11.086 6.586.819 20.357-3.973 20.357-7.082 0-3.308-16.179-31.608-20.015-35.01-5.189-4.602-24.879-11.846-27.4-10.08m286.331.213c-4.577 1.424-14.186 5.241-17.262 6.857-6.181 3.247-9.151 7.481-20.836 29.7-4.941 9.396-4.957 9.122.665 11.747 9.523 4.447 12.197 4.664 25.312 2.049 20.924-4.171 23.081-7.696 21.079-34.447-1.203-16.07-2.281-17.983-8.958-15.906m-280.044 3.105c9.095 3.09 16.893 6.621 19.299 8.74 1.972 1.735 8.833 12.379 8.315 12.897-.198.198-8.506-1.48-18.862-3.81-11.394-2.564-11.38-2.563-10.853-.905.45 1.42 3.341 2.222 22.017 6.111 4.211.877 8.158 1.7 8.772 1.83 1.571.332 9.395 15.062 8.645 16.275-.611.989-8.731 4.191-12.168 4.798-3.665.647-22.265-2.904-25.663-4.899-6.051-3.553-7.83-16.504-5.084-37.008.749-5.592.824-5.646 5.582-4.029m284.141-.038c1.674 4.241 2.233 29.689.752 34.211-1.751 5.344-4.393 7.371-11.707 8.979-17.555 3.861-19.328 3.837-28.457-.38-3.626-1.675-3.662-1.194.728-9.8 4.521-8.864 3.186-7.685 10.344-9.132 19.12-3.866 24.783-5.341 25.507-6.642 1.008-1.814.438-1.785-9.783.487-12.374 2.752-19.518 4.187-19.74 3.966-.325-.326 3.56-7.039 5.999-10.366 2.828-3.856 7.454-6.311 20.346-10.795 4.794-1.668 5.535-1.733 6.011-.528m-4.895 3.599c-.35.158-2.628 1.002-5.06 1.877-5.011 1.801-5.625 2.213-5.625 3.77 0 1.29-.33 1.313 6.22-.439 6.724-1.798 6.22-1.543 6.22-3.147 0-1.104-.637-2.529-1.06-2.369a58 58 0 0 0-.695.308m-280.695.787c-.599 2.886-1.078 2.51 5.419 4.253 7.238 1.943 6.855 1.909 6.855.607 0-1.71-.777-2.155-8.273-4.732-3.319-1.141-3.788-1.156-4.001-.128m-.485 5.362c0 2.096.273 2.255 6.421 3.743 6.336 1.532 6.657 1.517 6.657-.312 0-1.614.151-1.541-6.807-3.337-6.86-1.77-6.271-1.762-6.271-.094m276.715.186c-6.767 1.754-6.539 1.64-6.539 3.253 0 1.704.24 1.743 4.664.765 8.063-1.784 8.414-1.965 8.414-4.329 0-1.506.576-1.533-6.539.311m-201.276 26.725c-5.573.498-8.516 1.848-17.225 7.899-7.466 5.187-10.449 6.78-16.746 8.941-6.145 2.11-6.729 3.026-1.935 3.035 5.924.013 10.605-2.221 21.233-10.13 6.333-4.712 9.37-6.187 13.918-6.757 3.571-.448 130.946-.449 134.088-.002 4.73.674 7.825 2.265 15.129 7.779 9.115 6.88 13.981 9.122 19.771 9.11 4.076-.008 4.105-1.123.062-2.375-7.412-2.296-10.99-4.14-18.534-9.552-6.343-4.55-9.425-6.281-12.987-7.296l-2.484-.708-66.507-.029c-36.579-.016-67.081.022-67.783.085"/></g></svg>