<svg xmlns="http://www.w3.org/2000/svg" width="400" height="400" viewBox="0 0 400 400"><g fill-rule="evenodd"><path fill="#050505" d="M198.017 69.458c-.268.307-.725 1.29-1.016 2.185l-.529 1.626-3.389.208c-1.864.114-6.489.207-10.278.208-25.274.002-63.822 3.052-72.514 5.738-8.265 2.555-17.386 16.057-30.705 45.457-2.771 6.117-9.411 21.741-9.411 22.146 0 .727-.944 1.034-2.056.667-2.059-.679-2.301-1.321-2.494-6.612-.403-11.059-4.12-13.73-16.397-11.781-14.205 2.253-19.031 8.093-14.34 17.35 1.922 3.794 4.77 4.756 20.455 6.911 6.269.861 6.366.964 3.723 3.972-3.053 3.475-12.482 15.507-15.617 19.929-4.204 5.93-5.561 10.125-6.982 21.581-.733 5.91-.813 30.383-.136 41.467.3 4.918.456 15.513.495 33.653.107 50.32-1.099 47.751 22.504 47.938 22.518.179 22.967-.142 22.967-16.449v-7.055l18.74-.107c21.004-.121 20.011-.017 24.165-2.529 1.227-.742 2.733-1.529 3.347-1.751 1.638-.59 140.626-.59 142.264 0 .614.222 2.12 1.009 3.347 1.751 4.163 2.517 3.176 2.413 24.006 2.529l18.58.103.003 5.807c.005 11.756 1 14.765 5.58 16.875 1.593.734 1.61.735 16.586.735h14.992l1.687-.763c6.189-2.796 6.761-6.856 6.764-48.023.002-16.69.138-25.969.467-31.738 1.695-29.718.271-50.482-4.057-59.189-1.687-3.395-12.745-18.132-18.971-25.283l-1.739-1.997 1.091-.456c.6-.251 3.233-.756 5.852-1.122 16.428-2.297 18.172-3.035 20.244-8.572 3.144-8.405-2.034-13.584-15.701-15.7-11.743-1.819-15.869 1.51-15.886 12.816-.007 4.275-.371 5.087-2.585 5.75-1.605.481-1.327.891-4.252-6.266-13.213-32.332-26.234-55.494-33.967-60.419-5.938-3.783-43.252-7.364-76.733-7.364-4.603 0-9.463-.092-10.799-.205l-2.43-.206-.53-1.628c-.714-2.193-1.253-2.745-2.681-2.745-.723 0-1.365.215-1.664.558m40.261 17.944c34.711 1.205 51.494 3.181 55.396 6.521 3.979 3.406 13.606 22.392 19.564 38.583 3.911 10.628 3.406 11.916-5.104 13.03-4.507.59-213.196.578-217.501-.013-7.724-1.059-8.393-2.816-4.756-12.499 9.136-24.328 17.185-38.73 22.831-40.85 10.684-4.011 79.002-6.527 129.57-4.772M61.011 171.611c5.715 1.766 35.486 15.972 39.378 18.792 2.747 1.989 6.072 8.004 4.714 8.525-1.102.423-2.046-.237-3.528-2.467-2.295-3.452-2.911-3.809-21.511-12.476-19.315-8.999-22.023-9.953-23.335-8.217-2.227 2.949-2.573 17.573-.569 24.062 1.194 3.866 2.773 4.613 14.883 7.046 6.977 1.401 8.054 1.777 7.391 2.576-1.01 1.216-14.939-.486-20.259-2.476-4.541-1.699-6.396-6.049-6.718-15.748-.51-15.36 2.608-21.762 9.554-19.617m283.19.864c5.327 5.711 5.03 27.815-.442 32.86-3.349 3.086-23.185 6.301-23.185 3.757 0-.717.767-.939 7.656-2.221 11.224-2.088 13.082-2.857 14.528-6.016 2.285-4.994 2.201-21.96-.125-25.097-1.263-1.704-1.84-1.535-14.726 4.301-26.598 12.045-27.597 12.596-30.174 16.623-1.219 1.906-1.984 2.447-3.251 2.301-1.222-.141-1.03-1.122.821-4.204 2.677-4.456 5.81-6.34 26.866-16.156 17.687-8.245 19.582-8.774 22.032-6.148M68.676 182.14c7.636 3.412 7.381 3.195 8.215 7.014 1.147 5.257-.071 5.595-10.409 2.892-6.674-1.745-7.256-2.412-7.291-8.345-.033-5.561.379-5.629 9.485-1.561m271.045-2.055c.404 1.064.399 5.011-.011 7.17-.565 2.979-1.36 3.454-8.61 5.137-9.757 2.266-9.806 2.249-8.7-3.152.851-4.16.24-3.624 8.063-7.073 7.239-3.192 8.71-3.523 9.258-2.082m-253.318 9.906 7.637 3.498c4.924 2.25 5.669 4.932 1.175 4.23-13.273-2.073-13.822-2.332-15.014-7.077-.961-3.825-.766-3.846 6.202-.651m232.68-.506c-.183 5.715-.655 5.958-16.424 8.44-1.974.311-1.753-1.814.323-3.098 1.972-1.218 15.182-7.262 15.678-7.172.365.066.465.501.423 1.83m-250.838 9.202c5.842 1.271 6.335 1.518 5.964 2.997-.311 1.238-1.052 1.291-5.525.396-5.793-1.16-6.802-1.755-6.802-4.015 0-.785-.201-.805 6.363.622m269.105-.798c.444 1.157-.731 2.696-2.45 3.206-2.799.832-8.482 1.883-9.032 1.672-.676-.259-1.28-1.837-.922-2.41.206-.33 9.464-2.552 11.986-2.877.137-.017.325.167.418.409m-243.57 4.538c7.31.859 8.295 1.109 7.612 1.932-.652.785-6.744 4.97-8.831 6.065-2.768 1.453-9.893 1.385-11.387-.109-.531-.531 2.836-7.748 3.906-8.371.781-.455.665-.461 8.7.483m220.594-.246c1.415 1.342 4.18 7.719 3.547 8.182-1.603 1.174-8.469 1.487-10.672.487-1.691-.767-6.608-4.115-8.438-5.744l-1.363-1.214.798-.348c.823-.359 11.918-1.854 14.214-1.915.857-.023 1.504.164 1.914.552m-58.074 2.31c30.329.269 32.818.499 36.152 3.354 2.621 2.243 2.731 4.852.488 11.557-3.344 9.997-9.196 18.223-22.923 32.221-12.729 12.98-9.679 12.33-60.767 12.953-23.592.289-58.595-.596-63.795-1.612-5.928-1.158-12.063-6.092-22.962-18.466-9.794-11.121-13.296-16.582-16.317-25.452-3.333-9.787-1.433-12.598 9.454-13.986 5.726-.73 85.804-1.054 140.67-.569m-133.015 3.188c-14.064.525-16.446 1.739-15.01 7.647 2.509 10.322 11.124 22.605 26.085 37.19 9.348 9.114 6.743 8.712 57.984 8.949 44.057.203 58.068-.209 62.943-1.851 7.03-2.368 27.274-24.462 32.333-35.289 6.724-14.39 5.545-15.962-12.5-16.665-9.245-.36-142.134-.344-151.835.019m89.738 5.588c8.337.871 7.743.559 7.947 4.183 1.022 18.099-5.755 32.447-18.328 38.806-2.049 1.036-2.176 1.037-4.11.019-9.893-5.208-16.031-14.207-17.825-26.131-.731-4.857-.68-15.688.074-15.915 5.095-1.536 21.948-2.039 32.242-.962m-21.412.446c-4.256.334-9.076.968-10.032 1.319-1.622.595-.575 15.355 1.559 21.97 2.388 7.4 7.911 14.043 15.094 18.153l2.384 1.364 1.783-1.02c12.407-7.099 17.697-17.714 17.697-35.515v-4.921l-1.037-.188c-6.194-1.121-20.347-1.721-27.448-1.162m5.837 4.006v1.452l-1.834-.096-1.834-.096-.099-1.196c-.055-.658.044-1.196.219-1.196s.363.466.418 1.037c.166 1.726 2.606 1.584 2.751-.16.137-1.661.379-1.499.379.255m-5.104-.813c0 .175-.565.319-1.257.319-.691 0-1.345.143-1.454.319-.12.195.401.328 1.337.341 1.655.024 1.108.549-.619.593-.483.013-.877.183-.877.378 0 .24.464.286 1.435.14s1.435-.1 1.435.14c0 .228-.599.321-1.674.259l-1.675-.097v-1.102c0-.904.144-1.142.798-1.324 1.221-.339 2.551-.322 2.551.034m8.772-.03c-2.206.262-2.626 1.625-.5 1.625.714 0 1.298-.144 1.298-.319a.32.32 0 0 1 .319-.319c.175 0 .319.287.319.638 0 1.087-3.421.94-3.697-.159-.365-1.454-.004-1.76 2.012-1.705l1.844.05zm6.221-.041c0 .136-.558.194-1.239.129-.682-.065-1.336.039-1.454.231-.143.231.223.349 1.079.349.712 0 1.295.143 1.295.319 0 .175-.575.319-1.276.319s-1.276.143-1.276.319c0 .175.646.319 1.435.319.79 0 1.436.111 1.436.248 0 .136-.754.172-1.675.08-1.67-.168-1.675-.172-1.774-1.365l-.099-1.196h1.774c.975 0 1.774.111 1.774.248m4.864.286c.132.078.239.643.239 1.255v1.114l-1.834-.096c-1.83-.096-1.834-.098-1.937-1.179-.142-1.485 1.836-2.097 3.532-1.094m3.774.104c.687 0 1.25.143 1.25.319 0 .175-.359.319-.798.319-.701 0-.797.137-.797 1.135 0 .676-.129 1.056-.319.938-.175-.108-.319-.691-.319-1.295 0-.964-.099-1.097-.816-1.097-.498 0-.734-.133-.606-.341.116-.187.423-.259.683-.159.26.099 1.035.181 1.722.181m-28.21.482c.305.796-.511 1.432-1.839 1.432-.887 0-1.237.135-1.237.478 0 .263-.144.479-.319.479-.352 0-.445-2.32-.106-2.658.446-.447 3.311-.226 3.501.269m21.542.376c.149 1.298 2.655 1.392 2.655.099 0-.712-.147-.808-1.379-.897-1.342-.096-1.376-.075-1.276.798m-24.508-.047c-.276.719.005.851 1.293.609 1.531-.287 1.548-1.101.022-1.101-.721 0-1.194.177-1.315.492m18.89 4.626c3.729.656 5.108 1.435 6.974 3.939.93 1.246 2.068 2.615 2.531 3.04 1.712 1.574.782 7.133-1.421 8.495-.375.232.725-1.84 1.356-2.554.732-.827.294-4.579-.609-5.217-1.391-.983-5.236-2.829-6.459-3.102l-1.117-.249.957-.27c1.326-.375 2.475-.068 3.855 1.029 2.209 1.755 2.133.884-.137-1.567-1.109-1.198-1.408-1.358-2.205-1.183-.647.142-1.646-.088-3.353-.771-2.828-1.133-4.708-1.452-6.747-1.146-1.624.243-1.934.715-.584.887l.878.111-1.117.531c-1.402.666-2.403 1.457-2.157 1.703.103.104.523-.031.933-.299.921-.603 3.138-1.543 3.138-1.331 0 .086-.437.382-.971.658-.533.276-1.1.843-1.258 1.259-.229.603-.838.926-2.97 1.576-3.08.94-5.973 2.943-5.954 4.123l.011.69.395-.71c.62-1.115 2.975-2.702 3.803-2.563.707.118.704.131-.147.549-.691.34-.832.583-.683 1.178.134.536.052.749-.29.749-.263 0-.752.251-1.086.558s-.403.417-.152.245c.691-.475 4.105-.389 4.587.115.339.356.278.39-.357.197-2.445-.741-4.981.187-4.607 1.686.302 1.215-.587.468-1.696-1.424-1.034-1.764-.939-1.962 1.867-3.909 1.282-.889 2.69-1.95 3.129-2.357.438-.408 1.407-1.221 2.153-1.808 1.355-1.065 1.779-1.739.877-1.393-.263.101-.479.042-.479-.13 0-1.325 5.005-2.058 9.112-1.335m-2.104 3.734c-.006.131-.372.502-.814.825-.805.586-1.947.505-1.567-.111.111-.179.315-.257.452-.172.138.085.522-.051.855-.303.673-.51 1.089-.602 1.074-.239m1.42 4.704c.152.634.123.85-.087.638-.174-.175-.402-.893-.507-1.594-.206-1.386.183-.759.594.956m4.013-.223c0 .141.719 1.063 1.598 2.049 3.559 3.993 2.718 9.657-1.917 12.92-1.322.93-2.678 2.182-3.031 2.796-.351.612-.73 1.114-.842 1.116-.449.006-1.229-2.651-1.194-4.071.02-.829.093-1.221.163-.87.849 4.312 1.003 4.638 1.585 3.349.159-.351 1.503-1.607 2.987-2.791 3.047-2.432 3.126-2.595 3.171-6.576l.031-2.828-1.095-1.003c-1.073-.983-1.468-1.706-1.894-3.469-.127-.522-.081-.877.112-.877.179 0 .326.115.326.255m-9.572 4.696c-.535 1.622-2.682 4.678-3.804 5.416-1.084.712-1.078.841.162 3.613.44.983 1.67 2.655 2.92 3.97 1.822 1.916 1.94 2.102.758 1.188-2.994-2.313-4.07-3.764-5.415-7.303l-.624-1.642 1.083-.453c1.101-.46 3.611-3.859 4.623-6.261.607-1.439.854-.215.297 1.472m-2.643-.99c-.371 2.284-3.918 5.171-4.637 3.774-.316-.614-.162-1.355.281-1.355.156 0 .206.2.111.446-.266.694.417.907.887.277.232-.31.6-.578.82-.596.219-.017.538-.053.709-.08.467-.071 1.284-1.818 1.284-2.743 0-.447.163-.813.361-.813.233 0 .298.388.184 1.09m5.957 4.651c-.102.614-.458 2.029-.792 3.144-.817 2.732-.754 3.964.33 6.506 1.155 2.708.676 2.487-.745-.343-1.648-3.284-1.669-3.702-.368-7.072.624-1.615 1.136-3.245 1.139-3.622.004-.56.062-.598.314-.207.169.263.225.98.122 1.594m-136.394 2.985c20.36 7.016 24.797 10.062 35.31 24.242 6.575 8.869 6.532 9.571-.823 13.247-6.001 3-9.078 3.202-22.617 1.485-20.198-2.562-21.251-3.462-24.267-20.757-2.993-17.162.511-22.312 12.397-18.217m280.377-.949c3.923 2.028 4.527 10.828 1.644 23.95-2.471 11.251-4.126 12.92-14.551 14.675-19.405 3.268-25.404 3.165-32.399-.556-6.735-3.582-6.655-4.125 2.307-15.703 8.717-11.26 9.929-12.136 25.536-18.436 11.385-4.597 14.722-5.348 17.463-3.93m-288.682 3.094c-2.299 1.338-2.383 8.579-.22 18.893 2.597 12.38 2.829 12.548 20.555 14.881 13.191 1.736 16.107 1.515 22.005-1.669 3.461-1.868 3.343-2.224-3.95-11.876-7.146-9.456-9.238-10.891-24.754-16.975-8.638-3.386-12.023-4.194-13.636-3.254m279.505 1.068c-18.369 6.328-23.178 9.289-30.342 18.683-8.508 11.155-8.508 11.174.29 14.36 4.913 1.779 29.12-1.07 33.494-3.942 2.707-1.777 5.81-13.993 5.928-23.337.096-7.59-1.4-8.51-9.37-5.764M66.424 258.019c1.625.508 4.892 1.505 7.26 2.217 16.122 4.848 18.946 5.794 19.834 6.645 1.964 1.882 1.1 2.235-2.646 1.082-1.646-.507-6.51-1.95-10.808-3.207a1435 1435 0 0 1-9.251-2.726c-.789-.243-2.716-.831-4.281-1.307-2.928-.889-4.012-1.596-4.012-2.616 0-1.25.167-1.254 3.904-.088m270.222-.104c.429 1.116-1.165 2.004-6.502 3.623-23.015 6.982-25.2 7.553-25.2 6.592 0-1.443 1.567-2.16 10.526-4.82a2622 2622 0 0 0 17.85-5.411c2.458-.755 3.032-.752 3.326.016m-70.777 18.737c4.086 1.274 15.418 9.066 16.051 11.037.481 1.499-3.118.073-6.562-2.601-6.25-4.85-8.159-5.886-12.206-6.62-3.547-.644-124.863-.535-127.625.114-4.085.961-6.251 2.183-11.855 6.691-4.718 3.794-8.582 4.211-4.294.463 7.383-6.454 12.102-9.045 17.845-9.799 1.106-.145 29.858-.245 63.893-.221l61.882.042z"/><path fill="#fbfafb" d="M0 200v200h400V0H0zM201.345 69.458c.268.307.725 1.291 1.017 2.187l.53 1.628 2.43.206c1.336.113 6.196.205 10.799.205 33.481 0 70.795 3.581 76.733 7.364 7.733 4.925 20.754 28.087 33.967 60.419 2.925 7.157 2.647 6.747 4.252 6.266 2.214-.663 2.578-1.475 2.585-5.75.017-11.306 4.143-14.635 15.886-12.816 13.667 2.116 18.845 7.295 15.701 15.7-2.072 5.537-3.816 6.275-20.244 8.572-2.619.366-5.252.871-5.852 1.122l-1.091.456 1.739 1.997c6.226 7.151 17.284 21.888 18.971 25.283 4.328 8.707 5.752 29.471 4.057 59.189-.329 5.769-.465 15.048-.467 31.738-.003 41.167-.575 45.227-6.764 48.023l-1.687.763h-14.992c-21.874 0-22.158-.226-22.166-17.61l-.003-5.807-18.58-.103c-20.83-.116-19.843-.012-24.006-2.529-1.227-.742-2.733-1.529-3.347-1.751-1.638-.59-140.626-.59-142.264 0-.614.222-2.12 1.009-3.347 1.751-4.154 2.512-3.161 2.408-24.165 2.529l-18.74.107v7.055c0 16.307-.449 16.628-22.967 16.449-23.603-.187-22.397 2.382-22.504-47.938-.039-18.14-.195-28.735-.495-33.653-.677-11.084-.597-35.557.136-41.467 1.421-11.456 2.778-15.651 6.982-21.581 3.135-4.422 12.564-16.454 15.617-19.929 2.643-3.008 2.546-3.111-3.723-3.972-15.685-2.155-18.533-3.117-20.455-6.911-4.691-9.257.135-15.097 14.34-17.35 12.277-1.949 15.994.722 16.397 11.781.193 5.291.435 5.933 2.494 6.612 1.112.367 2.056.06 2.056-.667 0-.405 6.64-16.029 9.411-22.146 13.319-29.4 22.44-42.902 30.705-45.457 8.692-2.686 47.24-5.736 72.514-5.738 3.789-.001 8.414-.094 10.278-.208l3.389-.208.529-1.626c.713-2.191 1.252-2.743 2.68-2.743.723 0 1.365.215 1.664.558m-21.6 17.496c-32.727.474-64.644 2.82-71.037 5.22-5.08 1.908-12.731 14.871-20.478 34.697-6.359 16.273-6.204 17.472 2.403 18.652 4.305.591 212.994.603 217.501.013 9.525-1.246 9.625-3.082 1.231-22.697-8.587-20.065-13.951-28.881-18.639-30.636-9.435-3.529-61.084-5.972-110.981-5.249m-123.52 84.542c-6.111 3.013-6.736 28.019-.844 33.742 2.841 2.758 21.439 6.159 23.053 4.214.663-.799-.414-1.175-7.391-2.576-12.11-2.433-13.689-3.18-14.883-7.046-2.004-6.489-1.658-21.113.569-24.062 1.312-1.736 4.02-.782 23.335 8.217 18.6 8.667 19.216 9.024 21.511 12.476 2.447 3.681 5.202 3.63 3.324-.062-2.909-5.721-4.762-6.957-24.038-16.023-19.605-9.221-22.111-10.125-24.636-8.88m281.734.226c-7.3 2.465-37.039 16.84-39.576 19.129-1.686 1.522-4.531 5.924-4.675 7.235-.22 2.008 2.435 1.082 4.025-1.404 2.577-4.027 3.576-4.578 30.174-16.623 12.886-5.836 13.463-6.005 14.726-4.301 2.326 3.137 2.41 20.103.125 25.097-1.446 3.159-3.304 3.928-14.528 6.016-6.889 1.282-7.656 1.504-7.656 2.221 0 2.544 19.836-.671 23.185-3.757 3.122-2.878 4.571-9.275 4.134-18.254-.644-13.244-3.432-17.555-9.934-15.359m-278.351 8.072c-.736.887-.558 6.929.257 8.746.931 2.073 5.455 3.758 13.089 4.876 4.608.674 4.936.319 3.937-4.262-.834-3.819-.579-3.602-8.215-7.014-6.617-2.956-8.218-3.37-9.068-2.346m270.855 2.373c-7.823 3.449-7.212 2.913-8.063 7.073-1.106 5.401-1.057 5.418 8.7 3.152 8.374-1.945 8.932-2.517 8.932-9.161 0-5.013-.49-5.067-9.569-1.064m-250.606 5.879c-.483 1.26 1.305 6.192 2.539 7 .639.418 7.367 1.822 12.819 2.673 4.494.702 3.749-1.98-1.175-4.23l-7.637-3.498c-5.536-2.538-6.238-2.747-6.546-1.945m231.284 2.806c-3.872 1.807-7.544 3.595-8.159 3.975-2.076 1.284-2.297 3.409-.323 3.098 15.769-2.482 16.241-2.725 16.424-8.44.077-2.396.156-2.409-7.942 1.367m-249.259 7.213c0 2.26 1.009 2.855 6.802 4.015 4.473.895 5.214.842 5.525-.396.371-1.479-.122-1.726-5.964-2.997-6.564-1.427-6.363-1.407-6.363-.622m269.07.65c-6.062 1.271-6.506 1.493-5.942 2.968.553 1.444 3.672 1.259 9.89-.588 1.945-.577 3.778-3.84 2.032-3.615-.137.018-2.828.573-5.98 1.235M85.08 201.944c-1.07.623-4.437 7.84-3.906 8.371 1.494 1.494 8.619 1.562 11.387.109 4.417-2.319 9.505-6.27 8.799-6.833-.867-.691-15.397-2.161-16.28-1.647m220.024.486c-3.334.421-6.42.923-6.858 1.114l-.798.348 1.363 1.214c6.256 5.571 10.428 7.092 16.532 6.029 3.437-.598 3.442-.615 1.403-4.782-2.663-5.442-1.834-5.163-11.642-3.923m-165.072 2.049c-27.572.276-31.531.741-34.098 4.005-3.45 4.386 1.059 16.865 10.305 28.518 12.78 16.106 22.364 24.623 29.216 25.962 10.932 2.136 96.034 2.165 108.222.038 5.24-.915 7.884-2.756 16.34-11.379 13.727-13.998 19.579-22.224 22.923-32.221 3.281-9.808 1.646-12.672-8.092-14.172-5.577-.859-90.172-1.298-144.816-.751m135.088 3.181c18.045.703 19.224 2.275 12.5 16.665-5.059 10.827-25.303 32.921-32.333 35.289-8.115 2.734-102.909 2.773-111.108.046-8.526-2.836-28.844-26.093-34.117-39.051-4.437-10.904-2.983-12.325 13.223-12.93 9.701-.363 142.59-.379 151.835-.019m-81.5 5.106c-4.152.257-11.688 1.116-12.839 1.463-.754.227-.805 11.058-.074 15.915 1.794 11.924 7.932 20.923 17.825 26.131 1.934 1.018 2.061 1.017 4.11-.019 8.519-4.309 15.128-13.175 17.113-22.96 1.107-5.46 1.69-18.018.873-18.835-1.106-1.106-18.693-2.21-27.008-1.695m20.415 1.423c2.193.274 4.454.583 5.024.686l1.037.188v4.921c0 17.801-5.29 28.416-17.697 35.515l-1.783 1.02-2.384-1.364c-7.183-4.11-12.706-10.753-15.094-18.153-2.134-6.615-3.181-21.375-1.559-21.97 4.064-1.491 23.28-1.99 32.456-.843m-16.966 3.275c-.145 1.744-2.585 1.886-2.751.16-.055-.571-.243-1.037-.418-1.037s-.274.538-.219 1.196l.099 1.196 1.834.096 1.834.096v-1.452c0-1.754-.242-1.916-.379-.255m-7.276-.592c-.654.182-.798.42-.798 1.324v1.102l1.675.097c1.075.062 1.674-.031 1.674-.259 0-.24-.464-.286-1.435-.14s-1.435.1-1.435-.14c0-.195.394-.365.877-.378 1.727-.044 2.274-.569.619-.593-.936-.013-1.457-.146-1.337-.341.109-.176.763-.319 1.454-.319.692 0 1.257-.144 1.257-.319 0-.356-1.33-.373-2.551-.034m9.046.194c-.101.264-.094.838.016 1.276.276 1.099 3.697 1.246 3.697.159 0-.351-.144-.638-.319-.638a.32.32 0 0 0-.319.319c0 .175-.584.319-1.298.319-2.126 0-1.706-1.363.5-1.625l1.595-.189-1.844-.05c-1.38-.037-1.89.071-2.028.429m5.049.717c.099 1.193.104 1.197 1.774 1.365.921.092 1.675.056 1.675-.08 0-.137-.646-.248-1.436-.248s-1.435-.144-1.435-.319.574-.319 1.276-.319c.701 0 1.276-.144 1.276-.319s-.583-.319-1.295-.319c-.856 0-1.222-.118-1.079-.349.118-.192.772-.296 1.454-.231s1.239.007 1.239-.129c0-.137-.799-.248-1.774-.248h-1.774zm5.1-.927c-1.3.85-.286 2.439 1.618 2.538l1.834.096v-1.114c0-.612-.107-1.177-.239-1.255-.561-.332-2.826-.518-3.213-.265m4.582.347c-.128.208.108.341.606.341.717 0 .816.133.816 1.097 0 .604.144 1.187.319 1.295.19.118.319-.262.319-.938 0-.998.096-1.135.797-1.135.439 0 .798-.144.798-.319s-.563-.319-1.25-.319-1.462-.082-1.722-.181c-.26-.1-.567-.028-.683.159m-29.306.235c-.339.338-.246 2.658.106 2.658.175 0 .319-.216.319-.479 0-.343.35-.478 1.237-.478 1.328 0 2.144-.636 1.839-1.432-.19-.495-3.055-.716-3.501-.269m27.698.744c0 1.293-2.506 1.199-2.655-.099-.1-.873-.066-.894 1.276-.798 1.232.089 1.379.185 1.379.897m-24.721-.195c0 .256-.485.534-1.149.658-1.288.242-1.569.11-1.293-.609.247-.644 2.442-.689 2.442-.049m9.79 4.674c-1.544.26-2.454.755-2.454 1.336 0 .172.216.231.479.13.902-.346.478.328-.877 1.393-.746.587-1.715 1.4-2.153 1.808-.439.407-1.847 1.468-3.129 2.357-2.806 1.947-2.901 2.145-1.867 3.909 1.109 1.892 1.998 2.639 1.696 1.424-.374-1.499 2.162-2.427 4.607-1.686.635.193.696.159.357-.197-.482-.504-3.896-.59-4.587-.115-.251.172-.183.062.152-.245s.823-.558 1.086-.558c.342 0 .424-.213.29-.749-.149-.595-.008-.838.683-1.178.851-.418.854-.431.147-.549-.828-.139-3.183 1.448-3.803 2.563l-.395.71-.011-.69c-.019-1.18 2.874-3.183 5.954-4.123 2.132-.65 2.741-.973 2.97-1.576.158-.416.725-.983 1.258-1.259.534-.276.971-.572.971-.658 0-.212-2.217.728-3.138 1.331-.41.268-.83.403-.933.299-.246-.246.755-1.037 2.157-1.703l1.117-.531-.878-.111c-1.35-.172-1.04-.644.584-.887 2.039-.306 3.919.013 6.747 1.146 1.707.683 2.706.913 3.353.771.797-.175 1.096-.015 2.205 1.183 2.27 2.451 2.346 3.322.137 1.567-1.38-1.097-2.529-1.404-3.855-1.029l-.957.27 1.117.249c1.223.273 5.068 2.119 6.459 3.102.903.638 1.341 4.39.609 5.217-.631.714-1.731 2.786-1.356 2.554 2.203-1.362 3.133-6.921 1.421-8.495-.463-.425-1.601-1.794-2.531-3.04-2.661-3.571-7.501-4.97-13.632-3.94m3.48 3.974c-.333.252-.717.388-.855.303-.137-.085-.341-.007-.452.172-.38.616.762.697 1.567.111.785-.572 1.064-1.075.585-1.055-.132.006-.512.217-.845.469m1.9 3.509c.105.701.333 1.419.507 1.594.345.347.073-1.101-.419-2.232q-.279-.644-.088.638m4.169 1.355c.426 1.763.821 2.486 1.894 3.469l1.095 1.003-.031 2.828c-.045 3.981-.124 4.144-3.171 6.576-1.484 1.184-2.828 2.44-2.987 2.791-.582 1.289-.736.963-1.585-3.349-.07-.351-.143.041-.163.87-.035 1.42.745 4.077 1.194 4.071.112-.002.491-.504.842-1.116.353-.614 1.709-1.866 3.031-2.796 4.635-3.263 5.476-8.927 1.917-12.92-.879-.986-1.598-1.908-1.598-2.049 0-.14-.147-.255-.326-.255-.193 0-.239.355-.112.877m-9.431 2.602c-1.012 2.402-3.522 5.801-4.623 6.261l-1.083.453.624 1.642c1.345 3.539 2.421 4.99 5.415 7.303 1.182.914 1.064.728-.758-1.188-1.25-1.315-2.48-2.987-2.92-3.97-1.24-2.772-1.246-2.901-.162-3.613 1.875-1.233 4.307-5.567 4.068-7.251-.091-.644-.153-.604-.561.363m-2.891.205c0 .925-.817 2.672-1.284 2.743-.171.027-.49.063-.709.08-.22.018-.588.286-.82.596-.47.63-1.153.417-.887-.277.095-.246.045-.446-.111-.446-.443 0-.597.741-.281 1.355.375.729 3.05-.531 3.907-1.84.694-1.058 1.049-3.024.546-3.024-.198 0-.361.366-.361.813m6.066 3.541c-.003.377-.515 2.007-1.139 3.622-1.301 3.37-1.28 3.788.368 7.072 1.421 2.83 1.9 3.051.745.343-1.084-2.542-1.147-3.774-.33-6.506.838-2.8 1.032-4.177.67-4.738-.252-.391-.31-.353-.314.207m-144.981 3.12c-4.909 1.798-5.602 11.831-1.851 26.806 2.502 9.989 4.366 11.089 22.744 13.42 13.539 1.717 16.616 1.515 22.617-1.485 7.355-3.676 7.398-4.378.823-13.247-9.718-13.108-12.582-15.345-27.108-21.179-10.4-4.176-14.678-5.248-17.225-4.315m284.21-.117c-7 1.704-25.237 9.543-28.785 12.372-3.083 2.46-14.289 16.677-15.727 19.954-1.094 2.493-.231 3.702 4.396 6.163 6.995 3.721 12.994 3.824 32.399.556 10.425-1.755 12.08-3.424 14.551-14.675 3.905-17.775 1.487-26.396-6.834-24.37m-277.142 4.093c5.583 1.83 15.072 5.72 20.524 8.415 5.264 2.601 18.588 18.595 17.675 21.218-.509 1.463-5.868 4.019-9.541 4.55-5.787.837-27.446-2.399-30.765-4.595-4.651-3.078-8.142-27.896-4.243-30.167 1.007-.587 3.482-.361 6.35.579m281.297-.088c3.208 3.462-.508 26.925-4.7 29.678-4.374 2.872-28.581 5.721-33.494 3.942-7.389-2.676-8.027-3.641-5.14-7.779 8.849-12.686 11.939-15.645 20.049-19.199 15.859-6.951 21.506-8.561 23.285-6.642M62.733 257.31c-1.072 1.071.379 2.374 3.799 3.413 1.565.476 3.492 1.064 4.281 1.307.79.243 4.953 1.47 9.251 2.726s9.162 2.7 10.808 3.207c3.746 1.153 4.61.8 2.646-1.082-.888-.851-3.712-1.797-19.834-6.645a872 872 0 0 1-7.26-2.217c-3.189-.995-3.371-1.03-3.691-.709m270.587.589a2622 2622 0 0 1-17.85 5.411c-8.959 2.66-10.526 3.377-10.526 4.82 0 .853.792.69 10.248-2.118 19.208-5.704 20.169-6.019 20.921-6.859 1.519-1.697.354-2.22-2.793-1.254m-196.097 18.038c-5.743.754-10.462 3.345-17.845 9.799-4.288 3.748-.424 3.331 4.294-.463 5.604-4.508 7.77-5.73 11.855-6.691 2.762-.649 124.078-.758 127.625-.114 4.047.734 5.956 1.77 12.206 6.62 3.444 2.674 7.043 4.1 6.562 2.601-.633-1.971-11.965-9.763-16.051-11.037l-2.871-.894-61.882-.042c-34.035-.024-62.787.076-63.893.221"/></g></svg>