<svg xmlns="http://www.w3.org/2000/svg" width="400" height="400" viewBox="0 0 400 400"><g fill-rule="evenodd"><path fill="#040404" d="M198.927 50.478c-.247.395-.542 1.866-.655 3.27-.322 3.995-.296 3.983-8.639 3.987-25.927.013-70.505 2.534-84.528 4.781-3.493.56-3.892.569-4.588.113-1.192-.781-8.59-.477-10.615.435-1.96.884-3.755 2.781-5.139 5.432-4.235 8.112-13.573 48.281-19.531 84.022-.624 3.747-1.841 10.185-2.705 14.308-2.451 11.709-3.507 18.55-4.155 26.93-.187 2.411-.78 6.186-1.429 9.091-2.586 11.585-2.972 15.334-3.448 33.517-.869 33.209.289 52.71 3.675 61.882l1.001 2.711.218 17.384c.258 20.741.392 21.755 3.226 24.462 1.865 1.782 1.78 1.774 17.659 1.799l14.68.023 1.517-.734c3.378-1.636 3.954-3.355 4.558-13.588.258-4.386.546-8.982.64-10.214l.169-2.239 1.335.093c.735.051 2.915.235 4.845.409 33.642 3.036 80.939 4.598 117.142 3.869 28.88-.581 38.742-1.13 70.65-3.933 2.409-.211 4.439-.322 4.51-.245.071.076.302 3.368.512 7.316.806 15.171 1.197 16.637 4.953 18.588 1.485.771 29.993 1.044 31.782.304 4.593-1.9 5.019-4.084 5.375-27.505l.244-16.108.972-2.711c2.838-7.913 4.052-23.601 3.751-48.485-.329-27.269-1.427-39.791-4.336-49.442-.185-.614-.549-3.7-.809-6.858-.643-7.818-1.68-14.754-3.933-26.294-1.046-5.363-2.569-13.698-3.383-18.523-7.528-44.585-15.665-77.637-20.405-82.884-2.575-2.849-11.005-4.572-13.708-2.801-.723.473-1.059.465-4.387-.1-13.596-2.311-46.065-4.281-77.518-4.704l-14.904-.201-.684-.728c-.529-.563-.749-1.36-.966-3.506-.366-3.608-1.695-4.925-2.949-2.923m35.044 16.188c34.084.806 67.667 2.826 71.099 4.277 3.079 1.302 4.807 5.838 9.611 25.229 7.626 30.782 7.728 41.983.409 45.132-1.682.723-1.723.725-25.453.984-30.563.334-147.731.336-178.703.002l-23.835-.256-1.843-.921c-7.092-3.545-6.842-14.393 1.056-45.898 3.193-12.738 5.656-20.608 7-22.37 1.645-2.157 2.706-2.4 14.344-3.29 19.555-1.496 46.794-2.736 65.709-2.991 16.462-.222 49.241-.167 60.606.102m-194.896 54.83c-3.438 1.587-4.389 4.891-4.8 16.672-.57 16.339.616 17.823 14.328 17.923 8.161.06 9.119-.206 10.634-2.953.866-1.569.93-1.614 2.337-1.618l1.447-.005 1.276-7.009c1.423-7.811 1.496-7.345-1.154-7.345-1.984 0-2.098-.215-2.37-4.466-.52-8.114-1.749-10.629-5.596-11.454-2.909-.624-14.599-.439-16.102.255m306.38-.304c-3.929.792-5.127 3.062-5.706 10.81-.376 5.028-.451 5.159-2.976 5.159h-1.905l.224 1.625c.123.893.679 4.087 1.236 7.097l1.014 5.473 1.528.098c1.379.088 1.571.198 1.957 1.116 1.413 3.358 4.349 4.054 14.684 3.479 9.954-.553 10.527-1.401 10.503-15.539-.024-13.975-1.109-18.02-5.158-19.233-1.394-.418-13.424-.484-15.401-.085M72.503 167.256c5.75 5.814 10.622 9.556 26.516 20.37 2.267 1.542 3.918 2.805 3.668 2.805-1.16-.001-13.19-2.578-20.154-4.319-4.991-1.248-14.525-4.123-17.78-5.362l-2.074-.79.037-1.862c.092-4.7 3.802-15.1 5.386-15.1.105 0 2.085 1.916 4.401 4.258m260.73-3.162c1.735 2.105 4.286 10.402 4.368 14.212l.039 1.75-5.902 1.979c-8.254 2.769-20.478 5.891-32.691 8.349-2.316.466-2.25.397 2.864-3.036 15.072-10.119 23.768-16.97 27.942-22.017 2.229-2.694 2.19-2.68 3.38-1.237m-267.187 19.17c10.575 3.576 25.764 7.335 38.703 9.58 2.979.517 4.98 1.587 4.98 2.663 0 .739-5.616 23.293-5.861 23.539-.233.233-13.513-2.308-20.598-3.941-17.74-4.09-21.944-7.195-22.824-16.859-.362-3.974.835-15.004 1.705-15.71.593-.482-.024-.597 3.895.728m272.042-.833c1.1.696 2.095 14.644 1.324 18.561-1.51 7.68-7.12 10.887-26.133 14.943-10.696 2.282-16.677 3.322-16.912 2.942-.119-.192-1.496-5.545-3.061-11.895l-2.846-11.546 1.144-.988c1.032-.89 1.702-1.093 6.843-2.066 12.875-2.438 25.253-5.55 34.248-8.611 5.396-1.836 4.831-1.696 5.393-1.34m-132.72 6.963c1.046.892 10.262 17.148 10.262 18.101 0 .548-6.93 14.328-9.304 18.502l-1.089 1.914-4.888.088c-5.897.106-5.005.765-8.91-6.574-7.638-14.354-7.401-13.554-5.199-17.517 3.8-6.84 7.826-13.696 8.429-14.355.901-.983 9.582-1.112 10.699-.159m-83.591 5.337c12.447.889 27.985 1.736 41.062 2.237 19.69.755 18.944.67 17.691 2.015-.78.837-6.591.936-21.519.366-14.455-.552-44.029-2.631-44.553-3.131-.295-.283.062-1.96.418-1.96.158 0 3.264.213 6.901.473m164.287.861c.091.787-.01.869-1.276 1.036-4.078.538-12.856 1.242-28.329 2.271-4.122.274-13.969.582-21.881.684l-14.385.185-.527-.752c-.29-.414-.527-.844-.527-.956s2.978-.299 6.619-.417c20.874-.675 39.476-1.637 55.263-2.857 3.811-.294 4.936-.115 5.043.806m-88.935 7.44-2.711 5.257 2.481 4.898c3.577 7.061 2.912 6.958 5.937.919 1.422-2.842 2.587-5.469 2.587-5.837 0-.715-5.007-10.505-5.368-10.498-.118.003-1.435 2.37-2.926 5.261m-86.077 16.088c2.42.911 4.222 2.574 7.021 6.478 11.655 16.26 17.999 20.067 35.465 21.285 19.208 1.339 78.867 1.142 96.223-.318 15.085-1.269 20.728-4.848 32.469-20.595 3.701-4.963 4.556-5.75 7.623-7.011 2.172-.893 3.146-.971 3.414-.273.405 1.055.148 1.466-1.321 2.11-2.787 1.221-3.924 2.298-8.191 7.753-14.283 18.26-18.46 20.188-45.956 21.208-23.217.862-69.072.68-84.21-.334-18.355-1.229-24.281-4.566-36.548-20.577-4.037-5.27-5.417-6.596-8.156-7.838-1.975-.895-2.246-1.246-1.82-2.356.251-.654 1.348-.525 3.987.468m31.851 68.923c33.432 1.265 87.074 1.184 119.107-.181 13.537-.577 12.528-.826 11.516 2.842-3.245 11.752-3.459 11.966-12.699 12.626-19.63 1.404-102.722 1.411-121.612.01-8.923-.661-9.511-1.26-12.748-12.977-.853-3.088-.853-3.088 3.923-2.846 2.233.113 7.864.35 12.513.526"/><path fill="#fbfbfb" d="M0 200v200h400V0H0zM201.237 50.192c.196.237.484 1.681.639 3.209.217 2.146.437 2.943.966 3.506l.684.728 14.904.201c31.453.423 63.922 2.393 77.518 4.704 3.328.565 3.664.573 4.387.1 2.703-1.771 11.133-.048 13.708 2.801 4.74 5.247 12.877 38.299 20.405 82.884.814 4.825 2.337 13.16 3.383 18.523 2.253 11.54 3.29 18.476 3.933 26.294.26 3.158.624 6.244.809 6.858 5.739 19.041 6.118 82.5.585 97.927l-.972 2.711-.244 16.108c-.326 21.457-.614 23.716-3.328 26.098-2.027 1.78-1.768 1.755-17.721 1.76-21.215.008-19.978 1.138-21.061-19.245-.21-3.948-.441-7.24-.512-7.316-.071-.077-2.101.034-4.51.245-31.908 2.803-41.77 3.352-70.65 3.933-36.203.729-83.5-.833-117.142-3.869a345 345 0 0 0-4.845-.409l-1.335-.093-.169 2.239c-.094 1.232-.382 5.828-.64 10.214-.604 10.233-1.18 11.952-4.558 13.588l-1.517.734-14.68-.023c-21.97-.035-20.536 1.768-20.885-26.261l-.218-17.384-1.001-2.711c-3.386-9.172-4.544-28.673-3.675-61.882.476-18.183.862-21.932 3.448-33.517.649-2.905 1.242-6.68 1.429-9.091.648-8.38 1.704-15.221 4.155-26.93.864-4.123 2.081-10.561 2.705-14.308 5.958-35.741 15.296-75.91 19.531-84.022 1.384-2.651 3.179-4.548 5.139-5.432 2.025-.912 9.423-1.216 10.615-.435.696.456 1.095.447 4.588-.113 14.023-2.247 58.601-4.768 84.528-4.781 8.343-.004 8.317.008 8.639-3.987.283-3.507 1.647-5.144 2.965-3.556m-27.872 16.372c-31.51.425-75.06 3.048-78.285 4.715-2.501 1.294-4.373 6.404-8.768 23.936-7.898 31.505-8.148 42.353-1.056 45.898l1.843.921 23.835.256c30.972.334 148.14.332 178.703-.002 23.73-.259 23.771-.261 25.453-.984 7.319-3.149 7.217-14.35-.409-45.132-4.804-19.391-6.532-23.927-9.611-25.229-6.63-2.803-76.443-5.124-131.705-4.379M55.177 121.241c3.847.825 5.076 3.34 5.596 11.454.272 4.251.386 4.466 2.37 4.466 2.65 0 2.577-.466 1.154 7.345l-1.276 7.009-1.447.005c-1.407.004-1.471.049-2.337 1.618-1.515 2.747-2.473 3.013-10.634 2.953-13.712-.1-14.898-1.584-14.328-17.923.411-11.781 1.362-15.085 4.8-16.672 1.503-.694 13.193-.879 16.102-.255m305.679.036c4.049 1.213 5.134 5.258 5.158 19.233.024 14.138-.549 14.986-10.503 15.539-10.335.575-13.271-.121-14.684-3.479-.386-.918-.578-1.028-1.957-1.116l-1.528-.098-1.014-5.473c-.557-3.01-1.113-6.204-1.236-7.097l-.224-1.625h1.905c2.525 0 2.6-.131 2.976-5.159.579-7.748 1.777-10.018 5.706-10.81 1.977-.399 14.007-.333 15.401.085M67.139 163.833c-1.582 1.707-4.352 10.641-4.423 14.265l-.037 1.862 2.074.79c3.255 1.239 12.789 4.114 17.78 5.362 6.964 1.741 18.994 4.318 20.154 4.319.25 0-1.401-1.263-3.668-2.805-15.894-10.814-20.766-14.556-26.516-20.37-4.745-4.797-4.334-4.535-5.364-3.423m262.714 1.498c-4.174 5.047-12.87 11.898-27.942 22.017-5.114 3.433-5.18 3.502-2.864 3.036 12.213-2.458 24.437-5.58 32.691-8.349l5.902-1.979-.039-1.75c-.108-5.003-3.841-15.308-5.545-15.308-.15 0-1.142 1.05-2.203 2.333M62.151 182.536c-.87.706-2.067 11.736-1.705 15.71.88 9.664 5.084 12.769 22.824 16.859 7.085 1.633 20.365 4.174 20.598 3.941.245-.246 5.861-22.8 5.861-23.539 0-1.076-2.001-2.146-4.98-2.663-12.939-2.245-28.128-6.004-38.703-9.58-3.919-1.325-3.302-1.21-3.895-.728m270.544 1.235c-8.995 3.061-21.373 6.173-34.248 8.611-5.141.973-5.811 1.176-6.843 2.066l-1.144.988 2.846 11.546c1.565 6.35 2.942 11.703 3.061 11.895.235.38 6.216-.66 16.912-2.942 19.013-4.056 24.623-7.263 26.133-14.943.771-3.917-.224-17.865-1.324-18.561-.562-.356.003-.496-5.393 1.34m-138.026 5.782c-.603.659-4.629 7.515-8.429 14.355-2.202 3.963-2.439 3.163 5.199 17.517 3.905 7.339 3.013 6.68 8.91 6.574l4.888-.088 1.089-1.914c2.374-4.174 9.304-17.954 9.304-18.502 0-.953-9.216-17.209-10.262-18.101-1.117-.953-9.798-.824-10.699.159m-80.253 5.583c-.25 1.275-.448 1.229 8.391 1.96 29.226 2.419 56.399 3.307 57.723 1.887 1.253-1.345 1.999-1.26-17.691-2.015-13.077-.501-28.615-1.348-41.062-2.237-3.637-.26-6.743-.473-6.901-.473s-.366.395-.46.878m166.605-.35c-15.787 1.22-34.389 2.182-55.263 2.857-3.641.118-6.619.305-6.619.417s.237.542.527.956l.527.752 14.385-.185c7.912-.102 17.759-.41 21.881-.684 15.473-1.029 24.251-1.733 28.329-2.271 1.266-.167 1.367-.249 1.276-1.036-.107-.921-1.232-1.1-5.043-.806m-78.175 7.897c3.13 5.971 3.131 5.149-.01 11.423-3.025 6.039-2.36 6.142-5.937-.919l-2.481-4.898 2.711-5.257c1.491-2.891 2.808-5.258 2.926-5.261.117-.002 1.373 2.208 2.791 4.912m-95.781 15.969c-.426 1.11-.155 1.461 1.82 2.356 2.739 1.242 4.119 2.568 8.156 7.838 12.267 16.011 18.193 19.348 36.548 20.577 15.138 1.014 60.993 1.196 84.21.334 27.496-1.02 31.673-2.948 45.956-21.208 4.267-5.455 5.404-6.532 8.191-7.753 3.485-1.528 1.466-3.3-2.093-1.837-3.067 1.261-3.922 2.048-7.623 7.011-11.741 15.747-17.384 19.326-32.469 20.595-17.356 1.46-77.015 1.657-96.223.318-17.466-1.218-23.81-5.025-35.465-21.285-2.799-3.904-4.601-5.567-7.021-6.478-2.639-.993-3.736-1.122-3.987-.468m19.06 69.194c-.23.6.302 2.68 2.144 8.38 1.866 5.777 3.02 6.527 10.946 7.114 18.89 1.401 101.982 1.394 121.612-.01 9.24-.66 9.454-.874 12.699-12.626 1.012-3.668 2.021-3.419-11.516-2.842-36.837 1.57-96.957 1.412-131.62-.345-3.622-.184-4.082-.148-4.265.329"/></g></svg>