<svg xmlns="http://www.w3.org/2000/svg" width="400" height="400" viewBox="0 0 400 400"><g fill-rule="evenodd"><path fill="#050505" d="M165.391 50.401c-21.276.647-44.169 1.846-44.786 2.346-.291.235-2.201.368-5.423.376-8.016.022-10.122 1.104-13.007 6.686-4.554 8.808-11.15 36.078-16.05 66.347-2.6 16.064-3.118 18.988-3.784 21.372-.344 1.228-.717 2.648-.83 3.155l-.206.922-2.295-.252c-1.263-.138-2.87-.237-3.571-.219s-2.444-.045-3.871-.138l-2.594-.17.042-4.679c.063-6.905-.904-8.387-5.769-8.843-11.941-1.119-14.28 2.148-14.674 20.497l-.166 7.72 1.506 3.763c.828 2.069 1.584 4.525 1.68 5.456.321 3.114 2.98 4.189 10.393 4.201 4.287.007 5.401-.399 5.996-2.186.244-.73 7.616-.154 7.616.595 0 .308-.709 3.022-1.577 6.031-2.875 9.98-3.659 15.5-4.487 31.611-.187 3.629-.614 7.616-1.108 10.355-2.579 14.287-2.636 34.783-.168 60.618.438 4.579.558 7.64.426 10.845-.316 7.683.775 38.79 1.495 42.614 1.17 6.214 1.52 6.35 16.445 6.349 16.644-.001 15.729.955 16.331-17.053l.235-7.005 1.054-.215c.58-.118 1.226-.446 1.436-.729.34-.459.926-.481 5.484-.199 20.106 1.242 156.525 1.256 177.353.018 4.043-.241 4.865-.212 5.305.184.286.258 1.04.612 1.675.787l1.154.319.011 2.298c.028 5.706.642 15.832 1.051 17.314 1.19 4.323 1.041 4.282 15.578 4.282 14.692 0 15.027-.125 16.182-6.036.796-4.074 1.823-32.406 1.533-42.282-.138-4.685-.042-7.388.426-11.962 2.542-24.858 2.386-44.839-.48-61.73-.45-2.654-.84-6.6-.962-9.729-.534-13.764-1.727-21.86-4.459-30.243-.783-2.401-1.516-4.959-1.63-5.684l-.207-1.319 3.93-.236c3.19-.192 3.956-.154 4.074.199.591 1.773 1.721 2.195 5.873 2.195 7.605 0 10.022-1.037 10.664-4.577.215-1.188.918-3.407 1.561-4.932 1.588-3.763 1.935-7.255 1.446-14.574-1.025-15.371-2.512-17.543-12.008-17.543-7.605 0-8.637 1.081-8.567 8.97l.04 4.504-3.392.204c-1.865.112-4.777.292-6.471.399l-3.079.195-.387-1.873c-.212-1.03-.643-2.591-.956-3.468s-.88-3.676-1.261-6.22c-5.53-36.988-13.106-70.252-18.254-80.146-3.001-5.769-6.429-7.328-14.861-6.76-2.713.183-3.376.137-3.828-.266-.585-.521-7.527-.983-30.212-2.011-12.579-.57-68.619-.874-82.615-.448m82.615 40.214c53.766 1.126 51.553.411 54.183 17.519 6.005 39.06 6.438 50.122 2.112 54.011-3.452 3.103-8.092 3.213-125.513 2.969-80.846-.167-78.938-.127-82.124-1.727-4.611-2.315-5.583-7.912-4.028-23.196.745-7.326 1.301-11.374 4.51-32.847 2.063-13.798 4.361-15.428 22.471-15.933 3.772-.106 12.098-.348 18.501-.54 28.589-.854 76.021-.965 109.888-.256M72.088 159.307c.188 1.09.832 1.334 4.387 1.656 1.482.134 2.313.348 2.313.596 0 .212-.359 2.008-.798 3.991a246 246 0 0 0-.797 3.676c0 .038-1.172.138-2.604.221-2.2.127-2.694.26-3.178.858-.445.55-.843.686-1.781.608-1.5-.124-1.52-.249-1.205-7.531l.225-5.199 1.638.095c1.534.089 1.649.155 1.8 1.029m259.123 4.995c.117 3.348.131 6.219.032 6.379-.386.625-2.598.32-3.093-.425-.421-.634-.796-.731-3.231-.831-2.509-.103-2.768-.174-2.913-.798l-.914-3.938-.755-3.253.836-.159c.46-.087 1.77-.256 2.91-.375 2.984-.31 3.509-.568 3.509-1.723 0-.954.02-.965 1.704-.965H331zM97.767 195.206c24.167 5.039 22.587 4.494 24.093 8.303 1.317 3.332 3.194 8.705 3.08 8.818-.122.122-17.683-3.204-32.194-6.097-12.353-2.463-11.606-2.658-11.489 2.992.248 11.984.725 12.717 9.891 15.202 2.393.649 2.365.439.352 2.645-2.525 2.767-2.266 2.691-6.042 1.776-9.952-2.409-10.391-2.785-11.335-9.706-1.574-11.552-.411-25.821 2.241-27.482 1.207-.756-.985-1.119 21.403 3.549m225.369-3.654c2.35 1.215 3.545 9.955 2.88 21.048-.607 10.11-1.227 12.412-3.709 13.781-1.668.92-11.165 3.397-11.734 3.061-.603-.356-4.148-4.237-3.998-4.375.068-.063 1.918-.651 4.111-1.308 6.933-2.078 7.655-3.459 7.655-14.633 0-5.532.779-5.333-11.44-2.917-7.953 1.572-29.169 5.67-31.403 6.065-1.077.19-1.155.561 1.244-5.868 2.62-7.022.749-6.096 20.736-10.266 8.58-1.789 17.394-3.644 19.587-4.121 4.882-1.062 4.915-1.064 6.071-.467m-116.782 12.394c.424.198 2.251 2.442 4.059 4.985 4.389 6.175 3.723 5.835 10.959 5.594 6.472-.216 37.134-1.868 44.926-2.421 5.493-.39 5.348-.422 4.86 1.056l-.357 1.081-5.815.376c-16.745 1.083-41.481 2.286-47.051 2.288l-2.639.001-1.422-1.994a1703 1703 0 0 1-4.222-5.973c-3.488-4.955-3.138-4.782-9.684-4.788-6.999-.006-6.675-.157-10.074 4.697-1.547 2.209-3.463 4.889-4.257 5.957l-1.445 1.941-6.95-.068c-10.516-.103-47.897-2.118-48.421-2.609-.113-.107-.308-.682-.434-1.279l-.229-1.086 2.508.207c7.516.621 37.09 2.269 47.231 2.634 7.427.267 6.688.614 10.721-5.049 3.968-5.573 4.206-5.782 6.861-6.011 3.02-.261 9.958.034 10.875.461m-108.268 5.298c11.287 2.287 26.2 5.11 26.989 5.11.983 0-.156 2.277-2.711 5.423-4.121 5.073-6.991 8.461-7.334 8.657-.866.496-27.042-5.928-29.649-7.277-1.874-.968-3.718-11.286-2.558-14.308.26-.679-.521-.802 15.263 2.395m218.73-2.042c.573 1.258-.174 10.244-1.009 12.132-.928 2.097-6.656 3.932-24.738 7.925-2.807.62-5.404 1.196-5.771 1.281-.546.127-1.42-.758-4.801-4.862-5.377-6.527-5.815-7.125-6.04-8.25l-.189-.946 9.836-1.834a1452 1452 0 0 0 20.521-4.022c12.519-2.561 11.715-2.467 12.191-1.424m-110.228 4.76c1.606 2.807 3.544 6.283 4.307 7.725l1.386 2.621-1.899 3.599a456 456 0 0 1-4.309 7.905l-2.411 4.306h-7.92l-4.245-7.655c-2.335-4.211-4.248-7.837-4.251-8.058-.004-.337 6.749-12.723 8.178-14.998.44-.702.596-.725 4.35-.638l3.894.089zm-9.06 6.37c-1.097 2.008-1.994 3.812-1.994 4.008 0 .494 3.832 7.645 4.094 7.64.281-.005 4.2-7.138 4.2-7.645 0-.459-3.895-7.664-4.141-7.659-.091.002-1.063 1.647-2.159 3.656m-74.083 9.007c8.257 2.436 9.479 4.16 16.578 23.379 7.536 20.401 7.32 20.251 30.95 21.428 10.486.522 46.518.52 57.735-.003 23.358-1.091 23.466-1.162 30.559-20.318 7.703-20.799 8.823-22.352 17.926-24.84l3.03-.828 1.041 1.196c1.482 1.703 1.791 2.292 1.286 2.454-.227.074-1.776.514-3.443.979-8.622 2.406-10.84 5.574-17.867 25.514-6.645 18.854-9.025 19.606-62.037 19.613-51.653.006-53.704-.647-60.593-19.294-3.973-10.755-5.007-13.396-6.4-16.353-2.517-5.341-5.988-8.082-12.274-9.693-3.502-.897-3.503-.9-1.933-2.762 1.495-1.773 1.138-1.742 5.442-.472m22.698 2.478c9.165.446 19.107.835 33.681 1.317l6.459.213.957 1.556c.527.856.958 1.662.958 1.791.001.456-29.922-.42-48.007-1.406l-3.827-.208-1.186-1.867-1.186-1.867h1.236c.68 0 5.591.212 10.915.471m118.27 1.398-1.247 1.868-3.752.206c-14.439.794-47.626 1.839-47.971 1.51-.11-.104.279-.928.864-1.829l1.064-1.64 5.834-.19c13.638-.446 26.124-.932 33.427-1.304 4.298-.218 8.988-.418 10.422-.443l2.607-.047zm-104.126 12.714c24.877.993 64.733.743 91.66-.574 7.914-.388 7.182-.576 6.298 1.621l-.707 1.754-3.011.216c-23.088 1.654-68.181 1.841-100.62.417-5.789-.254-10.829-.464-11.199-.467-.577-.005-2.038-2.691-2.038-3.746 0-.097 1.328-.084 2.95.028s9.123.45 16.667.751m4.625 13.502c21.527.859 55.544.698 79.99-.379 4.608-.203 8.468-.279 8.578-.169.256.256-.759 2.936-1.264 3.34-1.097.877-47.569 1.794-68.643 1.355-30.724-.639-36.343-.923-36.61-1.846-.09-.309-.405-1.122-.701-1.807l-.538-1.246 5.846.226c3.215.125 9.219.361 13.342.526M95.916 268.29c7.939.675 17.052 1.807 17.408 2.163.527.527-3.033.462-14.281-.259-11.6-.745-12.635-.63-15.072 1.678-2.073 1.961-4.198 10.734-2.711 11.191.623.192 20.624 2.428 28.788 3.219 6.802.659 7.336.749 7.336 1.233 0 .516-8.358 12.764-9.688 14.198-1.982 2.136-3.887 2.346-13.298 1.464-15.445-1.447-15.798-1.744-15.726-13.225.125-19.669 2.696-22.899 17.244-21.662m219.058.77c4.384 2.267 5.968 7.831 6.042 21.218.062 11.08-.371 11.428-16.052 12.899-9.536.894-11.105.687-13.183-1.741-1.457-1.702-9.484-13.548-9.484-13.995 0-.435.277-.473 12.918-1.776 15.469-1.595 23.05-2.486 23.496-2.761.989-.612-1.07-8.861-2.664-10.677-2.343-2.668-3.686-2.838-16.145-2.05-11.81.746-14.061.792-13.545.276.687-.687 18.097-2.491 23.236-2.408 3.241.053 3.684.137 5.381 1.015m-227.89 19.167c-2.999 1.301-5.291 7.859-3.527 10.091 1.111 1.404 8.408 2.568 16.396 2.615l4.1.024 1.482-1.625c2.18-2.389 6.6-9.017 6.245-9.364-.245-.24-21.21-2.276-23.021-2.236-.309.007-1.063.23-1.675.495m211.64.468c-5.263.498-9.805.913-10.093.922-1.173.036-.778 1.076 1.845 4.861 5.131 7.402 4.606 7.209 16.31 6.016 10.392-1.059 11.426-2.01 9.033-8.308-1.846-4.858-2.106-4.912-17.095-3.491m-39.813 12.123c1.576.595 4.349 3.811 3.778 4.382-.291.291-125.406.291-125.697 0-.544-.543 2.171-3.765 3.678-4.364 1.149-.457 117.033-.475 118.241-.018"/><path fill="#fbfbfb" d="M0 200v200h400V0H0zM248.006 50.849c22.685 1.028 29.627 1.49 30.212 2.011.452.403 1.115.449 3.828.266 8.432-.568 11.86.991 14.861 6.76 5.148 9.894 12.724 43.158 18.254 80.146.381 2.544.948 5.343 1.261 6.22s.744 2.438.956 3.468l.387 1.873 3.079-.195c1.694-.107 4.606-.287 6.471-.399l3.392-.204-.04-4.504c-.07-7.889.962-8.97 8.567-8.97 9.496 0 10.983 2.172 12.008 17.543.489 7.319.142 10.811-1.446 14.574-.643 1.525-1.346 3.744-1.561 4.932-.642 3.54-3.059 4.577-10.664 4.577-4.152 0-5.282-.422-5.873-2.195-.118-.353-.884-.391-4.074-.199l-3.93.236.207 1.319c.114.725.847 3.283 1.63 5.684 2.732 8.383 3.925 16.479 4.459 30.243.122 3.129.512 7.075.962 9.729 2.866 16.891 3.022 36.872.48 61.73-.468 4.574-.564 7.277-.426 11.962.29 9.876-.737 38.208-1.533 42.282-1.155 5.911-1.49 6.036-16.182 6.036-14.537 0-14.388.041-15.578-4.282-.409-1.482-1.023-11.608-1.051-17.314l-.011-2.298-1.154-.319c-.635-.175-1.389-.529-1.675-.787-.44-.396-1.262-.425-5.305-.184-20.828 1.238-157.247 1.224-177.353-.018-4.558-.282-5.144-.26-5.484.199-.21.283-.856.611-1.436.729l-1.054.215-.235 7.005c-.602 18.008.313 17.052-16.331 17.053-14.925.001-15.275-.135-16.445-6.349-.72-3.824-1.811-34.931-1.495-42.614.132-3.205.012-6.266-.426-10.845-2.468-25.835-2.411-46.331.168-60.618.494-2.739.921-6.726 1.108-10.355.828-16.111 1.612-21.631 4.487-31.611.868-3.009 1.577-5.723 1.577-6.031 0-.749-7.372-1.325-7.616-.595-.595 1.787-1.709 2.193-5.996 2.186-7.413-.012-10.072-1.087-10.393-4.201-.096-.931-.852-3.387-1.68-5.456l-1.506-3.763.166-7.72c.394-18.349 2.733-21.616 14.674-20.497 4.865.456 5.832 1.938 5.769 8.843l-.042 4.679 2.594.17c1.427.093 3.169.155 3.871.138.701-.018 2.308.081 3.571.219l2.295.252.206-.922c.113-.507.486-1.927.83-3.155.666-2.384 1.184-5.308 3.784-21.372 4.9-30.269 11.496-57.539 16.05-66.347 2.885-5.582 4.991-6.664 13.007-6.686 3.222-.008 5.132-.141 5.423-.376.617-.5 23.51-1.699 44.786-2.346 13.996-.426 70.036-.122 82.615.448m-78.628 39.434c-10.789.132-24.856.397-31.26.588-6.403.192-14.729.434-18.501.54-18.11.505-20.408 2.135-22.471 15.933-3.209 21.473-3.765 25.521-4.51 32.847-1.555 15.284-.583 20.881 4.028 23.196 3.186 1.6 1.278 1.56 82.124 1.727 117.421.244 122.061.134 125.513-2.969 4.326-3.889 3.893-14.951-2.112-54.011-1.804-11.738-3.163-13.824-10.191-15.646-6.012-1.557-74.634-2.791-122.62-2.205M68.425 163.382c-.315 7.282-.295 7.407 1.205 7.531.938.078 1.336-.058 1.781-.608.484-.598.978-.731 3.178-.858 1.432-.083 2.604-.183 2.604-.221s.359-1.693.797-3.676.798-3.779.798-3.991c0-.248-.831-.462-2.313-.596-3.555-.322-4.199-.566-4.387-1.656-.151-.874-.266-.94-1.8-1.029l-1.638-.095zm259.167-4.203c0 1.155-.525 1.413-3.509 1.723-1.14.119-2.45.288-2.91.375l-.836.159.755 3.253.914 3.938c.145.624.404.695 2.913.798 2.435.1 2.81.197 3.231.831.495.745 2.707 1.05 3.093.425.099-.16.085-3.031-.032-6.379l-.211-6.088h-1.704c-1.684 0-1.704.011-1.704.965M76.364 191.657c-2.652 1.661-3.815 15.93-2.241 27.482.944 6.921 1.383 7.297 11.335 9.706 3.776.915 3.517.991 6.042-1.776 2.013-2.206 2.041-1.996-.352-2.645-9.166-2.485-9.643-3.218-9.891-15.202-.117-5.65-.864-5.455 11.489-2.992 14.511 2.893 32.072 6.219 32.194 6.097.114-.113-1.763-5.486-3.08-8.818-1.506-3.809.074-3.264-24.093-8.303-22.388-4.668-20.196-4.305-21.403-3.549m240.701.362c-2.193.477-11.007 2.332-19.587 4.121-19.987 4.17-18.116 3.244-20.736 10.266-2.399 6.429-2.321 6.058-1.244 5.868 2.234-.395 23.45-4.493 31.403-6.065 12.219-2.416 11.44-2.615 11.44 2.917 0 11.174-.722 12.555-7.655 14.633-2.193.657-4.043 1.245-4.111 1.308-.15.138 3.395 4.019 3.998 4.375.569.336 10.066-2.141 11.734-3.061 2.482-1.369 3.102-3.671 3.709-13.781.458-7.64-.274-17.334-1.486-19.678-1.031-1.994-1.943-2.104-7.465-.903m-121.586 11.466c-2.655.229-2.893.438-6.861 6.011-4.033 5.663-3.294 5.316-10.721 5.049-10.141-.365-39.715-2.013-47.231-2.634l-2.508-.207.229 1.086c.126.597.321 1.172.434 1.279.524.491 37.905 2.506 48.421 2.609l6.95.068 1.445-1.941c.794-1.068 2.71-3.748 4.257-5.957 3.399-4.854 3.075-4.703 10.074-4.697 6.546.006 6.196-.167 9.684 4.788a1703 1703 0 0 0 4.222 5.973l1.422 1.994 2.639-.001c5.57-.002 30.306-1.205 47.051-2.288l5.815-.376.357-1.081c.488-1.478.633-1.446-4.86-1.056-7.792.553-38.454 2.205-44.926 2.421-7.236.241-6.57.581-10.959-5.594-1.808-2.543-3.635-4.787-4.059-4.985-.917-.427-7.855-.722-10.875-.461m-112.656 3.364c-1.16 3.022.684 13.34 2.558 14.308 2.607 1.349 28.783 7.773 29.649 7.277.343-.196 3.213-3.584 7.334-8.657 2.555-3.146 3.694-5.423 2.711-5.423-.789 0-15.702-2.823-26.989-5.11-15.784-3.197-15.003-3.074-15.263-2.395m221.802 1.777a1452 1452 0 0 1-20.521 4.022l-9.836 1.834.189.946c.225 1.125.663 1.723 6.04 8.25 3.381 4.104 4.255 4.989 4.801 4.862.367-.085 2.964-.661 5.771-1.281 18.082-3.993 23.81-5.828 24.738-7.925.835-1.888 1.582-10.874 1.009-12.132-.476-1.043.328-1.137-12.191 1.424m-109.201-1.219c-1.429 2.275-8.182 14.661-8.178 14.998.003.221 1.916 3.847 4.251 8.058l4.245 7.655h7.92l2.411-4.306a456 456 0 0 0 4.309-7.905l1.899-3.599-1.386-2.621c-.763-1.442-2.701-4.918-4.307-7.725l-2.92-5.104-3.894-.089c-3.754-.087-3.91-.064-4.35.638m6.416 10.9c1.093 1.999 1.988 3.812 1.988 4.028 0 .507-3.919 7.64-4.2 7.645-.262.005-4.094-7.146-4.094-7.64 0-.43 3.918-7.659 4.153-7.664.091-.001 1.06 1.632 2.153 3.631m-83.837 9.504c-1.57 1.862-1.569 1.865 1.933 2.762 6.286 1.611 9.757 4.352 12.274 9.693 1.393 2.957 2.427 5.598 6.4 16.353 6.889 18.647 8.94 19.3 60.593 19.294 53.012-.007 55.392-.759 62.037-19.613 7.027-19.94 9.245-23.108 17.867-25.514 1.667-.465 3.216-.905 3.443-.979.505-.162.196-.751-1.286-2.454l-1.041-1.196-3.03.828c-9.103 2.488-10.223 4.041-17.926 24.84-7.093 19.156-7.201 19.227-30.559 20.318-11.217.523-47.249.525-57.735.003-23.63-1.177-23.414-1.027-30.95-21.428-7.099-19.219-8.321-20.943-16.578-23.379-4.304-1.27-3.947-1.301-5.442.472m17.175 3.402 1.186 1.867 3.827.208c18.085.986 48.008 1.862 48.007 1.406 0-.129-.431-.935-.958-1.791l-.957-1.556-6.459-.213c-14.574-.482-24.516-.871-33.681-1.317-5.324-.259-10.235-.471-10.915-.471h-1.236zm117.454-1.377c-7.303.372-19.789.858-33.427 1.304l-5.834.19-1.064 1.64c-.585.901-.974 1.725-.864 1.829.345.329 33.532-.716 47.971-1.51l3.752-.206 1.247-1.868 1.248-1.869-2.607.047c-1.434.025-6.124.225-10.422.443M140.67 243.15c0 1.055 1.461 3.741 2.038 3.746.37.003 5.41.213 11.199.467 32.439 1.424 77.532 1.237 100.62-.417l3.011-.216.707-1.754c.884-2.197 1.616-2.009-6.298-1.621-32.919 1.61-83.595 1.528-108.327-.177-1.622-.112-2.95-.125-2.95-.028m5.592 14.775c.296.685.611 1.498.701 1.807.267.923 5.886 1.207 36.61 1.846 21.074.439 67.546-.478 68.643-1.355.505-.404 1.52-3.084 1.264-3.34-.11-.11-3.97-.034-8.578.169-24.446 1.077-58.463 1.238-79.99.379-4.123-.165-10.127-.401-13.342-.526l-5.846-.226zm-60.304 10.592c-5.452 1.885-7.195 7.013-7.286 21.435-.072 11.481.281 11.778 15.726 13.225 9.411.882 11.316.672 13.298-1.464 1.33-1.434 9.688-13.682 9.688-14.198 0-.484-.534-.574-7.336-1.233-8.164-.791-28.165-3.027-28.788-3.219-1.487-.457.638-9.23 2.711-11.191 2.437-2.308 3.472-2.423 15.072-1.678 20.585 1.321 18.276-.084-3.127-1.904-5.619-.478-8.081-.422-9.958.227m215.637-.088c-8.954.884-14.886 1.673-15.238 2.024-.516.516 1.735.47 13.545-.276 12.459-.788 13.802-.618 16.145 2.05 1.594 1.816 3.653 10.065 2.664 10.677-.446.275-8.027 1.166-23.496 2.761-12.641 1.303-12.918 1.341-12.918 1.776 0 .447 8.027 12.293 9.484 13.995 2.078 2.428 3.647 2.635 13.183 1.741 15.681-1.471 16.114-1.819 16.052-12.899-.113-20.45-2.815-23.489-19.421-21.849m-201.193 20.27c6.095.538 11.215 1.11 11.378 1.269.355.347-4.065 6.975-6.245 9.364l-1.482 1.625-4.1-.024c-7.988-.047-15.285-1.211-16.396-2.615-1.102-1.395.026-7.365 1.686-8.925 2.032-1.909 1.626-1.89 15.159-.694m212.412-.361c2.829 1.284 5.005 7.843 3.311 9.98-1.401 1.768-17.848 3.665-20.367 2.348-2.823-1.474-8.963-10.993-7.127-11.049.288-.009 4.83-.424 10.093-.922 11.672-1.106 12.4-1.125 14.09-.357M140.67 300.836c-1.507.599-4.222 3.821-3.678 4.364.291.291 125.406.291 125.697 0 .571-.571-2.202-3.787-3.778-4.382-1.208-.457-117.092-.439-118.241.018"/></g></svg>