<svg xmlns="http://www.w3.org/2000/svg" width="400" height="400" viewBox="0 0 400 400"><g fill-rule="evenodd"><path fill="#050505" d="M198.23 72.295c-.43.465-.782 1.023-.782 1.24 0 .3-1.924.444-7.895.59-47.042 1.152-76.921 3.781-85.003 7.481-9.722 4.45-20.405 20.979-33.227 51.408-4.692 11.134-4 10.208-7.63 10.208-3.529 0-3.659-.162-4.234-5.268-1.502-13.345-2.646-14.411-13.685-12.749-9.524 1.433-12.53 3.507-14.849 10.248-2.942 8.552 1.344 10.934 22.272 12.381 3.908.27 8.039.491 9.179.491h2.074l-.459.878c-1.042 1.989-2.884 3.3-9.285 6.61-12.07 6.241-24.363 17.534-28.829 26.484-5.439 10.898-6.921 36.726-3.99 69.52.509 5.697.903 13.064 1.084 20.272.973 38.825 2.944 48.335 10.497 50.636 2.766.843 30.248.831 32.982-.013 4.619-1.427 6.188-4.411 6.493-12.345.261-6.803-.498-6.195 7.41-5.925 6.072.208 6.799.173 9.114-.433 2.381-.624 2.904-.642 9.873-.348 55.979 2.361 114.409 2.813 165.094 1.277 15.083-.457 36.662-1.226 40.351-1.437 2.649-.152 3.622-.067 5.741.499 2.375.634 3.008.665 9.139.454 7.84-.27 7.284-.616 7.299 4.536.037 13.001 1.554 14.122 19.447 14.359 20.725.276 23.541-.349 26.025-5.778 2.444-5.34 4.012-20.632 4.452-43.408.105-5.439.469-13.047.808-16.906 3.384-38.442 2.17-63.088-3.693-74.96-4.35-8.809-16.774-20.308-28.294-26.186-6.506-3.32-10.143-6.027-10.143-7.549 0-.077 2.404-.241 5.343-.363 24.917-1.04 31.126-3.74 28.317-12.315-2.311-7.055-5.518-9.305-15.231-10.686-10.892-1.548-12.002-.538-13.5 12.282-.674 5.763-.658 5.742-4.145 5.742-3.367 0-3.54-.153-5.421-4.785-13.283-32.713-25.263-51.959-35.316-56.737-8.076-3.837-51.5-7.461-92.184-7.692-.576-.003-.877-.174-.877-.498 0-1.82-2.983-2.659-4.322-1.215m41.323 11.9c31.383 1.151 52.287 2.841 55.516 4.488 6.131 3.128 20.123 30.218 27.132 52.53 1.517 4.829 3.102 4.573-25.905 4.189-19.201-.254-194.164-.12-214.365.164-5.607.079-5.714-.301-2.56-9.061 9.051-25.136 19.936-45.198 26.052-48.016 7.459-3.437 87.567-6.002 134.13-4.294m90.469 70.936c-1.722 3.515-36.209 47.241-36.797 46.654-.291-.292 24.483-32.727 31.209-40.86 4.531-5.478 6.001-7.557 6.076-8.595.031-.417.097-.326.184.25.083.556-.176 1.539-.672 2.551m-254.45 5.905c6.258 7.602 10.548 13.119 20.499 26.364 4.481 5.965 8.772 11.635 9.534 12.6 2.576 3.26-.071.51-3.837-3.987-6.974-8.33-23.425-29.005-28.554-35.885-2.642-3.546-3.989-6.023-3.989-7.337 0-.629.161-.46.764.798.421.877 2.933 4.228 5.583 7.447m-23.1 10.598c3.341 1.032 6.769 3.694 15.701 12.194 4.905 4.668 5.315 4.931 11.99 7.71 7.323 3.048 9.233 4.557 16.097 12.722 4.473 5.319 4.474 5.708.015 7.181-14.329 4.732-22.39 4.648-43.643-.458-14.486-3.48-15.945-4.992-15.52-16.087.372-9.723 2.611-17.299 6.376-21.576 2.579-2.93 4.058-3.207 8.984-1.686m301.475-.461c7.163 3.398 12.087 27.739 6.97 34.448-1.885 2.472-10.694 5.185-25.72 7.922-11.974 2.18-18.804 1.86-29.305-1.375-6.911-2.129-6.903-2.101-2.113-8.02 5.913-7.307 9.196-9.877 16.258-12.726 6.335-2.556 6.779-2.85 12.393-8.201 9.316-8.88 11.904-10.776 16.262-11.918 2.917-.764 3.87-.788 5.255-.13m-309.134 3.548c-3.791 4.802-5.662 11.829-5.711 21.451-.046 8.92.598 9.547 13.051 12.699 20.3 5.137 28.705 5.371 42.447 1.179 3.265-.996 3.257-.83.217-4.596-6.217-7.7-10.196-10.791-13.452-10.451-5.997.627-22.417-2.533-27.041-5.203-3.137-1.812-5.137-6.19-6.815-14.92-.48-2.497-.834-2.518-2.696-.159m307.665 0c-1.828 9.367-3.949 13.669-7.67 15.555-4.805 2.434-21.086 5.363-26.626 4.79-3.084-.32-6.754 2.647-13.211 10.679l-2.684 3.339 2.844.882c13.732 4.261 22.24 4.053 42.556-1.039 11.386-2.854 12.778-3.876 13.263-9.742.728-8.816-2.321-20.941-6.298-25.039-1.594-1.642-1.749-1.601-2.174.575M207.75 197.553c3.312.817 2.913 1.486-.492.824-1.381-.269-4.307-.45-7.258-.45s-5.877.181-7.258.45c-1.273.247-2.417.347-2.543.222-.38-.381.479-.718 2.886-1.133 1.259-.217 2.505-.447 2.768-.51 1.138-.275 10.213.181 11.897.597m-8.968 1.331c1.176.989 1.261.988 2.478-.036l.99-.833 3.094.523c1.702.287 3.214.642 3.36.788.432.432-1.964 1.425-2.455 1.017-.227-.188-1.068-.432-1.869-.542-1.697-.232-1.375-.903-3.149 6.544-.59 2.472-1.143 4.494-1.231 4.494s-.641-2.022-1.231-4.494c-1.774-7.447-1.452-6.776-3.149-6.544-.801.11-1.642.354-1.869.542-.453.376-2.804-.526-2.529-.97.177-.287 4.142-1.106 6.021-1.243.325-.024 1.018.315 1.539.754m-153.533 1.745c20.025 5.429 31.905 6.911 41.354 5.157 2.105-.391 4.279-.792 4.83-.892.835-.151 1.206.006 2.232.948l1.231 1.129-.825.315c-3.048 1.162-13.242 2.917-16.96 2.919-8.987.007-36.035-6.442-36.933-8.806-.9-2.367-.848-2.375 5.071-.77m314.615-.145c-.229 2.09-2.882 3.195-13.771 5.738-20.203 4.716-26.508 4.968-38.597 1.541-2.364-.67-2.445-.812-1.122-1.974 1.374-1.206.817-1.192 6.156-.15 10.053 1.962 24.275.19 43.77-5.454 3.355-.971 3.7-.942 3.564.299m-320.47 46.72c5.237.695 28.179 3.507 36.471 4.47 6.605.768 7.381 1.295 4.757 3.229-2.266 1.67-5.06 2.83-7.327 3.041-4.11.384-36.446-3.105-37.374-4.032-.751-.752.97-.65 15.989.95 20.348 2.168 22.086 2.201 25.478.481 3.438-1.743 3.356-1.801-3.704-2.594-6.973-.783-9.941-1.125-27.359-3.158-6.715-.784-12.513-1.425-12.885-1.425-2.406 0 2.946 21.773 7.059 28.719 3.647 6.159 11.54 9.132 30.952 11.657 3.717.483.721.477-4.219-.009-24.869-2.447-28.752-5.39-33.9-25.699-2.868-11.315-2.761-16.932.313-16.425.53.088 3.117.445 5.749.795m328.947-.225c1.398 1.081-.846 14.373-3.911 23.167-4.922 14.123-9.076 16.327-35.243 18.703-3.513.319-2.626-.035 1.594-.637 13.963-1.992 22.306-4.436 25.64-7.509 4.69-4.323 9.433-17.861 10.59-30.225.264-2.814 2.026-2.701-13.575-.871-6.758.792-16.993 1.978-22.743 2.635s-10.487 1.337-10.526 1.51 1.061.889 2.444 1.591l2.516 1.276 4.023-.047c2.213-.026 8.545-.553 14.072-1.172 21.207-2.373 21.783-2.414 20.839-1.471-.734.735-30.636 4.137-36.15 4.113-3.213-.013-8.229-2.165-9.498-4.074-.92-1.385-.271-1.571 9.669-2.777 5.081-.616 15.913-1.955 24.071-2.977 14.46-1.81 15.357-1.879 16.188-1.235m-81.864 24.338c6.045 1.147 9.791 3.59 19.903 12.982 6.245 5.801 6.122 6.172-2.393 7.23-21.689 2.696-196.832 2.322-211.323-.45-4.523-.866-4.802-1.436-1.994-4.078 12.573-11.833 16.89-14.773 23.244-15.828 3.428-.569 169.533-.431 172.563.144m-169.252 1.462c-5.719.344-9.597 1.911-14.354 5.8-2.193 1.793-9.369 8.229-10.468 9.388l-.899.948.739.183c12.47 3.087 196.65 3.238 214.235.176l2.116-.369-2.59-2.458c-11.54-10.951-15.742-13.349-23.867-13.617-6.949-.23-161.156-.277-164.912-.051"/><path fill="#fbfbfb" d="M0 200v200h400V0H0zM201.769 72.234c.431.431.783 1.005.783 1.276 0 .324.301.495.877.498 40.684.231 84.108 3.855 92.184 7.692 10.053 4.778 22.033 24.024 35.316 56.737 1.881 4.632 2.054 4.785 5.421 4.785 3.487 0 3.471.021 4.145-5.742 1.498-12.82 2.608-13.83 13.5-12.282 9.713 1.381 12.92 3.631 15.231 10.686 2.809 8.575-3.4 11.275-28.317 12.315-2.939.122-5.343.286-5.343.363 0 1.522 3.637 4.229 10.143 7.549 11.52 5.878 23.944 17.377 28.294 26.186 5.863 11.872 7.077 36.518 3.693 74.96-.339 3.859-.703 11.467-.808 16.906-.44 22.776-2.008 38.068-4.452 43.408-2.484 5.429-5.3 6.054-26.025 5.778-17.893-.237-19.41-1.358-19.447-14.359-.015-5.152.541-4.806-7.299-4.536-6.131.211-6.764.18-9.139-.454-2.119-.566-3.092-.651-5.741-.499-3.689.211-25.268.98-40.351 1.437-50.685 1.536-109.115 1.084-165.094-1.277-6.969-.294-7.492-.276-9.873.348-2.315.606-3.042.641-9.114.433-7.908-.27-7.149-.878-7.41 5.925-.305 7.934-1.874 10.918-6.493 12.345-2.734.844-30.216.856-32.982.013-7.553-2.301-9.524-11.811-10.497-50.636-.181-7.208-.575-14.575-1.084-20.272-2.931-32.794-1.449-58.622 3.99-69.52 4.466-8.95 16.759-20.243 28.829-26.484 6.401-3.31 8.243-4.621 9.285-6.61l.459-.878h-2.074c-1.14 0-5.271-.221-9.179-.491-20.928-1.447-25.214-3.829-22.272-12.381 2.319-6.741 5.325-8.815 14.849-10.248 11.039-1.662 12.183-.596 13.685 12.749.575 5.106.705 5.268 4.234 5.268 3.63 0 2.938.926 7.63-10.208 12.822-30.429 23.505-46.958 33.227-51.408 8.082-3.7 37.961-6.329 85.003-7.481 5.971-.146 7.895-.29 7.895-.59 0-1.767 2.963-2.659 4.321-1.301m-29.68 11.652c-33.901.827-62.801 2.822-66.666 4.603-6.116 2.818-17.001 22.88-26.052 48.016-3.154 8.76-3.047 9.14 2.56 9.061 20.201-.284 195.164-.418 214.365-.164 29.007.384 27.422.64 25.905-4.189-7.009-22.312-21.001-49.402-27.132-52.53-3.229-1.647-24.133-3.337-55.516-4.488-11.798-.433-54.388-.628-67.464-.309M330.51 152.33c-.075 1.038-1.545 3.117-6.076 8.595-6.726 8.133-31.5 40.568-31.209 40.86.249.248 13.167-15.6 24.159-29.639 11.878-15.17 13.591-17.688 13.31-19.566-.087-.576-.153-.667-.184-.25m-261.285.461c0 1.314 1.347 3.791 3.989 7.337 5.129 6.88 21.58 27.555 28.554 35.885 3.766 4.497 6.413 7.247 3.837 3.987-.762-.965-5.053-6.635-9.534-12.6-9.951-13.245-14.241-18.762-20.499-26.364-2.65-3.219-5.162-6.57-5.583-7.447-.603-1.258-.764-1.427-.764-.798m-23.464 18.435c-4.886 3.087-8.209 12.181-8.649 23.67-.425 11.095 1.034 12.607 15.52 16.087 21.253 5.106 29.314 5.19 43.643.458 4.459-1.473 4.458-1.862-.015-7.181-6.864-8.165-8.774-9.674-16.097-12.722-6.675-2.779-7.085-3.042-11.99-7.71-4.856-4.621-10.005-9.117-12.059-10.53-2.954-2.033-8.62-3.167-10.353-2.072m302.931.077c-4.358 1.142-6.946 3.038-16.262 11.918-5.614 5.351-6.058 5.645-12.393 8.201-7.062 2.849-10.345 5.419-16.258 12.726-4.79 5.919-4.798 5.891 2.113 8.02 10.501 3.235 17.331 3.555 29.305 1.375 15.026-2.737 23.835-5.45 25.72-7.922 3.497-4.585 2.118-21.432-2.408-29.412-2.871-5.063-5.054-6.153-9.817-4.906M47.509 174.88c1.678 8.73 3.678 13.108 6.815 14.92 4.624 2.67 21.044 5.83 27.041 5.203 3.256-.34 7.235 2.751 13.452 10.451 3.04 3.766 3.048 3.6-.217 4.596-13.742 4.192-22.147 3.958-42.447-1.179-12.453-3.152-13.097-3.779-13.051-12.699.049-9.622 1.92-16.649 5.711-21.451 1.862-2.359 2.216-2.338 2.696.159m307.143-.734c3.977 4.098 7.026 16.223 6.298 25.039-.485 5.866-1.877 6.888-13.263 9.742-20.316 5.092-28.824 5.3-42.556 1.039l-2.844-.882 2.684-3.339c6.457-8.032 10.127-10.999 13.211-10.679 5.54.573 21.821-2.356 26.626-4.79 3.721-1.886 5.842-6.188 7.67-15.555.425-2.176.58-2.217 2.174-.575m-158.799 22.81c-.263.063-1.509.293-2.768.51-2.407.415-3.266.752-2.886 1.133.126.125 1.27.025 2.543-.222 1.381-.269 4.307-.45 7.258-.45s5.877.181 7.258.45c2.109.41 3.055.347 2.539-.17-.774-.773-11.814-1.764-13.944-1.251m0 1.336c-2.181.327-4.5.868-4.631 1.081-.275.444 2.076 1.346 2.529.97.227-.188 1.068-.432 1.869-.542 1.697-.232 1.375-.903 3.149 6.544.59 2.472 1.143 4.494 1.231 4.494s.641-2.022 1.231-4.494c1.774-7.447 1.452-6.776 3.149-6.544.801.11 1.642.354 1.869.542.491.408 2.887-.585 2.455-1.017-.146-.146-1.658-.501-3.36-.788l-3.094-.523-.99.833c-1.217 1.024-1.302 1.025-2.478.036-.92-.775-1.254-.842-2.929-.592m-155.981 1.687c0 2.209.72 2.664 7.018 4.437 10.9 3.07 25.119 5.793 30.221 5.789 3.718-.002 13.912-1.757 16.96-2.919l.825-.315-1.231-1.129c-1.026-.942-1.397-1.099-2.232-.948-.551.1-2.725.501-4.83.892-9.449 1.754-21.329.272-41.354-5.157-5.405-1.466-5.377-1.462-5.377-.65m316.428.206c-19.495 5.644-33.717 7.416-43.77 5.454-5.339-1.042-4.782-1.056-6.156.15-1.323 1.162-1.242 1.304 1.122 1.974 12.089 3.427 18.394 3.175 38.597-1.541 10.889-2.543 13.542-3.648 13.771-5.738.136-1.241-.209-1.27-3.564-.299M31.97 246.748c-2.182 1.528.939 17.975 5.262 27.734 4.353 9.826 8.952 11.98 30 14.051 4.94.486 7.936.492 4.219.009-19.412-2.525-27.305-5.498-30.952-11.657-4.113-6.946-9.465-28.719-7.059-28.719.372 0 6.17.641 12.885 1.425 17.418 2.033 20.386 2.375 27.359 3.158 7.06.793 7.142.851 3.704 2.594-3.392 1.72-5.13 1.687-25.478-.481-8.731-.93-15.97-1.594-16.087-1.477-.828.828.962 1.146 15.373 2.73 23.538 2.588 24.314 2.556 29.426-1.212 2.624-1.934 1.848-2.461-4.757-3.229-14.059-1.633-39.257-4.775-42.22-5.265-.59-.097-1.241.035-1.675.339m320.183 1.466a7692 7692 0 0 1-24.071 2.977c-9.94 1.206-10.589 1.392-9.669 2.777 1.269 1.909 6.285 4.061 9.498 4.074 5.514.024 35.416-3.378 36.15-4.113.944-.943.368-.902-20.839 1.471-5.527.619-11.859 1.146-14.072 1.172l-4.023.047-2.516-1.276c-1.383-.702-2.483-1.418-2.444-1.591s4.776-.853 10.526-1.51 15.985-1.843 22.743-2.635c15.601-1.83 13.839-1.943 13.575.871-1.157 12.364-5.9 25.902-10.59 30.225-3.334 3.073-11.677 5.517-25.64 7.509-4.22.602-5.107.956-1.594.637 26.167-2.376 30.321-4.58 35.243-18.703 3.065-8.794 5.309-22.086 3.911-23.167-.831-.644-1.728-.575-16.188 1.235m-238.239 22.959c-6.354 1.055-10.671 3.995-23.244 15.828-2.808 2.642-2.529 3.212 1.994 4.078 14.491 2.772 189.634 3.146 211.323.45 8.515-1.058 8.638-1.429 2.393-7.23-10.112-9.392-13.858-11.835-19.903-12.982-3.03-.575-169.135-.713-172.563-.144m168.223 1.657c8.125.268 12.327 2.666 23.867 13.617l2.59 2.458-2.116.369c-17.585 3.062-201.765 2.911-214.235-.176l-.739-.183.899-.948c1.099-1.159 8.275-7.595 10.468-9.388 4.757-3.889 8.635-5.456 14.354-5.8 3.756-.226 157.963-.179 164.912.051"/></g></svg>