<svg xmlns="http://www.w3.org/2000/svg" width="400" height="400" viewBox="0 0 400 400"><g fill-rule="evenodd"><path fill="#050505" d="M174.322 55.825c-16.501.569-33.938 1.705-47.687 3.107-5.689.58-9.861.837-12.759.785-2.369-.042-5.096.086-6.061.284-12.223 2.514-25.293 23.986-38.473 63.205-1.814 5.395-3.504 10.208-3.756 10.696l-.459.888-2.5-.227c-1.375-.125-3.015-.238-3.645-.25l-1.146-.023-.202-5.343c-.53-14.019-1.434-14.992-12.228-13.151-11.804 2.015-14.772 4.172-17.458 12.689-1.038 3.292-1.047 4.388-.048 5.858 2.04 3.003 4.058 3.513 23.718 6 5.32.673 9.733 1.285 9.808 1.359.837.837-6.629 8.386-10.495 10.611-15.621 8.991-23.327 17.065-25.587 26.809-3.356 14.468-4.515 37.989-3.334 67.608.168 4.211.457 13.9.643 21.532 1.25 51.248 2.982 59.537 12.795 61.246 4.117.717 32.379.276 34.089-.531 4.139-1.955 5.508-5.278 6.091-14.779.395-6.445.176-5.866 2.41-6.363 2.018-.449 4.278-1.487 6.388-2.932.732-.502 1.737-1.072 2.232-1.266 1.041-.407 225.576-.54 226.913-.135.431.131 2.022 1.013 3.537 1.961 1.867 1.169 3.509 1.916 5.103 2.32l2.35.595.38 5.381c.808 11.448 2.486 14.657 8.218 15.717 2.483.459 29.242.466 32.063.009 9.764-1.584 11.327-9.352 12.77-63.456.181-6.755.469-16.013.641-20.574 1.128-29.941-.553-57.803-4.177-69.219-2.277-7.174-10.711-15.667-22.355-22.511-6.041-3.551-9.39-6.413-12.037-10.286-1.324-1.938-1.564-1.794 4.186-2.505 23.65-2.923 25.271-3.266 27.815-5.886 1.541-1.587 1.724-2.842.85-5.841-2.656-9.109-5.962-11.53-18.529-13.563-9.867-1.596-10.841-.497-11.355 12.814l-.222 5.749-2.106.199c-5.917.559-5.184 1.421-9.25-10.891-12.135-36.745-24.84-58.764-36.355-63.008-1.531-.564-2.599-.669-7.219-.71-2.983-.026-8.365-.356-11.962-.732-12.176-1.274-21.224-1.924-40.989-2.945-8.5-.439-50.49-.643-60.606-.295m51.675 12.44c38.376.964 68.569 3.468 73.113 6.063 5.341 3.051 14.8 24.554 21.59 49.082 2.198 7.943 2.382 9.153 1.519 10.013l-.708.708-37.709-.16c-56.68-.239-126.144-.192-166.896.114-38.377.288-37.795.306-38.471-1.177-.794-1.743 4.939-21.249 10.07-34.266 5.807-14.731 10.437-23.046 13.716-24.633 7.94-3.844 75.18-6.964 123.776-5.744m-153.138 70.65c3.042 18.099 40.413 60.02 57.444 64.439 6.892 1.788 24.775 2.207 83.732 1.963 48.502-.202 51.722-.343 58.236-2.559 18.234-6.203 55.901-50.719 55.964-66.138.003-.901.084-1.09.314-.735 5.789 8.958-30.03 55.684-50.916 66.421-8.542 4.391-14.221 4.747-75.879 4.76-73.194.016-73.743-.048-86.762-10.161-22.285-17.312-45.747-50.426-43.002-60.693.253-.945.259-.928.869 2.703m-19.045 20.888c5.184 1.243 10.014 5.298 17.887 15.019 3.752 4.632 4.494 5.22 10.189 8.071 5.36 2.683 10.828 7.75 15.639 14.493 2.634 3.691 2.125 4.518-4.047 6.572-12.283 4.087-21.306 3.471-41.648-2.846-11.795-3.663-13.871-5.978-13.865-15.466.006-10.907 2.968-20.518 7.571-24.57 2.307-2.03 4.018-2.294 8.274-1.273m299.462-.036c8.292 3.767 12.972 29.093 6.667 36.073-3.603 3.987-27.518 10.852-37.822 10.857-7.158.004-19.708-3.479-20.245-5.618-.774-3.083 9.806-14.641 16.465-17.988 6.114-3.073 6.615-3.476 11.312-9.088 5.984-7.15 10.642-11.67 13.313-12.92 3.866-1.809 8.049-2.343 10.31-1.316m-304.553 1.415c-6.48 1.544-11.615 24.699-7.139 32.19 1.748 2.925 5.621 4.585 18.384 7.881 17.235 4.45 21.935 4.513 34.234.459 3.256-1.074 3.267-1.172.505-4.832-4.807-6.37-9.011-10.116-14.552-12.966-5.352-2.752-6.05-3.354-11.038-9.515-8.752-10.811-14.596-14.598-20.394-13.217m297.545.399c-3.937.985-7.26 3.866-14.514 12.582-5.566 6.688-5.945 7.014-11.5 9.887-5.961 3.082-10.732 7.602-15.613 14.79-1.267 1.866-1.402 1.736 3.333 3.236 11.141 3.529 15.896 3.48 30.941-.32 19.643-4.961 21.851-6.587 21.851-16.09 0-9.312-2.634-18.669-6.418-22.798l-1.472-1.607-2.355-.078c-1.299-.042-3.207.136-4.253.398m-292.59 1.4c4.67 1.194 7.106 3.399 16.1 14.573 3.161 3.929 4.357 4.979 7.691 6.755 1.419.755 2.663 1.509 2.766 1.674 1.027 1.663-19.678-3.376-25.11-6.111-3.493-1.758-4.823-3.894-6.022-9.669-1.67-8.051-1.251-8.713 4.575-7.222m298.477-.14c1.505 1.814-1.529 12.872-4.209 15.343-2.754 2.538-17.96 7.284-25.638 8-2.719.254-2.59-.103.63-1.747 3.461-1.768 4.968-3.126 8.897-8.017 4.361-5.429 10.433-11.608 12.243-12.459 3.027-1.423 7.33-2.019 8.077-1.12M47.582 190.428c21.898 6.513 29.081 7.73 37.745 6.395 2.456-.379 4.968-.764 5.582-.856 1.02-.153 1.206-.049 2.162 1.205l1.045 1.372-.713.264c-10.533 3.896-22.825 2.713-45.078-4.339-5.777-1.831-6.146-2.079-6.448-4.333-.214-1.591-.713-1.617 5.705.292m311.589-.944c0 2.572-1.018 3.254-8.002 5.357-20.532 6.184-28.259 7.288-37.612 5.372-7.557-1.548-7.349-1.427-5.637-3.295l1.063-1.16 4.44.765c10.135 1.745 18.739.351 42.398-6.866 3.165-.965 3.35-.974 3.35-.173m-155.422 21.044c4.285.556 6.858 1.525 6.19 2.33-.338.407-.633.39-2.32-.135-4.407-1.371-9.893-1.366-14.329.015-1.868.582-1.921.582-2.233 0-.772-1.443 7.504-2.884 12.692-2.21m-4.167 3.108 1.018 1.197.999-1.197c1.117-1.337 1.567-1.417 4.155-.741 3.395.886 3.672 1.055 2.984 1.816-.996 1.1-1.704 1.35-2.305.815-.293-.261-1.106-.523-1.808-.584l-1.276-.109-1.048 5.422c-1.64 8.477-1.713 8.829-1.815 8.718-.053-.058-.633-2.976-1.289-6.485-1.537-8.217-1.366-7.799-3.072-7.487-.752.137-1.42.407-1.484.599-.173.516-.652.428-1.689-.311-1.374-.978-1.149-1.409 1.067-2.039 1.097-.311 2.137-.61 2.313-.663 1.316-.399 2.284-.086 3.25 1.049M39.713 244.808c3.158.432 13.206 1.799 22.328 3.038 20.476 2.78 19.458 2.436 14.536 4.9-5.203 2.605-4.37 2.603-25.7.044-6.491-.779-12.852-1.514-14.136-1.633l-2.334-.216.216 2.042c.963 9.131 3.704 18.681 6.247 21.766 2.134 2.588 10.369 5.331 25.956 8.645 5.213 1.108 5.36 1.146 5.187 1.318-.441.441-18.444-3.028-24.326-4.687-7.972-2.249-10.215-4.845-12.758-14.767-1.609-6.279-3.447-19.376-2.914-20.766.244-.633.989-.603 7.698.316m328.776 2.082c-.36 10.714-3.671 24.248-7.001 28.618-2.561 3.36-14.106 6.689-31.823 9.176-2.942.413-1.265-.144 3.375-1.122 14.007-2.951 23.568-5.9 25.981-8.012 2.764-2.421 7.167-17.033 7.167-23.785v-.816l-2.472.223c-1.36.123-6.419.706-11.244 1.296-23.513 2.874-23.468 2.873-28.298.44-4.943-2.49-5.124-2.422 13.147-4.892 8.596-1.163 18.5-2.526 22.009-3.031 3.509-.504 7.026-.892 7.815-.862l1.436.056zm-167.373 18.022c29.299 0 60.949-.067 70.335-.15 20.627-.182 22.993.165 29.394 4.306 4.276 2.766 13.036 12.798 14.008 16.042.861 2.872-1.654 4.914-6.737 5.471-30.482 3.338-200.776 3.087-217.693-.321-4.923-.992-5.89-3.643-2.945-8.069 6.419-9.645 13.448-15.142 21.453-16.776 4.46-.91 3.933-.893 22.329-.688 9.123.102 40.558.185 69.856.185m-89.533 2.087c-6.582 1.008-10.649 3.106-15.512 8.003-2.246 2.261-7.264 8.489-7.029 8.724.169.168 18.88.755 31.895 1 10.977.206 11.373.193 11.543-.39.097-.332 1.133-4.121 2.302-8.419s2.265-7.958 2.434-8.134c.387-.399.358-.282-2.292 9.243l-2.132 7.663 6.252.194c22.299.691 127.775.557 128.496-.163.095-.096-.861-3.924-2.125-8.508s-2.232-8.401-2.15-8.482c.194-.195.502.797 2.444 7.868.892 3.246 1.841 6.675 2.109 7.622l.488 1.72 11.7-.216c13.283-.245 31.409-.817 31.588-.997.647-.646-8.246-10.429-11.475-12.623-6.296-4.278-6.544-4.306-36.004-4.118-35.247.224-98.854.198-126.954-.053-13.134-.117-24.575-.088-25.578.066M88.19 284.974c-2.106 3.215 2.642 3.896 34.617 4.968 31.2 1.046 114.29 1.251 143.7.354 43.537-1.327 48.766-1.94 45.869-5.383-.57-.676-.625-.679-8.07-.376-41.491 1.685-184.896 1.565-212.66-.178-2.869-.18-2.943-.167-3.456.615"/><path fill="#fbfbfb" d="M0 200v200h400V0H0zM234.928 56.12c19.765 1.021 28.813 1.671 40.989 2.945 3.597.376 8.979.706 11.962.732 4.62.041 5.688.146 7.219.71 11.515 4.244 24.22 26.263 36.355 63.008 4.066 12.312 3.333 11.45 9.25 10.891l2.106-.199.222-5.749c.514-13.311 1.488-14.41 11.355-12.814 12.567 2.033 15.873 4.454 18.529 13.563.874 2.999.691 4.254-.85 5.841-2.544 2.62-4.165 2.963-27.815 5.886-5.75.711-5.51.567-4.186 2.505 2.647 3.873 5.996 6.735 12.037 10.286 11.644 6.844 20.078 15.337 22.355 22.511 3.624 11.416 5.305 39.278 4.177 69.219-.172 4.561-.46 13.819-.641 20.574-1.443 54.104-3.006 61.872-12.77 63.456-2.821.457-29.58.45-32.063-.009-5.732-1.06-7.41-4.269-8.218-15.717l-.38-5.381-2.35-.595c-1.594-.404-3.236-1.151-5.103-2.32-1.515-.948-3.106-1.83-3.537-1.961-1.337-.405-225.872-.272-226.913.135-.495.194-1.5.764-2.232 1.266-2.11 1.445-4.37 2.483-6.388 2.932-2.234.497-2.015-.082-2.41 6.363-.583 9.501-1.952 12.824-6.091 14.779-1.71.807-29.972 1.248-34.089.531-9.813-1.709-11.545-9.998-12.795-61.246-.186-7.632-.475-17.321-.643-21.532-1.181-29.619-.022-53.14 3.334-67.608 2.26-9.744 9.966-17.818 25.587-26.809 3.866-2.225 11.332-9.774 10.495-10.611-.075-.074-4.488-.686-9.808-1.359-24.401-3.087-26.158-3.967-23.67-11.858 2.686-8.517 5.654-10.674 17.458-12.689 10.794-1.841 11.698-.868 12.228 13.151l.202 5.343 1.146.023c.63.012 2.27.125 3.645.25l2.5.227.459-.888c.252-.488 1.942-5.301 3.756-10.696 13.18-39.219 26.25-60.691 38.473-63.205.965-.198 3.692-.326 6.061-.284 2.898.052 7.07-.205 12.759-.785 29.689-3.027 79.236-4.314 108.293-2.812m-60.606 12.166c-36.303.943-67.311 3.404-72.101 5.723-3.279 1.587-7.909 9.902-13.716 24.633-5.131 13.017-10.864 32.523-10.07 34.266.676 1.483.094 1.465 38.471 1.177 40.752-.306 110.216-.353 166.896-.114l37.709.16.708-.708c.863-.86.679-2.07-1.519-10.013-6.79-24.528-16.249-46.031-21.59-49.082-7.227-4.127-74.018-7.362-124.788-6.042M71.99 136.212c-3.677 13.752 35.464 61.31 56.168 68.247 6.515 2.182 18.84 2.619 73.596 2.607 61.658-.013 67.337-.369 75.879-4.76 16.461-8.462 47.02-44.346 50.588-59.403.683-2.883.839-6.227.328-7.018-.23-.355-.311-.166-.314.735-.063 15.419-37.73 59.935-55.964 66.138-6.514 2.216-9.734 2.357-58.236 2.559-58.957.244-76.84-.175-83.732-1.963-17.031-4.419-54.402-46.34-57.444-64.439-.61-3.631-.616-3.648-.869-2.703m-24.014 23.303c-5.508 1.598-10 13.328-10.007 26.131-.006 9.488 2.07 11.803 13.865 15.466 20.342 6.317 29.365 6.933 41.648 2.846 6.172-2.054 6.681-2.881 4.047-6.572-4.811-6.743-10.279-11.81-15.639-14.493-5.695-2.851-6.437-3.439-10.189-8.071-4.473-5.523-11.771-12.796-13.74-13.694-3.308-1.509-7.829-2.239-9.985-1.613m299.115.147c-5.196 1.128-8.992 4.249-17.438 14.341-4.697 5.612-5.198 6.015-11.312 9.088-6.659 3.347-17.239 14.905-16.465 17.988.537 2.139 13.087 5.622 20.245 5.618 10.304-.005 34.219-6.87 37.822-10.857 6.305-6.98 1.625-32.306-6.667-36.073-1.505-.684-3.371-.715-6.185-.105m-291.342 2.412c3.148 1.042 7.431 4.991 13.368 12.325 4.988 6.161 5.686 6.763 11.038 9.515 5.541 2.85 9.745 6.596 14.552 12.966 2.762 3.66 2.751 3.758-.505 4.832-12.299 4.054-16.999 3.991-34.234-.459-12.763-3.296-16.636-4.956-18.384-7.881-4.476-7.491.659-30.646 7.139-32.19 1.48-.353 4.381.016 7.026.892m298.599.794c3.784 4.129 6.418 13.486 6.418 22.798 0 9.503-2.208 11.129-21.851 16.09-15.045 3.8-19.8 3.849-30.941.32-4.735-1.5-4.6-1.37-3.333-3.236 4.881-7.188 9.652-11.708 15.613-14.79 5.555-2.873 5.934-3.199 11.5-9.887 9.052-10.877 12.395-13.189 18.767-12.98l2.355.078zm-305.661-.142c-1.606.933 1.101 12.605 3.495 15.07 2.402 2.473 11.074 5.486 22.574 7.843 6.026 1.235 6.809.851 2.713-1.33-3.334-1.776-4.53-2.826-7.691-6.755-6.171-7.667-10.624-12.376-12.738-13.469-2.438-1.26-7.192-2.034-8.353-1.359m298.625.127c-4.127 1.001-8.371 4.722-15.477 13.567-3.929 4.891-5.436 6.249-8.897 8.017-1.474.753-2.681 1.497-2.681 1.654-.004.804 8.165-.778 16.584-3.211 11.116-3.212 12.908-4.67 14.524-11.82 1.947-8.619 1.487-9.551-4.053-8.207M41.877 190.136c.302 2.254.671 2.502 6.448 4.333 22.253 7.052 34.545 8.235 45.078 4.339l.713-.264-1.045-1.372c-.956-1.254-1.142-1.358-2.162-1.205-.614.092-3.126.477-5.582.856-8.664 1.335-15.847.118-37.745-6.395-6.418-1.909-5.919-1.883-5.705-.292m313.944-.479c-23.659 7.217-32.263 8.611-42.398 6.866l-4.44-.765-1.063 1.16c-1.712 1.868-1.92 1.747 5.637 3.295 9.353 1.916 17.08.812 37.612-5.372 6.074-1.829 6.979-2.261 7.537-3.597 1.072-2.566.807-2.712-2.885-1.587M196.97 210.561c-3.646.526-6.278 1.495-5.913 2.177.312.582.365.582 2.233 0 4.436-1.381 9.922-1.386 14.329-.015 1.687.525 1.982.542 2.32.135 1.269-1.529-7.51-3.084-12.969-2.297m-.638 2.026c-.176.053-1.216.352-2.313.663-2.216.63-2.441 1.061-1.067 2.039 1.037.739 1.516.827 1.689.311.064-.192.732-.462 1.484-.599 1.706-.312 1.535-.73 3.072 7.487.656 3.509 1.236 6.427 1.289 6.485.102.111.175-.241 1.815-8.718l1.048-5.422 1.276.109c.702.061 1.515.323 1.808.584.601.535 1.309.285 2.305-.815.688-.761.411-.93-2.984-1.816-2.588-.676-3.038-.596-4.155.741l-.999 1.197-1.018-1.197c-.966-1.135-1.934-1.448-3.25-1.049M32.015 244.492c-.533 1.39 1.305 14.487 2.914 20.766 2.543 9.922 4.786 12.518 12.758 14.767 5.882 1.659 23.885 5.128 24.326 4.687.173-.172.026-.21-5.187-1.318-15.587-3.314-23.822-6.057-25.956-8.645-2.543-3.085-5.284-12.635-6.247-21.766l-.216-2.042 2.334.216c1.284.119 7.645.854 14.136 1.633 21.33 2.559 20.497 2.561 25.7-.044 4.922-2.464 5.94-2.12-14.536-4.9a36633 36633 0 0 1-22.328-3.038c-6.709-.919-7.454-.949-7.698-.316m327.315.493c-3.509.505-13.413 1.868-22.009 3.031-18.271 2.47-18.09 2.402-13.147 4.892 4.83 2.433 4.785 2.434 28.298-.44 4.825-.59 9.884-1.173 11.244-1.296l2.472-.223v.816c0 6.752-4.403 21.364-7.167 23.785-2.413 2.112-11.974 5.061-25.981 8.012-4.64.978-6.317 1.535-3.375 1.122 17.717-2.487 29.262-5.816 31.823-9.176 3.33-4.37 6.641-17.904 7.001-28.618l.092-2.711-1.436-.056c-.789-.03-4.306.358-7.815.862m-245.933 19.668c-10.402.908-18.497 6.385-25.919 17.538-2.945 4.426-1.978 7.077 2.945 8.069 15.44 3.111 152.552 3.737 208.301.951 17.678-.884 19.449-2.436 12.825-11.238-5.543-7.365-10.261-11.397-15.64-13.366-5.455-1.996-5.652-2.011-24.458-1.845-24.003.211-120.286.187-140.191-.035-9.123-.102-17.161-.135-17.863-.074M200 267.145c21.491 0 50.343-.072 64.115-.159 29.46-.188 29.708-.16 36.004 4.118 3.229 2.194 12.122 11.977 11.475 12.623-.179.18-18.305.752-31.588.997l-11.7.216-.488-1.72c-.268-.947-1.217-4.376-2.109-7.622-1.942-7.071-2.25-8.063-2.444-7.868-.082.081.885 3.899 2.15 8.482 1.264 4.584 2.22 8.412 2.125 8.508-.721.72-106.197.854-128.496.163l-6.252-.194 2.132-7.663c2.65-9.525 2.679-9.642 2.292-9.243-.169.176-1.265 3.836-2.434 8.134a1855 1855 0 0 1-2.302 8.419c-.17.583-.566.596-11.543.39-13.015-.245-31.726-.832-31.895-1-.235-.235 4.783-6.463 7.029-8.724 4.863-4.897 8.93-6.995 15.512-8.003 1.003-.154 12.444-.183 25.578-.066 13.07.117 41.348.212 62.839.212m-94.577 17.705c47.076 1.332 162.86 1.15 198.883-.313 7.445-.303 7.5-.3 8.07.376 1.984 2.357-.449 3.309-9.985 3.905-54.499 3.408-207.023 2.442-213.519-1.352-2.695-1.574-1.108-3.351 2.774-3.107 1.612.101 7.812.322 13.777.491"/></g></svg>