<svg xmlns="http://www.w3.org/2000/svg" width="400" height="400" viewBox="0 0 400 400"><g fill-rule="evenodd"><path fill="#050505" d="M197.813 65.495c-.193.233-.571.95-.841 1.595l-.489 1.172h-2.628c-13.9 0-41.736 1.314-60.522 2.855-4.122.339-9.29.593-11.483.565-7.26-.093-16.059 3.649-21.534 9.157-7.827 7.876-17.992 26.235-30.034 54.249-2.507 5.831-2.415 5.726-4.705 5.44-2.261-.283-2.419-.577-2.419-4.501 0-11.327-2.142-14.955-9.071-15.362-11.144-.655-21.158 3.085-24.363 9.098-2.178 4.086-.226 5.605 11.743 9.137 3.412 1.007 5.874 2.008 3.954 1.608l-3.876-.794c-3.904-.799-9.048-2.483-11.12-3.64-1.756-.982-1.836-.954-1.352.477 1.731 5.124 6.6 7.522 20.688 10.189 5.948 1.126 10.845 2.842 10.845 3.802 0 .535-4.458 7.523-7.336 11.499-8.64 11.939-15.134 22.809-17.566 29.404-5.198 14.1-6.656 42.57-3.952 77.194.255 3.278.465 9.031.465 12.784 0 7.485.694 21.668 1.463 29.896 1.092 11.688 2.146 14.398 6.352 16.335l1.595.735h15.789c22.112 0 21.74.256 23.075-15.905l.372-4.51 4.146.045c2.28.025 7.734.209 12.12.411 22.571 1.035 103.335 1.569 153.27 1.013 33.308-.372 42.903-.59 59.411-1.352 4.519-.209 8.277-.318 8.352-.243.074.075.361 2.725.637 5.89.702 8.052 1.533 10.872 3.755 12.745 2.322 1.959 1.792 1.906 19.232 1.906h15.949l1.803-.885c5.24-2.573 6.586-11.13 7.614-48.397.166-6.053.442-12.727.612-14.833 1.704-21.149 1.168-46.684-1.282-61.084-2.202-12.935-6.158-20.849-20.484-40.976-3.224-4.527-7.242-10.953-7.242-11.578 0-1.2 4.336-2.724 11.529-4.054 12.31-2.277 17.072-4.515 19.427-9.132 1.126-2.207.887-2.286-2.328-.774-3.774 1.775-13.975 4.486-13.948 3.706.003-.105 2.479-.953 5.502-1.885 11.351-3.499 12.84-4.812 10.326-9.103-4.995-8.523-27.743-12.421-31.271-5.358-1.167 2.336-2.108 8.206-2.108 13.154 0 2.869-.149 3.06-2.597 3.348l-1.758.207-1.698-3.786c-13.775-30.714-21.473-45.14-28.884-54.124-5.327-6.459-15.56-11.262-23.755-11.151-2.193.029-7.289-.224-11.324-.564-18.393-1.548-46.144-2.856-60.651-2.858h-2.916l-.216-.878c-.524-2.134-3.118-3.281-4.273-1.889m36.956 14.251c33.608 1.16 53.531 2.943 57.367 5.133 5.045 2.882 17.969 26.64 23.494 43.191 3.714 11.125 2.829 12.483-8.612 13.222-15.035.971-175.676 1.229-206.061.331-17.273-.511-19.306-1.078-19.293-5.382.027-8.871 16.834-43.993 24.122-50.408 2.605-2.293 5.432-2.806 22.922-4.164 14.708-1.141 32.664-1.942 53.11-2.369 8.493-.177 43.424.117 52.951.446M68.141 147.453c-3.647 5.901-7.535 14.471-7.535 16.611 0 .299.785.838 1.994 1.368 11.818 5.183 44.476 23.663 58.329 33.006l1.79 1.207 7.62.504c44.788 2.961 50.213 3.124 56.264 1.697 9.824-2.317 16.445-2.293 26.845.097 5.943 1.365 6.937 1.34 45.531-1.161l17.353-1.124 2.584-1.699c16.127-10.606 40.581-24.543 54.417-31.014 3.844-1.798 4.968-2.461 5.048-2.982.281-1.818-3.428-10.221-7.076-16.032-2.503-3.988-2.804-4.625-1.925-4.076 2.732 1.706 8.709 12.377 10.238 18.279.477 1.837.683 2.194 1.365 2.357.442.106 1.234.42 1.76.698l.957.506-2.133.191c-4.887.437-35.039 16.873-61.551 33.553l-2.76 1.736-3.62.208c-1.991.115-11.515.704-21.164 1.308-34.367 2.154-33.306 2.137-39.713.659-9.824-2.267-17.169-2.262-26.475.017-5.986 1.466-6.932 1.444-46.339-1.091l-18.263-1.175-5.419-3.375c-27.055-16.855-55.195-32.033-58.922-31.781-2.147.145-1.935-.616.364-1.305 1.078-.323 1.265-.523 1.458-1.564.838-4.496 5.722-13.825 9.461-18.074 2.038-2.315 1.839-1.305-.483 2.451m279.237 22.934c2.289 4.365 3.482 9.781 3.711 16.854.477 14.747-3.668 18.698-25.629 24.428-16.022 4.181-20.323 4.167-5.843-.019 20.762-6.001 25.472-8.307 27.927-13.67 2.684-5.861 2.198-18.106-1.065-26.848-1.505-4.033-1.486-3.931-.554-2.87a13 13 0 0 1 1.453 2.125m-293.472-2.524c0 .044-.433 1.14-.961 2.436-3.509 8.61-4.218 21.046-1.549 27.149 2.541 5.812 6.908 8.021 28.097 14.217 11.457 3.35 12.183 4.144 1.733 1.897-19.661-4.228-29.458-8.869-31.781-15.056-3.008-8.007-1.554-22.212 2.99-29.208.798-1.229 1.478-1.892 1.471-1.435m6.587 5.698c7.928 2.444 29.373 13.127 51.88 25.846 2.595 1.467 4.748 2.794 4.785 2.95s-2.876 1.394-6.472 2.75a1109 1109 0 0 0-9.078 3.462c-2.069.812-3.964.98-3.022.269.492-.372 6.877-2.966 10.345-4.204a464 464 0 0 0 5.205-1.881l1.058-.403-2.334-.901c-3.188-1.231-10.459-4.367-19.24-8.3-15.44-6.915-32.767-14.202-33.77-14.202-1.807 0-1.249 10.568.785 14.873 2.152 4.555 5.047 5.907 25.572 11.94 11.028 3.242 12.66 4.111 10.137 5.398-1.987 1.014-2.884.853-15.164-2.71-20.655-5.994-24.328-7.836-26.338-13.207-1.913-5.112-1.874-14.455.083-19.72 1.026-2.761 1.933-3.08 5.568-1.96m281.897-.368c3.642 1.385 4.523 16.971 1.315 23.285-2.449 4.821-7.525 6.972-33.098 14.027-5.383 1.484-6.156 1.547-7.938.638-2.512-1.282-1.073-2.066 9.346-5.093 20.641-5.997 23.606-7.295 25.998-11.378 2.403-4.1 3.354-15.725 1.286-15.725-1.245 0-19.528 7.792-49.304 21.013-1.994.885-4.113 1.771-4.708 1.967-1.22.403-1.181.771.117 1.088 2.254.552 14.492 5.271 15.065 5.81.927.871-1.423.384-5.208-1.08a539 539 0 0 0-9.054-3.39c-2.498-.904-4.543-1.741-4.545-1.859-.002-.119 2.76-1.79 6.137-3.713 19.846-11.305 42.252-22.464 50.479-25.141 2.54-.827 2.99-.876 4.112-.449M71.292 185.008c.52.223.428.278-.496.297-5.779.114-7.285 8.556-2.083 11.675 1.359.815 1.19 1.03-.351.448-1.823-.689-3.565-2.963-4.073-5.317-.819-3.796 3.799-8.48 7.003-7.103m259.652.276c4.801 2.181 5.199 9.028.678 11.677-1.955 1.146-2.938 1.046-1.111-.113 4.915-3.117 4.066-9.785-1.432-11.256-.932-.249-1.331-.486-1.083-.644.626-.397 1.572-.289 2.948.336m-252.807 3.911c1.407 3.271-.017 7.18-3.082 8.46-1.663.695-2.769.545-1.209-.164 3.901-1.772 5.195-7.471 2.252-9.914-.861-.714-.545-1.037.444-.453.568.336 1.203 1.161 1.595 2.071m244.716-1.48c-2.631 2.997-1.605 7.683 2.136 9.757l1.167.647-1.089-.179c-4.436-.726-6.31-7.032-3.057-10.285 1.401-1.401 2.084-1.353.843.06m-226.84 8.072c3.421 1.493 7.799 3.38 9.729 4.193 4.424 1.863 4.43 2.063.1 3.58l-3.408 1.194-3.29-.518c-3.89-.612-3.847-.585-5.197-3.261-.58-1.15-2.075-3.355-3.322-4.9-3.427-4.244-3.652-4.232 5.388-.288m214.008-2.114c-.219.41-1.108 1.671-1.974 2.802-.867 1.131-2.092 3.099-2.722 4.374-1.309 2.645-1.471 2.745-5.564 3.444l-2.791.477-3.668-1.302c-3.942-1.398-4.134-1.549-2.792-2.189 2.763-1.318 19.698-8.561 19.794-8.466.063.063-.065.45-.283.86m-226.985 2.109c.207.159 1.382.685 2.61 1.167 2.809 1.103 2.953 1.229 2.777 2.429l-.145.985-.855-.82c-.51-.489-1.234-.824-1.795-.832-2.234-.031-5.078-1.397-5.186-2.491-.104-1.05 1.456-1.314 2.594-.438m235.468-.242c.312.504-1.09 2.53-1.864 2.694-.38.08-1.508.304-2.506.496-.998.193-2.169.629-2.602.97-1.061.834-1.165.793-1.165-.459 0-1.177.337-1.402 3.19-2.129.789-.201 2.009-.709 2.711-1.128 1.395-.834 1.93-.94 2.236-.444m-113.56 11.355c9.492 2.296 13.302 9.989 7.714 15.576-6.934 6.933-22.958 5.958-27.535-1.675-5.177-8.634 6.819-17.047 19.821-13.901m-7.655.96c-.351.069-1.428.285-2.393.479-4.693.946-6.076 3.316-2.763 4.735 2.082.893 3.72 1.054 3.72.366 0-1.174 1.007-3.875 1.791-4.807.45-.535.697-.956.55-.935s-.554.093-.905.162m4.438 1.226c.449.661.987 2.032 1.197 3.048l.381 1.847 1.139-.169c6.404-.95 5.105-5.021-1.835-5.748l-1.697-.178zm-2.937 1.689c-.557.488-1.342 2.239-1.342 2.994 0 .149.933.271 2.074.271 2.272 0 2.306-.042 1.556-1.917-.658-1.645-1.43-2.1-2.288-1.348m-11.746 2.48c-2.928 4.468 2.182 11.286 9.105 12.15l1.73.215-.706-1.142c-.754-1.221-1.624-4.756-1.633-6.639-.006-1.125-.037-1.153-1.73-1.531-2.443-.547-4.938-1.874-5.614-2.985l-.576-.947zm23.73.16c-.623 1.094-2.976 2.316-5.591 2.903-1.637.367-1.674.401-1.68 1.521-.009 1.885-.879 5.419-1.635 6.642l-.707 1.145 1.617-.192c6.744-.798 11.687-6.868 9.516-11.684-.703-1.559-.81-1.583-1.52-.335m-11.332 3.431-1.994.095v1.271c0 4.962 3.464 5.297 4.128.399.273-2.006.417-1.886-2.134-1.765m-53.554 9.483c29.918 1.111 33.231 1.314 36.728 2.255 9.4 2.53 10.931 2.782 16.906 2.786 5.626.004 8.527-.426 14.66-2.17 5.719-1.626 5.078-1.567 26.169-2.421 33.744-1.366 36.676-1.289 40.637 1.069 6.717 3.998 27.304 29.934 29.105 36.667 1.141 4.266.132 5.144-13.718 11.951-17.529 8.614-18.121 9.128-22.707 19.711-1.584 3.656-1.926 4.21-2.884 4.675-4.403 2.139-139.384 2.217-142.773.083-.415-.262-1.879-2.86-3.61-6.407-4.614-9.454-5.395-10.077-23.285-18.592-15.087-7.18-15.584-8.112-9.474-17.754 7.792-12.299 21.256-28.082 26.123-30.623 3.675-1.918 6.383-2.037 28.123-1.23m-22.73 1.777c-5.945.757-15.993 11.062-27.483 28.186-7.589 11.312-7.786 10.833 7.415 18.078 18.442 8.789 19.908 10.115 25.395 22.963l.63 1.475 4.581.202c31.122 1.37 113.22 1.323 133.09-.076l2.911-.205.704-1.435c.387-.79 1.497-3.098 2.466-5.129 3.681-7.712 5.597-9.356 18.042-15.494 17.5-8.63 16.867-8.22 16.895-10.93.036-3.496-13.313-21.918-22.799-31.463-5.754-5.79-7.928-6.638-16.252-6.338-2.112.076-8.865.287-15.005.467-24.116.71-33.304 1.199-36.049 1.92-8.394 2.204-10.234 2.588-14.002 2.923-5.356.477-11.103-.009-16.36-1.383-8.676-2.267-7.499-2.13-24.339-2.818-8.684-.355-19.521-.721-24.083-.815s-9.513-.219-11.004-.279c-1.492-.06-3.63.008-4.753.151m-55.92 9.83q2.04.395 1.623.81c-.08.08-3.369.445-7.31.81-9.465.879-10.48 1.191-12.374 3.805-2.934 4.052-5.508 18.058-5.543 30.169-.031 10.734.774 11.534 13.159 13.067 12.109 1.499 13.081 1.241 19.842-5.271 2.902-2.795 3.264-2.429-10.653-10.769-14.561-8.726-15.494-9.421-16.242-12.094-.739-2.638 1.447-12.631 3.094-14.142l.844-.775-.236.957c-.576 2.328-1.419 6.937-1.764 9.644-.699 5.487-1.32 4.894 15.627 14.905 16.006 9.455 15.881 9.275 10.145 14.675-6.302 5.932-7.654 6.401-16.165 5.611-18.315-1.702-20.147-3.105-20.13-15.425.022-16.497 3.686-31.826 8.342-34.908 2.422-1.602 12.015-2.18 17.741-1.069m278.706-.262c3.523.651 5.58 2.297 7.064 5.651 4.246 9.603 6.474 34.311 3.599 39.934-1.808 3.538-3.632 4.244-14.42 5.584-12.761 1.584-14.819.981-21.971-6.436-3.843-3.986-3.614-4.287 8.971-11.751 20.977-12.442 19.621-10.686 17.256-22.347-.93-4.586-.948-4.814-.367-4.455 1.178.728 3.756 10.97 3.424 13.602-.444 3.523-.269 3.389-20.154 15.415-7.538 4.559-8.642 5.443-8.334 6.672.23.916 4.315 4.649 7.11 6.499l1.819 1.204 4.328-.053c9.788-.12 18.112-1.962 19.734-4.367 3.224-4.782.665-32.244-3.621-38.859-2.224-3.433-2.925-3.626-17.766-4.89-3.723-.318-3.138-1.023 1.196-1.442 3.665-.354 10.118-.334 12.132.039m-221.861 5.863c22.296 1.666 41.437 2.236 75.12 2.235 34.842 0 53.446-.578 77.601-2.408 12.613-.955 12.243-.537-.727.824-36.535 3.834-124.977 3.544-158.533-.52-9.506-1.152-7.627-1.189 6.539-.131m-15.311 11.003c38.686 4.323 128.146 4.732 172.408.787 15.552-1.386 18.485-1.441 9.405-.176-39.559 5.511-162.215 5.124-186.269-.588l-1.126-.267 1.435-.03c.79-.016 2.656.107 4.147.274m-7.975 11.485c53.812 5.971 135.025 6.372 188.198.931 11.928-1.221 13.559-1.344 12.281-.927-5.087 1.658-31.746 3.895-61.723 5.179-12.717.544-67.058.543-79.744-.002-31.697-1.361-55.791-3.36-62.6-5.194-1.394-.375-1.593-.663-.319-.462.482.076 2.241.29 3.907.475m-43.96 2.269c2.985.862 3.45 1.526 3.45 4.916 0 4.033-1.16 4.862-6.375 4.56-3.93-.227-5.108-1.462-5.108-5.357 0-4.807 2.036-5.851 8.033-4.119m291.351-.517c3.331 1.392 2.729 8.759-.796 9.739-5.339 1.483-8.636-.232-8.636-4.493 0-3.921.991-4.619 8.064-5.676.138-.021.753.173 1.368.43m-218.044 12.291c24.935 1.507 34.884 1.756 69.856 1.746 27.105-.007 35.979-.117 45.614-.565 13.602-.632 27.951-1.411 30.782-1.669 2.69-.246 1.589.337-1.436.76-24.289 3.399-116.976 3.524-149.057.201-4.697-.487-7.321-1.257-3.255-.956 1.228.091 4.601.308 7.496.483m12.918 9.899c36.992 1.299 76.727 1.299 113.238 0 5.088-.181 10.252-.405 11.476-.497 3.505-.266 2.105.428-1.6.793-22.979 2.262-110.33 2.262-133.309 0-3.83-.377-5.094-1.077-1.448-.801 1.316.099 6.555.327 11.643.505m-103.37 5.547c7.638 3.164 52.195 7.755 66.69 6.871 4.095-.25 12.717-1.127 14.112-1.436.395-.087.718-.024.718.14 0 1.037-12.931 2.98-19.777 2.971-11.003-.015-33.14-1.898-48.006-4.085-10.717-1.577-14.81-2.872-16.939-5.359-1.497-1.749-1.355-1.981.432-.704.833.595 2.08 1.316 2.77 1.602m323.723-1.702c-2.594 4.432-17.046 7.17-50.337 9.537-16.901 1.202-24.989.838-33.413-1.503-1.863-.518-2.559-1.154-.957-.875 11.754 2.047 24.313 1.956 48.405-.351 22.04-2.111 33.177-4.338 35.714-7.141.888-.981 1.241-.781.588.333"/><path fill="#fbfbfb" d="M0 200v200h400V0H0zM201.406 65.789c.256.395.562 1.113.68 1.595l.216.878h2.916c14.507.002 42.258 1.31 60.651 2.858 4.035.34 9.131.593 11.324.564 8.195-.111 18.428 4.692 23.755 11.151 7.411 8.984 15.109 23.41 28.884 54.124l1.698 3.786 1.758-.207c2.448-.288 2.597-.479 2.597-3.348 0-4.948.941-10.818 2.108-13.154 2.856-5.717 21.854-4.141 28.756 2.386 6.334 5.991 4.942 8.143-7.811 12.075-3.023.932-5.499 1.78-5.502 1.885-.027.78 10.174-1.931 13.948-3.706 3.215-1.512 3.454-1.433 2.328.774-2.355 4.617-7.117 6.855-19.427 9.132-7.193 1.33-11.529 2.854-11.529 4.054 0 .625 4.018 7.051 7.242 11.578 14.326 20.127 18.282 28.041 20.484 40.976 2.45 14.4 2.986 39.935 1.282 61.084-.17 2.106-.446 8.78-.612 14.833-1.028 37.267-2.374 45.824-7.614 48.397l-1.803.885h-15.949c-17.44 0-16.91.053-19.232-1.906-2.222-1.873-3.053-4.693-3.755-12.745-.276-3.165-.563-5.815-.637-5.89s-3.833.034-8.352.243c-16.508.762-26.103.98-59.411 1.352-49.935.556-130.699.022-153.27-1.013-4.386-.202-9.84-.386-12.12-.411l-4.146-.045-.372 4.51c-.887 10.743-1.904 13.39-5.85 15.234-1.398.654-1.845.671-17.225.671H41.627l-1.595-.735c-4.206-1.937-5.26-4.647-6.352-16.335-.769-8.228-1.463-22.411-1.463-29.896 0-3.753-.21-9.506-.465-12.784-2.704-34.624-1.246-63.094 3.952-77.194 2.432-6.595 8.926-17.465 17.566-29.404 2.878-3.976 7.336-10.964 7.336-11.499 0-.96-4.897-2.676-10.845-3.802-14.088-2.667-18.957-5.065-20.688-10.189-.484-1.431-.404-1.459 1.352-.477 2.072 1.157 7.216 2.841 11.12 3.64l3.876.794c1.92.4-.542-.601-3.954-1.608-11.969-3.532-13.921-5.051-11.743-9.137 3.205-6.013 13.219-9.753 24.363-9.098 6.929.407 9.071 4.035 9.071 15.362 0 3.924.158 4.218 2.419 4.501 2.29.286 2.198.391 4.705-5.44 12.042-28.014 22.207-46.373 30.034-54.249 5.475-5.508 14.274-9.25 21.534-9.157 2.193.028 7.361-.226 11.483-.565 18.786-1.541 46.622-2.855 60.522-2.855h2.628l.489-1.172c.736-1.761 1.065-2.018 2.581-2.018 1.09 0 1.489.154 1.853.717M181.818 79.3c-20.446.427-38.402 1.228-53.11 2.369-17.49 1.358-20.317 1.871-22.922 4.164-7.288 6.415-24.095 41.537-24.122 50.408-.013 4.304 2.02 4.871 19.293 5.382 30.385.898 191.026.64 206.061-.331 11.441-.739 12.326-2.097 8.612-13.222-5.525-16.551-18.449-40.309-23.494-43.191-6.005-3.429-66.562-6.492-110.318-5.579M68.624 145.002c-3.739 4.249-8.623 13.578-9.461 18.074-.193 1.041-.38 1.241-1.458 1.564-2.299.689-2.511 1.45-.364 1.305 3.727-.252 31.867 14.926 58.922 31.781l5.419 3.375 18.263 1.175c39.407 2.535 40.353 2.557 46.339 1.091 9.306-2.279 16.651-2.284 26.475-.017 6.407 1.478 5.346 1.495 39.713-.659 9.649-.604 19.173-1.193 21.164-1.308l3.62-.208 2.76-1.736c26.512-16.68 56.664-33.116 61.551-33.553l2.133-.191-.957-.506c-.526-.278-1.318-.592-1.76-.698-.682-.163-.888-.52-1.365-2.357-1.529-5.902-7.506-16.573-10.238-18.279-.879-.549-.578.088 1.925 4.076 3.648 5.811 7.357 14.214 7.076 16.032-.08.521-1.204 1.184-5.048 2.982-13.836 6.471-38.29 20.408-54.417 31.014l-2.584 1.699-17.353 1.124c-38.594 2.501-39.588 2.526-45.531 1.161-10.4-2.39-17.021-2.414-26.845-.097-6.051 1.427-11.476 1.264-56.264-1.697l-7.62-.504-1.79-1.207c-13.853-9.343-46.511-27.823-58.329-33.006-1.209-.53-1.994-1.069-1.994-1.368 0-2.14 3.888-10.71 7.535-16.611 2.322-3.756 2.521-4.766.483-2.451m276.682 22.941c.121.35.649 1.786 1.173 3.189 3.263 8.742 3.749 20.987 1.065 26.848-2.455 5.363-7.165 7.669-27.927 13.67-14.48 4.186-10.179 4.2 5.843.019 21.961-5.73 26.106-9.681 25.629-24.428-.229-7.073-1.422-12.489-3.711-16.854-.763-1.455-2.398-3.383-2.072-2.444m-292.871 1.355c-4.544 6.996-5.998 21.201-2.99 29.208 2.323 6.187 12.12 10.828 31.781 15.056 10.45 2.247 9.724 1.453-1.733-1.897-21.189-6.196-25.556-8.405-28.097-14.217-2.669-6.103-1.96-18.539 1.549-27.149 1.087-2.667 1.044-2.516.718-2.516-.134 0-.687.682-1.228 1.515m3.798 4.07c-2.904 2.034-3.763 15.536-1.391 21.873 2.01 5.371 5.683 7.213 26.338 13.207 12.28 3.563 13.177 3.724 15.164 2.71 2.523-1.287.891-2.156-10.137-5.398-20.525-6.033-23.42-7.385-25.572-11.94-2.034-4.305-2.592-14.873-.785-14.873 1.003 0 18.33 7.287 33.77 14.202 8.781 3.933 16.052 7.069 19.24 8.3l2.334.901-1.058.403a464 464 0 0 1-5.205 1.881c-3.468 1.238-9.853 3.832-10.345 4.204-.942.711.953.543 3.022-.269 1.396-.547 5.481-2.105 9.078-3.462 3.596-1.356 6.509-2.594 6.472-2.75-.223-.942-32.168-18.023-43.793-23.415-11.857-5.501-15.53-6.696-17.132-5.574m282.045.274c-8.227 2.677-30.633 13.836-50.479 25.141-3.377 1.923-6.139 3.594-6.137 3.713.002.118 2.047.955 4.545 1.859 2.499.905 6.573 2.43 9.054 3.39 3.785 1.464 6.135 1.951 5.208 1.08-.573-.539-12.811-5.258-15.065-5.81-1.298-.317-1.337-.685-.117-1.088.595-.196 2.714-1.082 4.708-1.967 29.776-13.221 48.059-21.013 49.304-21.013 2.068 0 1.117 11.625-1.286 15.725-2.392 4.083-5.357 5.381-25.998 11.378-10.419 3.027-11.858 3.811-9.346 5.093 2.112 1.077 2.608.979 18.543-3.65 21.889-6.359 24.411-8.568 24.394-21.369-.015-11.296-1.772-14.29-7.328-12.482M68.461 185.158c-5.403 1.925-5.47 10.241-.099 12.27 1.541.582 1.71.367.351-.448-5.202-3.119-3.696-11.561 2.083-11.675.924-.019 1.016-.074.496-.297-.893-.384-1.413-.356-2.831.15m259.535-.21c-.248.158.151.395 1.083.644 5.498 1.471 6.347 8.139 1.432 11.256-1.827 1.159-.844 1.259 1.111.113 3.458-2.026 4.258-6.931 1.621-9.934-1.528-1.74-4.146-2.778-5.247-2.079m-252.398 1.917c0 .164.225.484.5.712 2.943 2.443 1.649 8.142-2.252 9.914-1.56.709-.454.859 1.209.164 3.065-1.28 4.489-5.189 3.082-8.46-.583-1.355-2.539-3.15-2.539-2.33m246.412.79c-3.253 3.253-1.379 9.559 3.057 10.285l1.089.179-1.167-.647c-3.741-2.074-4.767-6.76-2.136-9.757 1.241-1.413.558-1.461-.843-.06m-233.653 5.289c0 .177 1.021 1.586 2.268 3.131s2.742 3.75 3.322 4.9c1.35 2.676 1.307 2.649 5.197 3.261l3.29.518 3.408-1.194c4.33-1.517 4.324-1.717-.1-3.58-1.93-.813-6.308-2.7-9.729-4.193-7.028-3.066-7.656-3.3-7.656-2.843m212.432 3.836c-11.006 4.777-11.156 4.846-11.156 5.152 0 .129 1.651.82 3.669 1.536l3.668 1.302 2.791-.477c4.093-.699 4.255-.799 5.564-3.444.63-1.275 1.855-3.243 2.722-4.374 1.634-2.133 2.454-3.464 2.257-3.662-.063-.063-4.345 1.722-9.515 3.967m-220.347-.56c.108 1.094 2.952 2.46 5.186 2.491.561.008 1.285.343 1.795.832l.855.82.145-.985c.176-1.2.032-1.326-2.777-2.429-1.228-.482-2.403-1.008-2.61-1.167-1.138-.876-2.698-.612-2.594.438m235.826-.236c-.702.419-1.922.927-2.711 1.128-2.853.727-3.19.952-3.19 2.129 0 1.252.104 1.293 1.165.459.433-.341 1.604-.777 2.602-.97s2.126-.416 2.506-.496c.774-.164 2.176-2.19 1.864-2.694-.306-.496-.841-.39-2.236.444M196.615 206.39c-9.95 1.327-15.307 8.043-11.492 14.406 4.577 7.633 20.601 8.608 27.535 1.675 7.591-7.59-2.661-17.865-16.043-16.081m1.029 2.238c-.784.932-1.791 3.633-1.791 4.807 0 .688-1.638.527-3.72-.366-3.313-1.419-1.93-3.789 2.763-4.735 2.476-.499 2.994-.599 3.298-.641.147-.021-.1.4-.55.935m8.507.302c4.032 1.515 3.105 4.163-1.707 4.877l-1.139.169-.381-1.847c-.21-1.016-.748-2.387-1.197-3.048l-.815-1.2 1.697.178c.934.097 2.527.489 3.542.871m-5.073 3.188c.75 1.875.716 1.917-1.556 1.917-2.237 0-2.248-.01-1.719-1.627.815-2.491 2.34-2.626 3.275-.29m-10.649 2.973c.912.454 2.433.999 3.381 1.212 1.693.378 1.724.406 1.73 1.531.009 1.883.879 5.418 1.633 6.639l.706 1.142-1.73-.215c-6.923-.864-12.033-7.682-9.105-12.15l.576-.879.576.947c.32.526 1.314 1.315 2.233 1.773m21.865-1.346c2.171 4.816-2.772 10.886-9.516 11.684l-1.617.192.707-1.145c.756-1.223 1.626-4.757 1.635-6.642.006-1.12.043-1.154 1.68-1.521 2.615-.587 4.968-1.809 5.591-2.903.71-1.248.817-1.224 1.52.335m-10.718 4.861c-.664 4.898-4.128 4.563-4.128-.399v-1.271l1.994-.095c2.551-.121 2.407-.241 2.134 1.765m-81.002 7.832c-5.323 1.717-13.325 9.847-23.746 24.123-12.251 16.785-12.12 17.561 4.288 25.37 17.89 8.515 18.671 9.138 23.285 18.592 1.731 3.547 3.195 6.145 3.61 6.407 3.389 2.134 138.37 2.056 142.773-.083.958-.465 1.3-1.019 2.884-4.675 4.586-10.583 5.178-11.097 22.707-19.711 13.85-6.807 14.859-7.685 13.718-11.951-1.801-6.733-22.388-32.669-29.105-36.667-3.961-2.358-6.893-2.435-40.637-1.069-21.091.854-20.45.795-26.169 2.421-6.133 1.744-9.034 2.174-14.66 2.17-5.975-.004-7.506-.256-16.906-2.786-3.497-.941-6.81-1.144-36.728-2.255-17.461-.648-23.031-.623-25.314.114m18.341 1.791c4.562.094 15.399.46 24.083.815 16.84.688 15.663.551 24.339 2.818 5.257 1.374 11.004 1.86 16.36 1.383 3.768-.335 5.608-.719 14.002-2.923 2.745-.721 11.933-1.21 36.049-1.92 6.14-.18 12.893-.391 15.005-.467 8.324-.3 10.498.548 16.252 6.338 9.486 9.545 22.835 27.967 22.799 31.463-.028 2.71.605 2.3-16.895 10.93-12.445 6.138-14.361 7.782-18.042 15.494a790 790 0 0 1-2.466 5.129l-.704 1.435-2.911.205c-19.87 1.399-101.968 1.446-133.09.076l-4.581-.202-.63-1.475c-5.487-12.848-6.953-14.174-25.395-22.963-11.644-5.55-12.5-6.147-12.5-8.724 0-3.612 15.104-24.163 24.011-32.67 4.561-4.357 6.992-5.274 13.31-5.021 1.491.06 6.443.186 11.004.279M52.4 237.754c-5.979 1.537-9.096 9.221-10.779 26.57-1.815 18.706-.096 22.38 11.231 24.003 16.094 2.306 17.544 2.035 24.598-4.605 5.736-5.4 5.861-5.22-10.145-14.675-16.947-10.011-16.326-9.418-15.627-14.905.345-2.707 1.188-7.316 1.764-9.644l.236-.957-.844.775c-1.647 1.511-3.833 11.504-3.094 14.142.748 2.673 1.681 3.368 16.242 12.094 13.917 8.34 13.555 7.974 10.653 10.769-6.761 6.512-7.733 6.77-19.842 5.271-12.385-1.533-13.19-2.333-13.159-13.067.035-12.111 2.609-26.117 5.543-30.169 1.894-2.614 2.909-2.926 12.374-3.805 7.033-.652 7.657-.752 7.255-1.155-.822-.822-13.738-1.327-16.406-.642m281.412-.124c-4.334.419-4.919 1.124-1.196 1.442 14.841 1.264 15.542 1.457 17.766 4.89 4.286 6.615 6.845 34.077 3.621 38.859-1.622 2.405-9.946 4.247-19.734 4.367l-4.328.053-1.819-1.204c-2.795-1.85-6.88-5.583-7.11-6.499-.308-1.229.796-2.113 8.334-6.672 19.885-12.026 19.71-11.892 20.154-15.415.332-2.632-2.246-12.874-3.424-13.602-.581-.359-.563-.131.367 4.455 2.365 11.661 3.721 9.905-17.256 22.347-12.585 7.464-12.814 7.765-8.971 11.751 7.152 7.417 9.21 8.02 21.971 6.436 10.788-1.34 12.612-2.046 14.42-5.584 2.875-5.623.647-30.331-3.599-39.934-2.395-5.415-7.226-6.847-19.196-5.69m-221.85 5.201c.087.096 2.599.471 5.582.832 37.062 4.488 129.845 4.3 166.029-.337 5.207-.667 2.289-.653-6.769.033-24.155 1.83-42.759 2.408-77.601 2.408-33.683.001-52.824-.569-75.12-2.235-10.319-.771-12.288-.885-12.121-.701m-7.646 11.727c24.054 5.712 146.71 6.099 186.269.588 9.08-1.265 6.147-1.21-9.405.176-44.262 3.945-133.722 3.536-172.408-.787-1.491-.167-3.357-.29-4.147-.274l-1.435.03zm-8.303 10.988c0 1.559 29.676 4.19 63.796 5.655 12.686.545 67.027.546 79.744.002 29.977-1.284 56.636-3.521 61.723-5.179 1.278-.417-.353-.294-12.281.927-45.581 4.664-118.984 5.084-168.58.962-8.9-.739-20.782-1.935-23.525-2.368-.483-.076-.877-.076-.877.001m-45.227 2.248c-2.594 1.105-2.754 7.614-.228 9.269 1.897 1.243 7.505.991 8.896-.4 1.138-1.138 1.249-5.554.174-6.92-1.19-1.514-6.905-2.773-8.842-1.949m294.031-.128c-5.03.822-6.061 1.733-6.061 5.352 0 4.261 3.297 5.976 8.636 4.493 4.216-1.171 3.674-10.804-.572-10.169-.137.02-1.039.166-2.003.324m-223.858 12.081c1.163.711 16.45 1.863 34.065 2.569 36.938 1.479 103.009.388 119.936-1.981 3.025-.423 4.126-1.006 1.436-.76-2.831.258-17.18 1.037-30.782 1.669-15.197.706-73.734.817-88.517.168-15.292-.672-27.676-1.331-34.449-1.832-1.628-.121-2.086-.075-1.689.167m8.4 9.864c2.671 2.696 110.805 3.207 136.817.647 3.705-.365 5.105-1.059 1.6-.793-21.775 1.647-84.806 1.899-124.714.497-5.088-.178-10.327-.406-11.643-.505-1.668-.126-2.292-.08-2.06.154m-93.952 3.474c0 .702 2.368 2.891 3.982 3.681 8.342 4.084 58.027 8.694 71.631 6.645 5.235-.788 10.192-1.92 10.192-2.327 0-.164-.323-.227-.718-.14-4.541 1.005-17.154 1.739-24.322 1.415-29.792-1.347-54.174-4.825-59.25-8.452-.833-.596-1.515-.966-1.515-.822m327.42.389c-2.537 2.803-13.674 5.03-35.714 7.141-24.092 2.307-36.651 2.398-48.405.351-1.602-.279-.906.357.957.875 8.424 2.341 16.512 2.705 33.413 1.503 33.291-2.367 47.743-5.105 50.337-9.537.653-1.114.3-1.314-.588-.333"/></g></svg>