<svg xmlns="http://www.w3.org/2000/svg" width="400" height="400" viewBox="0 0 400 400"><g fill-rule="evenodd"><path fill="#050505" d="M197.987 60.093c-.389.419-.962 1.473-1.275 2.342l-.568 1.579-13.782.216c-28.874.454-46.133 1.309-71.445 3.541-7.634.673-10.316 1.865-15.775 7.014-10.019 9.451-21.691 28.324-32.12 51.938-2.311 5.234-3.592 7.248-4.606 7.248-.125 0-.716-.806-1.313-1.791l-1.085-1.791-.233-5.537c-.441-10.51-1.83-12.437-8.895-12.339-16.13.224-25.5 5.385-25.567 14.083-.044 5.678 4.417 8.083 19.342 10.429 6.56 1.032 6.505 1.001 7.96 4.425l.882 2.075-3.445 4.553c-6.246 8.257-8.175 10.561-13.029 15.563-13.121 13.521-14.183 15.684-16.279 33.169-1.766 14.734-1.299 62.562.812 83.094.163 1.579.435 6.531.606 11.005 1.168 30.592 2.058 32.627 14.523 33.204 6.975.322 21.893.32 26.695-.003 8.825-.596 11.056-4.294 11.097-18.4l.007-2.583 3.908-.197c2.149-.109 5.845-.506 8.214-.882 5.014-.797 10.125-.839 35.247-.296 55.6 1.203 112.508 1.205 163.796.008 24.656-.576 29.801-.536 35.087.273 2.544.389 6.312.795 8.374.901l3.748.194.005 2.902c.024 13.911 2.219 17.468 11.159 18.08 4.619.316 19.135.32 26.475.007 12.56-.535 13.609-2.9 14.524-32.729.108-3.509.325-7.528.484-8.932 1.729-15.314 2.821-68.391 1.654-80.383-2.141-21.996-2.979-23.887-17.141-38.678-4.172-4.358-7.16-7.875-10.93-12.869l-5.189-6.873.494-1.401c1.505-4.266 1.431-4.224 9.884-5.536 14.803-2.297 19.546-5.635 17.585-12.378-2.215-7.621-10.882-11.684-25.224-11.826-7.399-.073-8.55 1.544-9.076 12.746-.327 6.971-1.4 9.448-3.546 8.181-.948-.56-1.199-1.046-5.416-10.472-10.259-22.932-24.084-43.828-33.884-51.212-5.349-4.031-6.112-4.243-18.27-5.078-22.781-1.564-42.594-2.277-73.781-2.655l-5.519-.067-.776-1.914c-1.152-2.836-2.866-3.596-4.393-1.948m44.756 13.279c21.175.544 39.065 1.354 49.271 2.232 4.903.421 6.286 1.151 9.356 4.938 8.222 10.143 20.314 32.302 24.342 44.606 2.06 6.295 1.32 6.914-9.125 7.617-8.631.582-224.889.597-233.725.016-12.131-.796-12.289-1.145-6.61-14.592 8.119-19.224 21.616-40.368 26.749-41.907 4.206-1.26 39.229-2.782 77.382-3.363 10.513-.16 49.543.123 62.36.453M59.72 136.443C51.033 147.916 43.7 161.1 43.7 165.247c0 1.15-.55 1.242-.827.138-.91-3.626 9.299-21.462 17.205-30.058 1.855-2.017 1.738-1.652-.358 1.116m283.015 3.27c7.846 10.338 14.485 22.762 13.743 25.718-.237.943-.816.996-.816.074 0-2.594-3.791-10.748-8.123-17.473-3.529-5.478-8.2-12.131-9.067-12.914-.37-.334-.667-.765-.66-.957.019-.492 2.219 1.989 4.923 5.552M43.373 168.228c4.813 4.59 21.214 9.736 61.731 19.368 49.397 11.743 101.206 14.022 154.705 6.805 12.879-1.738 33.132-6.122 56.778-12.292 26.77-6.984 36.148-10.37 40.015-14.444 4.596-4.842 10.329 8.793 10.31 24.52-.017 13.345-4.086 18.34-22.859 28.059-7.027 3.638-7.283 3.669-4.181.507 2.028-2.066 3.273-2.998 6.061-4.537 17.198-9.49 20.784-16.926 17.204-35.668-1.273-6.668-2.465-8.629-4.22-6.946-2.234 2.142-5.538 3.437-14.866 5.826-15.32 3.922-54.565 11.991-78.341 16.105-8.782 1.52-24.965 3.233-39.713 4.205-8.088.533-45.409.536-53.429.005-18.966-1.257-34.218-3.139-49.601-6.119-19.883-3.852-26.342-5.134-37.004-7.343-32.908-6.82-41.728-9.268-45.423-12.606-1.511-1.365-1.479-1.366-2.22.091-2.701 5.309-4.098 19.749-2.477 25.598 1.721 6.209 6.425 10.722 17.586 16.87 2.783 1.533 4.037 2.469 6.061 4.526 2.997 3.046 2.811 3.049-3.19.053-14.471-7.224-20.473-12.257-22.767-19.09-2.804-8.351-.773-25.422 3.832-32.213 2.367-3.49 3.449-3.721 6.008-1.28m317.509 9.227c.418 1.663.859 9.809.668 12.338-.733 9.746-4.026 13.98-15.826 20.355l-2.442 1.319-.202-3.421c-.352-5.98-.867-6.974-4-7.726-2.002-.48-2.296-.456-25.204 2.084-26.068 2.889-41.887 4.451-42.916 4.237-.344-.072.954-.314 2.884-.538s5.733-.692 8.453-1.039a6632 6632 0 0 1 31.898-3.955c3.772-.455 9.8-1.188 13.397-1.627 13.278-1.621 15.553-1.015 16.627 4.425.439 2.229.064 2.243 4.088-.159 8.185-4.888 10.183-8.671 10.377-19.651.089-5.071.155-5.614.78-6.459.826-1.117 1.173-1.162 1.418-.183m-321.11.272c.706.663.738.896.74 5.343.003 12.156 2.758 16.939 12.665 21.987 1.71.871 1.685.877 1.701-.352.082-6.016 3.103-6.846 18.328-5.034 22.957 2.731 54.826 6.723 54.991 6.889.352.352-11.664-.707-25.645-2.261-3.86-.428-13.405-1.491-21.212-2.362-18.082-2.016-19.316-2.111-21.296-1.636-2.99.717-3.899 2.522-3.902 7.753-.001 1.711-.077 3.11-.168 3.11-1.501 0-11.149-6.271-13.592-8.834-4.083-4.284-5.522-11.054-4.449-20.923.515-4.738.578-4.864 1.839-3.68m14.454 7.106c6.58 1.427 6.175 1.147 8.126 5.61 1.988 4.548 2.274 4.328-5.001 3.849-10.378-.682-11.138-1.178-11.646-7.602-.304-3.844-.469-3.807 8.521-1.857m299.269-.605c.475 1.042-.155 5.083-1.109 7.113-.91 1.935-1.867 2.254-8.348 2.783-9.538.779-9.162.977-7.173-3.774 1.799-4.297 1.353-3.99 8.021-5.522 7.171-1.648 8.102-1.713 8.609-.6m-276.833 4.275a6920 6920 0 0 0 28.92 5.407l11.324 2.088 6.061 1.118 2.472 2.603c2.694 2.837 2.862 3.152 1.687 3.152-1.635 0-42.187-5.008-48.974-6.049-6.203-.95-7.751-1.942-10.172-6.516-2.086-3.941-2.334-3.89 8.682-1.803m255.62-1.048c.761 1.984-4.16 7.824-7.383 8.762-1.22.355-46.235 6.137-52.463 6.739-1.369.132-1.049-.565 1.479-3.228l2.481-2.612 2.392-.451c1.316-.248 5.263-.972 8.772-1.609s8.604-1.578 11.324-2.091c2.719-.513 9.537-1.794 15.151-2.846 5.614-1.051 11.571-2.189 13.238-2.528 3.871-.786 4.75-.81 5.009-.136m-59.435 8.478c-.131.219-2.165 2.804-4.521 5.743-5.154 6.431-2.4 5.341-23.19 9.174-17.14 3.16-18.541 3.482-20.415 4.693-1.396.902-6.539 5.782-6.539 6.204 0 .144 14.82.264 32.934.265 45.718.004 47.959.261 54.445 6.24 12.484 11.507 34.686 45.713 33.694 51.912-.978 6.116-13.128 12.167-26.655 13.275-34.924 2.861-194.112 2.867-226.157.008-13.599-1.213-25.83-7.417-26.404-13.393-.808-8.414 27.44-49.202 37.847-54.647 6.054-3.167 6.008-3.164 47.489-3.307 19.693-.068 35.805-.234 35.805-.369 0-.337-5.021-5.171-6.279-6.046-1.768-1.23-3.42-1.618-19.359-4.544-17.301-3.177-18.002-3.318-19.471-3.932-1.008-.422-9.706-10.874-9.346-11.233.084-.084 2.11 1.992 4.502 4.614 5.539 6.072 3.475 5.32 25.073 9.139 18.89 3.341 17.579 2.865 22.984 8.336 6.235 6.311 8.538 7.464 16.307 8.168 11.352 1.029 17.435-.885 23.707-7.458 5.467-5.73 5.396-5.695 15.818-7.601 31.427-5.745 27.368-4.432 33.125-10.718 4.122-4.5 5.252-5.61 4.606-4.523m-68.862 7.106c10.364 1.807 15.079 9.726 9.28 15.585-7.767 7.847-26.75 5.6-29.389-3.479-2.298-7.905 8.145-14.192 20.109-12.106m-7.689 1.107c-6.686.98-8.33 4.5-2.669 5.714 2.205.473 2.119.508 2.353-.958.262-1.635 1.32-3.786 2.219-4.509.762-.613.676-.625-1.903-.247m4.914.409c.854.909 1.98 3.696 1.98 4.899 0 .988 1.54.912 4.052-.199 3.53-1.562 1.566-4.275-3.574-4.938a41 41 0 0 1-2.392-.373l-.798-.168zm-2.649 2.672c-.619.618-1.113 1.809-1.113 2.682 0 .552.238.617 2.255.617 2.102 0 2.242-.043 2.073-.638-.1-.351-.27-.961-.378-1.355-.465-1.693-1.825-2.319-2.837-1.306m-12.113 2.333c-2.709 5.239 3.509 12.415 10.784 12.446l.9.004-.661-.842c-.856-1.087-1.576-3.54-1.824-6.212l-.197-2.122-1.36-.186c-2.026-.278-4.673-1.564-5.973-2.903l-1.151-1.185zm24.182.503c-1.287 1.307-3.922 2.486-6.164 2.759-.76.092-.808.226-1.021 2.788-.166 2.009-.456 3.163-1.142 4.546l-.918 1.854h.844c6.913 0 13.085-7.124 10.631-12.27-.645-1.352-.569-1.363-2.23.323m-13.501 3.478c0 1.291.781 3.814 1.405 4.539 1.397 1.625 3.357-.492 3.373-3.646l.007-1.356h-2.392c-1.878 0-2.393.1-2.393.463m-83.572 11.237c-10.273.574-14.17 2.078-19.62 7.571-10.575 10.657-29.57 39.447-30.345 45.993-.679 5.733 10.868 11.693 24.925 12.867 32.449 2.708 185.046 2.697 221.69-.016 11.813-.874 23.803-5.936 25.38-10.714 1.161-3.519-5.606-15.923-18.151-33.27-10.237-14.155-15.646-19.385-21.742-21.025-5.021-1.351-6.118-1.389-43.839-1.531l-36.342-.137-2.414 1.129c-7.179 3.36-21.627 3.192-27.641-.322l-1.304-.762-34.421.059c-18.932.033-35.211.104-36.176.158m-74.482 23.107c10.661 2.114 23.591 5.983 22.763 6.811-.134.133-6.698-1.173-9.431-1.878-10.61-2.735-19.738-3.915-21.228-2.743-2.023 1.591-6.709 20.062-6.211 24.482.312 2.775 1.39 3.511 16.121 11.017 5.142 2.62 9.289 4.824 9.215 4.898-.685.685-21.234-8.593-24.86-11.225-3.47-2.518-3.399-6.295.405-21.671 2.651-10.717 3.802-11.56 13.226-9.691m329.707-.164c2.47 1.242 4.545 7.238 6.811 19.685 1.547 8.493 1.12 10.237-3.108 12.706-5.298 3.095-22.906 10.881-23.428 10.36-.089-.09 2.186-1.337 5.056-2.772 13.189-6.596 19.327-10.164 19.992-11.625.725-1.59.009-6.732-2.171-15.595-2.526-10.271-3.226-11.23-7.974-10.933-2.751.173-5.431.697-21.934 4.292-9.532 2.076-2.681-.946 8.477-3.74 12.043-3.016 15.99-3.529 18.279-2.378m-268.144 3.957c48.193 2.046 182.656 1.716 207.539-.509 1.937-.174 3.342.253 2.13.646-8.351 2.712-208.233 2.709-220.926-.003-1.542-.329-.292-.816 1.64-.639 1.079.099 5.406.326 9.617.505M44.28 256.43c7.011 1.202 8.021 1.507 7.546 2.276-.332.537-3.099.245-10.428-1.101-6.465-1.186-6.69-1.255-6.422-1.953.261-.679 1.335-.589 9.304.778m319.852-.9c.453.733-.708 1.093-7.273 2.255-7.523 1.331-9.491 1.489-9.491.759 0-.685.758-.962 4.307-1.574a748 748 0 0 0 6.379-1.137c3.731-.686 5.778-.788 6.078-.303m-270.703 3.477c4.768.262 5.628.389 6.106.902.608.653-1.608.559 31.725 1.346 52.441 1.238 166.958.323 168.281-1.345.442-.557 1.106-.659 5.901-.912 2.972-.157 6.272-.375 7.333-.485 2.194-.228 3.422.454 2.298 1.276-5.532 4.045-231.181 3.747-231.181-.305 0-.725 1.025-1.101 2.551-.937.79.085 3.933.292 6.986.46m-53.47 3.197c8.569 1.442 8.754 1.494 8.416 2.376-.258.673-.826.634-7.227-.486l-6.626-1.159c-1.16-.202-1.493-.535-1.227-1.228.231-.601.069-.613 6.664.497m326.167-.26c.127.673-.568.864-7.815 2.153-6.259 1.113-7.062 1.166-7.324.483-.303-.79-.067-.866 6.526-2.104 6.86-1.288 8.451-1.386 8.613-.532m-278.088 5.227c6.265.444 7.263.588 7.853 1.134 3.042 2.82 205.366 2.782 207.726-.039.796-.95 15.129-1.974 15.952-1.139 1.158 1.176-.657 1.512-13.03 2.41-37.005 2.684-188.957 2.347-220.415-.489-6.387-.576-6.698-.64-6.698-1.377 0-1.191-.635-1.154 8.612-.5m-49.123 1.431c5.935 1.055 6.742 1.348 5.93 2.16-.429.43-.819.426-3.604-.031-9.311-1.53-10.776-1.976-9.567-2.914.315-.245.817-.391 1.116-.326.299.066 3.055.566 6.125 1.111m328.364-1.104c.684.263.636.989-.092 1.379-1.175.629-11.863 2.4-12.409 2.056-1.551-.979-1.17-1.132 6.285-2.516 3.082-.573 5.628-1.057 5.657-1.077.03-.019.281.052.559.158m-280.525 8.266c5 .407 5.626.523 6.08 1.125 2.007 2.661 151.195 3.362 207.442.975 5.331-.226 5.732-.286 6.222-.935.631-.837 16.295-2.429 16.997-1.728.589.589.053 1.302-1.23 1.638-18.327 4.79-241.469 4.412-246.299-.417-1.105-1.105-.208-1.567 2.59-1.332 1.443.121 5.132.424 8.198.674m287.702 15.975c-1.969 2.11-10.24 3.725-24.798 4.843-3.859.296-4.57-.028-1.254-.572 13.578-2.228 24.87-4.431 26.026-5.078.846-.474.859-.085.026.807m-348.185-.353c2.043.62 7.686 1.708 18.222 3.515 8.313 1.425 9.049 1.584 8.741 1.891-.328.329-17.726-1.657-22.453-2.563-3.724-.714-4.395-.979-5.587-2.209-1.208-1.247-1.118-1.3 1.077-.634"/><path fill="#fbfbfb" d="M0 200v200h400V0H0zM201.059 59.729c.299.219.893 1.26 1.321 2.312l.776 1.914 5.519.067c49.895.604 82.818 2.435 87.652 4.875 10.899 5.502 26.264 27.203 38.283 54.07 4.217 9.426 4.468 9.912 5.416 10.472 2.146 1.267 3.219-1.21 3.546-8.181.526-11.202 1.677-12.819 9.076-12.746 14.342.142 23.009 4.205 25.224 11.826 1.961 6.743-2.782 10.081-17.585 12.378-8.453 1.312-8.379 1.27-9.884 5.536l-.494 1.401 5.189 6.873c3.77 4.994 6.758 8.511 10.93 12.869 14.162 14.791 15 16.682 17.141 38.678 1.167 11.992.075 65.069-1.654 80.383-.159 1.404-.376 5.423-.484 8.932-.915 29.829-1.964 32.194-14.524 32.729-7.34.313-21.856.309-26.475-.007-8.94-.612-11.135-4.169-11.159-18.08l-.005-2.902-3.748-.194c-2.062-.106-5.83-.512-8.374-.901-5.286-.809-10.431-.849-35.087-.273-51.288 1.197-108.196 1.195-163.796-.008-25.122-.543-30.233-.501-35.247.296-2.369.376-6.065.773-8.214.882l-3.908.197-.007 2.583c-.041 14.106-2.272 17.804-11.097 18.4-4.802.323-19.72.325-26.695.003-12.465-.577-13.355-2.612-14.523-33.204-.171-4.474-.443-9.426-.606-11.005-2.111-20.532-2.578-68.36-.812-83.094 2.096-17.485 3.158-19.648 16.279-33.169 4.854-5.002 6.783-7.306 13.029-15.563l3.445-4.553-.882-2.075c-1.455-3.424-1.4-3.393-7.96-4.425-14.925-2.346-19.386-4.751-19.342-10.429.067-8.698 9.437-13.859 25.567-14.083 7.065-.098 8.454 1.829 8.895 12.339l.233 5.537 1.085 1.791c.597.985 1.188 1.791 1.313 1.791 1.014 0 2.295-2.014 4.606-7.248 10.429-23.614 22.101-42.487 32.12-51.938 5.459-5.149 8.141-6.341 15.775-7.014 25.312-2.232 42.571-3.087 71.445-3.541l13.782-.216.568-1.579c.991-2.756 2.77-3.863 4.347-2.706m-20.676 13.19c-38.153.581-73.176 2.103-77.382 3.363-5.133 1.539-18.63 22.683-26.749 41.907-5.679 13.447-5.521 13.796 6.61 14.592 8.836.581 225.094.566 233.725-.016 10.445-.703 11.185-1.322 9.125-7.617-4.028-12.304-16.12-34.463-24.342-44.606-3.853-4.753-3.634-4.694-20.987-5.72-23.039-1.363-73.014-2.314-100-1.903M60.078 135.327c-7.906 8.596-18.115 26.432-17.205 30.058.277 1.104.827 1.012.827-.138 0-4.147 7.333-17.331 16.02-28.804 2.096-2.768 2.213-3.133.358-1.116m277.734-1.166c-.007.192.29.623.66.957.867.783 5.538 7.436 9.067 12.914 4.332 6.725 8.123 14.879 8.123 17.473 0 .922.579.869.816-.074.533-2.127-3.498-10.801-8.495-18.277-4.561-6.823-10.135-13.945-10.171-12.993M39.52 167.04c-3.566 2.213-6.755 12.155-7.197 22.434-.664 15.443 3.784 21.256 23.977 31.337 6.001 2.996 6.187 2.993 3.19-.053-2.024-2.057-3.278-2.993-6.061-4.526-11.161-6.148-15.865-10.661-17.586-16.87-1.621-5.849-.224-20.289 2.477-25.598.741-1.457.709-1.456 2.22-.091 3.695 3.338 12.515 5.786 45.423 12.606 10.662 2.209 17.121 3.491 37.004 7.343 15.383 2.98 30.635 4.862 49.601 6.119 8.02.531 45.341.528 53.429-.005 14.748-.972 30.931-2.685 39.713-4.205 23.776-4.114 63.021-12.183 78.341-16.105 9.328-2.389 12.632-3.684 14.866-5.826 1.755-1.683 2.947.278 4.22 6.946 3.58 18.742-.006 26.178-17.204 35.668-2.788 1.539-4.033 2.471-6.061 4.537-3.102 3.162-2.846 3.131 4.181-.507 18.773-9.719 22.842-14.714 22.859-28.059.019-15.727-5.714-29.362-10.31-24.52-3.235 3.409-9.15 5.838-25.821 10.602-18.597 5.315-49.029 12.554-61.881 14.72-38.822 6.542-86.644 7.129-128.611 1.577-13.773-1.822-40.413-7.751-65.169-14.503-21.402-5.838-28.066-8.322-31.747-11.833-1.914-1.826-2.523-2.014-3.853-1.188m319.944 10.598c-.625.845-.691 1.388-.78 6.459-.194 10.98-2.192 14.763-10.377 19.651-4.024 2.402-3.649 2.388-4.088.159-1.074-5.44-3.349-6.046-16.627-4.425-3.597.439-9.625 1.172-13.397 1.627a6632 6632 0 0 0-31.898 3.955c-2.72.347-6.523.815-8.453 1.039s-3.228.466-2.884.538c1.029.214 16.848-1.348 42.916-4.237 22.908-2.54 23.202-2.564 25.204-2.084 3.133.752 3.648 1.746 4 7.726l.202 3.421 2.442-1.319c13.768-7.438 16.824-12.797 15.687-27.51-.491-6.355-.648-6.758-1.947-5m-320.978-.139c-1.615 4.21-.85 17.126 1.261 21.293 1.848 3.646 13.292 12.372 16.227 12.372.091 0 .167-1.399.168-3.11.003-5.231.912-7.036 3.902-7.753 1.98-.475 3.214-.38 21.296 1.636 7.807.871 17.352 1.934 21.212 2.362 13.981 1.554 25.997 2.613 25.645 2.261-.165-.166-32.034-4.158-54.991-6.889-15.225-1.812-18.246-.982-18.328 5.034-.016 1.229.009 1.223-1.701.352-9.907-5.048-12.662-9.831-12.665-21.987-.002-4.447-.034-4.68-.74-5.343-.871-.818-1.047-.849-1.286-.228m7.464 6.373c-.545.656-.28 4.517.449 6.55 1.084 3.019 1.787 3.267 10.952 3.87 7.275.479 6.989.699 5.001-3.849-1.951-4.463-1.546-4.183-8.126-5.61-7.083-1.537-7.736-1.613-8.276-.961m298.936.956c-6.668 1.532-6.222 1.225-8.021 5.522-1.989 4.751-2.365 4.553 7.173 3.774 7.88-.643 8.482-1.067 9.417-6.632.783-4.658.496-4.747-8.569-2.664m-277.9 2.846c0 2.047 3.389 6.796 5.587 7.829 2.055.966 14.279 2.673 46.978 6.56 9.862 1.173 9.401 1.356 5.888-2.344l-2.472-2.603-6.061-1.118-11.324-2.088a6920 6920 0 0 1-28.92-5.407c-9.747-1.846-9.676-1.84-9.676-.829m260.287-.083c-1.667.339-7.624 1.477-13.238 2.528-5.614 1.052-12.432 2.333-15.151 2.846-2.72.513-7.815 1.454-11.324 2.091s-7.456 1.361-8.772 1.609l-2.392.451-2.481 2.612c-2.528 2.663-2.848 3.36-1.479 3.228 6.228-.602 51.243-6.384 52.463-6.739 2.662-.775 4.752-2.761 6.547-6.223 1.689-3.258 1.258-3.506-4.173-2.403m-59.032 12.865c-5.757 6.286-1.698 4.973-33.125 10.718-10.422 1.906-10.351 1.871-15.818 7.601-6.272 6.573-12.355 8.487-23.707 7.458-7.769-.704-10.072-1.857-16.307-8.168-5.405-5.471-4.094-4.995-22.984-8.336-21.598-3.819-19.534-3.067-25.073-9.139-2.392-2.622-4.418-4.698-4.502-4.614-.36.359 8.338 10.811 9.346 11.233 1.469.614 2.17.755 19.471 3.932 15.939 2.926 17.591 3.314 19.359 4.544 1.258.875 6.279 5.709 6.279 6.046 0 .135-16.112.301-35.805.369-41.481.143-41.435.14-47.489 3.307-10.407 5.445-38.655 46.233-37.847 54.647.574 5.976 12.805 12.18 26.404 13.393 32.045 2.859 191.233 2.853 226.157-.008 13.527-1.108 25.677-7.159 26.655-13.275.992-6.199-21.21-40.405-33.694-51.912-6.486-5.979-8.727-6.236-54.445-6.24-18.114-.001-32.934-.121-32.934-.265 0-.422 5.143-5.302 6.539-6.204 1.874-1.211 3.275-1.533 20.415-4.693 20.79-3.833 18.036-2.743 23.19-9.174 2.356-2.939 4.39-5.524 4.521-5.743.646-1.087-.484.023-4.606 4.523m-72.429 2.437c-8.477 1.246-13.605 6.51-11.936 12.252 2.639 9.079 21.622 11.326 29.389 3.479 7.757-7.838-3.306-17.809-17.453-15.731m2.387 1.5c-.899.723-1.957 2.874-2.219 4.509-.234 1.466-.148 1.431-2.353.958-5.661-1.214-4.017-4.734 2.669-5.714 2.579-.378 2.665-.366 1.903.247m5.469-.076c5.14.663 7.104 3.376 3.574 4.938-2.512 1.111-4.052 1.187-4.052.199 0-1.203-1.126-3.99-1.98-4.899l-.732-.779.798.168c.439.092 1.515.26 2.392.373m-2.958 2.94c.27.307.579.881.688 1.276.108.394.278 1.004.378 1.355.169.595.029.638-2.073.638-2.452 0-2.648-.2-1.963-2.003.657-1.728 2.045-2.32 2.97-1.266m-9.711 4.439c.952.421 2.343.849 3.091.952l1.36.186.197 2.122c.248 2.672.968 5.125 1.824 6.212l.661.842-.9-.004c-7.275-.031-13.493-7.207-10.784-12.446l.518-1 1.151 1.185c.633.652 1.93 1.53 2.882 1.951m21.861-1.956c2.454 5.146-3.718 12.27-10.631 12.27h-.844l.918-1.854c.686-1.383.976-2.537 1.142-4.546.213-2.562.261-2.696 1.021-2.788 2.242-.273 4.877-1.452 6.164-2.759 1.661-1.686 1.585-1.675 2.23-.323m-10.953 4.694c-.025 4.784-3.46 5.713-4.429 1.198-.567-2.645-.64-2.554 2.044-2.554h2.392zm-16.449 10.889c6.014 3.514 20.462 3.682 27.641.322l2.414-1.129 36.342.137c49.89.188 47.463-.386 59.02 13.943 14.185 17.588 26.078 37.745 24.712 41.883-1.086 3.292-10.038 8.215-17.724 9.748-19.922 3.972-214.16 4.122-235.814.182-7.197-1.31-16.592-6.11-18.075-9.235-1.731-3.648 3.822-14.291 17.47-33.487 11.991-16.864 17.49-21.405 27.208-22.467 4.939-.54 4.778-.537 41.081-.6l34.421-.059zM31.551 247.181c-3.268 1.044-5.153 5.867-7.805 19.964-1.501 7.982-1.22 9.985 1.698 12.102 3.626 2.632 24.175 11.91 24.86 11.225.074-.074-4.073-2.278-9.215-4.898-14.731-7.506-15.809-8.242-16.121-11.017-.498-4.42 4.188-22.891 6.211-24.482 1.49-1.172 10.618.008 21.228 2.743 2.733.705 9.297 2.011 9.431 1.878 1.446-1.446-27.107-8.53-30.287-7.515m333.042-.056c-4.815.427-22.457 4.911-25.598 6.507-2.138 1.086-1.276 1.145 3.031.207 26.155-5.697 25.849-5.69 27.809-.646 1.592 4.097 4.64 17.899 4.645 21.034.005 2.814-2.919 4.747-20.367 13.473-6.559 3.279-6.406 3.534.481.804 10.476-4.153 19.642-8.918 21.001-10.919 1.39-2.046.819-8.044-1.754-18.414-2.699-10.879-3.955-12.515-9.248-12.046m-275.738 4.199c-1.896 3.069 212.052 3.543 221.452.491 1.212-.393-.193-.82-2.13-.646-27.549 2.463-190.32 2.466-217.156.004-1.208-.111-2.04-.053-2.166.151m-53.879 4.328c-.268.698-.043.767 6.422 1.953 9.011 1.654 11.708 1.753 10.334.379-.934-.934-16.463-3.096-16.756-2.332m323.078.181a748 748 0 0 1-6.379 1.137c-3.549.612-4.307.889-4.307 1.574 0 .871 15.612-1.301 16.625-2.313 1.15-1.151-1.044-1.298-5.939-.398M84.45 258.718c-1.909 1.112-.829 1.434 6.778 2.02 39.735 3.064 219.399 2.302 223.845-.949 1.124-.822-.104-1.504-2.298-1.276-1.061.11-4.361.328-7.333.485-4.795.253-5.459.355-5.901.912-1.323 1.668-115.84 2.583-168.281 1.345-33.333-.787-31.117-.693-31.725-1.346-.478-.513-1.338-.64-6.106-.902-3.053-.168-6.196-.375-6.986-.46-.789-.085-1.686-.008-1.993.171m-51.155 2.989c-.266.693.067 1.026 1.227 1.228l6.626 1.159c6.401 1.12 6.969 1.159 7.227.486.338-.882.153-.934-8.416-2.376-6.595-1.11-6.433-1.098-6.664-.497m324.218.769c-6.593 1.238-6.829 1.314-6.526 2.104.262.683 1.065.63 7.324-.483 7.247-1.289 7.942-1.48 7.815-2.153-.162-.854-1.753-.756-8.613.532m-277.875 4.403c-.476.477-.179 1.378.506 1.532 14.435 3.258 185.287 4.108 226.395 1.126 12.373-.898 14.188-1.234 13.03-2.41-.823-.835-15.156.189-15.952 1.139-2.36 2.821-204.684 2.859-207.726.039-.59-.546-1.588-.69-7.853-1.134-8.19-.58-8.114-.577-8.4-.292m-47.964.938c-1.209.938.256 1.384 9.567 2.914 2.785.457 3.175.461 3.604.031.812-.812.005-1.105-5.93-2.16-3.07-.545-5.826-1.045-6.125-1.111-.299-.065-.801.081-1.116.326m329.389.6c-7.455 1.384-7.836 1.537-6.285 2.516 1.122.707 13.005-1.859 13.005-2.808 0-.342-.819-.946-1.063-.785-.029.02-2.575.504-5.657 1.077m-285.342 7.001c-1.227 3.199 40.046 4.787 124.279 4.781 86.651-.007 126.859-1.634 123.495-4.998-.702-.701-16.366.891-16.997 1.728-.49.649-.891.709-6.222.935-56.247 2.387-205.435 1.686-207.442-.975-.454-.602-1.08-.718-6.08-1.125-3.066-.25-6.755-.553-8.198-.674-2.311-.194-2.649-.155-2.835.328m298.709 15.514c-1.156.647-12.448 2.85-26.026 5.078-3.316.544-2.605.868 1.254.572 14.558-1.118 22.829-2.733 24.798-4.843.833-.892.82-1.281-.026-.807M25.194 292.02c1.192 1.23 1.863 1.495 5.587 2.209 4.727.906 22.125 2.892 22.453 2.563.308-.307-.428-.466-8.741-1.891-10.536-1.807-16.179-2.895-18.222-3.515-2.195-.666-2.285-.613-1.077.634"/></g></svg>