<svg xmlns="http://www.w3.org/2000/svg" width="400" height="400" viewBox="0 0 400 400"><g fill-rule="evenodd"><path fill="#050505" d="M198.771 31.044c-.215.259-.384 2.5-.438 5.821l-.087 5.4-6.061.066c-24.872.274-66.167 2.053-72.33 3.116-.484.084-1.213 0-1.62-.186-2.293-1.044-9.714 1.484-12.009 4.091-4.532 5.148-11.136 28.27-16.561 57.985-2.322 12.715-6.584 41.339-8.478 56.937-.458 3.772-1.03 7.22-1.271 7.662-1.028 1.882-3.529 14.503-4.487 22.639-.6 5.102-.594 5.299.179 6.073.743.743.461 2.534-.645 4.103-.663.94-1.635 8.504-2.26 17.578-.347 5.033-.416 5.381-1.573 7.974a47 47 0 0 0-3.073 9.41c-.692 3.235-1.026 22.725-.394 22.957.242.089 8.621.817 18.621 1.617 10 .801 19.186 1.573 20.415 1.717 4.553.532.209.317-12.634-.625-25.612-1.879-26.235-1.912-26.727-1.427-1.012.996-.348 72.057.723 77.448.612 3.079 1.856 5.436 3.366 6.375 1.725 1.073 27.18 1.12 28.61.052 2.401-1.793 2.856-3.633 3.378-13.65.464-8.912-.488-7.983 8.706-8.504 8.1-.459 7.953-.42 10.434-2.717l1.883-1.744h150.708l1.422 1.474c2.256 2.338 3.05 2.564 10.513 2.991 3.597.206 6.97.479 7.496.606l.957.232.392 6.998c.878 15.698.015 14.936 17.066 15.066 16.565.125 16.735.062 18.305-6.83.941-4.124 1.787-77.055.905-77.936-.232-.232-3.045-.14-9.25.305-13.554.971-26.017 1.887-30.415 2.235-2.174.173-4.327.295-4.784.272-1.899-.094 3.783-.595 35.832-3.16 4.55-.365 8.39-.735 8.532-.823.63-.389-.067-19.738-.843-23.408-.685-3.239-1.289-5.037-2.893-8.612-1.289-2.875-1.37-3.234-1.576-7.008-.545-9.999-1.866-19.467-2.715-19.467-.704 0-.859-2.686-.207-3.586 1.201-1.655-2.007-23.12-4.279-28.631-.378-.917-.946-4.375-1.57-9.57-1.493-12.412-4.652-34.024-7.064-48.325-5.535-32.813-13.218-60.31-18.2-65.135-2.45-2.373-9.03-4.489-11.396-3.665-.519.181-2.016.199-3.721.044-16.568-1.503-48.847-2.851-68.323-2.854l-8.054-.001V37.14c0-3.032-.141-5.547-.33-5.901-.378-.706-1.655-.821-2.175-.195m59.443 59.527c29.057.81 37.456 1.255 39.029 2.069 3.633 1.879 4.416 3.748 6.22 14.856 3.378 20.793 8.18 55.443 8.18 59.021 0 .624-.772.628-111.962.628-89.357 0-111.962-.08-111.961-.399 0-.219.65-5.494 1.444-11.722 4.011-31.449 7.93-56.332 9.217-58.51 1.054-1.783 2.623-3.22 4.33-3.966 2.165-.945 24.118-1.838 53.27-2.167 9.561-.108 17.456-.267 17.544-.352.267-.262 72.422.2 84.689.542M58.326 140.51c-7.899 1.269-9.142 3.263-10.309 16.54-.573 6.526-1.004 5.948 4.436 5.948 5.229 0 4.845-.14 4.697 1.724l-.116 1.45-4.673.088-4.674.088v4.841c0 7.94.906 8.438 15.471 8.517 9.776.053 10.526-.38 10.526-6.069v-2.983h2.871c1.579 0 2.872-.108 2.873-.239.001-.132.288-2.372.638-4.979s.636-4.94.636-5.184c0-.351-.702-.443-3.352-.443h-3.352l.189-8.214c.21-9.1.15-9.426-1.988-10.828-1.16-.761-9.743-.92-13.873-.257m269.266.215c-2.551 1.319-2.633 1.697-2.392 11.029l.208 8.055h-6.829l.177 1.196c.098.658.431 3.098.741 5.422l.563 4.227h5.618v2.983c0 5.702.727 6.116 10.686 6.085 14.327-.044 15.311-.593 15.311-8.532v-4.842l-4.705-.089-4.705-.088v-3.156l4.705-.088 4.705-.088-.09-2.552c-.61-17.353-2.606-19.744-16.816-20.144-5.549-.156-5.79-.136-7.177.582M87.879 203.489c12.759 2.436 25.036 4.813 26.714 5.172 1.534.327 2.489 2.822 1.081 2.822-1.122 0-37.409-6.59-37.876-6.878-.571-.353.469-2.993 1.122-2.848.366.081 4.397.861 8.959 1.732m233.596-.222c.432 1.6 1.925 1.206-18.445 4.871-18.158 3.267-18.607 3.345-19.136 3.345-.714 0-.466-2.469.269-2.681.289-.083 5.119-1.033 10.733-2.111a7576 7576 0 0 0 18.023-3.482c4.298-.838 7.909-1.436 8.024-1.329.116.106.355.731.532 1.387m-239.816 5.355c1.842.355 10.306 1.866 18.81 3.355 8.504 1.49 15.593 2.841 15.755 3.003.282.282 2.836 22.366 2.612 22.59-.209.209-21.608-3.111-30.479-4.729-11.618-2.119-11.73-2.264-11.373-14.659.224-7.75.458-10.208.972-10.208.195 0 1.862.292 3.703.648m240.619 3.419c.913 17.893.563 18.653-9.416 20.481-7.809 1.431-30.726 5.112-31.852 5.116-.6.002 1.686-21.87 2.358-22.566.212-.218 3.754-.983 7.871-1.698 12.525-2.177 26.878-4.763 28.059-5.057.614-.152 1.489-.292 1.945-.31l.828-.033zm-119.567.222c37.72-.01 70.483-.111 72.807-.224l4.227-.205v1.249c0 .902-.169 1.339-.609 1.575-2.169 1.16-157.896 1.175-158.978.015-.082-.088-.251-.78-.377-1.538l-.228-1.379 7.289.262c4.009.145 38.15.255 75.869.245m2.391 8.492c6.068 2.797 9.124 10.05 6.775 16.081-3.392 8.708-14.067 11.3-20.814 5.054-10.649-9.86.872-27.204 14.039-21.135m-7.494.592c-.602.138-.92.391-.856.68.14.634 2.658 6.462 2.926 6.772.199.229 3.193-6.387 3.193-7.056 0-.618-3.232-.861-5.263-.396m-5.135 2.498c-2.367 2.164-2.4 1.667.525 7.803 1.445 3.032 2.725 5.624 2.844 5.759s.737-.914 1.375-2.331l1.158-2.576 1.477.098 1.477.097.949 2.233c.522 1.228 1.052 2.337 1.177 2.464.243.246 5.476-10.594 5.476-11.343 0-.62-3.186-3.538-3.494-3.2-.138.152-1.085 2.179-2.104 4.503l-1.852 4.227h-3.326l-2.005-4.466c-2.291-5.101-1.978-4.822-3.677-3.268m-18.051.529c13.141.134 12.436.044 11.693 1.481l-.535 1.035-31.562-.171c-17.359-.093-31.607-.222-31.661-.287-.053-.064-.18-.649-.28-1.3l-.183-1.184 20.313.152c11.172.084 25.669.207 32.215.274m102.986.705c-.103.636-.26 1.229-.349 1.318s-14.341.235-31.672.325l-31.511.164-.548-1.15c-.721-1.516-3.373-1.366 25.906-1.466 14.299-.049 26.057-.147 26.13-.218s2.855-.129 6.182-.129h6.049zm-88.667 4.905c-1.096 4.061.982 9.203 4.724 11.687 2.365 1.571 2.414 1.795-1.262-5.786-2.725-5.622-3.282-6.57-3.462-5.901m18.5 5.97c-3.342 7.008-3.402 7.229-1.69 6.17 3.33-2.057 5.294-5.731 5.294-9.9 0-3.652-.166-3.48-3.604 3.73m-128.217-1.333c1.796.75 16.579 3.43 36.96 6.699.818.132 1.444.761 3.565 3.582 1.416 1.883 3.024 3.854 3.574 4.38l1 .957 8.194.188c17.758.408 142.108.114 143.035-.338.479-.234 2.188-2.161 3.799-4.284s3.023-3.97 3.14-4.106 2.93-.668 6.253-1.185a922 922 0 0 0 13.534-2.241c16.748-2.913 18.539-3.365 20.656-5.212l1.151-1.004-.619 1.059c-1.796 3.071-7.744 4.725-31.24 8.687-9.948 1.678-8.925 1.194-11.907 5.631-1.604 2.387-2.922 3.995-3.604 4.4-1.068.633-1.648.638-76.89.638h-75.814l-.901-.663c-.907-.668-1.563-1.497-4.645-5.876-1.974-2.803-.948-2.442-12.683-4.47-23.007-3.975-27.967-5.433-29.735-8.74-.258-.481-.029-.378.826.372.65.57 1.708 1.257 2.351 1.526m120.251 1.768c-.252.6-1.006 2.347-1.675 3.882-1.439 3.303-1.458 3.27 1.868 3.27 4.265 0 4.213.391.911-6.833l-.644-1.41zm-34.454-.025h20.22l.462 1.106c.254.608.462 1.252.462 1.431 0 .331-58.056.162-60.845-.178-1.165-.142-1.356-.271-1.356-.917 0-.414-.096-1.003-.214-1.309-.202-.526.382-.546 10.419-.346 5.848.117 19.731.213 30.852.213m111.036.877c-.134 1.616.07 1.598-17.803 1.637-8.158.018-21.562.128-29.788.245-8.945.128-14.906.097-14.831-.077.069-.159.332-.827.585-1.484l.461-1.194 24.099-.084c13.255-.046 27.087-.119 30.738-.162l6.638-.077zm-164.449 29.331c-.392.076-1.11.078-1.595.005-.485-.074-.164-.136.713-.138.878-.002 1.274.058.882.133"/><path fill="#fbfbfb" d="M0 200v200h400V0H0zM200.946 31.239c.189.354.33 2.869.33 5.901v5.284l8.054.001c19.476.003 51.755 1.351 68.323 2.854 1.705.155 3.202.137 3.721-.044 2.366-.824 8.946 1.292 11.396 3.665 4.982 4.825 12.665 32.322 18.2 65.135 2.412 14.301 5.571 35.913 7.064 48.325.624 5.195 1.192 8.653 1.57 9.57 2.272 5.511 5.48 26.976 4.279 28.631-.652.9-.497 3.586.207 3.586.849 0 2.17 9.468 2.715 19.467.206 3.774.287 4.133 1.576 7.008 1.604 3.575 2.208 5.373 2.893 8.612.776 3.67 1.473 23.019.843 23.408-.142.088-3.982.458-8.532.823-32.049 2.565-37.731 3.066-35.832 3.16.457.023 2.61-.099 4.784-.272 4.398-.348 16.861-1.264 30.415-2.235 6.205-.445 9.018-.537 9.25-.305.882.881.036 73.812-.905 77.936-1.57 6.892-1.74 6.955-18.305 6.83-17.051-.13-16.188.632-17.066-15.066l-.392-6.998-.957-.232c-.526-.127-3.899-.4-7.496-.606-7.463-.427-8.257-.653-10.513-2.991l-1.422-1.474H124.438l-1.883 1.744c-2.481 2.297-2.334 2.258-10.434 2.717-9.194.521-8.242-.408-8.706 8.504-.522 10.017-.977 11.857-3.378 13.65-1.43 1.068-26.885 1.021-28.61-.052-1.51-.939-2.754-3.296-3.366-6.375-1.071-5.391-1.735-76.452-.723-77.448.492-.485 1.115-.452 26.727 1.427 12.843.942 17.187 1.157 12.634.625-1.229-.144-10.415-.916-20.415-1.717-10-.8-18.379-1.528-18.621-1.617-.632-.232-.298-19.722.394-22.957a47 47 0 0 1 3.073-9.41c1.157-2.593 1.226-2.941 1.573-7.974.625-9.074 1.597-16.638 2.26-17.578 1.106-1.569 1.388-3.36.645-4.103-.773-.774-.779-.971-.179-6.073.958-8.136 3.459-20.757 4.487-22.639.241-.442.813-3.89 1.271-7.662 1.894-15.598 6.156-44.222 8.478-56.937 5.425-29.715 12.029-52.837 16.561-57.985 2.295-2.607 9.716-5.135 12.009-4.091.407.186 1.136.27 1.62.186 6.163-1.063 47.458-2.842 72.33-3.116l6.061-.066.087-5.4c.054-3.321.223-5.562.438-5.821.52-.626 1.797-.511 2.175.195m-27.421 58.79c-.088.085-7.983.244-17.544.352-29.152.329-51.105 1.222-53.27 2.167-1.707.746-3.276 2.183-4.33 3.966-1.287 2.178-5.206 27.061-9.217 58.51-.794 6.228-1.444 11.503-1.444 11.722-.001.319 22.604.399 111.961.399 111.19 0 111.962-.004 111.962-.628 0-3.578-4.802-38.228-8.18-59.021-1.804-11.108-2.587-12.977-6.22-14.856-1.573-.814-9.972-1.259-39.029-2.069-12.267-.342-84.422-.804-84.689-.542M72.199 140.767c2.138 1.402 2.198 1.728 1.988 10.828l-.189 8.214h3.352c2.65 0 3.352.092 3.352.443 0 .244-.286 2.577-.636 5.184s-.637 4.847-.638 4.979-1.294.239-2.873.239h-2.871v2.983c0 5.689-.75 6.122-10.526 6.069-14.565-.079-15.471-.577-15.471-8.517v-4.841l4.674-.088 4.673-.088.116-1.45c.148-1.864.532-1.724-4.697-1.724-5.44 0-5.009.578-4.436-5.948 1.008-11.465 1.942-13.754 6.373-15.605 3.405-1.423 15.946-1.9 17.809-.678m270.536.038c6.588 1.48 8.354 5.366 8.85 19.482l.09 2.552-4.705.088-4.705.088v3.156l4.705.088 4.705.089v4.842c0 7.939-.984 8.488-15.311 8.532-9.959.031-10.686-.383-10.686-6.085v-2.983h-5.618l-.563-4.227c-.31-2.324-.643-4.764-.741-5.422l-.177-1.196h6.829l-.208-8.055c-.241-9.332-.159-9.71 2.392-11.029 1.733-.897 11.013-.848 15.143.08m-264.809 62.24c-.181.79-.239 1.491-.128 1.56.467.288 36.754 6.878 37.876 6.878 1.408 0 .453-2.495-1.081-2.822-1.678-.359-13.955-2.736-26.714-5.172-4.562-.871-8.593-1.651-8.959-1.732-.566-.126-.715.067-.994 1.288m234.993.164a7576 7576 0 0 1-18.023 3.482c-5.614 1.078-10.444 2.028-10.733 2.111-.344.099-.567.588-.646 1.417-.144 1.511-.343 1.482 4.373.639 24.762-4.428 33.265-6.01 33.694-6.269.233-.14-.301-2.395-.641-2.709-.115-.107-3.726.491-8.024 1.329m-235.527 6.44c-.115.921-.299 4.761-.408 8.533-.357 12.395-.245 12.54 11.373 14.659 8.871 1.618 30.27 4.938 30.479 4.729.224-.224-2.33-22.308-2.612-22.59-.162-.162-7.251-1.513-15.755-3.003-8.504-1.489-16.968-3-18.81-3.355-1.841-.356-3.508-.648-3.703-.648s-.449.754-.564 1.675m241.906-1.332c-1.181.294-15.534 2.88-28.059 5.057-4.117.715-7.659 1.48-7.871 1.698-.672.696-2.958 22.568-2.358 22.566 1.126-.004 24.043-3.685 31.852-5.116 9.979-1.828 10.329-2.588 9.416-20.481l-.207-4.067-.828.033c-.456.018-1.331.158-1.945.31m-199.517 4.818c.126.758.295 1.45.377 1.538 1.082 1.16 156.809 1.145 158.978-.015.44-.236.609-.673.609-1.575v-1.249l-4.227.205c-6.258.304-140.18.285-148.676-.021l-7.289-.262zm76.79 6.795c-14.323 4.032-12.05 24.62 2.791 25.284 9.758.436 16.317-9.796 11.892-18.553-2.68-5.303-9.176-8.281-14.683-6.731m5.303 1.322c.548.11.997.331.997.491 0 .669-2.994 7.285-3.193 7.056-.268-.31-2.786-6.138-2.926-6.772-.165-.749 2.919-1.216 5.122-.775m-5.724 5.861 2.005 4.466h3.326l1.852-4.227c1.019-2.324 1.966-4.351 2.104-4.503.308-.338 3.494 2.58 3.494 3.2 0 .749-5.233 11.589-5.476 11.343-.125-.127-.655-1.236-1.177-2.464l-.949-2.233-1.477-.097-1.477-.098-1.158 2.576c-.638 1.417-1.256 2.466-1.375 2.331-1.089-1.236-5.425-11.337-5.074-11.819.495-.682 2.947-2.938 3.194-2.94.1 0 1.085 2.009 2.188 4.465m-74.073-1.981c.1.651.227 1.236.28 1.3s14.302.194 31.661.287l31.562.171.535-1.035c.294-.568.462-1.107.372-1.197-.172-.172-10.93-.308-44.28-.558l-20.313-.152zm143.287-1.08c-.073.071-11.831.169-26.13.218-29.279.1-26.627-.05-25.906 1.466l.548 1.15 31.511-.164c17.331-.09 31.583-.237 31.672-.325s.246-.682.349-1.318l.187-1.156h-6.049c-3.327 0-6.109.058-6.182.129m-70.026 18.66c-.276.312-3.724-2.334-4.579-3.515-1.366-1.886-2.243-4.469-2.238-6.593.01-4.09.184-3.935 3.682 3.281 1.787 3.684 3.197 6.756 3.135 6.827m15.507-10.488c0 4.169-1.964 7.843-5.294 9.9-1.712 1.059-1.652.838 1.69-6.17 3.438-7.21 3.604-7.382 3.604-3.73m-134.998.499c1.768 3.307 6.728 4.765 29.735 8.74 11.735 2.028 10.709 1.667 12.683 4.47 3.082 4.379 3.738 5.208 4.645 5.876l.901.663h75.814c75.242 0 75.822-.005 76.89-.638.682-.405 2-2.013 3.604-4.4 2.982-4.437 1.959-3.953 11.907-5.631 23.496-3.962 29.444-5.616 31.24-8.687l.619-1.059-1.151 1.004c-2.117 1.847-3.908 2.299-20.656 5.212a922 922 0 0 1-13.534 2.241c-3.323.517-6.137 1.05-6.253 1.185-.117.136-1.529 1.983-3.14 4.106s-3.32 4.05-3.799 4.284c-.927.452-125.277.746-143.035.338l-8.194-.188-1-.957c-.55-.526-2.158-2.497-3.574-4.38-2.121-2.821-2.747-3.45-3.565-3.582-31.556-5.062-37.007-6.202-39.311-8.225-.855-.75-1.084-.853-.826-.372m126.253 7.88c1.282 2.958 1.3 2.938-2.632 2.938-3.326 0-3.307.033-1.868-3.27a463 463 0 0 0 1.675-3.882l.46-1.091.644 1.41c.355.776 1.129 2.528 1.721 3.895m-78.55-4.106c.118.306.214.895.214 1.309 0 .646.191.775 1.356.917 2.789.34 60.845.509 60.845.178 0-.179-.208-.823-.462-1.431l-.462-1.106h-20.22c-11.121 0-25.004-.096-30.852-.213-10.037-.2-10.621-.18-10.419.346m115.03-.213-24.099.084-.461 1.194a69 69 0 0 1-.585 1.484c-.075.174 5.886.205 14.831.077 8.226-.117 21.63-.227 29.788-.245 17.873-.039 17.669-.021 17.803-1.637l.099-1.196-6.638.077c-3.651.043-17.483.116-30.738.162m-128.767 30.293c.485.073 1.203.071 1.595-.005.392-.075-.004-.135-.882-.133-.877.002-1.198.064-.713.138"/></g></svg>