<svg xmlns="http://www.w3.org/2000/svg" width="400" height="400" viewBox="0 0 400 400"><g fill-rule="evenodd"><path fill="#050505" d="M175.12 74c-22.308.55-38.746 1.511-57.098 3.339-2.544.253-5.368.517-6.276.587-8.061.615-19.222 16.107-32.565 45.2-2.284 4.98-3.947 8.804-8.877 20.415-2.05 4.829-1.682 4.642-4.214 2.132l-2.192-2.173-.314-5.323c-.46-7.816-.916-8.386-6.875-8.612-13.97-.529-26.102 5.994-24.494 13.168 1.508 6.731 5.032 8.419 19.779 9.479l5.263.379 1.818 1.57 1.819 1.569-1.258 1.667c-.692.916-2.471 3.766-3.953 6.334s-3.763 6.001-5.069 7.629c-7.401 9.23-8.74 12.145-9.433 20.531-1.398 16.922-1.563 60.165-.343 89.608 1.297 31.287 1.241 30.774 3.622 33.152 2.107 2.104 2.036 2.096 20.33 2.088 22.412-.009 21.702.401 21.911-12.641.114-7.058.115-7.067.911-7.815l.797-.749h223.216l.727.726c.702.701.732.966.893 7.974.183 7.956.348 8.68 2.436 10.661 1.967 1.868 1.791 1.851 19.659 1.851 23.682 0 22.178 1.188 23.021-18.181.271-6.228.646-14.626.833-18.661.53-11.425.748-58.249.33-70.718-.679-20.221-1.062-23.543-3.21-27.846-1.155-2.314-2.348-4.002-8.038-11.378-.993-1.286-2.901-4.255-4.24-6.597s-2.997-5.018-3.683-5.946l-1.247-1.688 1.818-1.568 1.819-1.569 5.423-.4c15.15-1.119 19.166-3.284 19.556-10.546.358-6.668-10.26-12.143-23.543-12.14-6.902.002-7.496.689-7.848 9.07l-.202 4.803-2.107 2.153c-1.159 1.185-2.198 2.153-2.31 2.153-.248 0-2.007-3.814-3.916-8.493-15.282-37.452-30.192-60.554-39.54-61.268-.909-.07-3.734-.335-6.278-.591C253.3 74.454 210.69 73.124 175.12 74m59.808 14.19c28.343.299 54.803 1.67 56.979 2.952 3.204 1.887 25.477 44.132 25.477 48.32 0 .883-.982 1.925-2.392 2.539-1.829.795-30.675.783-30.928-.013-.332-1.047-2.642-2.893-4.109-3.286l-1.379-.369-.562-4.972c-2.063-18.251-3.314-20.226-13.181-20.804-18.161-1.065-19.805.354-22.128 19.102-.51 4.122-.839 5.821-1.127 5.821-1.288 0-4.141 1.498-5.826 3.057l-1.866 1.728h-67.772l-1.866-1.728c-1.707-1.58-4.541-3.057-5.867-3.057-.466 0-.502-.18-1.139-5.742-2.063-17.991-3.139-19.183-17.335-19.211-14.888-.029-15.792 1.021-18.026 20.943l-.535 4.763-1.422.462c-1.879.609-3.308 1.706-3.814 2.927l-.41.991-14.868-.094c-20.531-.131-20.153.082-16.124-9.081 6.245-14.206 20.857-40.721 23.258-42.205 1.337-.826 3.405-1.046 16.436-1.749 16.76-.904 24.612-1.146 43.712-1.344l18.991-.198 2.265 3.858 2.264 3.857-1.638.164c-.901.091-2.708.247-4.016.346-4.006.305-5.583 1.881-5.357 5.352.29 4.451.487 4.507 16.506 4.639 20.921.173 21.999-.044 22.252-4.474.21-3.662-1.312-5.153-5.614-5.5-1.344-.109-3.11-.275-3.926-.369l-1.482-.172 1.923-3.404c2.606-4.614 2.474-4.522 6.243-4.351 1.701.077 9.982.213 18.403.302m-169.81 99.874c4.624.979 16.086 3.323 25.472 5.209l17.066 3.43 4.568 6.797c3.87 5.756 4.502 6.864 4.132 7.234-.868.868-14.209 2.747-19.546 2.752-5.254.005-11.208-.697-12.95-1.527-1.09-.52-1.154-.51-3.865.612-5.975 2.473-6.961 2.472-20.334-.024-8.121-1.515-8.772-2.578-9.158-14.967-.221-7.102-.161-7.611 1.078-9.084 2.276-2.705 2.734-2.719 13.537-.432m281.954-.743c2.504 1.925 2.611 2.358 2.404 9.649-.413 14.542-.345 14.473-16.921 16.922-6.659.983-7.382.916-12.168-1.128-3.404-1.455-3.399-1.454-4.409-.792-1.67 1.095-12.571 2.012-17.094 1.44-6.332-.802-14.849-2.3-15.235-2.68-.441-.433 1.249-3.271 6.177-10.376l2.518-3.631 16.268-3.279c8.948-1.803 20.288-4.14 25.2-5.193 10.715-2.298 11.42-2.347 13.26-.932m-293.493 2.961c-.813.981.41 12.949 1.603 15.676.902 2.061 2.363 2.557 11.59 3.936 6.043.903 7.328.843 11.418-.54 4.054-1.371 3.847-.842 2.474-6.324-1.105-4.414-1.064-5.127.28-4.797 1.265.31 1.488.657 2.459 3.84 2.198 7.197 1.874 6.916 8.623 7.486 4.489.379 5.515.332 18.421-.842 2.666-.243 2.672-.129-.227-4.467l-2.38-3.562-1.687-.34c-16.224-3.273-33.653-6.858-41.295-8.494-10.55-2.26-10.691-2.28-11.279-1.572m282.785 1.288c-11.133 2.415-43.441 9.068-44.039 9.068-.422 0-5.207 7.686-4.855 7.799.571.183 9.958 1.071 13.806 1.306 2.019.123 4.829.017 7.655-.289 5.454-.591 5.3-.459 7.187-6.163 1.516-4.585 1.601-4.741 2.761-5.032 1.395-.35 1.425.153.303 4.949-1.288 5.499-1.594 4.808 2.759 6.226 4.605 1.5 9.048 1.324 18.25-.722 4.72-1.049 4.993-1.535 6.061-10.783 1.082-9.369 1.814-8.898-9.888-6.359m-132.039 1.441c7.044 2.176 11.431 8.993 10.31 16.022-2.297 14.405-21.784 17.204-28.018 4.023-5.422-11.464 5.491-23.818 17.708-20.045m-135.266 2.737c8.169 1.696 7.815 1.458 7.815 5.249 0 5.674-2.199 6.59-12.243 5.1-6.425-.952-6.634-1.164-6.835-6.922l-.134-3.856.913-.718c1.081-.85.637-.898 10.484 1.147m272.461-.987c1.549 1.549.86 8.996-.941 10.162-1.767 1.145-11.697 2.149-14.529 1.469-2.514-.603-2.925-1.319-2.919-5.079.006-4.134-.534-3.761 8.192-5.651 9.056-1.961 9.131-1.967 10.197-.901m-143.686.098c-.577.108-1.065.314-1.085.457-.074.544 3.062 7.233 3.283 7.001.301-.317 3.158-6.703 3.158-7.06 0-.543-3.288-.787-5.356-.398m-6.449 3.142-1.673 1.539 2.788 6.051c1.534 3.329 2.894 6.166 3.023 6.307.128.14.781-.973 1.449-2.473l1.215-2.726h3.569l1.116 2.705c.987 2.396 1.594 3.317 1.594 2.42 0-.163 1.245-2.911 2.766-6.107 2.602-5.463 2.74-5.857 2.313-6.6-.446-.776-3.066-2.866-3.261-2.601-.055.074-1.047 2.216-2.206 4.76l-2.107 4.625-2.022.09-2.022.089-2.11-4.7c-2.464-5.491-2.284-5.354-4.432-3.379m-26.536 3.161c16.898.187 18.578.253 18.39.718-.114.282-.287 1.074-.385 1.761l-.177 1.248-24.884-.212c-13.686-.116-28.587-.211-33.113-.211h-8.229l-1.331-1.96-1.331-1.96 16.232.205c8.927.112 24.6.297 34.828.411m120.132 1.207c-1.494 2.251 1.766 2.041-35.539 2.287l-32.058.212-.396-1.692c-.218-.931-.358-1.731-.31-1.778.085-.086 45.092-.607 61.076-.707l8.377-.053zm-97.287 2.242c-1.092 4.353 1.814 10.647 5.89 12.755 1.279.661 1.47 1.229-2.198-6.555-3.634-7.713-3.407-7.333-3.692-6.2m22.695 2.088c-1.966 3.854-5.295 11.164-5.085 11.164 3.357 0 7.749-7.891 6.938-12.464l-.307-1.731zm-11.755 6.631c-2.721 5.953-2.777 5.632.987 5.642 4.234.011 4.142.173 2.285-4.029-2.036-4.605-1.928-4.552-3.272-1.613M72.181 244.656c22.158 2.533 22.21 2.545 20.177 4.454l-.783.736-11.577-1.319c-22.773-2.594-23.054-2.579-24.929 1.287-1.524 3.143-3.907 15.829-3.649 19.425.346 4.823 2.086 5.203 29.92 6.522 16.527.784 232.202.55 244.338-.264 24.753-1.662 23.962-1.236 22.345-12.036-1.313-8.775-2.547-13.321-4.071-15.009-2.116-2.342-1.919-2.341-22.363-.08l-13.181 1.458-.775-.728c-2.123-1.995-3.368-1.732 21.873-4.618 16.699-1.909 17.785-1.106 20.571 15.216 2.482 14.55 1.534 16.1-10.396 16.99-22.218 1.657-31.324 1.773-139.362 1.774-108.679.002-121.279-.169-142.265-1.931-10.126-.849-11.176-4.086-7.186-22.147 2.431-11.004 3.981-11.711 21.313-9.73m210.906 11.795c4.705.406 6.321 1.246 14.202 7.381 9.952 7.747 6.44 7.356 40.77 4.539 7.018-.576 7.657-.516 7.287.688-.292.949-7.41 1.725-29.557 3.223-12.942.875-12.289 1.069-21.088-6.25-7.988-6.644-8.861-7.232-11.611-7.811-5.527-1.163-164.469-.914-167.583.263-1.894.717-3.657 2.023-10.501 7.785-8.244 6.94-7.957 6.856-20.476 6.011-24.416-1.646-29.985-2.265-29.985-3.334 0-1.148.616-1.247 5.104-.82 9.397.894 26.197 2.114 29.665 2.154 4.607.052 5.283-.229 10.791-4.502 9.552-7.409 10.81-8.233 13.784-9.027 3.151-.842 159.72-1.119 169.198-.3m11.257 10.854c.398.637.318.638-94.391.638-94.769 0-94.789-.001-94.211-.638.574-.636.982-.638 94.39-.638 93.468 0 93.815.002 94.212.638"/><path fill="#fbfbfb" d="M0 200v200h400V0H0zM235.885 74.32c17.17.628 31.967 1.596 46.093 3.015 2.544.256 5.369.521 6.278.591 9.348.714 24.258 23.816 39.54 61.268 1.909 4.679 3.668 8.493 3.916 8.493.112 0 1.151-.968 2.31-2.153l2.107-2.153.202-4.803c.352-8.381.946-9.068 7.848-9.07 13.283-.003 23.901 5.472 23.543 12.14-.39 7.262-4.406 9.427-19.556 10.546l-5.423.4-1.819 1.569-1.818 1.568 1.247 1.688c.686.928 2.343 3.604 3.683 5.946s3.247 5.311 4.24 6.597c9.45 12.248 9.883 13.209 10.555 23.435 1.058 16.076 1.271 66.929.363 86.507-.187 4.035-.562 12.433-.833 18.661-.843 19.369.661 18.181-23.021 18.181-17.868 0-17.692.017-19.659-1.851-2.088-1.981-2.253-2.705-2.436-10.661-.161-7.008-.191-7.273-.893-7.974l-.727-.726H88.409l-.797.749c-.796.748-.797.757-.911 7.815-.209 13.042.501 12.632-21.911 12.641-18.294.008-18.223.016-20.33-2.088-2.381-2.378-2.325-1.865-3.622-33.152-1.22-29.443-1.055-72.686.343-89.608.693-8.386 2.032-11.301 9.433-20.531 1.306-1.628 3.587-5.062 5.069-7.629 1.482-2.568 3.261-5.418 3.953-6.334l1.258-1.667-1.819-1.569-1.818-1.57-5.263-.379c-14.747-1.06-18.271-2.748-19.779-9.479-1.608-7.174 10.524-13.697 24.494-13.168 5.959.226 6.415.796 6.875 8.612l.314 5.323 2.192 2.173c2.532 2.51 2.164 2.697 4.214-2.132 4.93-11.611 6.593-15.435 8.877-20.415 13.343-29.093 24.504-44.585 32.565-45.2.908-.07 3.732-.334 6.276-.587 32.516-3.239 79.159-4.433 117.863-3.019m-23.067 13.972c-.337.299-1.479 2.075-2.536 3.947l-1.923 3.404 1.482.172c.816.094 2.582.26 3.926.369 4.302.347 5.824 1.838 5.614 5.5-.253 4.43-1.331 4.647-22.252 4.474-16.019-.132-16.216-.188-16.506-4.639-.226-3.471 1.351-5.047 5.357-5.352 1.308-.099 3.115-.255 4.016-.346l1.638-.164-2.264-3.857-2.265-3.858-18.991.198c-19.1.198-26.952.44-43.712 1.344-13.031.703-15.099.923-16.436 1.749-2.401 1.484-17.013 27.999-23.258 42.205-4.029 9.163-4.407 8.95 16.124 9.081l14.868.094.41-.991c.506-1.221 1.935-2.318 3.814-2.927l1.422-.462.535-4.763c2.234-19.922 3.138-20.972 18.026-20.943 14.196.028 15.272 1.22 17.335 19.211.637 5.562.673 5.742 1.139 5.742 1.326 0 4.16 1.477 5.867 3.057l1.866 1.728h67.772l1.866-1.728c1.685-1.559 4.538-3.057 5.826-3.057.288 0 .617-1.699 1.127-5.821 2.323-18.748 3.967-20.167 22.128-19.102 9.867.578 11.118 2.553 13.181 20.804l.562 4.972 1.379.369c1.467.393 3.777 2.239 4.109 3.286.253.796 29.099.808 30.928.013 1.41-.614 2.392-1.656 2.392-2.539 0-4.188-22.273-46.433-25.477-48.32-2.176-1.282-28.636-2.653-56.979-2.952-8.421-.089-16.702-.225-18.403-.302-2.595-.117-3.192-.052-3.707.404M53.415 186.878c-2.911 1.775-3.162 2.697-2.912 10.702.386 12.389 1.037 13.452 9.158 14.967 13.373 2.496 14.359 2.497 20.334.024 2.711-1.122 2.775-1.132 3.865-.612 1.742.83 7.696 1.532 12.95 1.527 5.337-.005 18.678-1.884 19.546-2.752.37-.37-.262-1.478-4.132-7.234l-4.568-6.797-17.066-3.43c-9.386-1.886-20.848-4.23-25.472-5.209-9.222-1.953-10.271-2.059-11.703-1.186m280.397 1.375c-4.912 1.053-16.252 3.39-25.2 5.193l-16.268 3.279-2.518 3.631c-4.928 7.105-6.618 9.943-6.177 10.376.386.38 8.903 1.878 15.235 2.68 4.523.572 15.424-.345 17.094-1.44 1.01-.662 1.005-.663 4.409.792 4.786 2.044 5.509 2.111 12.168 1.128 16.576-2.449 16.508-2.38 16.921-16.922.207-7.291.1-7.724-2.404-9.649-1.84-1.415-2.545-1.366-13.26.932m-268.954 3.601c7.642 1.636 25.071 5.221 41.295 8.494l1.687.34 2.38 3.562c2.899 4.338 2.893 4.224.227 4.467-12.906 1.174-13.932 1.221-18.421.842-6.749-.57-6.425-.289-8.623-7.486-.971-3.183-1.194-3.53-2.459-3.84-1.344-.33-1.385.383-.28 4.797 1.373 5.482 1.58 4.953-2.474 6.324-4.592 1.552-8.27 1.43-18.104-.601-5.153-1.064-6.053-3.015-6.716-14.563-.303-5.265-1.269-5.069 11.488-2.336m281.49-1.679c.928.929-.437 13.755-1.733 16.279-.793 1.546-2.832 2.175-11.122 3.431-6.323.958-7.349.918-11.552-.451-4.353-1.418-4.047-.727-2.759-6.226 1.122-4.796 1.092-5.299-.303-4.949-1.16.291-1.245.447-2.761 5.032-1.887 5.704-1.733 5.572-7.187 6.163-2.826.306-5.636.412-7.655.289-3.848-.235-13.235-1.123-13.806-1.306-.352-.113 4.433-7.799 4.855-7.799.598 0 32.906-6.653 44.039-9.068 8.596-1.865 9.401-1.978 9.984-1.395m-151.167 2.927c-8.417 2.971-12.308 12.037-8.564 19.954 6.234 13.181 25.721 10.382 28.018-4.023 1.691-10.603-9.225-19.542-19.454-15.931m-136.606 1.499-.913.718.134 3.856c.201 5.758.41 5.97 6.835 6.922 10.044 1.49 12.243.574 12.243-5.1 0-3.791.354-3.553-7.815-5.249-9.847-2.045-9.403-1.997-10.484-1.147m272.748 1.061c-8.726 1.89-8.186 1.517-8.192 5.651-.009 5.515 2.932 6.484 13.871 4.57 4.66-.815 5.005-1.251 5.202-6.577.226-6.124.363-6.078-10.881-3.644m-129.613-.882c.814.112 1.48.326 1.48.477 0 .357-2.857 6.743-3.158 7.06-.221.232-3.357-6.457-3.283-7.001.074-.537 2.801-.832 4.961-.536m-5.893 6.6 2.11 4.7 2.022-.089 2.022-.09 2.107-4.625c1.159-2.544 2.151-4.686 2.206-4.76.195-.265 2.815 1.825 3.261 2.601.427.743.289 1.137-2.313 6.6-1.521 3.196-2.766 5.944-2.766 6.107 0 .897-.607-.024-1.594-2.42l-1.116-2.705h-3.569l-1.215 2.726c-.668 1.5-1.321 2.613-1.449 2.473s-1.489-2.978-3.023-6.307l-2.788-6.051 1.673-1.539c2.148-1.975 1.968-2.112 4.432 3.379m-80.697 1.126 1.331 1.96h8.229c4.526 0 19.427.095 33.113.211l24.884.212.177-1.248c.098-.687.271-1.479.385-1.761.188-.465-1.492-.531-18.39-.718-10.228-.114-25.901-.299-34.828-.411l-16.232-.205zm127.951-1.478c-14.469.156-26.346.322-26.393.37s.092.847.31 1.778l.396 1.692 32.058-.212c37.305-.246 34.045-.036 35.539-2.287l1.15-1.731-8.377.053c-4.607.029-20.214.18-34.683.337m-51.685 9.783c3.668 7.784 3.477 7.216 2.198 6.555-4.076-2.108-6.982-8.402-5.89-12.755.285-1.133.058-1.513 3.692 6.2m20.791-1.904c-.829 3.978-4.65 8.956-6.873 8.956-.21 0 3.119-7.31 5.085-11.164l1.546-3.031.307 1.731c.212 1.2.193 2.275-.065 3.508m-10.271 6.036c1.857 4.202 1.949 4.04-2.285 4.029-3.764-.01-3.708.311-.987-5.642 1.344-2.939 1.236-2.992 3.272 1.613M56.997 244.025c-3.821 1.146-5.795 6.104-7.743 19.452-1.496 10.253-.111 12.308 8.8 13.056 20.986 1.762 33.586 1.933 142.265 1.931 108.038-.001 117.144-.117 139.362-1.774 11.93-.89 12.878-2.44 10.396-16.99-2.786-16.322-3.872-17.125-20.571-15.216-25.241 2.886-23.996 2.623-21.873 4.618l.775.728 13.181-1.458c20.444-2.261 20.247-2.262 22.363.08 1.524 1.688 2.758 6.234 4.071 15.009 1.617 10.8 2.408 10.374-22.345 12.036-12.136.814-227.811 1.048-244.338.264-27.834-1.319-29.574-1.699-29.92-6.522-.258-3.596 2.125-16.282 3.649-19.425 1.875-3.866 2.156-3.881 24.929-1.287l11.577 1.319.783-.736c1.751-1.645 1.369-1.824-5.876-2.744-19.23-2.442-27.076-3.065-29.485-2.341m76.017 12.11c-22.855.305-19.665-.63-32.909 9.643-5.508 4.273-6.184 4.554-10.791 4.502-3.468-.04-20.268-1.26-29.665-2.154-4.488-.427-5.104-.328-5.104.82 0 1.069 5.569 1.688 29.985 3.334 12.519.845 12.232.929 20.476-6.011 6.844-5.762 8.607-7.068 10.501-7.785 3.114-1.177 162.056-1.426 167.583-.263 2.75.579 3.623 1.167 11.611 7.811 8.799 7.319 8.146 7.125 21.088 6.25 22.147-1.498 29.265-2.274 29.557-3.223.37-1.204-.269-1.264-7.287-.688-34.33 2.817-30.818 3.208-40.77-4.539-7.881-6.135-9.497-6.975-14.202-7.381-4.409-.381-125.999-.637-150.073-.316m-27.272 11.17c-.578.637-.558.638 94.211.638 94.709 0 94.789-.001 94.391-.638-.63-1.009-187.69-1.009-188.602 0"/></g></svg>