<svg xmlns="http://www.w3.org/2000/svg" width="400" height="400" viewBox="0 0 400 400"><g fill-rule="evenodd"><path fill="#050505" d="M198.416 64.732c-.181.339-.33 1.177-.33 1.862v1.246l-14.593.208c-25.398.361-45.698 1.329-65.311 3.113-7.989.727-8.894 1.003-12.143 3.709-8.443 7.03-25.886 36.791-35.948 61.334-.539 1.316-1.423 2.874-1.963 3.462l-.983 1.069-2.366-.192c-2.884-.235-2.61.169-2.249-3.317.308-2.974.035-7.37-.671-10.834-.886-4.344-3.901-5.278-13.13-4.068-11.286 1.48-17.788 5.725-17.788 11.615 0 2.663 1.716 3.632 9.091 5.134 3.003.612 3.238 1.023.478.838-2.988-.201-6.821-1.209-8.049-2.117-1.316-.973-1.332-.727-.122 1.78 2.699 5.589 4.99 6.502 21.31 8.493 4.704.573 8.552 1.137 8.552 1.253 0 .226-7.55 10.267-9.686 12.881-.717.877-3.603 3.965-6.415 6.862-7.539 7.769-12.012 13.735-13.098 17.469-2.074 7.134-2.865 24.642-2.028 44.887.181 4.386.383 20.822.447 36.524.224 54.101.842 57.847 9.737 59.001 3.095.401 26.546.402 29.655 0 6.403-.827 7.485-3.175 8.294-18 .191-3.503.379-6.399.417-6.437s4.501-.521 9.919-1.074l9.85-1.004 35.441.344c45.332.44 86.012.438 130.204-.005l35.114-.352 8.268.831c4.547.457 9.002.91 9.9 1.006l1.632.175.219 4.687c.797 17.109 1.689 19.062 9.083 19.866 4.403.479 29.362.211 31.196-.336 6.285-1.871 7.43-10.274 7.433-54.556.001-11.14.172-25.135.379-31.1 1.02-29.354.223-49.118-2.242-55.606-1.312-3.453-6.182-9.673-13.28-16.962-4.684-4.809-8.172-8.995-13.512-16.216-2.417-3.267-2.425-3.122.186-3.382 21.939-2.187 26.073-3.785 28.286-10.932l.218-.705-1.414.791c-1.662.929-6.397 2.042-8.669 2.038-2.19-.004-1.365-.389 2.655-1.24 6.705-1.419 7.754-2.125 7.772-5.238.038-6.593-10.375-11.687-23.889-11.687-6.295 0-7.578 2.145-7.567 12.648l.005 5.791-1.13.187c-3.997.661-4.466.188-8.186-8.259-13.801-31.336-30.218-57.124-38.134-59.902-4.738-1.662-41.93-3.839-72.913-4.268l-15.072-.209v-1.244c0-1.749-.47-2.479-1.595-2.479-.597 0-1.054.222-1.265.617m35.077 14.056c38.582.865 58.303 2.206 60.033 4.08 3.865 4.186 18.994 33.977 25.061 49.349 2.873 7.279 4.201 6.865-20.341 6.335-58.414-1.261-138.545-1.395-183.732-.306-34.048.821-34.749.805-35.265-.819-.938-2.959 21.971-48.88 27.214-54.549 1.83-1.979 22.684-3.312 65.626-4.193 11.256-.231 49.36-.167 61.404.103M54.874 184.374c8.178 2.149 23.068 5.857 32.675 8.136 5.858 1.39 10.635 2.691 11.228 3.057 2.315 1.431 8.674 9.167 11.125 13.534 1.731 3.084 1.197 3.65-5.963 6.323l-3.078 1.15-6.013-.638c-3.307-.351-7.807-.849-10-1.107-5.78-.68-6.007-.656-10.819 1.161l-4.332 1.636-4.466-.546c-5.597-.683-15.334-2.274-17.863-2.919-5.332-1.359-6.372-4.12-6.377-16.939l-.002-6.765 1.595-1.637c5.241-5.381 6.708-5.912 12.29-4.446m296.831.272c2.641 1.729 5.878 4.767 6.393 6.001.865 2.069.307 14.657-.838 18.909-1.05 3.9-4.14 4.957-21.056 7.204l-6.539.869-4.466-1.637c-5.259-1.929-4.481-1.894-15.165-.675-11.446 1.306-11.638 1.305-15.138-.083-6.049-2.398-6.816-2.936-6.418-4.498.6-2.351 9.096-13.032 11.918-14.983.91-.629 3.198-1.298 9.492-2.774 9.062-2.126 25.707-6.293 33.015-8.265 5.963-1.609 6.443-1.612 8.802-.068m-304.656 3.488c-4.461 3.154-4.456 3.137-3.643 11.866 1.001 10.76 1.171 10.923 13.532 13.039 10.203 1.746 11.941 1.869 14.546 1.03 2.864-.922 2.945-.88-3.423-1.783-14.182-2.01-18.203-2.889-19.601-4.287-2.037-2.037-3.944-14.758-2.128-14.202 1.234.379 1.453.75 1.832 3.111 1.076 6.686 2.026 8.485 4.915 9.307 4.817 1.371 41.724 6.544 46.691 6.544 1.345 0 6.571-1.495 7.679-2.197.573-.363.231-.996-2.521-4.661-5.611-7.474-5.847-7.624-15.295-9.722-10.54-2.342-27.693-6.508-33.174-8.057-6.68-1.889-6.72-1.889-9.41.012m299.681-1.172c-2.525 1.01-22.233 5.917-36.363 9.054-10.048 2.231-10.269 2.364-15.66 9.446-2.74 3.599-3.368 4.737-2.811 5.09 1.097.694 6.326 2.207 7.626 2.207 5.081-.001 40.695-4.978 46.571-6.508 2.92-.761 4.069-3.115 5.262-10.785.203-1.305.239-1.343 1.55-1.657l.911-.218-.217 2.327c-.826 8.878-1.754 11.853-4.038 12.951-1.449.696-8.382 2.002-18.119 3.412-3.058.443-5.615.86-5.682.928-.495.495 4.34 1.524 6.259 1.333 3.149-.315 15.476-2.354 17.71-2.93 4.679-1.206 5.483-3.08 6.292-14.671l.367-5.267-.921-.977c-3.059-3.244-6.396-4.671-8.737-3.735m-286.283 8.739c8.714 1.805 8.583 1.745 8.71 3.96.242 4.229-2.653 5.33-10.594 4.029-5.38-.881-6.389-1.845-6.403-6.113-.012-3.835-.567-3.709 8.287-1.876m286.019-.915c1.303 1.179.399 6.84-1.231 7.713-3.136 1.678-12.397 2.162-14.154.739-1.51-1.223-1.418-5.604.124-5.942.381-.084 3.564-.745 7.073-1.469 3.508-.724 6.439-1.373 6.512-1.442.304-.29 1.131-.092 1.676.401m-189.05 4.942c43.545.376 122.14.027 132.236-.588 3.489-.213 3.884.007 2.194 1.22-2.216 1.59-182.09 1.585-184.33-.006-1.649-1.171-1.276-1.427 1.771-1.215 1.559.108 23.217.373 48.129.589m-66.246 2.066c5.367.96 5.601 1.109 5.388 3.443-.227 2.494-1.762 2.926-7.342 2.064-3.894-.601-4.686-1.344-4.686-4.398 0-2.34-.127-2.319 6.64-1.109m223.39-.064c.408.894.128 3.332-.476 4.159-.995 1.359-9.527 2.381-10.738 1.285-.745-.674-.918-3.763-.236-4.205.501-.324 8.647-1.924 10.055-1.974.814-.03 1.121.132 1.395.735m-110.322 3.039c6.448 2.472 9.608 10.524 6.615 16.853-6.105 12.909-25.017 7.787-23.824-6.453.688-8.215 9.312-13.427 17.209-10.4m-6.949.543c-.351.095-.753.28-.892.412-.232.218 2.392 6.869 2.937 7.441.129.136.969-1.443 1.867-3.508s1.531-3.859 1.405-3.986c-.296-.3-4.49-.583-5.317-.359m-5.385 3.019-1.805 1.792 2.344 4.906c1.289 2.699 2.573 5.338 2.852 5.864l.507.957.317-.797c1.65-4.16 1.877-4.466 3.319-4.466l1.359.001 1.076 2.392c1.378 3.065 1.108 3.259 4.134-2.979 3.081-6.35 3.036-5.985.961-7.851-1.955-1.757-1.698-1.954-3.938 3.008-2.172 4.81-2.157 4.791-3.725 4.791-1.252 0-1.258-.006-2.27-2.313a174 174 0 0 0-2.171-4.705l-1.155-2.392zm-47.885 4.592c13.684.262 27.823.478 31.42.479 8.425.003 8.856.07 8.668 1.355l-.143.976-16.145-.206c-19.772-.252-45.983-.819-51.46-1.114l-4.055-.218.607-.957.607-.957 2.81.083c1.546.045 14.007.297 27.691.559m142.361.279.638 1.08-6.268.208c-12.416.412-31.154.81-48.25 1.024l-17.421.219-.143-.981c-.193-1.312.086-1.355 8.788-1.354 8.362.002 60.229-1.03 61.651-1.226.202-.028.654.435 1.005 1.03m-97.985 1.73c-.435 3.282 1.027 7.342 3.446 9.572 6.998 6.451 18.027 2.041 18.606-7.439.295-4.833-.131-4.518-3.784 2.792-1.819 3.641-3.445 6.574-3.614 6.518s-1.031-1.725-1.917-3.708l-1.61-3.606-1.73 3.707c-.951 2.039-1.851 3.707-1.999 3.707s-1.731-2.942-3.518-6.539c-3.569-7.184-3.587-7.208-3.88-5.004M56.938 248.156c12.26 2.114 18.541 3.447 20.176 4.281 3.035 1.549 4.318 3.975 3.092 5.85-1.973 3.018-15.625 18.915-16.675 19.417-1.595.762-10.11.55-18.236-.454l-1.754-.217-.098-1.518c-.127-1.981-.297-1.945 6.598-1.364 7.8.657 11.792.648 12.757-.028.798-.559 13.855-15.69 14.343-16.622 1.253-2.39-1.641-3.319-20.203-6.481-7.938-1.353-9.63-1.417-10.745-.409-3.585 3.242-6.975 27.548-4.387 31.456 3.078 4.647 5.541 5.307 26.456 7.09 16.749 1.427 20.414 1.858 20.414 2.4 0 2.198-38.788-.375-43.74-2.901-1.773-.905-4.161-3.179-5.449-5.19l-1.05-1.64.035-5.267c.064-9.69 2.544-23.53 4.901-27.359 1.664-2.703 3.242-2.825 13.565-1.044m296.655-.764c4.354 2.066 9.249 29.91 6.248 35.543-2.653 4.98-5.507 6.418-14.865 7.491-19.506 2.235-37.304 2.665-34.333.829.534-.33 5.017-.833 13.121-1.47 11.939-.94 25.031-2.382 27.367-3.014 2.629-.711 6.43-4.152 6.972-6.309.815-3.248-1.327-19.581-3.454-26.336-1.427-4.534-2.202-4.784-10.605-3.429-18.927 3.052-22.892 4.235-22.015 6.567.518 1.376 13.793 16.636 14.855 17.075 1.078.447 8.578.264 14.754-.36 3.95-.399 4.086-.338 3.948 1.776-.102 1.549.16 1.493-10.378 2.234-10.259.723-8.681 1.575-18.167-9.817-9.013-10.823-8.381-9.948-8.381-11.597 0-3.104 2.753-4.561 12.022-6.361 16.312-3.168 20.972-3.742 22.911-2.822m-212.445 9.711c37.937.41 80.164.379 118.661-.087 45.644-.552 42.666-.583 44.906.467 3.024 1.417 7.946 6.641 14.212 15.085 4.178 5.629 4.187 6.664.097 10.694-5.664 5.581 2.245 5.232-118.386 5.229-122.762-.003-114.93.344-120.545-5.335-4.395-4.445-4.236-5.238 2.842-14.148 9.744-12.268 10.384-12.615 22.807-12.365 4.561.092 20.494.299 35.406.46m-85.822 1.745c15.96 1.724 15.57 1.668 14.726 2.14-.611.342-4.401.056-15.808-1.193-3.937-.431-7.346-.784-7.575-.784s-.417-.215-.417-.478c0-.636.386-.623 9.074.315m297.784-.465c0 .535-5.639 1.269-19.726 2.567-3.735.344-6.092.044-3.845-.49 3.573-.849 23.571-2.611 23.571-2.077m-256.096.633c-2.912.613-5.667 3.118-11.769 10.702-6.821 8.478-6.996 9.346-2.603 12.932 4.961 4.049 1.4 3.93 117.358 3.936 105.345.005 110.078-.087 114.227-2.233 1.974-1.021 5.39-4.676 5.39-5.767 0-2.765-12.127-17.388-15.72-18.956-2.054-.896 3.272-.863-56.753-.344-43.913.379-129.232.122-145.23-.439-1.93-.068-4.135.009-4.9.169m-42.469 7.97c8.712.819 9.612.949 9.36 1.357-.304.492-18.917-.92-19.474-1.477-.508-.508.444-.891 1.782-.717.811.106 4.561.482 8.332.837m300.072-.43c.154.469-.759.61-9.003 1.39-7.352.696-10.367.793-10.367.335 0-.36.616-.445 10.208-1.416 8.186-.829 8.983-.856 9.162-.309M118.66 270.65c53.196.522 175.052.332 186.444-.291 2.153-.118 2.512-.088 1.435.119-8.623 1.658-200.889 1.66-213.716.003-1.428-.185-.285-.225 3.668-.131 3.158.076 13.134.211 22.169.3m-8.612 8.817c9.155.219 43.523.354 89.793.35 67.149-.004 86.43-.155 109.728-.859 6.804-.205 4.465.304-3.543.771-23.219 1.355-191.045 1.346-213.203-.011-8.085-.496-9.916-.955-3.03-.761 2.982.085 12.097.314 20.255.51"/><path fill="#fbfbfb" d="M0 200v200h400V0H0zM200.946 64.732c.181.339.33 1.177.33 1.862v1.244l15.072.209c30.983.429 68.175 2.606 72.913 4.268 7.916 2.778 24.333 28.566 38.134 59.902 3.72 8.447 4.189 8.92 8.186 8.259l1.13-.187-.005-5.791c-.011-10.503 1.272-12.648 7.567-12.648 13.514 0 23.927 5.094 23.889 11.687-.018 3.113-1.067 3.819-7.772 5.238-4.02.851-4.845 1.236-2.655 1.24 2.272.004 7.007-1.109 8.669-2.038l1.414-.791-.218.705c-2.213 7.147-6.347 8.745-28.286 10.932-2.611.26-2.603.115-.186 3.382 5.34 7.221 8.828 11.407 13.512 16.216 7.098 7.289 11.968 13.509 13.28 16.962 2.465 6.488 3.262 26.252 2.242 55.606-.207 5.965-.378 19.96-.379 31.1-.003 44.282-1.148 52.685-7.433 54.556-1.834.547-26.793.815-31.196.336-7.394-.804-8.286-2.757-9.083-19.866l-.219-4.687-1.632-.175c-.898-.096-5.353-.549-9.9-1.006l-8.268-.831-35.114.352c-44.192.443-84.872.445-130.204.005l-35.441-.344-9.85 1.004c-5.418.553-9.881 1.036-9.919 1.074s-.226 2.934-.417 6.437c-.809 14.825-1.891 17.173-8.294 18-3.109.402-26.56.401-29.655 0-8.895-1.154-9.513-4.9-9.737-59.001-.064-15.702-.266-32.138-.447-36.524-.837-20.245-.046-37.753 2.028-44.887 1.086-3.734 5.559-9.7 13.098-17.469 2.812-2.897 5.698-5.985 6.415-6.862 2.136-2.614 9.686-12.655 9.686-12.881 0-.116-3.848-.68-8.552-1.253-16.32-1.991-18.611-2.904-21.31-8.493-1.21-2.507-1.194-2.753.122-1.78 1.228.908 5.061 1.916 8.049 2.117 2.76.185 2.525-.226-.478-.838-8.659-1.764-10.548-3.548-8.627-8.146 2.894-6.928 24.941-12.358 29.272-7.21 1.436 1.707 2.37 8.513 1.853 13.509-.361 3.486-.635 3.082 2.249 3.317l2.366.192.983-1.069c.54-.588 1.424-2.146 1.963-3.462 12.061-29.417 30.855-59.732 39.478-63.675 3.932-1.798 40.291-4.002 73.924-4.481l14.593-.208v-1.246c0-1.749.47-2.479 1.595-2.479.597 0 1.054.222 1.265.617m-28.857 13.953c-42.942.881-63.796 2.214-65.626 4.193-5.243 5.669-28.152 51.59-27.214 54.549.516 1.624 1.217 1.64 35.265.819 45.187-1.089 125.318-.955 183.732.306 24.542.53 23.214.944 20.341-6.335-5.173-13.107-14.568-32.159-22.18-44.976-2.706-4.559-3.28-5.159-5.306-5.558-10.575-2.081-79.322-3.813-119.012-2.998M48.644 183.952c-1.478.794-4.298 3.058-6.06 4.868l-1.595 1.637.002 6.765c.005 12.819 1.045 15.58 6.377 16.939 2.529.645 12.266 2.236 17.863 2.919l4.466.546 4.332-1.636c4.812-1.817 5.039-1.841 10.819-1.161 2.193.258 6.693.756 10 1.107l6.013.638 3.078-1.15c7.16-2.673 7.694-3.239 5.963-6.323-2.451-4.367-8.81-12.103-11.125-13.534-.593-.366-5.37-1.667-11.228-3.057-9.607-2.279-24.497-5.987-32.675-8.136-4.156-1.091-4.889-1.141-6.23-.422m294.259.762c-7.308 1.972-23.953 6.139-33.015 8.265-6.294 1.476-8.582 2.145-9.492 2.774-2.822 1.951-11.318 12.632-11.918 14.983-.398 1.562.369 2.1 6.418 4.498 3.5 1.388 3.692 1.389 15.138.083 10.684-1.219 9.906-1.254 15.165.675l4.466 1.637 6.539-.869c16.916-2.247 20.006-3.304 21.056-7.204 1.145-4.252 1.703-16.84.838-18.909-.515-1.234-3.752-4.272-6.393-6.001-2.359-1.544-2.839-1.541-8.802.068m-286.444 3.408c5.481 1.549 22.634 5.715 33.174 8.057 9.448 2.098 9.684 2.248 15.295 9.722 2.752 3.665 3.094 4.298 2.521 4.661-1.108.702-6.334 2.197-7.679 2.197-4.967 0-41.874-5.173-46.691-6.544-2.889-.822-3.839-2.621-4.915-9.307-.379-2.361-.598-2.732-1.832-3.111-1.816-.556.091 12.165 2.128 14.202 1.398 1.398 5.419 2.277 19.601 4.287 6.368.903 6.287.861 3.423 1.783-2.605.839-4.343.716-14.546-1.03-12.361-2.116-12.531-2.279-13.532-13.039-.813-8.729-.818-8.712 3.643-11.866 2.69-1.901 2.73-1.901 9.41-.012m295.883.039c1.212.857 2.618 1.998 3.125 2.536l.921.977-.367 5.267c-.809 11.591-1.613 13.465-6.292 14.671-2.234.576-14.561 2.615-17.71 2.93-1.919.191-6.754-.838-6.259-1.333.067-.068 2.624-.485 5.682-.928 9.737-1.41 16.67-2.716 18.119-3.412 2.284-1.098 3.212-4.073 4.038-12.951l.217-2.327-.911.218c-1.311.314-1.347.352-1.55 1.657-1.193 7.67-2.342 10.024-5.262 10.785-5.876 1.53-41.49 6.507-46.571 6.508-1.3 0-6.529-1.513-7.626-2.207-.557-.353.071-1.491 2.811-5.09 5.391-7.082 5.612-7.215 15.66-9.446 14.13-3.137 33.838-8.044 36.363-9.054 1.867-.746 3.292-.442 5.612 1.199m-299.751 6.625c-1.357 1.635-.159 6.977 1.77 7.892 2.702 1.282 11.639 1.87 13.478.886 1.604-.858 1.915-5.271.423-6.013-.642-.319-14.305-3.316-15.033-3.298-.11.003-.397.243-.638.533m292.199-.401c-.073.069-3.004.718-6.512 1.442-3.509.724-6.692 1.385-7.073 1.469-1.542.338-1.634 4.719-.124 5.942 1.757 1.423 11.018.939 14.154-.739 1.63-.873 2.534-6.534 1.231-7.713-.545-.493-1.372-.691-1.676-.401m-238.195 4.987c.079.236.494.678.921.982 2.24 1.591 182.114 1.596 184.33.006 1.69-1.213 1.295-1.433-2.194-1.22-15.151.923-167.1.922-180.365-.001-2.3-.16-2.808-.116-2.692.233m-21.853 1.798c-.888.888.028 4.67 1.289 5.319 1.997 1.027 8.717 1.536 9.803.742.75-.549 1.053-3.336.443-4.081-.66-.808-10.942-2.573-11.535-1.98m223.073.702c-5.233 1.02-5.104.943-5.104 3.042 0 2.584.492 2.881 4.383 2.648 5.782-.348 7.215-1.034 7.606-3.643.482-3.217-.06-3.378-6.885-2.047m-111.665 2.373c-4.887 1.38-8.705 5.954-9.121 10.924-1.193 14.24 17.719 19.362 23.824 6.453 4.468-9.448-4.645-20.218-14.703-17.377m6.456 1.426c.126.127-.507 1.92-1.405 3.986-.898 2.065-1.738 3.644-1.867 3.508-.545-.572-3.169-7.223-2.937-7.441.645-.608 5.619-.65 6.209-.053m-5.571 7.965c1.012 2.307 1.018 2.313 2.27 2.313 1.568 0 1.553.019 3.725-4.791 2.24-4.962 1.983-4.765 3.938-3.008 2.075 1.866 2.12 1.501-.961 7.851-3.026 6.238-2.756 6.044-4.134 2.979l-1.076-2.392-1.359-.001c-1.442 0-1.669.306-3.319 4.466l-.317.797-.507-.957c-.279-.526-1.563-3.165-2.852-5.864l-2.344-4.906 1.805-1.792 1.805-1.792 1.155 2.392a174 174 0 0 1 2.171 4.705m-84.124-.398-.607.957 4.055.218c5.477.295 31.688.862 51.46 1.114l16.145.206.143-.976c.188-1.285-.243-1.352-8.668-1.355-5.631-.002-51.015-.799-59.111-1.038l-2.81-.083zm161.73-.769c-22.283.531-44.182.93-50.917.929-8.702-.001-8.981.042-8.788 1.354l.143.981 17.421-.219c17.096-.214 35.834-.612 48.25-1.024l6.268-.208-.638-1.08c-.351-.595-.803-1.058-1.005-1.03s-5.032.161-10.734.297m-82.366 7.467c1.787 3.597 3.37 6.539 3.518 6.539s1.048-1.668 1.999-3.707l1.73-3.707 1.61 3.606c.886 1.983 1.748 3.652 1.917 3.708s1.795-2.877 3.614-6.518c3.653-7.31 4.079-7.625 3.784-2.792-.804 13.175-19.48 14.143-21.929 1.137-.319-1.698-.129-4.805.295-4.805.118 0 1.676 2.943 3.462 6.539m-147.222 27.59c-3.296 2.009-6.495 16.125-6.581 29.033l-.035 5.267 1.05 1.64c1.288 2.011 3.676 4.285 5.449 5.19 4.952 2.526 43.74 5.099 43.74 2.901 0-.542-3.665-.973-20.414-2.4-20.915-1.783-23.378-2.443-26.456-7.09-2.588-3.908.802-28.214 4.387-31.456 1.115-1.008 2.807-.944 10.745.409 18.562 3.162 21.456 4.091 20.203 6.481-.488.932-13.545 16.063-14.343 16.622-.965.676-4.957.685-12.757.028-6.895-.581-6.725-.617-6.598 1.364l.098 1.518 1.754.217c8.126 1.004 16.641 1.216 18.236.454 1.05-.502 14.702-16.399 16.675-19.417 2.171-3.322-1.349-5.977-10.269-7.744-17.319-3.431-23.063-4.127-24.884-3.017m297.69.477c-20.897 3.605-24.083 4.739-24.083 8.572 0 1.649-.632.774 8.381 11.597 9.486 11.392 7.908 10.54 18.167 9.817 10.538-.741 10.276-.685 10.378-2.234.138-2.114.002-2.175-3.948-1.776-6.176.624-13.676.807-14.754.36-1.062-.439-14.337-15.699-14.855-17.075-.877-2.332 3.088-3.515 22.015-6.567 8.403-1.355 9.178-1.105 10.605 3.429 2.127 6.755 4.269 23.088 3.454 26.336-.542 2.157-4.343 5.598-6.972 6.309-2.336.632-15.428 2.074-27.367 3.014-8.104.637-12.587 1.14-13.121 1.47-2.971 1.836 14.827 1.406 34.333-.829 9.358-1.073 12.212-2.511 14.865-7.491 2.231-4.188-.965-28.824-4.393-33.868-1.699-2.5-3.506-2.651-12.705-1.064m-246.289 8.735c-3.627.954-6.869 3.897-13.519 12.27-7.078 8.91-7.237 9.703-2.842 14.148 5.615 5.679-2.217 5.332 120.545 5.335 120.631.003 112.722.352 118.386-5.229 4.09-4.03 4.081-5.065-.097-10.694-6.266-8.444-11.188-13.668-14.212-15.085-2.24-1.05.738-1.019-44.906-.467-48.278.584-114.566.423-154.067-.373-4.562-.092-8.741-.049-9.288.095m-50.202 1.795c0 .263.187.478.417.478s3.638.353 7.575.784c11.407 1.249 15.197 1.535 15.808 1.193.844-.472 1.234-.416-14.726-2.14-8.688-.938-9.074-.951-9.074-.315m293.78.675c-10.891 1.198-11.408 1.282-10.921 1.769.689.689 23.999-1.83 23.999-2.594 0-.501-2.427-.348-13.078.825m-187.944.129c36.907.29 56.786.279 95.056-.051 60.025-.519 54.699-.552 56.753.344 3.593 1.568 15.72 16.191 15.72 18.956 0 1.091-3.416 4.746-5.39 5.767-4.149 2.146-8.882 2.238-114.227 2.233-115.958-.006-112.397.113-117.358-3.936-4.393-3.586-4.218-4.454 2.603-12.932 8.143-10.121 9.669-11.116 16.669-10.871 1.93.068 24.508.288 50.174.49m-107.581 6.996c-.382.618-.161.665 6.096 1.304 8.457.863 13.054 1.107 13.302.706.252-.408-.648-.538-9.36-1.357-3.771-.355-7.521-.731-8.332-.837-.976-.127-1.553-.065-1.706.184m300.948.532c-9.592.971-10.208 1.056-10.208 1.416 0 .458 3.015.361 10.367-.335 8.244-.78 9.157-.921 9.003-1.39-.179-.547-.976-.52-9.162.309m-252.632 3.616c12.827 1.657 205.093 1.655 213.716-.003 1.077-.207.718-.237-1.435-.119-14.443.79-175.577.784-208.613-.009-3.953-.094-5.096-.054-3.668.131m-7.177 8.599c10.589 2.29 217.25 2.3 227.716.011.88-.193-.367-.236-3.793-.133-23.298.704-42.579.855-109.728.859-67.888.005-83.843-.12-110.048-.86-3.446-.097-4.958-.052-4.147.123"/></g></svg>