<svg xmlns="http://www.w3.org/2000/svg" width="400" height="400" viewBox="0 0 400 400"><g fill-rule="evenodd"><path fill="#050505" d="M120.545 67.481c-2.024.624-4.02 2.493-5.691 5.331-1.243 2.111-1.571 2.447-2.711 2.784-5.526 1.632-9.67 5.853-14.719 14.994-6.508 11.783-13.899 29.067-20.936 48.963-2.789 7.885-4.426 10.205-9.658 13.687-1.493.993-2.965 2.196-3.271 2.672-.305.477-2.861 3.163-5.68 5.97-8.436 8.402-9.228 10.414-10.735 27.273-.501 5.603-.484 73.768.025 101.595.472 25.747-1.636 23.512 22.05 23.377l16.108-.092 1.358-.778c3.093-1.771 3.339-2.843 3.561-15.49l.185-10.526 8.317-.212c9.548-.243 10.066-.36 11.673-2.64l1.026-1.454 88.535.01 88.535.01.827 1.365c1.397 2.304 1.921 2.425 11.677 2.689l8.548.232.188 10.526c.112 6.294.329 10.948.539 11.574.585 1.744 1.633 3.186 2.878 3.96l1.18.734 16.033.091c17.271.098 17.845.053 19.657-1.537 2.901-2.548 3.057-6.443 3.166-78.777.091-60.96.129-60.722-11.498-72.322-3.029-3.023-5.508-5.634-5.508-5.804s-1.289-1.191-2.865-2.27c-5.491-3.761-7.089-6.103-10.219-14.979-5.979-16.952-11.661-30.529-17.821-42.584-6.902-13.508-10.186-17.457-16.584-19.943-1.953-.758-2.146-.929-3.422-3.03-3.58-5.893-8.819-7.546-12.887-4.064-1.763 1.509-1.688 1.58 1.929 1.839 3.387.242 3.752.408 4.628 2.102l.479.927h-1.045c-.574 0-2.552-.14-4.394-.31-42.925-3.975-112.135-3.843-150.877.287-2.906.31-2.827.371-1.699-1.313l.921-1.375 3.26-.283c3.693-.32 3.719-.345 2.006-1.892-1.962-1.773-4.222-2.194-7.069-1.317m108.961 14.816c35.017.638 59.377 2.014 63.13 3.564 1.051.434 3.646 5.551 9.328 18.39 5.228 11.812 13.825 33.084 13.825 34.206 0 .285-1.732.325-7.097.163-45.122-1.362-157.998-1.451-210.725-.166-7.434.181-13.591.254-13.683.163-.386-.386 8.399-22.322 13.74-34.311 5.842-13.113 8.28-17.972 9.236-18.408 5.804-2.644 70.367-4.546 122.246-3.601M60.128 123.339c-13.931 1.711-22.409 6.434-21.702 12.09.297 2.379.109 2.324 8.39 2.433l7.397.097.877.877.876.877H39.582l.442 1.253c1.399 3.964 3.054 4.481 16.914 5.28 5.262.303 5.004.19 7.027 3.078l1.785 2.547.957-.606c1.741-1.102 3.62-2.824 4.555-4.173l.922-1.33-1.146-2.467c-1.083-2.328-1.128-2.555-.81-4.061.519-2.455.506-11.188-.019-13.006-.845-2.926-3.526-3.694-10.081-2.889m271.425.152c-2.129 1.033-3.014 9.131-1.737 15.899.24 1.273.145 1.703-.856 3.893l-1.125 2.462 1.214 1.654c1.281 1.744 4.782 4.56 5.284 4.249.162-.1.952-1.179 1.754-2.397 1.83-2.778 1.688-2.714 6.656-2.982 14.072-.758 15.819-1.296 17.233-5.303l.442-1.253h-16.384l.876-.877.877-.877 7.569-.16 7.569-.159.381-1.117c1.925-5.646-5.692-10.848-18.673-12.754-4.621-.678-9.977-.813-11.08-.278M61.967 173.342c1.795.264 10.441 1.204 19.213 2.089 18.186 1.834 27.455 2.824 28.414 3.036.777.171 5.11 13.713 4.792 14.98-.458 1.826-1.442 1.868-15.148.64-11.624-1.041-10.771-.526-12.909-7.801-1.554-5.291-1.542-5.585.221-5.254 1.516.284 1.557.35 2.911 4.699.878 2.821 1.355 3.876 1.923 4.248.941.616 19.762 2.359 20.229 1.873.293-.306-2.231-8.946-2.745-9.394-.14-.123-2.911-.456-6.157-.741-31.998-2.807-43.447-4.017-45.982-4.859l-1.546-.514v-1.498c0-2.308.639-3 2.245-2.434.701.248 2.744.666 4.539.93m282.85 1.327c0 2.763.987 2.594-34.131 5.861-7.456.694-14.889 1.36-16.517 1.481-3.475.257-3.08-.177-4.745 5.23-1.627 5.283-1.908 4.987 4.268 4.492 16.664-1.336 15.204-.813 16.846-6.039 1.382-4.398 1.46-4.514 3.058-4.514 1.521 0 1.523-.23-.037 5.231-2.116 7.407-.464 6.655-17.929 8.17-11.353.985-11.122 1.219-8.214-8.336 1.087-3.575 2.048-6.753 2.135-7.062.234-.829-2.251-.51 29.269-3.761 17.228-1.777 21.174-2.293 23.923-3.13 1.309-.399 2.074.477 2.074 2.377m-58.229 4.996c-.124.57-.348 1.36-.496 1.754l-.271.718h-77.549l-1.504-.754c-3.693-1.85-9.105-1.989-12.829-.329l-2.073.924-38.843.082-38.842.082-.336-.88a13 13 0 0 1-.511-1.756l-.176-.878h173.655zm-228.176.266c.379.198.619 1.111.894 3.392.853 7.069 1.312 8.473 2.997 9.177 1.633.683 24.241 3.169 41.232 4.534 7.629.613 7.46.555 5.156 1.79-3.126 1.676-2.739 1.685-25.756-.589-28.575-2.823-27.433-2.16-27.433-15.919 0-3.218.513-3.638 2.91-2.385m286.033.933c.166 2.23-.58 10.534-1.044 11.621-1.052 2.468-2.817 3.198-9.666 4-14.804 1.735-38.432 3.905-39.565 3.634-.947-.226-4.527-2.09-4.533-2.359-.002-.092 3.863-.49 8.59-.884 9.637-.804 28.427-2.669 34.417-3.417 4.646-.58 5.887-1.029 6.587-2.384.414-.8 1.758-8.978 1.758-10.695 0-.413 1.972-1.101 2.871-1.002.328.037.512.504.585 1.486m-272.675.478c8.952.873 8.205.719 8.571 1.77.636 1.823-.599 6.686-1.817 7.156-.683.264-6.879.24-9.766-.038-3.29-.316-4.324-1.879-4.324-6.535 0-3.129-.145-3.082 7.336-2.353m263.352.077c.995 1.311.168 7.13-1.152 8.108-1.79 1.327-12.415 1.405-13.271.098-1.361-2.077-1.593-7.434-.325-7.509.198-.012 2.872-.279 5.942-.595 7.543-.774 8.289-.782 8.806-.102m-130.78 1.568c12.113 4.055 11.799 21.529-.455 25.314-11.171 3.451-21.078-8.151-15.902-18.623 3.006-6.082 9.833-8.875 16.357-6.691m-6.655 1.611c-.482.074-.877.193-.877.265 0 .205 2.872 6.632 3.037 6.797.171.171 2.591-4.97 2.878-6.113.266-1.063-1.76-1.445-5.038-.949m6.146 5.846-2.008 4.452h-3.762l-.619-1.444c-3.064-7.148-3.427-7.637-4.783-6.439-2.194 1.938-2.243 1.423.74 7.848l2.684 5.78 1.044-2.394 1.043-2.394 1.791.004 1.791.004.903 2.229c1.172 2.895.946 3.09 3.971-3.414l2.625-5.643-.878-.925c-.484-.509-1.251-1.193-1.707-1.521l-.828-.595zm-18.932.123c-.096.251-.271.969-.388 1.595l-.214 1.139h-66.814l-.369-1.233c-.203-.678-.37-1.396-.37-1.595 0-.267 8.91-.361 34.165-.361 29.483 0 34.141.062 33.99.455m98.353-.094c0 .199-.167.917-.37 1.595l-.369 1.233h-66.809l-.357-1.417c-.196-.779-.357-1.497-.357-1.595s15.359-.177 34.131-.177c25.229 0 34.131.094 34.131.361m-94.418 4.89c0 3.07.848 5.368 2.77 7.506 1.482 1.648 3.551 3.055 3.217 2.187-.904-2.35-5.507-12.074-5.716-12.074-.149 0-.271 1.072-.271 2.381m19.009 3.519c-3.091 6.569-3.198 7.092-1.135 5.527 2.699-2.049 4.46-5.614 4.449-9.012-.009-3.1-.416-2.672-3.314 3.485m-148.196-.654c2.881.846 18.623 2.591 44.989 4.986l4 .363 3.848-1.151 3.848-1.15 34.417.003 34.416.002.843 1.592.843 1.593h-69.334l-4.294 1.301c-4.8 1.455-3.656 1.421-14.66.429-23.192-2.09-37.433-3.791-39.232-4.684-1.451-.721-2.874-2.77-2.874-4.139 0-.522.069-.534.718-.119.395.252 1.507.691 2.472.974m283.2 1.07c-1.468 2.958-3.608 3.332-37.107 6.471-15.018 1.408-14.517 1.412-19.615-.186l-3.563-1.117h-69.417l.843-1.593.843-1.592 34.313-.002 34.313-.003 3.943 1.156 3.944 1.155 3.689-.354c2.029-.195 9.072-.868 15.651-1.495 24.601-2.348 31.009-3.265 32.368-4.635.663-.669.536.703-.205 2.195m-144.551 3.48c-1.698 3.862-1.728 3.662.571 3.853 4.277.355 4.463.08 2.69-3.965-1.683-3.836-1.523-3.841-3.261.112M76.396 223.286c25.696 2.609 30.446 3.486 33.494 6.18 2.034 1.797 1.908 1.88-2.271 1.489l-11.925-1.12c-33.086-3.11-32.305-3.091-34.45-.843-2.893 3.034-6.041 25.411-4.062 28.873 1.513 2.645 1.207 2.597 27.865 4.362 7.757.513 6.575 1.089 16.084-7.832 14.882-13.963 16.038-14.912 19.712-16.181l2.124-.734h154.385l1.81.692c3.676 1.406 4.831 2.338 16.513 13.315 13.574 12.757 10.343 11.348 23.915 10.423 22.232-1.517 21.755-1.434 23.228-4.033 2.082-3.677-1.41-26.78-4.433-29.323-2.09-1.759-2.318-1.747-44.079 2.235-6.076.58-6.153.563-4.651-.988 1.722-1.778 4.43-2.913 8.272-3.465 10.03-1.442 34.231-4.007 37.805-4.007 5.225 0 7.359 3.436 9.232 14.867 3.558 21.721 2.243 26.382-7.683 27.235-9.426.81-27.676 1.904-28.79 1.726-2.228-.356-3.971-1.723-13.015-10.207-13.74-12.89-14.707-13.656-18.5-14.644-2.245-.585-150.169-.735-153.225-.155-4.311.817-5.146 1.482-23.325 18.561-5.318 4.996-6.812 6.083-8.894 6.467-.935.172-17.14-.8-28.763-1.726-9.999-.796-11.378-5.7-7.72-27.451 2.546-15.138 3.201-15.558 21.347-13.716m3.339 16.131c6.749.444 12.338.875 12.42.957.082.083-.449.76-1.181 1.506l-1.331 1.356-3.594-.243c-1.976-.134-7.776-.532-12.889-.884-5.113-.353-9.599-.642-9.968-.642-.712 0-.885-.927-.465-2.495.19-.711.29-.733 2.468-.552 1.248.104 7.791.553 14.54.997m257.544-.422c.486 1.812.264 2.471-.836 2.493-.57.011-6.703.412-13.629.891l-12.593.872-1.199-1.291c-1.597-1.718-1.631-1.68 1.744-1.912 1.622-.111 7.759-.537 13.636-.947 13.938-.97 12.648-.959 12.877-.106m-263.013 9.787c10.448.694 9.562.449 8.027 2.225l-1.216 1.405-9.199-.547c-11.115-.661-10.634-.581-10.634-1.765 0-2.276-.548-2.221 13.022-1.318m264.302.712c.292 1.825.806 1.705-10.007 2.339l-9.716.57-1.195-1.388c-.658-.763-1.142-1.441-1.077-1.506.16-.16 16.309-1.245 19.351-1.299l2.431-.044zm-50.039 12.564c3.019.786 4.33 1.771 10.637 7.986l5.938 5.852-2.157.01-2.157.011-2.468-2.323c-5.764-5.424-7.347-6.748-9.008-7.533l-1.754-.83H112.427l-2.067 1.036c-1.496.75-3.326 2.226-6.627 5.343l-4.561 4.307-2.138-.005-2.138-.004 6.061-6.015c6.166-6.119 7.341-7.001 10.447-7.837 2.657-.716 174.377-.714 177.125.002"/><path fill="#fbfbfb" d="M0 200v200h400V0H0zM125.142 67.328c1.127.313 3.726 2.294 3.726 2.841 0 .131-1.467.366-3.26.521l-3.26.283-.921 1.375c-1.128 1.684-1.207 1.623 1.699 1.313 38.742-4.13 107.952-4.262 150.877-.287 1.842.17 3.82.31 4.394.31h1.045l-.479-.927c-.876-1.694-1.241-1.86-4.628-2.102-3.617-.259-3.692-.33-1.929-1.839 4.068-3.482 9.307-1.829 12.887 4.064 1.276 2.101 1.469 2.272 3.422 3.03 6.398 2.486 9.682 6.435 16.584 19.943 6.16 12.055 11.842 25.632 17.821 42.584 3.13 8.876 4.728 11.218 10.219 14.979 1.576 1.079 2.865 2.101 2.865 2.27s2.479 2.781 5.508 5.804c8.847 8.826 9.714 10.965 11.144 27.505.489 5.659.487 73.675-.004 102.078-.436 25.278 1.599 23.19-22.465 23.053l-16.033-.091-1.18-.734c-1.245-.774-2.293-2.216-2.878-3.96-.21-.626-.427-5.28-.539-11.574l-.188-10.526-8.548-.232c-9.756-.264-10.28-.385-11.677-2.689l-.827-1.365-88.535-.01-88.535-.01-1.026 1.454c-1.607 2.28-2.125 2.397-11.673 2.64l-8.317.212-.185 10.526c-.222 12.647-.468 13.719-3.561 15.49l-1.358.778-16.108.092c-23.686.135-21.578 2.37-22.05-23.377-.509-27.827-.526-95.992-.025-101.595 1.507-16.859 2.299-18.871 10.735-27.273 2.819-2.807 5.375-5.493 5.68-5.97.306-.476 1.778-1.679 3.271-2.672 5.232-3.482 6.869-5.802 9.658-13.687 7.037-19.896 14.428-37.18 20.936-48.963 5.049-9.141 9.193-13.362 14.719-14.994 1.14-.337 1.468-.673 2.711-2.784 2.752-4.674 6.333-6.583 10.288-5.484m43.313 14.992c-31.963.574-57.935 2.093-61.195 3.578-.956.436-3.394 5.295-9.236 18.408-5.341 11.989-14.126 33.925-13.74 34.311.092.091 6.249.018 13.683-.163 52.727-1.285 165.603-1.196 210.725.166 5.365.162 7.097.122 7.097-.163 0-1.122-8.597-22.394-13.825-34.206-5.682-12.839-8.277-17.956-9.328-18.39-6.479-2.677-70.579-4.505-124.181-3.541m-99.624 41.595c1.723 1.449 2.508 10.065 1.397 15.319-.318 1.506-.273 1.733.81 4.061l1.146 2.467-.922 1.33c-.935 1.349-2.814 3.071-4.555 4.173l-.957.606-1.785-2.547c-2.023-2.888-1.765-2.775-7.027-3.078-13.86-.799-15.515-1.316-16.914-5.28l-.442-1.253h16.384l-.876-.877-.877-.877-7.397-.097c-8.281-.109-8.093-.054-8.39-2.433-.628-5.025 6.584-9.702 17.714-11.486 7.009-1.124 11.377-1.134 12.691-.028m273.802-.146c12.981 1.906 20.598 7.108 18.673 12.754l-.381 1.117-7.569.159-7.569.16-.877.877-.876.877h16.384l-.442 1.253c-1.414 4.007-3.161 4.545-17.233 5.303-4.968.268-4.826.204-6.656 2.982-.802 1.218-1.592 2.297-1.754 2.397-.502.311-4.003-2.505-5.284-4.249l-1.214-1.654 1.125-2.462c1.001-2.19 1.096-2.62.856-3.893-1.277-6.768-.392-14.866 1.737-15.899 1.103-.535 6.459-.4 11.08.278M55.668 172.655c-.266.381-.485 1.366-.485 2.191v1.498l1.546.514c2.535.842 13.984 2.052 45.982 4.859 3.246.285 6.017.618 6.157.741.514.448 3.038 9.088 2.745 9.394-.467.486-19.288-1.257-20.229-1.873-.568-.372-1.045-1.427-1.923-4.248-1.354-4.349-1.395-4.415-2.911-4.699-1.763-.331-1.775-.037-.221 5.254 2.138 7.275 1.285 6.76 12.909 7.801 13.706 1.228 14.69 1.186 15.148-.64.318-1.267-4.015-14.809-4.792-14.98-.959-.212-10.228-1.202-28.414-3.036-17.166-1.732-21.76-2.316-23.752-3.019-1.206-.425-1.3-.412-1.76.243m287.075-.363c-2.749.837-6.695 1.353-23.923 3.13-31.52 3.251-29.035 2.932-29.269 3.761-.087.309-1.048 3.487-2.135 7.062-2.908 9.555-3.139 9.321 8.214 8.336 17.465-1.515 15.813-.763 17.929-8.17 1.56-5.461 1.558-5.231.037-5.231-1.598 0-1.676.116-3.058 4.514-1.642 5.226-.182 4.703-16.846 6.039-6.176.495-5.895.791-4.268-4.492 1.665-5.407 1.27-4.973 4.745-5.23 1.628-.121 9.061-.787 16.517-1.481 35.118-3.267 34.131-3.098 34.131-5.861 0-1.9-.765-2.776-2.074-2.377m-229.409 7.214c.097.482.327 1.273.511 1.756l.336.88 38.842-.082 38.843-.082 2.073-.924c3.724-1.66 9.136-1.521 12.829.329l1.504.754h77.549l.271-.718c.148-.394.372-1.184.496-1.754l.225-1.037H113.158zm-57.608-.038c-.741.741.125 11.412 1.09 13.422 1.344 2.798 2.284 2.991 26.119 5.345 23.017 2.274 22.63 2.265 25.756.589 2.304-1.235 2.473-1.177-5.156-1.79-16.991-1.365-39.599-3.851-41.232-4.534-1.685-.704-2.144-2.108-2.997-9.177-.275-2.281-.515-3.194-.894-3.392-.82-.429-2.441-.708-2.686-.463m286.459.179c-.658.176-1.196.506-1.196.733 0 1.717-1.344 9.895-1.758 10.695-.7 1.355-1.941 1.804-6.587 2.384-5.99.748-24.78 2.613-34.417 3.417-4.727.394-8.592.792-8.59.884.006.269 3.586 2.133 4.533 2.359 1.133.271 24.761-1.899 39.565-3.634 9.181-1.075 9.818-1.659 10.449-9.582.6-7.524.489-7.924-1.999-7.256m-277.421 1.831c-.807 1.508-.096 6.664 1.081 7.841.952.952 10.768 1.687 12.679.949 1.218-.47 2.453-5.333 1.817-7.156-.366-1.051.381-.897-8.571-1.77-6.343-.618-6.605-.613-7.006.136m261.552.043c-3.07.316-5.744.583-5.942.595-1.268.075-1.036 5.432.325 7.509.631.963 2.336 1.129 7.977.776 6.122-.383 6.783-1.027 6.849-6.669.038-3.193.135-3.17-9.209-2.211m-129.382 1.073c-10.45 2.37-13.932 15.506-6.039 22.782 5.691 5.245 14.742 4.538 19.515-1.525 7.792-9.897-1.178-24.046-13.476-21.257m4.963 1.98c.887.177.995.305.828.973-.287 1.143-2.707 6.284-2.878 6.113-.165-.165-3.037-6.592-3.037-6.797 0-.369 3.649-.577 5.087-.289m6.478 3.534.878.925-2.625 5.643c-3.025 6.504-2.799 6.309-3.971 3.414l-.903-2.229-1.791-.004-1.791-.004-1.043 2.394-1.044 2.394-2.684-5.78c-2.983-6.425-2.934-5.91-.74-7.848 1.356-1.198 1.719-.709 4.783 6.439l.619 1.444h3.762l2.008-4.452 2.007-4.452.828.595c.456.328 1.223 1.012 1.707 1.521m-91.629 2.365c0 .199.167.917.37 1.595l.369 1.233h66.814l.214-1.139c.117-.626.292-1.344.388-1.595.151-.393-4.507-.455-33.99-.455-25.255 0-34.165.094-34.165.361m98.246-.184c0 .098.161.816.357 1.595l.357 1.417h66.809l.369-1.233c.203-.678.37-1.396.37-1.595 0-.267-8.902-.361-34.131-.361-18.772 0-34.131.08-34.131.177m-22.974 8.515c1.452 3.202 2.714 6.015 2.805 6.252.334.868-1.735-.539-3.217-2.187-1.922-2.138-2.77-4.436-2.77-7.506 0-3.34.213-3.11 3.182 3.441m19.141-3.407c.011 3.398-1.75 6.963-4.449 9.012-2.063 1.565-1.956 1.042 1.135-5.527 2.898-6.157 3.305-6.585 3.314-3.485m-154.7 1.976c0 4.623 3.388 5.333 42.106 8.823 11.004.992 9.86 1.026 14.66-.429l4.294-1.301h69.334l-.843-1.593-.843-1.592-34.416-.002-34.417-.003-3.848 1.15-3.848 1.151-4-.363c-13.206-1.2-37.602-3.676-41.161-4.178-2.484-.351-5.312-1.15-6.3-1.782-.649-.415-.718-.403-.718.119m286.595-.27c-1.359 1.37-7.767 2.287-32.368 4.635-6.579.627-13.622 1.3-15.651 1.495l-3.689.354-3.944-1.155-3.943-1.156-34.313.003-34.313.002-.843 1.592-.843 1.593h69.417l3.563 1.117c5.098 1.598 4.597 1.594 19.615.186 33.499-3.139 35.639-3.513 37.107-6.471.741-1.492.868-2.864.205-2.195m-141.495 5.563c1.773 4.045 1.587 4.32-2.69 3.965-2.299-.191-2.269.009-.571-3.853 1.738-3.953 1.578-3.948 3.261-.112M61.722 222.69c-3.555 1.33-5.016 4.463-6.673 14.312-3.658 21.751-2.279 26.655 7.72 27.451 11.623.926 27.828 1.898 28.763 1.726 2.082-.384 3.576-1.471 8.894-6.467 18.179-17.079 19.014-17.744 23.325-18.561 3.056-.58 150.98-.43 153.225.155 3.793.988 4.76 1.754 18.5 14.644 9.044 8.484 10.787 9.851 13.015 10.207 1.114.178 19.364-.916 28.79-1.726 8.449-.726 10.359-4.029 9.147-15.814-2.14-20.808-4.37-26.288-10.696-26.288-3.574 0-27.775 2.565-37.805 4.007-3.842.552-6.55 1.687-8.272 3.465-1.502 1.551-1.425 1.568 4.651.988 41.761-3.982 41.989-3.994 44.079-2.235 3.023 2.543 6.515 25.646 4.433 29.323-1.473 2.599-.996 2.516-23.228 4.033-13.572.925-10.341 2.334-23.915-10.423-11.682-10.977-12.837-11.909-16.513-13.315l-1.81-.692H122.967l-2.124.734c-3.674 1.269-4.83 2.218-19.712 16.181-9.509 8.921-8.327 8.345-16.084 7.832-26.658-1.765-26.352-1.717-27.865-4.362-1.979-3.462 1.169-25.839 4.062-28.873 2.145-2.248 1.364-2.267 34.45.843l11.925 1.12c1.91.179 3.56.234 3.668.122.383-.396-3.017-3.029-4.746-3.677-4.889-1.832-42.069-5.739-44.819-4.71m1.005 16.282c-.42 1.568-.247 2.495.465 2.495.369 0 4.855.289 9.968.642 5.113.352 10.913.75 12.889.884l3.594.243 1.331-1.356c.732-.746 1.263-1.423 1.181-1.506s-5.671-.513-12.42-.957-13.292-.893-14.54-.997c-2.178-.181-2.278-.159-2.468.552m261.675.129c-5.877.41-12.014.836-13.636.947-3.375.232-3.341.194-1.744 1.912l1.199 1.291 12.593-.872c6.926-.479 13.059-.88 13.629-.891 1.1-.022 1.322-.681.836-2.493-.229-.853 1.061-.864-12.877.106M61.438 248.67c-.987 2.573-1.218 2.502 10.44 3.195l9.199.547 1.216-1.405c1.535-1.776 2.421-1.531-8.027-2.225-11.393-.758-12.576-.768-12.828-.112m263.654.152c-9.718.658-8.957.434-7.442 2.193l1.195 1.388 9.716-.57c10.813-.634 10.299-.514 10.007-2.339l-.213-1.328-2.431.044c-1.337.024-6.212.299-10.832.612m-213.688 13.234c-3.106.836-4.281 1.718-10.447 7.837l-6.061 6.015 2.138.004 2.138.005 4.561-4.307c3.301-3.117 5.131-4.593 6.627-5.343l2.067-1.036H287.56l1.754.83c1.661.785 3.244 2.109 9.008 7.533l2.468 2.323 2.157-.011 2.157-.01-5.938-5.852c-6.307-6.215-7.618-7.2-10.637-7.986-2.748-.716-174.468-.718-177.125-.002"/></g></svg>