<svg xmlns="http://www.w3.org/2000/svg" width="400" height="400" viewBox="0 0 400 400"><g fill-rule="evenodd"><path fill="#060606" d="M112.378 66.012c-1.379.626-3.913 2.959-5.851 5.387-.926 1.159-1.363 1.431-2.699 1.678-9.104 1.686-22.934 23.314-36.886 57.686-2.184 5.381-2.138 5.122-.913 5.122 1.414 0 1.161.446-.468.824-1.081.251-1.461.236-1.574-.06-.084-.218-1.085-.49-2.269-.617-2.018-.216-2.109-.262-1.931-.972 2.484-9.896 1.159-16.298-3.583-17.314-9.572-2.05-28.826 3.781-28.758 8.71.064 4.62.395 4.835 9.396 6.105 6.377.899 7.102 1.101 8.182 2.277l.75.816-3.398-.212c-6.295-.391-11.81-1.502-12.683-2.554-1.204-1.45-1.108.013.195 2.997 2.221 5.087 6.49 6.705 20.192 7.651 2.368.164 5.128.466 6.133.672l1.827.375-.551.964c-1.285 2.248-4.001 4.712-7.524 6.824-3.934 2.357-5.277 3.579-6.424 5.841-.493.974-1.038 1.588-1.515 1.708-3.116.782-12.197 13.68-14.454 20.531-2.246 6.814-3.993 17.491-4.975 30.394-1.026 13.484-.031 53.07 1.376 54.765.307.37.297.524-.05.738-.366.226-.375.936-.056 4.362.377 4.039.666 10.592 1.322 29.928.821 24.213 1.791 28.419 7.105 30.821l1.677.758h17.863c21.352 0 20.826.118 22.775-5.091.893-2.386 1.939-13.846 1.946-21.305 0-.518.66-.558 9.33-.566 8.089-.007 9.691-.091 12.042-.63 4.255-.975 195.744-.975 200 0 2.349.539 3.952.623 11.998.63l9.287.008.21 3.748c.976 17.405 1.496 19.887 4.599 21.919 2.18 1.427 3.041 1.483 21.274 1.382l17.225-.095 1.821-.894c2.767-1.359 4.414-3.73 5.212-7.507.926-4.373 2.06-25.333 2.055-37.967-.001-3.62.209-8.951.466-11.846.258-2.895.624-7.918.814-11.164l.634-10.845c1.261-21.61.527-44.176-1.917-58.852-2.014-12.094-3.619-16.532-8.493-23.473-1.429-2.035-2.824-4.137-3.1-4.672-.672-1.299-3.033-3.627-4.822-4.753-.916-.577-1.927-1.648-2.741-2.905-1.341-2.068-2.006-2.611-6.887-5.621-2.878-1.775-5.166-3.936-6.426-6.072l-.641-1.087 1.408-.355c1.435-.361 1.939-.416 9.22-.998 13.49-1.078 16.888-2.673 19.259-9.037.653-1.752.668-2.904.023-1.752-.672 1.201-11.168 3.187-16.571 3.136l-1.116-.011 1.276-1.095c.827-.71 1.724-1.153 2.551-1.261 6.265-.819 10.981-1.563 12.792-2.019l2.165-.545.411-1.595c1.041-4.051.28-5.169-5.479-8.046-6.539-3.266-19.759-4.909-24.483-3.043-3.279 1.296-4.722 6.697-3.563 13.337.824 4.72.915 4.387-1.3 4.763-1.053.179-2.071.428-2.263.553-.43.28-2.633-.051-2.868-.43-.093-.152.09-.278.407-.281 1.476-.012 1.419-.397-.824-5.595-16.314-37.806-27.715-55.571-36.728-57.231-1.395-.257-1.903-.53-2.541-1.361q-6.535-8.515-12.6-5.695c-1.204.561-4.268 3.381-3.967 3.652.352.318 5.297.73 5.781.482 1.223-.628 2.654-.309 3.769.841 1.246 1.286 1.354 1.263-2.941.644-31.962-4.604-126.992-4.689-162.578-.146-5.529.706-5.583.698-4.242-.643 1.008-1.008 2.408-1.276 3.529-.676.348.186 1.611.155 3.408-.085l2.855-.382-1.754-1.759c-2.558-2.565-6.091-3.304-9.153-1.914m114.416 13.419c36.288.698 67.52 2.598 70.827 4.308 3.961 2.048 21.836 39.63 23.747 49.929.632 3.405 3.123 3.297-65.706 2.828-44.871-.306-68.332-.302-114.303.019-64.831.454-65.377.443-65.929-1.294-1.31-4.13 19.141-48.881 23.527-51.48 4.885-2.895 76.297-5.303 127.837-4.31M40.128 176.23c4.586 1.014 20.37 2.997 44.72 5.619 15.809 1.702 14.35 1.174 15.973 5.77l.753 2.132-.921.739c-4.44 3.56-19.058 14.96-19.84 15.472-.809.53-4.615.107-22.28-2.473-20.225-2.955-23.701-3.83-25.167-6.34-1.154-1.977-.989-13.546.246-17.23.585-1.745 4.069-1.152 3.709.632-.601 2.969-.148 12.11.638 12.892 1.196 1.191 10.259 2.794 28.867 5.106 16.987 2.11 18.251 2.212 19.257 1.55 2.092-1.377 13.439-10.376 13.439-10.658 0-.55-1.189-2.661-1.801-3.199-.887-.78-1.115-.817-11.508-1.864-29.553-2.978-50.301-5.92-50.706-7.19-.355-1.114 1.85-1.571 4.621-.958m320 .213 1.116.682-1.242.432c-3.989 1.387-30.451 4.835-54.739 7.133-8.224.778-7.801.661-8.957 2.483-1.322 2.084-1.246 2.277 1.86 4.707 1.535 1.201 4.685 3.671 6.999 5.488l4.208 3.304 4.883-.514c15.496-1.631 41.43-5.378 42.985-6.21 1.55-.83 2.349-7.894 1.469-13.004-.251-1.46.052-1.737 2.419-2.212 2.926-.588 3.039 17.316.124 19.609-1.933 1.521-18.091 4.375-41.636 7.356-5.8.734-4.296 1.562-20.506-11.279-6.211-4.919-6.013-4.604-4.842-7.715 1.317-3.498.843-3.323 11.951-4.417 16.705-1.646 45.083-5.127 49.282-6.046 2.724-.595 3.366-.567 4.626.203m-310.791 6.858c.934 1 1.104 1.044 6.106 1.579 2.717.29 2.93.564 2.93 3.758 0 3.814-.084 3.887-4.363 3.778-5.09-.129-12.471-1.139-13.127-1.796-.679-.68-.685-7.243-.008-8.059.842-1.014 7.356-.444 8.462.74m305.728-.636c.759.915.603 6.945-.201 7.745-.946.942-15.153 2.616-16.425 1.936-.671-.359-.959-1.648-.959-4.287 0-2.755.198-2.916 4.147-3.38 3.918-.46 4.788-.733 5.007-1.571.193-.738.841-.86 4.922-.923 2.507-.039 3.151.049 3.509.48m-64.587 2.343a13 13 0 0 1-.495 1.675l-.334.877H104.928l-.334-.877a13 13 0 0 1-.494-1.675l-.161-.797h186.699zm-217.447 1.419c.862.918 1.246 1.011 6.076 1.478 2.042.197 3.772.517 3.902.722.515.808.273 6.195-.304 6.772-.94.94-16.847.019-18.021-1.044-.658-.595-.846-6.958-.239-8.092.564-1.054 7.567-.921 8.586.164m257.706-.496c1.142.723 1.084 7.737-.07 8.478-.793.509-5.667 1.026-12.496 1.326-6.064.266-5.89.385-5.89-4.059 0-3.761-.191-3.593 4.465-3.93 3.564-.258 4.987-.647 5.437-1.488.356-.665 7.585-.941 8.554-.327m-236.831 2.058c2.928.342 4.335.957 3.682 1.61-.247.248-7.063-.446-8.024-.817-3.007-1.159-1.363-1.459 4.342-.793m213.271-.277c0 .657-2.032 1.229-5.652 1.591-4.151.415-5.112.271-4.21-.63.615-.615 9.862-1.516 9.862-.961m-102.24 3.819c9.713 4.681 12.004 17.208 4.534 24.791-9.852 10-27.047 3.157-27.047-10.764 0-11.399 12.197-18.999 22.513-14.027m-9.403.706c-1.384.28-1.361.583.322 4.294.905 1.996 1.722 3.88 1.816 4.187.287.943.611.637 1.52-1.436a513 513 0 0 1 1.85-4.158c.725-1.606.884-2.257.617-2.524-.379-.379-4.763-.638-6.125-.363m-6.417 3.204c-2.557 2.392-2.606 1.84.837 9.435 1.687 3.722 3.177 6.877 3.31 7.013.133.135.821-1.085 1.528-2.712l1.287-2.957h4.017l1.357 2.997 1.357 2.997.674-1.32c.37-.726 1.891-3.927 3.379-7.114l2.706-5.794-.83-1.088c-.888-1.164-3.264-3.029-3.597-2.823-.11.068-1.273 2.512-2.583 5.43l-2.382 5.306-2.067-.093-2.068-.093-2.393-5.343c-2.722-6.079-2.417-5.82-4.532-3.841m-56.431 1.771 2.384 1.193h14.16l2.33-1.116 2.329-1.117 9.898.001 9.897.001 1.85.975c1.017.536 2.694 1.123 3.726 1.305 1.399.246 1.833.445 1.705.779-.319.832-2.667.528-5.163-.668l-2.329-1.117h-19.354l-2.33 1.117-2.329 1.116h-14.484l-2.639-1.276-2.638-1.276-10.065.002-10.065.001-2.487.968c-2.248.874-2.722.949-4.944.782-4.751-.358-5.256-.465-4.802-1.012.342-.412.967-.455 3.927-.273 3.455.214 3.564.199 5.755-.762l2.232-.98 10.527.082 10.526.082zm154.901-.391c2.366.94 2.539.962 5.995.755 2.959-.177 3.625-.132 3.956.267 1.021 1.23-7.65 1.275-10.458.054l-2.072-.901-9.569.084-9.57.085-2.392 1.165-2.392 1.165-7.179.118-7.178.118-2.382-1.141-2.382-1.142h-19.651l-2.217 1.117c-2.362 1.189-4.573 1.492-4.888.669-.25-.651.058-.829 1.44-.829.772 0 2.058-.416 3.448-1.116l2.217-1.117h19.74l2.33 1.117 2.329 1.116h13.847l2.638-1.276 2.638-1.276h19.316zm-156.646 2.277c.467.206.349.236-.439.113-.592-.092-4.037-.194-7.655-.225-4.544-.04-5.839-.121-4.187-.261 3.017-.255 11.433 0 12.281.373m-94.218 3.172c3.291 1.024 12.788 2.681 27.232 4.75 15.972 2.288 15.173 2.055 23.884 6.967 11.245 6.341 14.916 8.261 17.584 9.199l2.551.897h88.677c84.663 0 88.788-.026 91.153-.581 2.821-.662 5.935-2.202 17.619-8.717 11.187-6.237 9.919-5.801 21.212-7.297 21.454-2.842 34.373-5.38 35.735-7.022.63-.758.957-.533.6.411-1.321 3.497-5.68 4.573-37.222 9.187-8.798 1.287-8.451 1.157-18.252 6.825-12.519 7.241-16.041 8.844-21.053 9.585-4.879.722-178.65.286-181.339-.454-2.716-.748-8.077-3.475-18.08-9.197-9.028-5.164-9.655-5.414-15.756-6.295-30.769-4.441-36.63-5.818-38.284-8.997-.726-1.395-.521-1.619.659-.719.608.464 1.995 1.12 3.08 1.458m98.012-1.171c.787.25.585.42-.773.649-.609.103-1.538.315-2.064.471-2.932.871-22.543 1.431-23.733.678-.644-.408 3.073-.581 6.189-.289 1.404.132 3.485.11 4.625-.048 1.141-.159 4.082-.378 6.536-.489 4.525-.203 6.291-.636 6.675-1.637.16-.418.284-.418 1.061 0 .484.26 1.152.559 1.484.665m-27.079 2.166c1.91 1.053 21.476 1.311 24.733.326 2.762-.836 18.293-.688 19.924.19 1.681.904 20.785.965 23.131.074.962-.366 2.367-.665 3.123-.665h1.374l-.098 1.355-.098 1.356-2.233.262c-4.926.579-22.785.622-25.518.062-2.141-.438-3.915-.494-11.005-.343-25.484.543-31.538.545-33.587.015-1.088-.281-5.328-.778-9.421-1.103-8.53-.678-8.093-.546-6.52-1.967l1.206-1.09 6.856.413c6.003.361 7.015.499 8.133 1.115m195.526-.561c1.651 1.412 2.038 1.292-6.212 1.925-4.116.315-7.79.757-8.613 1.036-2.324.787-23.322.977-26.156.237-2.581-.675-15.947-.427-18.638.345-4.896 1.405-26.976.307-26.976-1.341 0-.389-.087-.934-.194-1.212-.292-.76 2.179-.661 4.341.174 2.187.845 21.032.696 23.137-.184 2.211-.924 17.295-1.063 19.346-.178 2.349 1.013 21.153.762 24.183-.322 1.489-.533 8.653-1.334 13.716-1.534.479-.019 1.305.402 2.066 1.054m-118.246-.61c-2.197 3.581 1.466 12.558 6.102 14.956 1.464.756 1.55 1.048-1.927-6.524a3610 3610 0 0 1-3.571-7.794c-.232-.515-.504-.802-.604-.638m25.352 1.895c-1.527 3.031-5.706 12.043-5.97 12.877l-.239.757 1.333-.75c3.489-1.96 6.044-6.281 6.301-10.653.232-3.96-.207-4.647-1.425-2.231m-13.402 8.132c-2.5 5.342-2.771 6.094-2.301 6.384.825.51 4.082.691 5.847.325l1.761-.366-1.063-2.454a258 258 0 0 0-2.019-4.527l-.956-2.073zm-95.61.803c3.422.208 3.58.252 6.419 1.779l2.91 1.565h19.938l2.312-1.276 2.311-1.276h14.462l2.452 1.436 2.452 1.435h19.115l2.252-1.34c2.595-1.544 5.42-2.038 6.21-1.086.382.46.235.512-1.448.516-1.646.003-2.163.176-4.265 1.431l-2.393 1.429h-19.777l-2.392-1.429-2.392-1.428-6.985-.003-6.986-.004-2.617 1.427-2.617 1.426-10.015-.183-10.015-.184-2.711-1.527c-2.632-1.482-2.812-1.533-6.143-1.752-2.735-.18-3.577-.352-4.147-.85-.665-.58-.67-.613-.077-.472.351.084 2.217.248 4.147.366m196.215.037c-.503.272-2.419.635-4.258.805-3.174.294-3.484.39-6.09 1.884l-2.746 1.575h-19.588l-2.213-1.276-2.213-1.276-6.986.004-6.986.003-2.392 1.428-2.392 1.429-9.889-.004-9.888-.003-2.205-1.428c-1.985-1.286-2.396-1.429-4.106-1.429-1.654 0-1.849-.062-1.504-.478.852-1.027 3.394-.616 5.918.957l2.303 1.435h19.065l2.452-1.435 2.452-1.436h14.541l2.073 1.276 2.073 1.276h9.595c10.655 0 9.497.193 13.85-2.315 1.353-.779 4.631-1.304 9.091-1.455l.957-.032zm-246.614 11.75c9.472 1.209 10.666 1.608 16.747 5.604 9.054 5.948 9.091 6.006 9.091 14.023 0 8.043.131 7.835-8.68 13.818-7.318 4.969-7.855 5.083-20.644 4.373-16.991-.943-17.399-1.365-17.394-18.031.006-21.454.933-22.333 20.88-19.787m311.396-.086c3.089 2.045 3.734 5.413 3.747 19.554.015 17.255-.087 17.363-17.376 18.363-12.256.71-13.457.485-19.776-3.709-9.765-6.48-10.036-6.915-9.838-15.806.134-6.042.296-6.377 4.661-9.615 9.666-7.17 11.915-7.933 28.303-9.601 4.254-.433 8.958-.061 10.279.814m-6.771.18c-2.911.128-13.38 1.294-16.42 1.829-6.53 1.148-17.983 8.866-18.84 12.696-.555 2.479-.273 9.931.427 11.271 1.529 2.93 12.455 10.196 16.48 10.96 2.675.507 19.578-.469 22.819-1.318 4.557-1.193 5.549-5.464 4.929-21.226-.507-12.893-1.606-14.555-9.395-14.212m-320.617.661c-2.71 1.724-3.122 3.137-3.641 12.493-.865 15.602.313 21.148 4.735 22.3 3.114.812 20.402 1.803 22.964 1.317 5.009-.95 15.943-8.987 16.674-12.256.58-2.591.254-9.916-.51-11.46-.871-1.758-9.096-7.708-13.347-9.654-4.834-2.213-24.543-4.223-26.875-2.74m15.035 3.563c9.541 1.209 9.961 1.343 15.481 4.954 7.57 4.952 7.441 4.754 7.274 11.113l-.107 4.1-1.503 1.36c-2.108 1.907-9.767 7.007-11.267 7.502-2.216.731-19.77-.023-22.67-.974-2.567-.842-2.982-2.545-2.988-12.267-.007-11.23.635-15.358 2.543-16.366 1.023-.541 6.189-.315 13.237.578m309.182-.616c2.056.717 2.492 2.654 2.8 12.453.469 14.892-.057 16.173-6.927 16.866-14.217 1.435-18.313.966-23.982-2.746-7.767-5.087-7.867-5.224-7.867-10.777 0-4.823.145-5.189 2.848-7.182 9.096-6.709 10.433-7.16 25.86-8.74 2.54-.261 6.349-.194 7.268.126M39.579 232.03c-1.05 1.117-1.382 4.637-1.251 13.254.151 10.002-.537 9.348 10.427 9.911 9.367.482 9.018.567 15.2-3.698 4.262-2.94 4.121-2.696 4.106-7.099-.016-4.717.058-4.596-4.83-7.841-5.12-3.398-5.726-3.577-16.341-4.823-5.643-.663-6.44-.63-7.311.296m309.863-.419c-5.913.714-9.712 1.318-11.164 1.773-1.818.57-9.55 5.557-10.042 6.477-.401.748-.432 7.344-.04 8.376.311.819 4.711 4.081 8.008 5.938l2.074 1.168 5.422-.088c13.093-.212 13.455-.352 13.944-5.383.33-3.4.071-14.189-.391-16.236-.536-2.38-1.918-2.738-7.811-2.025M51.834 236.88c4.909.8 5.353 1.361 4.771 6.021-.312 2.497-.562 2.58-6.273 2.104-7.551-.631-7.27-.453-7.27-4.606 0-4.808.248-4.908 8.772-3.519m300.374-.307c.723.654.863 6.303.18 7.238-.534.729-10.934 1.798-12.143 1.248-1.252-.571-1.466-6.751-.255-7.395.286-.153 2.171-.504 4.189-.781 2.017-.278 4.027-.56 4.465-.628 1.85-.286 3.011-.183 3.564.318m-75.015 15.417c11.423.683 13.693 1.972 36.204 20.556 10.924 9.018 29.355 25.004 29.107 25.246-.115.112-11.904 1.018-20.464 1.573-8.788.57-8.389.649-14.544-2.874-2.544-1.457-5.415-2.913-6.38-3.238-2.743-.922-203.637-.922-206.379 0-.965.325-3.262 1.468-5.104 2.541-6.396 3.725-6.402 3.728-9.921 3.728-2.985 0-25.839-1.524-26.052-1.737-.453-.453 25.5-22.83 39.064-33.683 12.756-10.205 15.776-11.622 25.777-12.087 7.543-.351 152.852-.374 158.692-.025m-154.386 4.784c-13.731.335-12.872-.131-37.299 20.252-4.528 3.779-16.782 14.369-19.784 17.1l-3.654 3.322 6.365.404c3.501.223 7.729.366 9.396.319l3.03-.085 5.359-3.447c5.907-3.799 7.28-4.485 9.991-4.986 3.104-.574 201.277-.455 204.001.123 2.601.551 3.131.818 8.657 4.369 7.266 4.669 6.295 4.476 18.872 3.751 6.965-.402 6.637-.31 5.237-1.471-.591-.49-3.372-2.903-6.18-5.362-10.268-8.989-27.944-23.729-33.231-27.709-7.174-5.402-9.525-6.206-19.245-6.584-7.659-.298-139.271-.295-151.515.004m157.151 7.022c6.944 0 7.724.054 8.106.558.359.475.355.499-.025.16-.332-.296-2.46-.399-8.255-.399h-7.808l-2.459 2.392-2.458 2.393h-15.897l-1.099-1.197-1.1-1.196 1.132 1.037 1.132 1.037h15.839l2.431-2.376 2.43-2.377-1.115-1.212-1.114-1.212 1.289 1.196 1.289 1.196zm-41.362 0h7.466l1.132-1.037 1.131-1.037-1.032 1.128-1.033 1.128.873.939.873.939-.974-.871-.974-.87h-15.011l-2.575 2.392-2.575 2.393h-15.228l-2.225-2.313-2.224-2.313 2.241 2.153 2.241 2.154h15.188l2.506-2.313 2.505-2.313-1.017-1.116-1.016-1.117 1.131 1.037 1.132 1.037zm-32.695 0c-.122.198-3.063.319-7.762.319h-7.565l-2.376 2.392-2.377 2.393h-7.724c-4.248 0-7.791-.108-7.873-.24-.081-.131 3.383-.198 7.699-.148l7.846.091 2.412-2.398 2.411-2.397 7.655-.092c4.21-.05 7.698-.125 7.753-.165s.01.069-.099.245m-80.99.718c.606.715.606.716-.049.165-.578-.486-1.617-.564-8.613-.644l-7.956-.091 8.005-.074c7.952-.074 8.009-.069 8.613.644m41.148 0c.607.717.607.717-.055.159-.591-.497-1.484-.558-8.119-.558h-7.456l-1.132 1.037-1.131 1.036 1.099-1.196 1.099-1.196h7.544c7.43 0 7.552.011 8.151.718m-38.308 2.472c.864.877 1.499 1.595 1.412 1.595s-.867-.718-1.731-1.595c-.864-.878-1.499-1.595-1.411-1.595s.866.717 1.73 1.595m-22.966.638c-1.03 1.054-1.442 1.266-2.378 1.222l-1.131-.054 1.149-.122c.792-.084 1.482-.465 2.216-1.222.587-.605 1.139-1.1 1.228-1.1s-.399.574-1.084 1.276m41.467.319-.917.957-7.994-.074-7.995-.075 8.004-.09 8.003-.091.745-.792c.409-.436.817-.792.907-.792s-.249.43-.753.957m147.567.892c-.592.061-1.199-.011-1.347-.159-.149-.149.336-.199 1.077-.111 1.314.155 1.321.162.27.27m-164.632.472c0 .049-.969 1.018-2.154 2.154l-2.153 2.064 2.065-2.153c1.917-2 2.242-2.299 2.242-2.065m59.17 2.144c1.219 1.228 2.144 2.233 2.057 2.233s-1.157-1.005-2.376-2.233-2.144-2.232-2.056-2.232 1.157 1.004 2.375 2.232m19.936.16-2.376 2.393 2.544 2.625 2.544 2.625-2.871-2.705c-2.121-1.999-2.746-2.76-2.392-2.916.263-.115 1.407-1.156 2.542-2.312 1.136-1.157 2.137-2.102 2.225-2.102s-.909 1.076-2.216 2.392m42.744-2.296c0 .054-.539.592-1.196 1.197l-1.197 1.099 1.1-1.196c1.023-1.114 1.293-1.343 1.293-1.1m27.918 4.44 7.01.07-6.918.169-6.918.169-2.704 2.646c-1.487 1.455-2.789 2.506-2.895 2.335s.065-.392.378-.491c.314-.1 1.568-1.187 2.788-2.416l2.217-2.234-2.384-2.472-2.384-2.472 2.4 2.313 2.4 2.312zm-117.711.022c1.228.047-.744.154-4.383.236-4.255.096-6.659.036-6.738-.169-.114-.296 4.525-.324 11.121-.067m126.609.019c-.108.282-.464.37-1.027.255l-.861-.177.957-.217c.526-.119.988-.233 1.027-.254s-.005.156-.096.393m-170.054.125c-1.439.059-3.879.06-5.423.001s-.366-.107 2.616-.107c2.982-.001 4.246.047 2.807.106m81.643-.006c-.57.071-1.503.071-2.074 0-.57-.071-.103-.129 1.037-.129s1.607.058 1.037.129m41.644.007c-1.702.057-4.572.057-6.38 0s-.416-.103 3.093-.104c3.509 0 4.988.047 3.287.104m-132.633.49c0 .049-.897.946-1.994 1.994l-1.993 1.903 1.904-1.993c1.768-1.852 2.083-2.14 2.083-1.904m81.978-.001c0 .049-.969 1.018-2.153 2.153l-2.154 2.064 2.065-2.153c1.917-2 2.242-2.299 2.242-2.064m38.277 2.244c0 .055-.461.521-1.024 1.037-.564.515-.815.649-.559.298.593-.81 1.583-1.646 1.583-1.335m29.107 2.369a43 43 0 0 1-3.987 0c-1.097-.062-.2-.113 1.993-.113s3.09.051 1.994.113m-128.628.492c0 .049-.898.946-1.994 1.993l-1.994 1.904 1.904-1.994c1.769-1.851 2.084-2.139 2.084-1.903m17.723.947.937 1.036-1.037-.937c-.966-.873-1.183-1.136-.937-1.136.055 0 .522.466 1.037 1.037m121.531 0 .937 1.036-1.037-.937c-.57-.515-1.036-.981-1.036-1.036 0-.247.263-.03 1.136.937m-58.234-.628c0 .05-.825.876-1.834 1.835l-1.834 1.743 1.744-1.834c1.619-1.704 1.924-1.98 1.924-1.744m81.021.638c0 .049-.897.946-1.994 1.993l-1.993 1.904 1.904-1.994c1.768-1.852 2.083-2.139 2.083-1.903m-122.807 1.026c-.412.439-.876.798-1.03.798-.266 0 1.356-1.564 1.644-1.585.074-.006-.202.349-.614.787"/><path fill="#fbfbfb" d="M0 200v200h400V0H0zM118.464 65.779c.857.253 1.922.999 3.067 2.147l1.754 1.759-2.855.382c-1.797.24-3.06.271-3.408.085-1.121-.6-2.521-.332-3.529.676-1.341 1.341-1.287 1.349 4.242.643 35.586-4.543 130.616-4.458 162.578.146 4.295.619 4.187.642 2.941-.644-1.115-1.15-2.546-1.469-3.769-.841-.484.248-5.429-.164-5.781-.482-.301-.271 2.763-3.091 3.967-3.652q6.065-2.82 12.6 5.695c.638.831 1.146 1.104 2.541 1.361 9.013 1.66 20.414 19.425 36.728 57.231 2.243 5.198 2.3 5.583.824 5.595-.317.003-.5.129-.407.281.235.379 2.438.71 2.868.43.192-.125 1.21-.374 2.263-.553 2.215-.376 2.124-.043 1.3-4.763-1.159-6.64.284-12.041 3.563-13.337 4.724-1.866 17.944-.223 24.483 3.043 5.759 2.877 6.52 3.995 5.479 8.046l-.411 1.595-2.165.545c-1.811.456-6.527 1.2-12.792 2.019-.827.108-1.724.551-2.551 1.261l-1.276 1.095 1.116.011c5.403.051 15.899-1.935 16.571-3.136.645-1.152.63 0-.023 1.752-2.371 6.364-5.769 7.959-19.259 9.037-7.281.582-7.785.637-9.22.998l-1.408.355.641 1.087c1.26 2.136 3.548 4.297 6.426 6.072 4.881 3.01 5.546 3.553 6.887 5.621.814 1.257 1.825 2.328 2.741 2.905 1.789 1.126 4.15 3.454 4.822 4.753.276.535 1.671 2.637 3.1 4.672 4.874 6.941 6.479 11.379 8.493 23.473 2.444 14.676 3.178 37.242 1.917 58.852l-.634 10.845c-.19 3.246-.556 8.269-.814 11.164s-.467 8.226-.466 11.846c.005 12.634-1.129 33.594-2.055 37.967-.798 3.777-2.445 6.148-5.212 7.507l-1.821.894-17.225.095c-26.137.145-24.475 1.642-25.873-23.301l-.21-3.748-9.287-.008c-8.046-.007-9.649-.091-11.998-.63-4.256-.975-195.745-.975-200 0-2.351.539-3.953.623-12.042.63-8.67.008-9.33.048-9.33.566-.007 7.459-1.053 18.919-1.946 21.305-1.949 5.209-1.423 5.091-22.775 5.091H33.971l-1.677-.758c-5.314-2.402-6.284-6.608-7.105-30.821-.656-19.336-.945-25.889-1.322-29.928-.319-3.426-.31-4.136.056-4.362.347-.214.357-.368.05-.738-1.407-1.695-2.402-41.281-1.376-54.765.982-12.903 2.729-23.58 4.975-30.394 2.257-6.851 11.338-19.749 14.454-20.531.477-.12 1.022-.734 1.515-1.708 1.147-2.262 2.49-3.484 6.424-5.841 3.523-2.112 6.239-4.576 7.524-6.824l.551-.964-1.827-.375c-1.005-.206-3.765-.508-6.133-.672-13.702-.946-17.971-2.564-20.192-7.651-1.303-2.984-1.399-4.447-.195-2.997.873 1.052 6.388 2.163 12.683 2.554l3.398.212-.75-.816c-1.08-1.176-1.805-1.378-8.182-2.277-9.001-1.27-9.332-1.485-9.396-6.105-.068-4.929 19.186-10.76 28.758-8.71 4.742 1.016 6.067 7.418 3.583 17.314-.178.71-.087.756 1.931.972 1.184.127 2.185.399 2.269.617.113.296.493.311 1.574.06 1.629-.378 1.882-.824.468-.824-1.225 0-1.271.259.913-5.122 13.952-34.372 27.782-56 36.886-57.686 1.336-.247 1.773-.519 2.699-1.678 4.29-5.373 7.561-6.913 11.937-5.62m57.294 13.543c-36.715.547-73.875 2.685-76.801 4.419-4.386 2.599-24.837 47.35-23.527 51.48.552 1.737 1.098 1.748 65.929 1.294 45.971-.321 69.432-.325 114.303-.019 68.829.469 66.338.577 65.706-2.828-1.911-10.299-19.786-47.881-23.747-49.929-5.393-2.789-71.153-5.172-121.863-4.417M36.282 176.319c-.483.3-.832.691-.775.869.405 1.27 21.153 4.212 50.706 7.19 10.393 1.047 10.621 1.084 11.508 1.864.612.538 1.801 2.649 1.801 3.199 0 .282-11.347 9.281-13.439 10.658-1.006.662-2.27.56-19.257-1.55-18.608-2.312-27.671-3.915-28.867-5.106-.786-.782-1.239-9.923-.638-12.892.36-1.784-3.124-2.377-3.709-.632-1.235 3.684-1.4 15.253-.246 17.23 1.466 2.51 4.942 3.385 25.167 6.34 17.665 2.58 21.471 3.003 22.28 2.473.782-.512 15.4-11.912 19.84-15.472l.921-.739-.753-2.132c-1.623-4.596-.164-4.068-15.973-5.77-24.35-2.622-40.134-4.605-44.72-5.619-2.643-.584-2.763-.582-3.846.089m319.22-.079c-4.199.919-32.577 4.4-49.282 6.046-11.108 1.094-10.634.919-11.951 4.417-1.171 3.111-1.369 2.796 4.842 7.715 16.21 12.841 14.706 12.013 20.506 11.279 23.545-2.981 39.703-5.835 41.636-7.356 2.915-2.293 2.802-20.197-.124-19.609-2.367.475-2.67.752-2.419 2.212.88 5.11.081 12.174-1.469 13.004-1.555.832-27.489 4.579-42.985 6.21l-4.883.514-4.208-3.304a6427 6427 0 0 0-6.999-5.488c-3.106-2.43-3.182-2.623-1.86-4.707 1.156-1.822.733-1.705 8.957-2.483 24.288-2.298 50.75-5.746 54.739-7.133l1.242-.432-1.116-.682c-1.26-.77-1.902-.798-4.626-.203m-314.627 6.321c-.677.816-.671 7.379.008 8.059.656.657 8.037 1.667 13.127 1.796 4.279.109 4.363.036 4.363-3.778 0-3.194-.213-3.468-2.93-3.758-5.002-.535-5.172-.579-6.106-1.579-1.106-1.184-7.62-1.754-8.462-.74m306.765-.199c-.496.077-.911.384-1.006.746-.219.838-1.089 1.111-5.007 1.571-3.949.464-4.147.625-4.147 3.38 0 2.639.288 3.928.959 4.287 1.272.68 15.479-.994 16.425-1.936.804-.8.96-6.83.201-7.745-.427-.515-4.866-.696-7.425-.303m-243.54 2.646c.088.439.31 1.192.494 1.675l.334.877h184.721l.334-.877a13 13 0 0 0 .495-1.675l.16-.797H103.939zm-39.655 1.255c-.607 1.134-.419 7.497.239 8.092 1.174 1.063 17.081 1.984 18.021 1.044.577-.577.819-5.964.304-6.772-.13-.205-1.86-.525-3.902-.722-4.83-.467-5.214-.56-6.076-1.478-1.019-1.085-8.022-1.218-8.586-.164m257.738-.005c-.45.841-1.873 1.23-5.437 1.488-4.656.337-4.465.169-4.465 3.93 0 4.444-.174 4.325 5.89 4.059 6.829-.3 11.703-.817 12.496-1.326 1.154-.741 1.212-7.755.07-8.478-.969-.614-8.198-.338-8.554.327m-233.854 1.746c.715.862 8.629 2.225 9.259 1.595.893-.892-3.238-1.901-8.233-2.009-1.158-.025-1.332.045-1.026.414m212.322-.083c-2.811.27-4.205.87-3.508 1.51.837.768 10.034-.807 10.034-1.719 0-.215-3.166-.114-6.526.209m-107.769 2.952c-11.145 4.032-14.089 17.864-5.526 25.963 9.028 8.538 24.182 3.452 26.381-8.855 2.021-11.307-9.887-21.076-20.855-17.108m8.777 1.727c.267.267.108.918-.617 2.524a513 513 0 0 0-1.85 4.158c-.909 2.073-1.233 2.379-1.52 1.436-.094-.307-.911-2.191-1.816-4.187-.905-1.995-1.527-3.741-1.382-3.88.696-.667 6.528-.708 7.185-.051m-8.01 6.682 2.393 5.343 2.068.093 2.067.093 2.382-5.306c1.31-2.918 2.473-5.362 2.583-5.43.333-.206 2.709 1.659 3.597 2.823l.83 1.088-2.706 5.794c-1.488 3.187-3.009 6.388-3.379 7.114l-.674 1.32-1.357-2.997-1.357-2.997h-4.017l-1.287 2.957c-.707 1.627-1.395 2.847-1.528 2.712-.881-.894-6.346-13.837-6.065-14.363.381-.712 3.419-3.587 3.791-3.587.147 0 1.343 2.405 2.659 5.343m-86.631-2.447c-2.191.961-2.3.976-5.755.762-2.96-.182-3.585-.139-3.927.273-.454.547.051.654 4.802 1.012 2.222.167 2.696.092 4.944-.782l2.487-.968 10.065-.001 10.065-.002 2.638 1.276 2.639 1.276h14.484l2.329-1.116 2.33-1.117h19.354l2.329 1.117c2.496 1.196 4.844 1.5 5.163.668.128-.334-.306-.533-1.705-.779-1.032-.182-2.709-.769-3.726-1.305l-1.85-.975-9.897-.001-9.898-.001-2.329 1.117-2.33 1.116h-14.16l-2.384-1.193-2.383-1.193-10.526-.082-10.527-.082zm156.179.294-2.638 1.276h-13.847l-2.329-1.116-2.33-1.117h-19.74l-2.217 1.117c-1.39.7-2.676 1.116-3.448 1.116-1.382 0-1.69.178-1.44.829.315.823 2.526.52 4.888-.669l2.217-1.117h19.651l2.382 1.142 2.382 1.141 7.178-.118 7.179-.118 2.392-1.165 2.392-1.165 9.57-.085 9.569-.084 2.072.901c2.808 1.221 11.479 1.176 10.458-.054-.331-.399-.997-.444-3.956-.267-3.456.207-3.629.185-5.995-.755l-2.436-.968h-19.316zm-144.537 1.596c-1.652.14-.357.221 4.187.261 3.618.031 7.063.133 7.655.225.788.123.906.093.439-.113-.848-.373-9.264-.628-12.281-.373m-86.124 1.594c0 3.918 5.872 5.466 38.732 10.209 6.101.881 6.728 1.131 15.756 6.295 10.003 5.722 15.364 8.449 18.08 9.197 2.689.74 176.46 1.176 181.339.454 5.012-.741 8.534-2.344 21.053-9.585 9.801-5.668 9.454-5.538 18.252-6.825 31.542-4.614 35.901-5.69 37.222-9.187.357-.944.03-1.169-.6-.411-1.362 1.642-14.281 4.18-35.735 7.022-11.293 1.496-10.025 1.06-21.212 7.297-11.684 6.515-14.798 8.055-17.619 8.717-2.365.555-6.49.581-91.153.581h-88.677l-2.551-.897c-2.668-.938-6.339-2.858-17.584-9.199-8.711-4.912-7.912-4.679-23.884-6.967-20.988-3.007-27.997-4.442-30.312-6.208-.609-.465-1.107-.686-1.107-.493m99.654.115c-.384 1.001-2.15 1.434-6.675 1.637-2.454.111-5.395.33-6.536.489-1.14.158-3.221.18-4.625.048-3.116-.292-6.833-.119-6.189.289 1.19.753 20.801.193 23.733-.678a21 21 0 0 1 2.064-.471c1.358-.229 1.56-.399.773-.649-.332-.106-1-.405-1.484-.665-.777-.418-.901-.418-1.061 0m-40.729 2.393c-1.573 1.421-2.01 1.289 6.52 1.967 4.093.325 8.333.822 9.421 1.103 2.049.53 8.103.528 33.587-.015 7.09-.151 8.864-.095 11.005.343 2.733.56 20.592.517 25.518-.062l2.233-.262.098-1.356.098-1.355h-1.374c-.756 0-2.161.299-3.123.665-2.346.891-21.45.83-23.131-.074-1.631-.878-17.162-1.026-19.924-.19-3.257.985-22.823.727-24.733-.326-1.118-.616-2.13-.754-8.133-1.115l-6.856-.413zm203.276-.708c-3.8.297-6.142.637-7.337 1.065-3.03 1.084-21.834 1.335-24.183.322-2.051-.885-17.135-.746-19.346.178-2.105.88-20.95 1.029-23.137.184-2.162-.835-4.633-.934-4.341-.174.107.278.194.823.194 1.212 0 1.648 22.08 2.746 26.976 1.341 2.691-.772 16.057-1.02 18.638-.345 2.834.74 23.832.55 26.156-.237.823-.279 4.497-.721 8.613-1.036 3.947-.303 7.245-.615 7.329-.695.343-.326-2.426-2.314-3.183-2.284-.438.018-3.309.228-6.379.469m-105.626 8.407c3.477 7.572 3.391 7.28 1.927 6.524-4.069-2.105-7.1-8.109-6.505-12.89.284-2.284.49-2.576 1.007-1.428.233.515 1.839 4.022 3.571 7.794m22.602-4.306c-.257 4.372-2.812 8.693-6.301 10.653l-1.333.75.239-.757c.264-.834 4.443-9.846 5.97-12.877 1.218-2.416 1.657-1.729 1.425 2.231m-10.583 9.79 1.063 2.454-1.761.366c-1.765.366-5.022.185-5.847-.325-.47-.29-.199-1.042 2.301-6.384l1.269-2.711.956 2.073a258 258 0 0 1 2.019 4.527m-103.924-2.98c.57.498 1.412.67 4.147.85 3.331.219 3.511.27 6.143 1.752l2.711 1.527 10.015.184 10.015.183 2.617-1.426 2.617-1.427 6.986.004 6.985.003 2.392 1.428 2.392 1.429h19.777l2.393-1.429c2.102-1.255 2.619-1.428 4.265-1.431 1.683-.004 1.83-.056 1.448-.516-.79-.952-3.615-.458-6.21 1.086l-2.252 1.34h-19.115l-2.452-1.435-2.452-1.436h-14.462l-2.311 1.276-2.312 1.276h-19.938l-2.91-1.565c-2.839-1.527-2.997-1.571-6.419-1.779-1.93-.118-3.796-.282-4.147-.366-.593-.141-.588-.108.077.472m195.936-.202c-2.669.237-3.641.466-4.785 1.125-4.353 2.508-3.195 2.315-13.85 2.315h-9.595l-2.073-1.276-2.073-1.276h-14.541l-2.452 1.436-2.452 1.435h-19.065l-2.303-1.435c-2.524-1.573-5.066-1.984-5.918-.957-.345.416-.15.478 1.504.478 1.71 0 2.121.143 4.106 1.429l2.205 1.428 9.888.003 9.889.004 2.392-1.429 2.392-1.428 6.986-.003 6.986-.004 2.213 1.276 2.213 1.276h19.588l2.746-1.575c2.606-1.494 2.916-1.59 6.09-1.884 1.839-.17 3.755-.533 4.258-.805l.914-.495-.957.032c-.526.018-2.464.166-4.306.33M35.103 223.997c-3.968 1.35-5.102 5.903-5.106 20.501-.005 16.666.403 17.088 17.394 18.031 12.789.71 13.326.596 20.644-4.373 8.811-5.983 8.68-5.775 8.68-13.818 0-5.699-.028-5.948-.792-7.284-1.649-2.88-12.365-9.92-16.84-11.062-5.54-1.415-21.728-2.761-23.98-1.995m316.891-.186c-16.388 1.668-18.637 2.431-28.303 9.601-4.365 3.238-4.527 3.573-4.661 9.615-.198 8.891.073 9.326 9.838 15.806 6.319 4.194 7.52 4.419 19.776 3.709 17.289-1 17.391-1.108 17.376-18.363-.018-19.704-1.363-21.657-14.026-20.368m9.648 1.913c2.821 2.09 3.95 10.66 3.251 24.677-.496 9.951-1.033 10.258-19.504 11.151-9.376.453-9.811.34-16.84-4.37-8.058-5.4-8.34-5.789-8.55-11.843-.264-7.596.025-8.105 7.485-13.146 7.389-4.992 8.733-5.435 20.199-6.669 9.518-1.023 12.363-.982 13.959.2m-311.248.11c10.475 1.323 12.349 2.093 21.388 8.793 3.635 2.694 3.885 3.232 4.069 8.729.251 7.518-.22 8.307-8.166 13.661-7.813 5.265-9.457 5.503-26.856 3.89-9.507-.881-10.656-3.631-9.585-22.948.771-13.898 1.493-14.355 19.15-12.125m-13.711 2.617c-1.908 1.008-2.55 5.136-2.543 16.366.006 9.722.421 11.425 2.988 12.267 2.9.951 20.454 1.705 22.67.974 1.5-.495 9.159-5.595 11.267-7.502l1.503-1.36.107-4.1c.137-5.242-.104-6.063-2.262-7.677-2.825-2.114-8.264-5.58-9.956-6.346-3.656-1.655-21.814-3.657-23.774-2.622m315.151-.164c-15.427 1.58-16.764 2.031-25.86 8.74-2.703 1.993-2.848 2.359-2.848 7.182 0 5.553.1 5.69 7.867 10.777 5.669 3.712 9.765 4.181 23.982 2.746 6.87-.693 7.396-1.974 6.927-16.866-.409-13.015-.819-13.527-10.068-12.579M46.89 231.734c10.615 1.246 11.221 1.425 16.341 4.823 4.888 3.245 4.814 3.124 4.83 7.841.015 4.403.156 4.159-4.106 7.099-6.182 4.265-5.833 4.18-15.2 3.698-10.964-.563-10.276.091-10.427-9.911-.221-14.544-.199-14.579 8.562-13.55m309.39.084c1.987 1.61 2.212 20.043.269 21.986-.951.95-4.133 1.31-12.849 1.451l-5.422.088-2.074-1.168c-3.297-1.857-7.697-5.119-8.008-5.938-.392-1.032-.361-7.628.04-8.376.492-.92 8.224-5.907 10.042-6.477 2.268-.711 11.852-2.012 15.355-2.084 1.435-.029 2.142.109 2.647.518M43.582 236.72c-.713 1.018-.747 6.389-.045 7.091.847.847 10.735 1.856 12.098 1.235.882-.401 1.335-2.936.984-5.491-.252-1.833-.512-1.979-4.785-2.675-5.927-.966-7.664-.999-8.252-.16m305.062-.465c-.438.068-2.448.35-4.465.628-5.19.713-5.206.731-4.859 5.49.232 3.184.193 3.171 7.173 2.509 6.581-.623 6.298-.412 6.298-4.702 0-4.056-.464-4.495-4.147-3.925m-230.143 15.76c-10.001.465-13.021 1.882-25.777 12.087-13.564 10.853-39.517 33.23-39.064 33.683.213.213 23.067 1.737 26.052 1.737 3.519 0 3.525-.003 9.921-3.728 1.842-1.073 4.139-2.216 5.104-2.541 2.742-.922 203.636-.922 206.379 0 .965.325 3.836 1.781 6.38 3.238 6.155 3.523 5.756 3.444 14.544 2.874 8.56-.555 20.349-1.461 20.464-1.573.248-.242-18.183-16.228-29.107-25.246-22.511-18.584-24.781-19.873-36.204-20.556-5.84-.349-151.149-.326-158.692.025m155.821 4.755c9.72.378 12.071 1.182 19.245 6.584 5.287 3.98 22.963 18.72 33.231 27.709 2.808 2.459 5.589 4.872 6.18 5.362 1.4 1.161 1.728 1.069-5.237 1.471-12.577.725-11.606.918-18.872-3.751-5.526-3.551-6.056-3.818-8.657-4.369-2.724-.578-200.897-.697-204.001-.123-2.711.501-4.084 1.187-9.991 4.986l-5.359 3.447-3.03.085c-1.667.047-5.895-.096-9.396-.319l-6.365-.404 3.654-3.322c3.002-2.731 15.256-13.321 19.784-17.1 24.427-20.383 23.568-19.917 37.299-20.252 12.244-.299 143.856-.302 151.515-.004m-3.51 5.846 1.115 1.212-2.43 2.377-2.431 2.376h-15.839l-1.132-1.037-1.132-1.037 1.1 1.196 1.099 1.197h15.897l2.458-2.393 2.459-2.392h7.808c5.795 0 7.923.103 8.255.399.38.339.384.315.025-.16-.382-.504-1.162-.558-8.106-.558h-7.682l-1.289-1.196-1.289-1.196zm-40.928.223 1.017 1.116-2.505 2.313-2.506 2.313h-15.188l-2.241-2.154-2.241-2.153 2.224 2.313 2.225 2.313h15.228l2.575-2.393 2.575-2.392h15.011l.974.87.974.871-.873-.939-.873-.939 1.033-1.128 1.032-1.128-1.131 1.037-1.132 1.037h-14.931l-1.132-1.037-1.131-1.037zm-31.637.877-7.655.092-2.411 2.397-2.412 2.398-7.846-.091c-4.316-.05-7.78.017-7.699.148.082.132 3.625.24 7.873.24h7.724l2.377-2.393 2.376-2.392h7.565c4.699 0 7.64-.121 7.762-.319.109-.176.153-.286.099-.245-.055.04-3.543.115-7.753.165m-81.998.319c6.996.08 8.035.158 8.613.644.655.551.655.55.049-.165-.604-.713-.661-.718-8.613-.644l-8.005.074zm33.016.957-1.099 1.196 1.131-1.036 1.132-1.037h7.456c6.635 0 7.528.061 8.119.558.662.558.662.558.055-.159-.599-.707-.721-.718-8.151-.718h-7.544zm-21.833 1.994c.864.877 1.643 1.595 1.731 1.595.087 0-.548-.718-1.412-1.595-.864-.878-1.642-1.595-1.73-1.595s.547.717 1.411 1.595m-22.791.462c-.734.757-1.424 1.138-2.216 1.222l-1.149.122 1.131.054c.936.044 1.348-.168 2.378-1.222.685-.702 1.173-1.276 1.084-1.276s-.641.495-1.228 1.1m41.457.33-.745.792-8.003.091-8.004.09 7.995.075 7.994.074.917-.957c.504-.527.843-.957.753-.957s-.498.356-.907.792m146.374.898c.148.148.755.22 1.347.159 1.051-.108 1.044-.115-.27-.27-.741-.088-1.226-.038-1.077.111m-165.527 2.696-2.065 2.153 2.153-2.064c1.185-1.136 2.154-2.105 2.154-2.154 0-.234-.325.065-2.242 2.065m61.093.079c1.219 1.228 2.288 2.233 2.376 2.233.087 0-.838-1.005-2.057-2.233s-2.287-2.232-2.375-2.232.838 1.004 2.056 2.232m20.246-.13c-1.135 1.156-2.279 2.197-2.542 2.312-.354.156.271.917 2.392 2.916l2.871 2.705-2.544-2.625-2.544-2.625 2.376-2.393c1.307-1.316 2.305-2.392 2.216-2.392s-1.089.945-2.225 2.102m41.46-.906-1.1 1.196 1.197-1.099c1.113-1.024 1.342-1.293 1.099-1.293-.054 0-.592.538-1.196 1.196m19.785 1.116 2.384 2.472-2.217 2.234c-1.22 1.229-2.474 2.316-2.788 2.416-.313.099-.483.32-.378.491.106.171 1.408-.88 2.895-2.335l2.704-2.646 6.918-.169 6.918-.169-7.01-.07-7.01-.071-2.4-2.312-2.4-2.313zm-119.406 2.313c.079.205 2.483.265 6.738.169 6.634-.15 6.042-.252-2.355-.406-2.906-.053-4.462.031-4.383.237m136.799-.187-.957.217.861.177c.563.115.919.027 1.027-.255.091-.237.134-.414.096-.393s-.501.135-1.027.254m-174.546.265c1.544.059 3.984.058 5.423-.001s.175-.107-2.807-.106c-2.982 0-4.16.048-2.616.107m84.992-.007c.571.071 1.504.071 2.074 0s.103-.129-1.037-.129-1.607.058-1.037.129m37.338.007c1.808.057 4.678.057 6.38 0s.222-.104-3.287-.104c-3.509.001-4.901.047-3.093.104m-128.336 2.394-1.904 1.993 1.993-1.903c1.852-1.769 2.14-2.084 1.904-2.084-.049 0-.946.897-1.993 1.994m81.819.159-2.065 2.153 2.154-2.064c1.184-1.135 2.153-2.104 2.153-2.153 0-.235-.325.064-2.242 2.064m39.881.489c-.263.214-.688.676-.945 1.026-.256.351-.005.217.559-.298.918-.84 1.184-1.157.944-1.127-.043.006-.295.185-.558.399m25.758 2.06c1.096.062 2.891.062 3.987 0s.199-.113-1.994-.113-3.09.051-1.993.113m-126.725 2.395-1.904 1.994 1.994-1.904c1.852-1.768 2.14-2.083 1.904-2.083-.049 0-.947.897-1.994 1.993m18.671-1.893c0 .055.466.521 1.036 1.036l1.037.937-.937-1.036c-.873-.967-1.136-1.184-1.136-.937m121.531 0c0 .055.466.521 1.036 1.036l1.037.937-.937-1.036c-.873-.967-1.136-1.184-1.136-.937m-59.022 2.053-1.744 1.834 1.834-1.743c1.704-1.62 1.98-1.925 1.744-1.925-.05 0-.876.825-1.834 1.834m80.862.797-1.904 1.994 1.993-1.904c1.097-1.047 1.994-1.944 1.994-1.993 0-.236-.315.051-2.083 1.903m-121.14-.867c-.493.433-.769.788-.614.788.154 0 .618-.359 1.03-.798.953-1.015.743-1.009-.416.01"/></g></svg>