<svg xmlns="http://www.w3.org/2000/svg" width="400" height="400" viewBox="0 0 400 400"><g fill-rule="evenodd"><path fill="#040404" d="M176.077 74.514c-27.509.462-41.571.857-66.986 1.882-20.904.843-21.369 1.063-25.808 12.206-2.408 6.045-7.096 21.28-11.458 37.235-3.261 11.928-4.225 15.729-5.623 22.169l-1.35 6.22-3.839.09-3.84.089-.129-8.223c-.173-11.091-.206-11.142-7.374-11.475-7.832-.363-12.005.572-13.129 2.941-1.686 3.553-2.897 22.167-1.638 25.18.795 1.903 5.101 2.903 16.632 3.862 3.908.325 5.562-.912 5.562-4.16v-1.126h6.46l-.199.994c-.11.547-.429 2.377-.709 4.067-.283 1.702-1.701 6.773-3.179 11.366-4.638 14.415-5.368 17.583-6.506 28.23-.492 4.608-.873 6.678-1.739 9.447-1.67 5.343-1.93 9.067-1.899 27.235.037 21.763.654 35.885 1.89 43.213.381 2.254.5 6.447.564 19.776.119 24.915-1.939 22.621 20.412 22.754 18.197.108 18.072.12 19.822-1.924 1.813-2.119 2.085-3.568 2.085-11.131 0-3.642.109-6.689.242-6.771 1.111-.687 15.299-.916 21.131-.341 9.534.939 161.203.953 169.217.015 5.083-.595 11.241-.571 18.66.071l2.393.207.163 7.337c.292 13.147-.632 12.6 21.278 12.599 22.979-.001 21.138 2.09 21.15-24.018.004-9.158.139-17.225.3-17.927 1.245-5.444 2.008-21.821 2.052-44.019.038-19.6-.066-20.796-2.613-29.825-.371-1.316-.908-4.761-1.193-7.655-.943-9.569-2.498-16.102-6.871-28.868-1.655-4.831-3.431-12.204-3.477-14.434-.006-.292.83-.398 3.142-.398h3.151l.15 1.807c.318 3.844 1.328 4.086 11.724 2.815 7.829-.958 8.53-1.131 9.749-2.405l.944-.987-.028-7.713c-.045-12.195-1.075-17.637-3.623-19.137-2.191-1.289-13.959-1.535-16.47-.344-2.069.982-2.189 1.538-2.313 10.742l-.11 8.223-3.871-.089-3.87-.09-1.172-5.46c-3.714-17.304-12.776-48.991-17.408-60.877-2.825-7.247-5.042-9.573-10.029-10.521-8.706-1.656-92.543-3.491-130.42-2.854m53.598 12.248c41.224.448 72.003 1.31 74.838 2.096 3.129.867 4.375 2.716 6.886 10.216 6.39 19.09 13.587 51.571 12.294 55.485-.948 2.87-4.302 4.124-12.369 4.626-33.706 2.094-189.801 2.076-222.648-.027-10.273-.657-12.735-2.159-12.323-7.514.691-9 8.004-39.668 12.808-53.717 3.213-9.397 3.166-9.374 19.611-9.884 28.504-.885 44.079-1.158 87.719-1.538 2.895-.026 17.827.09 33.184.257M75.528 195.517a6030 6030 0 0 0 16.179 3.793c15.202 3.525 20.733 4.898 20.913 5.189.11.177 1.024 3.282 2.032 6.9l1.832 6.578-.746.589c-3.766 2.974-7.569 5.049-9.634 5.256-1.397.141-25.429-3.119-38.031-5.158-7.592-1.228-8.625-3.521-7.298-16.2 1.161-11.105-.191-10.469 14.753-6.947m262.709-1.817c.543.863.966 3.32 1.63 9.49 1.427 13.243.709 14.224-11.797 16.115-30.294 4.58-32.381 4.794-34.796 3.566-3.034-1.542-7.469-4.658-7.461-5.242.008-.673 3.336-13.105 3.571-13.339.09-.09 4.596-1.222 10.015-2.515 18.659-4.455 26.133-6.256 31.064-7.488 5.978-1.493 7.147-1.581 7.774-.587m-132.126 4.511c12.315 4.347 14.613 20.775 3.96 28.306-10.493 7.418-24.762-.234-24.74-13.267.018-10.836 10.727-18.587 20.78-15.039m-7.786 1.68c-.482.083-.873.321-.868.529.016.684 3.405 8.353 3.665 8.294.539-.123 3.739-8.128 3.389-8.477-.36-.36-4.696-.602-6.186-.346m7.402 7.298-2.378 5.564-2.312.003c-1.272.002-2.313-.126-2.313-.283 0-.722-4.578-10.559-4.913-10.559-.453 0-3.699 3.169-3.699 3.611 0 .3 2.413 5.751 5.1 11.517l1.326 2.848 1.221-2.848 1.222-2.847h4.314l1.11 2.631c1.321 3.132 1.327 3.134 2.368.798.449-1.009 1.839-4.1 3.088-6.868 2.506-5.554 2.495-5.368.451-7.264-2.328-2.161-1.953-2.463-4.585 3.697m-17.991 4.852c-.511 4.563 1.745 9.556 5.593 12.381 2.455 1.803 2.593 2.244-3.25-10.465-1.981-4.311-2.067-4.381-2.343-1.916m22.678 5.684c-3.825 8.314-3.796 8.197-1.689 6.801 3.798-2.515 6.279-7.78 5.795-12.297-.302-2.814-.251-2.881-4.106 5.496m-11.17 4.299c-.997 2.322-1.749 4.286-1.67 4.364.713.714 5.752.792 6.86.107.349-.216-1.796-5.866-3.137-8.263-.152-.273-.896 1.099-2.053 3.792"/><path fill="#fbfbfb" d="M0 200v200h400V0H0zM251.675 74.955c26.419.623 51.132 1.711 54.822 2.413 4.987.948 7.204 3.274 10.029 10.521 4.632 11.886 13.694 43.573 17.408 60.877l1.172 5.46 3.87.09 3.871.089.11-8.223c.124-9.204.244-9.76 2.313-10.742 2.511-1.191 14.279-.945 16.47.344 2.548 1.5 3.578 6.942 3.623 19.137l.028 7.713-.944.987c-1.219 1.274-1.92 1.447-9.749 2.405-10.396 1.271-11.406 1.029-11.724-2.815l-.15-1.807h-3.151c-2.312 0-3.148.106-3.142.398.046 2.23 1.822 9.603 3.477 14.434 4.373 12.766 5.928 19.299 6.871 28.868.285 2.894.822 6.339 1.193 7.655 2.547 9.029 2.651 10.225 2.613 29.825-.044 22.198-.807 38.575-2.052 44.019-.161.702-.296 8.769-.3 17.927-.009 20.044-.277 21.682-3.835 23.46-1.504.751-32.785.863-34.555.124-3.161-1.321-3.843-3.374-4.038-12.165l-.163-7.337-2.393-.207c-7.419-.642-13.577-.666-18.66-.071-8.014.938-159.683.924-169.217-.015-5.832-.575-20.02-.346-21.131.341-.133.082-.242 3.129-.242 6.771 0 7.563-.272 9.012-2.085 11.131-1.75 2.044-1.625 2.032-19.822 1.924-18.292-.109-17.12.046-18.839-2.481-1.461-2.146-1.488-2.491-1.573-20.273-.064-13.329-.183-17.522-.564-19.776-1.236-7.328-1.853-21.45-1.89-43.213-.031-18.168.229-21.892 1.899-27.235.866-2.769 1.247-4.839 1.739-9.447 1.138-10.647 1.868-13.815 6.506-28.23 1.478-4.593 2.896-9.664 3.179-11.366.28-1.69.599-3.52.709-4.067l.199-.994h-6.46v1.126c0 3.248-1.654 4.485-5.562 4.16-11.531-.959-15.837-1.959-16.632-3.862-1.259-3.013-.048-21.627 1.638-25.18 1.124-2.369 5.297-3.304 13.129-2.941 7.168.333 7.201.384 7.374 11.475l.129 8.223 3.84-.089 3.839-.09 1.35-6.22c1.398-6.44 2.362-10.241 5.623-22.169 4.362-15.955 9.05-31.19 11.458-37.235 4.439-11.143 4.904-11.363 25.808-12.206 25.415-1.025 39.477-1.42 66.986-1.882 10.614-.179 62.051.122 75.598.441m-83.413 11.834c-31.624.328-68.835 1.319-71.827 1.914-2.056.408-3.964 1.761-5.005 3.548-3.592 6.17-14.197 47.944-15.077 59.393-.412 5.355 2.05 6.857 12.323 7.514 32.847 2.103 188.942 2.121 222.648.027 8.067-.502 11.421-1.756 12.369-4.626 1.293-3.914-5.904-36.395-12.294-55.485-3.554-10.615-3.351-10.497-18.895-11.02-24.785-.835-78.516-1.702-96.013-1.549-2.895.025-15.598.153-28.229.284M62.371 193.719c-1.494 2.28-2.781 18.449-1.639 20.599 1.268 2.388 3.536 3.73 7.341 4.346 12.602 2.039 36.634 5.299 38.031 5.158 2.065-.207 5.868-2.282 9.634-5.256l.746-.589-1.832-6.578c-1.008-3.618-1.922-6.723-2.032-6.9-.18-.291-5.711-1.664-20.913-5.189a6030 6030 0 0 1-16.179-3.793c-11.901-2.805-12.448-2.879-13.157-1.798m268.092.568c-4.931 1.232-12.405 3.033-31.064 7.488-5.419 1.293-9.925 2.425-10.015 2.515-.235.234-3.563 12.666-3.571 13.339-.008.584 4.427 3.7 7.461 5.242 2.415 1.228 4.502 1.014 34.796-3.566 12.506-1.891 13.224-2.872 11.797-16.115-1.241-11.518-.759-11.062-9.404-8.903m-134.298 3.887c-16.928 5.772-12.894 31.172 4.951 31.172 10.245 0 17.694-9.589 15.308-19.707-2.123-9.007-11.652-14.4-20.259-11.465m8.346 2.063c.35.349-2.85 8.354-3.389 8.477-.26.059-3.649-7.61-3.665-8.294-.017-.738 6.335-.903 7.054-.183m5.801 3.255c2.044 1.896 2.055 1.71-.451 7.264a2189 2189 0 0 0-3.088 6.868c-1.041 2.336-1.047 2.334-2.368-.798l-1.11-2.631h-4.314l-1.222 2.847-1.221 2.848-1.326-2.848c-2.687-5.766-5.1-11.217-5.1-11.517 0-.442 3.246-3.611 3.699-3.611.335 0 4.913 9.837 4.913 10.559 0 .157 1.041.285 2.313.283l2.312-.003 2.378-5.564c2.632-6.16 2.257-5.858 4.585-3.697m-20.233 10.465c5.843 12.709 5.705 12.268 3.25 10.465-3.848-2.825-6.104-7.818-5.593-12.381.276-2.465.362-2.395 2.343 1.916m24.441-1.728c.484 4.517-1.997 9.782-5.795 12.297-2.107 1.396-2.136 1.513 1.689-6.801 3.855-8.377 3.804-8.31 4.106-5.496m-11.332 10.223c1.249 2.869 1.552 3.854 1.246 4.043-1.108.685-6.147.607-6.86-.107-.079-.078.673-2.042 1.67-4.364 1.157-2.693 1.901-4.065 2.053-3.792.132.236.983 2.135 1.891 4.22"/></g></svg>